<?xml version="1.0" standalone="no"?>
<svg width="567.429" height="329.319" viewBox="0 0 567.429 329.319" xmlns="http://www.w3.org/2000/svg">
<title>
/home/ADF/hyw543/XRay/Resolution/220.svg
</title>
<desc>
Creator: ROOT Version 6.06/08
CreationDate: Fri Mar  1 16:22:04 2019</desc>
<defs>
</defs>
<rect x="0.5" y="0" width="566.929" height="328.819" fill="white"/>
<rect x="57.1929" y="32.8819" width="453.543" height="263.055" fill="white"/>
<rect x="57.1929" y="32.8819" width="453.543" height="263.055" fill="none" stroke="black"/>
<rect x="57.1929" y="32.8819" width="453.543" height="263.055" fill="white"/>
<rect x="57.1929" y="32.8819" width="453.543" height="263.055" fill="none" stroke="black"/>
<path d="M57.1929,290.301h 1.1904v 0.031137h 1.1904v -0.404782h 1.1904v -0.373645h 1.1904v 0.871837h 1.1904v -0.280233h 1.1904v -1.30776h 1.1904v 1.30776h 1.1904v -1.27662h 1.1904v 0.747289h 1.1904v -0.435919h 1.1904v -0.186822h 1.1904v -0.498193h
 1.1904v 1.02752h 1.1904v -1.12093h 1.1904v 0.809563h 1.1904v -0.404782h 1.1904v -0.031137h 1.1904v 0.249096h 1.1904v -1.77481h 1.1904v 0.31137h 1.1904v -0.653878h 1.1904v 0.716152h 1.1904v -0.217959h 1.1904v 0.31137h 1.1904v -0.186822h 1.1904v
 -0.404782h 1.1904v 0.716152h 1.1904v -1.21434h 1.1904v -0.747289h 1.1904v 0.0622741h 1.1904v 0.031137h 1.1904v -1.12093h 1.1904v 1.58799h 1.1904v 0.031137h 1.1904v -2.49096h 1.1904v 1.40117h 1.1904v -0.8407h 1.1904v -0.0622741h 1.1904v -0.342508h
 1.1904v -0.716152h 1.1904v -0.965248h 1.1904v 0.622741h 1.1904v -0.155685h 1.1904v -1.30776h 1.1904v -1.02752h 1.1904v 0.031137h 1.1904v -0.31137h 1.1904v 0.467056h 1.1904v -1.86822h 1.1904v 0.155685h 1.1904v -1.05866h 1.1904v -0.031137h 1.1904v
 -1.02752h 1.1904v -0.0934111h 1.1904v -1.52572h 1.1904v -0.186822h 1.1904v -3.42508h 1.1904v -0.560467h 1.1904v -1.77481h 1.1904v -1.65026h 1.1904v -6.28968h 1.1904v -2.14846h 1.1904v -3.64303h 1.1904v -6.19627h 1.1904v -5.8849h 1.1904v -7.03697h
 1.1904v -12.5794h 1.1904v -8.12677h 1.1904v -7.8154h 1.1904v -12.6728h 1.1904v -13.171h 1.1904v -12.6105h 1.1904v -5.82263h 1.1904v -10.9602h 1.1904v -7.5663h 1.1904v -5.38671h 1.1904v -2.21073h 1.1904v -0.902974h 1.1904v 1.71254h 1.1904v 0.217959h
 1.1904v 4.42146h 1.1904v 12.7039h 1.1904v 1.71254h 1.1904v 9.83931h 1.1904v 2.05505h 1.1904v 9.02974h 1.1904v 4.63942h 1.1904v -0.591604h 1.1904v -1.83709h 1.1904v -7.5663h 1.1904v -5.41785h 1.1904v -10.5555h 1.1904v -16.3158h 1.1904v -11.3027h
 1.1904v -14.2296h 1.1904v -21.6714h 1.1904v -13.2644h 1.1904v -9.46566h 1.1904v -12.3925h 1.1904v -12.4548h 1.1904v -0.560467h 1.1904v 3.82986h 1.1904v 3.33166h 1.1904v 9.18543h 1.1904v 14.1362h 1.1904v 17.0631h 1.1904v 10.462h 1.1904v 25.9372h
 1.1904v 15.8488h 1.1904v 24.536h 1.1904v 14.541h 1.1904v 20.1457h 1.1904v 14.8835h 1.1904v 13.7003h 1.1904v 12.268h 1.1904v 8.22018h 1.1904v 9.7459h 1.1904v 7.41062h 1.1904v 6.28968h 1.1904v 3.23825h 1.1904v 3.02029h 1.1904v 3.14484h 1.1904v
 1.96163h 1.1904v 1.0898h 1.1904v 0.560467h 1.1904v 1.33889h 1.1904v 0.0622741h 1.1904v 1.27662h 1.1904v -0.0934111h 1.1904v -0.342508h 1.1904v 1.21434h 1.1904v -0.249096h 1.1904v 0.031137h 1.1904v 0.186822h 1.1904v 0.342508h 1.1904v -0.280233h
 1.1904v 0.435919h 1.1904v -0.280233h 1.1904v 0.342508h 1.1904v -0.249096h 1.1904v 0.591604h 1.1904v -0.031137h 1.1904v -0.249096h 1.1904v -0.217959h 1.1904v -0.0622741h 1.1904v -0.124548h 1.1904v 0.186822h 1.1904v 0.653878h 1.1904v -0.653878h
 1.1904v -0.249096h 1.1904v 0.217959h 1.1904v 0.467056h 1.1904v -0.404782h 1.1904v 0.155685h 1.1904v -0.217959h 1.1904v 0.467056h 1.1904v -0.124548h 1.1904v 0.249096h 1.1904v 0.186822h 1.1904v -0.747289h 1.1904v 0.0622741h 1.1904v 0.685015h 1.1904v
 -0.685015h 1.1904v 0.591604h 1.1904v -0.653878h 1.1904v 0.0622741h 1.1904v 0.404782h 1.1904v -0.217959h 1.1904v 0.186822h 1.1904v 0.0622741h 1.1904v -0.217959h 1.1904v 0.280233h 1.1904v -0.217959h 1.1904v 0.031137h 1.1904v -0.0622741h 1.1904v
 0.31137h 1.1904v 0.031137h 1.1904v -0.342508h 1.1904v 0.373645h 2.3808v -0.0622741h 1.1904v -0.404782h 1.1904v 0.186822h 1.1904v -0.560467h 1.1904v 0.685015h 1.1904v -0.186822h 1.1904v -0.373645h 1.1904v -0.0934111h 1.1904v 0.280233h 1.1904v
 -0.560467h 1.1904v 0.435919h 1.1904v 0.31137h 1.1904v -0.155685h 1.1904v -0.342508h 1.1904v 0.591604h 1.1904v -0.31137h 1.1904v 0.0622741h 1.1904v -0.498193h 1.1904v 0.31137h 2.3808v -0.435919h 1.1904v 0.404782h 1.1904v 0.155685h 1.1904v 0.186822h
 1.1904v -1.02752h 1.1904v 0.124548h 1.1904v 0.280233h 1.1904v 0.124548h 1.1904v -0.249096h 1.1904v -0.031137h 1.1904v 0.124548h 2.3808v -0.280233h 1.1904v 0.498193h 1.1904v -0.342508h 1.1904v 0.124548h 1.1904v -0.0934111h 1.1904v 0.124548h 1.1904v
 -0.155685h 1.1904v -0.0934111h 1.1904v -0.031137h 1.1904v -0.934111h 1.1904v 0.653878h 1.1904v 0.560467h 1.1904v -0.467056h 1.1904v -0.871837h 1.1904v 0.560467h 1.1904v 0.435919h 1.1904v -0.747289h 1.1904v 0.155685h 1.1904v -0.155685h 1.1904v
 0.0622741h 1.1904v -0.404782h 1.1904v 0.249096h 1.1904v 0.031137h 1.1904v -0.217959h 1.1904v -0.435919h 1.1904v 0.124548h 1.1904v 0.280233h 1.1904v -0.498193h 1.1904v -0.373645h 1.1904v 1.40117h 1.1904v -0.871837h 1.1904v -0.031137h 1.1904v
 -0.155685h 1.1904v -0.934111h 1.1904v 0.560467h 1.1904v -0.871837h 1.1904v 1.12093h 1.1904v -0.249096h 1.1904v -0.342508h 1.1904v -0.778426h 1.1904v 0.280233h 1.1904v 0.0934111h 1.1904v -0.217959h 1.1904v -0.31137h 1.1904v 0.0622741h 1.1904v
 0.996386h 1.1904v -1.30776h 1.1904v -0.435919h 1.1904v 0.31137h 1.1904v 0.560467h 1.1904v -1.27662h 1.1904v 0.404782h 1.1904v 0.280233h 1.1904v -0.31137h 1.1904v 0.124548h 1.1904v -0.373645h 1.1904v -0.591604h 1.1904v -0.186822h 1.1904v -1.15207h
 1.1904v -1.37003h 1.1904v -0.186822h 1.1904v -0.435919h 1.1904v -1.99277h 1.1904v -2.49096h 1.1904v -0.498193h 1.1904v -3.70531h 1.1904v -1.80595h 1.1904v -2.83347h 1.1904v -3.30053h 1.1904v -5.38671h 1.1904v -1.15207h 1.1904v -3.45621h 1.1904v
 -5.94718h 1.1904v -2.24187h 1.1904v -3.82986h 1.1904v -2.83347h 1.1904v -5.26216h 1.1904v 1.02752h 1.1904v -1.30776h 1.1904v -2.80233h 1.1904v 1.33889h 1.1904v 3.82986h 1.1904v -0.217959h 1.1904v 5.79149h 1.1904v 3.14484h 1.1904v 4.14123h 1.1904v
 3.86099h 1.1904v 1.77481h 1.1904v 6.60105h 1.1904v 2.80233h 1.1904v 3.54962h 1.1904v 3.58076h 1.1904v 3.14484h 1.1904v 3.45621h 1.1904v 1.74367h 1.1904v 1.99277h 1.1904v 1.02752h 1.1904v 1.33889h 1.1904v 0.622741h 1.1904v 1.9305h 1.1904v 0.0934111h
 1.1904v 0.52933h 1.1904v 0.8407h 1.1904v -0.124548h 1.1904v -0.0622741h 1.1904v 0.0622741h 1.1904v -0.0934111h 1.1904v 0.0934111h 1.1904v -0.249096h 1.1904v -0.560467h 1.1904v -0.186822h 1.1904v -1.58799h 1.1904v 0.186822h 1.1904v -0.622741h 1.1904v
 -0.902974h 1.1904v -0.902974h 1.1904v -1.24548h 1.1904v -0.778426h 1.1904v -1.77481h 1.1904v -1.18321h 1.1904v 1.4323h 1.1904v -1.46344h 1.1904v -0.249096h 1.1904v -1.21434h 1.1904v 0.591604h 1.1904v -0.031137h 1.1904v -0.435919h 1.1904v 1.30776h
 1.1904v 1.49458h 1.1904v 0.716152h 1.1904v 1.02752h 1.1904v 0.0934111h 1.1904v 1.71254h 1.1904v 0.217959h 1.1904v 2.33528h 1.1904v 0.809563h 1.1904v -0.155685h 1.1904v 1.21434h 1.1904v 0.747289h 1.1904v 0.155685h 1.1904v 0.902974h 1.1904v 0.435919h
 1.1904v -0.031137h 1.1904v 0.8407h 1.1904v -0.031137h 1.1904v -0.0934111h 1.1904v 0.52933h 1.1904v 0.124548h 1.1904v 0.435919h 1.1904v -0.217959h 1.1904v -0.0622741h 1.1904v 0.249096h 1.1904v 0.0622741h 1.1904v -0.155685h 1.1904v 0.124548h 1.1904v
 -0.0622741h 1.1904v 0.186822h 1.1904v -0.31137h 1.1904v 0.31137h 1.1904v -0.155685h 1.1904v 0.0934111h 1.1904v -0.186822h 1.1904v 0.186822h 1.1904v -0.0622741h 1.1904v -0.031137h 1.1904v 0.155685h 2.3808v -0.155685h 1.1904" fill="none"
 stroke="#ff0000" stroke-width="2"/>
<path d="M59.4606,290.357l 4.53543, 0.0549104l 4.53543, 0.0549104l 4.53543, 0.0549103l 4.53543, 0.0549093l 4.53543, 0.0549005l 4.53543, 0.0548325l 4.53543, 0.0543807l 4.53543, 0.0517977l 4.53543, 0.039107l 4.53543, -0.0143395l 4.53543, -0.206628l
 4.53543, -0.794826l 4.53543, -2.31398l 4.53543, -5.59087l 4.53543, -11.3855l 4.53543, -19.4855l 4.53543, -27.6596l 4.53543, -31.648l 4.53543, -27.2346l 4.53543, -13.7617l 4.53543, 3.32064l 4.53543, 12.9999l 4.53543, 3.72072l 4.53543, -25.1646l
 4.53543, -51.493l 4.53543, -41.599l 4.53543, 9.43396l 4.53543, 61.8345l 4.53543, 75.8344l 4.53543, 54.4647l 4.53543, 26.3457l 4.53543, 9.02053l 4.53543, 2.26049l 4.53543, 0.450989l 4.53543, 0.107206l 4.53543, 0.0600112l 4.53543, 0.0552794l 4.53543,
 0.0549303l 4.53543, 0.0549112l 4.53543, 0.0549105l 4.53543, 0.0549104l 4.53543, 0.0549104l 4.53543, 0.0549104l 4.53543, 0.0549104l 4.53543, 0.0549104l 4.53543, 0.0549104l 4.53543, 0.0549104l 4.53543, 0.0549104l 4.53543, 0.0549104" fill="none"
 stroke="#0000ff" stroke-width="2"/>
<path d="M281.697,293.048l 4.53543, 0.0549104l 4.53543, 0.0549104l 4.53543, 0.0549104l 4.53543, 0.0549104l 4.53543, 0.0549104l 4.53543, 0.0549104l 4.53543, 0.0549104l 4.53543, 0.0549104l 4.53543, 0.0549104l 4.53543, 0.0549104l 4.53543, 0.0549104l
 4.53543, 0.05491l 4.53543, 0.0549061l 4.53543, 0.0548709l 4.53543, 0.0546056l 4.53543, 0.0529251l 4.53543, 0.0440055l 4.53543, 0.0044643l 4.53543, -0.141245l 4.53543, -0.584477l 4.53543, -1.6854l 4.53543, -3.8773l 4.53543, -7.25141l 4.53543,
 -10.9254l 4.53543, -12.8537l 4.53543, -10.8465l 4.53543, -4.47247l 4.53543, 3.93289l 4.53543, 10.5903l 4.53543, 12.9646l 4.53543, 11.2631l 4.53543, 7.56712l 4.53543, 3.89533l 4.53543, 1.07815l 4.53543, -1.02036l 4.53543, -2.63153l 4.53543, -3.47865l
 4.53543, -2.971l 4.53543, -1.00898l 4.53543, 1.52099l 4.53543, 3.29062l 4.53543, 3.59881l 4.53543, 2.77957l 4.53543, 1.64989l 4.53543, 0.789125l 4.53543, 0.325007l 4.53543, 0.135048l 4.53543, 0.0741976l 4.53543, 0.0586901" fill="none"
 stroke="#0000ff" stroke-width="2"/>
<path d="M503.933,295.738l 4.53543, 0.0555151" fill="none" stroke="#0000ff" stroke-width="2"/>
<rect x="351.996" y="21.3732" width="204.094" height="210.444" fill="white"/>
<path d="M351.996,231.817h 204.094" fill="none" stroke="black" stroke-width="2"/>
<path d="M556.091,231.817v -210.444" fill="none" stroke="black" stroke-width="2"/>
<path d="M556.091,21.3732h -204.094" fill="none" stroke="black" stroke-width="2"/>
<path d="M351.996,21.3732v 210.444" fill="none" stroke="black" stroke-width="2"/>
<text x="372.057" y="32.2714" fill="black" font-size="11.7025" font-family="Helvetica">
 / ndf 
</text>
<text x="367.696" y="27.9104" fill="black" font-size="7.96835" font-family="Helvetica">
2
</text>
<text x="361.59" y="32.2714" fill="black" font-size="11.7025" font-family="Times">
&#0967;
</text>
<text x="487.187" y="32.2714" fill="black" font-size="11.7025" font-family="Helvetica">
  9641 / 367
</text>
<text x="361.59" y="46.2265" fill="black" font-size="11.7025" font-family="Helvetica">
1-Centroid 
</text>
<text x="529.052" y="46.2265" fill="black" font-size="11.7025" font-family="Helvetica">
 0.1
</text>
<text x="522.947" y="46.2265" fill="black" font-size="11.7025" font-family="Times">
&#0177;
</text>
<text x="491.548" y="46.2265" fill="black" font-size="11.7025" font-family="Helvetica">
  1681 
</text>
<text x="361.59" y="61.0539" fill="black" font-size="11.7025" font-family="Helvetica">
1-FWHM   
</text>
<text x="527.308" y="60.1817" fill="black" font-size="11.7025" font-family="Helvetica">
 0.2
</text>
<text x="521.203" y="60.1817" fill="black" font-size="11.7025" font-family="Times">
&#0177;
</text>
<text x="491.548" y="60.1817" fill="black" font-size="11.7025" font-family="Helvetica">
  20.3 
</text>
<text x="361.59" y="74.1369" fill="black" font-size="11.7025" font-family="Helvetica">
1-Counts 
</text>
<text x="515.097" y="74.1369" fill="black" font-size="11.7025" font-family="Helvetica">
 109.6
</text>
<text x="508.992" y="74.1369" fill="black" font-size="11.7025" font-family="Times">
&#0177;
</text>
<text x="475.848" y="74.1369" fill="black" font-size="11.7025" font-family="Helvetica">
  9514 
</text>
<text x="361.59" y="88.0921" fill="black" font-size="11.7025" font-family="Helvetica">
2-Centroid 
</text>
<text x="529.052" y="88.0921" fill="black" font-size="11.7025" font-family="Helvetica">
 0.1
</text>
<text x="522.947" y="88.0921" fill="black" font-size="11.7025" font-family="Times">
&#0177;
</text>
<text x="489.803" y="88.0921" fill="black" font-size="11.7025" font-family="Helvetica">
  1423 
</text>
<text x="361.59" y="102.919" fill="black" font-size="11.7025" font-family="Helvetica">
2-FWHM   
</text>
<text x="521.203" y="102.047" fill="black" font-size="11.7025" font-family="Helvetica">
 0.18
</text>
<text x="515.097" y="102.047" fill="black" font-size="11.7025" font-family="Times">
&#0177;
</text>
<text x="483.698" y="102.047" fill="black" font-size="11.7025" font-family="Helvetica">
 23.81 
</text>
<text x="361.59" y="116.875" fill="black" font-size="11.7025" font-family="Helvetica">
2-Counts 
</text>
<text x="489.803" y="116.875" fill="black" font-size="11.7025" font-family="Helvetica">
 7.517e+02
</text>
<text x="483.698" y="116.875" fill="black" font-size="11.7025" font-family="Times">
&#0177;
</text>
<text x="425.261" y="116.875" fill="black" font-size="11.7025" font-family="Helvetica">
 1.147e+05 
</text>
<text x="361.59" y="130.83" fill="black" font-size="11.7025" font-family="Helvetica">
3-Centroid 
</text>
<text x="527.308" y="130.83" fill="black" font-size="11.7025" font-family="Helvetica">
 0.0
</text>
<text x="521.203" y="130.83" fill="black" font-size="11.7025" font-family="Times">
&#0177;
</text>
<text x="488.059" y="130.83" fill="black" font-size="11.7025" font-family="Helvetica">
  1447 
</text>
<text x="361.59" y="144.785" fill="black" font-size="11.7025" font-family="Helvetica">
3-FWHM   
</text>
<text x="521.203" y="144.785" fill="black" font-size="11.7025" font-family="Helvetica">
 0.07
</text>
<text x="515.097" y="144.785" fill="black" font-size="11.7025" font-family="Times">
&#0177;
</text>
<text x="481.954" y="144.785" fill="black" font-size="11.7025" font-family="Helvetica">
 16.53 
</text>
<text x="361.59" y="158.74" fill="black" font-size="11.7025" font-family="Helvetica">
3-Counts 
</text>
<text x="489.803" y="158.74" fill="black" font-size="11.7025" font-family="Helvetica">
 7.461e+02
</text>
<text x="483.698" y="158.74" fill="black" font-size="11.7025" font-family="Times">
&#0177;
</text>
<text x="425.261" y="158.74" fill="black" font-size="11.7025" font-family="Helvetica">
 1.323e+05 
</text>
<text x="361.59" y="172.695" fill="black" font-size="11.7025" font-family="Helvetica">
4-Centroid 
</text>
<text x="529.052" y="172.695" fill="black" font-size="11.7025" font-family="Helvetica">
 0.1
</text>
<text x="522.947" y="172.695" fill="black" font-size="11.7025" font-family="Times">
&#0177;
</text>
<text x="489.803" y="172.695" fill="black" font-size="11.7025" font-family="Helvetica">
  1636 
</text>
<text x="361.59" y="187.523" fill="black" font-size="11.7025" font-family="Helvetica">
4-FWHM   
</text>
<text x="521.203" y="186.651" fill="black" font-size="11.7025" font-family="Helvetica">
 0.12
</text>
<text x="515.097" y="186.651" fill="black" font-size="11.7025" font-family="Times">
&#0177;
</text>
<text x="481.954" y="186.651" fill="black" font-size="11.7025" font-family="Helvetica">
 22.07 
</text>
<text x="361.59" y="200.606" fill="black" font-size="11.7025" font-family="Helvetica">
4-Counts 
</text>
<text x="489.803" y="200.606" fill="black" font-size="11.7025" font-family="Helvetica">
 2.090e+02
</text>
<text x="483.698" y="200.606" fill="black" font-size="11.7025" font-family="Times">
&#0177;
</text>
<text x="425.261" y="200.606" fill="black" font-size="11.7025" font-family="Helvetica">
 4.022e+04 
</text>
<text x="361.59" y="213.689" fill="black" font-size="11.7025" font-family="Helvetica">
Intercept 
</text>
<text x="527.308" y="214.561" fill="black" font-size="11.7025" font-family="Helvetica">
 7.7
</text>
<text x="521.203" y="214.561" fill="black" font-size="11.7025" font-family="Times">
&#0177;
</text>
<text x="488.059" y="214.561" fill="black" font-size="11.7025" font-family="Helvetica">
 802.2 
</text>
<text x="361.59" y="227.644" fill="black" font-size="11.7025" font-family="Helvetica">
Slope    
</text>
<text x="508.12" y="228.516" fill="black" font-size="11.7025" font-family="Helvetica">
 0.0047
</text>
<text x="502.014" y="228.516" fill="black" font-size="11.7025" font-family="Times">
&#0177;
</text>
<text x="465.382" y="228.516" fill="black" font-size="11.7025" font-family="Helvetica">
0.4629 
</text>
<text x="459.276" y="228.516" fill="black" font-size="11.7025" font-family="Times">
&#8722;
</text>
<text x="456.66" y="228.516" fill="black" font-size="11.7025" font-family="Helvetica">
 
</text>
<path d="M57.1929,295.937h 453.543" fill="none" stroke="black" stroke-width="2"/>
<text x="467.998" y="318.353" fill="black" font-size="11.0584" font-family="Helvetica">
Channels
</text>
<path d="M123.855,288.045v 7.89165" fill="none" stroke="black" stroke-width="2"/>
<path d="M147.663,291.991v 3.94583" fill="none" stroke="black" stroke-width="2"/>
<path d="M171.472,291.991v 3.94583" fill="none" stroke="black" stroke-width="2"/>
<path d="M195.28,291.991v 3.94583" fill="none" stroke="black" stroke-width="2"/>
<path d="M219.088,291.991v 3.94583" fill="none" stroke="black" stroke-width="2"/>
<path d="M242.896,288.045v 7.89165" fill="none" stroke="black" stroke-width="2"/>
<path d="M266.704,291.991v 3.94583" fill="none" stroke="black" stroke-width="2"/>
<path d="M290.512,291.991v 3.94583" fill="none" stroke="black" stroke-width="2"/>
<path d="M314.32,291.991v 3.94583" fill="none" stroke="black" stroke-width="2"/>
<path d="M338.128,291.991v 3.94583" fill="none" stroke="black" stroke-width="2"/>
<path d="M361.936,288.045v 7.89165" fill="none" stroke="black" stroke-width="2"/>
<path d="M385.744,291.991v 3.94583" fill="none" stroke="black" stroke-width="2"/>
<path d="M409.552,291.991v 3.94583" fill="none" stroke="black" stroke-width="2"/>
<path d="M433.36,291.991v 3.94583" fill="none" stroke="black" stroke-width="2"/>
<path d="M457.168,291.991v 3.94583" fill="none" stroke="black" stroke-width="2"/>
<path d="M480.976,288.045v 7.89165" fill="none" stroke="black" stroke-width="2"/>
<path d="M123.855,288.045v 7.89165" fill="none" stroke="black" stroke-width="2"/>
<path d="M100.047,291.991v 3.94583" fill="none" stroke="black" stroke-width="2"/>
<path d="M76.2394,291.991v 3.94583" fill="none" stroke="black" stroke-width="2"/>
<path d="M480.976,288.045v 7.89165" fill="none" stroke="black" stroke-width="2"/>
<path d="M504.784,291.991v 3.94583" fill="none" stroke="black" stroke-width="2"/>
<text x="111.269" y="306.142" fill="black" font-size="11.0584" font-family="Helvetica">
1400
</text>
<text x="229.888" y="306.142" fill="black" font-size="11.0584" font-family="Helvetica">
1500
</text>
<text x="349.379" y="306.142" fill="black" font-size="11.0584" font-family="Helvetica">
1600
</text>
<text x="467.998" y="306.142" fill="black" font-size="11.0584" font-family="Helvetica">
1700
</text>
<path d="M57.1929,295.937v -263.055" fill="none" stroke="black" stroke-width="2"/>
<path d="M70.7992,295.937h -13.6063" fill="none" stroke="black" stroke-width="2"/>
<path d="M63.9961,289.71h -6.80315" fill="none" stroke="black" stroke-width="2"/>
<path d="M63.9961,283.482h -6.80315" fill="none" stroke="black" stroke-width="2"/>
<path d="M63.9961,277.255h -6.80315" fill="none" stroke="black" stroke-width="2"/>
<path d="M63.9961,271.027h -6.80315" fill="none" stroke="black" stroke-width="2"/>
<path d="M70.7992,264.8h -13.6063" fill="none" stroke="black" stroke-width="2"/>
<path d="M63.9961,258.573h -6.80315" fill="none" stroke="black" stroke-width="2"/>
<path d="M63.9961,252.345h -6.80315" fill="none" stroke="black" stroke-width="2"/>
<path d="M63.9961,246.118h -6.80315" fill="none" stroke="black" stroke-width="2"/>
<path d="M63.9961,239.89h -6.80315" fill="none" stroke="black" stroke-width="2"/>
<path d="M70.7992,233.663h -13.6063" fill="none" stroke="black" stroke-width="2"/>
<path d="M63.9961,227.436h -6.80315" fill="none" stroke="black" stroke-width="2"/>
<path d="M63.9961,221.208h -6.80315" fill="none" stroke="black" stroke-width="2"/>
<path d="M63.9961,214.981h -6.80315" fill="none" stroke="black" stroke-width="2"/>
<path d="M63.9961,208.753h -6.80315" fill="none" stroke="black" stroke-width="2"/>
<path d="M70.7992,202.526h -13.6063" fill="none" stroke="black" stroke-width="2"/>
<path d="M63.9961,196.298h -6.80315" fill="none" stroke="black" stroke-width="2"/>
<path d="M63.9961,190.071h -6.80315" fill="none" stroke="black" stroke-width="2"/>
<path d="M63.9961,183.844h -6.80315" fill="none" stroke="black" stroke-width="2"/>
<path d="M63.9961,177.616h -6.80315" fill="none" stroke="black" stroke-width="2"/>
<path d="M70.7992,171.389h -13.6063" fill="none" stroke="black" stroke-width="2"/>
<path d="M63.9961,165.161h -6.80315" fill="none" stroke="black" stroke-width="2"/>
<path d="M63.9961,158.934h -6.80315" fill="none" stroke="black" stroke-width="2"/>
<path d="M63.9961,152.707h -6.80315" fill="none" stroke="black" stroke-width="2"/>
<path d="M63.9961,146.479h -6.80315" fill="none" stroke="black" stroke-width="2"/>
<path d="M70.7992,140.252h -13.6063" fill="none" stroke="black" stroke-width="2"/>
<path d="M63.9961,134.024h -6.80315" fill="none" stroke="black" stroke-width="2"/>
<path d="M63.9961,127.797h -6.80315" fill="none" stroke="black" stroke-width="2"/>
<path d="M63.9961,121.57h -6.80315" fill="none" stroke="black" stroke-width="2"/>
<path d="M63.9961,115.342h -6.80315" fill="none" stroke="black" stroke-width="2"/>
<path d="M70.7992,109.115h -13.6063" fill="none" stroke="black" stroke-width="2"/>
<path d="M63.9961,102.887h -6.80315" fill="none" stroke="black" stroke-width="2"/>
<path d="M63.9961,96.6599h -6.80315" fill="none" stroke="black" stroke-width="2"/>
<path d="M63.9961,90.4325h -6.80315" fill="none" stroke="black" stroke-width="2"/>
<path d="M63.9961,84.2051h -6.80315" fill="none" stroke="black" stroke-width="2"/>
<path d="M70.7992,77.9777h -13.6063" fill="none" stroke="black" stroke-width="2"/>
<path d="M63.9961,71.7503h -6.80315" fill="none" stroke="black" stroke-width="2"/>
<path d="M63.9961,65.5229h -6.80315" fill="none" stroke="black" stroke-width="2"/>
<path d="M63.9961,59.2955h -6.80315" fill="none" stroke="black" stroke-width="2"/>
<path d="M63.9961,53.068h -6.80315" fill="none" stroke="black" stroke-width="2"/>
<path d="M70.7992,46.8406h -13.6063" fill="none" stroke="black" stroke-width="2"/>
<path d="M70.7992,46.8406h -13.6063" fill="none" stroke="black" stroke-width="2"/>
<path d="M63.9961,40.6132h -6.80315" fill="none" stroke="black" stroke-width="2"/>
<path d="M63.9961,34.3858h -6.80315" fill="none" stroke="black" stroke-width="2"/>
<text x="47.5987" y="300.036" fill="black" font-size="11.0584" font-family="Helvetica">
0
</text>
<text x="30.1548" y="268.637" fill="black" font-size="11.0584" font-family="Helvetica">
1000
</text>
<text x="30.1548" y="237.238" fill="black" font-size="11.0584" font-family="Helvetica">
2000
</text>
<text x="30.1548" y="206.711" fill="black" font-size="11.0584" font-family="Helvetica">
3000
</text>
<text x="30.1548" y="175.312" fill="black" font-size="11.0584" font-family="Helvetica">
4000
</text>
<text x="30.1548" y="143.913" fill="black" font-size="11.0584" font-family="Helvetica">
5000
</text>
<text x="30.1548" y="113.386" fill="black" font-size="11.0584" font-family="Helvetica">
6000
</text>
<text x="30.1548" y="81.9867" fill="black" font-size="11.0584" font-family="Helvetica">
7000
</text>
<text x="30.1548" y="50.5875" fill="black" font-size="11.0584" font-family="Helvetica">
8000
</text>
<rect x="351.996" y="21.3732" width="204.094" height="210.444" fill="white"/>
<path d="M351.996,231.817h 204.094" fill="none" stroke="black" stroke-width="2"/>
<path d="M556.091,231.817v -210.444" fill="none" stroke="black" stroke-width="2"/>
<path d="M556.091,21.3732h -204.094" fill="none" stroke="black" stroke-width="2"/>
<path d="M351.996,21.3732v 210.444" fill="none" stroke="black" stroke-width="2"/>
<text x="372.057" y="32.2714" fill="black" font-size="11.7025" font-family="Helvetica">
 / ndf 
</text>
<text x="367.696" y="27.9104" fill="black" font-size="7.96835" font-family="Helvetica">
2
</text>
<text x="361.59" y="32.2714" fill="black" font-size="11.7025" font-family="Times">
&#0967;
</text>
<text x="487.187" y="32.2714" fill="black" font-size="11.7025" font-family="Helvetica">
  9641 / 367
</text>
<text x="361.59" y="46.2265" fill="black" font-size="11.7025" font-family="Helvetica">
1-Centroid 
</text>
<text x="529.052" y="46.2265" fill="black" font-size="11.7025" font-family="Helvetica">
 0.1
</text>
<text x="522.947" y="46.2265" fill="black" font-size="11.7025" font-family="Times">
&#0177;
</text>
<text x="491.548" y="46.2265" fill="black" font-size="11.7025" font-family="Helvetica">
  1681 
</text>
<text x="361.59" y="61.0539" fill="black" font-size="11.7025" font-family="Helvetica">
1-FWHM   
</text>
<text x="527.308" y="60.1817" fill="black" font-size="11.7025" font-family="Helvetica">
 0.2
</text>
<text x="521.203" y="60.1817" fill="black" font-size="11.7025" font-family="Times">
&#0177;
</text>
<text x="491.548" y="60.1817" fill="black" font-size="11.7025" font-family="Helvetica">
  20.3 
</text>
<text x="361.59" y="74.1369" fill="black" font-size="11.7025" font-family="Helvetica">
1-Counts 
</text>
<text x="515.097" y="74.1369" fill="black" font-size="11.7025" font-family="Helvetica">
 109.6
</text>
<text x="508.992" y="74.1369" fill="black" font-size="11.7025" font-family="Times">
&#0177;
</text>
<text x="475.848" y="74.1369" fill="black" font-size="11.7025" font-family="Helvetica">
  9514 
</text>
<text x="361.59" y="88.0921" fill="black" font-size="11.7025" font-family="Helvetica">
2-Centroid 
</text>
<text x="529.052" y="88.0921" fill="black" font-size="11.7025" font-family="Helvetica">
 0.1
</text>
<text x="522.947" y="88.0921" fill="black" font-size="11.7025" font-family="Times">
&#0177;
</text>
<text x="489.803" y="88.0921" fill="black" font-size="11.7025" font-family="Helvetica">
  1423 
</text>
<text x="361.59" y="102.919" fill="black" font-size="11.7025" font-family="Helvetica">
2-FWHM   
</text>
<text x="521.203" y="102.047" fill="black" font-size="11.7025" font-family="Helvetica">
 0.18
</text>
<text x="515.097" y="102.047" fill="black" font-size="11.7025" font-family="Times">
&#0177;
</text>
<text x="483.698" y="102.047" fill="black" font-size="11.7025" font-family="Helvetica">
 23.81 
</text>
<text x="361.59" y="116.875" fill="black" font-size="11.7025" font-family="Helvetica">
2-Counts 
</text>
<text x="489.803" y="116.875" fill="black" font-size="11.7025" font-family="Helvetica">
 7.517e+02
</text>
<text x="483.698" y="116.875" fill="black" font-size="11.7025" font-family="Times">
&#0177;
</text>
<text x="425.261" y="116.875" fill="black" font-size="11.7025" font-family="Helvetica">
 1.147e+05 
</text>
<text x="361.59" y="130.83" fill="black" font-size="11.7025" font-family="Helvetica">
3-Centroid 
</text>
<text x="527.308" y="130.83" fill="black" font-size="11.7025" font-family="Helvetica">
 0.0
</text>
<text x="521.203" y="130.83" fill="black" font-size="11.7025" font-family="Times">
&#0177;
</text>
<text x="488.059" y="130.83" fill="black" font-size="11.7025" font-family="Helvetica">
  1447 
</text>
<text x="361.59" y="144.785" fill="black" font-size="11.7025" font-family="Helvetica">
3-FWHM   
</text>
<text x="521.203" y="144.785" fill="black" font-size="11.7025" font-family="Helvetica">
 0.07
</text>
<text x="515.097" y="144.785" fill="black" font-size="11.7025" font-family="Times">
&#0177;
</text>
<text x="481.954" y="144.785" fill="black" font-size="11.7025" font-family="Helvetica">
 16.53 
</text>
<text x="361.59" y="158.74" fill="black" font-size="11.7025" font-family="Helvetica">
3-Counts 
</text>
<text x="489.803" y="158.74" fill="black" font-size="11.7025" font-family="Helvetica">
 7.461e+02
</text>
<text x="483.698" y="158.74" fill="black" font-size="11.7025" font-family="Times">
&#0177;
</text>
<text x="425.261" y="158.74" fill="black" font-size="11.7025" font-family="Helvetica">
 1.323e+05 
</text>
<text x="361.59" y="172.695" fill="black" font-size="11.7025" font-family="Helvetica">
4-Centroid 
</text>
<text x="529.052" y="172.695" fill="black" font-size="11.7025" font-family="Helvetica">
 0.1
</text>
<text x="522.947" y="172.695" fill="black" font-size="11.7025" font-family="Times">
&#0177;
</text>
<text x="489.803" y="172.695" fill="black" font-size="11.7025" font-family="Helvetica">
  1636 
</text>
<text x="361.59" y="187.523" fill="black" font-size="11.7025" font-family="Helvetica">
4-FWHM   
</text>
<text x="521.203" y="186.651" fill="black" font-size="11.7025" font-family="Helvetica">
 0.12
</text>
<text x="515.097" y="186.651" fill="black" font-size="11.7025" font-family="Times">
&#0177;
</text>
<text x="481.954" y="186.651" fill="black" font-size="11.7025" font-family="Helvetica">
 22.07 
</text>
<text x="361.59" y="200.606" fill="black" font-size="11.7025" font-family="Helvetica">
4-Counts 
</text>
<text x="489.803" y="200.606" fill="black" font-size="11.7025" font-family="Helvetica">
 2.090e+02
</text>
<text x="483.698" y="200.606" fill="black" font-size="11.7025" font-family="Times">
&#0177;
</text>
<text x="425.261" y="200.606" fill="black" font-size="11.7025" font-family="Helvetica">
 4.022e+04 
</text>
<text x="361.59" y="213.689" fill="black" font-size="11.7025" font-family="Helvetica">
Intercept 
</text>
<text x="527.308" y="214.561" fill="black" font-size="11.7025" font-family="Helvetica">
 7.7
</text>
<text x="521.203" y="214.561" fill="black" font-size="11.7025" font-family="Times">
&#0177;
</text>
<text x="488.059" y="214.561" fill="black" font-size="11.7025" font-family="Helvetica">
 802.2 
</text>
<text x="361.59" y="227.644" fill="black" font-size="11.7025" font-family="Helvetica">
Slope    
</text>
<text x="508.12" y="228.516" fill="black" font-size="11.7025" font-family="Helvetica">
 0.0047
</text>
<text x="502.014" y="228.516" fill="black" font-size="11.7025" font-family="Times">
&#0177;
</text>
<text x="465.382" y="228.516" fill="black" font-size="11.7025" font-family="Helvetica">
0.4629 
</text>
<text x="459.276" y="228.516" fill="black" font-size="11.7025" font-family="Times">
&#8722;
</text>
<text x="456.66" y="228.516" fill="black" font-size="11.7025" font-family="Helvetica">
 
</text>
<path d="M59.4606,295.937h 222.236" fill="none" stroke="#00ff00" stroke-width="2"/>
<path d="M281.697,295.937h 136.063l 4.53543, -0.0307423l 4.53543, -0.0994278l 4.53543, -0.323546l 4.53543, -0.848113l 4.53543, -1.773l 4.53543, -2.90359l 4.53543, -3.5902l 4.53543, -3.03832l 4.53543, -1.06618l 4.53543, 1.46572l 4.53543, 3.23567l
 4.53543, 3.54389l 4.53543, 2.72466l 4.53543, 1.59498l 4.53543, 0.734215l 4.53543, 0.270097l 4.53543, 0.103898h 9.07087" fill="none" stroke="#00ff00" stroke-width="2"/>
<path d="M503.933,295.937h 4.53543" fill="none" stroke="#00ff00" stroke-width="2"/>
<path d="M59.4606,295.937h 40.8189l 4.53543, -0.0887849l 4.53543, -0.261538l 4.53543, -0.849737l 4.53543, -2.36889l 4.53543, -5.64578l 4.53543, -11.4404l 4.53543, -19.5404l 4.53543, -27.7141l 4.53543, -31.6971l 4.53543, -27.2315l 4.53543, -13.3835l
 4.53543, 5.6405l 4.53543, 22.442l 4.53543, 31.018l 4.53543, 30.1746l 4.53543, 23.1687l 4.53543, 14.6291l 4.53543, 7.74531l 4.53543, 3.47571l 4.53543, 1.33073l 4.53543, 0.436567l 4.53543, 0.123089l 4.53543, 0.0374879h 77.1024" fill="none"
 stroke="#00ff00" stroke-width="2"/>
<path d="M281.697,295.937h 222.236" fill="none" stroke="#00ff00" stroke-width="2"/>
<path d="M503.933,295.937h 4.53543" fill="none" stroke="#00ff00" stroke-width="2"/>
<path d="M59.4606,295.937h 81.6378l 4.53543, -0.0641979l 4.53543, -0.433064l 4.53543, -2.37477l 4.53543, -9.497l 4.53543, -27.3522l 4.53543, -55.3941l 4.53543, -74.7166l 4.53543, -56.283l 4.53543, 1.63373l 4.53543, 58.3039l 4.53543, 74.4488l 4.53543,
 53.9732l 4.53543, 26.1677l 4.53543, 8.93573l 4.53543, 2.19932l 4.53543, 0.394945l 4.53543, 0.0575813h 63.4961" fill="none" stroke="#00ff00" stroke-width="2"/>
<path d="M281.697,295.937h 222.236" fill="none" stroke="#00ff00" stroke-width="2"/>
<path d="M503.933,295.937h 4.53543" fill="none" stroke="#00ff00" stroke-width="2"/>
<path d="M59.4606,295.937h 222.236" fill="none" stroke="#00ff00" stroke-width="2"/>
<path d="M281.697,295.937h 77.1024l 4.53543, -0.0636856l 4.53543, -0.196155l 4.53543, -0.639387l 4.53543, -1.74031l 4.53543, -3.93221l 4.53543, -7.30632l 4.53543, -10.9803l 4.53543, -12.9086l 4.53543, -10.9014l 4.53543, -4.52737l 4.53543, 3.87809l
 4.53543, 10.5363l 4.53543, 12.9148l 4.53543, 11.233l 4.53543, 7.61164l 4.53543, 4.16397l 4.53543, 1.87135l 4.53543, 0.697738l 4.53543, 0.21715l 4.53543, 0.0717532h 54.4252" fill="none" stroke="#00ff00" stroke-width="2"/>
<path d="M503.933,295.937h 4.53543" fill="none" stroke="#00ff00" stroke-width="2"/>
<text x="203.722" y="16.5718" fill="black" font-size="16.0459" font-family="Helvetica">
vsBiasVoltage/220.Spe
</text></svg>
