<?xml version="1.0" standalone="no"?>
<svg width="567.429" height="362.191" viewBox="0 0 567.429 362.191" xmlns="http://www.w3.org/2000/svg">
<title>
/home/ADF/hyw543/XRay/Resolution/240.svg
</title>
<desc>
Creator: ROOT Version 6.06/08
CreationDate: Fri Mar  1 16:07:08 2019</desc>
<defs>
</defs>
<rect x="0.5" y="0" width="566.929" height="361.691" fill="white"/>
<rect x="57.1929" y="36.1691" width="453.543" height="289.353" fill="white"/>
<rect x="57.1929" y="36.1691" width="453.543" height="289.353" fill="none" stroke="black"/>
<rect x="57.1929" y="36.1691" width="453.543" height="289.353" fill="white"/>
<rect x="57.1929" y="36.1691" width="453.543" height="289.353" fill="none" stroke="black"/>
<path d="M57.1929,316.521h 1.32228v -1.06095h 1.32228v 0.924055h 1.32228v -0.47914h 1.32228v 0.444916h 1.32228v -0.547588h 1.32228v 0.787158h 1.32228v -2.3957h 1.32228v 0.410691h 1.32228v -0.273794h 1.32228v 0.992504h 1.32228v -1.2663h 1.32228v
 -0.342243h 1.32228v 1.23207h 1.32228v -2.46415h 1.32228v 0.616037h 1.32228v -0.136897h 1.32228v -1.54009h 1.32228v 0.47914h 1.32228v -0.924055h 2.64457v 0.71871h 1.32228v -0.787158h 1.32228v -1.1294h 1.32228v 0.889831h 1.32228v -2.94329h 1.32228v
 1.02673h 1.32228v -0.855607h 1.32228v -1.1294h 1.32228v 1.30052h 1.32228v -3.08018h 1.32228v 0.0342243h 1.32228v -0.47914h 1.32228v -1.57432h 1.32228v 2.22458h 1.32228v -2.63527h 1.32228v -0.136897h 1.32228v -2.77217h 1.32228v -1.98501h 1.32228v
 -0.308018h 1.32228v -6.16037h 1.32228v -0.752934h 1.32228v -8.62452h 1.32228v -3.49088h 1.32228v -7.15287h 1.32228v -7.15287h 1.32228v -10.8833h 1.32228v -6.36571h 1.32228v -10.2331h 1.32228v -14.032h 1.32228v -15.2298h 1.32228v -11.9443h 1.32228v
 -8.82986h 1.32228v -13.279h 1.32228v -6.63951h 1.32228v -10.1304h 1.32228v -3.21708h 1.32228v 0.547588h 1.32228v -0.787158h 1.32228v 0.308018h 1.32228v 8.35072h 1.32228v 3.35398h 1.32228v 8.65874h 1.32228v 8.65874h 1.32228v 4.48338h 1.32228v
 10.4726h 1.32228v 6.16037h 1.32228v -1.33475h 1.32228v 0.650261h 1.32228v -6.67373h 1.32228v -9.85659h 1.32228v -8.55607h 1.32228v -10.9518h 1.32228v -18.4469h 1.32228v -11.8416h 1.32228v -22.0747h 1.32228v -18.926h 1.32228v -12.6288h 1.32228v
 -15.572h 1.32228v -5.37321h 1.32228v -8.93254h 1.32228v -2.97751h 1.32228v 4.24381h 1.32228v 10.1988h 1.32228v 10.4384h 1.32228v 16.5645h 1.32228v 22.0747h 1.32228v 21.9035h 1.32228v 17.4202h 1.32228v 24.7442h 1.32228v 17.3175h 1.32228v 21.7324h
 1.32228v 16.7014h 1.32228v 15.2298h 1.32228v 13.6897h 1.32228v 13.1421h 1.32228v 7.73469h 1.32228v 10.3357h 1.32228v 5.51011h 1.32228v 4.6545h 1.32228v 5.23631h 1.32228v 2.63527h 1.32228v 3.79889h 1.32228v 2.63527h 1.32228v -0.410691h 1.32228v
 2.08768h 1.32228v 1.67699h 1.32228v -0.308018h 1.32228v 0.616037h 1.32228v 0.513364h 1.32228v 0.308018h 1.32228v 0.308018h 1.32228v 0.308018h 1.32228v -0.581813h 1.32228v -0.0684485h 1.32228v 0.616037h 1.32228v -0.444916h 1.32228v 0.47914h 2.64457v
 0.342243h 1.32228v -0.47914h 1.32228v 0.342243h 1.32228v 0.273794h 1.32228v -0.205346h 1.32228v 0.0342243h 1.32228v -0.205346h 1.32228v -0.410691h 1.32228v 1.1294h 1.32228v -0.410691h 2.64457v 0.0342243h 1.32228v -0.342243h 1.32228v 0.444916h
 1.32228v -0.513364h 1.32228v 0.47914h 1.32228v -0.0684485h 1.32228v -0.650261h 1.32228v 0.752934h 1.32228v -0.23957h 1.32228v 0.23957h 1.32228v -0.342243h 1.32228v 0.547588h 1.32228v -0.821383h 1.32228v 0.0342243h 1.32228v 0.889831h 1.32228v
 -0.410691h 1.32228v -0.0684485h 1.32228v -0.308018h 1.32228v 1.02673h 1.32228v -0.581813h 1.32228v -0.0684485h 1.32228v 0.308018h 1.32228v -0.0342243h 1.32228v -0.0342243h 1.32228v -0.205346h 1.32228v 0.0684485h 1.32228v -0.23957h 1.32228v 0.23957h
 1.32228v 0.102673h 1.32228v -0.616037h 1.32228v 0.342243h 1.32228v -0.0684485h 1.32228v 0.616037h 1.32228v 0.102673h 1.32228v -0.855607h 1.32228v -0.0684485h 1.32228v 0.205346h 1.32228v 0.0684485h 1.32228v -0.205346h 1.32228v 0.581813h 1.32228v
 0.205346h 1.32228v -1.06095h 1.32228v 0.136897h 1.32228v 0.205346h 1.32228v -0.171121h 1.32228v -0.205346h 1.32228v 0.444916h 1.32228v -0.0342243h 1.32228v 0.136897h 1.32228v -0.308018h 1.32228v -0.102673h 1.32228v 0.513364h 1.32228v -0.0684485h
 1.32228v -0.171121h 1.32228v -0.410691h 1.32228v 0.205346h 1.32228v -0.136897h 1.32228v -0.102673h 1.32228v 0.273794h 1.32228v -0.273794h 1.32228v 0.23957h 1.32228v -0.581813h 1.32228v 0.47914h 1.32228v -0.376467h 1.32228v 0.171121h 1.32228v
 -0.71871h 1.32228v 0.650261h 1.32228v 0.23957h 1.32228v -0.23957h 1.32228v -0.205346h 1.32228v -0.376467h 1.32228v 0.205346h 1.32228v 0.581813h 1.32228v -1.4032h 1.32228v 0.71871h 1.32228v -0.410691h 1.32228v -0.136897h 1.32228v 0.102673h 1.32228v
 0.444916h 1.32228v -0.752934h 1.32228v -0.136897h 1.32228v 0.889831h 1.32228v -1.06095h 1.32228v 0.273794h 1.32228v 0.0684485h 1.32228v 0.342243h 1.32228v -0.47914h 1.32228v -0.47914h 1.32228v -0.0684485h 1.32228v 0.171121h 1.32228v -0.136897h
 1.32228v 0.376467h 1.32228v -0.71871h 1.32228v -0.752934h 1.32228v 0.581813h 1.32228v 0.752934h 1.32228v -1.50587h 1.32228v 0.136897h 1.32228v -0.171121h 1.32228v -0.0342243h 1.32228v 0.205346h 1.32228v -0.513364h 1.32228v 0.342243h 1.32228v
 -0.0684485h 1.32228v 0.0684485h 1.32228v -0.136897h 1.32228v -0.547588h 1.32228v 0.752934h 1.32228v -0.513364h 1.32228v -0.0342243h 1.32228v 0.102673h 1.32228v -0.47914h 1.32228v -0.136897h 1.32228v 0.0684485h 1.32228v 0.102673h 1.32228v -0.650261h
 1.32228v -0.752934h 1.32228v -0.855607h 1.32228v 0.342243h 1.32228v 1.60854h 1.32228v -1.36897h 1.32228v -1.54009h 1.32228v -0.684485h 1.32228v -0.71871h 1.32228v -0.821383h 1.32228v -2.32725h 1.32228v -2.2588h 1.32228v -2.19035h 1.32228v -4.03846h
 1.32228v -1.84811h 1.32228v -4.85985h 1.32228v -2.32725h 1.32228v -4.48338h 1.32228v -5.71545h 1.32228v -4.14114h 1.32228v -4.44916h 1.32228v -1.19785h 1.32228v -3.73045h 1.32228v -4.00424h 1.32228v -2.29303h 1.32228v 1.19785h 1.32228v -4.03846h
 1.32228v 3.11441h 1.32228v 1.88234h 1.32228v 2.70372h 1.32228v 1.23207h 1.32228v 3.14863h 1.32228v 4.6545h 1.32228v 2.32725h 1.32228v 5.64701h 1.32228v 5.16787h 1.32228v 2.66949h 1.32228v 2.94329h 1.32228v 5.54433h 1.32228v 3.25131h 1.32228v
 3.25131h 1.32228v 2.1219h 1.32228v 2.77217h 1.32228v 1.95078h 1.32228v 1.4032h 1.32228v 1.67699h 1.32228v 1.2663h 1.32228v 0.581813h 1.32228v -0.0684485h 1.32228v 0.342243h 1.32228v 1.16363h 1.32228v -0.136897h 1.32228v -0.171121h 1.32228v 1.02673h
 1.32228v -0.650261h 1.32228v -0.102673h 1.32228v -0.650261h 1.32228v -1.06095h 1.32228v -0.581813h 1.32228v -0.650261h 1.32228v -0.71871h 1.32228v 0.47914h 1.32228v -1.30052h 1.32228v -1.19785h 1.32228v -2.05346h 1.32228v 0.136897h 1.32228v
 -1.47164h 1.32228v 0.0342243h 1.32228v -2.1219h 1.32228v 0.376467h 1.32228v -0.924055h 1.32228v 0.0342243h 1.32228v 0.684485h 1.32228v -0.95828h 1.32228v 2.1219h 1.32228v 0.547588h 1.32228v -0.0342243h 1.32228v 0.616037h 1.32228v 1.64277h 1.32228v
 0.889831h 1.32228v 1.47164h 1.32228v 0.855607h 1.32228v 1.54009h 1.32228v 0.23957h 1.32228v 0.95828h 1.32228v 0.171121h 1.32228v 1.50587h 1.32228v -0.444916h 1.32228v 1.33475h 1.32228v 0.547588h 1.32228v 0.616037h 1.32228v -0.513364h 1.32228v
 0.855607h 1.32228v 0.205346h 1.32228v 0.308018h 1.32228v -0.0342243h 1.32228v 0.0342243h 1.32228v -0.136897h 1.32228" fill="none" stroke="#ff0000" stroke-width="2"/>
<path d="M59.4606,319.55l 4.53543, 0.0585551l 4.53543, 0.0581975l 4.53543, 0.0563706l 4.53543, 0.0481706l 4.53543, 0.0158952l 4.53543, -0.0952299l 4.53543, -0.428797l 4.53543, -1.29768l 4.53543, -3.24835l 4.53543, -6.98279l 4.53543, -12.9698l
 4.53543, -20.7273l 4.53543, -28.1678l 4.53543, -31.7798l 4.53543, -28.1938l 4.53543, -16.6352l 4.53543, -0.75251l 4.53543, 11.5721l 4.53543, 11.0171l 4.53543, -7.27732l 4.53543, -35.7886l 4.53543, -52.667l 4.53543, -36.5513l 4.53543, 9.73328l
 4.53543, 56.3374l 4.53543, 74.3715l 4.53543, 61.6024l 4.53543, 36.6063l 4.53543, 16.359l 4.53543, 5.63765l 4.53543, 1.54129l 4.53543, 0.366751l 4.53543, 0.10893l 4.53543, 0.0650987l 4.53543, 0.0592849l 4.53543, 0.0586803l 4.53543, 0.0586308l
 4.53543, 0.0586276l 4.53543, 0.0586274l 4.53543, 0.0586274l 4.53543, 0.0586274l 4.53543, 0.0586274l 4.53543, 0.0586274l 4.53543, 0.0586274l 4.53543, 0.0586274l 4.53543, 0.0586274l 4.53543, 0.0586274l 4.53543, 0.0586274l 4.53543, 0.0586274"
 fill="none" stroke="#0000ff" stroke-width="2"/>
<path d="M281.697,322.423l 4.53543, 0.0586274l 4.53543, 0.0586274l 4.53543, 0.0586274l 4.53543, 0.0586274l 4.53543, 0.0586274l 4.53543, 0.0586274l 4.53543, 0.0586274l 4.53543, 0.0586274l 4.53543, 0.0586274l 4.53543, 0.0586274l 4.53543, 0.0586274l
 4.53543, 0.0586273l 4.53543, 0.0586266l 4.53543, 0.058621l 4.53543, 0.0585817l 4.53543, 0.0583442l 4.53543, 0.0570938l 4.53543, 0.05138l 4.53543, 0.0287735l 4.53543, -0.048427l 4.53543, -0.27499l 4.53543, -0.842785l 4.53543, -2.04615l 4.53543,
 -4.16824l 4.53543, -7.18791l 4.53543, -10.4162l 4.53543, -12.4148l 4.53543, -11.5604l 4.53543, -7.13719l 4.53543, -0.166516l 4.53543, 6.88704l 4.53543, 11.5085l 4.53543, 12.5626l 4.53543, 10.6608l 4.53543, 7.36758l 4.53543, 4.08615l 4.53543, 1.4623l
 4.53543, -0.503702l 4.53543, -1.98757l 4.53543, -2.95598l 4.53543, -3.12528l 4.53543, -2.2561l 4.53543, -0.514461l 4.53543, 1.45923l 4.53543, 2.89106l 4.53543, 3.34571l 4.53543, 2.9247l 4.53543, 2.07339l 4.53543, 1.23431" fill="none"
 stroke="#0000ff" stroke-width="2"/>
<path d="M503.933,324.355l 4.53543, 0.636673" fill="none" stroke="#0000ff" stroke-width="2"/>
<rect x="351.996" y="23.5099" width="204.094" height="231.482" fill="white"/>
<path d="M351.996,254.992h 204.094" fill="none" stroke="black" stroke-width="2"/>
<path d="M556.091,254.992v -231.482" fill="none" stroke="black" stroke-width="2"/>
<path d="M556.091,23.5099h -204.094" fill="none" stroke="black" stroke-width="2"/>
<path d="M351.996,23.5099v 231.482" fill="none" stroke="black" stroke-width="2"/>
<text x="373.126" y="35.3279" fill="black" font-size="11.7112" font-family="Helvetica">
 / ndf 
</text>
<text x="368.92" y="31.1222" fill="black" font-size="7.97412" font-family="Helvetica">
2
</text>
<text x="362.191" y="35.3279" fill="black" font-size="11.7112" font-family="Times">
&#0967;
</text>
<text x="484.997" y="36.1691" fill="black" font-size="11.7112" font-family="Helvetica">
  9529 / 329
</text>
<text x="362.191" y="51.3096" fill="black" font-size="11.7112" font-family="Helvetica">
1-Centroid 
</text>
<text x="528.737" y="50.4685" fill="black" font-size="11.7112" font-family="Helvetica">
 0.1
</text>
<text x="522.008" y="50.4685" fill="black" font-size="11.7112" font-family="Times">
&#0177;
</text>
<text x="487.521" y="50.4685" fill="black" font-size="11.7112" font-family="Helvetica">
  1682 
</text>
<text x="362.191" y="66.4501" fill="black" font-size="11.7112" font-family="Helvetica">
1-FWHM   
</text>
<text x="527.054" y="65.609" fill="black" font-size="11.7112" font-family="Helvetica">
 0.3
</text>
<text x="520.325" y="65.609" fill="black" font-size="11.7112" font-family="Times">
&#0177;
</text>
<text x="489.203" y="65.609" fill="black" font-size="11.7112" font-family="Helvetica">
  21.4 
</text>
<text x="362.191" y="82.4318" fill="black" font-size="11.7112" font-family="Helvetica">
1-Counts 
</text>
<text x="513.596" y="81.5907" fill="black" font-size="11.7112" font-family="Helvetica">
 144.2
</text>
<text x="506.867" y="81.5907" fill="black" font-size="11.7112" font-family="Times">
&#0177;
</text>
<text x="472.38" y="81.5907" fill="black" font-size="11.7112" font-family="Helvetica">
  9716 
</text>
<text x="362.191" y="97.5724" fill="black" font-size="11.7112" font-family="Helvetica">
2-Centroid 
</text>
<text x="528.737" y="96.7312" fill="black" font-size="11.7112" font-family="Helvetica">
 0.1
</text>
<text x="522.008" y="96.7312" fill="black" font-size="11.7112" font-family="Times">
&#0177;
</text>
<text x="487.521" y="96.7312" fill="black" font-size="11.7112" font-family="Helvetica">
  1423 
</text>
<text x="362.191" y="112.713" fill="black" font-size="11.7112" font-family="Helvetica">
2-FWHM   
</text>
<text x="527.054" y="111.872" fill="black" font-size="11.7112" font-family="Helvetica">
 0.2
</text>
<text x="520.325" y="111.872" fill="black" font-size="11.7112" font-family="Times">
&#0177;
</text>
<text x="489.203" y="111.872" fill="black" font-size="11.7112" font-family="Helvetica">
  23.2 
</text>
<text x="362.191" y="128.695" fill="black" font-size="11.7112" font-family="Helvetica">
2-Counts 
</text>
<text x="487.521" y="127.853" fill="black" font-size="11.7112" font-family="Helvetica">
 7.347e+02
</text>
<text x="480.792" y="127.853" fill="black" font-size="11.7112" font-family="Times">
&#0177;
</text>
<text x="420.229" y="127.853" fill="black" font-size="11.7112" font-family="Helvetica">
 1.104e+05 
</text>
<text x="362.191" y="143.835" fill="black" font-size="11.7112" font-family="Helvetica">
3-Centroid 
</text>
<text x="527.054" y="142.994" fill="black" font-size="11.7112" font-family="Helvetica">
 0.0
</text>
<text x="520.325" y="142.994" fill="black" font-size="11.7112" font-family="Times">
&#0177;
</text>
<text x="485.838" y="142.994" fill="black" font-size="11.7112" font-family="Helvetica">
  1447 
</text>
<text x="362.191" y="158.976" fill="black" font-size="11.7112" font-family="Helvetica">
3-FWHM   
</text>
<text x="520.325" y="158.135" fill="black" font-size="11.7112" font-family="Helvetica">
 0.07
</text>
<text x="513.596" y="158.135" fill="black" font-size="11.7112" font-family="Times">
&#0177;
</text>
<text x="479.109" y="158.135" fill="black" font-size="11.7112" font-family="Helvetica">
 16.82 
</text>
<text x="362.191" y="174.957" fill="black" font-size="11.7112" font-family="Helvetica">
3-Counts 
</text>
<text x="487.521" y="174.116" fill="black" font-size="11.7112" font-family="Helvetica">
 7.266e+02
</text>
<text x="480.792" y="174.116" fill="black" font-size="11.7112" font-family="Times">
&#0177;
</text>
<text x="420.229" y="174.116" fill="black" font-size="11.7112" font-family="Helvetica">
 1.344e+05 
</text>
<text x="362.191" y="190.098" fill="black" font-size="11.7112" font-family="Helvetica">
4-Centroid 
</text>
<text x="528.737" y="189.257" fill="black" font-size="11.7112" font-family="Helvetica">
 0.1
</text>
<text x="522.008" y="189.257" fill="black" font-size="11.7112" font-family="Times">
&#0177;
</text>
<text x="487.521" y="189.257" fill="black" font-size="11.7112" font-family="Helvetica">
  1636 
</text>
<text x="362.191" y="205.238" fill="black" font-size="11.7112" font-family="Helvetica">
4-FWHM   
</text>
<text x="520.325" y="204.397" fill="black" font-size="11.7112" font-family="Helvetica">
 0.12
</text>
<text x="513.596" y="204.397" fill="black" font-size="11.7112" font-family="Times">
&#0177;
</text>
<text x="480.792" y="204.397" fill="black" font-size="11.7112" font-family="Helvetica">
 22.21 
</text>
<text x="362.191" y="221.22" fill="black" font-size="11.7112" font-family="Helvetica">
4-Counts 
</text>
<text x="500.138" y="220.379" fill="black" font-size="11.7112" font-family="Helvetica">
 2.2e+02
</text>
<text x="493.409" y="220.379" fill="black" font-size="11.7112" font-family="Times">
&#0177;
</text>
<text x="455.557" y="220.379" fill="black" font-size="11.7112" font-family="Helvetica">
 4e+04 
</text>
<text x="362.191" y="234.678" fill="black" font-size="11.7112" font-family="Helvetica">
Intercept 
</text>
<text x="520.325" y="235.52" fill="black" font-size="11.7112" font-family="Helvetica">
 18.8
</text>
<text x="513.596" y="235.52" fill="black" font-size="11.7112" font-family="Times">
&#0177;
</text>
<text x="482.474" y="235.52" fill="black" font-size="11.7112" font-family="Helvetica">
   857 
</text>
<text x="362.191" y="249.819" fill="black" font-size="11.7112" font-family="Helvetica">
Slope    
</text>
<text x="506.867" y="250.66" fill="black" font-size="11.7112" font-family="Helvetica">
 0.0123
</text>
<text x="500.138" y="250.66" fill="black" font-size="11.7112" font-family="Times">
&#0177;
</text>
<text x="462.286" y="250.66" fill="black" font-size="11.7112" font-family="Helvetica">
0.4994 
</text>
<text x="455.557" y="250.66" fill="black" font-size="11.7112" font-family="Times">
&#8722;
</text>
<text x="453.034" y="250.66" fill="black" font-size="11.7112" font-family="Helvetica">
 
</text>
<path d="M57.1929,325.522h 453.543" fill="none" stroke="black" stroke-width="2"/>
<text x="462.286" y="350.756" fill="black" font-size="12.1139" font-family="Helvetica">
Channels
</text>
<path d="M103.473,316.841v 8.68058" fill="none" stroke="black" stroke-width="2"/>
<path d="M129.919,321.181v 4.34029" fill="none" stroke="black" stroke-width="2"/>
<path d="M156.364,321.181v 4.34029" fill="none" stroke="black" stroke-width="2"/>
<path d="M182.81,321.181v 4.34029" fill="none" stroke="black" stroke-width="2"/>
<path d="M209.256,321.181v 4.34029" fill="none" stroke="black" stroke-width="2"/>
<path d="M235.701,316.841v 8.68058" fill="none" stroke="black" stroke-width="2"/>
<path d="M262.147,321.181v 4.34029" fill="none" stroke="black" stroke-width="2"/>
<path d="M288.593,321.181v 4.34029" fill="none" stroke="black" stroke-width="2"/>
<path d="M315.038,321.181v 4.34029" fill="none" stroke="black" stroke-width="2"/>
<path d="M341.484,321.181v 4.34029" fill="none" stroke="black" stroke-width="2"/>
<path d="M367.93,316.841v 8.68058" fill="none" stroke="black" stroke-width="2"/>
<path d="M394.375,321.181v 4.34029" fill="none" stroke="black" stroke-width="2"/>
<path d="M420.821,321.181v 4.34029" fill="none" stroke="black" stroke-width="2"/>
<path d="M447.267,321.181v 4.34029" fill="none" stroke="black" stroke-width="2"/>
<path d="M473.712,321.181v 4.34029" fill="none" stroke="black" stroke-width="2"/>
<path d="M500.158,316.841v 8.68058" fill="none" stroke="black" stroke-width="2"/>
<path d="M103.473,316.841v 8.68058" fill="none" stroke="black" stroke-width="2"/>
<path d="M77.0272,321.181v 4.34029" fill="none" stroke="black" stroke-width="2"/>
<path d="M500.158,316.841v 8.68058" fill="none" stroke="black" stroke-width="2"/>
<text x="89.661" y="337.298" fill="black" font-size="12.1139" font-family="Helvetica">
1400
</text>
<text x="221.72" y="337.298" fill="black" font-size="12.1139" font-family="Helvetica">
1500
</text>
<text x="353.779" y="337.298" fill="black" font-size="12.1139" font-family="Helvetica">
1600
</text>
<text x="486.68" y="337.298" fill="black" font-size="12.1139" font-family="Helvetica">
1700
</text>
<path d="M57.1929,325.522v -289.353" fill="none" stroke="black" stroke-width="2"/>
<path d="M70.7992,325.522h -13.6063" fill="none" stroke="black" stroke-width="2"/>
<path d="M63.9961,318.677h -6.80315" fill="none" stroke="black" stroke-width="2"/>
<path d="M63.9961,311.832h -6.80315" fill="none" stroke="black" stroke-width="2"/>
<path d="M63.9961,304.987h -6.80315" fill="none" stroke="black" stroke-width="2"/>
<path d="M63.9961,298.142h -6.80315" fill="none" stroke="black" stroke-width="2"/>
<path d="M70.7992,291.297h -13.6063" fill="none" stroke="black" stroke-width="2"/>
<path d="M63.9961,284.452h -6.80315" fill="none" stroke="black" stroke-width="2"/>
<path d="M63.9961,277.608h -6.80315" fill="none" stroke="black" stroke-width="2"/>
<path d="M63.9961,270.763h -6.80315" fill="none" stroke="black" stroke-width="2"/>
<path d="M63.9961,263.918h -6.80315" fill="none" stroke="black" stroke-width="2"/>
<path d="M70.7992,257.073h -13.6063" fill="none" stroke="black" stroke-width="2"/>
<path d="M63.9961,250.228h -6.80315" fill="none" stroke="black" stroke-width="2"/>
<path d="M63.9961,243.383h -6.80315" fill="none" stroke="black" stroke-width="2"/>
<path d="M63.9961,236.538h -6.80315" fill="none" stroke="black" stroke-width="2"/>
<path d="M63.9961,229.694h -6.80315" fill="none" stroke="black" stroke-width="2"/>
<path d="M70.7992,222.849h -13.6063" fill="none" stroke="black" stroke-width="2"/>
<path d="M63.9961,216.004h -6.80315" fill="none" stroke="black" stroke-width="2"/>
<path d="M63.9961,209.159h -6.80315" fill="none" stroke="black" stroke-width="2"/>
<path d="M63.9961,202.314h -6.80315" fill="none" stroke="black" stroke-width="2"/>
<path d="M63.9961,195.469h -6.80315" fill="none" stroke="black" stroke-width="2"/>
<path d="M70.7992,188.625h -13.6063" fill="none" stroke="black" stroke-width="2"/>
<path d="M63.9961,181.78h -6.80315" fill="none" stroke="black" stroke-width="2"/>
<path d="M63.9961,174.935h -6.80315" fill="none" stroke="black" stroke-width="2"/>
<path d="M63.9961,168.09h -6.80315" fill="none" stroke="black" stroke-width="2"/>
<path d="M63.9961,161.245h -6.80315" fill="none" stroke="black" stroke-width="2"/>
<path d="M70.7992,154.4h -13.6063" fill="none" stroke="black" stroke-width="2"/>
<path d="M63.9961,147.555h -6.80315" fill="none" stroke="black" stroke-width="2"/>
<path d="M63.9961,140.711h -6.80315" fill="none" stroke="black" stroke-width="2"/>
<path d="M63.9961,133.866h -6.80315" fill="none" stroke="black" stroke-width="2"/>
<path d="M63.9961,127.021h -6.80315" fill="none" stroke="black" stroke-width="2"/>
<path d="M70.7992,120.176h -13.6063" fill="none" stroke="black" stroke-width="2"/>
<path d="M63.9961,113.331h -6.80315" fill="none" stroke="black" stroke-width="2"/>
<path d="M63.9961,106.486h -6.80315" fill="none" stroke="black" stroke-width="2"/>
<path d="M63.9961,99.6414h -6.80315" fill="none" stroke="black" stroke-width="2"/>
<path d="M63.9961,92.7966h -6.80315" fill="none" stroke="black" stroke-width="2"/>
<path d="M70.7992,85.9517h -13.6063" fill="none" stroke="black" stroke-width="2"/>
<path d="M63.9961,79.1068h -6.80315" fill="none" stroke="black" stroke-width="2"/>
<path d="M63.9961,72.262h -6.80315" fill="none" stroke="black" stroke-width="2"/>
<path d="M63.9961,65.4171h -6.80315" fill="none" stroke="black" stroke-width="2"/>
<path d="M63.9961,58.5723h -6.80315" fill="none" stroke="black" stroke-width="2"/>
<path d="M70.7992,51.7274h -13.6063" fill="none" stroke="black" stroke-width="2"/>
<path d="M70.7992,51.7274h -13.6063" fill="none" stroke="black" stroke-width="2"/>
<path d="M63.9961,44.8826h -6.80315" fill="none" stroke="black" stroke-width="2"/>
<path d="M63.9961,38.0377h -6.80315" fill="none" stroke="black" stroke-width="2"/>
<text x="47.6039" y="329.727" fill="black" font-size="12.1139" font-family="Helvetica">
0
</text>
<text x="28.2577" y="295.241" fill="black" font-size="12.1139" font-family="Helvetica">
1000
</text>
<text x="28.2577" y="260.754" fill="black" font-size="12.1139" font-family="Helvetica">
2000
</text>
<text x="28.2577" y="226.267" fill="black" font-size="12.1139" font-family="Helvetica">
3000
</text>
<text x="28.2577" y="192.621" fill="black" font-size="12.1139" font-family="Helvetica">
4000
</text>
<text x="28.2577" y="158.135" fill="black" font-size="12.1139" font-family="Helvetica">
5000
</text>
<text x="28.2577" y="123.648" fill="black" font-size="12.1139" font-family="Helvetica">
6000
</text>
<text x="28.2577" y="90.0021" fill="black" font-size="12.1139" font-family="Helvetica">
7000
</text>
<text x="28.2577" y="55.5153" fill="black" font-size="12.1139" font-family="Helvetica">
8000
</text>
<rect x="351.996" y="23.5099" width="204.094" height="231.482" fill="white"/>
<path d="M351.996,254.992h 204.094" fill="none" stroke="black" stroke-width="2"/>
<path d="M556.091,254.992v -231.482" fill="none" stroke="black" stroke-width="2"/>
<path d="M556.091,23.5099h -204.094" fill="none" stroke="black" stroke-width="2"/>
<path d="M351.996,23.5099v 231.482" fill="none" stroke="black" stroke-width="2"/>
<text x="373.126" y="35.3279" fill="black" font-size="11.7112" font-family="Helvetica">
 / ndf 
</text>
<text x="368.92" y="31.1222" fill="black" font-size="7.97412" font-family="Helvetica">
2
</text>
<text x="362.191" y="35.3279" fill="black" font-size="11.7112" font-family="Times">
&#0967;
</text>
<text x="484.997" y="36.1691" fill="black" font-size="11.7112" font-family="Helvetica">
  9529 / 329
</text>
<text x="362.191" y="51.3096" fill="black" font-size="11.7112" font-family="Helvetica">
1-Centroid 
</text>
<text x="528.737" y="50.4685" fill="black" font-size="11.7112" font-family="Helvetica">
 0.1
</text>
<text x="522.008" y="50.4685" fill="black" font-size="11.7112" font-family="Times">
&#0177;
</text>
<text x="487.521" y="50.4685" fill="black" font-size="11.7112" font-family="Helvetica">
  1682 
</text>
<text x="362.191" y="66.4501" fill="black" font-size="11.7112" font-family="Helvetica">
1-FWHM   
</text>
<text x="527.054" y="65.609" fill="black" font-size="11.7112" font-family="Helvetica">
 0.3
</text>
<text x="520.325" y="65.609" fill="black" font-size="11.7112" font-family="Times">
&#0177;
</text>
<text x="489.203" y="65.609" fill="black" font-size="11.7112" font-family="Helvetica">
  21.4 
</text>
<text x="362.191" y="82.4318" fill="black" font-size="11.7112" font-family="Helvetica">
1-Counts 
</text>
<text x="513.596" y="81.5907" fill="black" font-size="11.7112" font-family="Helvetica">
 144.2
</text>
<text x="506.867" y="81.5907" fill="black" font-size="11.7112" font-family="Times">
&#0177;
</text>
<text x="472.38" y="81.5907" fill="black" font-size="11.7112" font-family="Helvetica">
  9716 
</text>
<text x="362.191" y="97.5724" fill="black" font-size="11.7112" font-family="Helvetica">
2-Centroid 
</text>
<text x="528.737" y="96.7312" fill="black" font-size="11.7112" font-family="Helvetica">
 0.1
</text>
<text x="522.008" y="96.7312" fill="black" font-size="11.7112" font-family="Times">
&#0177;
</text>
<text x="487.521" y="96.7312" fill="black" font-size="11.7112" font-family="Helvetica">
  1423 
</text>
<text x="362.191" y="112.713" fill="black" font-size="11.7112" font-family="Helvetica">
2-FWHM   
</text>
<text x="527.054" y="111.872" fill="black" font-size="11.7112" font-family="Helvetica">
 0.2
</text>
<text x="520.325" y="111.872" fill="black" font-size="11.7112" font-family="Times">
&#0177;
</text>
<text x="489.203" y="111.872" fill="black" font-size="11.7112" font-family="Helvetica">
  23.2 
</text>
<text x="362.191" y="128.695" fill="black" font-size="11.7112" font-family="Helvetica">
2-Counts 
</text>
<text x="487.521" y="127.853" fill="black" font-size="11.7112" font-family="Helvetica">
 7.347e+02
</text>
<text x="480.792" y="127.853" fill="black" font-size="11.7112" font-family="Times">
&#0177;
</text>
<text x="420.229" y="127.853" fill="black" font-size="11.7112" font-family="Helvetica">
 1.104e+05 
</text>
<text x="362.191" y="143.835" fill="black" font-size="11.7112" font-family="Helvetica">
3-Centroid 
</text>
<text x="527.054" y="142.994" fill="black" font-size="11.7112" font-family="Helvetica">
 0.0
</text>
<text x="520.325" y="142.994" fill="black" font-size="11.7112" font-family="Times">
&#0177;
</text>
<text x="485.838" y="142.994" fill="black" font-size="11.7112" font-family="Helvetica">
  1447 
</text>
<text x="362.191" y="158.976" fill="black" font-size="11.7112" font-family="Helvetica">
3-FWHM   
</text>
<text x="520.325" y="158.135" fill="black" font-size="11.7112" font-family="Helvetica">
 0.07
</text>
<text x="513.596" y="158.135" fill="black" font-size="11.7112" font-family="Times">
&#0177;
</text>
<text x="479.109" y="158.135" fill="black" font-size="11.7112" font-family="Helvetica">
 16.82 
</text>
<text x="362.191" y="174.957" fill="black" font-size="11.7112" font-family="Helvetica">
3-Counts 
</text>
<text x="487.521" y="174.116" fill="black" font-size="11.7112" font-family="Helvetica">
 7.266e+02
</text>
<text x="480.792" y="174.116" fill="black" font-size="11.7112" font-family="Times">
&#0177;
</text>
<text x="420.229" y="174.116" fill="black" font-size="11.7112" font-family="Helvetica">
 1.344e+05 
</text>
<text x="362.191" y="190.098" fill="black" font-size="11.7112" font-family="Helvetica">
4-Centroid 
</text>
<text x="528.737" y="189.257" fill="black" font-size="11.7112" font-family="Helvetica">
 0.1
</text>
<text x="522.008" y="189.257" fill="black" font-size="11.7112" font-family="Times">
&#0177;
</text>
<text x="487.521" y="189.257" fill="black" font-size="11.7112" font-family="Helvetica">
  1636 
</text>
<text x="362.191" y="205.238" fill="black" font-size="11.7112" font-family="Helvetica">
4-FWHM   
</text>
<text x="520.325" y="204.397" fill="black" font-size="11.7112" font-family="Helvetica">
 0.12
</text>
<text x="513.596" y="204.397" fill="black" font-size="11.7112" font-family="Times">
&#0177;
</text>
<text x="480.792" y="204.397" fill="black" font-size="11.7112" font-family="Helvetica">
 22.21 
</text>
<text x="362.191" y="221.22" fill="black" font-size="11.7112" font-family="Helvetica">
4-Counts 
</text>
<text x="500.138" y="220.379" fill="black" font-size="11.7112" font-family="Helvetica">
 2.2e+02
</text>
<text x="493.409" y="220.379" fill="black" font-size="11.7112" font-family="Times">
&#0177;
</text>
<text x="455.557" y="220.379" fill="black" font-size="11.7112" font-family="Helvetica">
 4e+04 
</text>
<text x="362.191" y="234.678" fill="black" font-size="11.7112" font-family="Helvetica">
Intercept 
</text>
<text x="520.325" y="235.52" fill="black" font-size="11.7112" font-family="Helvetica">
 18.8
</text>
<text x="513.596" y="235.52" fill="black" font-size="11.7112" font-family="Times">
&#0177;
</text>
<text x="482.474" y="235.52" fill="black" font-size="11.7112" font-family="Helvetica">
   857 
</text>
<text x="362.191" y="249.819" fill="black" font-size="11.7112" font-family="Helvetica">
Slope    
</text>
<text x="506.867" y="250.66" fill="black" font-size="11.7112" font-family="Helvetica">
 0.0123
</text>
<text x="500.138" y="250.66" fill="black" font-size="11.7112" font-family="Times">
&#0177;
</text>
<text x="462.286" y="250.66" fill="black" font-size="11.7112" font-family="Helvetica">
0.4994 
</text>
<text x="455.557" y="250.66" fill="black" font-size="11.7112" font-family="Times">
&#8722;
</text>
<text x="453.034" y="250.66" fill="black" font-size="11.7112" font-family="Helvetica">
 
</text>
<path d="M59.4606,325.522h 222.236" fill="none" stroke="#00ff00" stroke-width="2"/>
<path d="M281.697,325.522h 149.669l 4.53543, -0.0611751l 4.53543, -0.136922l 4.53543, -0.358558l 4.53543, -0.80072l 4.53543, -1.51485l 4.53543, -2.4018l 4.53543, -3.12969l 4.53543, -3.21627l 4.53543, -2.32265l 4.53543, -0.574779l 4.53543, 1.40028l
 4.53543, 2.83239l 4.53543, 3.28708l 4.53543, 2.86607l 4.53543, 2.01476l 4.53543, 1.17568" fill="none" stroke="#00ff00" stroke-width="2"/>
<path d="M503.933,324.58l 4.53543, 0.578046" fill="none" stroke="#00ff00" stroke-width="2"/>
<path d="M59.4606,325.522h 18.1417l 4.53543, -0.0559603l 4.53543, -0.153857l 4.53543, -0.487425l 4.53543, -1.35631l 4.53543, -3.30698l 4.53543, -7.04142l 4.53543, -13.0284l 4.53543, -20.7859l 4.53543, -28.2255l 4.53543, -31.8303l 4.53543, -28.1905l
 4.53543, -16.3244l 4.53543, 0.919836l 4.53543, 17.8504l 4.53543, 28.9469l 4.53543, 31.7493l 4.53543, 27.5807l 4.53543, 19.9649l 4.53543, 12.3214l 4.53543, 6.56321l 4.53543, 3.03975l 4.53543, 1.22996l 4.53543, 0.436199l 4.53543, 0.135903l 4.53543,
 0.0486138h 90.7087" fill="none" stroke="#00ff00" stroke-width="2"/>
<path d="M281.697,325.522h 222.236" fill="none" stroke="#00ff00" stroke-width="2"/>
<path d="M503.933,325.522h 4.53543" fill="none" stroke="#00ff00" stroke-width="2"/>
<path d="M59.4606,325.522h 63.4961l 4.53543, -0.0710027l 4.53543, -0.369436l 4.53543, -1.73097l 4.53543, -6.33692l 4.53543, -17.9884l 4.53543, -39.0853l 4.53543, -63.4279l 4.53543, -72.6905l 4.53543, -48.9313l 4.53543, 3.11144l 4.53543, 53.239l
 4.53543, 73.083l 4.53543, 61.1076l 4.53543, 36.4117l 4.53543, 16.2631l 4.53543, 5.57002l 4.53543, 1.48075l 4.53543, 0.307763l 4.53543, 0.0574177h 72.5669" fill="none" stroke="#00ff00" stroke-width="2"/>
<path d="M281.697,325.522h 222.236" fill="none" stroke="#00ff00" stroke-width="2"/>
<path d="M503.933,325.522h 4.53543" fill="none" stroke="#00ff00" stroke-width="2"/>
<path d="M59.4606,325.522h 222.236" fill="none" stroke="#00ff00" stroke-width="2"/>
<path d="M281.697,325.522h 81.6378l 4.53543, -0.0389711l 4.53543, -0.107054l 4.53543, -0.333618l 4.53543, -0.901412l 4.53543, -2.10478l 4.53543, -4.22687l 4.53543, -7.24653l 4.53543, -10.4748l 4.53543, -12.4734l 4.53543, -11.619l 4.53543, -7.1958l
 4.53543, -0.225029l 4.53543, 6.82905l 4.53543, 11.4529l 4.53543, 12.5166l 4.53543, 10.6469l 4.53543, 7.44587l 4.53543, 4.38608l 4.53543, 2.2044l 4.53543, 0.952522l 4.53543, 0.355604l 4.53543, 0.115084l 4.53543, 0.0423499h 36.2835" fill="none"
 stroke="#00ff00" stroke-width="2"/>
<path d="M503.933,325.522h 4.53543" fill="none" stroke="#00ff00" stroke-width="2"/>
<text x="193.962" y="17.664" fill="black" font-size="17.8167" font-family="Helvetica">
vsBiasVoltage/240.Spe
</text></svg>
