<?xml version="1.0" standalone="no"?>
<svg width="567.429" height="368.777" viewBox="0 0 567.429 368.777" xmlns="http://www.w3.org/2000/svg">
<title>
/home/ADF/hyw543/XRay/Resolution/250.svg
</title>
<desc>
Creator: ROOT Version 6.06/08
CreationDate: Fri Mar  1 16:12:56 2019</desc>
<defs>
</defs>
<rect x="0.5" y="0" width="566.929" height="368.277" fill="white"/>
<rect x="57.1929" y="36.8277" width="453.543" height="294.622" fill="white"/>
<rect x="57.1929" y="36.8277" width="453.543" height="294.622" fill="none" stroke="black"/>
<rect x="57.1929" y="36.8277" width="453.543" height="294.622" fill="white"/>
<rect x="57.1929" y="36.8277" width="453.543" height="294.622" fill="none" stroke="black"/>
<path d="M57.1929,320.279h 1.25984v 0.105711h 2.51969v -0.739977h 1.25984v -0.422844h 1.25984v -0.422844h 1.25984v 0.458081h 1.25984v -0.387607h 1.25984v 0.563792h 1.25984v -0.528555h 1.25984v -1.37424h 1.25984v 0.422844h 1.25984v -0.140948h 1.25984v
 0.211422h 1.25984v -0.810451h 1.25984v -1.55043h 1.25984v -0.634266h 1.25984v -0.986636h 1.25984v 1.72661h 1.25984v -1.58566h 1.25984v -0.493318h 1.25984v -0.528555h 1.25984v 0.458081h 1.25984v 1.16282h 1.25984v -0.70474h 1.25984v -2.04375h 1.25984v
 -0.035237h 1.25984v -0.528555h 1.25984v -1.65614h 1.25984v -2.32564h 1.25984v 0.422844h 1.25984v -1.02187h 1.25984v -2.43135h 1.25984v -1.12758h 1.25984v -2.71325h 1.25984v -2.50183h 1.25984v -2.99514h 1.25984v -5.35602h 1.25984v -5.84934h 1.25984v
 -8.6683h 1.25984v -6.27218h 1.25984v -9.76064h 1.25984v -9.37304h 1.25984v -9.69017h 1.25984v -13.6367h 1.25984v -13.7072h 1.25984v -13.4958h 1.25984v -9.69017h 1.25984v -15.469h 1.25984v -5.25031h 1.25984v -7.15311h 1.25984v -7.61119h 1.25984v
 -4.65128h 1.25984v 4.79223h 1.25984v 1.02187h 1.25984v 7.89308h 1.25984v 7.64643h 1.25984v 3.34751h 1.25984v 10.1483h 1.25984v 6.7655h 1.25984v 6.44837h 1.25984v 6.80074h 1.25984v 0.35237h 1.25984v 3.62941h 1.25984v -5.46173h 1.25984v -10.9939h
 1.25984v -11.3463h 1.25984v -11.5225h 1.25984v -17.1604h 1.25984v -15.7509h 1.25984v -21.7765h 1.25984v -12.5796h 1.25984v -11.7692h 1.25984v -15.7862h 1.25984v -16.2795h 1.25984v 0.35237h 1.25984v -7.39977h 1.25984v 4.33415h 1.25984v 4.40462h
 1.25984v 11.6987h 1.25984v 19.7327h 1.25984v 16.7023h 1.25984v 23.8554h 1.25984v 13.1082h 1.25984v 28.7886h 1.25984v 21.706h 1.25984v 19.5213h 1.25984v 19.3803h 1.25984v 16.4557h 1.25984v 18.887h 1.25984v 9.97207h 1.25984v 8.24545h 1.25984v 9.05591h
 1.25984v 5.70839h 1.25984v 8.21022h 1.25984v 3.59417h 1.25984v 3.87607h 1.25984v 3.03038h 1.25984v 1.09235h 1.25984v 1.9028h 1.25984v 0.775214h 1.25984v 1.19806h 1.25984v 1.12758h 1.25984v -0.176185h 1.25984v 1.09235h 1.25984v 0.070474h 1.25984v
 -0.176185h 1.25984v -0.35237h 1.25984v 0.493318h 1.25984v 0.563792h 1.25984v -0.140948h 1.25984v 0.070474h 1.25984v 0.70474h 1.25984v -1.51519h 1.25984v 0.563792h 1.25984v 0.35237h 2.51969v 0.070474h 1.25984v 0.458081h 1.25984v -0.140948h 1.25984v
 -0.563792h 1.25984v 0.70474h 1.25984v -0.317133h 1.25984v 0.105711h 1.25984v -0.634266h 1.25984v -0.246659h 1.25984v 0.599029h 1.25984v 0.070474h 1.25984v 0.387607h 1.25984v -0.528555h 1.25984v 0.880925h 1.25984v -0.211422h 1.25984v -0.105711h
 1.25984v -0.422844h 1.25984v 0.775214h 1.25984v -0.563792h 1.25984v -0.140948h 1.25984v 0.35237h 1.25984v -0.317133h 1.25984v 0.634266h 1.25984v -0.458081h 1.25984v 0.035237h 1.25984v 0.387607h 1.25984v -0.070474h 1.25984v -0.140948h 1.25984v
 -0.246659h 1.25984v 0.493318h 1.25984v -0.493318h 1.25984v -0.070474h 1.25984v -0.246659h 1.25984v 0.634266h 1.25984v -0.246659h 1.25984v 0.035237h 1.25984v -0.211422h 1.25984v 0.317133h 1.25984v -0.528555h 1.25984v 0.317133h 1.25984v -0.176185h
 1.25984v 0.140948h 1.25984v -0.070474h 1.25984v 0.035237h 1.25984v 0.211422h 1.25984v -1.30377h 1.25984v 0.669503h 1.25984v 0.634266h 1.25984v -0.422844h 1.25984v 0.669503h 1.25984v -0.810451h 1.25984v 0.317133h 1.25984v -0.845688h 1.25984v
 0.810451h 1.25984v 0.563792h 1.25984v -0.35237h 1.25984v -0.528555h 1.25984v -0.35237h 1.25984v 0.458081h 1.25984v -0.105711h 1.25984v 0.317133h 1.25984v -0.458081h 1.25984v 0.739977h 1.25984v -0.669503h 1.25984v -0.105711h 1.25984v 0.739977h
 1.25984v -0.810451h 1.25984v -0.035237h 1.25984v -0.246659h 1.25984v 0.986636h 1.25984v -0.493318h 1.25984v -0.634266h 1.25984v -0.105711h 1.25984v -0.211422h 1.25984v 0.140948h 1.25984v 0.739977h 1.25984v -0.599029h 1.25984v 0.176185h 1.25984v
 0.211422h 1.25984v 0.387607h 1.25984v -0.669503h 1.25984v -0.176185h 1.25984v -0.105711h 1.25984v 0.035237h 1.25984v 0.387607h 1.25984v -0.951399h 1.25984v 0.105711h 1.25984v 0.35237h 1.25984v 0.035237h 1.25984v 0.387607h 1.25984v -0.986636h
 1.25984v 0.246659h 1.25984v 0.035237h 1.25984v -0.035237h 1.25984v -0.35237h 1.25984v -0.563792h 1.25984v -0.070474h 1.25984v 1.05711h 1.25984v -1.30377h 1.25984v 0.281896h 1.25984v -0.493318h 1.25984v 0.35237h 1.25984v -0.493318h 1.25984v 0.246659h
 1.25984v -0.493318h 1.25984v 0.845688h 1.25984v -0.669503h 1.25984v 0.669503h 1.25984v -0.563792h 1.25984v 0.035237h 1.25984v -0.317133h 1.25984v -0.563792h 1.25984v 0.599029h 1.25984v -0.105711h 1.25984v -0.845688h 1.25984v 0.810451h 1.25984v
 -1.26853h 1.25984v 0.281896h 1.25984v 0.493318h 2.51969v -0.599029h 1.25984v -0.140948h 1.25984v 0.246659h 1.25984v -0.880925h 1.25984v 1.09235h 1.25984v -0.599029h 1.25984v -0.493318h 1.25984v -1.05711h 2.51969v -1.02187h 1.25984v -1.02187h
 1.25984v -1.23329h 1.25984v 0.105711h 1.25984v -3.38275h 1.25984v -0.211422h 1.25984v -3.17133h 1.25984v -4.4751h 1.25984v -1.9028h 1.25984v -3.73512h 1.25984v -2.74848h 1.25984v -5.4265h 1.25984v -4.05225h 1.25984v -2.92467h 1.25984v -4.8627h
 1.25984v -3.84083h 1.25984v -2.07898h 1.25984v -5.32078h 1.25984v -5.67315h 1.25984v 2.21993h 1.25984v -2.88943h 1.25984v 0.387607h 1.25984v 0.634266h 1.25984v 2.95991h 1.25984v 1.47995h 1.25984v 5.32078h 1.25984v 3.03038h 1.25984v 4.68652h 1.25984v
 2.88943h 1.25984v 6.16647h 1.25984v 5.49697h 1.25984v 2.50183h 1.25984v 7.0474h 1.25984v 2.00851h 1.25984v 3.31228h 1.25984v 3.10085h 1.25984v 3.34751h 1.25984v -0.211422h 1.25984v 2.92467h 1.25984v 0.634266h 1.25984v 2.39612h 1.25984v -0.563792h
 1.25984v 1.47995h 1.25984v 0.493318h 1.25984v 0.845688h 1.25984v -0.599029h 1.25984v 0.493318h 1.25984v 0.317133h 1.25984v 0.140948h 1.25984v -0.739977h 1.25984v -0.422844h 1.25984v -0.140948h 1.25984v -1.69138h 1.25984v 0.176185h 1.25984v
 -0.035237h 1.25984v -2.21993h 1.25984v -0.599029h 1.25984v -1.51519h 1.25984v -0.246659h 1.25984v -0.739977h 1.25984v -1.9028h 1.25984v -0.317133h 1.25984v -0.669503h 1.25984v -0.105711h 1.25984v -1.93803h 1.25984v 0.070474h 1.25984v 0.317133h
 1.25984v -0.563792h 1.25984v 1.51519h 1.25984v 0.563792h 1.25984v 0.422844h 1.25984v 1.33901h 1.25984v 0.70474h 1.25984v 1.93803h 1.25984v 1.19806h 1.25984v 1.09235h 1.25984v 1.51519h 1.25984v 0.493318h 1.25984v 1.58566h 1.25984v 0.493318h 1.25984v
 -0.070474h 1.25984v 0.986636h 1.25984v 0.35237h 1.25984v 1.02187h 1.25984v -0.105711h 1.25984v -0.176185h 1.25984v 0.458081h 1.25984v 0.422844h 1.25984v 0.070474h 1.25984v 0.634266h 1.25984v -0.105711h 1.25984v -0.140948h 1.25984v 0.140948h 1.25984v
 0.35237h 1.25984v -0.211422h 1.25984v 0.246659h 1.25984v 0.105711h 1.25984v -0.281896h 1.25984v -0.105711h 1.25984v 0.105711h 1.25984v 0.070474h 1.25984v 0.070474h 1.25984v -0.070474h 1.25984v 0.035237h 1.25984v -0.070474h 1.25984v 0.176185h
 1.25984v 0.140948h 1.25984v -0.211422h 1.25984v -0.105711h 1.25984v 0.281896h 1.25984v -0.035237h 1.25984v -0.140948h 1.25984v -0.035237h 1.25984v 0.070474h 1.25984" fill="none" stroke="#ff0000" stroke-width="2"/>
<path d="M59.4606,325.479l 4.53543, 0.056478l 4.53543, 0.0515377l 4.53543, 0.029747l 4.53543, -0.0534351l 4.53543, -0.327314l 4.53543, -1.10141l 4.53543, -2.9666l 4.53543, -6.75635l 4.53543, -13.1301l 4.53543, -21.6851l 4.53543, -30.05l 4.53543,
 -34.0165l 4.53543, -29.5322l 4.53543, -15.9012l 4.53543, 1.93305l 4.53543, 13.894l 4.53543, 8.88739l 4.53543, -16.5641l 4.53543, -47.9481l 4.53543, -55.1941l 4.53543, -19.8652l 4.53543, 38.1471l 4.53543, 76.5713l 4.53543, 75.0012l 4.53543, 48.8075l
 4.53543, 22.8172l 4.53543, 7.92878l 4.53543, 2.1066l 4.53543, 0.462795l 4.53543, 0.118845l 4.53543, 0.0647335l 4.53543, 0.0582756l 4.53543, 0.0576876l 4.53543, 0.0576465l 4.53543, 0.0576443l 4.53543, 0.0576442l 4.53543, 0.0576442l 4.53543,
 0.0576442l 4.53543, 0.0576442l 4.53543, 0.0576442l 4.53543, 0.0576442l 4.53543, 0.0576442l 4.53543, 0.0576442l 4.53543, 0.0576442l 4.53543, 0.0576442l 4.53543, 0.0576442l 4.53543, 0.0576442l 4.53543, 0.0576442l 4.53543, 0.0576442" fill="none"
 stroke="#0000ff" stroke-width="2"/>
<path d="M281.697,328.304l 4.53543, 0.0576442l 4.53543, 0.0576442l 4.53543, 0.0576442l 4.53543, 0.0576442l 4.53543, 0.0576442l 4.53543, 0.0576442l 4.53543, 0.0576442l 4.53543, 0.0576441l 4.53543, 0.0576435l 4.53543, 0.0576371l 4.53543, 0.0575865l
 4.53543, 0.0572446l 4.53543, 0.0552734l 4.53543, 0.0456096l 4.53543, 0.00544319l 4.53543, -0.135504l 4.53543, -0.550566l 4.53543, -1.56692l 4.53543, -3.60541l 4.53543, -6.86233l 4.53543, -10.7578l 4.53543, -13.6003l 4.53543, -13.157l 4.53543,
 -8.21233l 4.53543, 0.0386716l 4.53543, 8.29745l 4.53543, 13.2594l 4.53543, 13.7143l 4.53543, 10.8541l 4.53543, 6.86482l 4.53543, 3.34104l 4.53543, 0.718332l 4.53543, -1.28098l 4.53543, -2.86995l 4.53543, -3.74261l 4.53543, -3.29853l 4.53543,
 -1.37747l 4.53543, 1.25099l 4.53543, 3.2973l 4.53543, 3.9269l 4.53543, 3.28304l 4.53543, 2.11978l 4.53543, 1.10575l 4.53543, 0.488616l 4.53543, 0.202434l 4.53543, 0.0976306l 4.53543, 0.0667585l 4.53543, 0.0593636l 4.53543, 0.0579132" fill="none"
 stroke="#0000ff" stroke-width="2"/>
<path d="M503.933,331.128l 4.53543, 0.0576792" fill="none" stroke="#0000ff" stroke-width="2"/>
<rect x="351.996" y="23.938" width="204.094" height="235.697" fill="white"/>
<path d="M351.996,259.635h 204.094" fill="none" stroke="black" stroke-width="2"/>
<path d="M556.091,259.635v -235.697" fill="none" stroke="black" stroke-width="2"/>
<path d="M556.091,23.938h -204.094" fill="none" stroke="black" stroke-width="2"/>
<path d="M351.996,23.938v 235.697" fill="none" stroke="black" stroke-width="2"/>
<text x="372.406" y="35.3764" fill="black" font-size="11.8568" font-family="Helvetica">
 / ndf 
</text>
<text x="367.87" y="31.748" fill="black" font-size="8.0712" font-family="Helvetica">
2
</text>
<text x="361.52" y="35.3764" fill="black" font-size="11.8568" font-family="Times">
&#0967;
</text>
<text x="484.884" y="36.2835" fill="black" font-size="11.8568" font-family="Helvetica">
  8993 / 346
</text>
<text x="361.52" y="51.7039" fill="black" font-size="11.8568" font-family="Helvetica">
1-Centroid 
</text>
<text x="528.424" y="51.7039" fill="black" font-size="11.8568" font-family="Helvetica">
 0.1
</text>
<text x="522.075" y="51.7039" fill="black" font-size="11.8568" font-family="Times">
&#0177;
</text>
<text x="487.605" y="51.7039" fill="black" font-size="11.8568" font-family="Helvetica">
  1423 
</text>
<text x="361.52" y="68.0315" fill="black" font-size="11.8568" font-family="Helvetica">
1-FWHM   
</text>
<text x="520.261" y="67.1244" fill="black" font-size="11.8568" font-family="Helvetica">
 0.18
</text>
<text x="513.911" y="67.1244" fill="black" font-size="11.8568" font-family="Times">
&#0177;
</text>
<text x="479.442" y="67.1244" fill="black" font-size="11.8568" font-family="Helvetica">
 23.33 
</text>
<text x="361.52" y="83.452" fill="black" font-size="11.8568" font-family="Helvetica">
1-Counts 
</text>
<text x="487.605" y="83.452" fill="black" font-size="11.8568" font-family="Helvetica">
 7.257e+02
</text>
<text x="481.256" y="83.452" fill="black" font-size="11.8568" font-family="Times">
&#0177;
</text>
<text x="420.481" y="83.452" fill="black" font-size="11.8568" font-family="Helvetica">
 1.106e+05 
</text>
<text x="361.52" y="98.8724" fill="black" font-size="11.8568" font-family="Helvetica">
2-Centroid 
</text>
<text x="526.61" y="98.8724" fill="black" font-size="11.8568" font-family="Helvetica">
 0.0
</text>
<text x="520.261" y="98.8724" fill="black" font-size="11.8568" font-family="Times">
&#0177;
</text>
<text x="485.791" y="98.8724" fill="black" font-size="11.8568" font-family="Helvetica">
  1447 
</text>
<text x="361.52" y="115.2" fill="black" font-size="11.8568" font-family="Helvetica">
2-FWHM   
</text>
<text x="520.261" y="114.293" fill="black" font-size="11.8568" font-family="Helvetica">
 0.07
</text>
<text x="513.911" y="114.293" fill="black" font-size="11.8568" font-family="Times">
&#0177;
</text>
<text x="481.256" y="114.293" fill="black" font-size="11.8568" font-family="Helvetica">
 16.71 
</text>
<text x="361.52" y="129.713" fill="black" font-size="11.8568" font-family="Helvetica">
2-Counts 
</text>
<text x="487.605" y="129.713" fill="black" font-size="11.8568" font-family="Helvetica">
 7.230e+02
</text>
<text x="481.256" y="129.713" fill="black" font-size="11.8568" font-family="Times">
&#0177;
</text>
<text x="420.481" y="129.713" fill="black" font-size="11.8568" font-family="Helvetica">
 1.332e+05 
</text>
<text x="361.52" y="146.041" fill="black" font-size="11.8568" font-family="Helvetica">
3-Centroid 
</text>
<text x="528.424" y="146.041" fill="black" font-size="11.8568" font-family="Helvetica">
 0.1
</text>
<text x="522.075" y="146.041" fill="black" font-size="11.8568" font-family="Times">
&#0177;
</text>
<text x="487.605" y="146.041" fill="black" font-size="11.8568" font-family="Helvetica">
  1636 
</text>
<text x="361.52" y="161.461" fill="black" font-size="11.8568" font-family="Helvetica">
3-FWHM   
</text>
<text x="528.424" y="161.461" fill="black" font-size="11.8568" font-family="Helvetica">
 0.1
</text>
<text x="522.075" y="161.461" fill="black" font-size="11.8568" font-family="Times">
&#0177;
</text>
<text x="491.234" y="161.461" fill="black" font-size="11.8568" font-family="Helvetica">
  21.8 
</text>
<text x="361.52" y="176.882" fill="black" font-size="11.8568" font-family="Helvetica">
3-Counts 
</text>
<text x="493.955" y="176.882" fill="black" font-size="11.8568" font-family="Helvetica">
 2.08e+02
</text>
<text x="487.605" y="176.882" fill="black" font-size="11.8568" font-family="Times">
&#0177;
</text>
<text x="433.18" y="176.882" fill="black" font-size="11.8568" font-family="Helvetica">
 3.97e+04 
</text>
<text x="361.52" y="193.209" fill="black" font-size="11.8568" font-family="Helvetica">
4-Centroid 
</text>
<text x="528.424" y="193.209" fill="black" font-size="11.8568" font-family="Helvetica">
 0.1
</text>
<text x="522.075" y="193.209" fill="black" font-size="11.8568" font-family="Times">
&#0177;
</text>
<text x="487.605" y="193.209" fill="black" font-size="11.8568" font-family="Helvetica">
  1682 
</text>
<text x="361.52" y="209.537" fill="black" font-size="11.8568" font-family="Helvetica">
4-FWHM   
</text>
<text x="520.261" y="208.63" fill="black" font-size="11.8568" font-family="Helvetica">
 0.23
</text>
<text x="513.911" y="208.63" fill="black" font-size="11.8568" font-family="Times">
&#0177;
</text>
<text x="479.442" y="208.63" fill="black" font-size="11.8568" font-family="Helvetica">
 19.92 
</text>
<text x="361.52" y="224.05" fill="black" font-size="11.8568" font-family="Helvetica">
4-Counts 
</text>
<text x="513.911" y="224.05" fill="black" font-size="11.8568" font-family="Helvetica">
 108.2
</text>
<text x="507.561" y="224.05" fill="black" font-size="11.8568" font-family="Times">
&#0177;
</text>
<text x="473.092" y="224.05" fill="black" font-size="11.8568" font-family="Helvetica">
  9208 
</text>
<text x="361.52" y="239.471" fill="black" font-size="11.8568" font-family="Helvetica">
Intercept 
</text>
<text x="526.61" y="240.378" fill="black" font-size="11.8568" font-family="Helvetica">
 8.5
</text>
<text x="520.261" y="240.378" fill="black" font-size="11.8568" font-family="Times">
&#0177;
</text>
<text x="485.791" y="240.378" fill="black" font-size="11.8568" font-family="Helvetica">
 792.8 
</text>
<text x="361.52" y="254.891" fill="black" font-size="11.8568" font-family="Helvetica">
Slope    
</text>
<text x="506.654" y="255.798" fill="black" font-size="11.8568" font-family="Helvetica">
 0.0052
</text>
<text x="500.305" y="255.798" fill="black" font-size="11.8568" font-family="Times">
&#0177;
</text>
<text x="462.207" y="255.798" fill="black" font-size="11.8568" font-family="Helvetica">
0.4544 
</text>
<text x="455.857" y="255.798" fill="black" font-size="11.8568" font-family="Times">
&#8722;
</text>
<text x="453.136" y="255.798" fill="black" font-size="11.8568" font-family="Helvetica">
 
</text>
<path d="M57.1929,331.449h 453.543" fill="none" stroke="black" stroke-width="2"/>
<text x="462.207" y="356.485" fill="black" font-size="12.3254" font-family="Helvetica">
Channels
</text>
<path d="M94.9882,322.611v 8.83865" fill="none" stroke="black" stroke-width="2"/>
<path d="M120.185,327.03v 4.41933" fill="none" stroke="black" stroke-width="2"/>
<path d="M145.382,327.03v 4.41933" fill="none" stroke="black" stroke-width="2"/>
<path d="M170.579,327.03v 4.41933" fill="none" stroke="black" stroke-width="2"/>
<path d="M195.776,327.03v 4.41933" fill="none" stroke="black" stroke-width="2"/>
<path d="M220.972,322.611v 8.83865" fill="none" stroke="black" stroke-width="2"/>
<path d="M246.169,327.03v 4.41933" fill="none" stroke="black" stroke-width="2"/>
<path d="M271.366,327.03v 4.41933" fill="none" stroke="black" stroke-width="2"/>
<path d="M296.563,327.03v 4.41933" fill="none" stroke="black" stroke-width="2"/>
<path d="M321.76,327.03v 4.41933" fill="none" stroke="black" stroke-width="2"/>
<path d="M346.957,322.611v 8.83865" fill="none" stroke="black" stroke-width="2"/>
<path d="M372.154,327.03v 4.41933" fill="none" stroke="black" stroke-width="2"/>
<path d="M397.35,327.03v 4.41933" fill="none" stroke="black" stroke-width="2"/>
<path d="M422.547,327.03v 4.41933" fill="none" stroke="black" stroke-width="2"/>
<path d="M447.744,327.03v 4.41933" fill="none" stroke="black" stroke-width="2"/>
<path d="M472.941,322.611v 8.83865" fill="none" stroke="black" stroke-width="2"/>
<path d="M94.9882,322.611v 8.83865" fill="none" stroke="black" stroke-width="2"/>
<path d="M69.7913,327.03v 4.41933" fill="none" stroke="black" stroke-width="2"/>
<path d="M472.941,322.611v 8.83865" fill="none" stroke="black" stroke-width="2"/>
<path d="M498.138,327.03v 4.41933" fill="none" stroke="black" stroke-width="2"/>
<text x="81.2307" y="342.879" fill="black" font-size="12.3254" font-family="Helvetica">
1400
</text>
<text x="207.316" y="342.879" fill="black" font-size="12.3254" font-family="Helvetica">
1500
</text>
<text x="332.494" y="342.879" fill="black" font-size="12.3254" font-family="Helvetica">
1600
</text>
<text x="458.579" y="342.879" fill="black" font-size="12.3254" font-family="Helvetica">
1700
</text>
<path d="M57.1929,331.449v -294.622" fill="none" stroke="black" stroke-width="2"/>
<path d="M70.7992,331.449h -13.6063" fill="none" stroke="black" stroke-width="2"/>
<path d="M63.9961,324.402h -6.80315" fill="none" stroke="black" stroke-width="2"/>
<path d="M63.9961,317.355h -6.80315" fill="none" stroke="black" stroke-width="2"/>
<path d="M63.9961,310.307h -6.80315" fill="none" stroke="black" stroke-width="2"/>
<path d="M63.9961,303.26h -6.80315" fill="none" stroke="black" stroke-width="2"/>
<path d="M70.7992,296.212h -13.6063" fill="none" stroke="black" stroke-width="2"/>
<path d="M63.9961,289.165h -6.80315" fill="none" stroke="black" stroke-width="2"/>
<path d="M63.9961,282.118h -6.80315" fill="none" stroke="black" stroke-width="2"/>
<path d="M63.9961,275.07h -6.80315" fill="none" stroke="black" stroke-width="2"/>
<path d="M63.9961,268.023h -6.80315" fill="none" stroke="black" stroke-width="2"/>
<path d="M70.7992,260.975h -13.6063" fill="none" stroke="black" stroke-width="2"/>
<path d="M63.9961,253.928h -6.80315" fill="none" stroke="black" stroke-width="2"/>
<path d="M63.9961,246.881h -6.80315" fill="none" stroke="black" stroke-width="2"/>
<path d="M63.9961,239.833h -6.80315" fill="none" stroke="black" stroke-width="2"/>
<path d="M63.9961,232.786h -6.80315" fill="none" stroke="black" stroke-width="2"/>
<path d="M70.7992,225.738h -13.6063" fill="none" stroke="black" stroke-width="2"/>
<path d="M63.9961,218.691h -6.80315" fill="none" stroke="black" stroke-width="2"/>
<path d="M63.9961,211.644h -6.80315" fill="none" stroke="black" stroke-width="2"/>
<path d="M63.9961,204.596h -6.80315" fill="none" stroke="black" stroke-width="2"/>
<path d="M63.9961,197.549h -6.80315" fill="none" stroke="black" stroke-width="2"/>
<path d="M70.7992,190.501h -13.6063" fill="none" stroke="black" stroke-width="2"/>
<path d="M63.9961,183.454h -6.80315" fill="none" stroke="black" stroke-width="2"/>
<path d="M63.9961,176.407h -6.80315" fill="none" stroke="black" stroke-width="2"/>
<path d="M63.9961,169.359h -6.80315" fill="none" stroke="black" stroke-width="2"/>
<path d="M63.9961,162.312h -6.80315" fill="none" stroke="black" stroke-width="2"/>
<path d="M70.7992,155.265h -13.6063" fill="none" stroke="black" stroke-width="2"/>
<path d="M63.9961,148.217h -6.80315" fill="none" stroke="black" stroke-width="2"/>
<path d="M63.9961,141.17h -6.80315" fill="none" stroke="black" stroke-width="2"/>
<path d="M63.9961,134.122h -6.80315" fill="none" stroke="black" stroke-width="2"/>
<path d="M63.9961,127.075h -6.80315" fill="none" stroke="black" stroke-width="2"/>
<path d="M70.7992,120.028h -13.6063" fill="none" stroke="black" stroke-width="2"/>
<path d="M63.9961,112.98h -6.80315" fill="none" stroke="black" stroke-width="2"/>
<path d="M63.9961,105.933h -6.80315" fill="none" stroke="black" stroke-width="2"/>
<path d="M63.9961,98.8853h -6.80315" fill="none" stroke="black" stroke-width="2"/>
<path d="M63.9961,91.8379h -6.80315" fill="none" stroke="black" stroke-width="2"/>
<path d="M70.7992,84.7905h -13.6063" fill="none" stroke="black" stroke-width="2"/>
<path d="M63.9961,77.7431h -6.80315" fill="none" stroke="black" stroke-width="2"/>
<path d="M63.9961,70.6957h -6.80315" fill="none" stroke="black" stroke-width="2"/>
<path d="M63.9961,63.6483h -6.80315" fill="none" stroke="black" stroke-width="2"/>
<path d="M63.9961,56.601h -6.80315" fill="none" stroke="black" stroke-width="2"/>
<path d="M70.7992,49.5536h -13.6063" fill="none" stroke="black" stroke-width="2"/>
<path d="M70.7992,49.5536h -13.6063" fill="none" stroke="black" stroke-width="2"/>
<path d="M63.9961,42.5062h -6.80315" fill="none" stroke="black" stroke-width="2"/>
<text x="47.6685" y="335.622" fill="black" font-size="12.3254" font-family="Helvetica">
0
</text>
<text x="27.7126" y="300.246" fill="black" font-size="12.3254" font-family="Helvetica">
1000
</text>
<text x="27.7126" y="264.869" fill="black" font-size="12.3254" font-family="Helvetica">
2000
</text>
<text x="27.7126" y="229.493" fill="black" font-size="12.3254" font-family="Helvetica">
3000
</text>
<text x="27.7126" y="195.024" fill="black" font-size="12.3254" font-family="Helvetica">
4000
</text>
<text x="27.7126" y="159.647" fill="black" font-size="12.3254" font-family="Helvetica">
5000
</text>
<text x="27.7126" y="124.271" fill="black" font-size="12.3254" font-family="Helvetica">
6000
</text>
<text x="27.7126" y="88.8945" fill="black" font-size="12.3254" font-family="Helvetica">
7000
</text>
<text x="27.7126" y="53.5181" fill="black" font-size="12.3254" font-family="Helvetica">
8000
</text>
<rect x="351.996" y="23.938" width="204.094" height="235.697" fill="white"/>
<path d="M351.996,259.635h 204.094" fill="none" stroke="black" stroke-width="2"/>
<path d="M556.091,259.635v -235.697" fill="none" stroke="black" stroke-width="2"/>
<path d="M556.091,23.938h -204.094" fill="none" stroke="black" stroke-width="2"/>
<path d="M351.996,23.938v 235.697" fill="none" stroke="black" stroke-width="2"/>
<text x="372.406" y="35.3764" fill="black" font-size="11.8568" font-family="Helvetica">
 / ndf 
</text>
<text x="367.87" y="31.748" fill="black" font-size="8.0712" font-family="Helvetica">
2
</text>
<text x="361.52" y="35.3764" fill="black" font-size="11.8568" font-family="Times">
&#0967;
</text>
<text x="484.884" y="36.2835" fill="black" font-size="11.8568" font-family="Helvetica">
  8993 / 346
</text>
<text x="361.52" y="51.7039" fill="black" font-size="11.8568" font-family="Helvetica">
1-Centroid 
</text>
<text x="528.424" y="51.7039" fill="black" font-size="11.8568" font-family="Helvetica">
 0.1
</text>
<text x="522.075" y="51.7039" fill="black" font-size="11.8568" font-family="Times">
&#0177;
</text>
<text x="487.605" y="51.7039" fill="black" font-size="11.8568" font-family="Helvetica">
  1423 
</text>
<text x="361.52" y="68.0315" fill="black" font-size="11.8568" font-family="Helvetica">
1-FWHM   
</text>
<text x="520.261" y="67.1244" fill="black" font-size="11.8568" font-family="Helvetica">
 0.18
</text>
<text x="513.911" y="67.1244" fill="black" font-size="11.8568" font-family="Times">
&#0177;
</text>
<text x="479.442" y="67.1244" fill="black" font-size="11.8568" font-family="Helvetica">
 23.33 
</text>
<text x="361.52" y="83.452" fill="black" font-size="11.8568" font-family="Helvetica">
1-Counts 
</text>
<text x="487.605" y="83.452" fill="black" font-size="11.8568" font-family="Helvetica">
 7.257e+02
</text>
<text x="481.256" y="83.452" fill="black" font-size="11.8568" font-family="Times">
&#0177;
</text>
<text x="420.481" y="83.452" fill="black" font-size="11.8568" font-family="Helvetica">
 1.106e+05 
</text>
<text x="361.52" y="98.8724" fill="black" font-size="11.8568" font-family="Helvetica">
2-Centroid 
</text>
<text x="526.61" y="98.8724" fill="black" font-size="11.8568" font-family="Helvetica">
 0.0
</text>
<text x="520.261" y="98.8724" fill="black" font-size="11.8568" font-family="Times">
&#0177;
</text>
<text x="485.791" y="98.8724" fill="black" font-size="11.8568" font-family="Helvetica">
  1447 
</text>
<text x="361.52" y="115.2" fill="black" font-size="11.8568" font-family="Helvetica">
2-FWHM   
</text>
<text x="520.261" y="114.293" fill="black" font-size="11.8568" font-family="Helvetica">
 0.07
</text>
<text x="513.911" y="114.293" fill="black" font-size="11.8568" font-family="Times">
&#0177;
</text>
<text x="481.256" y="114.293" fill="black" font-size="11.8568" font-family="Helvetica">
 16.71 
</text>
<text x="361.52" y="129.713" fill="black" font-size="11.8568" font-family="Helvetica">
2-Counts 
</text>
<text x="487.605" y="129.713" fill="black" font-size="11.8568" font-family="Helvetica">
 7.230e+02
</text>
<text x="481.256" y="129.713" fill="black" font-size="11.8568" font-family="Times">
&#0177;
</text>
<text x="420.481" y="129.713" fill="black" font-size="11.8568" font-family="Helvetica">
 1.332e+05 
</text>
<text x="361.52" y="146.041" fill="black" font-size="11.8568" font-family="Helvetica">
3-Centroid 
</text>
<text x="528.424" y="146.041" fill="black" font-size="11.8568" font-family="Helvetica">
 0.1
</text>
<text x="522.075" y="146.041" fill="black" font-size="11.8568" font-family="Times">
&#0177;
</text>
<text x="487.605" y="146.041" fill="black" font-size="11.8568" font-family="Helvetica">
  1636 
</text>
<text x="361.52" y="161.461" fill="black" font-size="11.8568" font-family="Helvetica">
3-FWHM   
</text>
<text x="528.424" y="161.461" fill="black" font-size="11.8568" font-family="Helvetica">
 0.1
</text>
<text x="522.075" y="161.461" fill="black" font-size="11.8568" font-family="Times">
&#0177;
</text>
<text x="491.234" y="161.461" fill="black" font-size="11.8568" font-family="Helvetica">
  21.8 
</text>
<text x="361.52" y="176.882" fill="black" font-size="11.8568" font-family="Helvetica">
3-Counts 
</text>
<text x="493.955" y="176.882" fill="black" font-size="11.8568" font-family="Helvetica">
 2.08e+02
</text>
<text x="487.605" y="176.882" fill="black" font-size="11.8568" font-family="Times">
&#0177;
</text>
<text x="433.18" y="176.882" fill="black" font-size="11.8568" font-family="Helvetica">
 3.97e+04 
</text>
<text x="361.52" y="193.209" fill="black" font-size="11.8568" font-family="Helvetica">
4-Centroid 
</text>
<text x="528.424" y="193.209" fill="black" font-size="11.8568" font-family="Helvetica">
 0.1
</text>
<text x="522.075" y="193.209" fill="black" font-size="11.8568" font-family="Times">
&#0177;
</text>
<text x="487.605" y="193.209" fill="black" font-size="11.8568" font-family="Helvetica">
  1682 
</text>
<text x="361.52" y="209.537" fill="black" font-size="11.8568" font-family="Helvetica">
4-FWHM   
</text>
<text x="520.261" y="208.63" fill="black" font-size="11.8568" font-family="Helvetica">
 0.23
</text>
<text x="513.911" y="208.63" fill="black" font-size="11.8568" font-family="Times">
&#0177;
</text>
<text x="479.442" y="208.63" fill="black" font-size="11.8568" font-family="Helvetica">
 19.92 
</text>
<text x="361.52" y="224.05" fill="black" font-size="11.8568" font-family="Helvetica">
4-Counts 
</text>
<text x="513.911" y="224.05" fill="black" font-size="11.8568" font-family="Helvetica">
 108.2
</text>
<text x="507.561" y="224.05" fill="black" font-size="11.8568" font-family="Times">
&#0177;
</text>
<text x="473.092" y="224.05" fill="black" font-size="11.8568" font-family="Helvetica">
  9208 
</text>
<text x="361.52" y="239.471" fill="black" font-size="11.8568" font-family="Helvetica">
Intercept 
</text>
<text x="526.61" y="240.378" fill="black" font-size="11.8568" font-family="Helvetica">
 8.5
</text>
<text x="520.261" y="240.378" fill="black" font-size="11.8568" font-family="Times">
&#0177;
</text>
<text x="485.791" y="240.378" fill="black" font-size="11.8568" font-family="Helvetica">
 792.8 
</text>
<text x="361.52" y="254.891" fill="black" font-size="11.8568" font-family="Helvetica">
Slope    
</text>
<text x="506.654" y="255.798" fill="black" font-size="11.8568" font-family="Helvetica">
 0.0052
</text>
<text x="500.305" y="255.798" fill="black" font-size="11.8568" font-family="Times">
&#0177;
</text>
<text x="462.207" y="255.798" fill="black" font-size="11.8568" font-family="Helvetica">
0.4544 
</text>
<text x="455.857" y="255.798" fill="black" font-size="11.8568" font-family="Times">
&#8722;
</text>
<text x="453.136" y="255.798" fill="black" font-size="11.8568" font-family="Helvetica">
 
</text>
<path d="M59.4606,331.449h 9.07087l 4.53543, -0.0353968l 4.53543, -0.111079l 4.53543, -0.384959l 4.53543, -1.15906l 4.53543, -3.02424l 4.53543, -6.81399l 4.53543, -13.1877l 4.53543, -21.7427l 4.53543, -30.1069l 4.53543, -34.0662l 4.53543, -29.5225l
 4.53543, -15.5186l 4.53543, 4.07269l 4.53543, 22.1607l 4.53543, 32.5417l 4.53543, 33.3002l 4.53543, 27.0005l 4.53543, 18.1329l 4.53543, 10.2967l 4.53543, 5.00008l 4.53543, 2.09063l 4.53543, 0.756039l 4.53543, 0.2372l 4.53543, 0.0839441h 104.315"
 fill="none" stroke="#00ff00" stroke-width="2"/>
<path d="M281.697,331.449h 222.236" fill="none" stroke="#00ff00" stroke-width="2"/>
<path d="M503.933,331.449h 4.53543" fill="none" stroke="#00ff00" stroke-width="2"/>
<path d="M59.4606,331.449h 54.4252l 4.53543, -0.0760376l 4.53543, -0.440293l 4.53543, -2.19729l 4.53543, -8.32439l 4.53543, -23.7119l 4.53543, -49.9219l 4.53543, -75.0062l 4.53543, -73.3847l 4.53543, -30.2196l 4.53543, 33.0894l 4.53543, 74.423l
 4.53543, 74.1875l 4.53543, 48.5127l 4.53543, 22.6948l 4.53543, 7.85576l 4.53543, 2.04577l 4.53543, 0.404575l 4.53543, 0.0688625h 86.1732" fill="none" stroke="#00ff00" stroke-width="2"/>
<path d="M281.697,331.449h 222.236" fill="none" stroke="#00ff00" stroke-width="2"/>
<path d="M503.933,331.449h 4.53543" fill="none" stroke="#00ff00" stroke-width="2"/>
<path d="M59.4606,331.449h 222.236" fill="none" stroke="#00ff00" stroke-width="2"/>
<path d="M281.697,331.449h 63.4961l 4.53543, -0.0670717l 4.53543, -0.193148l 4.53543, -0.60821l 4.53543, -1.62457l 4.53543, -3.66305l 4.53543, -6.91998l 4.53543, -10.8154l 4.53543, -13.6579l 4.53543, -13.2146l 4.53543, -8.26997l 4.53543, -0.0189443l
 4.53543, 8.24003l 4.53543, 13.2032l 4.53543, 13.6645l 4.53543, 10.8313l 4.53543, 6.93603l 4.53543, 3.6744l 4.53543, 1.6308l 4.53543, 0.610976l 4.53543, 0.194161l 4.53543, 0.0674819h 63.4961" fill="none" stroke="#00ff00" stroke-width="2"/>
<path d="M503.933,331.449h 4.53543" fill="none" stroke="#00ff00" stroke-width="2"/>
<path d="M59.4606,331.449h 222.236" fill="none" stroke="#00ff00" stroke-width="2"/>
<path d="M281.697,331.449h 126.992l 4.53543, -0.0444368l 4.53543, -0.128852l 4.53543, -0.391002l 4.53543, -0.970111l 4.53543, -1.94961l 4.53543, -3.12175l 4.53543, -3.85277l 4.53543, -3.36828l 4.53543, -1.43751l 4.53543, 1.19294l 4.53543, 3.2396l
 4.53543, 3.86925l 4.53543, 3.2254l 4.53543, 2.06213l 4.53543, 1.0481l 4.53543, 0.430972l 4.53543, 0.144789l 4.53543, 0.0511281h 13.6063" fill="none" stroke="#00ff00" stroke-width="2"/>
<path d="M503.933,331.449h 4.53543" fill="none" stroke="#00ff00" stroke-width="2"/>
<text x="195.524" y="18.1417" fill="black" font-size="17.1021" font-family="Helvetica">
vsBiasVoltage/250.Spe
</text></svg>
