<?xml version="1.0" standalone="no"?>
<svg width="567.429" height="344.771" viewBox="0 0 567.429 344.771" xmlns="http://www.w3.org/2000/svg">
<title>
/home/ADF/hyw543/XRay/Resolution/250.svg
</title>
<desc>
Creator: ROOT Version 6.06/08
CreationDate: Fri Mar  1 15:34:19 2019</desc>
<defs>
</defs>
<rect x="0.5" y="0" width="566.929" height="344.271" fill="white"/>
<rect x="57.1929" y="34.4271" width="453.543" height="275.417" fill="white"/>
<rect x="57.1929" y="34.4271" width="453.543" height="275.417" fill="none" stroke="black"/>
<rect x="57.1929" y="34.4271" width="453.543" height="275.417" fill="white"/>
<rect x="57.1929" y="34.4271" width="453.543" height="275.417" fill="none" stroke="black"/>
<path d="M57.1929,305.871h 1.02844v 0.264851h 1.02844v -0.0331063h 1.02844v -0.430383h 1.02844v 0.496595h 1.02844v 0.463489h 1.02844v -0.761446h 1.02844v -0.132425h 1.02844v 0.695233h 1.02844v -0.860765h 1.02844v -0.165532h 1.02844v 0.695233h
 1.02844v -0.36417h 1.02844v -0.529702h 1.02844v -0.132425h 1.02844v -0.0662127h 1.02844v 0.0662127h 1.02844v 0.860765h 1.02844v -0.827659h 1.02844v 0.264851h 1.02844v -0.430383h 1.02844v 0.99319h 1.02844v -0.562808h 1.02844v -0.36417h 1.02844v
 -0.695233h 1.02844v 1.12562h 1.02844v -0.099319h 1.02844v 0.231744h 1.02844v -0.695233h 1.02844v 0.397276h 1.02844v -0.397276h 1.02844v -1.09251h 1.02844v 1.42357h 1.02844v -0.529702h 2.05689v -0.231744h 1.02844v -0.794552h 1.02844v 0.264851h
 1.02844v 1.42357h 1.02844v -1.29115h 1.02844v 0.297957h 1.02844v -0.297957h 1.02844v 0.264851h 1.02844v 0.099319h 1.02844v -0.99319h 1.02844v 0.165532h 1.02844v 0.397276h 1.02844v -1.19183h 1.02844v 0.529702h 1.02844v -0.0331063h 1.02844v 0.36417h
 1.02844v -0.794552h 1.02844v 0.36417h 1.02844v -0.0331063h 1.02844v -0.629021h 1.02844v -0.430383h 1.02844v 1.0594h 1.02844v -1.5891h 1.02844v 1.12562h 1.02844v -0.662127h 1.02844v -1.52289h 1.02844v 1.42357h 1.02844v -0.595914h 1.02844v -0.960084h
 1.02844v 0.331063h 1.02844v -0.893871h 1.02844v 0.397276h 1.02844v 0.629021h 1.02844v -1.12562h 1.02844v -1.22493h 1.02844v 1.12562h 1.02844v 0.099319h 1.02844v -0.297957h 1.02844v -0.0331063h 1.02844v -1.15872h 1.02844v 0.595914h 1.02844v
 -0.430383h 1.02844v -1.32425h 1.02844v -0.463489h 1.02844v -1.0594h 1.02844v 0.132425h 1.02844v -0.397276h 1.02844v 0.595914h 1.02844v -1.72153h 1.02844v 0.165532h 1.02844v -1.39047h 1.02844v -0.761446h 1.02844v -1.52289h 1.02844v 1.98638h 1.02844v
 -1.25804h 1.02844v -1.09251h 1.02844v -1.72153h 1.02844v -0.662127h 1.02844v -0.99319h 1.02844v -0.0662127h 1.02844v -1.5891h 1.02844v -3.27753h 1.02844v -1.78774h 1.02844v -1.22493h 1.02844v -4.76731h 1.02844v -4.76731h 1.02844v -3.84034h 1.02844v
 -6.2571h 1.02844v -9.10425h 1.02844v -2.5823h 1.02844v -15.8248h 1.02844v -9.17046h 1.02844v -12.4811h 1.02844v -7.94552h 1.02844v -7.91242h 1.02844v -21.4198h 1.02844v -11.2231h 1.02844v -3.44306h 1.02844v -8.3428h 1.02844v -9.23667h 1.02844v
 -5.56187h 1.02844v 2.35055h 1.02844v 4.30382h 1.02844v -1.85396h 1.02844v 11.8521h 1.02844v 3.90655h 1.02844v 8.70697h 1.02844v 7.54825h 1.02844v 6.72059h 1.02844v 6.29021h 1.02844v -0.99319h 1.02844v 0.297957h 1.02844v -1.98638h 1.02844v -3.07889h
 1.02844v -11.2562h 1.02844v -11.7859h 1.02844v -11.1899h 1.02844v -18.5727h 1.02844v -12.7459h 1.02844v -19.2017h 1.02844v -14.8979h 1.02844v -14.0371h 1.02844v -9.13735h 1.02844v -3.27753h 1.02844v -2.88025h 1.02844v -2.64851h 1.02844v 5.7274h
 1.02844v 11.0244h 1.02844v 15.5931h 1.02844v 17.8443h 1.02844v 15.3613h 1.02844v 13.8716h 1.02844v 27.8424h 1.02844v 19.1355h 1.02844v 22.3799h 1.02844v 16.189h 1.02844v 18.9368h 1.02844v 10.4947h 1.02844v 12.3156h 1.02844v 10.3954h 1.02844v 9.3691h
 1.02844v 8.50833h 1.02844v 4.83353h 1.02844v 5.49565h 1.02844v 3.1451h 1.02844v 2.41676h 1.02844v 1.556h 1.02844v 1.25804h 1.02844v 3.27753h 1.02844v 0.0662127h 1.02844v -0.397276h 1.02844v 1.25804h 1.02844v 0.761446h 1.02844v 0.430383h 1.02844v
 0.463489h 1.02844v -0.761446h 1.02844v 0.926978h 1.02844v 0.198638h 1.02844v 0.0331063h 1.02844v -0.0331063h 1.02844v 0.099319h 2.05689v 0.198638h 1.02844v 0.0331063h 1.02844v -0.0331063h 1.02844v -0.231744h 1.02844v -0.0331063h 1.02844v -0.0662127h
 1.02844v 0.132425h 1.02844v 0.430383h 1.02844v 0.0331063h 1.02844v -0.099319h 1.02844v -0.0662127h 1.02844v -0.264851h 1.02844v -0.132425h 1.02844v 0.662127h 2.05689v -0.331063h 1.02844v -0.132425h 1.02844v 0.297957h 1.02844v 0.331063h 1.02844v
 -0.629021h 1.02844v 0.562808h 1.02844v -0.595914h 1.02844v 0.297957h 1.02844v -0.0331063h 1.02844v 0.198638h 1.02844v -0.165532h 1.02844v 0.099319h 1.02844v 0.264851h 1.02844v -0.331063h 1.02844v 0.0662127h 1.02844v -0.0662127h 2.05689v 0.0662127h
 1.02844v -0.331063h 1.02844v 0.297957h 1.02844v -0.198638h 1.02844v 0.132425h 1.02844v -0.595914h 1.02844v 0.72834h 1.02844v -0.430383h 1.02844v -0.0331063h 1.02844v 0.562808h 1.02844v -0.496595h 1.02844v 0.331063h 1.02844v -0.0331063h 1.02844v
 0.165532h 1.02844v -0.297957h 1.02844v 0.198638h 1.02844v -0.36417h 1.02844v 0.198638h 1.02844v 0.0331063h 1.02844v -0.132425h 1.02844v -0.0662127h 1.02844v 0.264851h 1.02844v -0.430383h 1.02844v -0.264851h 1.02844v 0.529702h 1.02844v -0.132425h
 1.02844v 0.0331063h 1.02844v -0.198638h 1.02844v -0.165532h 1.02844v 0.36417h 1.02844v 0.0662127h 1.02844v -0.132425h 1.02844v -0.165532h 1.02844v -0.165532h 1.02844v 0.264851h 1.02844v 0.231744h 1.02844v -0.264851h 1.02844v -0.099319h 1.02844v
 0.36417h 1.02844v -0.860765h 1.02844v 0.662127h 1.02844v -0.198638h 1.02844v -1.0594h 1.02844v 1.0594h 1.02844v -1.09251h 1.02844v 0.72834h 1.02844v -0.331063h 1.02844v 0.297957h 1.02844v 0.331063h 1.02844v -0.562808h 1.02844v -0.297957h 1.02844v
 -0.0331063h 1.02844v -0.529702h 1.02844v 1.19183h 1.02844v -0.496595h 1.02844v -0.198638h 1.02844v 0.198638h 1.02844v -0.297957h 1.02844v -0.198638h 1.02844v 0.695233h 1.02844v -0.72834h 1.02844v -0.496595h 1.02844v 0.198638h 1.02844v 0.099319h
 1.02844v -0.695233h 1.02844v 0.662127h 2.05689v 0.132425h 1.02844v -0.36417h 1.02844v -0.463489h 1.02844v -0.463489h 1.02844v 0.960084h 1.02844v -0.562808h 1.02844v 0.231744h 2.05689v -0.132425h 1.02844v -0.165532h 1.02844v -0.264851h 1.02844v
 0.231744h 1.02844v -0.827659h 1.02844v 1.22493h 1.02844v -0.794552h 1.02844v 0.562808h 1.02844v -1.09251h 1.02844v 0.0662127h 1.02844v -0.264851h 1.02844v -0.72834h 1.02844v 0.397276h 1.02844v -0.132425h 1.02844v 0.297957h 1.02844v -1.0263h 1.02844v
 0.165532h 1.02844v -0.397276h 1.02844v -0.595914h 1.02844v 0.893871h 1.02844v -0.794552h 1.02844v 0.099319h 1.02844v -0.463489h 1.02844v -0.397276h 1.02844v -0.198638h 1.02844v -1.09251h 1.02844v -0.297957h 1.02844v -1.15872h 1.02844v -2.11881h
 1.02844v -0.893871h 1.02844v -2.74783h 1.02844v -2.31744h 1.02844v 0.860765h 1.02844v -4.40314h 1.02844v -3.34374h 1.02844v -3.34374h 1.02844v -5.1977h 1.02844v -5.13148h 1.02844v -3.21132h 1.02844v -1.32425h 1.02844v -3.40995h 1.02844v -3.07889h
 1.02844v -6.19089h 1.02844v -1.78774h 1.02844v -1.22493h 1.02844v -1.35736h 1.02844v -0.198638h 1.02844v 2.21813h 1.02844v 0.761446h 1.02844v 3.57549h 1.02844v 3.1451h 1.02844v 3.07889h 1.02844v 3.70791h 1.02844v 3.01268h 1.02844v 5.03216h 1.02844v
 2.78093h 1.02844v 5.03216h 1.02844v 5.06527h 1.02844v 2.94646h 1.02844v 3.04578h 1.02844v 2.35055h 1.02844v 2.74783h 1.02844v 2.41676h 1.02844v 1.95327h 1.02844v 0.529702h 1.02844v 0.297957h 1.02844v 1.92017h 1.02844v 0.496595h 1.02844v 0.860765h
 1.02844v 0.529702h 1.02844v -0.430383h 1.02844v 0.529702h 1.02844v 0.099319h 1.02844v 0.264851h 1.02844v -0.496595h 1.02844v -0.99319h 1.02844v -0.0662127h 1.02844v 0.36417h 1.02844v -1.15872h 1.02844v -0.529702h 1.02844v -1.75464h 1.02844v
 -0.264851h 1.02844v -0.72834h 1.02844v -1.88706h 1.02844v -0.629021h 1.02844v 0.595914h 1.02844v -2.38366h 1.02844v -0.297957h 1.02844v 0.165532h 1.02844v -0.99319h 1.02844v -0.264851h 1.02844v -0.529702h 1.02844v 1.72153h 1.02844v 0.562808h
 1.02844v -0.662127h 1.02844v 0.562808h 1.02844v 1.92017h 1.02844v 0.662127h 1.02844v 1.75464h 1.02844v -0.0662127h 1.02844v 0.72834h 1.02844v 1.62221h 1.02844v 1.62221h 1.02844v -0.099319h 1.02844v 1.25804h 1.02844v -0.198638h 1.02844v 1.42357h
 1.02844v 0.297957h 1.02844v 0.132425h 1.02844v 0.36417h 1.02844v 0.264851h 1.02844v -0.165532h 1.02844v 1.22493h 1.02844v -0.198638h 1.02844v -0.0662127h 1.02844v 0.264851h 1.02844v 0.297957h 1.02844v -0.264851h 1.02844v -0.36417h 1.02844v 0.662127h
 1.02844v -0.231744h 1.02844v 0.198638h 1.02844v 0.099319h 1.02844v -0.0662127h 1.02844v 0.132425h 1.02844v -0.0331063h 1.02844v 0.165532h 1.02844v -0.297957h 1.02844v 0.132425h 1.02844v -0.0331063h 1.02844v 0.0331063h 1.02844v -0.099319h 1.02844v
 0.231744h 1.02844v 0.0331063h 1.02844v -0.264851h 1.02844v 0.099319h 1.02844v -0.132425h 1.02844v 0.165532h 1.02844v 0.132425h 1.02844v -0.198638h 1.02844v 0.165532h 1.02844v 0.0331063h 1.02844v -0.132425h 2.05689v -0.165532h 1.02844v 0.099319h
 1.02844v 0.132425h 1.02844v -0.0331063h 1.02844v -0.0331063h 3.08533v 0.165532h 1.02844v -0.132425h 1.02844v 0.0662127h 1.02844v 0.0331063h 1.02844v -0.36417h 1.02844v 0.430383h 1.02844" fill="none" stroke="#ff0000" stroke-width="2"/>
<rect x="351.996" y="22.3776" width="204.094" height="220.333" fill="white"/>
<path d="M351.996,242.711h 204.094" fill="none" stroke="black" stroke-width="2"/>
<path d="M556.091,242.711v -220.333" fill="none" stroke="black" stroke-width="2"/>
<path d="M556.091,22.3776h -204.094" fill="none" stroke="black" stroke-width="2"/>
<path d="M351.996,22.3776v 220.333" fill="none" stroke="black" stroke-width="2"/>
<text x="372.491" y="33.98" fill="black" font-size="11.9675" font-family="Helvetica">
 / ndf 
</text>
<text x="368.02" y="29.5089" fill="black" font-size="8.145" font-family="Helvetica">
2
</text>
<text x="361.761" y="33.98" fill="black" font-size="11.9675" font-family="Times">
&#0967;
</text>
<text x="485.162" y="33.98" fill="black" font-size="11.9675" font-family="Helvetica">
  9984 / 427
</text>
<text x="361.761" y="48.2873" fill="black" font-size="11.9675" font-family="Helvetica">
1-Centroid 
</text>
<text x="528.084" y="48.2873" fill="black" font-size="11.9675" font-family="Helvetica">
 0.1
</text>
<text x="521.824" y="48.2873" fill="black" font-size="11.9675" font-family="Times">
&#0177;
</text>
<text x="487.844" y="48.2873" fill="black" font-size="11.9675" font-family="Helvetica">
  1423 
</text>
<text x="361.761" y="64.3831" fill="black" font-size="11.9675" font-family="Helvetica">
1-FWHM   
</text>
<text x="520.036" y="63.4889" fill="black" font-size="11.9675" font-family="Helvetica">
 0.20
</text>
<text x="513.777" y="63.4889" fill="black" font-size="11.9675" font-family="Times">
&#0177;
</text>
<text x="479.797" y="63.4889" fill="black" font-size="11.9675" font-family="Helvetica">
 24.54 
</text>
<text x="361.761" y="77.7963" fill="black" font-size="11.9675" font-family="Helvetica">
1-Counts 
</text>
<text x="487.844" y="77.7963" fill="black" font-size="11.9675" font-family="Helvetica">
 8.314e+02
</text>
<text x="481.585" y="77.7963" fill="black" font-size="11.9675" font-family="Times">
&#0177;
</text>
<text x="421.673" y="77.7963" fill="black" font-size="11.9675" font-family="Helvetica">
 1.182e+05 
</text>
<text x="361.761" y="92.1036" fill="black" font-size="11.9675" font-family="Helvetica">
2-Centroid 
</text>
<text x="526.295" y="92.1036" fill="black" font-size="11.9675" font-family="Helvetica">
 0.0
</text>
<text x="520.036" y="92.1036" fill="black" font-size="11.9675" font-family="Times">
&#0177;
</text>
<text x="486.056" y="92.1036" fill="black" font-size="11.9675" font-family="Helvetica">
  1447 
</text>
<text x="361.761" y="108.199" fill="black" font-size="11.9675" font-family="Helvetica">
2-FWHM   
</text>
<text x="520.036" y="107.305" fill="black" font-size="11.9675" font-family="Helvetica">
 0.07
</text>
<text x="513.777" y="107.305" fill="black" font-size="11.9675" font-family="Times">
&#0177;
</text>
<text x="479.797" y="107.305" fill="black" font-size="11.9675" font-family="Helvetica">
 16.83 
</text>
<text x="361.761" y="121.613" fill="black" font-size="11.9675" font-family="Helvetica">
2-Counts 
</text>
<text x="487.844" y="121.613" fill="black" font-size="11.9675" font-family="Helvetica">
 8.237e+02
</text>
<text x="481.585" y="121.613" fill="black" font-size="11.9675" font-family="Times">
&#0177;
</text>
<text x="421.673" y="121.613" fill="black" font-size="11.9675" font-family="Helvetica">
 1.317e+05 
</text>
<text x="361.761" y="136.814" fill="black" font-size="11.9675" font-family="Helvetica">
3-Centroid 
</text>
<text x="528.084" y="136.814" fill="black" font-size="11.9675" font-family="Helvetica">
 0.1
</text>
<text x="521.824" y="136.814" fill="black" font-size="11.9675" font-family="Times">
&#0177;
</text>
<text x="487.844" y="136.814" fill="black" font-size="11.9675" font-family="Helvetica">
  1635 
</text>
<text x="361.761" y="151.121" fill="black" font-size="11.9675" font-family="Helvetica">
3-FWHM   
</text>
<text x="520.036" y="151.121" fill="black" font-size="11.9675" font-family="Helvetica">
 0.12
</text>
<text x="513.777" y="151.121" fill="black" font-size="11.9675" font-family="Times">
&#0177;
</text>
<text x="481.585" y="151.121" fill="black" font-size="11.9675" font-family="Helvetica">
 22.61 
</text>
<text x="361.761" y="166.323" fill="black" font-size="11.9675" font-family="Helvetica">
3-Counts 
</text>
<text x="487.844" y="166.323" fill="black" font-size="11.9675" font-family="Helvetica">
 2.089e+02
</text>
<text x="481.585" y="166.323" fill="black" font-size="11.9675" font-family="Times">
&#0177;
</text>
<text x="421.673" y="166.323" fill="black" font-size="11.9675" font-family="Helvetica">
 4.029e+04 
</text>
<text x="361.761" y="180.63" fill="black" font-size="11.9675" font-family="Helvetica">
4-Centroid 
</text>
<text x="528.084" y="180.63" fill="black" font-size="11.9675" font-family="Helvetica">
 0.1
</text>
<text x="521.824" y="180.63" fill="black" font-size="11.9675" font-family="Times">
&#0177;
</text>
<text x="489.633" y="180.63" fill="black" font-size="11.9675" font-family="Helvetica">
  1681 
</text>
<text x="361.761" y="195.832" fill="black" font-size="11.9675" font-family="Helvetica">
4-FWHM   
</text>
<text x="520.036" y="194.938" fill="black" font-size="11.9675" font-family="Helvetica">
 0.23
</text>
<text x="513.777" y="194.938" fill="black" font-size="11.9675" font-family="Times">
&#0177;
</text>
<text x="481.585" y="194.938" fill="black" font-size="11.9675" font-family="Helvetica">
 20.21 
</text>
<text x="361.761" y="210.139" fill="black" font-size="11.9675" font-family="Helvetica">
4-Counts 
</text>
<text x="513.777" y="210.139" fill="black" font-size="11.9675" font-family="Helvetica">
 105.9
</text>
<text x="507.517" y="210.139" fill="black" font-size="11.9675" font-family="Times">
&#0177;
</text>
<text x="473.537" y="210.139" fill="black" font-size="11.9675" font-family="Helvetica">
  9019 
</text>
<text x="361.761" y="223.552" fill="black" font-size="11.9675" font-family="Helvetica">
Intercept 
</text>
<text x="526.295" y="224.447" fill="black" font-size="11.9675" font-family="Helvetica">
 5.2
</text>
<text x="520.036" y="224.447" fill="black" font-size="11.9675" font-family="Times">
&#0177;
</text>
<text x="486.056" y="224.447" fill="black" font-size="11.9675" font-family="Helvetica">
 663.5 
</text>
<text x="361.761" y="238.754" fill="black" font-size="11.9675" font-family="Helvetica">
Slope    
</text>
<text x="506.623" y="239.648" fill="black" font-size="11.9675" font-family="Helvetica">
 0.0032
</text>
<text x="500.363" y="239.648" fill="black" font-size="11.9675" font-family="Times">
&#0177;
</text>
<text x="462.807" y="239.648" fill="black" font-size="11.9675" font-family="Helvetica">
0.3777 
</text>
<text x="456.547" y="239.648" fill="black" font-size="11.9675" font-family="Times">
&#8722;
</text>
<text x="453.864" y="239.648" fill="black" font-size="11.9675" font-family="Helvetica">
 
</text>
<path d="M59.4606,304.238l 4.53543, 0.055148l 4.53543, 0.055148l 4.53543, 0.055148l 4.53543, 0.055148l 4.53543, 0.055148l 4.53543, 0.055148l 4.53543, 0.055148l 4.53543, 0.055148l 4.53543, 0.055148l 4.53543, 0.055148l 4.53543, 0.0551478l 4.53543,
 0.0551447l 4.53543, 0.055111l 4.53543, 0.0548091l 4.53543, 0.0525642l 4.53543, 0.038758l 4.53543, -0.0312381l 4.53543, -0.322427l 4.53543, -1.30969l 4.53543, -4.00902l 4.53543, -9.85568l 4.53543, -19.5494l 4.53543, -30.8774l 4.53543, -37.5798l
 4.53543, -32.3734l 4.53543, -13.9666l 4.53543, 7.3067l 4.53543, 11.4074l 4.53543, -15.935l 4.53543, -54.3671l 4.53543, -48.9531l 4.53543, 17.4945l 4.53543, 80.9153l 4.53543, 83.9365l 4.53543, 47.7143l 4.53543, 16.9239l 4.53543, 3.94558l 4.53543,
 0.652115l 4.53543, 0.116795l 4.53543, 0.0594647l 4.53543, 0.0553545l 4.53543, 0.0551549l 4.53543, 0.0551482l 4.53543, 0.055148l 4.53543, 0.055148l 4.53543, 0.055148l 4.53543, 0.055148l 4.53543, 0.055148l 4.53543, 0.055148" fill="none"
 stroke="#0000ff" stroke-width="2"/>
<path d="M281.697,306.94l 4.53543, 0.055148l 4.53543, 0.055148l 4.53543, 0.055148l 4.53543, 0.055148l 4.53543, 0.055148l 4.53543, 0.055148l 4.53543, 0.055148l 4.53543, 0.055148l 4.53543, 0.055148l 4.53543, 0.055148l 4.53543, 0.055148l 4.53543,
 0.0551475l 4.53543, 0.0551397l 4.53543, 0.0550525l 4.53543, 0.0542632l 4.53543, 0.048542l 4.53543, 0.0154811l 4.53543, -0.135947l 4.53543, -0.680777l 4.53543, -2.19821l 4.53543, -5.38339l 4.53543, -10.1374l 4.53543, -14.3476l 4.53543, -14.2293l
 4.53543, -7.48328l 4.53543, 3.41611l 4.53543, 12.4145l 4.53543, 15.1305l 4.53543, 12.1465l 4.53543, 7.04837l 4.53543, 2.59607l 4.53543, -0.659149l 4.53543, -3.03106l 4.53543, -4.08257l 4.53543, -2.86539l 4.53543, 0.302676l 4.53543, 3.31057l 4.53543,
 4.26097l 4.53543, 3.27551l 4.53543, 1.75901l 4.53543, 0.709876l 4.53543, 0.242011l 4.53543, 0.0952368l 4.53543, 0.061659l 4.53543, 0.0559522l 4.53543, 0.0552238l 4.53543, 0.0551535l 4.53543, 0.0551483l 4.53543, 0.055148" fill="none" stroke="#0000ff"
 stroke-width="2"/>
<path d="M503.933,309.642l 4.53543, 0.055148" fill="none" stroke="#0000ff" stroke-width="2"/>
<path d="M57.1929,309.844h 453.543" fill="none" stroke="black" stroke-width="2"/>
<text x="462.807" y="333.54" fill="black" font-size="11.5546" font-family="Helvetica">
Channels
</text>
<path d="M153.867,301.581v 8.2625" fill="none" stroke="black" stroke-width="2"/>
<path d="M174.435,305.712v 4.13125" fill="none" stroke="black" stroke-width="2"/>
<path d="M195.004,305.712v 4.13125" fill="none" stroke="black" stroke-width="2"/>
<path d="M215.573,305.712v 4.13125" fill="none" stroke="black" stroke-width="2"/>
<path d="M236.142,305.712v 4.13125" fill="none" stroke="black" stroke-width="2"/>
<path d="M256.711,301.581v 8.2625" fill="none" stroke="black" stroke-width="2"/>
<path d="M277.28,305.712v 4.13125" fill="none" stroke="black" stroke-width="2"/>
<path d="M297.849,305.712v 4.13125" fill="none" stroke="black" stroke-width="2"/>
<path d="M318.417,305.712v 4.13125" fill="none" stroke="black" stroke-width="2"/>
<path d="M338.986,305.712v 4.13125" fill="none" stroke="black" stroke-width="2"/>
<path d="M359.555,301.581v 8.2625" fill="none" stroke="black" stroke-width="2"/>
<path d="M380.124,305.712v 4.13125" fill="none" stroke="black" stroke-width="2"/>
<path d="M400.693,305.712v 4.13125" fill="none" stroke="black" stroke-width="2"/>
<path d="M421.262,305.712v 4.13125" fill="none" stroke="black" stroke-width="2"/>
<path d="M441.831,305.712v 4.13125" fill="none" stroke="black" stroke-width="2"/>
<path d="M462.399,301.581v 8.2625" fill="none" stroke="black" stroke-width="2"/>
<path d="M153.867,301.581v 8.2625" fill="none" stroke="black" stroke-width="2"/>
<path d="M133.298,305.712v 4.13125" fill="none" stroke="black" stroke-width="2"/>
<path d="M112.729,305.712v 4.13125" fill="none" stroke="black" stroke-width="2"/>
<path d="M92.16,305.712v 4.13125" fill="none" stroke="black" stroke-width="2"/>
<path d="M71.5911,305.712v 4.13125" fill="none" stroke="black" stroke-width="2"/>
<path d="M462.399,301.581v 8.2625" fill="none" stroke="black" stroke-width="2"/>
<path d="M482.968,305.712v 4.13125" fill="none" stroke="black" stroke-width="2"/>
<path d="M503.537,305.712v 4.13125" fill="none" stroke="black" stroke-width="2"/>
<text x="139.997" y="321.021" fill="black" font-size="11.5546" font-family="Helvetica">
1400
</text>
<text x="242.831" y="321.021" fill="black" font-size="11.5546" font-family="Helvetica">
1500
</text>
<text x="345.665" y="321.021" fill="black" font-size="11.5546" font-family="Helvetica">
1600
</text>
<text x="448.499" y="321.021" fill="black" font-size="11.5546" font-family="Helvetica">
1700
</text>
<path d="M57.1929,309.844v -275.417" fill="none" stroke="black" stroke-width="2"/>
<path d="M70.7992,309.844h -13.6063" fill="none" stroke="black" stroke-width="2"/>
<path d="M63.9961,303.222h -6.80315" fill="none" stroke="black" stroke-width="2"/>
<path d="M63.9961,296.601h -6.80315" fill="none" stroke="black" stroke-width="2"/>
<path d="M63.9961,289.98h -6.80315" fill="none" stroke="black" stroke-width="2"/>
<path d="M63.9961,283.359h -6.80315" fill="none" stroke="black" stroke-width="2"/>
<path d="M70.7992,276.737h -13.6063" fill="none" stroke="black" stroke-width="2"/>
<path d="M63.9961,270.116h -6.80315" fill="none" stroke="black" stroke-width="2"/>
<path d="M63.9961,263.495h -6.80315" fill="none" stroke="black" stroke-width="2"/>
<path d="M63.9961,256.874h -6.80315" fill="none" stroke="black" stroke-width="2"/>
<path d="M63.9961,250.252h -6.80315" fill="none" stroke="black" stroke-width="2"/>
<path d="M70.7992,243.631h -13.6063" fill="none" stroke="black" stroke-width="2"/>
<path d="M63.9961,237.01h -6.80315" fill="none" stroke="black" stroke-width="2"/>
<path d="M63.9961,230.389h -6.80315" fill="none" stroke="black" stroke-width="2"/>
<path d="M63.9961,223.767h -6.80315" fill="none" stroke="black" stroke-width="2"/>
<path d="M63.9961,217.146h -6.80315" fill="none" stroke="black" stroke-width="2"/>
<path d="M70.7992,210.525h -13.6063" fill="none" stroke="black" stroke-width="2"/>
<path d="M63.9961,203.903h -6.80315" fill="none" stroke="black" stroke-width="2"/>
<path d="M63.9961,197.282h -6.80315" fill="none" stroke="black" stroke-width="2"/>
<path d="M63.9961,190.661h -6.80315" fill="none" stroke="black" stroke-width="2"/>
<path d="M63.9961,184.04h -6.80315" fill="none" stroke="black" stroke-width="2"/>
<path d="M70.7992,177.418h -13.6063" fill="none" stroke="black" stroke-width="2"/>
<path d="M63.9961,170.797h -6.80315" fill="none" stroke="black" stroke-width="2"/>
<path d="M63.9961,164.176h -6.80315" fill="none" stroke="black" stroke-width="2"/>
<path d="M63.9961,157.555h -6.80315" fill="none" stroke="black" stroke-width="2"/>
<path d="M63.9961,150.933h -6.80315" fill="none" stroke="black" stroke-width="2"/>
<path d="M70.7992,144.312h -13.6063" fill="none" stroke="black" stroke-width="2"/>
<path d="M63.9961,137.691h -6.80315" fill="none" stroke="black" stroke-width="2"/>
<path d="M63.9961,131.069h -6.80315" fill="none" stroke="black" stroke-width="2"/>
<path d="M63.9961,124.448h -6.80315" fill="none" stroke="black" stroke-width="2"/>
<path d="M63.9961,117.827h -6.80315" fill="none" stroke="black" stroke-width="2"/>
<path d="M70.7992,111.206h -13.6063" fill="none" stroke="black" stroke-width="2"/>
<path d="M63.9961,104.584h -6.80315" fill="none" stroke="black" stroke-width="2"/>
<path d="M63.9961,97.9631h -6.80315" fill="none" stroke="black" stroke-width="2"/>
<path d="M63.9961,91.3419h -6.80315" fill="none" stroke="black" stroke-width="2"/>
<path d="M63.9961,84.7206h -6.80315" fill="none" stroke="black" stroke-width="2"/>
<path d="M70.7992,78.0993h -13.6063" fill="none" stroke="black" stroke-width="2"/>
<path d="M63.9961,71.4781h -6.80315" fill="none" stroke="black" stroke-width="2"/>
<path d="M63.9961,64.8568h -6.80315" fill="none" stroke="black" stroke-width="2"/>
<path d="M63.9961,58.2355h -6.80315" fill="none" stroke="black" stroke-width="2"/>
<path d="M63.9961,51.6142h -6.80315" fill="none" stroke="black" stroke-width="2"/>
<path d="M70.7992,44.993h -13.6063" fill="none" stroke="black" stroke-width="2"/>
<path d="M70.7992,44.993h -13.6063" fill="none" stroke="black" stroke-width="2"/>
<path d="M63.9961,38.3717h -6.80315" fill="none" stroke="black" stroke-width="2"/>
<text x="47.8931" y="313.868" fill="black" font-size="11.5546" font-family="Helvetica">
0
</text>
<text x="28.2205" y="280.782" fill="black" font-size="11.5546" font-family="Helvetica">
1000
</text>
<text x="28.2205" y="247.696" fill="black" font-size="11.5546" font-family="Helvetica">
2000
</text>
<text x="28.2205" y="214.61" fill="black" font-size="11.5546" font-family="Helvetica">
3000
</text>
<text x="28.2205" y="181.525" fill="black" font-size="11.5546" font-family="Helvetica">
4000
</text>
<text x="28.2205" y="148.439" fill="black" font-size="11.5546" font-family="Helvetica">
5000
</text>
<text x="28.2205" y="115.353" fill="black" font-size="11.5546" font-family="Helvetica">
6000
</text>
<text x="28.2205" y="82.2673" fill="black" font-size="11.5546" font-family="Helvetica">
7000
</text>
<text x="28.2205" y="49.1815" fill="black" font-size="11.5546" font-family="Helvetica">
8000
</text>
<rect x="351.996" y="22.3776" width="204.094" height="220.333" fill="white"/>
<path d="M351.996,242.711h 204.094" fill="none" stroke="black" stroke-width="2"/>
<path d="M556.091,242.711v -220.333" fill="none" stroke="black" stroke-width="2"/>
<path d="M556.091,22.3776h -204.094" fill="none" stroke="black" stroke-width="2"/>
<path d="M351.996,22.3776v 220.333" fill="none" stroke="black" stroke-width="2"/>
<text x="372.491" y="33.98" fill="black" font-size="11.9675" font-family="Helvetica">
 / ndf 
</text>
<text x="368.02" y="29.5089" fill="black" font-size="8.145" font-family="Helvetica">
2
</text>
<text x="361.761" y="33.98" fill="black" font-size="11.9675" font-family="Times">
&#0967;
</text>
<text x="485.162" y="33.98" fill="black" font-size="11.9675" font-family="Helvetica">
  9984 / 427
</text>
<text x="361.761" y="48.2873" fill="black" font-size="11.9675" font-family="Helvetica">
1-Centroid 
</text>
<text x="528.084" y="48.2873" fill="black" font-size="11.9675" font-family="Helvetica">
 0.1
</text>
<text x="521.824" y="48.2873" fill="black" font-size="11.9675" font-family="Times">
&#0177;
</text>
<text x="487.844" y="48.2873" fill="black" font-size="11.9675" font-family="Helvetica">
  1423 
</text>
<text x="361.761" y="64.3831" fill="black" font-size="11.9675" font-family="Helvetica">
1-FWHM   
</text>
<text x="520.036" y="63.4889" fill="black" font-size="11.9675" font-family="Helvetica">
 0.20
</text>
<text x="513.777" y="63.4889" fill="black" font-size="11.9675" font-family="Times">
&#0177;
</text>
<text x="479.797" y="63.4889" fill="black" font-size="11.9675" font-family="Helvetica">
 24.54 
</text>
<text x="361.761" y="77.7963" fill="black" font-size="11.9675" font-family="Helvetica">
1-Counts 
</text>
<text x="487.844" y="77.7963" fill="black" font-size="11.9675" font-family="Helvetica">
 8.314e+02
</text>
<text x="481.585" y="77.7963" fill="black" font-size="11.9675" font-family="Times">
&#0177;
</text>
<text x="421.673" y="77.7963" fill="black" font-size="11.9675" font-family="Helvetica">
 1.182e+05 
</text>
<text x="361.761" y="92.1036" fill="black" font-size="11.9675" font-family="Helvetica">
2-Centroid 
</text>
<text x="526.295" y="92.1036" fill="black" font-size="11.9675" font-family="Helvetica">
 0.0
</text>
<text x="520.036" y="92.1036" fill="black" font-size="11.9675" font-family="Times">
&#0177;
</text>
<text x="486.056" y="92.1036" fill="black" font-size="11.9675" font-family="Helvetica">
  1447 
</text>
<text x="361.761" y="108.199" fill="black" font-size="11.9675" font-family="Helvetica">
2-FWHM   
</text>
<text x="520.036" y="107.305" fill="black" font-size="11.9675" font-family="Helvetica">
 0.07
</text>
<text x="513.777" y="107.305" fill="black" font-size="11.9675" font-family="Times">
&#0177;
</text>
<text x="479.797" y="107.305" fill="black" font-size="11.9675" font-family="Helvetica">
 16.83 
</text>
<text x="361.761" y="121.613" fill="black" font-size="11.9675" font-family="Helvetica">
2-Counts 
</text>
<text x="487.844" y="121.613" fill="black" font-size="11.9675" font-family="Helvetica">
 8.237e+02
</text>
<text x="481.585" y="121.613" fill="black" font-size="11.9675" font-family="Times">
&#0177;
</text>
<text x="421.673" y="121.613" fill="black" font-size="11.9675" font-family="Helvetica">
 1.317e+05 
</text>
<text x="361.761" y="136.814" fill="black" font-size="11.9675" font-family="Helvetica">
3-Centroid 
</text>
<text x="528.084" y="136.814" fill="black" font-size="11.9675" font-family="Helvetica">
 0.1
</text>
<text x="521.824" y="136.814" fill="black" font-size="11.9675" font-family="Times">
&#0177;
</text>
<text x="487.844" y="136.814" fill="black" font-size="11.9675" font-family="Helvetica">
  1635 
</text>
<text x="361.761" y="151.121" fill="black" font-size="11.9675" font-family="Helvetica">
3-FWHM   
</text>
<text x="520.036" y="151.121" fill="black" font-size="11.9675" font-family="Helvetica">
 0.12
</text>
<text x="513.777" y="151.121" fill="black" font-size="11.9675" font-family="Times">
&#0177;
</text>
<text x="481.585" y="151.121" fill="black" font-size="11.9675" font-family="Helvetica">
 22.61 
</text>
<text x="361.761" y="166.323" fill="black" font-size="11.9675" font-family="Helvetica">
3-Counts 
</text>
<text x="487.844" y="166.323" fill="black" font-size="11.9675" font-family="Helvetica">
 2.089e+02
</text>
<text x="481.585" y="166.323" fill="black" font-size="11.9675" font-family="Times">
&#0177;
</text>
<text x="421.673" y="166.323" fill="black" font-size="11.9675" font-family="Helvetica">
 4.029e+04 
</text>
<text x="361.761" y="180.63" fill="black" font-size="11.9675" font-family="Helvetica">
4-Centroid 
</text>
<text x="528.084" y="180.63" fill="black" font-size="11.9675" font-family="Helvetica">
 0.1
</text>
<text x="521.824" y="180.63" fill="black" font-size="11.9675" font-family="Times">
&#0177;
</text>
<text x="489.633" y="180.63" fill="black" font-size="11.9675" font-family="Helvetica">
  1681 
</text>
<text x="361.761" y="195.832" fill="black" font-size="11.9675" font-family="Helvetica">
4-FWHM   
</text>
<text x="520.036" y="194.938" fill="black" font-size="11.9675" font-family="Helvetica">
 0.23
</text>
<text x="513.777" y="194.938" fill="black" font-size="11.9675" font-family="Times">
&#0177;
</text>
<text x="481.585" y="194.938" fill="black" font-size="11.9675" font-family="Helvetica">
 20.21 
</text>
<text x="361.761" y="210.139" fill="black" font-size="11.9675" font-family="Helvetica">
4-Counts 
</text>
<text x="513.777" y="210.139" fill="black" font-size="11.9675" font-family="Helvetica">
 105.9
</text>
<text x="507.517" y="210.139" fill="black" font-size="11.9675" font-family="Times">
&#0177;
</text>
<text x="473.537" y="210.139" fill="black" font-size="11.9675" font-family="Helvetica">
  9019 
</text>
<text x="361.761" y="223.552" fill="black" font-size="11.9675" font-family="Helvetica">
Intercept 
</text>
<text x="526.295" y="224.447" fill="black" font-size="11.9675" font-family="Helvetica">
 5.2
</text>
<text x="520.036" y="224.447" fill="black" font-size="11.9675" font-family="Times">
&#0177;
</text>
<text x="486.056" y="224.447" fill="black" font-size="11.9675" font-family="Helvetica">
 663.5 
</text>
<text x="361.761" y="238.754" fill="black" font-size="11.9675" font-family="Helvetica">
Slope    
</text>
<text x="506.623" y="239.648" fill="black" font-size="11.9675" font-family="Helvetica">
 0.0032
</text>
<text x="500.363" y="239.648" fill="black" font-size="11.9675" font-family="Times">
&#0177;
</text>
<text x="462.807" y="239.648" fill="black" font-size="11.9675" font-family="Helvetica">
0.3777 
</text>
<text x="456.547" y="239.648" fill="black" font-size="11.9675" font-family="Times">
&#8722;
</text>
<text x="453.864" y="239.648" fill="black" font-size="11.9675" font-family="Helvetica">
 
</text>
<path d="M59.4606,309.844h 72.5669l 4.53543, -0.10574l 4.53543, -0.377575l 4.53543, -1.36483l 4.53543, -4.06417l 4.53543, -9.91083l 4.53543, -19.6045l 4.53543, -30.9323l 4.53543, -37.6281l 4.53543, -32.3368l 4.53543, -13.1888l 4.53543, 12.3304l
 4.53543, 31.8816l 4.53543, 37.6804l 4.53543, 31.2929l 4.53543, 20.0008l 4.53543, 10.1884l 4.53543, 4.20807l 4.53543, 1.42296l 4.53543, 0.39632l 4.53543, 0.111885h 58.9606" fill="none" stroke="#00ff00" stroke-width="2"/>
<path d="M281.697,309.844h 222.236" fill="none" stroke="#00ff00" stroke-width="2"/>
<path d="M503.933,309.844h 4.53543" fill="none" stroke="#00ff00" stroke-width="2"/>
<path d="M59.4606,309.844h 108.85l 4.53543, -0.0988581l 4.53543, -0.832872l 4.53543, -5.07889l 4.53543, -20.5293l 4.53543, -53.6705l 4.53543, -85.7152l 4.53543, -69.0091l 4.53543, 7.25096l 4.53543, 76.6521l 4.53543, 82.4584l 4.53543, 47.2628l
 4.53543, 16.7775l 4.53543, 3.873l 4.53543, 0.594201l 4.53543, 0.0657681h 45.3543" fill="none" stroke="#00ff00" stroke-width="2"/>
<path d="M281.697,309.844h 222.236" fill="none" stroke="#00ff00" stroke-width="2"/>
<path d="M503.933,309.844h 4.53543" fill="none" stroke="#00ff00" stroke-width="2"/>
<path d="M59.4606,309.844h 222.236" fill="none" stroke="#00ff00" stroke-width="2"/>
<path d="M281.697,309.844h 72.5669l 4.53543, -0.0472622l 4.53543, -0.191095l 4.53543, -0.735925l 4.53543, -2.25335l 4.53543, -5.43854l 4.53543, -10.1926l 4.53543, -14.4027l 4.53543, -14.2845l 4.53543, -7.53842l 4.53543, 3.36107l 4.53543, 12.3604l
 4.53543, 15.0839l 4.53543, 12.1418l 4.53543, 7.21965l 4.53543, 3.30273l 4.53543, 1.18504l 4.53543, 0.337067l 4.53543, 0.0927034h 68.0315" fill="none" stroke="#00ff00" stroke-width="2"/>
<path d="M503.933,309.844h 4.53543" fill="none" stroke="#00ff00" stroke-width="2"/>
<path d="M59.4606,309.844h 222.236" fill="none" stroke="#00ff00" stroke-width="2"/>
<path d="M281.697,309.844h 126.992l 4.53543, -0.0602588l 4.53543, -0.226426l 4.53543, -0.761808l 4.53543, -1.89933l 4.53543, -3.42328l 4.53543, -4.21421l 4.53543, -2.93445l 4.53543, 0.245495l 4.53543, 3.25518l 4.53543, 4.2058l 4.53543, 3.22036l
 4.53543, 1.70386l 4.53543, 0.654728l 4.53543, 0.186863l 4.53543, 0.0474854h 27.2126" fill="none" stroke="#00ff00" stroke-width="2"/>
<path d="M503.933,309.844h 4.53543" fill="none" stroke="#00ff00" stroke-width="2"/>
<text x="197.226" y="16.99" fill="black" font-size="17.2357" font-family="Helvetica">
vsBiasVoltage/250.Spe
</text></svg>
