<?xml version="1.0" standalone="no"?>
<svg width="567.429" height="357.948" viewBox="0 0 567.429 357.948" xmlns="http://www.w3.org/2000/svg">
<title>
/home/ADF/hyw543/XRay/Resolution/250.svg
</title>
<desc>
Creator: ROOT Version 6.06/08
CreationDate: Fri Mar  1 15:46:41 2019</desc>
<defs>
</defs>
<rect x="0.5" y="0" width="566.929" height="357.448" fill="white"/>
<rect x="57.1929" y="35.7448" width="453.543" height="285.958" fill="white"/>
<rect x="57.1929" y="35.7448" width="453.543" height="285.958" fill="none" stroke="black"/>
<rect x="57.1929" y="35.7448" width="453.543" height="285.958" fill="white"/>
<rect x="57.1929" y="35.7448" width="453.543" height="285.958" fill="none" stroke="black"/>
<path d="M57.1929,316.408h 1.14821v -0.649082h 1.14821v 0.649082h 1.14821v -0.444109h 1.14821v -0.0341622h 1.14821v 1.12735h 1.14821v -1.09319h 1.14821v -0.30746h 1.14821v -0.61492h 1.14821v 0.580758h 1.14821v -0.239136h 1.14821v 0.717407h 1.14821v
 -1.60563h 1.14821v 1.02487h 2.29642v -0.0341622h 1.14821v -0.204973h 1.14821v 0.102487h 1.14821v -0.0341622h 1.14821v 0.273298h 1.14821v -0.956543h 1.14821v -0.204973h 1.14821v 0.956543h 1.14821v -0.0683245h 1.14821v 0.136649h 1.14821v -0.683245h
 1.14821v -0.717407h 1.14821v -0.136649h 1.14821v 1.22984h 1.14821v -0.170811h 1.14821v -0.649082h 1.14821v -1.33233h 1.14821v 1.74227h 1.14821v -0.0683245h 1.14821v -0.854056h 1.14821v 0.819894h 1.14821v -1.22984h 1.14821v -0.273298h 1.14821v
 0.819894h 1.14821v -0.375785h 1.14821v -0.92238h 1.14821v -0.61492h 1.14821v 0.546596h 1.14821v -0.102487h 1.14821v 0.170811h 1.14821v -1.29816h 1.14821v 0.444109h 2.29642v -0.990705h 1.14821v -0.409947h 1.14821v 0.341622h 1.14821v -0.0683245h
 1.14821v 0.239136h 1.14821v -0.61492h 1.14821v -0.990705h 1.14821v 0.204973h 1.14821v -0.512434h 1.14821v -0.375785h 1.14821v -0.61492h 1.14821v 1.16152h 1.14821v -0.854056h 1.14821v 0.273298h 1.14821v -1.46898h 1.14821v 0.0683245h 1.14821v
 -1.09319h 1.14821v 0.273298h 1.14821v -0.888218h 1.14821v -0.512434h 1.14821v 1.36649h 1.14821v -0.649082h 1.14821v -0.956543h 1.14821v -0.512434h 1.14821v 0.444109h 1.14821v -2.49384h 1.14821v 0.717407h 1.14821v -1.5373h 1.14821v -1.40065h 1.14821v
 0.170811h 1.14821v -1.02487h 1.14821v -0.0341622h 1.14821v -1.5373h 1.14821v -1.50314h 1.14821v -0.0341622h 1.14821v -2.97211h 1.14821v -2.45968h 1.14821v -4.95352h 1.14821v -5.53428h 1.14821v -3.00628h 1.14821v -7.78899h 1.14821v -8.13061h 1.14821v
 -10.112h 1.14821v -6.55915h 1.14821v -13.3233h 1.14821v -8.71137h 1.14821v -16.3979h 1.14821v -11.7518h 1.14821v -13.2208h 1.14821v -6.93493h 1.14821v -10.1462h 1.14821v -8.36975h 1.14821v -6.49082h 1.14821v 1.98141h 1.14821v -1.63979h 1.14821v
 2.11806h 1.14821v 1.09319h 1.14821v 9.01883h 1.14821v 7.10574h 1.14821v 7.58402h 1.14821v 10.7269h 1.14821v 4.50941h 1.14821v 4.54358h 1.14821v 5.05601h 1.14821v -2.93795h 1.14821v -4.95352h 1.14821v -8.16477h 1.14821v -11.0686h 1.14821v -10.0779h
 1.14821v -14.9972h 1.14821v -16.842h 1.14821v -14.3823h 1.14821v -22.9229h 1.14821v -10.7269h 1.14821v -14.5873h 1.14821v -9.08715h 1.14821v -11.1369h 1.14821v 2.25471h 1.14821v 1.02487h 1.14821v 13.1866h 1.14821v 9.80456h 1.14821v 9.01883h 1.14821v
 19.37h 1.14821v 20.5315h 1.14821v 22.5471h 1.14821v 22.2396h 1.14821v 19.8824h 1.14821v 18.6526h 1.14821v 20.3265h 1.14821v 17.9352h 1.14821v 13.4941h 1.14821v 9.53126h 1.14821v 10.5903h 1.14821v 7.27656h 1.14821v 8.02812h 1.14821v 6.49082h 1.14821v
 4.50941h 1.14821v 2.15222h 1.14821v 3.0746h 1.14821v 1.70811h 1.14821v 1.8106h 1.14821v 1.19568h 1.14821v 0.444109h 1.14821v 0.956543h 1.14821v 0.61492h 1.14821v -0.273298h 1.14821v 0.30746h 1.14821v 0.546596h 2.29642v 0.683245h 1.14821v -1.12735h
 1.14821v 0.854056h 1.14821v -0.239136h 1.14821v 0.30746h 1.14821v 0.444109h 1.14821v -0.30746h 1.14821v 0.102487h 1.14821v 0.136649h 1.14821v 0.204973h 1.14821v -0.649082h 1.14821v 0.478271h 1.14821v -0.136649h 1.14821v -0.239136h 1.14821v 0.204973h
 1.14821v 0.649082h 1.14821v -0.512434h 1.14821v -0.102487h 1.14821v 0.102487h 1.14821v 0.136649h 1.14821v -0.273298h 1.14821v 0.273298h 1.14821v 0.0341622h 2.29642v 0.136649h 1.14821v 0.102487h 1.14821v -0.717407h 1.14821v 0.683245h 1.14821v
 -0.239136h 1.14821v 0.0683245h 1.14821v -0.0683245h 1.14821v -0.136649h 1.14821v 0.478271h 1.14821v -0.683245h 1.14821v 0.409947h 1.14821v -0.170811h 1.14821v -0.0341622h 1.14821v -0.0683245h 1.14821v 0.409947h 1.14821v -0.239136h 1.14821v
 -0.0683245h 1.14821v 0.273298h 1.14821v -0.341622h 1.14821v 0.102487h 1.14821v 0.61492h 1.14821v -0.751569h 1.14821v -0.204973h 1.14821v 0.512434h 1.14821v -0.649082h 1.14821v 0.30746h 1.14821v 0.204973h 1.14821v -0.170811h 1.14821v -0.30746h
 1.14821v 0.102487h 1.14821v 0.61492h 1.14821v -0.717407h 1.14821v 0.204973h 1.14821v 0.136649h 1.14821v 0.239136h 1.14821v -0.409947h 1.14821v 0.239136h 1.14821v -0.546596h 1.14821v 0.649082h 1.14821v -0.409947h 1.14821v 0.273298h 1.14821v
 -0.0683245h 1.14821v 0.0683245h 1.14821v -0.512434h 1.14821v 0.478271h 1.14821v -0.717407h 1.14821v 0.785731h 1.14821v -0.751569h 1.14821v 0.170811h 1.14821v 0.375785h 1.14821v 0.0341622h 2.29642v -0.512434h 1.14821v 0.136649h 1.14821v -0.0683245h
 1.14821v 0.546596h 1.14821v -0.580758h 1.14821v 0.512434h 1.14821v -0.717407h 1.14821v 0.0683245h 1.14821v 0.444109h 1.14821v -0.409947h 1.14821v -0.751569h 1.14821v 0.409947h 1.14821v -0.0683245h 1.14821v 0.170811h 1.14821v -0.854056h 1.14821v
 0.273298h 1.14821v -0.273298h 1.14821v 0.444109h 1.14821v 0.61492h 1.14821v -1.33233h 1.14821v 0.375785h 1.14821v -0.102487h 1.14821v -0.61492h 1.14821v -0.239136h 1.14821v -0.0683245h 1.14821v 0.375785h 1.14821v 0.0341622h 1.14821v 0.170811h
 1.14821v -0.30746h 1.14821v -0.0341622h 1.14821v -0.341622h 1.14821v 0.170811h 1.14821v 0.512434h 1.14821v 0.170811h 1.14821v -0.854056h 1.14821v -0.30746h 1.14821v 0.239136h 1.14821v 0.478271h 1.14821v -0.273298h 1.14821v -0.444109h 1.14821v
 0.0683245h 1.14821v -0.785731h 1.14821v 1.19568h 1.14821v -0.546596h 1.14821v -0.409947h 1.14821v -0.683245h 1.14821v 0.341622h 1.14821v -0.409947h 1.14821v 0.204973h 1.14821v 0.239136h 1.14821v 0.0341622h 1.14821v -0.273298h 1.14821v 0.204973h
 1.14821v -0.819894h 1.14821v 0.136649h 1.14821v -0.819894h 1.14821v 0.478271h 1.14821v 0.990705h 1.14821v -1.22984h 1.14821v 0.204973h 1.14821v -1.05903h 1.14821v -0.751569h 1.14821v -0.341622h 1.14821v -0.751569h 1.14821v -0.61492h 1.14821v
 -2.28887h 1.14821v -1.63979h 1.14821v -2.0839h 1.14821v -1.94725h 1.14821v -2.69882h 1.14821v -4.50941h 1.14821v -3.79201h 1.14821v -5.02185h 1.14821v -1.98141h 1.14821v -1.19568h 1.14821v -8.2331h 1.14821v -1.8106h 1.14821v -2.90379h 1.14821v
 -5.80758h 1.14821v -2.42552h 1.14821v -1.16152h 1.14821v -1.60563h 1.14821v -2.8013h 1.14821v 1.40065h 1.14821v 3.04044h 1.14821v 0.0341622h 1.14821v 4.16779h 1.14821v 3.89449h 1.14821v 2.56217h 1.14821v 4.78271h 1.14821v 3.75785h 1.14821v 4.98769h
 1.14821v 3.68952h 1.14821v 4.81687h 1.14821v 3.86033h 1.14821v 3.27957h 1.14821v 3.17709h 1.14821v 1.77644h 1.14821v 2.66465h 1.14821v 3.68952h 1.14821v -0.204973h 1.14821v 2.28887h 1.14821v 0.649082h 1.14821v 0.341622h 1.14821v 1.05903h 1.14821v
 0.92238h 1.14821v -0.170811h 1.14821v 0.444109h 1.14821v -0.409947h 1.14821v 0.204973h 1.14821v 0.0341622h 1.14821v 0.0341622h 1.14821v -0.61492h 1.14821v -0.409947h 1.14821v -0.512434h 1.14821v -0.683245h 1.14821v -1.63979h 1.14821v -0.170811h
 1.14821v -2.22055h 1.14821v 0.785731h 1.14821v -1.46898h 1.14821v -1.16152h 1.14821v -2.0839h 1.14821v 0.204973h 1.14821v -0.854056h 1.14821v -1.29816h 1.14821v 0.92238h 1.14821v -1.19568h 1.14821v -0.136649h 1.14821v 0.751569h 1.14821v 1.09319h
 1.14821v 1.19568h 1.14821v 0.546596h 1.14821v 0.819894h 1.14821v 0.170811h 1.14821v 1.43481h 1.14821v 0.649082h 1.14821v 1.94725h 1.14821v 0.649082h 1.14821v 0.956543h 1.14821v 1.5373h 1.14821v -0.204973h 1.14821v 1.12735h 1.14821v -0.102487h
 1.14821v 1.09319h 1.14821v 0.0683245h 1.14821v 0.478271h 1.14821v 0.341622h 1.14821v 0.341622h 1.14821v 0.170811h 1.14821v 0.30746h 1.14821v 0.239136h 1.14821v 0.136649h 1.14821v 0.30746h 1.14821v -0.239136h 1.14821v 0.30746h 1.14821v -0.239136h
 1.14821v -0.0341622h 1.14821v 0.170811h 1.14821v 0.0341622h 1.14821v -0.512434h 1.14821v 0.512434h 1.14821" fill="none" stroke="#ff0000" stroke-width="2"/>
<path d="M59.4606,314.876l 4.53543, 0.0661668l 4.53543, 0.0661668l 4.53543, 0.0661668l 4.53543, 0.0661668l 4.53543, 0.0661668l 4.53543, 0.0661668l 4.53543, 0.0661668l 4.53543, 0.0661668l 4.53543, 0.0661668l 4.53543, 0.066166l 4.53543, 0.0661584l
 4.53543, 0.0660904l 4.53543, 0.0655759l 4.53543, 0.062292l 4.53543, 0.0446307l 4.53543, -0.0351623l 4.53543, -0.336725l 4.53543, -1.28432l 4.53543, -3.73716l 4.53543, -8.88821l 4.53543, -17.4201l 4.53543, -27.8843l 4.53543, -35.5947l 4.53543,
 -34.2413l 4.53543, -20.7163l 4.53543, 0.0369351l 4.53543, 14.586l 4.53543, 7.37484l 4.53543, -24.749l 4.53543, -56.8584l 4.53543, -47.8473l 4.53543, 9.99832l 4.53543, 69.5177l 4.53543, 83.7665l 4.53543, 58.1164l 4.53543, 26.7646l 4.53543, 8.60936l
 4.53543, 2.01048l 4.53543, 0.384628l 4.53543, 0.103971l 4.53543, 0.0694338l 4.53543, 0.066373l 4.53543, 0.0661764l 4.53543, 0.0661672l 4.53543, 0.0661668l 4.53543, 0.0661668l 4.53543, 0.0661668l 4.53543, 0.0661668l 4.53543, 0.0661668" fill="none"
 stroke="#0000ff" stroke-width="2"/>
<path d="M281.697,318.118l 4.53543, 0.0661668l 4.53543, 0.0661668l 4.53543, 0.0661668l 4.53543, 0.0661668l 4.53543, 0.0661668l 4.53543, 0.0661668l 4.53543, 0.0661668l 4.53543, 0.0661668l 4.53543, 0.0661668l 4.53543, 0.0661668l 4.53543, 0.0661668l
 4.53543, 0.0661668l 4.53543, 0.0661668l 4.53543, 0.0661668l 4.53543, 0.0661668l 4.53543, 0.0661663l 4.53543, 0.0661605l 4.53543, 0.0661039l 4.53543, 0.0656488l 4.53543, 0.0626264l 4.53543, 0.0461011l 4.53543, -0.0279688l 4.53543, -0.298477l 4.53543,
 -1.09598l 4.53543, -2.96514l 4.53543, -6.35106l 4.53543, -10.8025l 4.53543, -14.2565l 4.53543, -13.6775l 4.53543, -7.46968l 4.53543, 2.35486l 4.53543, 11.0458l 4.53543, 14.7339l 4.53543, 13.1317l 4.53543, 8.79562l 4.53543, 4.42897l 4.53543, 1.1678l
 4.53543, -1.17174l 4.53543, -2.92256l 4.53543, -3.78961l 4.53543, -3.11176l 4.53543, -0.84112l 4.53543, 1.9314l 4.53543, 3.71106l 4.53543, 3.83801l 4.53543, 2.82105l 4.53543, 1.5941l 4.53543, 0.729224l 4.53543, 0.294745" fill="none" stroke="#0000ff"
 stroke-width="2"/>
<path d="M503.933,321.28l 4.53543, 0.129314" fill="none" stroke="#0000ff" stroke-width="2"/>
<rect x="351.996" y="23.2341" width="204.094" height="228.767" fill="white"/>
<path d="M351.996,252.001h 204.094" fill="none" stroke="black" stroke-width="2"/>
<path d="M556.091,252.001v -228.767" fill="none" stroke="black" stroke-width="2"/>
<path d="M556.091,23.2341h -204.094" fill="none" stroke="black" stroke-width="2"/>
<path d="M351.996,23.2341v 228.767" fill="none" stroke="black" stroke-width="2"/>
<text x="372.911" y="34.9135" fill="black" font-size="11.6995" font-family="Helvetica">
 / ndf 
</text>
<text x="368.755" y="30.7572" fill="black" font-size="7.96634" font-family="Helvetica">
2
</text>
<text x="362.104" y="34.9135" fill="black" font-size="11.6995" font-family="Times">
&#0967;
</text>
<text x="487.627" y="35.7448" fill="black" font-size="11.6995" font-family="Helvetica">
  9912 / 381
</text>
<text x="362.104" y="50.7077" fill="black" font-size="11.6995" font-family="Helvetica">
1-Centroid 
</text>
<text x="529.19" y="49.8765" fill="black" font-size="11.6995" font-family="Helvetica">
 0.1
</text>
<text x="522.54" y="49.8765" fill="black" font-size="11.6995" font-family="Times">
&#0177;
</text>
<text x="488.458" y="49.8765" fill="black" font-size="11.6995" font-family="Helvetica">
  1422 
</text>
<text x="362.104" y="65.6707" fill="black" font-size="11.6995" font-family="Helvetica">
1-FWHM   
</text>
<text x="520.878" y="64.8394" fill="black" font-size="11.6995" font-family="Helvetica">
 0.18
</text>
<text x="514.228" y="64.8394" fill="black" font-size="11.6995" font-family="Times">
&#0177;
</text>
<text x="481.808" y="64.8394" fill="black" font-size="11.6995" font-family="Helvetica">
 23.21 
</text>
<text x="362.104" y="81.4649" fill="black" font-size="11.6995" font-family="Helvetica">
1-Counts 
</text>
<text x="488.458" y="80.6336" fill="black" font-size="11.6995" font-family="Helvetica">
 7.285e+02
</text>
<text x="481.808" y="80.6336" fill="black" font-size="11.6995" font-family="Times">
&#0177;
</text>
<text x="421.956" y="80.6336" fill="black" font-size="11.6995" font-family="Helvetica">
 1.105e+05 
</text>
<text x="362.104" y="96.4278" fill="black" font-size="11.6995" font-family="Helvetica">
2-Centroid 
</text>
<text x="527.528" y="95.5966" fill="black" font-size="11.6995" font-family="Helvetica">
 0.0
</text>
<text x="520.878" y="95.5966" fill="black" font-size="11.6995" font-family="Times">
&#0177;
</text>
<text x="486.796" y="95.5966" fill="black" font-size="11.6995" font-family="Helvetica">
  1446 
</text>
<text x="362.104" y="111.391" fill="black" font-size="11.6995" font-family="Helvetica">
2-FWHM   
</text>
<text x="520.878" y="110.559" fill="black" font-size="11.6995" font-family="Helvetica">
 0.07
</text>
<text x="514.228" y="110.559" fill="black" font-size="11.6995" font-family="Times">
&#0177;
</text>
<text x="480.145" y="110.559" fill="black" font-size="11.6995" font-family="Helvetica">
 16.72 
</text>
<text x="362.104" y="127.185" fill="black" font-size="11.6995" font-family="Helvetica">
2-Counts 
</text>
<text x="495.108" y="126.354" fill="black" font-size="11.6995" font-family="Helvetica">
 7.28e+02
</text>
<text x="488.458" y="126.354" fill="black" font-size="11.6995" font-family="Times">
&#0177;
</text>
<text x="435.257" y="126.354" fill="black" font-size="11.6995" font-family="Helvetica">
 1.33e+05 
</text>
<text x="362.104" y="142.148" fill="black" font-size="11.6995" font-family="Helvetica">
3-Centroid 
</text>
<text x="529.19" y="141.317" fill="black" font-size="11.6995" font-family="Helvetica">
 0.1
</text>
<text x="522.54" y="141.317" fill="black" font-size="11.6995" font-family="Times">
&#0177;
</text>
<text x="488.458" y="141.317" fill="black" font-size="11.6995" font-family="Helvetica">
  1635 
</text>
<text x="362.104" y="157.111" fill="black" font-size="11.6995" font-family="Helvetica">
3-FWHM   
</text>
<text x="522.54" y="156.28" fill="black" font-size="11.6995" font-family="Helvetica">
 0.11
</text>
<text x="515.89" y="156.28" fill="black" font-size="11.6995" font-family="Times">
&#0177;
</text>
<text x="481.808" y="156.28" fill="black" font-size="11.6995" font-family="Helvetica">
 21.83 
</text>
<text x="362.104" y="172.905" fill="black" font-size="11.6995" font-family="Helvetica">
3-Counts 
</text>
<text x="495.108" y="172.074" fill="black" font-size="11.6995" font-family="Helvetica">
 2.09e+02
</text>
<text x="488.458" y="172.074" fill="black" font-size="11.6995" font-family="Times">
&#0177;
</text>
<text x="434.425" y="172.074" fill="black" font-size="11.6995" font-family="Helvetica">
 3.95e+04 
</text>
<text x="362.104" y="187.868" fill="black" font-size="11.6995" font-family="Helvetica">
4-Centroid 
</text>
<text x="529.19" y="187.037" fill="black" font-size="11.6995" font-family="Helvetica">
 0.1
</text>
<text x="522.54" y="187.037" fill="black" font-size="11.6995" font-family="Times">
&#0177;
</text>
<text x="490.121" y="187.037" fill="black" font-size="11.6995" font-family="Helvetica">
  1681 
</text>
<text x="362.104" y="202.831" fill="black" font-size="11.6995" font-family="Helvetica">
4-FWHM   
</text>
<text x="520.878" y="202" fill="black" font-size="11.6995" font-family="Helvetica">
 0.25
</text>
<text x="514.228" y="202" fill="black" font-size="11.6995" font-family="Times">
&#0177;
</text>
<text x="480.145" y="202" fill="black" font-size="11.6995" font-family="Helvetica">
 20.66 
</text>
<text x="362.104" y="218.625" fill="black" font-size="11.6995" font-family="Helvetica">
4-Counts 
</text>
<text x="514.228" y="217.794" fill="black" font-size="11.6995" font-family="Helvetica">
 115.9
</text>
<text x="507.577" y="217.794" fill="black" font-size="11.6995" font-family="Times">
&#0177;
</text>
<text x="473.495" y="217.794" fill="black" font-size="11.6995" font-family="Helvetica">
  9408 
</text>
<text x="362.104" y="231.926" fill="black" font-size="11.6995" font-family="Helvetica">
Intercept 
</text>
<text x="527.528" y="232.757" fill="black" font-size="11.6995" font-family="Helvetica">
 9.0
</text>
<text x="520.878" y="232.757" fill="black" font-size="11.6995" font-family="Times">
&#0177;
</text>
<text x="488.458" y="232.757" fill="black" font-size="11.6995" font-family="Helvetica">
 848.1 
</text>
<text x="362.104" y="246.889" fill="black" font-size="11.6995" font-family="Helvetica">
Slope    
</text>
<text x="507.577" y="247.72" fill="black" font-size="11.6995" font-family="Helvetica">
 0.0058
</text>
<text x="500.927" y="247.72" fill="black" font-size="11.6995" font-family="Times">
&#0177;
</text>
<text x="463.52" y="247.72" fill="black" font-size="11.6995" font-family="Helvetica">
0.4903 
</text>
<text x="456.87" y="247.72" fill="black" font-size="11.6995" font-family="Times">
&#8722;
</text>
<text x="454.376" y="247.72" fill="black" font-size="11.6995" font-family="Helvetica">
 
</text>
<path d="M57.1929,321.703h 453.543" fill="none" stroke="black" stroke-width="2"/>
<text x="462.689" y="346.641" fill="black" font-size="11.9777" font-family="Helvetica">
Channels
</text>
<path d="M149.05,313.124v 8.57875" fill="none" stroke="black" stroke-width="2"/>
<path d="M172.014,317.414v 4.28938" fill="none" stroke="black" stroke-width="2"/>
<path d="M194.978,317.414v 4.28938" fill="none" stroke="black" stroke-width="2"/>
<path d="M217.942,317.414v 4.28938" fill="none" stroke="black" stroke-width="2"/>
<path d="M240.907,317.414v 4.28938" fill="none" stroke="black" stroke-width="2"/>
<path d="M263.871,313.124v 8.57875" fill="none" stroke="black" stroke-width="2"/>
<path d="M286.835,317.414v 4.28938" fill="none" stroke="black" stroke-width="2"/>
<path d="M309.799,317.414v 4.28938" fill="none" stroke="black" stroke-width="2"/>
<path d="M332.764,317.414v 4.28938" fill="none" stroke="black" stroke-width="2"/>
<path d="M355.728,317.414v 4.28938" fill="none" stroke="black" stroke-width="2"/>
<path d="M378.692,313.124v 8.57875" fill="none" stroke="black" stroke-width="2"/>
<path d="M401.656,317.414v 4.28938" fill="none" stroke="black" stroke-width="2"/>
<path d="M424.62,317.414v 4.28938" fill="none" stroke="black" stroke-width="2"/>
<path d="M447.585,317.414v 4.28938" fill="none" stroke="black" stroke-width="2"/>
<path d="M470.549,317.414v 4.28938" fill="none" stroke="black" stroke-width="2"/>
<path d="M493.513,313.124v 8.57875" fill="none" stroke="black" stroke-width="2"/>
<path d="M149.05,313.124v 8.57875" fill="none" stroke="black" stroke-width="2"/>
<path d="M126.086,317.414v 4.28938" fill="none" stroke="black" stroke-width="2"/>
<path d="M103.121,317.414v 4.28938" fill="none" stroke="black" stroke-width="2"/>
<path d="M80.1571,317.414v 4.28938" fill="none" stroke="black" stroke-width="2"/>
<path d="M57.1929,317.414v 4.28938" fill="none" stroke="black" stroke-width="2"/>
<path d="M493.513,313.124v 8.57875" fill="none" stroke="black" stroke-width="2"/>
<text x="135.166" y="333.341" fill="black" font-size="11.9777" font-family="Helvetica">
1400
</text>
<text x="249.882" y="333.341" fill="black" font-size="11.9777" font-family="Helvetica">
1500
</text>
<text x="364.598" y="333.341" fill="black" font-size="11.9777" font-family="Helvetica">
1600
</text>
<text x="480.145" y="333.341" fill="black" font-size="11.9777" font-family="Helvetica">
1700
</text>
<path d="M57.1929,321.703v -285.958" fill="none" stroke="black" stroke-width="2"/>
<path d="M70.7992,321.703h -13.6063" fill="none" stroke="black" stroke-width="2"/>
<path d="M63.9961,314.871h -6.80315" fill="none" stroke="black" stroke-width="2"/>
<path d="M63.9961,308.038h -6.80315" fill="none" stroke="black" stroke-width="2"/>
<path d="M63.9961,301.206h -6.80315" fill="none" stroke="black" stroke-width="2"/>
<path d="M63.9961,294.373h -6.80315" fill="none" stroke="black" stroke-width="2"/>
<path d="M70.7992,287.541h -13.6063" fill="none" stroke="black" stroke-width="2"/>
<path d="M63.9961,280.709h -6.80315" fill="none" stroke="black" stroke-width="2"/>
<path d="M63.9961,273.876h -6.80315" fill="none" stroke="black" stroke-width="2"/>
<path d="M63.9961,267.044h -6.80315" fill="none" stroke="black" stroke-width="2"/>
<path d="M63.9961,260.211h -6.80315" fill="none" stroke="black" stroke-width="2"/>
<path d="M70.7992,253.379h -13.6063" fill="none" stroke="black" stroke-width="2"/>
<path d="M63.9961,246.546h -6.80315" fill="none" stroke="black" stroke-width="2"/>
<path d="M63.9961,239.714h -6.80315" fill="none" stroke="black" stroke-width="2"/>
<path d="M63.9961,232.881h -6.80315" fill="none" stroke="black" stroke-width="2"/>
<path d="M63.9961,226.049h -6.80315" fill="none" stroke="black" stroke-width="2"/>
<path d="M70.7992,219.216h -13.6063" fill="none" stroke="black" stroke-width="2"/>
<path d="M63.9961,212.384h -6.80315" fill="none" stroke="black" stroke-width="2"/>
<path d="M63.9961,205.552h -6.80315" fill="none" stroke="black" stroke-width="2"/>
<path d="M63.9961,198.719h -6.80315" fill="none" stroke="black" stroke-width="2"/>
<path d="M63.9961,191.887h -6.80315" fill="none" stroke="black" stroke-width="2"/>
<path d="M70.7992,185.054h -13.6063" fill="none" stroke="black" stroke-width="2"/>
<path d="M63.9961,178.222h -6.80315" fill="none" stroke="black" stroke-width="2"/>
<path d="M63.9961,171.389h -6.80315" fill="none" stroke="black" stroke-width="2"/>
<path d="M63.9961,164.557h -6.80315" fill="none" stroke="black" stroke-width="2"/>
<path d="M63.9961,157.724h -6.80315" fill="none" stroke="black" stroke-width="2"/>
<path d="M70.7992,150.892h -13.6063" fill="none" stroke="black" stroke-width="2"/>
<path d="M63.9961,144.06h -6.80315" fill="none" stroke="black" stroke-width="2"/>
<path d="M63.9961,137.227h -6.80315" fill="none" stroke="black" stroke-width="2"/>
<path d="M63.9961,130.395h -6.80315" fill="none" stroke="black" stroke-width="2"/>
<path d="M63.9961,123.562h -6.80315" fill="none" stroke="black" stroke-width="2"/>
<path d="M70.7992,116.73h -13.6063" fill="none" stroke="black" stroke-width="2"/>
<path d="M63.9961,109.897h -6.80315" fill="none" stroke="black" stroke-width="2"/>
<path d="M63.9961,103.065h -6.80315" fill="none" stroke="black" stroke-width="2"/>
<path d="M63.9961,96.2325h -6.80315" fill="none" stroke="black" stroke-width="2"/>
<path d="M63.9961,89.4h -6.80315" fill="none" stroke="black" stroke-width="2"/>
<path d="M70.7992,82.5676h -13.6063" fill="none" stroke="black" stroke-width="2"/>
<path d="M63.9961,75.7351h -6.80315" fill="none" stroke="black" stroke-width="2"/>
<path d="M63.9961,68.9027h -6.80315" fill="none" stroke="black" stroke-width="2"/>
<path d="M63.9961,62.0702h -6.80315" fill="none" stroke="black" stroke-width="2"/>
<path d="M63.9961,55.2378h -6.80315" fill="none" stroke="black" stroke-width="2"/>
<path d="M70.7992,48.4053h -13.6063" fill="none" stroke="black" stroke-width="2"/>
<path d="M70.7992,48.4053h -13.6063" fill="none" stroke="black" stroke-width="2"/>
<path d="M63.9961,41.5729h -6.80315" fill="none" stroke="black" stroke-width="2"/>
<text x="47.0514" y="325.86" fill="black" font-size="11.9777" font-family="Helvetica">
0
</text>
<text x="27.9321" y="290.946" fill="black" font-size="11.9777" font-family="Helvetica">
1000
</text>
<text x="27.9321" y="256.864" fill="black" font-size="11.9777" font-family="Helvetica">
2000
</text>
<text x="27.9321" y="222.782" fill="black" font-size="11.9777" font-family="Helvetica">
3000
</text>
<text x="27.9321" y="188.699" fill="black" font-size="11.9777" font-family="Helvetica">
4000
</text>
<text x="27.9321" y="154.617" fill="black" font-size="11.9777" font-family="Helvetica">
5000
</text>
<text x="27.9321" y="120.535" fill="black" font-size="11.9777" font-family="Helvetica">
6000
</text>
<text x="27.9321" y="86.4525" fill="black" font-size="11.9777" font-family="Helvetica">
7000
</text>
<text x="27.9321" y="52.3703" fill="black" font-size="11.9777" font-family="Helvetica">
8000
</text>
<rect x="351.996" y="23.2341" width="204.094" height="228.767" fill="white"/>
<path d="M351.996,252.001h 204.094" fill="none" stroke="black" stroke-width="2"/>
<path d="M556.091,252.001v -228.767" fill="none" stroke="black" stroke-width="2"/>
<path d="M556.091,23.2341h -204.094" fill="none" stroke="black" stroke-width="2"/>
<path d="M351.996,23.2341v 228.767" fill="none" stroke="black" stroke-width="2"/>
<text x="372.911" y="34.9135" fill="black" font-size="11.6995" font-family="Helvetica">
 / ndf 
</text>
<text x="368.755" y="30.7572" fill="black" font-size="7.96634" font-family="Helvetica">
2
</text>
<text x="362.104" y="34.9135" fill="black" font-size="11.6995" font-family="Times">
&#0967;
</text>
<text x="487.627" y="35.7448" fill="black" font-size="11.6995" font-family="Helvetica">
  9912 / 381
</text>
<text x="362.104" y="50.7077" fill="black" font-size="11.6995" font-family="Helvetica">
1-Centroid 
</text>
<text x="529.19" y="49.8765" fill="black" font-size="11.6995" font-family="Helvetica">
 0.1
</text>
<text x="522.54" y="49.8765" fill="black" font-size="11.6995" font-family="Times">
&#0177;
</text>
<text x="488.458" y="49.8765" fill="black" font-size="11.6995" font-family="Helvetica">
  1422 
</text>
<text x="362.104" y="65.6707" fill="black" font-size="11.6995" font-family="Helvetica">
1-FWHM   
</text>
<text x="520.878" y="64.8394" fill="black" font-size="11.6995" font-family="Helvetica">
 0.18
</text>
<text x="514.228" y="64.8394" fill="black" font-size="11.6995" font-family="Times">
&#0177;
</text>
<text x="481.808" y="64.8394" fill="black" font-size="11.6995" font-family="Helvetica">
 23.21 
</text>
<text x="362.104" y="81.4649" fill="black" font-size="11.6995" font-family="Helvetica">
1-Counts 
</text>
<text x="488.458" y="80.6336" fill="black" font-size="11.6995" font-family="Helvetica">
 7.285e+02
</text>
<text x="481.808" y="80.6336" fill="black" font-size="11.6995" font-family="Times">
&#0177;
</text>
<text x="421.956" y="80.6336" fill="black" font-size="11.6995" font-family="Helvetica">
 1.105e+05 
</text>
<text x="362.104" y="96.4278" fill="black" font-size="11.6995" font-family="Helvetica">
2-Centroid 
</text>
<text x="527.528" y="95.5966" fill="black" font-size="11.6995" font-family="Helvetica">
 0.0
</text>
<text x="520.878" y="95.5966" fill="black" font-size="11.6995" font-family="Times">
&#0177;
</text>
<text x="486.796" y="95.5966" fill="black" font-size="11.6995" font-family="Helvetica">
  1446 
</text>
<text x="362.104" y="111.391" fill="black" font-size="11.6995" font-family="Helvetica">
2-FWHM   
</text>
<text x="520.878" y="110.559" fill="black" font-size="11.6995" font-family="Helvetica">
 0.07
</text>
<text x="514.228" y="110.559" fill="black" font-size="11.6995" font-family="Times">
&#0177;
</text>
<text x="480.145" y="110.559" fill="black" font-size="11.6995" font-family="Helvetica">
 16.72 
</text>
<text x="362.104" y="127.185" fill="black" font-size="11.6995" font-family="Helvetica">
2-Counts 
</text>
<text x="495.108" y="126.354" fill="black" font-size="11.6995" font-family="Helvetica">
 7.28e+02
</text>
<text x="488.458" y="126.354" fill="black" font-size="11.6995" font-family="Times">
&#0177;
</text>
<text x="435.257" y="126.354" fill="black" font-size="11.6995" font-family="Helvetica">
 1.33e+05 
</text>
<text x="362.104" y="142.148" fill="black" font-size="11.6995" font-family="Helvetica">
3-Centroid 
</text>
<text x="529.19" y="141.317" fill="black" font-size="11.6995" font-family="Helvetica">
 0.1
</text>
<text x="522.54" y="141.317" fill="black" font-size="11.6995" font-family="Times">
&#0177;
</text>
<text x="488.458" y="141.317" fill="black" font-size="11.6995" font-family="Helvetica">
  1635 
</text>
<text x="362.104" y="157.111" fill="black" font-size="11.6995" font-family="Helvetica">
3-FWHM   
</text>
<text x="522.54" y="156.28" fill="black" font-size="11.6995" font-family="Helvetica">
 0.11
</text>
<text x="515.89" y="156.28" fill="black" font-size="11.6995" font-family="Times">
&#0177;
</text>
<text x="481.808" y="156.28" fill="black" font-size="11.6995" font-family="Helvetica">
 21.83 
</text>
<text x="362.104" y="172.905" fill="black" font-size="11.6995" font-family="Helvetica">
3-Counts 
</text>
<text x="495.108" y="172.074" fill="black" font-size="11.6995" font-family="Helvetica">
 2.09e+02
</text>
<text x="488.458" y="172.074" fill="black" font-size="11.6995" font-family="Times">
&#0177;
</text>
<text x="434.425" y="172.074" fill="black" font-size="11.6995" font-family="Helvetica">
 3.95e+04 
</text>
<text x="362.104" y="187.868" fill="black" font-size="11.6995" font-family="Helvetica">
4-Centroid 
</text>
<text x="529.19" y="187.037" fill="black" font-size="11.6995" font-family="Helvetica">
 0.1
</text>
<text x="522.54" y="187.037" fill="black" font-size="11.6995" font-family="Times">
&#0177;
</text>
<text x="490.121" y="187.037" fill="black" font-size="11.6995" font-family="Helvetica">
  1681 
</text>
<text x="362.104" y="202.831" fill="black" font-size="11.6995" font-family="Helvetica">
4-FWHM   
</text>
<text x="520.878" y="202" fill="black" font-size="11.6995" font-family="Helvetica">
 0.25
</text>
<text x="514.228" y="202" fill="black" font-size="11.6995" font-family="Times">
&#0177;
</text>
<text x="480.145" y="202" fill="black" font-size="11.6995" font-family="Helvetica">
 20.66 
</text>
<text x="362.104" y="218.625" fill="black" font-size="11.6995" font-family="Helvetica">
4-Counts 
</text>
<text x="514.228" y="217.794" fill="black" font-size="11.6995" font-family="Helvetica">
 115.9
</text>
<text x="507.577" y="217.794" fill="black" font-size="11.6995" font-family="Times">
&#0177;
</text>
<text x="473.495" y="217.794" fill="black" font-size="11.6995" font-family="Helvetica">
  9408 
</text>
<text x="362.104" y="231.926" fill="black" font-size="11.6995" font-family="Helvetica">
Intercept 
</text>
<text x="527.528" y="232.757" fill="black" font-size="11.6995" font-family="Helvetica">
 9.0
</text>
<text x="520.878" y="232.757" fill="black" font-size="11.6995" font-family="Times">
&#0177;
</text>
<text x="488.458" y="232.757" fill="black" font-size="11.6995" font-family="Helvetica">
 848.1 
</text>
<text x="362.104" y="246.889" fill="black" font-size="11.6995" font-family="Helvetica">
Slope    
</text>
<text x="507.577" y="247.72" fill="black" font-size="11.6995" font-family="Helvetica">
 0.0058
</text>
<text x="500.927" y="247.72" fill="black" font-size="11.6995" font-family="Times">
&#0177;
</text>
<text x="463.52" y="247.72" fill="black" font-size="11.6995" font-family="Helvetica">
0.4903 
</text>
<text x="456.87" y="247.72" fill="black" font-size="11.6995" font-family="Times">
&#8722;
</text>
<text x="454.376" y="247.72" fill="black" font-size="11.6995" font-family="Helvetica">
 
</text>
<path d="M59.4606,321.703h 68.0315l 4.53543, -0.127417l 4.53543, -0.402892l 4.53543, -1.35048l 4.53543, -3.80333l 4.53543, -8.95437l 4.53543, -17.4863l 4.53543, -27.9502l 4.53543, -35.6571l 4.53543, -34.2645l 4.53543, -20.4273l 4.53543, 2.0997l
 4.53543, 23.6957l 4.53543, 35.3939l 4.53543, 34.7894l 4.53543, 26.1381l 4.53543, 15.7658l 4.53543, 7.80653l 4.53543, 3.21155l 4.53543, 1.10565l 4.53543, 0.320035l 4.53543, 0.0975517h 58.9606" fill="none" stroke="#00ff00" stroke-width="2"/>
<path d="M281.697,321.703h 222.236" fill="none" stroke="#00ff00" stroke-width="2"/>
<path d="M503.933,321.703h 4.53543" fill="none" stroke="#00ff00" stroke-width="2"/>
<path d="M59.4606,321.703h 104.315l 4.53543, -0.0469565l 4.53543, -0.355197l 4.53543, -2.12894l 4.53543, -9.17583l 4.53543, -28.0852l 4.53543, -59.6046l 4.53543, -83.0626l 4.53543, -63.6793l 4.53543, 2.12562l 4.53543, 66.24l 4.53543, 82.5946l
 4.53543, 57.7302l 4.53543, 26.6203l 4.53543, 8.52707l 4.53543, 1.9415l 4.53543, 0.318044l 4.53543, 0.0412281h 40.8189" fill="none" stroke="#00ff00" stroke-width="2"/>
<path d="M281.697,321.703h 222.236" fill="none" stroke="#00ff00" stroke-width="2"/>
<path d="M503.933,321.703h 4.53543" fill="none" stroke="#00ff00" stroke-width="2"/>
<path d="M59.4606,321.703h 222.236" fill="none" stroke="#00ff00" stroke-width="2"/>
<path d="M281.697,321.703h 95.2441l 4.53543, -0.11833l 4.53543, -0.364644l 4.53543, -1.16214l 4.53543, -3.0313l 4.53543, -6.41722l 4.53543, -10.8687l 4.53543, -14.3226l 4.53543, -13.7437l 4.53543, -7.53583l 4.53543, 2.28879l 4.53543, 10.9804l
 4.53543, 14.6726l 4.53543, 13.0903l 4.53543, 8.8324l 4.53543, 4.70712l 4.53543, 2.02207l 4.53543, 0.708008l 4.53543, 0.203428l 4.53543, 0.0593672h 40.8189" fill="none" stroke="#00ff00" stroke-width="2"/>
<path d="M503.933,321.703h 4.53543" fill="none" stroke="#00ff00" stroke-width="2"/>
<path d="M59.4606,321.703h 222.236" fill="none" stroke="#00ff00" stroke-width="2"/>
<path d="M281.697,321.703h 149.669l 4.53543, -0.030433l 4.53543, -0.102945l 4.53543, -0.344318l 4.53543, -0.920436l 4.53543, -1.94592l 4.53543, -3.19216l 4.53543, -3.90395l 4.53543, -3.18736l 4.53543, -0.908816l 4.53543, 1.86503l 4.53543, 3.64487l
 4.53543, 3.77184l 4.53543, 2.75488l 4.53543, 1.52793l 4.53543, 0.663057l 4.53543, 0.228578" fill="none" stroke="#00ff00" stroke-width="2"/>
<path d="M503.933,321.623l 4.53543, 0.0801524" fill="none" stroke="#00ff00" stroke-width="2"/>
<text x="195.018" y="17.4568" fill="black" font-size="17.6136" font-family="Helvetica">
vsBiasVoltage/250.Spe
</text></svg>
