<?xml version="1.0" standalone="no"?>
<svg width="567.429" height="331.627" viewBox="0 0 567.429 331.627" xmlns="http://www.w3.org/2000/svg">
<title>
/home/ADF/hyw543/XRay/Resolution/260.svg
</title>
<desc>
Creator: ROOT Version 6.06/08
CreationDate: Fri Mar  1 16:05:16 2019</desc>
<defs>
</defs>
<rect x="0.5" y="0" width="566.929" height="331.127" fill="white"/>
<rect x="57.1929" y="33.1127" width="453.543" height="264.901" fill="white"/>
<rect x="57.1929" y="33.1127" width="453.543" height="264.901" fill="none" stroke="black"/>
<rect x="57.1929" y="33.1127" width="453.543" height="264.901" fill="white"/>
<rect x="57.1929" y="33.1127" width="453.543" height="264.901" fill="none" stroke="black"/>
<path d="M57.1929,288.672h 1.25984v -1.06226h 1.25984v -0.343673h 1.25984v 0.562374h 1.25984v -1.28096h 1.25984v 0.84356h 1.25984v -0.62486h 1.25984v 0.31243h 1.25984v -1.53091h 1.25984v -0.031243h 1.25984v 0.718588h 1.25984v -0.31243h 1.25984v
 -1.3122h 1.25984v 0.906046h 1.25984v -0.937289h 1.25984v -0.249944h 1.25984v -0.84356h 1.25984v 0.062486h 1.25984v -0.0937289h 1.25984v -0.562374h 1.25984v -0.749831h 1.25984v 0.0937289h 1.25984v -0.531131h 1.25984v 0.343673h 1.25984v -1.65588h
 1.25984v 1.03102h 1.25984v -2.56192h 1.25984v -0.562374h 1.25984v 0.0937289h 1.25984v -0.374916h 1.25984v -0.281187h 1.25984v -1.03102h 1.25984v -1.18723h 1.25984v -1.21848h 1.25984v -2.84311h 1.25984v -2.81187h 1.25984v -2.34322h 1.25984v -5.34255h
 1.25984v -4.84266h 1.25984v -4.4365h 1.25984v -9.90402h 1.25984v -7.65453h 1.25984v -7.87323h 1.25984v -8.81052h 1.25984v -12.1535h 1.25984v -9.27916h 1.25984v -10.5289h 1.25984v -12.8096h 1.25984v -10.7163h 1.25984v -5.81119h 1.25984v -7.52956h
 1.25984v -0.906046h 1.25984v -7.49831h 1.25984v 2.56192h 1.25984v 2.4682h 1.25984v 1.81209h 1.25984v 4.15532h 1.25984v 10.9663h 1.25984v 8.52933h 1.25984v 4.90515h 1.25984v 4.15532h 1.25984v 1.06226h 1.25984v 3.7804h 1.25984v 2.87435h 1.25984v
 -5.96741h 1.25984v -11.5287h 1.25984v -4.12407h 1.25984v -14.9029h 1.25984v -11.0913h 1.25984v -12.5597h 1.25984v -17.3711h 1.25984v -14.3405h 1.25984v -18.3084h 1.25984v -5.74871h 1.25984v -13.0283h 1.25984v -12.7784h 1.25984v 1.40593h 1.25984v
 9.02922h 1.25984v 2.9056h 1.25984v 10.4039h 1.25984v 11.1225h 1.25984v 18.4958h 1.25984v 19.8705h 1.25984v 20.0267h 1.25984v 18.8708h 1.25984v 19.2144h 1.25984v 17.1524h 1.25984v 17.3711h 1.25984v 13.0596h 1.25984v 15.2466h 1.25984v 7.37334h
 1.25984v 11.6536h 1.25984v 8.46685h 1.25984v 4.96763h 1.25984v 3.84289h 1.25984v 7.37334h 1.25984v 2.24949h 1.25984v 2.34322h 1.25984v 0.343673h 1.25984v 2.78062h 1.25984v 1.37469h 1.25984v 0.156215h 1.25984v 0.343673h 1.25984v 1.65588h 1.25984v
 -0.218701h 1.25984v -0.062486h 1.25984v 0.499888h 1.25984v -0.187458h 1.25984v 0.187458h 1.25984v 0.406159h 1.25984v 0.062486h 1.25984v 0.374916h 1.25984v -0.124972h 1.25984v -0.156215h 1.25984v 0.31243h 1.25984v -0.468645h 1.25984v 0.187458h
 2.51969v 0.31243h 1.25984v 0.124972h 1.25984v -0.281187h 1.25984v 0.0937289h 1.25984v 0.718588h 1.25984v -0.84356h 1.25984v 0.124972h 1.25984v 0.124972h 1.25984v -0.124972h 1.25984v 0.437402h 1.25984v -0.218701h 1.25984v 0.406159h 1.25984v -0.31243h
 1.25984v -0.437402h 1.25984v 0.62486h 1.25984v -0.499888h 1.25984v 0.343673h 1.25984v -0.249944h 2.51969v 0.187458h 1.25984v -0.031243h 1.25984v -0.124972h 1.25984v 0.124972h 1.25984v 0.281187h 1.25984v -0.281187h 1.25984v 0.031243h 1.25984v
 -0.031243h 1.25984v -0.281187h 1.25984v 0.468645h 1.25984v -0.531131h 1.25984v 0.531131h 1.25984v -0.31243h 1.25984v -0.0937289h 1.25984v -0.437402h 1.25984v 0.531131h 1.25984v 0.468645h 1.25984v -0.218701h 1.25984v -0.0937289h 1.25984v -0.0937289h
 1.25984v -0.281187h 1.25984v -0.124972h 1.25984v 0.718588h 1.25984v -0.593617h 1.25984v 0.468645h 1.25984v -0.562374h 1.25984v 0.468645h 1.25984v 0.156215h 1.25984v -0.499888h 1.25984v 0.062486h 1.25984v -0.062486h 1.25984v -0.062486h 1.25984v
 0.062486h 1.25984v 0.156215h 1.25984v -0.593617h 1.25984v 0.343673h 1.25984v 0.218701h 1.25984v 0.124972h 1.25984v -0.31243h 1.25984v -0.437402h 1.25984v 0.249944h 1.25984v -0.031243h 2.51969v -0.218701h 1.25984v 0.249944h 1.25984v -0.687346h
 1.25984v 0.781074h 1.25984v -0.0937289h 1.25984v 0.187458h 1.25984v -0.31243h 1.25984v -0.031243h 1.25984v 0.249944h 1.25984v -0.124972h 1.25984v 0.249944h 1.25984v -0.499888h 2.51969v -1.0935h 1.25984v 1.18723h 1.25984v -0.531131h 1.25984v 0.62486h
 1.25984v -0.656102h 1.25984v -0.156215h 1.25984v 0.0937289h 1.25984v -0.593617h 1.25984v 0.343673h 1.25984v -0.062486h 1.25984v -0.0937289h 1.25984v 0.218701h 2.51969v -0.62486h 1.25984v 0.437402h 1.25984v -0.499888h 1.25984v -0.31243h 1.25984v
 0.281187h 1.25984v 0.281187h 1.25984v -0.656102h 1.25984v 0.156215h 1.25984v -0.374916h 1.25984v 0.749831h 1.25984v -0.406159h 1.25984v -0.062486h 1.25984v 0.249944h 1.25984v -0.562374h 1.25984v 0.31243h 1.25984v -1.15599h 1.25984v 0.187458h
 1.25984v -0.124972h 1.25984v -0.062486h 1.25984v 0.218701h 1.25984v 0.0937289h 1.25984v 0.218701h 1.25984v -0.156215h 1.25984v -0.812317h 1.25984v 0.593617h 1.25984v 0.124972h 1.25984v -0.781074h 1.25984v -0.124972h 1.25984v 0.906046h 1.25984v
 0.0937289h 1.25984v -0.937289h 1.25984v 0.343673h 1.25984v -0.406159h 1.25984v 0.468645h 1.25984v -0.84356h 1.25984v -0.0937289h 1.25984v 0.031243h 1.25984v 0.406159h 2.51969v -1.56215h 1.25984v 0.531131h 1.25984v -2.12452h 1.25984v -1.3122h
 1.25984v -0.468645h 1.25984v -0.593617h 1.25984v -2.43695h 1.25984v -2.21825h 1.25984v -1.71836h 1.25984v -2.6869h 1.25984v -4.93639h 1.25984v -3.18678h 1.25984v -0.499888h 1.25984v -7.62329h 1.25984v -2.84311h 1.25984v -1.46842h 1.25984v -6.4673h
 1.25984v -2.56192h 1.25984v -3.09305h 1.25984v -4.18656h 1.25984v 0.84356h 1.25984v 0.031243h 1.25984v -2.06204h 1.25984v 2.56192h 1.25984v 0.999775h 1.25984v 4.6552h 1.25984v 1.3122h 1.25984v 3.96786h 1.25984v 4.96763h 1.25984v 2.65565h 1.25984v
 2.62441h 1.25984v 5.99865h 1.25984v 2.31198h 1.25984v 4.34277h 1.25984v 3.59294h 1.25984v 1.18723h 1.25984v 3.31176h 1.25984v 3.49921h 1.25984v 1.06226h 1.25984v 1.40593h 1.25984v -0.0937289h 1.25984v 1.90582h 1.25984v 0.749831h 1.25984v 1.0935h
 1.25984v 0.156215h 1.25984v 1.18723h 1.25984v -0.249944h 1.25984v -0.84356h 1.25984v 0.718588h 1.25984v 0.906046h 1.25984v -0.749831h 1.25984v -0.593617h 1.25984v -0.062486h 1.25984v -0.499888h 1.25984v -0.812317h 1.25984v -0.687346h 1.25984v
 -1.18723h 1.25984v -1.37469h 1.25984v -0.437402h 1.25984v -1.81209h 1.25984v 0.0937289h 1.25984v 0.0937289h 1.25984v -2.56192h 1.25984v 0.84356h 1.25984v -2.09328h 1.25984v 0.999775h 1.25984v -0.0937289h 1.25984v -0.62486h 1.25984v 0.343673h
 1.25984v 1.18723h 1.25984v -0.718588h 1.25984v 1.56215h 1.25984v 0.84356h 1.25984v 0.249944h 1.25984v 2.03079h 1.25984v 0.749831h 1.25984v 0.499888h 1.25984v 1.59339h 1.25984v 0.437402h 1.25984v 0.84356h 1.25984v -0.031243h 1.25984v 0.968532h
 1.25984v 0.968532h 1.25984v 0.343673h 1.25984v 0.0937289h 1.25984v 0.718588h 1.25984v 0.437402h 1.25984v -0.0937289h 1.25984v 0.062486h 1.25984v 0.249944h 1.25984v 0.281187h 1.25984v 0.187458h 1.25984v 0.124972h 2.51969v 0.062486h 1.25984v 0.124972h
 2.51969v -0.156215h 1.25984v 0.062486h 1.25984v 0.156215h 1.25984v 0.218701h 1.25984v -0.218701h 1.25984v 0.0937289h 1.25984v -0.187458h 1.25984v -0.0937289h 1.25984v 0.187458h 2.51969v 0.187458h 1.25984v -0.187458h 1.25984v 0.124972h 1.25984v
 -0.062486h 1.25984v -0.031243h 1.25984v -0.124972h 1.25984v 0.156215h 1.25984v -0.031243h 1.25984" fill="none" stroke="#ff0000" stroke-width="2"/>
<path d="M59.4606,292.812l 4.53543, 0.0498031l 4.53543, 0.0448135l 4.53543, 0.0234811l 4.53543, -0.0556849l 4.53543, -0.309835l 4.53543, -1.01233l 4.53543, -2.67267l 4.53543, -5.99201l 4.53543, -11.5025l 4.53543, -18.8291l 4.53543, -25.9572l 4.53543,
 -29.3634l 4.53543, -25.6613l 4.53543, -14.241l 4.53543, 0.785926l 4.53543, 10.897l 4.53543, 6.60476l 4.53543, -15.0614l 4.53543, -41.6656l 4.53543, -47.6l 4.53543, -17.1697l 4.53543, 32.9033l 4.53543, 66.6515l 4.53543, 66.0871l 4.53543, 43.7057l
 4.53543, 20.8481l 4.53543, 7.42101l 4.53543, 2.02517l 4.53543, 0.454419l 4.53543, 0.11427l 4.53543, 0.0586664l 4.53543, 0.0517429l 4.53543, 0.0510823l 4.53543, 0.0510338l 4.53543, 0.0510311l 4.53543, 0.0510309l 4.53543, 0.0510309l 4.53543,
 0.0510309l 4.53543, 0.0510309l 4.53543, 0.0510309l 4.53543, 0.0510309l 4.53543, 0.0510309l 4.53543, 0.0510309l 4.53543, 0.0510309l 4.53543, 0.0510309l 4.53543, 0.0510309l 4.53543, 0.0510309l 4.53543, 0.0510309l 4.53543, 0.0510309" fill="none"
 stroke="#0000ff" stroke-width="2"/>
<path d="M281.697,295.313l 4.53543, 0.0510309l 4.53543, 0.0510309l 4.53543, 0.0510309l 4.53543, 0.0510309l 4.53543, 0.0510309l 4.53543, 0.0510309l 4.53543, 0.0510309l 4.53543, 0.0510309l 4.53543, 0.0510304l 4.53543, 0.0510256l 4.53543, 0.0509868l
 4.53543, 0.0507203l 4.53543, 0.0491594l 4.53543, 0.0413914l 4.53543, 0.00864211l 4.53543, -0.107847l 4.53543, -0.455358l 4.53543, -1.31702l 4.53543, -3.06671l 4.53543, -5.89843l 4.53543, -9.33816l 4.53543, -11.9225l 4.53543, -11.6658l 4.53543,
 -7.42901l 4.53543, -0.195028l 4.53543, 7.14247l 4.53543, 11.6195l 4.53543, 12.1024l 4.53543, 9.60983l 4.53543, 6.07825l 4.53543, 2.94122l 4.53543, 0.612885l 4.53543, -1.12527l 4.53543, -2.45802l 4.53543, -3.16336l 4.53543, -2.79148l 4.53543,
 -1.22709l 4.53543, 0.936649l 4.53543, 2.68793l 4.53543, 3.3249l 4.53543, 2.8914l 4.53543, 1.95335l 4.53543, 1.0719l 4.53543, 0.497994l 4.53543, 0.212312l 4.53543, 0.0992933l 4.53543, 0.0630572l 4.53543, 0.0535334l 4.53543, 0.0514667" fill="none"
 stroke="#0000ff" stroke-width="2"/>
<path d="M503.933,297.813l 4.53543, 0.0510945" fill="none" stroke="#0000ff" stroke-width="2"/>
<rect x="351.996" y="21.5232" width="204.094" height="211.921" fill="white"/>
<path d="M351.996,233.444h 204.094" fill="none" stroke="black" stroke-width="2"/>
<path d="M556.091,233.444v -211.921" fill="none" stroke="black" stroke-width="2"/>
<path d="M556.091,21.5232h -204.094" fill="none" stroke="black" stroke-width="2"/>
<path d="M351.996,21.5232v 211.921" fill="none" stroke="black" stroke-width="2"/>
<text x="371.763" y="32.611" fill="black" font-size="11.4956" font-family="Helvetica">
 / ndf 
</text>
<text x="367.582" y="28.4301" fill="black" font-size="7.8304" font-family="Helvetica">
2
</text>
<text x="361.729" y="32.611" fill="black" font-size="11.4956" font-family="Times">
&#0967;
</text>
<text x="489.665" y="32.611" fill="black" font-size="11.4956" font-family="Helvetica">
  9668 / 346
</text>
<text x="361.729" y="46.826" fill="black" font-size="11.4956" font-family="Helvetica">
1-Centroid 
</text>
<text x="529.801" y="46.826" fill="black" font-size="11.4956" font-family="Helvetica">
 0.1
</text>
<text x="523.948" y="46.826" fill="black" font-size="11.4956" font-family="Times">
&#0177;
</text>
<text x="492.173" y="46.826" fill="black" font-size="11.4956" font-family="Helvetica">
  1682 
</text>
<text x="361.729" y="61.041" fill="black" font-size="11.4956" font-family="Helvetica">
1-FWHM   
</text>
<text x="522.276" y="60.2049" fill="black" font-size="11.4956" font-family="Helvetica">
 0.23
</text>
<text x="516.422" y="60.2049" fill="black" font-size="11.4956" font-family="Times">
&#0177;
</text>
<text x="484.647" y="60.2049" fill="black" font-size="11.4956" font-family="Helvetica">
 20.46 
</text>
<text x="361.729" y="74.4199" fill="black" font-size="11.4956" font-family="Helvetica">
1-Counts 
</text>
<text x="516.422" y="74.4199" fill="black" font-size="11.4956" font-family="Helvetica">
 107.4
</text>
<text x="510.569" y="74.4199" fill="black" font-size="11.4956" font-family="Times">
&#0177;
</text>
<text x="478.794" y="74.4199" fill="black" font-size="11.4956" font-family="Helvetica">
  9248 
</text>
<text x="361.729" y="88.6349" fill="black" font-size="11.4956" font-family="Helvetica">
2-Centroid 
</text>
<text x="529.801" y="88.6349" fill="black" font-size="11.4956" font-family="Helvetica">
 0.1
</text>
<text x="523.948" y="88.6349" fill="black" font-size="11.4956" font-family="Times">
&#0177;
</text>
<text x="492.173" y="88.6349" fill="black" font-size="11.4956" font-family="Helvetica">
  1423 
</text>
<text x="361.729" y="103.686" fill="black" font-size="11.4956" font-family="Helvetica">
2-FWHM   
</text>
<text x="528.129" y="102.85" fill="black" font-size="11.4956" font-family="Helvetica">
 0.2
</text>
<text x="522.276" y="102.85" fill="black" font-size="11.4956" font-family="Times">
&#0177;
</text>
<text x="493.845" y="102.85" fill="black" font-size="11.4956" font-family="Helvetica">
  23.6 
</text>
<text x="361.729" y="117.065" fill="black" font-size="11.4956" font-family="Helvetica">
2-Counts 
</text>
<text x="492.173" y="117.065" fill="black" font-size="11.4956" font-family="Helvetica">
 7.618e+02
</text>
<text x="486.32" y="117.065" fill="black" font-size="11.4956" font-family="Times">
&#0177;
</text>
<text x="430.296" y="117.065" fill="black" font-size="11.4956" font-family="Helvetica">
 1.101e+05 
</text>
<text x="361.729" y="131.28" fill="black" font-size="11.4956" font-family="Helvetica">
3-Centroid 
</text>
<text x="528.129" y="131.28" fill="black" font-size="11.4956" font-family="Helvetica">
 0.0
</text>
<text x="522.276" y="131.28" fill="black" font-size="11.4956" font-family="Times">
&#0177;
</text>
<text x="490.501" y="131.28" fill="black" font-size="11.4956" font-family="Helvetica">
  1447 
</text>
<text x="361.729" y="145.495" fill="black" font-size="11.4956" font-family="Helvetica">
3-FWHM   
</text>
<text x="522.276" y="145.495" fill="black" font-size="11.4956" font-family="Helvetica">
 0.07
</text>
<text x="516.422" y="145.495" fill="black" font-size="11.4956" font-family="Times">
&#0177;
</text>
<text x="484.647" y="145.495" fill="black" font-size="11.4956" font-family="Helvetica">
 16.86 
</text>
<text x="361.729" y="159.71" fill="black" font-size="11.4956" font-family="Helvetica">
3-Counts 
</text>
<text x="492.173" y="159.71" fill="black" font-size="11.4956" font-family="Helvetica">
 7.585e+02
</text>
<text x="486.32" y="159.71" fill="black" font-size="11.4956" font-family="Times">
&#0177;
</text>
<text x="430.296" y="159.71" fill="black" font-size="11.4956" font-family="Helvetica">
 1.335e+05 
</text>
<text x="361.729" y="173.925" fill="black" font-size="11.4956" font-family="Helvetica">
4-Centroid 
</text>
<text x="529.801" y="173.925" fill="black" font-size="11.4956" font-family="Helvetica">
 0.1
</text>
<text x="523.948" y="173.925" fill="black" font-size="11.4956" font-family="Times">
&#0177;
</text>
<text x="492.173" y="173.925" fill="black" font-size="11.4956" font-family="Helvetica">
  1637 
</text>
<text x="361.729" y="188.976" fill="black" font-size="11.4956" font-family="Helvetica">
4-FWHM   
</text>
<text x="522.276" y="188.14" fill="black" font-size="11.4956" font-family="Helvetica">
 0.12
</text>
<text x="516.422" y="188.14" fill="black" font-size="11.4956" font-family="Times">
&#0177;
</text>
<text x="484.647" y="188.14" fill="black" font-size="11.4956" font-family="Helvetica">
 21.74 
</text>
<text x="361.729" y="201.519" fill="black" font-size="11.4956" font-family="Helvetica">
4-Counts 
</text>
<text x="492.173" y="201.519" fill="black" font-size="11.4956" font-family="Helvetica">
 2.063e+02
</text>
<text x="486.32" y="201.519" fill="black" font-size="11.4956" font-family="Times">
&#0177;
</text>
<text x="430.296" y="201.519" fill="black" font-size="11.4956" font-family="Helvetica">
 3.921e+04 
</text>
<text x="361.729" y="214.898" fill="black" font-size="11.4956" font-family="Helvetica">
Intercept 
</text>
<text x="528.129" y="215.734" fill="black" font-size="11.4956" font-family="Helvetica">
 8.0
</text>
<text x="522.276" y="215.734" fill="black" font-size="11.4956" font-family="Times">
&#0177;
</text>
<text x="490.501" y="215.734" fill="black" font-size="11.4956" font-family="Helvetica">
 788.9 
</text>
<text x="361.729" y="229.113" fill="black" font-size="11.4956" font-family="Helvetica">
Slope    
</text>
<text x="509.733" y="229.949" fill="black" font-size="11.4956" font-family="Helvetica">
 0.0049
</text>
<text x="503.88" y="229.949" fill="black" font-size="11.4956" font-family="Times">
&#0177;
</text>
<text x="468.76" y="229.949" fill="black" font-size="11.4956" font-family="Helvetica">
0.4537 
</text>
<text x="462.071" y="229.949" fill="black" font-size="11.4956" font-family="Times">
&#8722;
</text>
<text x="459.562" y="229.949" fill="black" font-size="11.4956" font-family="Helvetica">
 
</text>
<path d="M57.1929,298.014h 453.543" fill="none" stroke="black" stroke-width="2"/>
<text x="466.252" y="320.256" fill="black" font-size="11.1325" font-family="Helvetica">
Channels
</text>
<path d="M94.9882,290.067v 7.94704" fill="none" stroke="black" stroke-width="2"/>
<path d="M120.185,294.041v 3.97352" fill="none" stroke="black" stroke-width="2"/>
<path d="M145.382,294.041v 3.97352" fill="none" stroke="black" stroke-width="2"/>
<path d="M170.579,294.041v 3.97352" fill="none" stroke="black" stroke-width="2"/>
<path d="M195.776,294.041v 3.97352" fill="none" stroke="black" stroke-width="2"/>
<path d="M220.972,290.067v 7.94704" fill="none" stroke="black" stroke-width="2"/>
<path d="M246.169,294.041v 3.97352" fill="none" stroke="black" stroke-width="2"/>
<path d="M271.366,294.041v 3.97352" fill="none" stroke="black" stroke-width="2"/>
<path d="M296.563,294.041v 3.97352" fill="none" stroke="black" stroke-width="2"/>
<path d="M321.76,294.041v 3.97352" fill="none" stroke="black" stroke-width="2"/>
<path d="M346.957,290.067v 7.94704" fill="none" stroke="black" stroke-width="2"/>
<path d="M372.154,294.041v 3.97352" fill="none" stroke="black" stroke-width="2"/>
<path d="M397.35,294.041v 3.97352" fill="none" stroke="black" stroke-width="2"/>
<path d="M422.547,294.041v 3.97352" fill="none" stroke="black" stroke-width="2"/>
<path d="M447.744,294.041v 3.97352" fill="none" stroke="black" stroke-width="2"/>
<path d="M472.941,290.067v 7.94704" fill="none" stroke="black" stroke-width="2"/>
<path d="M94.9882,290.067v 7.94704" fill="none" stroke="black" stroke-width="2"/>
<path d="M69.7913,294.041v 3.97352" fill="none" stroke="black" stroke-width="2"/>
<path d="M472.941,290.067v 7.94704" fill="none" stroke="black" stroke-width="2"/>
<path d="M498.138,294.041v 3.97352" fill="none" stroke="black" stroke-width="2"/>
<text x="82.4455" y="308.55" fill="black" font-size="11.1325" font-family="Helvetica">
1400
</text>
<text x="207.872" y="308.55" fill="black" font-size="11.1325" font-family="Helvetica">
1500
</text>
<text x="334.135" y="308.55" fill="black" font-size="11.1325" font-family="Helvetica">
1600
</text>
<text x="460.398" y="308.55" fill="black" font-size="11.1325" font-family="Helvetica">
1700
</text>
<path d="M57.1929,298.014v -264.901" fill="none" stroke="black" stroke-width="2"/>
<path d="M70.7992,298.014h -13.6063" fill="none" stroke="black" stroke-width="2"/>
<path d="M63.9961,291.765h -6.80315" fill="none" stroke="black" stroke-width="2"/>
<path d="M63.9961,285.517h -6.80315" fill="none" stroke="black" stroke-width="2"/>
<path d="M63.9961,279.268h -6.80315" fill="none" stroke="black" stroke-width="2"/>
<path d="M63.9961,273.02h -6.80315" fill="none" stroke="black" stroke-width="2"/>
<path d="M70.7992,266.771h -13.6063" fill="none" stroke="black" stroke-width="2"/>
<path d="M63.9961,260.522h -6.80315" fill="none" stroke="black" stroke-width="2"/>
<path d="M63.9961,254.274h -6.80315" fill="none" stroke="black" stroke-width="2"/>
<path d="M63.9961,248.025h -6.80315" fill="none" stroke="black" stroke-width="2"/>
<path d="M63.9961,241.777h -6.80315" fill="none" stroke="black" stroke-width="2"/>
<path d="M70.7992,235.528h -13.6063" fill="none" stroke="black" stroke-width="2"/>
<path d="M63.9961,229.28h -6.80315" fill="none" stroke="black" stroke-width="2"/>
<path d="M63.9961,223.031h -6.80315" fill="none" stroke="black" stroke-width="2"/>
<path d="M63.9961,216.782h -6.80315" fill="none" stroke="black" stroke-width="2"/>
<path d="M63.9961,210.534h -6.80315" fill="none" stroke="black" stroke-width="2"/>
<path d="M70.7992,204.285h -13.6063" fill="none" stroke="black" stroke-width="2"/>
<path d="M63.9961,198.037h -6.80315" fill="none" stroke="black" stroke-width="2"/>
<path d="M63.9961,191.788h -6.80315" fill="none" stroke="black" stroke-width="2"/>
<path d="M63.9961,185.539h -6.80315" fill="none" stroke="black" stroke-width="2"/>
<path d="M63.9961,179.291h -6.80315" fill="none" stroke="black" stroke-width="2"/>
<path d="M70.7992,173.042h -13.6063" fill="none" stroke="black" stroke-width="2"/>
<path d="M63.9961,166.794h -6.80315" fill="none" stroke="black" stroke-width="2"/>
<path d="M63.9961,160.545h -6.80315" fill="none" stroke="black" stroke-width="2"/>
<path d="M63.9961,154.296h -6.80315" fill="none" stroke="black" stroke-width="2"/>
<path d="M63.9961,148.048h -6.80315" fill="none" stroke="black" stroke-width="2"/>
<path d="M70.7992,141.799h -13.6063" fill="none" stroke="black" stroke-width="2"/>
<path d="M63.9961,135.551h -6.80315" fill="none" stroke="black" stroke-width="2"/>
<path d="M63.9961,129.302h -6.80315" fill="none" stroke="black" stroke-width="2"/>
<path d="M63.9961,123.053h -6.80315" fill="none" stroke="black" stroke-width="2"/>
<path d="M63.9961,116.805h -6.80315" fill="none" stroke="black" stroke-width="2"/>
<path d="M70.7992,110.556h -13.6063" fill="none" stroke="black" stroke-width="2"/>
<path d="M63.9961,104.308h -6.80315" fill="none" stroke="black" stroke-width="2"/>
<path d="M63.9961,98.059h -6.80315" fill="none" stroke="black" stroke-width="2"/>
<path d="M63.9961,91.8104h -6.80315" fill="none" stroke="black" stroke-width="2"/>
<path d="M63.9961,85.5618h -6.80315" fill="none" stroke="black" stroke-width="2"/>
<path d="M70.7992,79.3132h -13.6063" fill="none" stroke="black" stroke-width="2"/>
<path d="M63.9961,73.0646h -6.80315" fill="none" stroke="black" stroke-width="2"/>
<path d="M63.9961,66.816h -6.80315" fill="none" stroke="black" stroke-width="2"/>
<path d="M63.9961,60.5674h -6.80315" fill="none" stroke="black" stroke-width="2"/>
<path d="M63.9961,54.3188h -6.80315" fill="none" stroke="black" stroke-width="2"/>
<path d="M70.7992,48.0703h -13.6063" fill="none" stroke="black" stroke-width="2"/>
<path d="M70.7992,48.0703h -13.6063" fill="none" stroke="black" stroke-width="2"/>
<path d="M63.9961,41.8217h -6.80315" fill="none" stroke="black" stroke-width="2"/>
<path d="M63.9961,35.5731h -6.80315" fill="none" stroke="black" stroke-width="2"/>
<text x="48.1622" y="301.86" fill="black" font-size="11.1325" font-family="Helvetica">
0
</text>
<text x="29.7663" y="270.922" fill="black" font-size="11.1325" font-family="Helvetica">
1000
</text>
<text x="29.7663" y="239.147" fill="black" font-size="11.1325" font-family="Helvetica">
2000
</text>
<text x="29.7663" y="208.208" fill="black" font-size="11.1325" font-family="Helvetica">
3000
</text>
<text x="29.7663" y="176.434" fill="black" font-size="11.1325" font-family="Helvetica">
4000
</text>
<text x="29.7663" y="145.495" fill="black" font-size="11.1325" font-family="Helvetica">
5000
</text>
<text x="29.7663" y="114.556" fill="black" font-size="11.1325" font-family="Helvetica">
6000
</text>
<text x="29.7663" y="82.7817" fill="black" font-size="11.1325" font-family="Helvetica">
7000
</text>
<text x="29.7663" y="51.8431" fill="black" font-size="11.1325" font-family="Helvetica">
8000
</text>
<rect x="351.996" y="21.5232" width="204.094" height="211.921" fill="white"/>
<path d="M351.996,233.444h 204.094" fill="none" stroke="black" stroke-width="2"/>
<path d="M556.091,233.444v -211.921" fill="none" stroke="black" stroke-width="2"/>
<path d="M556.091,21.5232h -204.094" fill="none" stroke="black" stroke-width="2"/>
<path d="M351.996,21.5232v 211.921" fill="none" stroke="black" stroke-width="2"/>
<text x="371.763" y="32.611" fill="black" font-size="11.4956" font-family="Helvetica">
 / ndf 
</text>
<text x="367.582" y="28.4301" fill="black" font-size="7.8304" font-family="Helvetica">
2
</text>
<text x="361.729" y="32.611" fill="black" font-size="11.4956" font-family="Times">
&#0967;
</text>
<text x="489.665" y="32.611" fill="black" font-size="11.4956" font-family="Helvetica">
  9668 / 346
</text>
<text x="361.729" y="46.826" fill="black" font-size="11.4956" font-family="Helvetica">
1-Centroid 
</text>
<text x="529.801" y="46.826" fill="black" font-size="11.4956" font-family="Helvetica">
 0.1
</text>
<text x="523.948" y="46.826" fill="black" font-size="11.4956" font-family="Times">
&#0177;
</text>
<text x="492.173" y="46.826" fill="black" font-size="11.4956" font-family="Helvetica">
  1682 
</text>
<text x="361.729" y="61.041" fill="black" font-size="11.4956" font-family="Helvetica">
1-FWHM   
</text>
<text x="522.276" y="60.2049" fill="black" font-size="11.4956" font-family="Helvetica">
 0.23
</text>
<text x="516.422" y="60.2049" fill="black" font-size="11.4956" font-family="Times">
&#0177;
</text>
<text x="484.647" y="60.2049" fill="black" font-size="11.4956" font-family="Helvetica">
 20.46 
</text>
<text x="361.729" y="74.4199" fill="black" font-size="11.4956" font-family="Helvetica">
1-Counts 
</text>
<text x="516.422" y="74.4199" fill="black" font-size="11.4956" font-family="Helvetica">
 107.4
</text>
<text x="510.569" y="74.4199" fill="black" font-size="11.4956" font-family="Times">
&#0177;
</text>
<text x="478.794" y="74.4199" fill="black" font-size="11.4956" font-family="Helvetica">
  9248 
</text>
<text x="361.729" y="88.6349" fill="black" font-size="11.4956" font-family="Helvetica">
2-Centroid 
</text>
<text x="529.801" y="88.6349" fill="black" font-size="11.4956" font-family="Helvetica">
 0.1
</text>
<text x="523.948" y="88.6349" fill="black" font-size="11.4956" font-family="Times">
&#0177;
</text>
<text x="492.173" y="88.6349" fill="black" font-size="11.4956" font-family="Helvetica">
  1423 
</text>
<text x="361.729" y="103.686" fill="black" font-size="11.4956" font-family="Helvetica">
2-FWHM   
</text>
<text x="528.129" y="102.85" fill="black" font-size="11.4956" font-family="Helvetica">
 0.2
</text>
<text x="522.276" y="102.85" fill="black" font-size="11.4956" font-family="Times">
&#0177;
</text>
<text x="493.845" y="102.85" fill="black" font-size="11.4956" font-family="Helvetica">
  23.6 
</text>
<text x="361.729" y="117.065" fill="black" font-size="11.4956" font-family="Helvetica">
2-Counts 
</text>
<text x="492.173" y="117.065" fill="black" font-size="11.4956" font-family="Helvetica">
 7.618e+02
</text>
<text x="486.32" y="117.065" fill="black" font-size="11.4956" font-family="Times">
&#0177;
</text>
<text x="430.296" y="117.065" fill="black" font-size="11.4956" font-family="Helvetica">
 1.101e+05 
</text>
<text x="361.729" y="131.28" fill="black" font-size="11.4956" font-family="Helvetica">
3-Centroid 
</text>
<text x="528.129" y="131.28" fill="black" font-size="11.4956" font-family="Helvetica">
 0.0
</text>
<text x="522.276" y="131.28" fill="black" font-size="11.4956" font-family="Times">
&#0177;
</text>
<text x="490.501" y="131.28" fill="black" font-size="11.4956" font-family="Helvetica">
  1447 
</text>
<text x="361.729" y="145.495" fill="black" font-size="11.4956" font-family="Helvetica">
3-FWHM   
</text>
<text x="522.276" y="145.495" fill="black" font-size="11.4956" font-family="Helvetica">
 0.07
</text>
<text x="516.422" y="145.495" fill="black" font-size="11.4956" font-family="Times">
&#0177;
</text>
<text x="484.647" y="145.495" fill="black" font-size="11.4956" font-family="Helvetica">
 16.86 
</text>
<text x="361.729" y="159.71" fill="black" font-size="11.4956" font-family="Helvetica">
3-Counts 
</text>
<text x="492.173" y="159.71" fill="black" font-size="11.4956" font-family="Helvetica">
 7.585e+02
</text>
<text x="486.32" y="159.71" fill="black" font-size="11.4956" font-family="Times">
&#0177;
</text>
<text x="430.296" y="159.71" fill="black" font-size="11.4956" font-family="Helvetica">
 1.335e+05 
</text>
<text x="361.729" y="173.925" fill="black" font-size="11.4956" font-family="Helvetica">
4-Centroid 
</text>
<text x="529.801" y="173.925" fill="black" font-size="11.4956" font-family="Helvetica">
 0.1
</text>
<text x="523.948" y="173.925" fill="black" font-size="11.4956" font-family="Times">
&#0177;
</text>
<text x="492.173" y="173.925" fill="black" font-size="11.4956" font-family="Helvetica">
  1637 
</text>
<text x="361.729" y="188.976" fill="black" font-size="11.4956" font-family="Helvetica">
4-FWHM   
</text>
<text x="522.276" y="188.14" fill="black" font-size="11.4956" font-family="Helvetica">
 0.12
</text>
<text x="516.422" y="188.14" fill="black" font-size="11.4956" font-family="Times">
&#0177;
</text>
<text x="484.647" y="188.14" fill="black" font-size="11.4956" font-family="Helvetica">
 21.74 
</text>
<text x="361.729" y="201.519" fill="black" font-size="11.4956" font-family="Helvetica">
4-Counts 
</text>
<text x="492.173" y="201.519" fill="black" font-size="11.4956" font-family="Helvetica">
 2.063e+02
</text>
<text x="486.32" y="201.519" fill="black" font-size="11.4956" font-family="Times">
&#0177;
</text>
<text x="430.296" y="201.519" fill="black" font-size="11.4956" font-family="Helvetica">
 3.921e+04 
</text>
<text x="361.729" y="214.898" fill="black" font-size="11.4956" font-family="Helvetica">
Intercept 
</text>
<text x="528.129" y="215.734" fill="black" font-size="11.4956" font-family="Helvetica">
 8.0
</text>
<text x="522.276" y="215.734" fill="black" font-size="11.4956" font-family="Times">
&#0177;
</text>
<text x="490.501" y="215.734" fill="black" font-size="11.4956" font-family="Helvetica">
 788.9 
</text>
<text x="361.729" y="229.113" fill="black" font-size="11.4956" font-family="Helvetica">
Slope    
</text>
<text x="509.733" y="229.949" fill="black" font-size="11.4956" font-family="Helvetica">
 0.0049
</text>
<text x="503.88" y="229.949" fill="black" font-size="11.4956" font-family="Times">
&#0177;
</text>
<text x="468.76" y="229.949" fill="black" font-size="11.4956" font-family="Helvetica">
0.4537 
</text>
<text x="462.071" y="229.949" fill="black" font-size="11.4956" font-family="Times">
&#8722;
</text>
<text x="459.562" y="229.949" fill="black" font-size="11.4956" font-family="Helvetica">
 
</text>
<path d="M59.4606,298.014h 222.236" fill="none" stroke="#00ff00" stroke-width="2"/>
<path d="M281.697,298.014h 126.992l 4.53543, -0.0488022l 4.53543, -0.130066l 4.53543, -0.373661l 4.53543, -0.885959l 4.53543, -1.71787l 4.53543, -2.68072l 4.53543, -3.26065l 4.53543, -2.85314l 4.53543, -1.2802l 4.53543, 0.885269l 4.53543, 2.63685l
 4.53543, 3.27387l 4.53543, 2.84036l 4.53543, 1.90231l 4.53543, 1.02087l 4.53543, 0.446963l 4.53543, 0.161281l 4.53543, 0.0632991h 13.6063" fill="none" stroke="#00ff00" stroke-width="2"/>
<path d="M503.933,298.014h 4.53543" fill="none" stroke="#00ff00" stroke-width="2"/>
<path d="M59.4606,298.014h 9.07087l 4.53543, -0.0352445l 4.53543, -0.106716l 4.53543, -0.360866l 4.53543, -1.06336l 4.53543, -2.7237l 4.53543, -6.04304l 4.53543, -11.5536l 4.53543, -18.8801l 4.53543, -26.0074l 4.53543, -29.4063l 4.53543, -25.6458l
 4.53543, -13.8708l 4.53543, 2.78158l 4.53543, 18.4285l 4.53543, 27.7684l 4.53543, 28.9564l 4.53543, 23.9284l 4.53543, 16.4064l 4.53543, 9.53352l 4.53543, 4.74958l 4.53543, 2.04293l 4.53543, 0.762119l 4.53543, 0.247355l 4.53543, 0.0918914h 104.315"
 fill="none" stroke="#00ff00" stroke-width="2"/>
<path d="M281.697,298.014h 222.236" fill="none" stroke="#00ff00" stroke-width="2"/>
<path d="M503.933,298.014h 4.53543" fill="none" stroke="#00ff00" stroke-width="2"/>
<path d="M59.4606,298.014h 54.4252l 4.53543, -0.0753791l 4.53543, -0.421214l 4.53543, -2.04668l 4.53543, -7.58249l 4.53543, -21.2147l 4.53543, -44.0688l 4.53543, -65.645l 4.53543, -64.0574l 4.53543, -26.7542l 4.53543, 28.1027l 4.53543, 64.5575l
 4.53543, 65.274l 4.53543, 43.4073l 4.53543, 20.7271l 4.53543, 7.35267l 4.53543, 1.9704l 4.53543, 0.402681l 4.53543, 0.0715045h 86.1732" fill="none" stroke="#00ff00" stroke-width="2"/>
<path d="M281.697,298.014h 222.236" fill="none" stroke="#00ff00" stroke-width="2"/>
<path d="M503.933,298.014h 4.53543" fill="none" stroke="#00ff00" stroke-width="2"/>
<path d="M59.4606,298.014h 222.236" fill="none" stroke="#00ff00" stroke-width="2"/>
<path d="M281.697,298.014h 63.4961l 4.53543, -0.0542607l 4.53543, -0.158878l 4.53543, -0.506389l 4.53543, -1.36805l 4.53543, -3.11774l 4.53543, -5.94946l 4.53543, -9.38919l 4.53543, -11.9735l 4.53543, -11.7168l 4.53543, -7.48003l 4.53543, -0.246016l
 4.53543, 7.09174l 4.53543, 11.5703l 4.53543, 12.0604l 4.53543, 9.59638l 4.53543, 6.15728l 4.53543, 3.26385l 4.53543, 1.44781l 4.53543, 0.54157l 4.53543, 0.171666l 4.53543, 0.0593809h 63.4961" fill="none" stroke="#00ff00" stroke-width="2"/>
<path d="M503.933,298.014h 4.53543" fill="none" stroke="#00ff00" stroke-width="2"/>
<text x="202.855" y="15.8874" fill="black" font-size="16.1496" font-family="Helvetica">
vsBiasVoltage/260.Spe
</text></svg>
