<?xml version="1.0" standalone="no"?>
<svg width="567.429" height="357.376" viewBox="0 0 567.429 357.376" xmlns="http://www.w3.org/2000/svg">
<title>
/home/ADF/hyw543/XRay/Resolution/300.svg
</title>
<desc>
Creator: ROOT Version 6.06/08
CreationDate: Fri Mar  1 15:33:13 2019</desc>
<defs>
</defs>
<rect x="0.5" y="0" width="566.929" height="356.876" fill="white"/>
<rect x="57.1929" y="35.6876" width="453.543" height="285.501" fill="white"/>
<rect x="57.1929" y="35.6876" width="453.543" height="285.501" fill="none" stroke="black"/>
<rect x="57.1929" y="35.6876" width="453.543" height="285.501" fill="white"/>
<rect x="57.1929" y="35.6876" width="453.543" height="285.501" fill="none" stroke="black"/>
<path d="M57.1929,310.014h 1.36609v 1.21464h 1.36609v 0.694079h 1.36609v -1.52697h 2.73219v -0.0694079h 1.36609v -0.589967h 1.36609v -1.04112h 1.36609v -0.0694079h 1.36609v -0.242928h 1.36609v -0.312336h 1.36609v 1.31875h 1.36609v -0.34704h 1.36609v
 -0.832895h 1.36609v -0.416448h 1.36609v -0.971711h 1.36609v 0.555263h 1.36609v 1.14523h 1.36609v -2.77632h 1.36609v 1.00641h 1.36609v 0.138816h 1.36609v -1.7352h 1.36609v -1.87401h 1.36609v 0.277632h 1.36609v -0.138816h 1.36609v -0.728783h 1.36609v
 0.902303h 1.36609v -2.18635h 1.36609v 0.138816h 1.36609v -0.138816h 1.36609v 0.208224h 1.36609v -1.70049h 1.36609v -0.937007h 1.36609v -0.728783h 1.36609v -1.00641h 1.36609v -1.00641h 1.36609v -0.520559h 1.36609v -2.39457h 1.36609v -5.76086h
 1.36609v -2.18635h 1.36609v -4.4074h 1.36609v -6.03849h 1.36609v -7.28783h 1.36609v -4.44211h 1.36609v -11.5217h 1.36609v -6.1079h 1.36609v -11.3135h 1.36609v -13.4304h 1.36609v -14.0204h 1.36609v -7.9125h 1.36609v -15.0615h 1.36609v -14.0551h
 1.36609v -7.63487h 1.36609v -7.63487h 1.36609v -1.04112h 1.36609v -2.56809h 1.36609v -4.71974h 1.36609v 1.59638h 1.36609v 6.38553h 1.36609v 3.71332h 1.36609v 7.80839h 1.36609v 10.203h 1.36609v 3.5051h 1.36609v 9.6477h 1.36609v 7.11431h 1.36609v
 0.624671h 1.36609v -1.00641h 1.36609v -7.8778h 1.36609v -4.16447h 1.36609v -3.64392h 1.36609v -14.1245h 1.36609v -11.8341h 1.36609v -19.9201h 1.36609v -9.82122h 1.36609v -28.1102h 1.36609v -13.604h 1.36609v -13.5692h 1.36609v -13.7081h 1.36609v
 -6.1079h 1.36609v 1.42286h 1.36609v 0.138816h 1.36609v 1.17993h 1.36609v 13.3263h 1.36609v 11.6605h 1.36609v 17.7684h 1.36609v 23.564h 1.36609v 18.6707h 1.36609v 24.0151h 1.36609v 15.0615h 1.36609v 20.7877h 1.36609v 20.4059h 1.36609v 17.0049h
 1.36609v 14.3327h 1.36609v 11.0359h 1.36609v 13.1528h 1.36609v 9.37007h 1.36609v 7.98191h 1.36609v 5.58734h 1.36609v 4.54622h 1.36609v 4.09507h 1.36609v 4.85855h 1.36609v 0.485855h 1.36609v 3.67862h 1.36609v 0.034704h 1.36609v 1.31875h 1.36609v
 0.589967h 1.36609v 1.14523h 1.36609v 0.589967h 1.36609v 0.520559h 1.36609v 0.555263h 1.36609v 0.242928h 1.36609v -0.104112h 1.36609v 0.034704h 1.36609v -0.312336h 1.36609v 0.659375h 1.36609v -0.277632h 1.36609v -0.034704h 1.36609v 0.624671h 1.36609v
 -0.381744h 1.36609v -0.104112h 1.36609v 0.589967h 1.36609v -0.937007h 1.36609v 0.242928h 1.36609v 0.451151h 1.36609v 0.242928h 1.36609v 0.34704h 1.36609v -0.416448h 1.36609v -0.312336h 1.36609v -0.034704h 1.36609v 0.17352h 1.36609v 0.624671h
 1.36609v -0.520559h 2.73219v 0.34704h 1.36609v -0.277632h 1.36609v 0.17352h 1.36609v -0.0694079h 1.36609v 0.138816h 1.36609v -0.312336h 1.36609v 0.659375h 1.36609v -0.34704h 1.36609v 0.0694079h 1.36609v -0.312336h 1.36609v 0.034704h 1.36609v
 0.138816h 1.36609v -0.0694079h 1.36609v 0.104112h 1.36609v 0.242928h 1.36609v -0.485855h 1.36609v -0.138816h 1.36609v 0.034704h 1.36609v 0.034704h 1.36609v -0.277632h 1.36609v 0.520559h 1.36609v -0.381744h 1.36609v -0.138816h 1.36609v 0.451151h
 1.36609v 0.138816h 1.36609v -0.312336h 1.36609v 0.17352h 1.36609v -0.277632h 1.36609v -0.104112h 1.36609v 0.520559h 1.36609v -0.416448h 1.36609v 0.17352h 1.36609v -0.104112h 1.36609v 0.034704h 1.36609v -0.17352h 1.36609v 0.138816h 1.36609v
 -0.555263h 1.36609v 0.242928h 1.36609v 0.659375h 1.36609v -0.277632h 1.36609v 0.312336h 1.36609v -0.832895h 1.36609v 0.451151h 1.36609v -0.381744h 1.36609v 0.798191h 1.36609v -0.555263h 1.36609v -0.832895h 1.36609v 0.589967h 1.36609v 0.17352h
 1.36609v -0.138816h 1.36609v -0.312336h 1.36609v 0.208224h 1.36609v -0.312336h 1.36609v -0.277632h 1.36609v 0.867599h 1.36609v 0.312336h 1.36609v -0.589967h 1.36609v -0.867599h 1.36609v 0.277632h 1.36609v -0.17352h 1.36609v 0.034704h 1.36609v
 0.34704h 1.36609v 0.138816h 1.36609v -0.312336h 2.73219v -0.312336h 1.36609v -0.0694079h 1.36609v 0.624671h 1.36609v -0.763487h 1.36609v -0.138816h 1.36609v -0.277632h 1.36609v 1.00641h 1.36609v -0.798191h 1.36609v 0.312336h 1.36609v -0.17352h
 1.36609v -0.451151h 1.36609v 0.138816h 1.36609v 0.485855h 1.36609v -0.416448h 1.36609v 0.034704h 1.36609v -0.485855h 1.36609v 0.694079h 1.36609v -0.485855h 1.36609v 0.277632h 1.36609v -0.34704h 1.36609v -0.971711h 1.36609v 1.42286h 1.36609v
 -0.798191h 1.36609v -0.659375h 1.36609v 0.659375h 1.36609v -0.242928h 1.36609v -0.694079h 1.36609v -0.659375h 1.36609v 1.00641h 1.36609v -0.17352h 1.36609v -0.659375h 1.36609v 0.659375h 1.36609v -0.971711h 1.36609v 0.242928h 1.36609v -0.902303h
 1.36609v 1.07582h 1.36609v -0.520559h 1.36609v -0.034704h 2.73219v -0.589967h 1.36609v -0.208224h 1.36609v 0.451151h 1.36609v -0.659375h 1.36609v 0.902303h 1.36609v 0.17352h 1.36609v -1.11053h 1.36609v 0.277632h 1.36609v 0.798191h 1.36609v -1.56168h
 1.36609v -0.034704h 1.36609v -0.728783h 1.36609v -0.277632h 1.36609v -0.694079h 1.36609v -1.52697h 1.36609v -0.624671h 1.36609v -2.15165h 1.36609v -0.832895h 1.36609v -2.91513h 1.36609v -2.39457h 1.36609v -3.74803h 1.36609v -1.7699h 1.36609v
 -2.88043h 1.36609v -3.92155h 1.36609v -6.35082h 1.36609v -2.25576h 1.36609v -6.87138h 1.36609v -2.91513h 1.36609v -1.59638h 1.36609v -6.42023h 1.36609v -2.49869h 1.36609v -1.11053h 1.36609v -1.94342h 1.36609v -1.04112h 1.36609v 2.11694h 1.36609v
 1.00641h 1.36609v 5.72615h 1.36609v 2.22105h 1.36609v 1.38816h 1.36609v 6.62846h 1.36609v 2.01283h 1.36609v 7.18372h 1.36609v 3.12336h 1.36609v 2.18635h 1.36609v 7.63487h 1.36609v 0.971711h 1.36609v 3.40099h 1.36609v 1.7352h 1.36609v 2.84572h
 1.36609v 2.70691h 1.36609v 1.17993h 1.36609v 2.70691h 1.36609v 0.451151h 1.36609v 1.24934h 1.36609v 0.728783h 1.36609v 1.52697h 1.36609v 0.485855h 1.36609v -0.485855h 1.36609v 0.728783h 1.36609v -0.416448h 1.36609v 0.555263h 1.36609v -0.34704h
 1.36609v 0.242928h 1.36609v -1.11053h 1.36609v -0.312336h 1.36609v -0.902303h 1.36609v -1.14523h 1.36609v 0.104112h 1.36609v -0.971711h 1.36609v -2.49869h 1.36609v 0.17352h 1.36609v -1.07582h 1.36609v -0.659375h 1.36609v -1.56168h 1.36609v
 -0.555263h 1.36609v -1.31875h 1.36609v 1.35345h 1.36609v -0.138816h 1.36609v -1.7699h 1.36609v 2.35987h 1.36609v -0.208224h 1.36609v 0.034704h 1.36609v 1.17993h 1.36609v 0.0694079h 1.36609v 1.56168h 1.36609v 0.902303h 1.36609v 1.07582h 1.36609v
 1.04112h 1.36609v 1.31875h 1.36609v 0.34704h 1.36609v 1.42286h 1.36609v 0.485855h 1.36609v 0.138816h 1.36609v 1.11053h 1.36609v 0.937007h 1.36609" fill="none" stroke="#ff0000" stroke-width="2"/>
<path d="M59.4606,321.188h 22.6772l 4.53543, -7.21917l 4.53543, 4.69451l 4.53543, -0.877826l 4.53543, -4.32526l 4.53543, -8.94758l 4.53543, -15.6302l 4.53543, -23.548l 4.53543, -30.1588l 4.53543, -31.8822l 4.53543, -26.0035l 4.53543, -13.0183l
 4.53543, 2.2291l 4.53543, 11.8566l 4.53543, 8.70214l 4.53543, -8.63103l 4.53543, -32.0031l 4.53543, -45.5179l 4.53543, -35.4031l 4.53543, -2.2418l 4.53543, 36.9284l 4.53543, 61.3905l 4.53543, 62.4834l 4.53543, 46.9728l 4.53543, 27.6186l 4.53543,
 13.0085l 4.53543, 4.9471l 4.53543, 1.4957l 4.53543, 0.317426l 4.53543, -0.00814326l 4.53543, -0.0816186l 4.53543, -0.0952438l 4.53543, -0.0973285l 4.53543, -0.0975925l 4.53543, -0.0976202l 4.53543, -0.0976226l 4.53543, -0.0976228l 4.53543,
 -0.0976228l 4.53543, -0.0976228l 4.53543, -0.0976228l 4.53543, -0.0976228l 4.53543, -0.0976228l 4.53543, -0.0976228l 4.53543, -0.0976228l 4.53543, -0.0976228" fill="none" stroke="#0000ff" stroke-width="2"/>
<path d="M281.697,316.972l 4.53543, -0.0976228l 4.53543, -0.0976228l 4.53543, -0.0976228l 4.53543, -0.0976228l 4.53543, -0.0976228l 4.53543, -0.0976228l 4.53543, -0.0976228l 4.53543, -0.0976228l 4.53543, -0.0976228l 4.53543, -0.0976228l 4.53543,
 -0.0976228l 4.53543, -0.0976228l 4.53543, -0.0976228l 4.53543, -0.0976228l 4.53543, -0.0976228l 4.53543, -0.0976228l 4.53543, -0.097623l 4.53543, -0.0976255l 4.53543, -0.0976505l 4.53543, -0.0978624l 4.53543, -0.0993477l 4.53543, -0.10794l 4.53543,
 -0.148807l 4.53543, -0.307778l 4.53543, -0.809538l 4.53543, -2.07834l 4.53543, -4.59198l 4.53543, -8.3181l 4.53543, -11.9598l 4.53543, -12.9832l 4.53543, -9.26006l 4.53543, -1.34063l 4.53543, 7.19093l 4.53543, 12.2756l 4.53543, 12.4268l 4.53543,
 9.22795l 4.53543, 5.33028l 4.53543, 2.43738l 4.53543, 0.865407l 4.53543, 0.202362l 4.53543, -0.0206083l 4.53543, -0.0812716l 4.53543, -0.0947449l 4.53543, -0.0972021l 4.53543, -0.0975717l 4.53543, -0.0976176l 4.53543, -0.0976224l 4.53543,
 -0.0976228l 4.53543, -0.0976228" fill="none" stroke="#0000ff" stroke-width="2"/>
<path d="M503.933,312.188l 4.53543, -0.0976228" fill="none" stroke="#0000ff" stroke-width="2"/>
<rect x="351.996" y="23.1969" width="204.094" height="228.401" fill="white"/>
<path d="M351.996,251.598h 204.094" fill="none" stroke="black" stroke-width="2"/>
<path d="M556.091,251.598v -228.401" fill="none" stroke="black" stroke-width="2"/>
<path d="M556.091,23.1969h -204.094" fill="none" stroke="black" stroke-width="2"/>
<path d="M351.996,23.1969v 228.401" fill="none" stroke="black" stroke-width="2"/>
<text x="372.38" y="34.2944" fill="black" font-size="12.0291" font-family="Helvetica">
 / ndf 
</text>
<text x="368.093" y="30.0076" fill="black" font-size="8.18608" font-family="Helvetica">
2
</text>
<text x="361.663" y="34.2944" fill="black" font-size="12.0291" font-family="Times">
&#0967;
</text>
<text x="458.116" y="35.3661" fill="black" font-size="12.0291" font-family="Helvetica">
 1.938e+04 / 318
</text>
<text x="361.663" y="50.3699" fill="black" font-size="12.0291" font-family="Helvetica">
1-Centroid 
</text>
<text x="525.633" y="49.2982" fill="black" font-size="12.0291" font-family="Helvetica">
 0.0
</text>
<text x="519.203" y="49.2982" fill="black" font-size="12.0291" font-family="Times">
&#0177;
</text>
<text x="484.908" y="49.2982" fill="black" font-size="12.0291" font-family="Helvetica">
  1447 
</text>
<text x="361.663" y="66.4454" fill="black" font-size="12.0291" font-family="Helvetica">
1-FWHM   
</text>
<text x="519.203" y="65.3737" fill="black" font-size="12.0291" font-family="Helvetica">
 0.00
</text>
<text x="512.772" y="65.3737" fill="black" font-size="12.0291" font-family="Times">
&#0177;
</text>
<text x="478.478" y="65.3737" fill="black" font-size="12.0291" font-family="Helvetica">
 18.46 
</text>
<text x="361.663" y="81.4492" fill="black" font-size="12.0291" font-family="Helvetica">
1-Counts 
</text>
<text x="488.123" y="80.3775" fill="black" font-size="12.0291" font-family="Helvetica">
 1.339e+01
</text>
<text x="481.693" y="80.3775" fill="black" font-size="12.0291" font-family="Times">
&#0177;
</text>
<text x="421.678" y="80.3775" fill="black" font-size="12.0291" font-family="Helvetica">
 1.443e+05 
</text>
<text x="361.663" y="96.453" fill="black" font-size="12.0291" font-family="Helvetica">
2-Centroid 
</text>
<text x="525.633" y="95.3813" fill="black" font-size="12.0291" font-family="Helvetica">
 0.0
</text>
<text x="519.203" y="95.3813" fill="black" font-size="12.0291" font-family="Times">
&#0177;
</text>
<text x="484.908" y="95.3813" fill="black" font-size="12.0291" font-family="Helvetica">
  1422 
</text>
<text x="361.663" y="111.457" fill="black" font-size="12.0291" font-family="Helvetica">
2-FWHM   
</text>
<text x="519.203" y="110.385" fill="black" font-size="12.0291" font-family="Helvetica">
 0.02
</text>
<text x="512.772" y="110.385" fill="black" font-size="12.0291" font-family="Times">
&#0177;
</text>
<text x="480.621" y="110.385" fill="black" font-size="12.0291" font-family="Helvetica">
 22.71 
</text>
<text x="361.663" y="126.461" fill="black" font-size="12.0291" font-family="Helvetica">
2-Counts 
</text>
<text x="488.123" y="125.389" fill="black" font-size="12.0291" font-family="Helvetica">
 1.256e+01
</text>
<text x="481.693" y="125.389" fill="black" font-size="12.0291" font-family="Times">
&#0177;
</text>
<text x="421.678" y="125.389" fill="black" font-size="12.0291" font-family="Helvetica">
 1.081e+05 
</text>
<text x="361.663" y="142.536" fill="black" font-size="12.0291" font-family="Helvetica">
3-Centroid 
</text>
<text x="525.633" y="141.464" fill="black" font-size="12.0291" font-family="Helvetica">
 0.0
</text>
<text x="519.203" y="141.464" fill="black" font-size="12.0291" font-family="Times">
&#0177;
</text>
<text x="484.908" y="141.464" fill="black" font-size="12.0291" font-family="Helvetica">
  1636 
</text>
<text x="361.663" y="157.54" fill="black" font-size="12.0291" font-family="Helvetica">
3-FWHM   
</text>
<text x="519.203" y="156.468" fill="black" font-size="12.0291" font-family="Helvetica">
 0.00
</text>
<text x="512.772" y="156.468" fill="black" font-size="12.0291" font-family="Times">
&#0177;
</text>
<text x="480.621" y="156.468" fill="black" font-size="12.0291" font-family="Helvetica">
 18.41 
</text>
<text x="361.663" y="172.544" fill="black" font-size="12.0291" font-family="Helvetica">
3-Counts 
</text>
<text x="487.052" y="171.472" fill="black" font-size="12.0291" font-family="Helvetica">
 7.269e+00
</text>
<text x="480.621" y="171.472" fill="black" font-size="12.0291" font-family="Times">
&#0177;
</text>
<text x="419.535" y="171.472" fill="black" font-size="12.0291" font-family="Helvetica">
 2.911e+04 
</text>
<text x="361.663" y="187.547" fill="black" font-size="12.0291" font-family="Helvetica">
4-Centroid 
</text>
<text x="527.776" y="186.476" fill="black" font-size="12.0291" font-family="Helvetica">
 0.1
</text>
<text x="521.346" y="186.476" fill="black" font-size="12.0291" font-family="Times">
&#0177;
</text>
<text x="487.052" y="186.476" fill="black" font-size="12.0291" font-family="Helvetica">
  1369 
</text>
<text x="361.663" y="203.623" fill="black" font-size="12.0291" font-family="Helvetica">
4-FWHM   
</text>
<text x="506.342" y="202.551" fill="black" font-size="12.0291" font-family="Helvetica">
 222.03
</text>
<text x="499.912" y="202.551" fill="black" font-size="12.0291" font-family="Times">
&#0177;
</text>
<text x="465.618" y="202.551" fill="black" font-size="12.0291" font-family="Helvetica">
 15.58 
</text>
<text x="361.663" y="218.627" fill="black" font-size="12.0291" font-family="Helvetica">
4-Counts 
</text>
<text x="487.052" y="217.555" fill="black" font-size="12.0291" font-family="Helvetica">
 9.604e+00
</text>
<text x="480.621" y="217.555" fill="black" font-size="12.0291" font-family="Times">
&#0177;
</text>
<text x="420.606" y="217.555" fill="black" font-size="12.0291" font-family="Helvetica">
 3.102e+05 
</text>
<text x="361.663" y="232.559" fill="black" font-size="12.0291" font-family="Helvetica">
Intercept 
</text>
<text x="525.633" y="232.559" fill="black" font-size="12.0291" font-family="Helvetica">
 0.0
</text>
<text x="519.203" y="232.559" fill="black" font-size="12.0291" font-family="Times">
&#0177;
</text>
<text x="491.338" y="232.559" fill="black" font-size="12.0291" font-family="Helvetica">
1176 
</text>
<text x="484.908" y="232.559" fill="black" font-size="12.0291" font-family="Times">
&#8722;
</text>
<text x="482.765" y="232.559" fill="black" font-size="12.0291" font-family="Helvetica">
 
</text>
<text x="361.663" y="247.563" fill="black" font-size="12.0291" font-family="Helvetica">
Slope    
</text>
<text x="508.486" y="247.563" fill="black" font-size="12.0291" font-family="Helvetica">
 0.0001
</text>
<text x="502.055" y="247.563" fill="black" font-size="12.0291" font-family="Times">
&#0177;
</text>
<text x="461.331" y="247.563" fill="black" font-size="12.0291" font-family="Helvetica">
 0.8473 
</text>
<path d="M57.1929,321.188h 453.543" fill="none" stroke="black" stroke-width="2"/>
<text x="462.403" y="346.159" fill="black" font-size="11.9593" font-family="Helvetica">
Channels
</text>
<path d="M102.274,312.623v 8.56502" fill="none" stroke="black" stroke-width="2"/>
<path d="M129.596,316.906v 4.28251" fill="none" stroke="black" stroke-width="2"/>
<path d="M156.918,316.906v 4.28251" fill="none" stroke="black" stroke-width="2"/>
<path d="M184.24,316.906v 4.28251" fill="none" stroke="black" stroke-width="2"/>
<path d="M211.562,316.906v 4.28251" fill="none" stroke="black" stroke-width="2"/>
<path d="M238.883,312.623v 8.56502" fill="none" stroke="black" stroke-width="2"/>
<path d="M266.205,316.906v 4.28251" fill="none" stroke="black" stroke-width="2"/>
<path d="M293.527,316.906v 4.28251" fill="none" stroke="black" stroke-width="2"/>
<path d="M320.849,316.906v 4.28251" fill="none" stroke="black" stroke-width="2"/>
<path d="M348.171,316.906v 4.28251" fill="none" stroke="black" stroke-width="2"/>
<path d="M375.493,312.623v 8.56502" fill="none" stroke="black" stroke-width="2"/>
<path d="M102.274,312.623v 8.56502" fill="none" stroke="black" stroke-width="2"/>
<path d="M74.9521,316.906v 4.28251" fill="none" stroke="black" stroke-width="2"/>
<path d="M375.493,312.623v 8.56502" fill="none" stroke="black" stroke-width="2"/>
<path d="M402.815,316.906v 4.28251" fill="none" stroke="black" stroke-width="2"/>
<path d="M430.137,316.906v 4.28251" fill="none" stroke="black" stroke-width="2"/>
<path d="M457.459,316.906v 4.28251" fill="none" stroke="black" stroke-width="2"/>
<path d="M484.78,316.906v 4.28251" fill="none" stroke="black" stroke-width="2"/>
<text x="88.3794" y="332.227" fill="black" font-size="11.9593" font-family="Helvetica">
1400
</text>
<text x="225.557" y="332.227" fill="black" font-size="11.9593" font-family="Helvetica">
1500
</text>
<text x="361.663" y="332.227" fill="black" font-size="11.9593" font-family="Helvetica">
1600
</text>
<path d="M57.1929,321.188v -285.501" fill="none" stroke="black" stroke-width="2"/>
<path d="M70.7992,321.188h -13.6063" fill="none" stroke="black" stroke-width="2"/>
<path d="M63.9961,314.248h -6.80315" fill="none" stroke="black" stroke-width="2"/>
<path d="M63.9961,307.307h -6.80315" fill="none" stroke="black" stroke-width="2"/>
<path d="M63.9961,300.366h -6.80315" fill="none" stroke="black" stroke-width="2"/>
<path d="M63.9961,293.425h -6.80315" fill="none" stroke="black" stroke-width="2"/>
<path d="M70.7992,286.484h -13.6063" fill="none" stroke="black" stroke-width="2"/>
<path d="M63.9961,279.544h -6.80315" fill="none" stroke="black" stroke-width="2"/>
<path d="M63.9961,272.603h -6.80315" fill="none" stroke="black" stroke-width="2"/>
<path d="M63.9961,265.662h -6.80315" fill="none" stroke="black" stroke-width="2"/>
<path d="M63.9961,258.721h -6.80315" fill="none" stroke="black" stroke-width="2"/>
<path d="M70.7992,251.78h -13.6063" fill="none" stroke="black" stroke-width="2"/>
<path d="M63.9961,244.84h -6.80315" fill="none" stroke="black" stroke-width="2"/>
<path d="M63.9961,237.899h -6.80315" fill="none" stroke="black" stroke-width="2"/>
<path d="M63.9961,230.958h -6.80315" fill="none" stroke="black" stroke-width="2"/>
<path d="M63.9961,224.017h -6.80315" fill="none" stroke="black" stroke-width="2"/>
<path d="M70.7992,217.077h -13.6063" fill="none" stroke="black" stroke-width="2"/>
<path d="M63.9961,210.136h -6.80315" fill="none" stroke="black" stroke-width="2"/>
<path d="M63.9961,203.195h -6.80315" fill="none" stroke="black" stroke-width="2"/>
<path d="M63.9961,196.254h -6.80315" fill="none" stroke="black" stroke-width="2"/>
<path d="M63.9961,189.313h -6.80315" fill="none" stroke="black" stroke-width="2"/>
<path d="M70.7992,182.373h -13.6063" fill="none" stroke="black" stroke-width="2"/>
<path d="M63.9961,175.432h -6.80315" fill="none" stroke="black" stroke-width="2"/>
<path d="M63.9961,168.491h -6.80315" fill="none" stroke="black" stroke-width="2"/>
<path d="M63.9961,161.55h -6.80315" fill="none" stroke="black" stroke-width="2"/>
<path d="M63.9961,154.609h -6.80315" fill="none" stroke="black" stroke-width="2"/>
<path d="M70.7992,147.669h -13.6063" fill="none" stroke="black" stroke-width="2"/>
<path d="M63.9961,140.728h -6.80315" fill="none" stroke="black" stroke-width="2"/>
<path d="M63.9961,133.787h -6.80315" fill="none" stroke="black" stroke-width="2"/>
<path d="M63.9961,126.846h -6.80315" fill="none" stroke="black" stroke-width="2"/>
<path d="M63.9961,119.905h -6.80315" fill="none" stroke="black" stroke-width="2"/>
<path d="M70.7992,112.965h -13.6063" fill="none" stroke="black" stroke-width="2"/>
<path d="M63.9961,106.024h -6.80315" fill="none" stroke="black" stroke-width="2"/>
<path d="M63.9961,99.0831h -6.80315" fill="none" stroke="black" stroke-width="2"/>
<path d="M63.9961,92.1423h -6.80315" fill="none" stroke="black" stroke-width="2"/>
<path d="M63.9961,85.2015h -6.80315" fill="none" stroke="black" stroke-width="2"/>
<path d="M70.7992,78.2607h -13.6063" fill="none" stroke="black" stroke-width="2"/>
<path d="M63.9961,71.3199h -6.80315" fill="none" stroke="black" stroke-width="2"/>
<path d="M63.9961,64.3791h -6.80315" fill="none" stroke="black" stroke-width="2"/>
<path d="M63.9961,57.4383h -6.80315" fill="none" stroke="black" stroke-width="2"/>
<path d="M63.9961,50.4975h -6.80315" fill="none" stroke="black" stroke-width="2"/>
<path d="M70.7992,43.5567h -13.6063" fill="none" stroke="black" stroke-width="2"/>
<path d="M70.7992,43.5567h -13.6063" fill="none" stroke="black" stroke-width="2"/>
<path d="M63.9961,36.6159h -6.80315" fill="none" stroke="black" stroke-width="2"/>
<text x="47.6548" y="324.725" fill="black" font-size="11.9593" font-family="Helvetica">
0
</text>
<text x="28.3642" y="290.431" fill="black" font-size="11.9593" font-family="Helvetica">
1000
</text>
<text x="28.3642" y="255.065" fill="black" font-size="11.9593" font-family="Helvetica">
2000
</text>
<text x="28.3642" y="220.77" fill="black" font-size="11.9593" font-family="Helvetica">
3000
</text>
<text x="28.3642" y="186.476" fill="black" font-size="11.9593" font-family="Helvetica">
4000
</text>
<text x="28.3642" y="151.11" fill="black" font-size="11.9593" font-family="Helvetica">
5000
</text>
<text x="28.3642" y="116.815" fill="black" font-size="11.9593" font-family="Helvetica">
6000
</text>
<text x="28.3642" y="82.5209" fill="black" font-size="11.9593" font-family="Helvetica">
7000
</text>
<text x="28.3642" y="47.1548" fill="black" font-size="11.9593" font-family="Helvetica">
8000
</text>
<rect x="351.996" y="23.1969" width="204.094" height="228.401" fill="white"/>
<path d="M351.996,251.598h 204.094" fill="none" stroke="black" stroke-width="2"/>
<path d="M556.091,251.598v -228.401" fill="none" stroke="black" stroke-width="2"/>
<path d="M556.091,23.1969h -204.094" fill="none" stroke="black" stroke-width="2"/>
<path d="M351.996,23.1969v 228.401" fill="none" stroke="black" stroke-width="2"/>
<text x="372.38" y="34.2944" fill="black" font-size="12.0291" font-family="Helvetica">
 / ndf 
</text>
<text x="368.093" y="30.0076" fill="black" font-size="8.18608" font-family="Helvetica">
2
</text>
<text x="361.663" y="34.2944" fill="black" font-size="12.0291" font-family="Times">
&#0967;
</text>
<text x="458.116" y="35.3661" fill="black" font-size="12.0291" font-family="Helvetica">
 1.938e+04 / 318
</text>
<text x="361.663" y="50.3699" fill="black" font-size="12.0291" font-family="Helvetica">
1-Centroid 
</text>
<text x="525.633" y="49.2982" fill="black" font-size="12.0291" font-family="Helvetica">
 0.0
</text>
<text x="519.203" y="49.2982" fill="black" font-size="12.0291" font-family="Times">
&#0177;
</text>
<text x="484.908" y="49.2982" fill="black" font-size="12.0291" font-family="Helvetica">
  1447 
</text>
<text x="361.663" y="66.4454" fill="black" font-size="12.0291" font-family="Helvetica">
1-FWHM   
</text>
<text x="519.203" y="65.3737" fill="black" font-size="12.0291" font-family="Helvetica">
 0.00
</text>
<text x="512.772" y="65.3737" fill="black" font-size="12.0291" font-family="Times">
&#0177;
</text>
<text x="478.478" y="65.3737" fill="black" font-size="12.0291" font-family="Helvetica">
 18.46 
</text>
<text x="361.663" y="81.4492" fill="black" font-size="12.0291" font-family="Helvetica">
1-Counts 
</text>
<text x="488.123" y="80.3775" fill="black" font-size="12.0291" font-family="Helvetica">
 1.339e+01
</text>
<text x="481.693" y="80.3775" fill="black" font-size="12.0291" font-family="Times">
&#0177;
</text>
<text x="421.678" y="80.3775" fill="black" font-size="12.0291" font-family="Helvetica">
 1.443e+05 
</text>
<text x="361.663" y="96.453" fill="black" font-size="12.0291" font-family="Helvetica">
2-Centroid 
</text>
<text x="525.633" y="95.3813" fill="black" font-size="12.0291" font-family="Helvetica">
 0.0
</text>
<text x="519.203" y="95.3813" fill="black" font-size="12.0291" font-family="Times">
&#0177;
</text>
<text x="484.908" y="95.3813" fill="black" font-size="12.0291" font-family="Helvetica">
  1422 
</text>
<text x="361.663" y="111.457" fill="black" font-size="12.0291" font-family="Helvetica">
2-FWHM   
</text>
<text x="519.203" y="110.385" fill="black" font-size="12.0291" font-family="Helvetica">
 0.02
</text>
<text x="512.772" y="110.385" fill="black" font-size="12.0291" font-family="Times">
&#0177;
</text>
<text x="480.621" y="110.385" fill="black" font-size="12.0291" font-family="Helvetica">
 22.71 
</text>
<text x="361.663" y="126.461" fill="black" font-size="12.0291" font-family="Helvetica">
2-Counts 
</text>
<text x="488.123" y="125.389" fill="black" font-size="12.0291" font-family="Helvetica">
 1.256e+01
</text>
<text x="481.693" y="125.389" fill="black" font-size="12.0291" font-family="Times">
&#0177;
</text>
<text x="421.678" y="125.389" fill="black" font-size="12.0291" font-family="Helvetica">
 1.081e+05 
</text>
<text x="361.663" y="142.536" fill="black" font-size="12.0291" font-family="Helvetica">
3-Centroid 
</text>
<text x="525.633" y="141.464" fill="black" font-size="12.0291" font-family="Helvetica">
 0.0
</text>
<text x="519.203" y="141.464" fill="black" font-size="12.0291" font-family="Times">
&#0177;
</text>
<text x="484.908" y="141.464" fill="black" font-size="12.0291" font-family="Helvetica">
  1636 
</text>
<text x="361.663" y="157.54" fill="black" font-size="12.0291" font-family="Helvetica">
3-FWHM   
</text>
<text x="519.203" y="156.468" fill="black" font-size="12.0291" font-family="Helvetica">
 0.00
</text>
<text x="512.772" y="156.468" fill="black" font-size="12.0291" font-family="Times">
&#0177;
</text>
<text x="480.621" y="156.468" fill="black" font-size="12.0291" font-family="Helvetica">
 18.41 
</text>
<text x="361.663" y="172.544" fill="black" font-size="12.0291" font-family="Helvetica">
3-Counts 
</text>
<text x="487.052" y="171.472" fill="black" font-size="12.0291" font-family="Helvetica">
 7.269e+00
</text>
<text x="480.621" y="171.472" fill="black" font-size="12.0291" font-family="Times">
&#0177;
</text>
<text x="419.535" y="171.472" fill="black" font-size="12.0291" font-family="Helvetica">
 2.911e+04 
</text>
<text x="361.663" y="187.547" fill="black" font-size="12.0291" font-family="Helvetica">
4-Centroid 
</text>
<text x="527.776" y="186.476" fill="black" font-size="12.0291" font-family="Helvetica">
 0.1
</text>
<text x="521.346" y="186.476" fill="black" font-size="12.0291" font-family="Times">
&#0177;
</text>
<text x="487.052" y="186.476" fill="black" font-size="12.0291" font-family="Helvetica">
  1369 
</text>
<text x="361.663" y="203.623" fill="black" font-size="12.0291" font-family="Helvetica">
4-FWHM   
</text>
<text x="506.342" y="202.551" fill="black" font-size="12.0291" font-family="Helvetica">
 222.03
</text>
<text x="499.912" y="202.551" fill="black" font-size="12.0291" font-family="Times">
&#0177;
</text>
<text x="465.618" y="202.551" fill="black" font-size="12.0291" font-family="Helvetica">
 15.58 
</text>
<text x="361.663" y="218.627" fill="black" font-size="12.0291" font-family="Helvetica">
4-Counts 
</text>
<text x="487.052" y="217.555" fill="black" font-size="12.0291" font-family="Helvetica">
 9.604e+00
</text>
<text x="480.621" y="217.555" fill="black" font-size="12.0291" font-family="Times">
&#0177;
</text>
<text x="420.606" y="217.555" fill="black" font-size="12.0291" font-family="Helvetica">
 3.102e+05 
</text>
<text x="361.663" y="232.559" fill="black" font-size="12.0291" font-family="Helvetica">
Intercept 
</text>
<text x="525.633" y="232.559" fill="black" font-size="12.0291" font-family="Helvetica">
 0.0
</text>
<text x="519.203" y="232.559" fill="black" font-size="12.0291" font-family="Times">
&#0177;
</text>
<text x="491.338" y="232.559" fill="black" font-size="12.0291" font-family="Helvetica">
1176 
</text>
<text x="484.908" y="232.559" fill="black" font-size="12.0291" font-family="Times">
&#8722;
</text>
<text x="482.765" y="232.559" fill="black" font-size="12.0291" font-family="Helvetica">
 
</text>
<text x="361.663" y="247.563" fill="black" font-size="12.0291" font-family="Helvetica">
Slope    
</text>
<text x="508.486" y="247.563" fill="black" font-size="12.0291" font-family="Helvetica">
 0.0001
</text>
<text x="502.055" y="247.563" fill="black" font-size="12.0291" font-family="Times">
&#0177;
</text>
<text x="461.331" y="247.563" fill="black" font-size="12.0291" font-family="Helvetica">
 0.8473 
</text>
<path d="M59.4606,321.188h 58.9606l 4.53543, -0.0590796l 4.53543, -0.245422l 4.53543, -1.00815l 4.53543, -3.42016l 4.53543, -9.53956l 4.53543, -21.7259l 4.53543, -39.9426l 4.53543, -58.0507l 4.53543, -63.7454l 4.53543, -46.3287l 4.53543, -7.89562l
 4.53543, 34.4062l 4.53543, 60.4417l 4.53543, 62.2135l 4.53543, 46.9567l 4.53543, 27.6851l 4.53543, 13.0986l 4.53543, 5.04312l 4.53543, 1.59302l 4.53543, 0.414998l 4.53543, 0.108182h 68.0315" fill="none" stroke="#00ff00" stroke-width="2"/>
<path d="M281.697,321.188h 222.236" fill="none" stroke="#00ff00" stroke-width="2"/>
<path d="M503.933,321.188h 4.53543" fill="none" stroke="#00ff00" stroke-width="2"/>
<path d="M59.4606,321.188h 18.1417l 4.53543, -0.0968771l 4.53543, -0.244918l 4.53543, -0.729816l 4.53543, -1.91403l 4.53543, -4.40641l 4.53543, -8.87167l 4.53543, -15.5345l 4.53543, -23.4494l 4.53543, -30.0529l 4.53543, -31.735l 4.53543, -25.6604l
 4.53543, -11.9125l 4.53543, 5.74688l 4.53543, 21.4938l 4.53543, 30.5257l 4.53543, 31.4091l 4.53543, 26.1453l 4.53543, 18.3252l 4.53543, 11.0232l 4.53543, 5.75145l 4.53543, 2.61987l 4.53543, 1.04634l 4.53543, 0.367488l 4.53543, 0.11374l 4.53543,
 0.0405375h 90.7087" fill="none" stroke="#00ff00" stroke-width="2"/>
<path d="M281.697,321.188h 222.236" fill="none" stroke="#00ff00" stroke-width="2"/>
<path d="M503.933,321.188h 4.53543" fill="none" stroke="#00ff00" stroke-width="2"/>
<path d="M59.4606,321.188h 222.236" fill="none" stroke="#00ff00" stroke-width="2"/>
<path d="M281.697,321.188h 99.7795l 4.53543, -0.0634961l 4.53543, -0.210155l 4.53543, -0.711916l 4.53543, -1.98071l 4.53543, -4.49436l 4.53543, -8.22048l 4.53543, -11.8622l 4.53543, -12.8856l 4.53543, -9.16244l 4.53543, -1.24301l 4.53543, 7.28855l
 4.53543, 12.3732l 4.53543, 12.5244l 4.53543, 9.32557l 4.53543, 5.4279l 4.53543, 2.535l 4.53543, 0.96303l 4.53543, 0.299985l 4.53543, 0.0967211h 36.2835" fill="none" stroke="#00ff00" stroke-width="2"/>
<path d="M503.933,321.188h 4.53543" fill="none" stroke="#00ff00" stroke-width="2"/>
<path d="M68.5315,35.6876l 4.53543, 79.5633l 4.53543, 120.803l 4.53543, 57.744l 4.53543, 20.5323l 4.53543, 5.52195l 4.53543, 1.13382l 4.53543, 0.202698h 190.488" fill="none" stroke="#00ff00" stroke-width="2"/>
<path d="M290.768,321.188h 217.701" fill="none" stroke="#00ff00" stroke-width="2"/>
<text x="195.549" y="17.1472" fill="black" font-size="17.3724" font-family="Helvetica">
vsBiasVoltage/300.Spe
</text></svg>
