<?xml version="1.0" standalone="no"?>
<svg width="567.429" height="396.856" viewBox="0 0 567.429 396.856" xmlns="http://www.w3.org/2000/svg">
<title>
/home/ADF/hyw543/XRay/Resolution/320.svg
</title>
<desc>
Creator: ROOT Version 6.06/08
CreationDate: Fri Mar  1 16:31:44 2019</desc>
<defs>
</defs>
<rect x="0.5" y="0" width="566.929" height="396.356" fill="white"/>
<rect x="57.1929" y="39.6356" width="453.543" height="317.085" fill="white"/>
<rect x="57.1929" y="39.6356" width="453.543" height="317.085" fill="none" stroke="black"/>
<rect x="57.1929" y="39.6356" width="453.543" height="317.085" fill="white"/>
<rect x="57.1929" y="39.6356" width="453.543" height="317.085" fill="none" stroke="black"/>
<path d="M57.1929,345.901h 1.23245v -3.0033h 1.23245v 0.385038h 1.23245v 0.770077h 1.23245v 0.462046h 1.23245v -0.115511h 1.23245v -0.616061h 1.23245v -1.23212h 1.23245v 1.84818h 1.23245v -1.88669h 1.23245v -0.0385038h 1.23245v -1.19362h 1.23245v
 -0.385038h 1.23245v -0.231023h 1.23245v 1.19362h 1.23245v -0.192519h 1.23245v -1.27063h 1.23245v 0.654565h 1.23245v -0.693069h 1.23245v 0.924092h 1.23245v -0.50055h 1.23245v -0.539054h 1.23245v -1.46315h 1.23245v -0.693069h 1.23245v 0.269527h
 1.23245v -0.924092h 1.23245v 0.885588h 1.23245v -2.42574h 1.23245v 0.0385038h 1.23245v -1.61716h 1.23245v -1.15511h 1.23245v -1.46315h 1.23245v -2.34873h 1.23245v -3.34983h 1.23245v -1.34763h 1.23245v -6.73817h 1.23245v -3.92739h 1.23245v -8.39383h
 1.23245v -6.43014h 1.23245v -10.8196h 1.23245v -14.7085h 1.23245v -8.93289h 1.23245v -14.5544h 1.23245v -15.517h 1.23245v -12.6293h 1.23245v -12.9373h 1.23245v -7.93179h 1.23245v -14.67h 1.23245v -9.62596h 1.23245v -5.62156h 1.23245v -2.73377h
 1.23245v 1.50165h 1.23245v -1.9637h 1.23245v 7.46974h 1.23245v 2.19472h 1.23245v 7.97029h 1.23245v 10.9351h 1.23245v 10.8196h 1.23245v 5.08251h 1.23245v 4.08141h 1.23245v 3.42684h 1.23245v -1.19362h 1.23245v -1.9637h 1.23245v -9.54895h 1.23245v
 -4.65896h 1.23245v -15.132h 1.23245v -21.7162h 1.23245v -13.6304h 1.23245v -19.1364h 1.23245v -17.5192h 1.23245v -24.6424h 1.23245v -13.3223h 1.23245v -13.3608h 1.23245v -5.69857h 1.23245v -3.73487h 1.23245v 7.35423h 1.23245v -6.27612h 1.23245v
 14.901h 1.23245v 23.0253h 1.23245v 10.088h 1.23245v 22.7173h 1.23245v 24.1804h 1.23245v 19.3289h 1.23245v 26.5291h 1.23245v 21.1386h 1.23245v 18.4433h 1.23245v 20.6766h 1.23245v 15.7096h 1.23245v 17.2497h 1.23245v 11.6667h 1.23245v 10.8196h 1.23245v
 8.20131h 1.23245v 6.85368h 1.23245v 5.12101h 1.23245v 4.08141h 1.23245v 4.19692h 1.23245v 1.80968h 1.23245v 3.61936h 1.23245v 1.46315h 1.23245v 1.46315h 1.23245v 1.73267h 1.23245v 0.731573h 1.23245v 0.577557h 1.23245v 0.385038h 1.23245v -0.385038h
 1.23245v 0.847084h 1.23245v 0.462046h 2.46491v -0.423542h 1.23245v -0.192519h 1.23245v 0.847084h 1.23245v -0.385038h 1.23245v 0.154015h 1.23245v 0.539054h 1.23245v -0.192519h 1.23245v 0.231023h 1.23245v 0.231023h 1.23245v -0.231023h 1.23245v
 0.231023h 1.23245v -0.50055h 1.23245v 0.346534h 1.23245v -0.154015h 1.23245v 0.423542h 1.23245v 0.0385038h 1.23245v -0.0770077h 1.23245v 0.115511h 1.23245v -0.0770077h 1.23245v 0.577557h 1.23245v -0.539054h 2.46491v 0.269527h 1.23245v -0.462046h
 1.23245v 0.308031h 1.23245v -0.731573h 1.23245v 0.308031h 1.23245v 0.0770077h 1.23245v 0.192519h 2.46491v -0.50055h 1.23245v 0.385038h 1.23245v -0.231023h 1.23245v 0.693069h 1.23245v -0.770077h 1.23245v 0.385038h 1.23245v -0.385038h 1.23245v
 0.693069h 1.23245v -0.231023h 1.23245v -0.0770077h 1.23245v -0.385038h 2.46491v -0.192519h 1.23245v 0.231023h 1.23245v 0.50055h 1.23245v -0.731573h 1.23245v 0.654565h 1.23245v -0.192519h 1.23245v -0.616061h 1.23245v 0.924092h 1.23245v -0.80858h
 1.23245v -0.423542h 1.23245v 0.423542h 1.23245v 0.154015h 1.23245v 0.0385038h 2.46491v -0.654565h 1.23245v 0.770077h 1.23245v 0.0770077h 1.23245v 0.0385038h 1.23245v -0.115511h 1.23245v 0.269527h 1.23245v -0.423542h 1.23245v -0.115511h 1.23245v
 -0.154015h 1.23245v 0.385038h 1.23245v 0.231023h 1.23245v -0.731573h 1.23245v 0.50055h 1.23245v -0.385038h 1.23245v 0.154015h 1.23245v -0.885588h 1.23245v 1.07811h 1.23245v -0.385038h 1.23245v -0.616061h 1.23245v 0.154015h 1.23245v 0.423542h
 1.23245v -0.0770077h 1.23245v 0.385038h 1.23245v -0.462046h 1.23245v 0.385038h 1.23245v -0.80858h 1.23245v 0.192519h 1.23245v 0.154015h 1.23245v 0.192519h 1.23245v -0.308031h 1.23245v -0.654565h 1.23245v 0.731573h 1.23245v -0.616061h 1.23245v
 -0.154015h 1.23245v -0.115511h 1.23245v -0.0385038h 1.23245v 0.192519h 1.23245v 0.154015h 1.23245v 0.346534h 1.23245v -0.0770077h 1.23245v -0.154015h 1.23245v -0.50055h 1.23245v -0.154015h 1.23245v 0.0385038h 2.46491v -0.462046h 1.23245v 0.115511h
 1.23245v -0.0385038h 1.23245v 0.115511h 1.23245v -0.0385038h 1.23245v 0.231023h 1.23245v -0.885588h 1.23245v 0.115511h 1.23245v 0.346534h 1.23245v 0.154015h 1.23245v -0.462046h 1.23245v -0.346534h 1.23245v 0.0385038h 2.46491v -0.770077h 1.23245v
 0.731573h 1.23245v -0.192519h 1.23245v 0.308031h 1.23245v 0.115511h 1.23245v -0.192519h 1.23245v 0.231023h 1.23245v -0.0385038h 1.23245v -0.0770077h 1.23245v -0.885588h 1.23245v -0.308031h 1.23245v 1.34763h 1.23245v -0.693069h 1.23245v -1.07811h
 1.23245v 0.924092h 1.23245v -0.346534h 1.23245v -0.346534h 1.23245v -0.423542h 1.23245v -0.231023h 1.23245v -0.693069h 1.23245v -0.539054h 1.23245v -0.0770077h 1.23245v -0.50055h 1.23245v -1.50165h 1.23245v -1.42464h 1.23245v -1.57866h 1.23245v
 -2.0407h 1.23245v -1.42464h 1.23245v -5.0055h 1.23245v -2.0022h 1.23245v -4.65896h 1.23245v -3.15731h 1.23245v -7.93179h 1.23245v -3.23432h 1.23245v -1.54015h 1.23245v -8.39383h 1.23245v -5.08251h 1.23245v -2.73377h 1.23245v -4.0044h 1.23245v
 -1.88669h 1.23245v -4.85148h 1.23245v 2.38724h 1.23245v -5.0055h 1.23245v 5.39054h 1.23245v -0.192519h 1.23245v 4.96699h 1.23245v 2.07921h 1.23245v 5.15951h 1.23245v 2.31023h 1.23245v 6.19912h 1.23245v 6.12211h 1.23245v 2.57976h 1.23245v 3.88889h
 1.23245v 5.89109h 1.23245v 5.044h 1.23245v 2.27173h 1.23245v 3.61936h 1.23245v 1.54015h 1.23245v 3.50385h 1.23245v 2.0022h 1.23245v 1.65566h 1.23245v 0.154015h 1.23245v 2.84928h 1.23245v 1.23212h 1.23245v 0.115511h 1.23245v 0.847084h 1.23245v
 0.616061h 2.46491v -0.577557h 1.23245v 0.731573h 1.23245v -0.770077h 2.46491v -0.192519h 1.23245v -0.924092h 1.23245v -0.115511h 1.23245v -1.42464h 1.23245v -1.42464h 1.23245v -0.308031h 1.23245v -2.38724h 1.23245v -0.192519h 1.23245v -1.73267h
 1.23245v 0.154015h 1.23245v -1.50165h 1.23245v -0.616061h 1.23245v -0.269527h 1.23245v -0.924092h 1.23245v -1.69417h 1.23245v 1.84818h 1.23245v 0.80858h 1.23245v -0.962596h 1.23245v 0.654565h 1.23245v 0.231023h 1.23245v 2.69527h 1.23245v 0.231023h
 1.23245v 0.770077h 1.23245v 1.54015h 1.23245v 0.308031h 1.23245v 1.88669h 1.23245v 0.924092h 1.23245v 1.19362h 1.23245v 0.192519h 1.23245v 1.15511h 1.23245v 1.30913h 1.23245v -0.385038h 1.23245v 1.34763h 1.23245v 0.539054h 1.23245v 0.308031h
 1.23245v 0.269527h 1.23245v 0.231023h 2.46491v 0.654565h 1.23245v -0.154015h 1.23245v 0.308031h 1.23245v -0.0770077h 1.23245v 0.231023h 1.23245v 0.154015h 1.23245v 0.346534h 1.23245v -0.231023h 1.23245v -0.269527h 1.23245v 0.115511h 1.23245v
 0.0385038h 1.23245v 0.192519h 1.23245v -0.115511h 1.23245v 0.154015h 1.23245v -0.0385038h 1.23245v 0.115511h 1.23245v -0.115511h 1.23245v 0.192519h 1.23245v -0.154015h 1.23245v -0.154015h 1.23245v 0.115511h 1.23245v 0.115511h 1.23245v -0.231023h
 1.23245v -0.0770077h 2.46491v 0.154015h 1.23245v 0.0385038h 1.23245v -0.154015h 1.23245v 0.269527h 1.23245v -0.0770077h 1.23245v 0.0770077h 1.23245v -0.269527h 1.23245v 0.154015h 1.23245v 0.154015h 1.23245v -0.385038h 1.23245" fill="none"
 stroke="#ff0000" stroke-width="2"/>
<path d="M59.4606,350.27l 4.53543, 0.0632934l 4.53543, 0.061124l 4.53543, 0.0482575l 4.53543, -0.0153295l 4.53543, -0.276103l 4.53543, -1.1583l 4.53543, -3.59806l 4.53543, -9.03294l 4.53543, -18.5245l 4.53543, -30.7692l 4.53543, -40.4286l 4.53543,
 -39.75l 4.53543, -24.5724l 4.53543, -0.529854l 4.53543, 17.2288l 4.53543, 12.9714l 4.53543, -16.2913l 4.53543, -51.7201l 4.53543, -60.4673l 4.53543, -24.5126l 4.53543, 35.8116l 4.53543, 78.3307l 4.53543, 80.7371l 4.53543, 55.6912l 4.53543, 27.9524l
 4.53543, 10.5731l 4.53543, 3.09023l 4.53543, 0.736053l 4.53543, 0.17956l 4.53543, 0.0792053l 4.53543, 0.0652715l 4.53543, 0.063773l 4.53543, 0.0636477l 4.53543, 0.0636395l 4.53543, 0.0636391l 4.53543, 0.0636391l 4.53543, 0.0636391l 4.53543,
 0.0636391l 4.53543, 0.0636391l 4.53543, 0.0636391l 4.53543, 0.0636391l 4.53543, 0.0636391l 4.53543, 0.0636391l 4.53543, 0.0636391l 4.53543, 0.0636391l 4.53543, 0.0636391l 4.53543, 0.0636391l 4.53543, 0.0636391l 4.53543, 0.0636391" fill="none"
 stroke="#0000ff" stroke-width="2"/>
<path d="M281.697,353.389l 4.53543, 0.0636391l 4.53543, 0.0636391l 4.53543, 0.0636391l 4.53543, 0.0636391l 4.53543, 0.0636391l 4.53543, 0.063639l 4.53543, 0.0636388l 4.53543, 0.0636366l 4.53543, 0.0636156l 4.53543, 0.0634515l 4.53543, 0.0623696l
 4.53543, 0.0563625l 4.53543, 0.0283596l 4.53543, -0.0807933l 4.53543, -0.434505l 4.53543, -1.37907l 4.53543, -3.42829l 4.53543, -6.94749l 4.53543, -11.4697l 4.53543, -15.1234l 4.53543, -15.1358l 4.53543, -9.75826l 4.53543, -0.227702l 4.53543,
 9.43236l 4.53543, 15.105l 4.53543, 15.3564l 4.53543, 11.7822l 4.53543, 7.09198l 4.53543, 3.11121l 4.53543, 0.236367l 4.53543, -1.86914l 4.53543, -3.36396l 4.53543, -3.88102l 4.53543, -2.9363l 4.53543, -0.658007l 4.53543, 1.96849l 4.53543, 3.71523l
 4.53543, 4.00152l 4.53543, 3.16572l 4.53543, 1.97674l 4.53543, 1.01427l 4.53543, 0.449892l 4.53543, 0.193069l 4.53543, 0.0996012l 4.53543, 0.0719542l 4.53543, 0.0652431l 4.53543, 0.0638977l 4.53543, 0.063674l 4.53543, 0.063643" fill="none"
 stroke="#0000ff" stroke-width="2"/>
<path d="M503.933,356.507l 4.53543, 0.0636394" fill="none" stroke="#0000ff" stroke-width="2"/>
<rect x="351.996" y="25.7631" width="204.094" height="253.668" fill="white"/>
<path d="M351.996,279.431h 204.094" fill="none" stroke="black" stroke-width="2"/>
<path d="M556.091,279.431v -253.668" fill="none" stroke="black" stroke-width="2"/>
<path d="M556.091,25.7631h -204.094" fill="none" stroke="black" stroke-width="2"/>
<path d="M351.996,25.7631v 253.668" fill="none" stroke="black" stroke-width="2"/>
<text x="372.135" y="37.9051" fill="black" font-size="11.7939" font-family="Helvetica">
 / ndf 
</text>
<text x="368.015" y="33.785" fill="black" font-size="8.02924" font-family="Helvetica">
2
</text>
<text x="361.423" y="37.9051" fill="black" font-size="11.7939" font-family="Times">
&#0967;
</text>
<text x="485.851" y="38.7292" fill="black" font-size="11.7939" font-family="Helvetica">
  7511 / 354
</text>
<text x="361.423" y="56.0337" fill="black" font-size="11.7939" font-family="Helvetica">
1-Centroid 
</text>
<text x="528.7" y="55.2097" fill="black" font-size="11.7939" font-family="Helvetica">
 0.1
</text>
<text x="522.108" y="55.2097" fill="black" font-size="11.7939" font-family="Times">
&#0177;
</text>
<text x="488.323" y="55.2097" fill="black" font-size="11.7939" font-family="Helvetica">
  1423 
</text>
<text x="361.423" y="72.5142" fill="black" font-size="11.7939" font-family="Helvetica">
1-FWHM   
</text>
<text x="520.46" y="71.6902" fill="black" font-size="11.7939" font-family="Helvetica">
 0.15
</text>
<text x="513.867" y="71.6902" fill="black" font-size="11.7939" font-family="Times">
&#0177;
</text>
<text x="480.082" y="71.6902" fill="black" font-size="11.7939" font-family="Helvetica">
 21.06 
</text>
<text x="361.423" y="89.8187" fill="black" font-size="11.7939" font-family="Helvetica">
1-Counts 
</text>
<text x="488.323" y="88.9947" fill="black" font-size="11.7939" font-family="Helvetica">
 6.388e+02
</text>
<text x="481.731" y="88.9947" fill="black" font-size="11.7939" font-family="Times">
&#0177;
</text>
<text x="422.401" y="88.9947" fill="black" font-size="11.7939" font-family="Helvetica">
 9.942e+04 
</text>
<text x="361.423" y="106.299" fill="black" font-size="11.7939" font-family="Helvetica">
2-Centroid 
</text>
<text x="527.052" y="105.475" fill="black" font-size="11.7939" font-family="Helvetica">
 0.0
</text>
<text x="520.46" y="105.475" fill="black" font-size="11.7939" font-family="Times">
&#0177;
</text>
<text x="486.675" y="105.475" fill="black" font-size="11.7939" font-family="Helvetica">
  1447 
</text>
<text x="361.423" y="123.604" fill="black" font-size="11.7939" font-family="Helvetica">
2-FWHM   
</text>
<text x="520.46" y="122.78" fill="black" font-size="11.7939" font-family="Helvetica">
 0.07
</text>
<text x="513.867" y="122.78" fill="black" font-size="11.7939" font-family="Times">
&#0177;
</text>
<text x="480.082" y="122.78" fill="black" font-size="11.7939" font-family="Helvetica">
 17.66 
</text>
<text x="361.423" y="140.084" fill="black" font-size="11.7939" font-family="Helvetica">
2-Counts 
</text>
<text x="494.915" y="139.26" fill="black" font-size="11.7939" font-family="Helvetica">
 6.65e+02
</text>
<text x="488.323" y="139.26" fill="black" font-size="11.7939" font-family="Times">
&#0177;
</text>
<text x="435.585" y="139.26" fill="black" font-size="11.7939" font-family="Helvetica">
 1.41e+05 
</text>
<text x="361.423" y="157.389" fill="black" font-size="11.7939" font-family="Helvetica">
3-Centroid 
</text>
<text x="528.7" y="156.565" fill="black" font-size="11.7939" font-family="Helvetica">
 0.1
</text>
<text x="522.108" y="156.565" fill="black" font-size="11.7939" font-family="Times">
&#0177;
</text>
<text x="488.323" y="156.565" fill="black" font-size="11.7939" font-family="Helvetica">
  1637 
</text>
<text x="361.423" y="173.869" fill="black" font-size="11.7939" font-family="Helvetica">
3-FWHM   
</text>
<text x="522.108" y="173.045" fill="black" font-size="11.7939" font-family="Helvetica">
 0.11
</text>
<text x="515.516" y="173.045" fill="black" font-size="11.7939" font-family="Times">
&#0177;
</text>
<text x="481.731" y="173.045" fill="black" font-size="11.7939" font-family="Helvetica">
 21.55 
</text>
<text x="361.423" y="191.174" fill="black" font-size="11.7939" font-family="Helvetica">
3-Counts 
</text>
<text x="494.915" y="190.35" fill="black" font-size="11.7939" font-family="Helvetica">
 2.08e+02
</text>
<text x="488.323" y="190.35" fill="black" font-size="11.7939" font-family="Times">
&#0177;
</text>
<text x="434.761" y="190.35" fill="black" font-size="11.7939" font-family="Helvetica">
 3.93e+04 
</text>
<text x="361.423" y="207.654" fill="black" font-size="11.7939" font-family="Helvetica">
4-Centroid 
</text>
<text x="528.7" y="206.83" fill="black" font-size="11.7939" font-family="Helvetica">
 0.1
</text>
<text x="522.108" y="206.83" fill="black" font-size="11.7939" font-family="Times">
&#0177;
</text>
<text x="488.323" y="206.83" fill="black" font-size="11.7939" font-family="Helvetica">
  1682 
</text>
<text x="361.423" y="224.959" fill="black" font-size="11.7939" font-family="Helvetica">
4-FWHM   
</text>
<text x="520.46" y="224.135" fill="black" font-size="11.7939" font-family="Helvetica">
 0.24
</text>
<text x="513.867" y="224.135" fill="black" font-size="11.7939" font-family="Times">
&#0177;
</text>
<text x="481.731" y="224.135" fill="black" font-size="11.7939" font-family="Helvetica">
 20.81 
</text>
<text x="361.423" y="241.439" fill="black" font-size="11.7939" font-family="Helvetica">
4-Counts 
</text>
<text x="513.867" y="240.615" fill="black" font-size="11.7939" font-family="Helvetica">
 110.2
</text>
<text x="507.275" y="240.615" fill="black" font-size="11.7939" font-family="Times">
&#0177;
</text>
<text x="473.49" y="240.615" fill="black" font-size="11.7939" font-family="Helvetica">
  9279 
</text>
<text x="361.423" y="257.096" fill="black" font-size="11.7939" font-family="Helvetica">
Intercept 
</text>
<text x="526.228" y="257.92" fill="black" font-size="11.7939" font-family="Helvetica">
 0.4
</text>
<text x="519.636" y="257.92" fill="black" font-size="11.7939" font-family="Times">
&#0177;
</text>
<text x="485.851" y="257.92" fill="black" font-size="11.7939" font-family="Helvetica">
 784.5 
</text>
<text x="361.423" y="273.576" fill="black" font-size="11.7939" font-family="Helvetica">
Slope    
</text>
<text x="507.275" y="274.4" fill="black" font-size="11.7939" font-family="Helvetica">
 0.0002
</text>
<text x="500.683" y="274.4" fill="black" font-size="11.7939" font-family="Times">
&#0177;
</text>
<text x="465.25" y="274.4" fill="black" font-size="11.7939" font-family="Helvetica">
0.4491 
</text>
<text x="458.658" y="274.4" fill="black" font-size="11.7939" font-family="Times">
&#8722;
</text>
<text x="456.186" y="274.4" fill="black" font-size="11.7939" font-family="Helvetica">
 
</text>
<path d="M57.1929,356.72h 453.543" fill="none" stroke="black" stroke-width="2"/>
<text x="456.186" y="383.172" fill="black" font-size="13.227" font-family="Helvetica">
Channels
</text>
<path d="M91.7016,347.208v 9.51254" fill="none" stroke="black" stroke-width="2"/>
<path d="M116.351,351.964v 4.75627" fill="none" stroke="black" stroke-width="2"/>
<path d="M141,351.964v 4.75627" fill="none" stroke="black" stroke-width="2"/>
<path d="M165.649,351.964v 4.75627" fill="none" stroke="black" stroke-width="2"/>
<path d="M190.298,351.964v 4.75627" fill="none" stroke="black" stroke-width="2"/>
<path d="M214.947,347.208v 9.51254" fill="none" stroke="black" stroke-width="2"/>
<path d="M239.596,351.964v 4.75627" fill="none" stroke="black" stroke-width="2"/>
<path d="M264.245,351.964v 4.75627" fill="none" stroke="black" stroke-width="2"/>
<path d="M288.894,351.964v 4.75627" fill="none" stroke="black" stroke-width="2"/>
<path d="M313.543,351.964v 4.75627" fill="none" stroke="black" stroke-width="2"/>
<path d="M338.193,347.208v 9.51254" fill="none" stroke="black" stroke-width="2"/>
<path d="M362.842,351.964v 4.75627" fill="none" stroke="black" stroke-width="2"/>
<path d="M387.491,351.964v 4.75627" fill="none" stroke="black" stroke-width="2"/>
<path d="M412.14,351.964v 4.75627" fill="none" stroke="black" stroke-width="2"/>
<path d="M436.789,351.964v 4.75627" fill="none" stroke="black" stroke-width="2"/>
<path d="M461.438,347.208v 9.51254" fill="none" stroke="black" stroke-width="2"/>
<path d="M91.7016,347.208v 9.51254" fill="none" stroke="black" stroke-width="2"/>
<path d="M67.0526,351.964v 4.75627" fill="none" stroke="black" stroke-width="2"/>
<path d="M461.438,347.208v 9.51254" fill="none" stroke="black" stroke-width="2"/>
<path d="M486.087,351.964v 4.75627" fill="none" stroke="black" stroke-width="2"/>
<text x="76.3103" y="369.163" fill="black" font-size="13.227" font-family="Helvetica">
1400
</text>
<text x="199.914" y="369.163" fill="black" font-size="13.227" font-family="Helvetica">
1500
</text>
<text x="322.694" y="369.163" fill="black" font-size="13.227" font-family="Helvetica">
1600
</text>
<text x="446.297" y="369.163" fill="black" font-size="13.227" font-family="Helvetica">
1700
</text>
<path d="M57.1929,356.72v -317.085" fill="none" stroke="black" stroke-width="2"/>
<path d="M70.7992,356.72h -13.6063" fill="none" stroke="black" stroke-width="2"/>
<path d="M63.9961,349.02h -6.80315" fill="none" stroke="black" stroke-width="2"/>
<path d="M63.9961,341.319h -6.80315" fill="none" stroke="black" stroke-width="2"/>
<path d="M63.9961,333.618h -6.80315" fill="none" stroke="black" stroke-width="2"/>
<path d="M63.9961,325.917h -6.80315" fill="none" stroke="black" stroke-width="2"/>
<path d="M70.7992,318.217h -13.6063" fill="none" stroke="black" stroke-width="2"/>
<path d="M63.9961,310.516h -6.80315" fill="none" stroke="black" stroke-width="2"/>
<path d="M63.9961,302.815h -6.80315" fill="none" stroke="black" stroke-width="2"/>
<path d="M63.9961,295.114h -6.80315" fill="none" stroke="black" stroke-width="2"/>
<path d="M63.9961,287.413h -6.80315" fill="none" stroke="black" stroke-width="2"/>
<path d="M70.7992,279.713h -13.6063" fill="none" stroke="black" stroke-width="2"/>
<path d="M63.9961,272.012h -6.80315" fill="none" stroke="black" stroke-width="2"/>
<path d="M63.9961,264.311h -6.80315" fill="none" stroke="black" stroke-width="2"/>
<path d="M63.9961,256.61h -6.80315" fill="none" stroke="black" stroke-width="2"/>
<path d="M63.9961,248.91h -6.80315" fill="none" stroke="black" stroke-width="2"/>
<path d="M70.7992,241.209h -13.6063" fill="none" stroke="black" stroke-width="2"/>
<path d="M63.9961,233.508h -6.80315" fill="none" stroke="black" stroke-width="2"/>
<path d="M63.9961,225.807h -6.80315" fill="none" stroke="black" stroke-width="2"/>
<path d="M63.9961,218.107h -6.80315" fill="none" stroke="black" stroke-width="2"/>
<path d="M63.9961,210.406h -6.80315" fill="none" stroke="black" stroke-width="2"/>
<path d="M70.7992,202.705h -13.6063" fill="none" stroke="black" stroke-width="2"/>
<path d="M63.9961,195.004h -6.80315" fill="none" stroke="black" stroke-width="2"/>
<path d="M63.9961,187.304h -6.80315" fill="none" stroke="black" stroke-width="2"/>
<path d="M63.9961,179.603h -6.80315" fill="none" stroke="black" stroke-width="2"/>
<path d="M63.9961,171.902h -6.80315" fill="none" stroke="black" stroke-width="2"/>
<path d="M70.7992,164.201h -13.6063" fill="none" stroke="black" stroke-width="2"/>
<path d="M63.9961,156.5h -6.80315" fill="none" stroke="black" stroke-width="2"/>
<path d="M63.9961,148.8h -6.80315" fill="none" stroke="black" stroke-width="2"/>
<path d="M63.9961,141.099h -6.80315" fill="none" stroke="black" stroke-width="2"/>
<path d="M63.9961,133.398h -6.80315" fill="none" stroke="black" stroke-width="2"/>
<path d="M70.7992,125.697h -13.6063" fill="none" stroke="black" stroke-width="2"/>
<path d="M63.9961,117.997h -6.80315" fill="none" stroke="black" stroke-width="2"/>
<path d="M63.9961,110.296h -6.80315" fill="none" stroke="black" stroke-width="2"/>
<path d="M63.9961,102.595h -6.80315" fill="none" stroke="black" stroke-width="2"/>
<path d="M63.9961,94.8944h -6.80315" fill="none" stroke="black" stroke-width="2"/>
<path d="M70.7992,87.1936h -13.6063" fill="none" stroke="black" stroke-width="2"/>
<path d="M63.9961,79.4928h -6.80315" fill="none" stroke="black" stroke-width="2"/>
<path d="M63.9961,71.7921h -6.80315" fill="none" stroke="black" stroke-width="2"/>
<path d="M63.9961,64.0913h -6.80315" fill="none" stroke="black" stroke-width="2"/>
<path d="M63.9961,56.3905h -6.80315" fill="none" stroke="black" stroke-width="2"/>
<path d="M70.7992,48.6898h -13.6063" fill="none" stroke="black" stroke-width="2"/>
<path d="M70.7992,48.6898h -13.6063" fill="none" stroke="black" stroke-width="2"/>
<path d="M63.9961,40.989h -6.80315" fill="none" stroke="black" stroke-width="2"/>
<text x="46.6454" y="360.923" fill="black" font-size="13.227" font-family="Helvetica">
0
</text>
<text x="25.2207" y="323.018" fill="black" font-size="13.227" font-family="Helvetica">
1000
</text>
<text x="25.2207" y="284.289" fill="black" font-size="13.227" font-family="Helvetica">
2000
</text>
<text x="25.2207" y="245.559" fill="black" font-size="13.227" font-family="Helvetica">
3000
</text>
<text x="25.2207" y="206.83" fill="black" font-size="13.227" font-family="Helvetica">
4000
</text>
<text x="25.2207" y="168.925" fill="black" font-size="13.227" font-family="Helvetica">
5000
</text>
<text x="25.2207" y="130.196" fill="black" font-size="13.227" font-family="Helvetica">
6000
</text>
<text x="25.2207" y="91.4668" fill="black" font-size="13.227" font-family="Helvetica">
7000
</text>
<text x="25.2207" y="53.5616" fill="black" font-size="13.227" font-family="Helvetica">
8000
</text>
<rect x="351.996" y="25.7631" width="204.094" height="253.668" fill="white"/>
<path d="M351.996,279.431h 204.094" fill="none" stroke="black" stroke-width="2"/>
<path d="M556.091,279.431v -253.668" fill="none" stroke="black" stroke-width="2"/>
<path d="M556.091,25.7631h -204.094" fill="none" stroke="black" stroke-width="2"/>
<path d="M351.996,25.7631v 253.668" fill="none" stroke="black" stroke-width="2"/>
<text x="372.135" y="37.9051" fill="black" font-size="11.7939" font-family="Helvetica">
 / ndf 
</text>
<text x="368.015" y="33.785" fill="black" font-size="8.02924" font-family="Helvetica">
2
</text>
<text x="361.423" y="37.9051" fill="black" font-size="11.7939" font-family="Times">
&#0967;
</text>
<text x="485.851" y="38.7292" fill="black" font-size="11.7939" font-family="Helvetica">
  7511 / 354
</text>
<text x="361.423" y="56.0337" fill="black" font-size="11.7939" font-family="Helvetica">
1-Centroid 
</text>
<text x="528.7" y="55.2097" fill="black" font-size="11.7939" font-family="Helvetica">
 0.1
</text>
<text x="522.108" y="55.2097" fill="black" font-size="11.7939" font-family="Times">
&#0177;
</text>
<text x="488.323" y="55.2097" fill="black" font-size="11.7939" font-family="Helvetica">
  1423 
</text>
<text x="361.423" y="72.5142" fill="black" font-size="11.7939" font-family="Helvetica">
1-FWHM   
</text>
<text x="520.46" y="71.6902" fill="black" font-size="11.7939" font-family="Helvetica">
 0.15
</text>
<text x="513.867" y="71.6902" fill="black" font-size="11.7939" font-family="Times">
&#0177;
</text>
<text x="480.082" y="71.6902" fill="black" font-size="11.7939" font-family="Helvetica">
 21.06 
</text>
<text x="361.423" y="89.8187" fill="black" font-size="11.7939" font-family="Helvetica">
1-Counts 
</text>
<text x="488.323" y="88.9947" fill="black" font-size="11.7939" font-family="Helvetica">
 6.388e+02
</text>
<text x="481.731" y="88.9947" fill="black" font-size="11.7939" font-family="Times">
&#0177;
</text>
<text x="422.401" y="88.9947" fill="black" font-size="11.7939" font-family="Helvetica">
 9.942e+04 
</text>
<text x="361.423" y="106.299" fill="black" font-size="11.7939" font-family="Helvetica">
2-Centroid 
</text>
<text x="527.052" y="105.475" fill="black" font-size="11.7939" font-family="Helvetica">
 0.0
</text>
<text x="520.46" y="105.475" fill="black" font-size="11.7939" font-family="Times">
&#0177;
</text>
<text x="486.675" y="105.475" fill="black" font-size="11.7939" font-family="Helvetica">
  1447 
</text>
<text x="361.423" y="123.604" fill="black" font-size="11.7939" font-family="Helvetica">
2-FWHM   
</text>
<text x="520.46" y="122.78" fill="black" font-size="11.7939" font-family="Helvetica">
 0.07
</text>
<text x="513.867" y="122.78" fill="black" font-size="11.7939" font-family="Times">
&#0177;
</text>
<text x="480.082" y="122.78" fill="black" font-size="11.7939" font-family="Helvetica">
 17.66 
</text>
<text x="361.423" y="140.084" fill="black" font-size="11.7939" font-family="Helvetica">
2-Counts 
</text>
<text x="494.915" y="139.26" fill="black" font-size="11.7939" font-family="Helvetica">
 6.65e+02
</text>
<text x="488.323" y="139.26" fill="black" font-size="11.7939" font-family="Times">
&#0177;
</text>
<text x="435.585" y="139.26" fill="black" font-size="11.7939" font-family="Helvetica">
 1.41e+05 
</text>
<text x="361.423" y="157.389" fill="black" font-size="11.7939" font-family="Helvetica">
3-Centroid 
</text>
<text x="528.7" y="156.565" fill="black" font-size="11.7939" font-family="Helvetica">
 0.1
</text>
<text x="522.108" y="156.565" fill="black" font-size="11.7939" font-family="Times">
&#0177;
</text>
<text x="488.323" y="156.565" fill="black" font-size="11.7939" font-family="Helvetica">
  1637 
</text>
<text x="361.423" y="173.869" fill="black" font-size="11.7939" font-family="Helvetica">
3-FWHM   
</text>
<text x="522.108" y="173.045" fill="black" font-size="11.7939" font-family="Helvetica">
 0.11
</text>
<text x="515.516" y="173.045" fill="black" font-size="11.7939" font-family="Times">
&#0177;
</text>
<text x="481.731" y="173.045" fill="black" font-size="11.7939" font-family="Helvetica">
 21.55 
</text>
<text x="361.423" y="191.174" fill="black" font-size="11.7939" font-family="Helvetica">
3-Counts 
</text>
<text x="494.915" y="190.35" fill="black" font-size="11.7939" font-family="Helvetica">
 2.08e+02
</text>
<text x="488.323" y="190.35" fill="black" font-size="11.7939" font-family="Times">
&#0177;
</text>
<text x="434.761" y="190.35" fill="black" font-size="11.7939" font-family="Helvetica">
 3.93e+04 
</text>
<text x="361.423" y="207.654" fill="black" font-size="11.7939" font-family="Helvetica">
4-Centroid 
</text>
<text x="528.7" y="206.83" fill="black" font-size="11.7939" font-family="Helvetica">
 0.1
</text>
<text x="522.108" y="206.83" fill="black" font-size="11.7939" font-family="Times">
&#0177;
</text>
<text x="488.323" y="206.83" fill="black" font-size="11.7939" font-family="Helvetica">
  1682 
</text>
<text x="361.423" y="224.959" fill="black" font-size="11.7939" font-family="Helvetica">
4-FWHM   
</text>
<text x="520.46" y="224.135" fill="black" font-size="11.7939" font-family="Helvetica">
 0.24
</text>
<text x="513.867" y="224.135" fill="black" font-size="11.7939" font-family="Times">
&#0177;
</text>
<text x="481.731" y="224.135" fill="black" font-size="11.7939" font-family="Helvetica">
 20.81 
</text>
<text x="361.423" y="241.439" fill="black" font-size="11.7939" font-family="Helvetica">
4-Counts 
</text>
<text x="513.867" y="240.615" fill="black" font-size="11.7939" font-family="Helvetica">
 110.2
</text>
<text x="507.275" y="240.615" fill="black" font-size="11.7939" font-family="Times">
&#0177;
</text>
<text x="473.49" y="240.615" fill="black" font-size="11.7939" font-family="Helvetica">
  9279 
</text>
<text x="361.423" y="257.096" fill="black" font-size="11.7939" font-family="Helvetica">
Intercept 
</text>
<text x="526.228" y="257.92" fill="black" font-size="11.7939" font-family="Helvetica">
 0.4
</text>
<text x="519.636" y="257.92" fill="black" font-size="11.7939" font-family="Times">
&#0177;
</text>
<text x="485.851" y="257.92" fill="black" font-size="11.7939" font-family="Helvetica">
 784.5 
</text>
<text x="361.423" y="273.576" fill="black" font-size="11.7939" font-family="Helvetica">
Slope    
</text>
<text x="507.275" y="274.4" fill="black" font-size="11.7939" font-family="Helvetica">
 0.0002
</text>
<text x="500.683" y="274.4" fill="black" font-size="11.7939" font-family="Times">
&#0177;
</text>
<text x="465.25" y="274.4" fill="black" font-size="11.7939" font-family="Helvetica">
0.4491 
</text>
<text x="458.658" y="274.4" fill="black" font-size="11.7939" font-family="Times">
&#8722;
</text>
<text x="456.186" y="274.4" fill="black" font-size="11.7939" font-family="Helvetica">
 
</text>
<path d="M59.4606,356.72h 13.6063l 4.53543, -0.097255l 4.53543, -0.339742l 4.53543, -1.22194l 4.53543, -3.66169l 4.53543, -9.09657l 4.53543, -18.588l 4.53543, -30.8312l 4.53543, -40.4766l 4.53543, -39.6968l 4.53543, -23.9594l 4.53543, 2.44894l
 4.53543, 27.7179l 4.53543, 40.8751l 4.53543, 39.3277l 4.53543, 28.681l 4.53543, 16.6521l 4.53543, 7.87056l 4.53543, 3.06493l 4.53543, 0.990475l 4.53543, 0.266869l 4.53543, 0.0735733h 113.386" fill="none" stroke="#00ff00" stroke-width="2"/>
<path d="M281.697,356.72h 222.236" fill="none" stroke="#00ff00" stroke-width="2"/>
<path d="M503.933,356.72h 4.53543" fill="none" stroke="#00ff00" stroke-width="2"/>
<path d="M59.4606,356.72h 49.8898l 4.53543, -0.134249l 4.53543, -0.676629l 4.53543, -3.04244l 4.53543, -10.5528l 4.53543, -27.9673l 4.53543, -55.6826l 4.53543, -80.4648l 4.53543, -77.1831l 4.53543, -32.4468l 4.53543, 32.6831l 4.53543, 77.2765l
 4.53543, 80.4066l 4.53543, 55.5674l 4.53543, 27.8774l 4.53543, 10.5077l 4.53543, 3.02635l 4.53543, 0.672387l 4.53543, 0.133259h 90.7087" fill="none" stroke="#00ff00" stroke-width="2"/>
<path d="M281.697,356.72h 222.236" fill="none" stroke="#00ff00" stroke-width="2"/>
<path d="M503.933,356.72h 4.53543" fill="none" stroke="#00ff00" stroke-width="2"/>
<path d="M59.4606,356.72h 222.236" fill="none" stroke="#00ff00" stroke-width="2"/>
<path d="M281.697,356.72h 54.4252l 4.53543, -0.0440393l 4.53543, -0.144432l 4.53543, -0.498144l 4.53543, -1.44271l 4.53543, -3.49193l 4.53543, -7.01113l 4.53543, -11.5333l 4.53543, -15.187l 4.53543, -15.1994l 4.53543, -9.82189l 4.53543, -0.29125l
 4.53543, 9.36934l 4.53543, 15.0449l 4.53543, 15.3095l 4.53543, 11.7853l 4.53543, 7.24875l 4.53543, 3.6494l 4.53543, 1.52331l 4.53543, 0.531213l 4.53543, 0.155521l 4.53543, 0.0479832h 72.5669" fill="none" stroke="#00ff00" stroke-width="2"/>
<path d="M503.933,356.72h 4.53543" fill="none" stroke="#00ff00" stroke-width="2"/>
<path d="M59.4606,356.72h 222.236" fill="none" stroke="#00ff00" stroke-width="2"/>
<path d="M281.697,356.72h 117.921l 4.53543, -0.0878446l 4.53543, -0.220409l 4.53543, -0.601831l 4.53543, -1.35058l 4.53543, -2.46399l 4.53543, -3.58312l 4.53543, -3.98301l 4.53543, -3.00792l 4.53543, -0.723052l 4.53543, 1.90464l 4.53543, 3.65156l
 4.53543, 3.93788l 4.53543, 3.10209l 4.53543, 1.9131l 4.53543, 0.950627l 4.53543, 0.386253l 4.53543, 0.12943l 4.53543, 0.0461791h 22.6772" fill="none" stroke="#00ff00" stroke-width="2"/>
<path d="M503.933,356.72h 4.53543" fill="none" stroke="#00ff00" stroke-width="2"/>
<text x="195.794" y="18.1285" fill="black" font-size="17.5633" font-family="Helvetica">
vsBiasVoltage/320.Spe
</text></svg>
