<?xml version="1.0" standalone="no"?>
<svg width="567.429" height="340.123" viewBox="0 0 567.429 340.123" xmlns="http://www.w3.org/2000/svg">
<title>
/home/ADF/hyw543/XRay/Resolution/350.svg
</title>
<desc>
Creator: ROOT Version 6.06/08
CreationDate: Fri Mar  1 15:32:18 2019</desc>
<defs>
</defs>
<rect x="0.5" y="0" width="566.929" height="339.623" fill="white"/>
<rect x="57.1929" y="33.9623" width="453.543" height="271.698" fill="white"/>
<rect x="57.1929" y="33.9623" width="453.543" height="271.698" fill="none" stroke="black"/>
<rect x="57.1929" y="33.9623" width="453.543" height="271.698" fill="white"/>
<rect x="57.1929" y="33.9623" width="453.543" height="271.698" fill="none" stroke="black"/>
<path d="M57.1929,289.581h 1.46778v -1.88586h 1.46778v -0.0661706h 1.46778v -1.1249h 1.46778v 0.363938h 1.46778v -0.198512h 1.46778v -1.15799h 1.46778v -1.72044h 1.46778v 1.29033h 1.46778v -3.57321h 1.46778v -4.13566h 1.46778v -1.02564h 1.46778v
 -2.41523h 1.46778v -7.11334h 1.46778v -4.76428h 1.46778v -4.59886h 1.46778v -7.57653h 1.46778v -10.2564h 1.46778v -9.99176h 1.46778v -9.19771h 1.46778v -12.01h 1.46778v -9.85942h 1.46778v -16.7412h 1.46778v -8.89995h 1.46778v -7.94047h 1.46778v
 -11.0836h 1.46778v 0.430109h 1.46778v -8.27132h 1.46778v -0.959474h 1.46778v -4.10258h 1.46778v 5.69067h 1.46778v 2.51448h 1.46778v 8.03973h 1.46778v 7.74196h 1.46778v 8.17207h 1.46778v -0.198512h 1.46778v 8.23824h 1.46778v 0.959474h 1.46778v
 2.41523h 1.46778v 1.95203h 1.46778v -6.61706h 1.46778v -5.98844h 1.46778v -11.7784h 1.46778v -16.3772h 1.46778v -11.1828h 1.46778v -18.6932h 1.46778v -15.6493h 1.46778v -18.1969h 1.46778v -14.4914h 1.46778v -3.93715h 1.46778v -11.3152h 1.46778v
 1.25724h 1.46778v -6.65015h 1.46778v 6.25312h 1.46778v 7.54345h 1.46778v 4.69811h 1.46778v 17.3036h 1.46778v 21.8363h 1.46778v 9.82633h 1.46778v 20.3805h 1.46778v 21.704h 1.46778v 18.3954h 1.46778v 20.7114h 1.46778v 9.8925h 1.46778v 22.4649h
 1.46778v 9.29697h 1.46778v 12.1754h 1.46778v 11.2159h 1.46778v 6.25312h 1.46778v 5.78993h 1.46778v 6.61706h 1.46778v 6.02152h 1.46778v 5.49216h 1.46778v 1.62118h 1.46778v 2.41523h 1.46778v 1.58809h 1.46778v 1.88586h 1.46778v 1.19107h 1.46778v
 0.992559h 1.46778v -0.56245h 1.46778v 1.52192h 1.46778v 0.463194h 1.46778v -0.0992559h 1.46778v 0.463194h 1.46778v 0.0661706h 1.46778v -0.231597h 1.46778v 1.1249h 1.46778v -0.264682h 1.46778v -0.0992559h 1.46778v 0.231597h 1.46778v -0.0330853h
 1.46778v 0.0330853h 1.46778v 0.529365h 1.46778v -0.529365h 1.46778v 0.496279h 1.46778v -0.165426h 1.46778v 0.595535h 1.46778v -0.430109h 1.46778v -0.132341h 1.46778v 0.297768h 1.46778v -0.165426h 1.46778v -0.463194h 1.46778v 0.297768h 1.46778v
 -0.165426h 1.46778v 0.397024h 1.46778v -0.297768h 1.46778v 0.165426h 1.46778v 0.0661706h 1.46778v 0.132341h 1.46778v -0.198512h 1.46778v 0.330853h 1.46778v -0.661706h 1.46778v -0.165426h 1.46778v 0.165426h 1.46778v 0.264682h 1.46778v 0.363938h
 1.46778v -0.397024h 1.46778v 0.132341h 1.46778v -0.132341h 1.46778v 0.0992559h 1.46778v 0.529365h 1.46778v -0.893303h 1.46778v 0.661706h 1.46778v 0.0330853h 1.46778v -0.231597h 1.46778v 0.198512h 1.46778v -0.363938h 1.46778v -0.0661706h 1.46778v
 0.0661706h 1.46778v 0.231597h 1.46778v -0.397024h 1.46778v -0.0661706h 1.46778v 0.397024h 1.46778v 0.363938h 1.46778v -0.430109h 1.46778v -0.231597h 1.46778v 0.463194h 1.46778v -0.165426h 1.46778v -0.397024h 1.46778v 0.132341h 1.46778v 0.132341h
 1.46778v 0.165426h 1.46778v -0.330853h 1.46778v 0.0992559h 1.46778v -0.330853h 1.46778v 0.0330853h 1.46778v 0.0992559h 1.46778v 0.198512h 1.46778v -0.198512h 1.46778v 0.0992559h 1.46778v -0.198512h 1.46778v 0.694791h 1.46778v -1.09181h 1.46778v
 0.397024h 1.46778v 0.132341h 1.46778v -0.198512h 1.46778v -0.397024h 1.46778v 0.628621h 1.46778v -0.132341h 1.46778v 0.330853h 1.46778v -0.363938h 1.46778v -0.165426h 1.46778v -0.529365h 1.46778v 0.264682h 1.46778v -0.496279h 1.46778v 0.0992559h
 1.46778v 0.363938h 1.46778v -0.628621h 1.46778v 0.595535h 1.46778v -0.264682h 1.46778v 0.198512h 1.46778v -0.330853h 1.46778v -0.0330853h 1.46778v 0.264682h 1.46778v -0.330853h 1.46778v 0.198512h 1.46778v 0.132341h 1.46778v -0.0992559h 1.46778v
 -0.463194h 1.46778v 0.165426h 1.46778v -0.727877h 1.46778v -0.430109h 1.46778v 1.02564h 1.46778v -0.198512h 1.46778v -0.760962h 1.46778v 0.727877h 1.46778v -0.0992559h 1.46778v -0.56245h 1.46778v -0.330853h 1.46778v 0.628621h 1.46778v -0.198512h
 1.46778v -0.0661706h 1.46778v -0.397024h 1.46778v 0.165426h 1.46778v 0.363938h 1.46778v -0.694791h 1.46778v -0.0330853h 1.46778v 0.0992559h 1.46778v 0.330853h 1.46778v -0.198512h 1.46778v -0.0661706h 1.46778v -0.430109h 1.46778v 0.628621h 1.46778v
 -0.363938h 1.46778v -0.992559h 1.46778v 0.56245h 1.46778v 0.165426h 1.46778v 0.0661706h 1.46778v -0.0661706h 1.46778v 0.0992559h 1.46778v -1.1249h 1.46778v 1.02564h 2.93556v -0.56245h 1.46778v 0.165426h 1.46778v -0.0992559h 1.46778v -0.926388h
 1.46778v 0.992559h 1.46778v -0.893303h 1.46778v -0.297768h 1.46778v -0.330853h 1.46778v -0.628621h 1.46778v 0.760962h 1.46778v -1.95203h 1.46778v -0.926388h 1.46778v -2.08437h 1.46778v -2.38214h 1.46778v -1.25724h 1.46778v -2.34906h 1.46778v
 -2.67991h 1.46778v -2.0182h 1.46778v -5.98844h 1.46778v -3.3747h 1.46778v -3.3747h 1.46778v -1.1249h 1.46778v -9.29697h 1.46778v -2.34906h 1.46778v -2.54757h 1.46778v -3.30853h 1.46778v -3.54013h 1.46778v -2.11746h 1.46778v 0.198512h 1.46778v
 -1.95203h 1.46778v 1.88586h 1.46778v 3.54013h 1.46778v 0.926388h 1.46778v 0.463194h 1.46778v 4.40034h 1.46778v 4.59886h 1.46778v 0.760962h 1.46778v 5.95535h 1.46778v 4.33417h 1.46778v 3.20927h 1.46778v 0.992559h 1.46778v 6.15387h 1.46778v 2.87842h
 1.46778v 2.28289h 1.46778v 3.44087h 1.46778v 2.54757h 1.46778v 1.65426h 1.46778v 1.98512h 1.46778v 0.727877h 1.46778v 1.1249h 1.46778v 2.18363h 1.46778v -0.463194h 1.46778v 0.893303h 1.46778v 0.430109h 1.46778v 0.330853h 1.46778v 0.165426h 1.46778v
 -0.463194h 1.46778v 0.595535h 1.46778v -0.165426h 1.46778v -0.0992559h 1.46778v -0.794047h 1.46778v -0.430109h 1.46778v -0.628621h 1.46778v -1.25724h 1.46778v -0.297768h 1.46778v -0.760962h 1.46778v -1.1249h 1.46778v -1.88586h 1.46778v -0.330853h
 1.46778v -1.29033h 1.46778v 0.893303h 1.46778v -2.58065h 1.46778v -0.165426h 1.46778v 0.661706h 1.46778v -0.760962h 1.46778v 0.661706h 1.46778v -0.132341h 1.46778v 0.430109h 1.46778v 1.88586h 1.46778v -0.397024h 1.46778v 1.1249h 1.46778v 0.165426h
 1.46778v 2.77917h 1.46778v 0.0330853h 1.46778v 0.926388h 1.46778v 0.297768h 1.46778v 0.628621h 1.46778v 1.95203h 1.46778v -1.1249h 1.46778v 1.42267h 1.46778v 0.330853h 1.46778v 2.0182h 1.46778v -0.297768h 1.46778v 0.330853h 1.46778v 0.198512h
 1.46778v 0.595535h 1.46778" fill="none" stroke="#ff0000" stroke-width="2"/>
<path d="M59.4606,300.396l 4.53543, -3.68874l 4.53543, -7.13483l 4.53543, -12.247l 4.53543, -18.5279l 4.53543, -24.4403l 4.53543, -27.5845l 4.53543, -25.6395l 4.53543, -17.8138l 4.53543, -6.01904l 4.53543, 5.09057l 4.53543, 9.62017l 4.53543, 3.29555l
 4.53543, -13.1387l 4.53543, -31.9468l 4.53543, -40.7469l 4.53543, -30.0685l 4.53543, -1.43777l 4.53543, 31.9273l 4.53543, 54.1251l 4.53543, 57.5679l 4.53543, 46.1667l 4.53543, 29.5504l 4.53543, 15.4821l 4.53543, 6.72734l 4.53543, 2.44136l 4.53543,
 0.740652l 4.53543, 0.184836l 4.53543, 0.0337766l 4.53543, -0.000580945l 4.53543, -0.00714909l 4.53543, -0.00820779l 4.53543, -0.008352l 4.53543, -0.00836863l 4.53543, -0.00837026l 4.53543, -0.0083704l 4.53543, -0.00837041l 4.53543, -0.00837041l
 4.53543, -0.00837041l 4.53543, -0.00837041l 4.53543, -0.00837041l 4.53543, -0.00837041l 4.53543, -0.00837041l 4.53543, -0.00837041l 4.53543, -0.00837041l 4.53543, -0.00837041l 4.53543, -0.00837041l 4.53543, -0.00837041l 4.53543, -0.00837041l
 4.53543, -0.00837041" fill="none" stroke="#0000ff" stroke-width="2"/>
<path d="M281.697,302.749l 4.53543, -0.00837041l 4.53543, -0.00837041l 4.53543, -0.00837041l 4.53543, -0.00837041l 4.53543, -0.00837041l 4.53543, -0.00837041l 4.53543, -0.00837041l 4.53543, -0.00837041l 4.53543, -0.00837041l 4.53543, -0.00837043l
 4.53543, -0.00837061l 4.53543, -0.00837201l 4.53543, -0.00838174l 4.53543, -0.00844126l 4.53543, -0.00876211l 4.53543, -0.0102836l 4.53543, -0.0166204l 4.53543, -0.039752l 4.53543, -0.113542l 4.53543, -0.318442l 4.53543, -0.810925l 4.53543,
 -1.82683l 4.53543, -3.60074l 4.53543, -6.15768l 4.53543, -9.03907l 4.53543, -11.1872l 4.53543, -11.2579l 4.53543, -8.3739l 4.53543, -2.8734l 4.53543, 3.59233l 4.53543, 8.85037l 4.53543, 11.3777l 4.53543, 11.0009l 4.53543, 8.69614l 4.53543, 5.8027l
 4.53543, 3.29752l 4.53543, 1.51939l 4.53543, 0.292203l 4.53543, -0.77516l 4.53543, -1.93361l 4.53543, -2.971l 4.53543, -3.20595l 4.53543, -2.06423l 4.53543, 0.15855l 4.53543, 2.29027l 4.53543, 3.24072l 4.53543, 2.87276l 4.53543, 1.86074l 4.53543,
 0.924126" fill="none" stroke="#0000ff" stroke-width="2"/>
<path d="M503.933,301.823l 4.53543, 0.357549" fill="none" stroke="#0000ff" stroke-width="2"/>
<rect x="351.996" y="22.0755" width="204.094" height="217.358" fill="white"/>
<path d="M351.996,239.434h 204.094" fill="none" stroke="black" stroke-width="2"/>
<path d="M556.091,239.434v -217.358" fill="none" stroke="black" stroke-width="2"/>
<path d="M556.091,22.0755h -204.094" fill="none" stroke="black" stroke-width="2"/>
<path d="M351.996,22.0755v 217.358" fill="none" stroke="black" stroke-width="2"/>
<text x="372.213" y="32.9817" fill="black" font-size="11.845" font-family="Helvetica">
 / ndf 
</text>
<text x="367.756" y="28.5247" fill="black" font-size="8.06332" font-family="Helvetica">
2
</text>
<text x="361.516" y="32.9817" fill="black" font-size="11.845" font-family="Times">
&#0967;
</text>
<text x="485.421" y="32.9817" fill="black" font-size="11.845" font-family="Helvetica">
  4330 / 295
</text>
<text x="361.516" y="48.1355" fill="black" font-size="11.845" font-family="Helvetica">
1-Centroid 
</text>
<text x="528.208" y="48.1355" fill="black" font-size="11.845" font-family="Helvetica">
 0.1
</text>
<text x="521.968" y="48.1355" fill="black" font-size="11.845" font-family="Times">
&#0177;
</text>
<text x="488.095" y="48.1355" fill="black" font-size="11.845" font-family="Helvetica">
  1422 
</text>
<text x="361.516" y="63.2893" fill="black" font-size="11.845" font-family="Helvetica">
1-FWHM   
</text>
<text x="520.185" y="62.3979" fill="black" font-size="11.845" font-family="Helvetica">
 0.17
</text>
<text x="513.945" y="62.3979" fill="black" font-size="11.845" font-family="Times">
&#0177;
</text>
<text x="480.072" y="62.3979" fill="black" font-size="11.845" font-family="Helvetica">
 22.74 
</text>
<text x="361.516" y="76.6602" fill="black" font-size="11.845" font-family="Helvetica">
1-Counts 
</text>
<text x="488.095" y="76.6602" fill="black" font-size="11.845" font-family="Helvetica">
 7.264e+02
</text>
<text x="481.855" y="76.6602" fill="black" font-size="11.845" font-family="Times">
&#0177;
</text>
<text x="422.131" y="76.6602" fill="black" font-size="11.845" font-family="Helvetica">
 1.055e+05 
</text>
<text x="361.516" y="90.9226" fill="black" font-size="11.845" font-family="Helvetica">
2-Centroid 
</text>
<text x="526.425" y="90.9226" fill="black" font-size="11.845" font-family="Helvetica">
 0.0
</text>
<text x="520.185" y="90.9226" fill="black" font-size="11.845" font-family="Times">
&#0177;
</text>
<text x="486.312" y="90.9226" fill="black" font-size="11.845" font-family="Helvetica">
  1446 
</text>
<text x="361.516" y="106.968" fill="black" font-size="11.845" font-family="Helvetica">
2-FWHM   
</text>
<text x="520.185" y="106.076" fill="black" font-size="11.845" font-family="Helvetica">
 0.07
</text>
<text x="513.945" y="106.076" fill="black" font-size="11.845" font-family="Times">
&#0177;
</text>
<text x="481.855" y="106.076" fill="black" font-size="11.845" font-family="Helvetica">
 18.21 
</text>
<text x="361.516" y="120.339" fill="black" font-size="11.845" font-family="Helvetica">
2-Counts 
</text>
<text x="488.095" y="120.339" fill="black" font-size="11.845" font-family="Helvetica">
 7.316e+02
</text>
<text x="481.855" y="120.339" fill="black" font-size="11.845" font-family="Times">
&#0177;
</text>
<text x="422.131" y="120.339" fill="black" font-size="11.845" font-family="Helvetica">
 1.422e+05 
</text>
<text x="361.516" y="134.601" fill="black" font-size="11.845" font-family="Helvetica">
3-Centroid 
</text>
<text x="528.208" y="134.601" fill="black" font-size="11.845" font-family="Helvetica">
 0.1
</text>
<text x="521.968" y="134.601" fill="black" font-size="11.845" font-family="Times">
&#0177;
</text>
<text x="488.095" y="134.601" fill="black" font-size="11.845" font-family="Helvetica">
  1635 
</text>
<text x="361.516" y="148.863" fill="black" font-size="11.845" font-family="Helvetica">
3-FWHM   
</text>
<text x="520.185" y="148.863" fill="black" font-size="11.845" font-family="Helvetica">
 0.12
</text>
<text x="513.945" y="148.863" fill="black" font-size="11.845" font-family="Times">
&#0177;
</text>
<text x="480.072" y="148.863" fill="black" font-size="11.845" font-family="Helvetica">
 20.96 
</text>
<text x="361.516" y="164.017" fill="black" font-size="11.845" font-family="Helvetica">
3-Counts 
</text>
<text x="488.095" y="164.017" fill="black" font-size="11.845" font-family="Helvetica">
 2.230e+02
</text>
<text x="481.855" y="164.017" fill="black" font-size="11.845" font-family="Times">
&#0177;
</text>
<text x="422.131" y="164.017" fill="black" font-size="11.845" font-family="Helvetica">
 3.751e+04 
</text>
<text x="361.516" y="178.28" fill="black" font-size="11.845" font-family="Helvetica">
4-Centroid 
</text>
<text x="528.208" y="178.28" fill="black" font-size="11.845" font-family="Helvetica">
 0.1
</text>
<text x="521.968" y="178.28" fill="black" font-size="11.845" font-family="Times">
&#0177;
</text>
<text x="488.095" y="178.28" fill="black" font-size="11.845" font-family="Helvetica">
  1680 
</text>
<text x="361.516" y="193.433" fill="black" font-size="11.845" font-family="Helvetica">
4-FWHM   
</text>
<text x="520.185" y="192.542" fill="black" font-size="11.845" font-family="Helvetica">
 0.27
</text>
<text x="513.945" y="192.542" fill="black" font-size="11.845" font-family="Times">
&#0177;
</text>
<text x="480.072" y="192.542" fill="black" font-size="11.845" font-family="Helvetica">
 16.09 
</text>
<text x="361.516" y="206.804" fill="black" font-size="11.845" font-family="Helvetica">
4-Counts 
</text>
<text x="513.945" y="206.804" fill="black" font-size="11.845" font-family="Helvetica">
 129.8
</text>
<text x="507.705" y="206.804" fill="black" font-size="11.845" font-family="Times">
&#0177;
</text>
<text x="473.832" y="206.804" fill="black" font-size="11.845" font-family="Helvetica">
  6297 
</text>
<text x="361.516" y="221.067" fill="black" font-size="11.845" font-family="Helvetica">
Intercept 
</text>
<text x="513.945" y="221.958" fill="black" font-size="11.845" font-family="Helvetica">
 23.48
</text>
<text x="507.705" y="221.958" fill="black" font-size="11.845" font-family="Times">
&#0177;
</text>
<text x="476.507" y="221.958" fill="black" font-size="11.845" font-family="Helvetica">
38.58 
</text>
<text x="470.267" y="221.958" fill="black" font-size="11.845" font-family="Times">
&#8722;
</text>
<text x="467.593" y="221.958" fill="black" font-size="11.845" font-family="Helvetica">
 
</text>
<text x="361.516" y="235.329" fill="black" font-size="11.845" font-family="Helvetica">
Slope    
</text>
<text x="500.574" y="236.22" fill="black" font-size="11.845" font-family="Helvetica">
 0.01525
</text>
<text x="494.335" y="236.22" fill="black" font-size="11.845" font-family="Times">
&#0177;
</text>
<text x="447.09" y="236.22" fill="black" font-size="11.845" font-family="Helvetica">
 0.08188 
</text>
<path d="M57.1929,305.66h 453.543" fill="none" stroke="black" stroke-width="2"/>
<text x="466.701" y="328.926" fill="black" font-size="11.4053" font-family="Helvetica">
Channels
</text>
<path d="M67.4674,297.509v 8.15094" fill="none" stroke="black" stroke-width="2"/>
<path d="M96.8229,301.585v 4.07547" fill="none" stroke="black" stroke-width="2"/>
<path d="M126.178,301.585v 4.07547" fill="none" stroke="black" stroke-width="2"/>
<path d="M155.534,301.585v 4.07547" fill="none" stroke="black" stroke-width="2"/>
<path d="M184.89,301.585v 4.07547" fill="none" stroke="black" stroke-width="2"/>
<path d="M214.245,297.509v 8.15094" fill="none" stroke="black" stroke-width="2"/>
<path d="M243.601,301.585v 4.07547" fill="none" stroke="black" stroke-width="2"/>
<path d="M272.956,301.585v 4.07547" fill="none" stroke="black" stroke-width="2"/>
<path d="M302.312,301.585v 4.07547" fill="none" stroke="black" stroke-width="2"/>
<path d="M331.667,301.585v 4.07547" fill="none" stroke="black" stroke-width="2"/>
<path d="M361.023,297.509v 8.15094" fill="none" stroke="black" stroke-width="2"/>
<path d="M390.378,301.585v 4.07547" fill="none" stroke="black" stroke-width="2"/>
<path d="M419.734,301.585v 4.07547" fill="none" stroke="black" stroke-width="2"/>
<path d="M449.09,301.585v 4.07547" fill="none" stroke="black" stroke-width="2"/>
<path d="M478.445,301.585v 4.07547" fill="none" stroke="black" stroke-width="2"/>
<path d="M507.801,297.509v 8.15094" fill="none" stroke="black" stroke-width="2"/>
<path d="M67.4674,297.509v 8.15094" fill="none" stroke="black" stroke-width="2"/>
<path d="M507.801,297.509v 8.15094" fill="none" stroke="black" stroke-width="2"/>
<text x="54.8753" y="316.446" fill="black" font-size="11.4053" font-family="Helvetica">
1400
</text>
<text x="201.065" y="316.446" fill="black" font-size="11.4053" font-family="Helvetica">
1500
</text>
<text x="348.145" y="316.446" fill="black" font-size="11.4053" font-family="Helvetica">
1600
</text>
<text x="495.226" y="316.446" fill="black" font-size="11.4053" font-family="Helvetica">
1700
</text>
<path d="M57.1929,305.66v -271.698" fill="none" stroke="black" stroke-width="2"/>
<path d="M70.7992,305.66h -13.6063" fill="none" stroke="black" stroke-width="2"/>
<path d="M63.9961,299.043h -6.80315" fill="none" stroke="black" stroke-width="2"/>
<path d="M63.9961,292.426h -6.80315" fill="none" stroke="black" stroke-width="2"/>
<path d="M63.9961,285.809h -6.80315" fill="none" stroke="black" stroke-width="2"/>
<path d="M63.9961,279.192h -6.80315" fill="none" stroke="black" stroke-width="2"/>
<path d="M70.7992,272.575h -13.6063" fill="none" stroke="black" stroke-width="2"/>
<path d="M63.9961,265.958h -6.80315" fill="none" stroke="black" stroke-width="2"/>
<path d="M63.9961,259.341h -6.80315" fill="none" stroke="black" stroke-width="2"/>
<path d="M63.9961,252.724h -6.80315" fill="none" stroke="black" stroke-width="2"/>
<path d="M63.9961,246.107h -6.80315" fill="none" stroke="black" stroke-width="2"/>
<path d="M70.7992,239.49h -13.6063" fill="none" stroke="black" stroke-width="2"/>
<path d="M63.9961,232.873h -6.80315" fill="none" stroke="black" stroke-width="2"/>
<path d="M63.9961,226.256h -6.80315" fill="none" stroke="black" stroke-width="2"/>
<path d="M63.9961,219.639h -6.80315" fill="none" stroke="black" stroke-width="2"/>
<path d="M63.9961,213.022h -6.80315" fill="none" stroke="black" stroke-width="2"/>
<path d="M70.7992,206.404h -13.6063" fill="none" stroke="black" stroke-width="2"/>
<path d="M63.9961,199.787h -6.80315" fill="none" stroke="black" stroke-width="2"/>
<path d="M63.9961,193.17h -6.80315" fill="none" stroke="black" stroke-width="2"/>
<path d="M63.9961,186.553h -6.80315" fill="none" stroke="black" stroke-width="2"/>
<path d="M63.9961,179.936h -6.80315" fill="none" stroke="black" stroke-width="2"/>
<path d="M70.7992,173.319h -13.6063" fill="none" stroke="black" stroke-width="2"/>
<path d="M63.9961,166.702h -6.80315" fill="none" stroke="black" stroke-width="2"/>
<path d="M63.9961,160.085h -6.80315" fill="none" stroke="black" stroke-width="2"/>
<path d="M63.9961,153.468h -6.80315" fill="none" stroke="black" stroke-width="2"/>
<path d="M63.9961,146.851h -6.80315" fill="none" stroke="black" stroke-width="2"/>
<path d="M70.7992,140.234h -13.6063" fill="none" stroke="black" stroke-width="2"/>
<path d="M63.9961,133.617h -6.80315" fill="none" stroke="black" stroke-width="2"/>
<path d="M63.9961,127h -6.80315" fill="none" stroke="black" stroke-width="2"/>
<path d="M63.9961,120.383h -6.80315" fill="none" stroke="black" stroke-width="2"/>
<path d="M63.9961,113.766h -6.80315" fill="none" stroke="black" stroke-width="2"/>
<path d="M70.7992,107.149h -13.6063" fill="none" stroke="black" stroke-width="2"/>
<path d="M63.9961,100.532h -6.80315" fill="none" stroke="black" stroke-width="2"/>
<path d="M63.9961,93.9145h -6.80315" fill="none" stroke="black" stroke-width="2"/>
<path d="M63.9961,87.2974h -6.80315" fill="none" stroke="black" stroke-width="2"/>
<path d="M63.9961,80.6804h -6.80315" fill="none" stroke="black" stroke-width="2"/>
<path d="M70.7992,74.0633h -13.6063" fill="none" stroke="black" stroke-width="2"/>
<path d="M63.9961,67.4462h -6.80315" fill="none" stroke="black" stroke-width="2"/>
<path d="M63.9961,60.8292h -6.80315" fill="none" stroke="black" stroke-width="2"/>
<path d="M63.9961,54.2121h -6.80315" fill="none" stroke="black" stroke-width="2"/>
<path d="M63.9961,47.5951h -6.80315" fill="none" stroke="black" stroke-width="2"/>
<path d="M70.7992,40.978h -13.6063" fill="none" stroke="black" stroke-width="2"/>
<path d="M70.7992,40.978h -13.6063" fill="none" stroke="black" stroke-width="2"/>
<path d="M63.9961,34.3609h -6.80315" fill="none" stroke="black" stroke-width="2"/>
<text x="47.7441" y="309.315" fill="black" font-size="11.4053" font-family="Helvetica">
0
</text>
<text x="29.9161" y="276.333" fill="black" font-size="11.4053" font-family="Helvetica">
1000
</text>
<text x="29.9161" y="243.352" fill="black" font-size="11.4053" font-family="Helvetica">
2000
</text>
<text x="29.9161" y="210.37" fill="black" font-size="11.4053" font-family="Helvetica">
3000
</text>
<text x="29.9161" y="177.388" fill="black" font-size="11.4053" font-family="Helvetica">
4000
</text>
<text x="29.9161" y="144.406" fill="black" font-size="11.4053" font-family="Helvetica">
5000
</text>
<text x="29.9161" y="111.425" fill="black" font-size="11.4053" font-family="Helvetica">
6000
</text>
<text x="29.9161" y="78.443" fill="black" font-size="11.4053" font-family="Helvetica">
7000
</text>
<text x="29.9161" y="44.5699" fill="black" font-size="11.4053" font-family="Helvetica">
8000
</text>
<rect x="351.996" y="22.0755" width="204.094" height="217.358" fill="white"/>
<path d="M351.996,239.434h 204.094" fill="none" stroke="black" stroke-width="2"/>
<path d="M556.091,239.434v -217.358" fill="none" stroke="black" stroke-width="2"/>
<path d="M556.091,22.0755h -204.094" fill="none" stroke="black" stroke-width="2"/>
<path d="M351.996,22.0755v 217.358" fill="none" stroke="black" stroke-width="2"/>
<text x="372.213" y="32.9817" fill="black" font-size="11.845" font-family="Helvetica">
 / ndf 
</text>
<text x="367.756" y="28.5247" fill="black" font-size="8.06332" font-family="Helvetica">
2
</text>
<text x="361.516" y="32.9817" fill="black" font-size="11.845" font-family="Times">
&#0967;
</text>
<text x="485.421" y="32.9817" fill="black" font-size="11.845" font-family="Helvetica">
  4330 / 295
</text>
<text x="361.516" y="48.1355" fill="black" font-size="11.845" font-family="Helvetica">
1-Centroid 
</text>
<text x="528.208" y="48.1355" fill="black" font-size="11.845" font-family="Helvetica">
 0.1
</text>
<text x="521.968" y="48.1355" fill="black" font-size="11.845" font-family="Times">
&#0177;
</text>
<text x="488.095" y="48.1355" fill="black" font-size="11.845" font-family="Helvetica">
  1422 
</text>
<text x="361.516" y="63.2893" fill="black" font-size="11.845" font-family="Helvetica">
1-FWHM   
</text>
<text x="520.185" y="62.3979" fill="black" font-size="11.845" font-family="Helvetica">
 0.17
</text>
<text x="513.945" y="62.3979" fill="black" font-size="11.845" font-family="Times">
&#0177;
</text>
<text x="480.072" y="62.3979" fill="black" font-size="11.845" font-family="Helvetica">
 22.74 
</text>
<text x="361.516" y="76.6602" fill="black" font-size="11.845" font-family="Helvetica">
1-Counts 
</text>
<text x="488.095" y="76.6602" fill="black" font-size="11.845" font-family="Helvetica">
 7.264e+02
</text>
<text x="481.855" y="76.6602" fill="black" font-size="11.845" font-family="Times">
&#0177;
</text>
<text x="422.131" y="76.6602" fill="black" font-size="11.845" font-family="Helvetica">
 1.055e+05 
</text>
<text x="361.516" y="90.9226" fill="black" font-size="11.845" font-family="Helvetica">
2-Centroid 
</text>
<text x="526.425" y="90.9226" fill="black" font-size="11.845" font-family="Helvetica">
 0.0
</text>
<text x="520.185" y="90.9226" fill="black" font-size="11.845" font-family="Times">
&#0177;
</text>
<text x="486.312" y="90.9226" fill="black" font-size="11.845" font-family="Helvetica">
  1446 
</text>
<text x="361.516" y="106.968" fill="black" font-size="11.845" font-family="Helvetica">
2-FWHM   
</text>
<text x="520.185" y="106.076" fill="black" font-size="11.845" font-family="Helvetica">
 0.07
</text>
<text x="513.945" y="106.076" fill="black" font-size="11.845" font-family="Times">
&#0177;
</text>
<text x="481.855" y="106.076" fill="black" font-size="11.845" font-family="Helvetica">
 18.21 
</text>
<text x="361.516" y="120.339" fill="black" font-size="11.845" font-family="Helvetica">
2-Counts 
</text>
<text x="488.095" y="120.339" fill="black" font-size="11.845" font-family="Helvetica">
 7.316e+02
</text>
<text x="481.855" y="120.339" fill="black" font-size="11.845" font-family="Times">
&#0177;
</text>
<text x="422.131" y="120.339" fill="black" font-size="11.845" font-family="Helvetica">
 1.422e+05 
</text>
<text x="361.516" y="134.601" fill="black" font-size="11.845" font-family="Helvetica">
3-Centroid 
</text>
<text x="528.208" y="134.601" fill="black" font-size="11.845" font-family="Helvetica">
 0.1
</text>
<text x="521.968" y="134.601" fill="black" font-size="11.845" font-family="Times">
&#0177;
</text>
<text x="488.095" y="134.601" fill="black" font-size="11.845" font-family="Helvetica">
  1635 
</text>
<text x="361.516" y="148.863" fill="black" font-size="11.845" font-family="Helvetica">
3-FWHM   
</text>
<text x="520.185" y="148.863" fill="black" font-size="11.845" font-family="Helvetica">
 0.12
</text>
<text x="513.945" y="148.863" fill="black" font-size="11.845" font-family="Times">
&#0177;
</text>
<text x="480.072" y="148.863" fill="black" font-size="11.845" font-family="Helvetica">
 20.96 
</text>
<text x="361.516" y="164.017" fill="black" font-size="11.845" font-family="Helvetica">
3-Counts 
</text>
<text x="488.095" y="164.017" fill="black" font-size="11.845" font-family="Helvetica">
 2.230e+02
</text>
<text x="481.855" y="164.017" fill="black" font-size="11.845" font-family="Times">
&#0177;
</text>
<text x="422.131" y="164.017" fill="black" font-size="11.845" font-family="Helvetica">
 3.751e+04 
</text>
<text x="361.516" y="178.28" fill="black" font-size="11.845" font-family="Helvetica">
4-Centroid 
</text>
<text x="528.208" y="178.28" fill="black" font-size="11.845" font-family="Helvetica">
 0.1
</text>
<text x="521.968" y="178.28" fill="black" font-size="11.845" font-family="Times">
&#0177;
</text>
<text x="488.095" y="178.28" fill="black" font-size="11.845" font-family="Helvetica">
  1680 
</text>
<text x="361.516" y="193.433" fill="black" font-size="11.845" font-family="Helvetica">
4-FWHM   
</text>
<text x="520.185" y="192.542" fill="black" font-size="11.845" font-family="Helvetica">
 0.27
</text>
<text x="513.945" y="192.542" fill="black" font-size="11.845" font-family="Times">
&#0177;
</text>
<text x="480.072" y="192.542" fill="black" font-size="11.845" font-family="Helvetica">
 16.09 
</text>
<text x="361.516" y="206.804" fill="black" font-size="11.845" font-family="Helvetica">
4-Counts 
</text>
<text x="513.945" y="206.804" fill="black" font-size="11.845" font-family="Helvetica">
 129.8
</text>
<text x="507.705" y="206.804" fill="black" font-size="11.845" font-family="Times">
&#0177;
</text>
<text x="473.832" y="206.804" fill="black" font-size="11.845" font-family="Helvetica">
  6297 
</text>
<text x="361.516" y="221.067" fill="black" font-size="11.845" font-family="Helvetica">
Intercept 
</text>
<text x="513.945" y="221.958" fill="black" font-size="11.845" font-family="Helvetica">
 23.48
</text>
<text x="507.705" y="221.958" fill="black" font-size="11.845" font-family="Times">
&#0177;
</text>
<text x="476.507" y="221.958" fill="black" font-size="11.845" font-family="Helvetica">
38.58 
</text>
<text x="470.267" y="221.958" fill="black" font-size="11.845" font-family="Times">
&#8722;
</text>
<text x="467.593" y="221.958" fill="black" font-size="11.845" font-family="Helvetica">
 
</text>
<text x="361.516" y="235.329" fill="black" font-size="11.845" font-family="Helvetica">
Slope    
</text>
<text x="500.574" y="236.22" fill="black" font-size="11.845" font-family="Helvetica">
 0.01525
</text>
<text x="494.335" y="236.22" fill="black" font-size="11.845" font-family="Times">
&#0177;
</text>
<text x="447.09" y="236.22" fill="black" font-size="11.845" font-family="Helvetica">
 0.08188 
</text>
<path d="M59.4606,302.897l 4.53543, -3.68037l 4.53543, -7.12645l 4.53543, -12.2385l 4.53543, -18.5189l 4.53543, -24.428l 4.53543, -27.5532l 4.53543, -25.5195l 4.53543, -17.3445l 4.53543, -4.40402l 4.53543, 9.81315l 4.53543, 21.2213l 4.53543, 27.0322l
 4.53543, 26.8364l 4.53543, 22.3162l 4.53543, 16.0119l 4.53543, 10.0637l 4.53543, 5.58932l 4.53543, 2.75837l 4.53543, 1.21408l 4.53543, 0.477837l 4.53543, 0.168491l 4.53543, 0.0734335h 122.457" fill="none" stroke="#00ff00" stroke-width="2"/>
<path d="M281.697,305.66h 222.236" fill="none" stroke="#00ff00" stroke-width="2"/>
<path d="M503.933,305.66h 4.53543" fill="none" stroke="#00ff00" stroke-width="2"/>
<path d="M59.4606,305.66h 22.6772l 4.53543, -0.0275498l 4.53543, -0.111684l 4.53543, -0.460967l 4.53543, -1.60665l 4.53543, -4.71421l 4.53543, -11.5928l 4.53543, -23.7283l 4.53543, -39.9668l 4.53543, -54.2546l 4.53543, -56.7505l 4.53543, -40.1237l
 4.53543, -7.01871l 4.53543, 29.1773l 4.53543, 52.9193l 4.53543, 57.0984l 4.53543, 46.0066l 4.53543, 29.5054l 4.53543, 15.4753l 4.53543, 6.73184l 4.53543, 2.44884l 4.53543, 0.748839l 4.53543, 0.193173l 4.53543, 0.051334h 95.2441" fill="none"
 stroke="#00ff00" stroke-width="2"/>
<path d="M281.697,305.66h 222.236" fill="none" stroke="#00ff00" stroke-width="2"/>
<path d="M503.933,305.66h 4.53543" fill="none" stroke="#00ff00" stroke-width="2"/>
<path d="M59.4606,305.66h 222.236" fill="none" stroke="#00ff00" stroke-width="2"/>
<path d="M281.697,305.66h 77.1024l 4.53543, -0.0420205l 4.53543, -0.105171l 4.53543, -0.310071l 4.53543, -0.802554l 4.53543, -1.81846l 4.53543, -3.59236l 4.53543, -6.14931l 4.53543, -9.0307l 4.53543, -11.1788l 4.53543, -11.2495l 4.53543, -8.36553l
 4.53543, -2.86503l 4.53543, 3.6007l 4.53543, 8.85874l 4.53543, 11.3861l 4.53543, 11.0094l 4.53543, 8.70574l 4.53543, 5.81838l 4.53543, 3.34102l 4.53543, 1.66382l 4.53543, 0.722811l 4.53543, 0.274997l 4.53543, 0.0918753l 4.53543, 0.0359942h 36.2835"
 fill="none" stroke="#00ff00" stroke-width="2"/>
<path d="M503.933,305.66h 4.53543" fill="none" stroke="#00ff00" stroke-width="2"/>
<path d="M59.4606,305.66h 222.236" fill="none" stroke="#00ff00" stroke-width="2"/>
<path d="M281.697,305.66h 158.74l 4.53543, -0.0438501l 4.53543, -0.136065l 4.53543, -0.422237l 4.53543, -1.04179l 4.53543, -2.01711l 4.53543, -2.98964l 4.53543, -3.20458l 4.53543, -2.05746l 4.53543, 0.166598l 4.53543, 2.29858l 4.53543, 3.24908l
 4.53543, 2.88112l 4.53543, 1.86911l 4.53543, 0.932497" fill="none" stroke="#00ff00" stroke-width="2"/>
<path d="M503.933,305.145l 4.53543, 0.365919" fill="none" stroke="#00ff00" stroke-width="2"/>
<text x="201.956" y="16.9366" fill="black" font-size="16.5567" font-family="Helvetica">
vsBiasVoltage/350.Spe
</text></svg>
