<?xml version="1.0" standalone="no"?>
<svg width="567.429" height="326.569" viewBox="0 0 567.429 326.569" xmlns="http://www.w3.org/2000/svg">
<title>
/home/ADF/jsm576/Labs_Xrays/Resolution/360.svg
</title>
<desc>
Creator: ROOT Version 6.06/08
CreationDate: Fri Mar  8 10:46:28 2019</desc>
<defs>
</defs>
<rect x="0.5" y="0" width="566.929" height="326.069" fill="white"/>
<rect x="57.1929" y="32.6069" width="453.543" height="260.856" fill="white"/>
<rect x="57.1929" y="32.6069" width="453.543" height="260.856" fill="none" stroke="black"/>
<rect x="57.1929" y="32.6069" width="453.543" height="260.856" fill="white"/>
<rect x="57.1929" y="32.6069" width="453.543" height="260.856" fill="none" stroke="black"/>
<path d="M57.1929,289.133h 1.05721v 0.156879h 1.05721v -0.251007h 1.05721v 0.533389h 1.05721v -1.47466h 1.05721v 0.972651h 1.05721v 0.0627517h 1.05721v 0.627517h 1.05721v -0.909899h 1.05721v 0.658893h 1.05721v -0.37651h 1.05721v -1.06678h 1.05721v
 0.658893h 1.05721v -0.596141h 1.05721v 0.470638h 1.05721v -0.219631h 1.05721v 0.345134h 1.05721v -0.37651h 1.05721v 0.0941275h 1.05721v 0.439262h 1.05721v -0.345134h 1.05721v 0.407886h 1.05721v -0.156879h 1.05721v -0.502013h 1.05721v 0.156879h
 1.05721v 0.470638h 1.05721v -1.12953h 1.05721v 0.0627517h 1.05721v 0.627517h 1.05721v 0.690268h 1.05721v -1.22366h 1.05721v -0.156879h 1.05721v 0.470638h 1.05721v -0.439262h 1.05721v -0.784396h 1.05721v 0.815772h 1.05721v -0.75302h 1.05721v
 0.596141h 1.05721v 0.439262h 1.05721v -1.00403h 1.05721v 0.345134h 1.05721v 0.470638h 1.05721v -0.972651h 2.11442v 0.0941275h 1.05721v -0.407886h 1.05721v 0.188255h 1.05721v 0.0627517h 1.05721v -0.721644h 1.05721v -0.0941275h 1.05721v 0.313758h
 1.05721v -0.564765h 1.05721v 0.941275h 1.05721v -0.972651h 1.05721v -0.658893h 1.05721v 1.12953h 1.05721v 0.0627517h 1.05721v -0.815772h 1.05721v -0.0627517h 1.05721v 0.156879h 1.05721v -0.439262h 1.05721v -0.0627517h 1.05721v -0.658893h 1.05721v
 -0.0941275h 1.05721v -0.878523h 1.05721v 0.784396h 1.05721v 0.972651h 1.05721v -0.251007h 1.05721v -0.909899h 1.05721v 0.596141h 1.05721v -1.22366h 1.05721v 0.0313758h 1.05721v 0.470638h 1.05721v -0.75302h 1.05721v 0.784396h 1.05721v -0.941275h
 1.05721v 0.878523h 1.05721v -1.16091h 1.05721v 0.0313758h 1.05721v -0.282383h 1.05721v 1.00403h 1.05721v -0.219631h 1.05721v -1.0354h 1.05721v -0.188255h 1.05721v -1.34916h 1.05721v 0.533389h 1.05721v -0.564765h 1.05721v 0.596141h 1.05721v
 -0.251007h 1.05721v -0.690268h 1.05721v 0.439262h 1.05721v -0.125503h 1.05721v -0.847148h 1.05721v -0.313758h 1.05721v 0.721644h 1.05721v -0.658893h 1.05721v -0.282383h 1.05721v 0.658893h 1.05721v -0.878523h 1.05721v -1.85117h 1.05721v 0.125503h
 1.05721v 0.784396h 1.05721v -1.50604h 1.05721v -1.22366h 1.05721v -0.282383h 1.05721v -0.188255h 1.05721v -3.7651h 1.05721v -1.31779h 1.05721v -3.73372h 1.05721v -1.88255h 1.05721v -4.675h 1.05721v -6.71443h 1.05721v -5.42802h 1.05721v -11.4836h
 1.05721v -5.67903h 1.05721v -8.78523h 1.05721v -12.1111h 1.05721v -14.1819h 1.05721v -8.87936h 1.05721v -10.2913h 1.05721v -6.18104h 1.05721v -13.9622h 1.05721v -7.84396h 1.05721v -3.54547h 1.05721v -8.09497h 1.05721v 4.98876h 1.05721v -2.00805h
 1.05721v 1.16091h 1.05721v 8.87936h 1.05721v 6.21242h 1.05721v 7.05956h 1.05721v 5.74178h 1.05721v 7.05956h 1.05721v 5.17701h 1.05721v -2.54144h 1.05721v 3.41997h 1.05721v -1.47466h 1.05721v -9.00486h 1.05721v -4.14161h 1.05721v -14.5898h 1.05721v
 -10.0089h 1.05721v -14.4956h 1.05721v -18.0411h 1.05721v -13.523h 1.05721v -17.3195h 1.05721v -7.34195h 1.05721v -16.8802h 1.05721v -5.86728h 1.05721v -3.79648h 1.05721v 1.6943h 1.05721v 3.57685h 1.05721v 12.5817h 1.05721v 6.90268h 1.05721v 18.5745h
 1.05721v 14.4956h 1.05721v 15.4997h 1.05721v 19.4216h 1.05721v 21.2101h 1.05721v 18.6686h 1.05721v 14.9349h 1.05721v 16.0017h 1.05721v 11.6718h 1.05721v 13.6171h 1.05721v 10.5423h 1.05721v 8.62836h 1.05721v 6.55755h 1.05721v 6.40067h 1.05721v
 4.5495h 1.05721v 5.80453h 1.05721v 3.38859h 1.05721v 0.533389h 1.05721v 2.19631h 1.05721v 2.69832h 1.05721v 1.31779h 1.05721v 1.00403h 1.05721v 1.16091h 1.05721v -0.188255h 1.05721v 1.41191h 1.05721v 1.00403h 1.05721v -0.502013h 1.05721v 0.407886h
 1.05721v -1.06678h 1.05721v 0.345134h 1.05721v 0.75302h 1.05721v 0.251007h 1.05721v -0.470638h 1.05721v 0.502013h 1.05721v -0.313758h 1.05721v 0.596141h 1.05721v 0.0313758h 1.05721v -0.439262h 1.05721v -0.188255h 1.05721v 0.564765h 1.05721v
 -0.282383h 1.05721v 0.596141h 1.05721v -0.627517h 1.05721v 0.564765h 1.05721v -0.0313758h 1.05721v -0.533389h 1.05721v 0.156879h 1.05721v -0.0313758h 1.05721v 0.188255h 1.05721v 0.0313758h 1.05721v -0.37651h 1.05721v 0.0941275h 1.05721v -0.0627517h
 1.05721v 0.627517h 1.05721v -0.0941275h 1.05721v -0.439262h 1.05721v 0.439262h 1.05721v 0.0627517h 1.05721v -0.345134h 1.05721v -0.0941275h 1.05721v 0.188255h 1.05721v -0.125503h 1.05721v 0.37651h 1.05721v 0.0627517h 1.05721v -0.470638h 1.05721v
 -0.156879h 1.05721v 0.470638h 1.05721v 0.219631h 1.05721v -0.502013h 1.05721v 0.407886h 1.05721v -0.219631h 1.05721v 0.0313758h 1.05721v 0.156879h 1.05721v 0.0313758h 1.05721v -0.219631h 1.05721v -0.0313758h 1.05721v -0.188255h 1.05721v 0.0313758h
 1.05721v -0.407886h 1.05721v 0.564765h 1.05721v -0.0941275h 1.05721v 0.0627517h 1.05721v 0.282383h 1.05721v -0.345134h 1.05721v -0.125503h 2.11442v 0.345134h 1.05721v -0.125503h 1.05721v -0.219631h 1.05721v -0.282383h 1.05721v -0.0313758h 1.05721v
 0.0313758h 1.05721v 0.407886h 1.05721v 0.0627517h 1.05721v -0.345134h 1.05721v 0.188255h 1.05721v -0.470638h 1.05721v 0.0627517h 1.05721v 0.596141h 1.05721v -0.658893h 1.05721v 0.125503h 1.05721v 0.564765h 1.05721v -0.533389h 1.05721v 0.0627517h
 1.05721v -0.439262h 1.05721v 0.470638h 1.05721v -0.345134h 1.05721v 0.251007h 1.05721v 0.125503h 1.05721v -0.188255h 1.05721v 0.0313758h 1.05721v -0.37651h 1.05721v 0.251007h 1.05721v -0.564765h 1.05721v 0.439262h 1.05721v -0.345134h 1.05721v
 -0.156879h 1.05721v 0.470638h 1.05721v -0.439262h 1.05721v -0.345134h 1.05721v 0.627517h 1.05721v -0.251007h 1.05721v 0.0313758h 1.05721v 0.439262h 1.05721v -1.0354h 1.05721v 0.125503h 1.05721v 0.282383h 1.05721v -0.878523h 1.05721v 1.06678h
 1.05721v -0.0313758h 1.05721v -0.721644h 1.05721v 0.282383h 1.05721v 0.0627517h 1.05721v -0.972651h 1.05721v -0.0627517h 1.05721v 0.847148h 1.05721v -0.502013h 1.05721v 0.784396h 1.05721v -0.502013h 1.05721v -0.156879h 1.05721v -0.627517h 1.05721v
 0.219631h 1.05721v 0.658893h 1.05721v -0.156879h 1.05721v 0.0941275h 2.11442v -0.815772h 2.11442v -0.0627517h 1.05721v -0.0313758h 1.05721v 0.470638h 1.05721v -0.313758h 1.05721v 0.0627517h 1.05721v -0.627517h 1.05721v -0.156879h 1.05721v 0.564765h
 1.05721v 0.188255h 1.05721v -0.941275h 1.05721v -0.533389h 1.05721v 1.16091h 1.05721v -0.219631h 1.05721v -0.125503h 1.05721v -0.596141h 1.05721v -0.690268h 1.05721v -0.219631h 1.05721v -0.282383h 1.05721v -1.06678h 1.05721v -1.6943h 1.05721v
 -0.0941275h 1.05721v -1.60017h 1.05721v -0.909899h 1.05721v -2.13356h 1.05721v -2.88658h 1.05721v -2.69832h 1.05721v -1.09815h 1.05721v -3.16896h 1.05721v -4.29849h 1.05721v -4.83188h 1.05721v -4.83188h 1.05721v -1.31779h 1.05721v -5.02013h 1.05721v
 -2.13356h 1.05721v -2.29044h 1.05721v -4.29849h 1.05721v -3.60822h 1.05721v 0.37651h 1.05721v -0.909899h 1.05721v -0.125503h 1.05721v 2.54144h 1.05721v 2.57282h 1.05721v -0.721644h 1.05721v 2.54144h 1.05721v 8.15772h 1.05721v 2.41594h 1.05721v
 2.10218h 1.05721v 7.68708h 1.05721v 2.00805h 1.05721v 1.75705h 1.05721v 5.36527h 1.05721v 1.19228h 1.05721v 2.82383h 1.05721v 2.41594h 1.05721v 2.82383h 1.05721v 0.909899h 1.05721v 1.97668h 1.05721v 1.56879h 1.05721v 0.972651h 1.05721v 0.690268h
 1.05721v 0.0941275h 1.05721v 1.06678h 1.05721v 0.784396h 1.05721v 0.219631h 1.05721v -0.282383h 1.05721v 0.251007h 1.05721v -0.313758h 1.05721v 0.156879h 1.05721v 0.0627517h 1.05721v -0.878523h 1.05721v -1.00403h 1.05721v -0.564765h 1.05721v
 -0.219631h 1.05721v -1.63154h 1.05721v -0.502013h 1.05721v -1.09815h 1.05721v -0.941275h 1.05721v -1.22366h 2.11442v 0.0627517h 1.05721v -1.09815h 1.05721v -0.909899h 1.05721v -0.690268h 1.05721v 0.564765h 1.05721v 0.219631h 1.05721v -0.784396h
 1.05721v 1.22366h 1.05721v -0.282383h 1.05721v 1.19228h 1.05721v 1.78842h 1.05721v 1.16091h 1.05721v 0.439262h 1.05721v 0.596141h 1.05721v 1.16091h 1.05721v 1.28641h 1.05721v -0.0941275h 1.05721v 1.16091h 1.05721v 0.815772h 1.05721v 0.909899h
 1.05721v -0.125503h 1.05721v 0.219631h 1.05721v 0.972651h 1.05721v 0.219631h 1.05721v 0.313758h 1.05721v 0.282383h 1.05721v 0.0627517h 1.05721v 0.219631h 1.05721v 0.0627517h 1.05721v 0.282383h 1.05721v 0.125503h 1.05721v -0.345134h 1.05721v
 0.345134h 1.05721v 0.282383h 1.05721v -0.188255h 1.05721v 0.219631h 1.05721v -0.0941275h 1.05721v 0.125503h 1.05721v -0.219631h 1.05721v 0.313758h 1.05721v -0.0941275h 1.05721v 0.0313758h 1.05721v 0.125503h 1.05721v -0.156879h 2.11442v -0.156879h
 1.05721v 0.0941275h 1.05721v 0.0313758h 2.11442" fill="none" stroke="#ff0000" stroke-width="2"/>
<path d="M59.4606,287.16l 4.53543, 0.0605917l 4.53543, 0.0605917l 4.53543, 0.0605917l 4.53543, 0.0605917l 4.53543, 0.0605917l 4.53543, 0.0605917l 4.53543, 0.0605917l 4.53543, 0.0605917l 4.53543, 0.0605917l 4.53543, 0.0605917l 4.53543, 0.0605917l
 4.53543, 0.0605917l 4.53543, 0.0605917l 4.53543, 0.0605917l 4.53543, 0.0605916l 4.53543, 0.0605909l 4.53543, 0.0605784l 4.53543, 0.0604091l 4.53543, 0.0586186l 4.53543, 0.0438441l 4.53543, -0.0508071l 4.53543, -0.518379l 4.53543, -2.28034l 4.53543,
 -7.25312l 4.53543, -17.3986l 4.53543, -31.1358l 4.53543, -39.8733l 4.53543, -32.374l 4.53543, -8.22228l 4.53543, 14.3602l 4.53543, 11.0635l 4.53543, -22.3313l 4.53543, -54.8241l 4.53543, -43.4657l 4.53543, 13.7823l 4.53543, 67.1069l 4.53543,
 75.4402l 4.53543, 49.4607l 4.53543, 21.5549l 4.53543, 6.55703l 4.53543, 1.45333l 4.53543, 0.274781l 4.53543, 0.0843798l 4.53543, 0.0625076l 4.53543, 0.0607039l 4.53543, 0.0605964l 4.53543, 0.0605918l 4.53543, 0.0605917l 4.53543, 0.0605917"
 fill="none" stroke="#0000ff" stroke-width="2"/>
<path d="M281.697,290.129l 4.53543, 0.0605917l 4.53543, 0.0605917l 4.53543, 0.0605917l 4.53543, 0.0605917l 4.53543, 0.0605917l 4.53543, 0.0605917l 4.53543, 0.0605917l 4.53543, 0.0605917l 4.53543, 0.0605917l 4.53543, 0.0605917l 4.53543, 0.0605917l
 4.53543, 0.0605917l 4.53543, 0.0605917l 4.53543, 0.0605917l 4.53543, 0.0605916l 4.53543, 0.0605915l 4.53543, 0.0605889l 4.53543, 0.0605574l 4.53543, 0.0602453l 4.53543, 0.0577671l 4.53543, 0.0420515l 4.53543, -0.0371605l 4.53543, -0.352114l 4.53543,
 -1.32833l 4.53543, -3.63906l 4.53543, -7.64778l 4.53543, -12.2299l 4.53543, -14.2323l 4.53543, -10.4246l 4.53543, -1.12134l 4.53543, 8.85263l 4.53543, 14.0741l 4.53543, 13.1206l 4.53543, 8.67886l 4.53543, 4.04705l 4.53543, 0.611012l 4.53543,
 -1.80585l 4.53543, -3.35264l 4.53543, -3.45593l 4.53543, -1.66709l 4.53543, 1.19012l 4.53543, 3.35592l 4.53543, 3.74724l 4.53543, 2.76908l 4.53543, 1.50692l 4.53543, 0.643545l 4.53543, 0.24119l 4.53543, 0.104033l 4.53543, 0.0687552" fill="none"
 stroke="#0000ff" stroke-width="2"/>
<path d="M503.933,293.097l 4.53543, 0.061795" fill="none" stroke="#0000ff" stroke-width="2"/>
<rect x="351.996" y="21.1945" width="204.094" height="208.684" fill="white"/>
<path d="M351.996,229.879h 204.094" fill="none" stroke="black" stroke-width="2"/>
<path d="M556.091,229.879v -208.684" fill="none" stroke="black" stroke-width="2"/>
<path d="M556.091,21.1945h -204.094" fill="none" stroke="black" stroke-width="2"/>
<path d="M351.996,21.1945v 208.684" fill="none" stroke="black" stroke-width="2"/>
<text x="372.015" y="31.2436" fill="black" font-size="11.7678" font-family="Helvetica">
 / ndf 
</text>
<text x="368.038" y="27.8352" fill="black" font-size="8.01185" font-family="Helvetica">
2
</text>
<text x="361.79" y="31.2436" fill="black" font-size="11.7678" font-family="Times">
&#0967;
</text>
<text x="487.332" y="32.3797" fill="black" font-size="11.7678" font-family="Helvetica">
  8927 / 415
</text>
<text x="361.79" y="46.5814" fill="black" font-size="11.7678" font-family="Helvetica">
1-Centroid 
</text>
<text x="529.369" y="46.5814" fill="black" font-size="11.7678" font-family="Helvetica">
 0.1
</text>
<text x="523.12" y="46.5814" fill="black" font-size="11.7678" font-family="Times">
&#0177;
</text>
<text x="489.604" y="46.5814" fill="black" font-size="11.7678" font-family="Helvetica">
  1423 
</text>
<text x="361.79" y="60.2149" fill="black" font-size="11.7678" font-family="Helvetica">
1-FWHM   
</text>
<text x="521.416" y="60.2149" fill="black" font-size="11.7678" font-family="Helvetica">
 0.15
</text>
<text x="515.167" y="60.2149" fill="black" font-size="11.7678" font-family="Times">
&#0177;
</text>
<text x="481.651" y="60.2149" fill="black" font-size="11.7678" font-family="Helvetica">
 20.77 
</text>
<text x="361.79" y="74.4165" fill="black" font-size="11.7678" font-family="Helvetica">
1-Counts 
</text>
<text x="489.604" y="74.4165" fill="black" font-size="11.7678" font-family="Helvetica">
 6.378e+02
</text>
<text x="483.355" y="74.4165" fill="black" font-size="11.7678" font-family="Times">
&#0177;
</text>
<text x="424.277" y="74.4165" fill="black" font-size="11.7678" font-family="Helvetica">
 9.783e+04 
</text>
<text x="361.79" y="88.0501" fill="black" font-size="11.7678" font-family="Helvetica">
2-Centroid 
</text>
<text x="527.665" y="88.0501" fill="black" font-size="11.7678" font-family="Helvetica">
 0.0
</text>
<text x="521.416" y="88.0501" fill="black" font-size="11.7678" font-family="Times">
&#0177;
</text>
<text x="487.9" y="88.0501" fill="black" font-size="11.7678" font-family="Helvetica">
  1448 
</text>
<text x="361.79" y="102.252" fill="black" font-size="11.7678" font-family="Helvetica">
2-FWHM   
</text>
<text x="521.416" y="102.252" fill="black" font-size="11.7678" font-family="Helvetica">
 0.07
</text>
<text x="515.167" y="102.252" fill="black" font-size="11.7678" font-family="Times">
&#0177;
</text>
<text x="481.651" y="102.252" fill="black" font-size="11.7678" font-family="Helvetica">
 18.04 
</text>
<text x="361.79" y="115.885" fill="black" font-size="11.7678" font-family="Helvetica">
2-Counts 
</text>
<text x="495.853" y="115.885" fill="black" font-size="11.7678" font-family="Helvetica">
 6.72e+02
</text>
<text x="489.604" y="115.885" fill="black" font-size="11.7678" font-family="Times">
&#0177;
</text>
<text x="436.774" y="115.885" fill="black" font-size="11.7678" font-family="Helvetica">
 1.44e+05 
</text>
<text x="361.79" y="129.519" fill="black" font-size="11.7678" font-family="Helvetica">
3-Centroid 
</text>
<text x="529.369" y="129.519" fill="black" font-size="11.7678" font-family="Helvetica">
 0.1
</text>
<text x="523.12" y="129.519" fill="black" font-size="11.7678" font-family="Times">
&#0177;
</text>
<text x="489.604" y="129.519" fill="black" font-size="11.7678" font-family="Helvetica">
  1637 
</text>
<text x="361.79" y="143.721" fill="black" font-size="11.7678" font-family="Helvetica">
3-FWHM   
</text>
<text x="529.369" y="143.721" fill="black" font-size="11.7678" font-family="Helvetica">
 0.1
</text>
<text x="523.12" y="143.721" fill="black" font-size="11.7678" font-family="Times">
&#0177;
</text>
<text x="496.421" y="143.721" fill="black" font-size="11.7678" font-family="Helvetica">
    22 
</text>
<text x="361.79" y="157.354" fill="black" font-size="11.7678" font-family="Helvetica">
3-Counts 
</text>
<text x="489.604" y="157.354" fill="black" font-size="11.7678" font-family="Helvetica">
 2.080e+02
</text>
<text x="483.355" y="157.354" fill="black" font-size="11.7678" font-family="Times">
&#0177;
</text>
<text x="424.277" y="157.354" fill="black" font-size="11.7678" font-family="Helvetica">
 3.919e+04 
</text>
<text x="361.79" y="171.556" fill="black" font-size="11.7678" font-family="Helvetica">
4-Centroid 
</text>
<text x="529.369" y="171.556" fill="black" font-size="11.7678" font-family="Helvetica">
 0.1
</text>
<text x="523.12" y="171.556" fill="black" font-size="11.7678" font-family="Times">
&#0177;
</text>
<text x="489.604" y="171.556" fill="black" font-size="11.7678" font-family="Helvetica">
  1682 
</text>
<text x="361.79" y="185.189" fill="black" font-size="11.7678" font-family="Helvetica">
4-FWHM   
</text>
<text x="521.416" y="185.189" fill="black" font-size="11.7678" font-family="Helvetica">
 0.25
</text>
<text x="515.167" y="185.189" fill="black" font-size="11.7678" font-family="Times">
&#0177;
</text>
<text x="481.651" y="185.189" fill="black" font-size="11.7678" font-family="Helvetica">
 20.92 
</text>
<text x="361.79" y="199.391" fill="black" font-size="11.7678" font-family="Helvetica">
4-Counts 
</text>
<text x="515.167" y="199.391" fill="black" font-size="11.7678" font-family="Helvetica">
 112.0
</text>
<text x="508.918" y="199.391" fill="black" font-size="11.7678" font-family="Times">
&#0177;
</text>
<text x="475.403" y="199.391" fill="black" font-size="11.7678" font-family="Helvetica">
  9317 
</text>
<text x="361.79" y="211.888" fill="black" font-size="11.7678" font-family="Helvetica">
Intercept 
</text>
<text x="527.665" y="213.024" fill="black" font-size="11.7678" font-family="Helvetica">
 0.4
</text>
<text x="521.416" y="213.024" fill="black" font-size="11.7678" font-family="Times">
&#0177;
</text>
<text x="489.604" y="213.024" fill="black" font-size="11.7678" font-family="Helvetica">
 786.1 
</text>
<text x="361.79" y="226.09" fill="black" font-size="11.7678" font-family="Helvetica">
Slope    
</text>
<text x="508.918" y="227.226" fill="black" font-size="11.7678" font-family="Helvetica">
 0.0003
</text>
<text x="502.67" y="227.226" fill="black" font-size="11.7678" font-family="Times">
&#0177;
</text>
<text x="465.745" y="227.226" fill="black" font-size="11.7678" font-family="Helvetica">
0.4502 
</text>
<text x="459.497" y="227.226" fill="black" font-size="11.7678" font-family="Times">
&#8722;
</text>
<text x="456.656" y="227.226" fill="black" font-size="11.7678" font-family="Helvetica">
 
</text>
<path d="M57.1929,293.463h 453.543" fill="none" stroke="black" stroke-width="2"/>
<text x="466.314" y="315.844" fill="black" font-size="10.9701" font-family="Helvetica">
Channels
</text>
<path d="M59.3073,285.637v 7.82567" fill="none" stroke="black" stroke-width="2"/>
<path d="M80.4515,289.55v 3.91283" fill="none" stroke="black" stroke-width="2"/>
<path d="M101.596,289.55v 3.91283" fill="none" stroke="black" stroke-width="2"/>
<path d="M122.74,289.55v 3.91283" fill="none" stroke="black" stroke-width="2"/>
<path d="M143.884,289.55v 3.91283" fill="none" stroke="black" stroke-width="2"/>
<path d="M165.028,285.637v 7.82567" fill="none" stroke="black" stroke-width="2"/>
<path d="M186.173,289.55v 3.91283" fill="none" stroke="black" stroke-width="2"/>
<path d="M207.317,289.55v 3.91283" fill="none" stroke="black" stroke-width="2"/>
<path d="M228.461,289.55v 3.91283" fill="none" stroke="black" stroke-width="2"/>
<path d="M249.605,289.55v 3.91283" fill="none" stroke="black" stroke-width="2"/>
<path d="M270.749,285.637v 7.82567" fill="none" stroke="black" stroke-width="2"/>
<path d="M291.894,289.55v 3.91283" fill="none" stroke="black" stroke-width="2"/>
<path d="M313.038,289.55v 3.91283" fill="none" stroke="black" stroke-width="2"/>
<path d="M334.182,289.55v 3.91283" fill="none" stroke="black" stroke-width="2"/>
<path d="M355.326,289.55v 3.91283" fill="none" stroke="black" stroke-width="2"/>
<path d="M376.47,285.637v 7.82567" fill="none" stroke="black" stroke-width="2"/>
<path d="M397.615,289.55v 3.91283" fill="none" stroke="black" stroke-width="2"/>
<path d="M418.759,289.55v 3.91283" fill="none" stroke="black" stroke-width="2"/>
<path d="M439.903,289.55v 3.91283" fill="none" stroke="black" stroke-width="2"/>
<path d="M461.047,289.55v 3.91283" fill="none" stroke="black" stroke-width="2"/>
<path d="M482.192,285.637v 7.82567" fill="none" stroke="black" stroke-width="2"/>
<path d="M59.3073,285.637v 7.82567" fill="none" stroke="black" stroke-width="2"/>
<path d="M482.192,285.637v 7.82567" fill="none" stroke="black" stroke-width="2"/>
<path d="M503.336,289.55v 3.91283" fill="none" stroke="black" stroke-width="2"/>
<text x="47.0814" y="303.915" fill="black" font-size="10.9701" font-family="Helvetica">
1300
</text>
<text x="152.741" y="303.915" fill="black" font-size="10.9701" font-family="Helvetica">
1400
</text>
<text x="258.402" y="303.915" fill="black" font-size="10.9701" font-family="Helvetica">
1500
</text>
<text x="364.062" y="303.915" fill="black" font-size="10.9701" font-family="Helvetica">
1600
</text>
<text x="469.722" y="303.915" fill="black" font-size="10.9701" font-family="Helvetica">
1700
</text>
<path d="M57.1929,293.463v -260.856" fill="none" stroke="black" stroke-width="2"/>
<path d="M70.7992,293.463h -13.6063" fill="none" stroke="black" stroke-width="2"/>
<path d="M63.9961,287.187h -6.80315" fill="none" stroke="black" stroke-width="2"/>
<path d="M63.9961,280.912h -6.80315" fill="none" stroke="black" stroke-width="2"/>
<path d="M63.9961,274.637h -6.80315" fill="none" stroke="black" stroke-width="2"/>
<path d="M63.9961,268.362h -6.80315" fill="none" stroke="black" stroke-width="2"/>
<path d="M70.7992,262.087h -13.6063" fill="none" stroke="black" stroke-width="2"/>
<path d="M63.9961,255.812h -6.80315" fill="none" stroke="black" stroke-width="2"/>
<path d="M63.9961,249.536h -6.80315" fill="none" stroke="black" stroke-width="2"/>
<path d="M63.9961,243.261h -6.80315" fill="none" stroke="black" stroke-width="2"/>
<path d="M63.9961,236.986h -6.80315" fill="none" stroke="black" stroke-width="2"/>
<path d="M70.7992,230.711h -13.6063" fill="none" stroke="black" stroke-width="2"/>
<path d="M63.9961,224.436h -6.80315" fill="none" stroke="black" stroke-width="2"/>
<path d="M63.9961,218.161h -6.80315" fill="none" stroke="black" stroke-width="2"/>
<path d="M63.9961,211.885h -6.80315" fill="none" stroke="black" stroke-width="2"/>
<path d="M63.9961,205.61h -6.80315" fill="none" stroke="black" stroke-width="2"/>
<path d="M70.7992,199.335h -13.6063" fill="none" stroke="black" stroke-width="2"/>
<path d="M63.9961,193.06h -6.80315" fill="none" stroke="black" stroke-width="2"/>
<path d="M63.9961,186.785h -6.80315" fill="none" stroke="black" stroke-width="2"/>
<path d="M63.9961,180.51h -6.80315" fill="none" stroke="black" stroke-width="2"/>
<path d="M63.9961,174.234h -6.80315" fill="none" stroke="black" stroke-width="2"/>
<path d="M70.7992,167.959h -13.6063" fill="none" stroke="black" stroke-width="2"/>
<path d="M63.9961,161.684h -6.80315" fill="none" stroke="black" stroke-width="2"/>
<path d="M63.9961,155.409h -6.80315" fill="none" stroke="black" stroke-width="2"/>
<path d="M63.9961,149.134h -6.80315" fill="none" stroke="black" stroke-width="2"/>
<path d="M63.9961,142.859h -6.80315" fill="none" stroke="black" stroke-width="2"/>
<path d="M70.7992,136.583h -13.6063" fill="none" stroke="black" stroke-width="2"/>
<path d="M63.9961,130.308h -6.80315" fill="none" stroke="black" stroke-width="2"/>
<path d="M63.9961,124.033h -6.80315" fill="none" stroke="black" stroke-width="2"/>
<path d="M63.9961,117.758h -6.80315" fill="none" stroke="black" stroke-width="2"/>
<path d="M63.9961,111.483h -6.80315" fill="none" stroke="black" stroke-width="2"/>
<path d="M70.7992,105.207h -13.6063" fill="none" stroke="black" stroke-width="2"/>
<path d="M63.9961,98.9323h -6.80315" fill="none" stroke="black" stroke-width="2"/>
<path d="M63.9961,92.6572h -6.80315" fill="none" stroke="black" stroke-width="2"/>
<path d="M63.9961,86.382h -6.80315" fill="none" stroke="black" stroke-width="2"/>
<path d="M63.9961,80.1068h -6.80315" fill="none" stroke="black" stroke-width="2"/>
<path d="M70.7992,73.8317h -13.6063" fill="none" stroke="black" stroke-width="2"/>
<path d="M63.9961,67.5565h -6.80315" fill="none" stroke="black" stroke-width="2"/>
<path d="M63.9961,61.2813h -6.80315" fill="none" stroke="black" stroke-width="2"/>
<path d="M63.9961,55.0062h -6.80315" fill="none" stroke="black" stroke-width="2"/>
<path d="M63.9961,48.731h -6.80315" fill="none" stroke="black" stroke-width="2"/>
<path d="M70.7992,42.4558h -13.6063" fill="none" stroke="black" stroke-width="2"/>
<path d="M70.7992,42.4558h -13.6063" fill="none" stroke="black" stroke-width="2"/>
<path d="M63.9961,36.1807h -6.80315" fill="none" stroke="black" stroke-width="2"/>
<text x="48.2175" y="297.098" fill="black" font-size="10.9701" font-family="Helvetica">
0
</text>
<text x="30.0394" y="265.855" fill="black" font-size="10.9701" font-family="Helvetica">
1000
</text>
<text x="30.0394" y="234.611" fill="black" font-size="10.9701" font-family="Helvetica">
2000
</text>
<text x="30.0394" y="202.799" fill="black" font-size="10.9701" font-family="Helvetica">
3000
</text>
<text x="30.0394" y="171.556" fill="black" font-size="10.9701" font-family="Helvetica">
4000
</text>
<text x="30.0394" y="140.312" fill="black" font-size="10.9701" font-family="Helvetica">
5000
</text>
<text x="30.0394" y="109.069" fill="black" font-size="10.9701" font-family="Helvetica">
6000
</text>
<text x="30.0394" y="77.2569" fill="black" font-size="10.9701" font-family="Helvetica">
7000
</text>
<text x="30.0394" y="46.0133" fill="black" font-size="10.9701" font-family="Helvetica">
8000
</text>
<rect x="351.996" y="21.1945" width="204.094" height="208.684" fill="white"/>
<path d="M351.996,229.879h 204.094" fill="none" stroke="black" stroke-width="2"/>
<path d="M556.091,229.879v -208.684" fill="none" stroke="black" stroke-width="2"/>
<path d="M556.091,21.1945h -204.094" fill="none" stroke="black" stroke-width="2"/>
<path d="M351.996,21.1945v 208.684" fill="none" stroke="black" stroke-width="2"/>
<text x="372.015" y="31.2436" fill="black" font-size="11.7678" font-family="Helvetica">
 / ndf 
</text>
<text x="368.038" y="27.8352" fill="black" font-size="8.01185" font-family="Helvetica">
2
</text>
<text x="361.79" y="31.2436" fill="black" font-size="11.7678" font-family="Times">
&#0967;
</text>
<text x="487.332" y="32.3797" fill="black" font-size="11.7678" font-family="Helvetica">
  8927 / 415
</text>
<text x="361.79" y="46.5814" fill="black" font-size="11.7678" font-family="Helvetica">
1-Centroid 
</text>
<text x="529.369" y="46.5814" fill="black" font-size="11.7678" font-family="Helvetica">
 0.1
</text>
<text x="523.12" y="46.5814" fill="black" font-size="11.7678" font-family="Times">
&#0177;
</text>
<text x="489.604" y="46.5814" fill="black" font-size="11.7678" font-family="Helvetica">
  1423 
</text>
<text x="361.79" y="60.2149" fill="black" font-size="11.7678" font-family="Helvetica">
1-FWHM   
</text>
<text x="521.416" y="60.2149" fill="black" font-size="11.7678" font-family="Helvetica">
 0.15
</text>
<text x="515.167" y="60.2149" fill="black" font-size="11.7678" font-family="Times">
&#0177;
</text>
<text x="481.651" y="60.2149" fill="black" font-size="11.7678" font-family="Helvetica">
 20.77 
</text>
<text x="361.79" y="74.4165" fill="black" font-size="11.7678" font-family="Helvetica">
1-Counts 
</text>
<text x="489.604" y="74.4165" fill="black" font-size="11.7678" font-family="Helvetica">
 6.378e+02
</text>
<text x="483.355" y="74.4165" fill="black" font-size="11.7678" font-family="Times">
&#0177;
</text>
<text x="424.277" y="74.4165" fill="black" font-size="11.7678" font-family="Helvetica">
 9.783e+04 
</text>
<text x="361.79" y="88.0501" fill="black" font-size="11.7678" font-family="Helvetica">
2-Centroid 
</text>
<text x="527.665" y="88.0501" fill="black" font-size="11.7678" font-family="Helvetica">
 0.0
</text>
<text x="521.416" y="88.0501" fill="black" font-size="11.7678" font-family="Times">
&#0177;
</text>
<text x="487.9" y="88.0501" fill="black" font-size="11.7678" font-family="Helvetica">
  1448 
</text>
<text x="361.79" y="102.252" fill="black" font-size="11.7678" font-family="Helvetica">
2-FWHM   
</text>
<text x="521.416" y="102.252" fill="black" font-size="11.7678" font-family="Helvetica">
 0.07
</text>
<text x="515.167" y="102.252" fill="black" font-size="11.7678" font-family="Times">
&#0177;
</text>
<text x="481.651" y="102.252" fill="black" font-size="11.7678" font-family="Helvetica">
 18.04 
</text>
<text x="361.79" y="115.885" fill="black" font-size="11.7678" font-family="Helvetica">
2-Counts 
</text>
<text x="495.853" y="115.885" fill="black" font-size="11.7678" font-family="Helvetica">
 6.72e+02
</text>
<text x="489.604" y="115.885" fill="black" font-size="11.7678" font-family="Times">
&#0177;
</text>
<text x="436.774" y="115.885" fill="black" font-size="11.7678" font-family="Helvetica">
 1.44e+05 
</text>
<text x="361.79" y="129.519" fill="black" font-size="11.7678" font-family="Helvetica">
3-Centroid 
</text>
<text x="529.369" y="129.519" fill="black" font-size="11.7678" font-family="Helvetica">
 0.1
</text>
<text x="523.12" y="129.519" fill="black" font-size="11.7678" font-family="Times">
&#0177;
</text>
<text x="489.604" y="129.519" fill="black" font-size="11.7678" font-family="Helvetica">
  1637 
</text>
<text x="361.79" y="143.721" fill="black" font-size="11.7678" font-family="Helvetica">
3-FWHM   
</text>
<text x="529.369" y="143.721" fill="black" font-size="11.7678" font-family="Helvetica">
 0.1
</text>
<text x="523.12" y="143.721" fill="black" font-size="11.7678" font-family="Times">
&#0177;
</text>
<text x="496.421" y="143.721" fill="black" font-size="11.7678" font-family="Helvetica">
    22 
</text>
<text x="361.79" y="157.354" fill="black" font-size="11.7678" font-family="Helvetica">
3-Counts 
</text>
<text x="489.604" y="157.354" fill="black" font-size="11.7678" font-family="Helvetica">
 2.080e+02
</text>
<text x="483.355" y="157.354" fill="black" font-size="11.7678" font-family="Times">
&#0177;
</text>
<text x="424.277" y="157.354" fill="black" font-size="11.7678" font-family="Helvetica">
 3.919e+04 
</text>
<text x="361.79" y="171.556" fill="black" font-size="11.7678" font-family="Helvetica">
4-Centroid 
</text>
<text x="529.369" y="171.556" fill="black" font-size="11.7678" font-family="Helvetica">
 0.1
</text>
<text x="523.12" y="171.556" fill="black" font-size="11.7678" font-family="Times">
&#0177;
</text>
<text x="489.604" y="171.556" fill="black" font-size="11.7678" font-family="Helvetica">
  1682 
</text>
<text x="361.79" y="185.189" fill="black" font-size="11.7678" font-family="Helvetica">
4-FWHM   
</text>
<text x="521.416" y="185.189" fill="black" font-size="11.7678" font-family="Helvetica">
 0.25
</text>
<text x="515.167" y="185.189" fill="black" font-size="11.7678" font-family="Times">
&#0177;
</text>
<text x="481.651" y="185.189" fill="black" font-size="11.7678" font-family="Helvetica">
 20.92 
</text>
<text x="361.79" y="199.391" fill="black" font-size="11.7678" font-family="Helvetica">
4-Counts 
</text>
<text x="515.167" y="199.391" fill="black" font-size="11.7678" font-family="Helvetica">
 112.0
</text>
<text x="508.918" y="199.391" fill="black" font-size="11.7678" font-family="Times">
&#0177;
</text>
<text x="475.403" y="199.391" fill="black" font-size="11.7678" font-family="Helvetica">
  9317 
</text>
<text x="361.79" y="211.888" fill="black" font-size="11.7678" font-family="Helvetica">
Intercept 
</text>
<text x="527.665" y="213.024" fill="black" font-size="11.7678" font-family="Helvetica">
 0.4
</text>
<text x="521.416" y="213.024" fill="black" font-size="11.7678" font-family="Times">
&#0177;
</text>
<text x="489.604" y="213.024" fill="black" font-size="11.7678" font-family="Helvetica">
 786.1 
</text>
<text x="361.79" y="226.09" fill="black" font-size="11.7678" font-family="Helvetica">
Slope    
</text>
<text x="508.918" y="227.226" fill="black" font-size="11.7678" font-family="Helvetica">
 0.0003
</text>
<text x="502.67" y="227.226" fill="black" font-size="11.7678" font-family="Times">
&#0177;
</text>
<text x="465.745" y="227.226" fill="black" font-size="11.7678" font-family="Helvetica">
0.4502 
</text>
<text x="459.497" y="227.226" fill="black" font-size="11.7678" font-family="Times">
&#8722;
</text>
<text x="456.656" y="227.226" fill="black" font-size="11.7678" font-family="Helvetica">
 
</text>
<path d="M59.4606,293.463h 90.7087l 4.53543, -0.130316l 4.53543, -0.578971l 4.53543, -2.34093l 4.53543, -7.3137l 4.53543, -17.4589l 4.53543, -31.1923l 4.53543, -39.888l 4.53543, -32.0576l 4.53543, -6.05068l 4.53543, 23.7566l 4.53543, 39.2873l
 4.53543, 35.7986l 4.53543, 22.607l 4.53543, 10.5489l 4.53543, 3.73713l 4.53543, 1.01934l 4.53543, 0.215817l 4.53543, 0.0407684h 49.8898" fill="none" stroke="#00ff00" stroke-width="2"/>
<path d="M281.697,293.463h 222.236" fill="none" stroke="#00ff00" stroke-width="2"/>
<path d="M503.933,293.463h 4.53543" fill="none" stroke="#00ff00" stroke-width="2"/>
<path d="M59.4606,293.463h 117.921l 4.53543, -0.0502217l 4.53543, -0.376968l 4.53543, -2.23219l 4.53543, -9.45691l 4.53543, -28.2844l 4.53543, -58.1905l 4.53543, -77.4918l 4.53543, -54.0752l 4.53543, 9.98456l 4.53543, 66.027l 4.53543, 75.1638l
 4.53543, 49.3645l 4.53543, 21.4897l 4.53543, 6.49597l 4.53543, 1.3927l 4.53543, 0.240008h 31.748" fill="none" stroke="#00ff00" stroke-width="2"/>
<path d="M281.697,293.463h 222.236" fill="none" stroke="#00ff00" stroke-width="2"/>
<path d="M503.933,293.463h 4.53543" fill="none" stroke="#00ff00" stroke-width="2"/>
<path d="M59.4606,293.463h 222.236" fill="none" stroke="#00ff00" stroke-width="2"/>
<path d="M281.697,293.463h 95.2441l 4.53543, -0.1195l 4.53543, -0.412706l 4.53543, -1.38892l 4.53543, -3.69965l 4.53543, -7.70837l 4.53543, -12.2905l 4.53543, -14.2929l 4.53543, -10.4852l 4.53543, -1.18184l 4.53543, 8.7928l 4.53543, 14.019l 4.53543,
 13.0906l 4.53543, 8.7526l 4.53543, 4.44556l 4.53543, 1.75971l 4.53543, 0.550174l 4.53543, 0.136936l 4.53543, 0.0322522h 45.3543" fill="none" stroke="#00ff00" stroke-width="2"/>
<path d="M503.933,293.463h 4.53543" fill="none" stroke="#00ff00" stroke-width="2"/>
<path d="M59.4606,293.463h 222.236" fill="none" stroke="#00ff00" stroke-width="2"/>
<path d="M281.697,293.463h 145.134l 4.53543, -0.0368615l 4.53543, -0.134336l 4.53543, -0.459101l 4.53543, -1.20929l 4.53543, -2.41661l 4.53543, -3.55017l 4.53543, -3.54379l 4.53543, -1.73204l 4.53543, 1.12897l 4.53543, 3.29527l 4.53543, 3.68664l
 4.53543, 2.70848l 4.53543, 1.44633l 4.53543, 0.582953l 4.53543, 0.180598l 4.53543, 0.052961h 4.53543" fill="none" stroke="#00ff00" stroke-width="2"/>
<path d="M503.933,293.463h 4.53543" fill="none" stroke="#00ff00" stroke-width="2"/>
<text x="120.93" y="15.9058" fill="black" font-size="15.9159" font-family="Helvetica">
Labs_Xrays/Resolution/vsBiasVoltage/360.Spe
</text></svg>
