<?xml version="1.0" standalone="no"?>
<svg width="567.429" height="326.569" viewBox="0 0 567.429 326.569" xmlns="http://www.w3.org/2000/svg">
<title>
/home/ADF/hyw543/XRay/Resolution/400.svg
</title>
<desc>
Creator: ROOT Version 6.06/08
CreationDate: Fri Mar  1 15:30:47 2019</desc>
<defs>
</defs>
<rect x="0.5" y="0" width="566.929" height="326.069" fill="white"/>
<rect x="57.1929" y="32.6069" width="453.543" height="260.856" fill="white"/>
<rect x="57.1929" y="32.6069" width="453.543" height="260.856" fill="none" stroke="black"/>
<rect x="57.1929" y="32.6069" width="453.543" height="260.856" fill="white"/>
<rect x="57.1929" y="32.6069" width="453.543" height="260.856" fill="none" stroke="black"/>
<path d="M57.1929,284.939h 1.20945v -1.35088h 1.20945v 0.868425h 1.20945v -1.06141h 1.20945v 1.12574h 1.20945v -1.02924h 1.20945v -0.353803h 1.20945v -0.225147h 1.20945v 1.09357h 1.20945v -1.57603h 1.20945v -0.546786h 1.20945v 0.128656h 1.20945v
 0.0321639h 1.20945v 0.0643278h 1.20945v 0.385967h 1.20945v -0.643278h 1.20945v 0.128656h 1.20945v 0.450294h 1.20945v -1.60819h 1.20945v 0.482458h 1.20945v 0.257311h 1.20945v -1.22223h 1.20945v 1.73685h 1.20945v -2.86259h 1.20945v 1.35088h 1.20945v
 0.0964917h 1.20945v -1.38305h 1.20945v 1.92983h 1.20945v -1.35088h 1.20945v -0.0964917h 1.20945v 0.289475h 1.20945v -1.70469h 1.20945v 1.31872h 1.20945v -1.70469h 1.20945v 0.0321639h 1.20945v 1.86551h 1.20945v -0.514622h 1.20945v 0.0643278h 1.20945v
 -0.514622h 1.20945v -0.0643278h 1.20945v -1.99416h 1.20945v 0.418131h 1.20945v -0.160819h 1.20945v -1.99416h 1.20945v 0.611114h 1.20945v -1.25439h 1.20945v -1.1579h 1.20945v -0.932753h 1.20945v -4.2778h 1.20945v -1.92983h 1.20945v -3.24855h 1.20945v
 -3.85967h 1.20945v -5.95032h 1.20945v -7.01173h 1.20945v -6.56143h 1.20945v -7.55851h 1.20945v -11.2895h 1.20945v -10.3246h 1.20945v -8.94156h 1.20945v -15.2778h 1.20945v -10.6784h 1.20945v -8.36261h 1.20945v -11.1609h 1.20945v -10.003h 1.20945v
 -3.92399h 1.20945v -4.02049h 1.20945v 1.19006h 1.20945v 0.482458h 1.20945v 4.18131h 1.20945v 4.43862h 1.20945v 4.59944h 1.20945v 7.17255h 1.20945v 8.1053h 1.20945v 7.65501h 1.20945v -1.67252h 1.20945v 4.9854h 1.20945v 2.47662h 1.20945v -3.34504h
 1.20945v -4.85675h 1.20945v -10.7106h 1.20945v -9.19887h 1.20945v -15.5352h 1.20945v -9.23104h 1.20945v -20.1346h 1.20945v -11.6433h 1.20945v -16.2428h 1.20945v -10.4854h 1.20945v -15.117h 1.20945v -10.0673h 1.20945v 1.67252h 1.20945v -0.385967h
 1.20945v 5.53219h 1.20945v 6.23979h 1.20945v 12.2223h 1.20945v 13.0907h 1.20945v 14.7311h 1.20945v 18.1404h 1.20945v 20.8422h 1.20945v 14.924h 1.20945v 17.9796h 1.20945v 20.4562h 1.20945v 13.2515h 1.20945v 14.2164h 1.20945v 11.8363h 1.20945v 9.617h
 1.20945v 10.7749h 1.20945v 10.6141h 1.20945v 2.60527h 1.20945v 5.17839h 1.20945v 5.50002h 1.20945v 3.76318h 1.20945v 3.40937h 1.20945v 1.38305h 1.20945v 2.09065h 1.20945v 0.418131h 1.20945v 1.28656h 1.20945v 1.09357h 1.20945v 1.67252h 1.20945v
 -0.128656h 1.20945v -0.611114h 1.20945v 1.64036h 1.20945v -0.643278h 1.20945v 0.739769h 2.4189v 0.900589h 1.20945v -0.321639h 1.20945v -0.0643278h 1.20945v -0.0321639h 1.20945v 0.321639h 1.20945v 0.128656h 1.20945v 0.128656h 1.20945v -0.160819h
 1.20945v -0.0321639h 1.20945v -0.385967h 1.20945v 1.12574h 1.20945v -0.482458h 1.20945v -0.192983h 1.20945v 0.192983h 1.20945v 0.257311h 1.20945v 0.0964917h 1.20945v -0.450294h 1.20945v 0.611114h 1.20945v -0.0321639h 1.20945v -0.482458h 1.20945v
 -0.0964917h 1.20945v 0.0321639h 1.20945v 0.0643278h 1.20945v -0.289475h 1.20945v 0.450294h 1.20945v 0.160819h 2.4189v 0.192983h 1.20945v 0.321639h 1.20945v -0.739769h 1.20945v -0.514622h 1.20945v 0.0321639h 1.20945v 0.611114h 1.20945v -0.643278h
 1.20945v 0.385967h 1.20945v 0.225147h 1.20945v 0.0964917h 1.20945v 0.0643278h 1.20945v -0.192983h 1.20945v -0.0643278h 1.20945v -0.450294h 1.20945v 0.675442h 1.20945v -0.418131h 2.4189v 0.0321639h 1.20945v 0.160819h 1.20945v -0.289475h 1.20945v
 0.289475h 1.20945v -0.482458h 1.20945v 0.289475h 1.20945v 0.128656h 1.20945v -0.192983h 1.20945v -0.0964917h 1.20945v 0.192983h 1.20945v -0.514622h 1.20945v 0.611114h 1.20945v -0.192983h 1.20945v -0.225147h 1.20945v 0.546786h 1.20945v -0.739769h
 1.20945v 0.514622h 1.20945v -0.0321639h 1.20945v -0.160819h 1.20945v -0.128656h 1.20945v -0.0321639h 1.20945v -0.128656h 1.20945v -0.0643278h 1.20945v 0.0321639h 1.20945v 0.0964917h 1.20945v 0.160819h 1.20945v -0.321639h 2.4189v -0.289475h 1.20945v
 0.771933h 1.20945v -0.675442h 1.20945v -0.192983h 1.20945v -0.321639h 1.20945v 0.804097h 1.20945v -0.450294h 1.20945v -0.482458h 1.20945v 0.643278h 1.20945v 0.546786h 1.20945v -0.675442h 1.20945v 0.0321639h 1.20945v -0.450294h 1.20945v -0.257311h
 1.20945v 0.128656h 1.20945v 0.514622h 1.20945v -0.225147h 1.20945v -0.450294h 1.20945v 0.868425h 1.20945v -0.418131h 1.20945v -0.385967h 1.20945v 0.321639h 1.20945v -0.353803h 1.20945v 0.0321639h 1.20945v -0.418131h 1.20945v -0.225147h 1.20945v
 -0.289475h 1.20945v 0.0964917h 1.20945v 0.128656h 1.20945v 0.707606h 3.62835v 0.353803h 1.20945v -0.932753h 1.20945v -0.546786h 1.20945v 0.289475h 1.20945v 0.0321639h 1.20945v 0.257311h 1.20945v 0.289475h 1.20945v -0.353803h 1.20945v -0.804097h
 1.20945v 0.128656h 1.20945v 0.0643278h 1.20945v 0.450294h 1.20945v -0.160819h 1.20945v -0.225147h 1.20945v 0.418131h 1.20945v -0.418131h 1.20945v -0.0321639h 1.20945v -0.192983h 1.20945v -0.353803h 1.20945v 0.353803h 1.20945v -0.0643278h 1.20945v
 -0.57895h 1.20945v 1.25439h 1.20945v -1.06141h 1.20945v 0.385967h 1.20945v -0.0321639h 1.20945v -0.900589h 1.20945v 0.804097h 1.20945v -1.28656h 1.20945v 0.0964917h 1.20945v -1.1579h 1.20945v 0.192983h 1.20945v -1.09357h 1.20945v 0.289475h 1.20945v
 -1.86551h 1.20945v -1.41521h 1.20945v -1.47954h 1.20945v -2.02632h 1.20945v -0.836261h 1.20945v -4.72809h 1.20945v -1.47954h 1.20945v -2.47662h 1.20945v -5.53219h 1.20945v -3.76318h 1.20945v -3.98832h 1.20945v -3.1199h 1.20945v -4.95324h 1.20945v
 -2.76609h 1.20945v -4.72809h 1.20945v -1.28656h 1.20945v -3.73101h 1.20945v 1.41521h 1.20945v -1.31872h 1.20945v -0.128656h 1.20945v 2.38013h 1.20945v 0.964917h 1.20945v 3.85967h 1.20945v 2.18714h 1.20945v 4.6316h 1.20945v 2.15498h 1.20945v 5.59652h
 1.20945v 1.64036h 1.20945v 4.79242h 1.20945v 2.95908h 1.20945v 3.24855h 1.20945v 2.86259h 1.20945v 1.28656h 1.20945v 5.14622h 1.20945v 2.44446h 1.20945v 0.739769h 1.20945v 1.5117h 1.20945v 2.28364h 1.20945v 0.932753h 1.20945v 1.41521h 1.20945v
 0.128656h 1.20945v 0.0643278h 1.20945v 0.964917h 1.20945v 0.192983h 1.20945v -0.450294h 1.20945v 0.804097h 1.20945v -0.57895h 1.20945v 0.546786h 1.20945v -0.385967h 1.20945v -0.771933h 1.20945v -0.57895h 1.20945v -0.160819h 1.20945v -1.22223h
 1.20945v -1.1579h 1.20945v -0.57895h 1.20945v -1.60819h 1.20945v -0.611114h 1.20945v -0.804097h 1.20945v -1.47954h 1.20945v 0.0643278h 1.20945v -0.932753h 1.20945v 0.964917h 1.20945v -1.41521h 1.20945v 0.257311h 1.20945v -0.482458h 1.20945v
 0.707606h 1.20945v 0.0321639h 1.20945v -0.160819h 1.20945v 1.80118h 1.20945v 0.739769h 1.20945v 1.47954h 1.20945v -0.739769h 1.20945v 1.47954h 1.20945v 1.70469h 1.20945v 0.546786h 1.20945v 0.675442h 1.20945v 0.964917h 1.20945v 0.868425h 1.20945v
 0.57895h 1.20945v 0.160819h 1.20945v 0.771933h 1.20945v 0.225147h 1.20945v 1.06141h 1.20945v -0.192983h 1.20945v 0.804097h 1.20945v -0.289475h 1.20945v 0.257311h 1.20945v 0.482458h 1.20945v -0.160819h 1.20945v 0.0643278h 1.20945v 0.225147h 1.20945v
 0.192983h 1.20945v -0.192983h 1.20945v 0.257311h 1.20945v 0.0643278h 1.20945v -0.257311h 1.20945v 0.192983h 1.20945v -0.128656h 1.20945v 0.128656h 1.20945v -0.160819h 1.20945v 0.289475h 1.20945v 0.0321639h 1.20945v -0.160819h 1.20945v 0.0321639h
 2.4189v -0.0964917h 2.4189v 0.128656h 1.20945v -0.160819h 1.20945v 0.0643278h 1.20945v 0.0964917h 1.20945v -0.0643278h 1.20945v 0.0964917h 1.20945" fill="none" stroke="#ff0000" stroke-width="2"/>
<rect x="351.996" y="21.1945" width="204.094" height="208.684" fill="white"/>
<path d="M351.996,229.879h 204.094" fill="none" stroke="black" stroke-width="2"/>
<path d="M556.091,229.879v -208.684" fill="none" stroke="black" stroke-width="2"/>
<path d="M556.091,21.1945h -204.094" fill="none" stroke="black" stroke-width="2"/>
<path d="M351.996,21.1945v 208.684" fill="none" stroke="black" stroke-width="2"/>
<text x="372.015" y="31.2436" fill="black" font-size="11.7678" font-family="Helvetica">
 / ndf 
</text>
<text x="368.038" y="27.8352" fill="black" font-size="8.01185" font-family="Helvetica">
2
</text>
<text x="361.79" y="31.2436" fill="black" font-size="11.7678" font-family="Times">
&#0967;
</text>
<text x="489.036" y="32.3797" fill="black" font-size="11.7678" font-family="Helvetica">
  9229 / 361
</text>
<text x="361.79" y="46.5814" fill="black" font-size="11.7678" font-family="Helvetica">
1-Centroid 
</text>
<text x="529.369" y="46.5814" fill="black" font-size="11.7678" font-family="Helvetica">
 0.1
</text>
<text x="523.12" y="46.5814" fill="black" font-size="11.7678" font-family="Times">
&#0177;
</text>
<text x="489.604" y="46.5814" fill="black" font-size="11.7678" font-family="Helvetica">
  1423 
</text>
<text x="361.79" y="60.2149" fill="black" font-size="11.7678" font-family="Helvetica">
1-FWHM   
</text>
<text x="521.416" y="60.2149" fill="black" font-size="11.7678" font-family="Helvetica">
 0.15
</text>
<text x="515.167" y="60.2149" fill="black" font-size="11.7678" font-family="Times">
&#0177;
</text>
<text x="481.651" y="60.2149" fill="black" font-size="11.7678" font-family="Helvetica">
 20.69 
</text>
<text x="361.79" y="74.4165" fill="black" font-size="11.7678" font-family="Helvetica">
1-Counts 
</text>
<text x="489.604" y="74.4165" fill="black" font-size="11.7678" font-family="Helvetica">
 6.302e+02
</text>
<text x="483.355" y="74.4165" fill="black" font-size="11.7678" font-family="Times">
&#0177;
</text>
<text x="424.277" y="74.4165" fill="black" font-size="11.7678" font-family="Helvetica">
 9.499e+04 
</text>
<text x="361.79" y="88.0501" fill="black" font-size="11.7678" font-family="Helvetica">
2-Centroid 
</text>
<text x="527.665" y="88.0501" fill="black" font-size="11.7678" font-family="Helvetica">
 0.0
</text>
<text x="521.416" y="88.0501" fill="black" font-size="11.7678" font-family="Times">
&#0177;
</text>
<text x="487.9" y="88.0501" fill="black" font-size="11.7678" font-family="Helvetica">
  1448 
</text>
<text x="361.79" y="102.252" fill="black" font-size="11.7678" font-family="Helvetica">
2-FWHM   
</text>
<text x="521.416" y="102.252" fill="black" font-size="11.7678" font-family="Helvetica">
 0.07
</text>
<text x="515.167" y="102.252" fill="black" font-size="11.7678" font-family="Times">
&#0177;
</text>
<text x="481.651" y="102.252" fill="black" font-size="11.7678" font-family="Helvetica">
 18.19 
</text>
<text x="361.79" y="115.885" fill="black" font-size="11.7678" font-family="Helvetica">
2-Counts 
</text>
<text x="495.853" y="115.885" fill="black" font-size="11.7678" font-family="Helvetica">
 6.56e+02
</text>
<text x="489.604" y="115.885" fill="black" font-size="11.7678" font-family="Times">
&#0177;
</text>
<text x="436.774" y="115.885" fill="black" font-size="11.7678" font-family="Helvetica">
 1.42e+05 
</text>
<text x="361.79" y="129.519" fill="black" font-size="11.7678" font-family="Helvetica">
3-Centroid 
</text>
<text x="529.369" y="129.519" fill="black" font-size="11.7678" font-family="Helvetica">
 0.1
</text>
<text x="523.12" y="129.519" fill="black" font-size="11.7678" font-family="Times">
&#0177;
</text>
<text x="489.604" y="129.519" fill="black" font-size="11.7678" font-family="Helvetica">
  1638 
</text>
<text x="361.79" y="143.721" fill="black" font-size="11.7678" font-family="Helvetica">
3-FWHM   
</text>
<text x="523.12" y="143.721" fill="black" font-size="11.7678" font-family="Helvetica">
 0.11
</text>
<text x="516.871" y="143.721" fill="black" font-size="11.7678" font-family="Times">
&#0177;
</text>
<text x="485.06" y="143.721" fill="black" font-size="11.7678" font-family="Helvetica">
 21.91 
</text>
<text x="361.79" y="157.354" fill="black" font-size="11.7678" font-family="Helvetica">
3-Counts 
</text>
<text x="489.604" y="157.354" fill="black" font-size="11.7678" font-family="Helvetica">
 2.069e+02
</text>
<text x="483.355" y="157.354" fill="black" font-size="11.7678" font-family="Times">
&#0177;
</text>
<text x="424.277" y="157.354" fill="black" font-size="11.7678" font-family="Helvetica">
 3.902e+04 
</text>
<text x="361.79" y="171.556" fill="black" font-size="11.7678" font-family="Helvetica">
4-Centroid 
</text>
<text x="529.369" y="171.556" fill="black" font-size="11.7678" font-family="Helvetica">
 0.1
</text>
<text x="523.12" y="171.556" fill="black" font-size="11.7678" font-family="Times">
&#0177;
</text>
<text x="489.604" y="171.556" fill="black" font-size="11.7678" font-family="Helvetica">
  1683 
</text>
<text x="361.79" y="185.189" fill="black" font-size="11.7678" font-family="Helvetica">
4-FWHM   
</text>
<text x="521.416" y="185.189" fill="black" font-size="11.7678" font-family="Helvetica">
 0.24
</text>
<text x="515.167" y="185.189" fill="black" font-size="11.7678" font-family="Times">
&#0177;
</text>
<text x="481.651" y="185.189" fill="black" font-size="11.7678" font-family="Helvetica">
 20.98 
</text>
<text x="361.79" y="199.391" fill="black" font-size="11.7678" font-family="Helvetica">
4-Counts 
</text>
<text x="515.167" y="199.391" fill="black" font-size="11.7678" font-family="Helvetica">
 109.6
</text>
<text x="508.918" y="199.391" fill="black" font-size="11.7678" font-family="Times">
&#0177;
</text>
<text x="475.403" y="199.391" fill="black" font-size="11.7678" font-family="Helvetica">
  9386 
</text>
<text x="361.79" y="211.888" fill="black" font-size="11.7678" font-family="Helvetica">
Intercept 
</text>
<text x="527.665" y="213.024" fill="black" font-size="11.7678" font-family="Helvetica">
 8.0
</text>
<text x="521.416" y="213.024" fill="black" font-size="11.7678" font-family="Times">
&#0177;
</text>
<text x="487.9" y="213.024" fill="black" font-size="11.7678" font-family="Helvetica">
 895.4 
</text>
<text x="361.79" y="226.09" fill="black" font-size="11.7678" font-family="Helvetica">
Slope    
</text>
<text x="508.918" y="227.226" fill="black" font-size="11.7678" font-family="Helvetica">
 0.0049
</text>
<text x="502.67" y="227.226" fill="black" font-size="11.7678" font-family="Times">
&#0177;
</text>
<text x="465.745" y="227.226" fill="black" font-size="11.7678" font-family="Helvetica">
0.5155 
</text>
<text x="459.497" y="227.226" fill="black" font-size="11.7678" font-family="Times">
&#8722;
</text>
<text x="456.656" y="227.226" fill="black" font-size="11.7678" font-family="Helvetica">
 
</text>
<path d="M59.4606,287.196l 4.53543, 0.0621814l 4.53543, 0.0621813l 4.53543, 0.0621799l 4.53543, 0.0621634l 4.53543, 0.0620054l 4.53543, 0.060747l 4.53543, 0.0524818l 4.53543, 0.0078293l 4.53543, -0.189725l 4.53543, -0.901002l 4.53543, -2.96496l
 4.53543, -7.71501l 4.53543, -16.1292l 4.53543, -26.8449l 4.53543, -34.5987l 4.53543, -32.2442l 4.53543, -17.0876l 4.53543, 3.61812l 4.53543, 14.9682l 4.53543, 5.06757l 4.53543, -22.9362l 4.53543, -47.6041l 4.53543, -43.1757l 4.53543, -4.73244l
 4.53543, 42.6351l 4.53543, 67.2659l 4.53543, 60.6177l 4.53543, 38.1241l 4.53543, 17.7826l 4.53543, 6.335l 4.53543, 1.77378l 4.53543, 0.42507l 4.53543, 0.122268l 4.53543, 0.0699776l 4.53543, 0.0629759l 4.53543, 0.0622451l 4.53543, 0.0621854l 4.53543,
 0.0621816l 4.53543, 0.0621814l 4.53543, 0.0621814l 4.53543, 0.0621814l 4.53543, 0.0621814l 4.53543, 0.0621814l 4.53543, 0.0621814l 4.53543, 0.0621814l 4.53543, 0.0621814l 4.53543, 0.0621814l 4.53543, 0.0621814l 4.53543, 0.0621814" fill="none"
 stroke="#0000ff" stroke-width="2"/>
<path d="M281.697,290.243l 4.53543, 0.0621814l 4.53543, 0.0621814l 4.53543, 0.0621814l 4.53543, 0.0621814l 4.53543, 0.0621814l 4.53543, 0.0621814l 4.53543, 0.0621814l 4.53543, 0.0621814l 4.53543, 0.0621813l 4.53543, 0.0621811l 4.53543, 0.0621782l
 4.53543, 0.0621526l 4.53543, 0.0619577l 4.53543, 0.0607084l 4.53543, 0.0539733l 4.53543, 0.023538l 4.53543, -0.0912559l 4.53543, -0.450363l 4.53543, -1.37312l 4.53543, -3.28975l 4.53543, -6.41223l 4.53543, -10.1362l 4.53543, -12.6863l 4.53543,
 -11.798l 4.53543, -6.4623l 4.53543, 1.70303l 4.53543, 9.13359l 4.53543, 12.7832l 4.53543, 12.0935l 4.53543, 8.75593l 4.53543, 4.93825l 4.53543, 1.85197l 4.53543, -0.388838l 4.53543, -2.05326l 4.53543, -3.10867l 4.53543, -3.13471l 4.53543, -1.84446l
 4.53543, 0.348648l 4.53543, 2.40614l 4.53543, 3.40389l 4.53543, 3.17752l 4.53543, 2.25255l 4.53543, 1.28017l 4.53543, 0.609614l 4.53543, 0.26341l 4.53543, 0.123107l 4.53543, 0.0774444l 4.53543, 0.0653552l 4.53543, 0.0627304" fill="none"
 stroke="#0000ff" stroke-width="2"/>
<path d="M503.933,293.29l 4.53543, 0.0622605" fill="none" stroke="#0000ff" stroke-width="2"/>
<path d="M57.1929,293.463h 453.543" fill="none" stroke="black" stroke-width="2"/>
<text x="466.314" y="315.844" fill="black" font-size="10.9701" font-family="Helvetica">
Channels
</text>
<path d="M109.199,285.637v 7.82567" fill="none" stroke="black" stroke-width="2"/>
<path d="M133.388,289.55v 3.91283" fill="none" stroke="black" stroke-width="2"/>
<path d="M157.577,289.55v 3.91283" fill="none" stroke="black" stroke-width="2"/>
<path d="M181.766,289.55v 3.91283" fill="none" stroke="black" stroke-width="2"/>
<path d="M205.955,289.55v 3.91283" fill="none" stroke="black" stroke-width="2"/>
<path d="M230.144,285.637v 7.82567" fill="none" stroke="black" stroke-width="2"/>
<path d="M254.333,289.55v 3.91283" fill="none" stroke="black" stroke-width="2"/>
<path d="M278.522,289.55v 3.91283" fill="none" stroke="black" stroke-width="2"/>
<path d="M302.711,289.55v 3.91283" fill="none" stroke="black" stroke-width="2"/>
<path d="M326.9,289.55v 3.91283" fill="none" stroke="black" stroke-width="2"/>
<path d="M351.089,285.637v 7.82567" fill="none" stroke="black" stroke-width="2"/>
<path d="M375.278,289.55v 3.91283" fill="none" stroke="black" stroke-width="2"/>
<path d="M399.467,289.55v 3.91283" fill="none" stroke="black" stroke-width="2"/>
<path d="M423.656,289.55v 3.91283" fill="none" stroke="black" stroke-width="2"/>
<path d="M447.845,289.55v 3.91283" fill="none" stroke="black" stroke-width="2"/>
<path d="M472.034,285.637v 7.82567" fill="none" stroke="black" stroke-width="2"/>
<path d="M109.199,285.637v 7.82567" fill="none" stroke="black" stroke-width="2"/>
<path d="M85.0102,289.55v 3.91283" fill="none" stroke="black" stroke-width="2"/>
<path d="M60.8213,289.55v 3.91283" fill="none" stroke="black" stroke-width="2"/>
<path d="M472.034,285.637v 7.82567" fill="none" stroke="black" stroke-width="2"/>
<path d="M496.223,289.55v 3.91283" fill="none" stroke="black" stroke-width="2"/>
<text x="97.0711" y="303.915" fill="black" font-size="10.9701" font-family="Helvetica">
1400
</text>
<text x="218.069" y="303.915" fill="black" font-size="10.9701" font-family="Helvetica">
1500
</text>
<text x="339.067" y="303.915" fill="black" font-size="10.9701" font-family="Helvetica">
1600
</text>
<text x="460.065" y="303.915" fill="black" font-size="10.9701" font-family="Helvetica">
1700
</text>
<path d="M57.1929,293.463v -260.856" fill="none" stroke="black" stroke-width="2"/>
<path d="M70.7992,293.463h -13.6063" fill="none" stroke="black" stroke-width="2"/>
<path d="M63.9961,287.03h -6.80315" fill="none" stroke="black" stroke-width="2"/>
<path d="M63.9961,280.597h -6.80315" fill="none" stroke="black" stroke-width="2"/>
<path d="M63.9961,274.164h -6.80315" fill="none" stroke="black" stroke-width="2"/>
<path d="M63.9961,267.731h -6.80315" fill="none" stroke="black" stroke-width="2"/>
<path d="M70.7992,261.299h -13.6063" fill="none" stroke="black" stroke-width="2"/>
<path d="M63.9961,254.866h -6.80315" fill="none" stroke="black" stroke-width="2"/>
<path d="M63.9961,248.433h -6.80315" fill="none" stroke="black" stroke-width="2"/>
<path d="M63.9961,242h -6.80315" fill="none" stroke="black" stroke-width="2"/>
<path d="M63.9961,235.568h -6.80315" fill="none" stroke="black" stroke-width="2"/>
<path d="M70.7992,229.135h -13.6063" fill="none" stroke="black" stroke-width="2"/>
<path d="M63.9961,222.702h -6.80315" fill="none" stroke="black" stroke-width="2"/>
<path d="M63.9961,216.269h -6.80315" fill="none" stroke="black" stroke-width="2"/>
<path d="M63.9961,209.836h -6.80315" fill="none" stroke="black" stroke-width="2"/>
<path d="M63.9961,203.404h -6.80315" fill="none" stroke="black" stroke-width="2"/>
<path d="M70.7992,196.971h -13.6063" fill="none" stroke="black" stroke-width="2"/>
<path d="M63.9961,190.538h -6.80315" fill="none" stroke="black" stroke-width="2"/>
<path d="M63.9961,184.105h -6.80315" fill="none" stroke="black" stroke-width="2"/>
<path d="M63.9961,177.673h -6.80315" fill="none" stroke="black" stroke-width="2"/>
<path d="M63.9961,171.24h -6.80315" fill="none" stroke="black" stroke-width="2"/>
<path d="M70.7992,164.807h -13.6063" fill="none" stroke="black" stroke-width="2"/>
<path d="M63.9961,158.374h -6.80315" fill="none" stroke="black" stroke-width="2"/>
<path d="M63.9961,151.941h -6.80315" fill="none" stroke="black" stroke-width="2"/>
<path d="M63.9961,145.509h -6.80315" fill="none" stroke="black" stroke-width="2"/>
<path d="M63.9961,139.076h -6.80315" fill="none" stroke="black" stroke-width="2"/>
<path d="M70.7992,132.643h -13.6063" fill="none" stroke="black" stroke-width="2"/>
<path d="M63.9961,126.21h -6.80315" fill="none" stroke="black" stroke-width="2"/>
<path d="M63.9961,119.778h -6.80315" fill="none" stroke="black" stroke-width="2"/>
<path d="M63.9961,113.345h -6.80315" fill="none" stroke="black" stroke-width="2"/>
<path d="M63.9961,106.912h -6.80315" fill="none" stroke="black" stroke-width="2"/>
<path d="M70.7992,100.479h -13.6063" fill="none" stroke="black" stroke-width="2"/>
<path d="M63.9961,94.0464h -6.80315" fill="none" stroke="black" stroke-width="2"/>
<path d="M63.9961,87.6136h -6.80315" fill="none" stroke="black" stroke-width="2"/>
<path d="M63.9961,81.1809h -6.80315" fill="none" stroke="black" stroke-width="2"/>
<path d="M63.9961,74.7481h -6.80315" fill="none" stroke="black" stroke-width="2"/>
<path d="M70.7992,68.3153h -13.6063" fill="none" stroke="black" stroke-width="2"/>
<path d="M63.9961,61.8825h -6.80315" fill="none" stroke="black" stroke-width="2"/>
<path d="M63.9961,55.4497h -6.80315" fill="none" stroke="black" stroke-width="2"/>
<path d="M63.9961,49.017h -6.80315" fill="none" stroke="black" stroke-width="2"/>
<path d="M63.9961,42.5842h -6.80315" fill="none" stroke="black" stroke-width="2"/>
<path d="M70.7992,36.1514h -13.6063" fill="none" stroke="black" stroke-width="2"/>
<path d="M70.7992,36.1514h -13.6063" fill="none" stroke="black" stroke-width="2"/>
<text x="48.2175" y="297.098" fill="black" font-size="10.9701" font-family="Helvetica">
0
</text>
<text x="30.0394" y="264.718" fill="black" font-size="10.9701" font-family="Helvetica">
1000
</text>
<text x="30.0394" y="232.907" fill="black" font-size="10.9701" font-family="Helvetica">
2000
</text>
<text x="30.0394" y="200.527" fill="black" font-size="10.9701" font-family="Helvetica">
3000
</text>
<text x="30.0394" y="168.715" fill="black" font-size="10.9701" font-family="Helvetica">
4000
</text>
<text x="30.0394" y="136.336" fill="black" font-size="10.9701" font-family="Helvetica">
5000
</text>
<text x="30.0394" y="103.956" fill="black" font-size="10.9701" font-family="Helvetica">
6000
</text>
<text x="30.0394" y="72.1443" fill="black" font-size="10.9701" font-family="Helvetica">
7000
</text>
<text x="30.0394" y="39.7646" fill="black" font-size="10.9701" font-family="Helvetica">
8000
</text>
<rect x="351.996" y="21.1945" width="204.094" height="208.684" fill="white"/>
<path d="M351.996,229.879h 204.094" fill="none" stroke="black" stroke-width="2"/>
<path d="M556.091,229.879v -208.684" fill="none" stroke="black" stroke-width="2"/>
<path d="M556.091,21.1945h -204.094" fill="none" stroke="black" stroke-width="2"/>
<path d="M351.996,21.1945v 208.684" fill="none" stroke="black" stroke-width="2"/>
<text x="372.015" y="31.2436" fill="black" font-size="11.7678" font-family="Helvetica">
 / ndf 
</text>
<text x="368.038" y="27.8352" fill="black" font-size="8.01185" font-family="Helvetica">
2
</text>
<text x="361.79" y="31.2436" fill="black" font-size="11.7678" font-family="Times">
&#0967;
</text>
<text x="489.036" y="32.3797" fill="black" font-size="11.7678" font-family="Helvetica">
  9229 / 361
</text>
<text x="361.79" y="46.5814" fill="black" font-size="11.7678" font-family="Helvetica">
1-Centroid 
</text>
<text x="529.369" y="46.5814" fill="black" font-size="11.7678" font-family="Helvetica">
 0.1
</text>
<text x="523.12" y="46.5814" fill="black" font-size="11.7678" font-family="Times">
&#0177;
</text>
<text x="489.604" y="46.5814" fill="black" font-size="11.7678" font-family="Helvetica">
  1423 
</text>
<text x="361.79" y="60.2149" fill="black" font-size="11.7678" font-family="Helvetica">
1-FWHM   
</text>
<text x="521.416" y="60.2149" fill="black" font-size="11.7678" font-family="Helvetica">
 0.15
</text>
<text x="515.167" y="60.2149" fill="black" font-size="11.7678" font-family="Times">
&#0177;
</text>
<text x="481.651" y="60.2149" fill="black" font-size="11.7678" font-family="Helvetica">
 20.69 
</text>
<text x="361.79" y="74.4165" fill="black" font-size="11.7678" font-family="Helvetica">
1-Counts 
</text>
<text x="489.604" y="74.4165" fill="black" font-size="11.7678" font-family="Helvetica">
 6.302e+02
</text>
<text x="483.355" y="74.4165" fill="black" font-size="11.7678" font-family="Times">
&#0177;
</text>
<text x="424.277" y="74.4165" fill="black" font-size="11.7678" font-family="Helvetica">
 9.499e+04 
</text>
<text x="361.79" y="88.0501" fill="black" font-size="11.7678" font-family="Helvetica">
2-Centroid 
</text>
<text x="527.665" y="88.0501" fill="black" font-size="11.7678" font-family="Helvetica">
 0.0
</text>
<text x="521.416" y="88.0501" fill="black" font-size="11.7678" font-family="Times">
&#0177;
</text>
<text x="487.9" y="88.0501" fill="black" font-size="11.7678" font-family="Helvetica">
  1448 
</text>
<text x="361.79" y="102.252" fill="black" font-size="11.7678" font-family="Helvetica">
2-FWHM   
</text>
<text x="521.416" y="102.252" fill="black" font-size="11.7678" font-family="Helvetica">
 0.07
</text>
<text x="515.167" y="102.252" fill="black" font-size="11.7678" font-family="Times">
&#0177;
</text>
<text x="481.651" y="102.252" fill="black" font-size="11.7678" font-family="Helvetica">
 18.19 
</text>
<text x="361.79" y="115.885" fill="black" font-size="11.7678" font-family="Helvetica">
2-Counts 
</text>
<text x="495.853" y="115.885" fill="black" font-size="11.7678" font-family="Helvetica">
 6.56e+02
</text>
<text x="489.604" y="115.885" fill="black" font-size="11.7678" font-family="Times">
&#0177;
</text>
<text x="436.774" y="115.885" fill="black" font-size="11.7678" font-family="Helvetica">
 1.42e+05 
</text>
<text x="361.79" y="129.519" fill="black" font-size="11.7678" font-family="Helvetica">
3-Centroid 
</text>
<text x="529.369" y="129.519" fill="black" font-size="11.7678" font-family="Helvetica">
 0.1
</text>
<text x="523.12" y="129.519" fill="black" font-size="11.7678" font-family="Times">
&#0177;
</text>
<text x="489.604" y="129.519" fill="black" font-size="11.7678" font-family="Helvetica">
  1638 
</text>
<text x="361.79" y="143.721" fill="black" font-size="11.7678" font-family="Helvetica">
3-FWHM   
</text>
<text x="523.12" y="143.721" fill="black" font-size="11.7678" font-family="Helvetica">
 0.11
</text>
<text x="516.871" y="143.721" fill="black" font-size="11.7678" font-family="Times">
&#0177;
</text>
<text x="485.06" y="143.721" fill="black" font-size="11.7678" font-family="Helvetica">
 21.91 
</text>
<text x="361.79" y="157.354" fill="black" font-size="11.7678" font-family="Helvetica">
3-Counts 
</text>
<text x="489.604" y="157.354" fill="black" font-size="11.7678" font-family="Helvetica">
 2.069e+02
</text>
<text x="483.355" y="157.354" fill="black" font-size="11.7678" font-family="Times">
&#0177;
</text>
<text x="424.277" y="157.354" fill="black" font-size="11.7678" font-family="Helvetica">
 3.902e+04 
</text>
<text x="361.79" y="171.556" fill="black" font-size="11.7678" font-family="Helvetica">
4-Centroid 
</text>
<text x="529.369" y="171.556" fill="black" font-size="11.7678" font-family="Helvetica">
 0.1
</text>
<text x="523.12" y="171.556" fill="black" font-size="11.7678" font-family="Times">
&#0177;
</text>
<text x="489.604" y="171.556" fill="black" font-size="11.7678" font-family="Helvetica">
  1683 
</text>
<text x="361.79" y="185.189" fill="black" font-size="11.7678" font-family="Helvetica">
4-FWHM   
</text>
<text x="521.416" y="185.189" fill="black" font-size="11.7678" font-family="Helvetica">
 0.24
</text>
<text x="515.167" y="185.189" fill="black" font-size="11.7678" font-family="Times">
&#0177;
</text>
<text x="481.651" y="185.189" fill="black" font-size="11.7678" font-family="Helvetica">
 20.98 
</text>
<text x="361.79" y="199.391" fill="black" font-size="11.7678" font-family="Helvetica">
4-Counts 
</text>
<text x="515.167" y="199.391" fill="black" font-size="11.7678" font-family="Helvetica">
 109.6
</text>
<text x="508.918" y="199.391" fill="black" font-size="11.7678" font-family="Times">
&#0177;
</text>
<text x="475.403" y="199.391" fill="black" font-size="11.7678" font-family="Helvetica">
  9386 
</text>
<text x="361.79" y="211.888" fill="black" font-size="11.7678" font-family="Helvetica">
Intercept 
</text>
<text x="527.665" y="213.024" fill="black" font-size="11.7678" font-family="Helvetica">
 8.0
</text>
<text x="521.416" y="213.024" fill="black" font-size="11.7678" font-family="Times">
&#0177;
</text>
<text x="487.9" y="213.024" fill="black" font-size="11.7678" font-family="Helvetica">
 895.4 
</text>
<text x="361.79" y="226.09" fill="black" font-size="11.7678" font-family="Helvetica">
Slope    
</text>
<text x="508.918" y="227.226" fill="black" font-size="11.7678" font-family="Helvetica">
 0.0049
</text>
<text x="502.67" y="227.226" fill="black" font-size="11.7678" font-family="Times">
&#0177;
</text>
<text x="465.745" y="227.226" fill="black" font-size="11.7678" font-family="Helvetica">
0.5155 
</text>
<text x="459.497" y="227.226" fill="black" font-size="11.7678" font-family="Times">
&#8722;
</text>
<text x="456.656" y="227.226" fill="black" font-size="11.7678" font-family="Helvetica">
 
</text>
<path d="M59.4606,293.463h 31.748l 4.53543, -0.0656816l 4.53543, -0.251906l 4.53543, -0.963183l 4.53543, -3.02714l 4.53543, -7.77717l 4.53543, -16.191l 4.53543, -26.9034l 4.53543, -34.6303l 4.53543, -32.1052l 4.53543, -16.1164l 4.53543, 7.6888l
 4.53543, 27.687l 4.53543, 35.2235l 4.53543, 30.4886l 4.53543, 20.0625l 4.53543, 10.4475l 4.53543, 4.38851l 4.53543, 1.5028l 4.53543, 0.422255l 4.53543, 0.119869h 99.7795" fill="none" stroke="#00ff00" stroke-width="2"/>
<path d="M281.697,293.463h 222.236" fill="none" stroke="#00ff00" stroke-width="2"/>
<path d="M503.933,293.463h 4.53543" fill="none" stroke="#00ff00" stroke-width="2"/>
<path d="M59.4606,293.463h 63.4961l 4.53543, -0.0346496l 4.53543, -0.201166l 4.53543, -1.03337l 4.53543, -4.13285l 4.53543, -12.7811l 4.53543, -30.2182l 4.53543, -53.4869l 4.53543, -67.7288l 4.53543, -53.6854l 4.53543, -9.18313l 4.53543, 41.0701l
 4.53543, 66.7815l 4.53543, 60.4577l 4.53543, 38.0432l 4.53543, 17.7175l 4.53543, 6.27243l 4.53543, 1.71155l 4.53543, 0.362885l 4.53543, 0.0687451h 72.5669" fill="none" stroke="#00ff00" stroke-width="2"/>
<path d="M281.697,293.463h 222.236" fill="none" stroke="#00ff00" stroke-width="2"/>
<path d="M503.933,293.463h 4.53543" fill="none" stroke="#00ff00" stroke-width="2"/>
<path d="M59.4606,293.463h 222.236" fill="none" stroke="#00ff00" stroke-width="2"/>
<path d="M281.697,293.463h 68.0315l 4.53543, -0.0485802l 4.53543, -0.153437l 4.53543, -0.512544l 4.53543, -1.43531l 4.53543, -3.35193l 4.53543, -6.47441l 4.53543, -10.1984l 4.53543, -12.7485l 4.53543, -11.8602l 4.53543, -6.52447l 4.53543, 1.64098l
 4.53543, 9.07227l 4.53543, 12.7258l 4.53543, 12.0531l 4.53543, 8.77692l 4.53543, 5.13811l 4.53543, 2.46883l 4.53543, 0.984758l 4.53543, 0.328322l 4.53543, 0.0919059l 4.53543, 0.0268199h 58.9606" fill="none" stroke="#00ff00" stroke-width="2"/>
<path d="M503.933,293.463h 4.53543" fill="none" stroke="#00ff00" stroke-width="2"/>
<path d="M59.4606,293.463h 222.236" fill="none" stroke="#00ff00" stroke-width="2"/>
<path d="M281.697,293.463h 126.992l 4.53543, -0.0275764l 4.53543, -0.0831686l 4.53543, -0.262042l 4.53543, -0.679045l 4.53543, -1.43578l 4.53543, -2.44376l 4.53543, -3.26276l 4.53543, -3.21856l 4.53543, -1.91095l 4.53543, 0.285742l 4.53543, 2.34385l
 4.53543, 3.34169l 4.53543, 3.11533l 4.53543, 2.19037l 4.53543, 1.21799l 4.53543, 0.547433l 4.53543, 0.201229l 4.53543, 0.0800008h 13.6063" fill="none" stroke="#00ff00" stroke-width="2"/>
<path d="M503.933,293.463h 4.53543" fill="none" stroke="#00ff00" stroke-width="2"/>
<text x="203.299" y="15.9058" fill="black" font-size="15.9159" font-family="Helvetica">
vsBiasVoltage/400.Spe
</text></svg>
