<?xml version="1.0" standalone="no"?>
<svg width="567.429" height="408.933" viewBox="0 0 567.429 408.933" xmlns="http://www.w3.org/2000/svg">
<title>
/home/ADF/hyw543/XRay/Resolution/450.svg
</title>
<desc>
Creator: ROOT Version 6.06/08
CreationDate: Fri Mar  1 15:26:21 2019</desc>
<defs>
</defs>
<rect x="0.5" y="0" width="566.929" height="408.433" fill="white"/>
<rect x="57.1929" y="40.8433" width="453.543" height="326.746" fill="white"/>
<rect x="57.1929" y="40.8433" width="453.543" height="326.746" fill="none" stroke="black"/>
<rect x="57.1929" y="40.8433" width="453.543" height="326.746" fill="white"/>
<rect x="57.1929" y="40.8433" width="453.543" height="326.746" fill="none" stroke="black"/>
<path d="M57.1929,355.83h 1.29584v 0.536387h 1.29584v 0.330084h 1.29584v -1.81546h 1.29584v 0.495126h 1.29584v 0.577647h 1.29584v -0.206303h 1.29584v 0.123782h 1.29584v 0.0825211h 1.29584v -0.990253h 1.29584v -0.330084h 1.29584v 1.5679h 1.29584v
 -2.18681h 1.29584v 0.990253h 1.29584v -0.990253h 1.29584v -0.165042h 1.29584v 1.32034h 1.29584v -1.65042h 1.29584v 0.165042h 1.29584v -0.990253h 1.29584v 1.27908h 1.29584v -0.577647h 1.29584v -0.206303h 1.29584v -1.07277h 2.59168v -1.03151h 1.29584v
 -0.0825211h 1.29584v 0.907732h 1.29584v -1.52664h 1.29584v -0.165042h 1.29584v -1.3616h 1.29584v 3.01202h 1.29584v -2.59941h 1.29584v -1.32034h 1.29584v 1.40286h 1.29584v -4.45614h 1.29584v -1.65042h 1.29584v -1.81546h 1.29584v -3.17706h 1.29584v
 -2.47563h 1.29584v -6.60168h 1.29584v -5.94152h 1.29584v -2.84698h 1.29584v -7.79824h 1.29584v -15.3489h 1.29584v -13.1208h 1.29584v -5.03378h 1.29584v -18.3609h 1.29584v -13.6572h 1.29584v -14.8951h 1.29584v -11.3054h 1.29584v -15.4727h 1.29584v
 -8.21084h 1.29584v -14.2349h 1.29584v -8.82975h 1.29584v 3.63093h 1.29584v -8.25211h 1.29584v 7.13807h 1.29584v -0.660168h 1.29584v 10.8928h 1.29584v 6.76673h 1.29584v 1.69168h 1.29584v 8.70597h 1.29584v 12.0893h 1.29584v 11.0166h 1.29584v 2.39311h
 1.29584v -3.21832h 1.29584v -6.51916h 1.29584v -7.46816h 1.29584v -6.72547h 1.29584v -11.0578h 1.29584v -22.8583h 1.29584v -16.9581h 1.29584v -18.7323h 1.29584v -26.3655h 1.29584v -19.1449h 1.29584v -11.1816h 1.29584v -16.2566h 1.29584v -5.77647h
 1.29584v -0.866471h 1.29584v 0.0825211h 1.29584v 7.67446h 1.29584v 0.825211h 1.29584v 17.577h 1.29584v 22.0744h 1.29584v 18.1134h 1.29584v 22.1569h 1.29584v 22.2394h 1.29584v 20.9191h 1.29584v 26.4893h 1.29584v 19.8051h 1.29584v 18.4435h 1.29584v
 18.3609h 1.29584v 15.844h 1.29584v 11.718h 1.29584v 15.1014h 1.29584v 7.92202h 1.29584v 8.29337h 1.29584v 5.57017h 1.29584v 7.05555h 1.29584v 4.12605h 1.29584v 3.21832h 1.29584v 3.3421h 1.29584v 1.19656h 1.29584v 2.51689h 1.29584v 0.742689h 1.29584v
 3.09454h 1.29584v 0.0412605h 1.29584v 1.15529h 1.29584v -0.0412605h 1.29584v 1.3616h 1.29584v -0.247563h 1.29584v 0.453866h 1.29584v 0.288824h 1.29584v -0.371345h 1.29584v 0.206303h 1.29584v 0.371345h 1.29584v -0.330084h 1.29584v 0.123782h 1.29584v
 -0.206303h 1.29584v 0.907732h 1.29584v 0.330084h 1.29584v -0.453866h 1.29584v -0.0412605h 1.29584v -0.288824h 1.29584v 0.453866h 1.29584v -0.371345h 2.59168v -0.660168h 1.29584v 1.15529h 1.29584v -0.0825211h 1.29584v 0.206303h 1.29584v 0.0825211h
 1.29584v -0.123782h 1.29584v -0.206303h 1.29584v -0.577647h 1.29584v 0.453866h 1.29584v -0.206303h 1.29584v 0.577647h 1.29584v -0.371345h 1.29584v 0.371345h 1.29584v -0.206303h 1.29584v 0.288824h 1.29584v -1.19656h 1.29584v 1.19656h 1.29584v
 0.247563h 1.29584v 0.165042h 1.29584v -0.866471h 1.29584v 0.371345h 1.29584v 0.247563h 1.29584v -0.742689h 1.29584v 0.0412605h 1.29584v -0.577647h 1.29584v 0.78395h 1.29584v 0.577647h 1.29584v -0.990253h 1.29584v 0.330084h 1.29584v 0.165042h
 1.29584v -0.495126h 1.29584v 0.453866h 1.29584v 0.165042h 1.29584v 0.123782h 1.29584v -0.453866h 1.29584v 0.206303h 1.29584v 0.618908h 1.29584v -0.701429h 1.29584v -0.123782h 1.29584v 0.123782h 1.29584v 0.0825211h 1.29584v 0.0825211h 1.29584v
 0.371345h 1.29584v 0.123782h 1.29584v -0.412605h 1.29584v 0.165042h 1.29584v -0.990253h 1.29584v 0.536387h 1.29584v 0.288824h 1.29584v -0.412605h 1.29584v 0.371345h 1.29584v 0.0825211h 1.29584v 0.206303h 1.29584v -0.412605h 1.29584v -0.0825211h
 1.29584v 0.371345h 1.29584v -0.701429h 1.29584v -0.412605h 1.29584v 0.742689h 2.59168v -0.660168h 1.29584v 0.247563h 1.29584v -0.0412605h 1.29584v -0.123782h 1.29584v 0.206303h 1.29584v 0.0825211h 1.29584v 0.165042h 1.29584v -0.701429h 1.29584v
 -0.123782h 1.29584v 0.0412605h 1.29584v 0.701429h 1.29584v -0.78395h 1.29584v 0.165042h 1.29584v 0.453866h 1.29584v -0.701429h 1.29584v 0.78395h 1.29584v -0.577647h 1.29584v -0.0825211h 1.29584v 0.371345h 1.29584v -0.742689h 1.29584v 0.701429h
 1.29584v -0.536387h 1.29584v -0.165042h 1.29584v -0.330084h 2.59168v 0.78395h 1.29584v -0.165042h 1.29584v -0.577647h 1.29584v -0.288824h 1.29584v -0.247563h 1.29584v 0.247563h 1.29584v -0.495126h 1.29584v -0.371345h 1.29584v 1.19656h 1.29584v
 0.288824h 1.29584v -1.03151h 1.29584v -0.206303h 1.29584v 0.288824h 1.29584v -0.948992h 1.29584v 0.907732h 1.29584v 0.288824h 1.29584v -0.206303h 1.29584v 0.453866h 1.29584v -0.907732h 1.29584v -0.0412605h 1.29584v 0.288824h 1.29584v -0.660168h
 1.29584v -0.330084h 1.29584v 0.247563h 1.29584v -0.701429h 1.29584v 1.11403h 1.29584v -0.330084h 1.29584v -0.453866h 1.29584v 0.330084h 1.29584v -0.0825211h 1.29584v -0.371345h 1.29584v -0.453866h 1.29584v 0.123782h 1.29584v -0.330084h 1.29584v
 -1.44412h 1.29584v 0.990253h 1.29584v -0.742689h 1.29584v -0.990253h 1.29584v -1.52664h 1.29584v -1.27908h 1.29584v -2.35185h 1.29584v -1.69168h 1.29584v -1.32034h 1.29584v -3.83723h 1.29584v -2.47563h 1.29584v -5.65269h 1.29584v -4.82748h 1.29584v
 -1.65042h 1.29584v -4.4974h 1.29584v -5.73521h 1.29584v -7.50942h 1.29584v -4.12605h 1.29584v -5.44639h 1.29584v -2.51689h 1.29584v -5.57017h 1.29584v 0.78395h 1.29584v -4.41488h 1.29584v 5.28135h 1.29584v -1.89798h 1.29584v -0.948992h 1.29584v
 5.52891h 1.29584v -0.577647h 1.29584v 6.18908h 1.29584v 4.08479h 1.29584v 6.43664h 1.29584v -0.577647h 1.29584v 7.38563h 1.29584v 6.02404h 1.29584v 5.61143h 1.29584v 3.96101h 1.29584v 2.72319h 1.29584v 6.23034h 1.29584v 0.495126h 1.29584v 2.35185h
 1.29584v 2.9295h 1.29584v 1.93924h 1.29584v 1.81546h 1.29584v 1.44412h 1.29584v 0.907732h 1.29584v 0.0825211h 1.29584v 1.32034h 1.29584v -0.371345h 1.29584v 1.19656h 1.29584v -0.0825211h 1.29584v -0.536387h 1.29584v 0.495126h 1.29584v -0.371345h
 1.29584v 0.78395h 1.29584v -1.27908h 1.29584v -0.330084h 1.29584v -1.81546h 1.29584v -0.123782h 1.29584v -0.577647h 1.29584v -1.7742h 1.29584v -0.123782h 1.29584v -1.52664h 1.29584v -1.93924h 1.29584v -1.60916h 1.29584v 0.495126h 1.29584v -1.40286h
 1.29584v 0.371345h 1.29584v -1.98051h 2.59168v 2.18681h 2.59168v 0.866471h 1.29584v -1.11403h 1.29584v 2.10429h 2.59168v 3.1358h 1.29584v -0.206303h 1.29584v 1.11403h 1.29584v 1.03151h 1.29584v 1.48538h 1.29584v 1.23782h 1.29584v 0.165042h 1.29584v
 1.03151h 1.29584v 0.618908h 1.29584v 0.742689h 1.29584v 0.247563h 1.29584v 1.19656h 1.29584v 0.165042h 1.29584v 0.288824h 1.29584v 0.453866h 1.29584v 0.701429h 1.29584v 0.0412605h 1.29584v -0.247563h 1.29584v 0.206303h 1.29584v 0.412605h 1.29584v
 0.0412605h 1.29584v 0.123782h 1.29584v 0.288824h 1.29584v -0.165042h 1.29584v -0.206303h 1.29584v 0.206303h 1.29584v -0.0825211h 1.29584v 0.288824h 1.29584" fill="none" stroke="#ff0000" stroke-width="2"/>
<rect x="300.221" y="57.9121" width="265.177" height="212.344" fill="white"/>
<path d="M300.221,270.257h 265.177" fill="none" stroke="black" stroke-width="2"/>
<path d="M565.397,270.257v -212.344" fill="none" stroke="black" stroke-width="2"/>
<path d="M565.397,57.9121h -265.177" fill="none" stroke="black" stroke-width="2"/>
<path d="M300.221,57.9121v 212.344" fill="none" stroke="black" stroke-width="2"/>
<text x="325.621" y="68.0721" fill="black" font-size="12.4484" font-family="Helvetica">
 / ndf 
</text>
<text x="320.541" y="64.0081" fill="black" font-size="8.46562" font-family="Helvetica">
2
</text>
<text x="313.429" y="68.0721" fill="black" font-size="12.4484" font-family="Times">
&#0967;
</text>
<text x="488.181" y="69.0881" fill="black" font-size="12.4484" font-family="Helvetica">
  5901 / 336
</text>
<text x="313.429" y="83.3122" fill="black" font-size="12.4484" font-family="Helvetica">
1-Centroid 
</text>
<text x="533.901" y="83.3122" fill="black" font-size="12.4484" font-family="Helvetica">
 0.1
</text>
<text x="526.789" y="83.3122" fill="black" font-size="12.4484" font-family="Times">
&#0177;
</text>
<text x="490.213" y="83.3122" fill="black" font-size="12.4484" font-family="Helvetica">
  1423 
</text>
<text x="313.429" y="97.5362" fill="black" font-size="12.4484" font-family="Helvetica">
1-FWHM   
</text>
<text x="533.901" y="97.5362" fill="black" font-size="12.4484" font-family="Helvetica">
 0.1
</text>
<text x="526.789" y="97.5362" fill="black" font-size="12.4484" font-family="Times">
&#0177;
</text>
<text x="494.277" y="97.5362" fill="black" font-size="12.4484" font-family="Helvetica">
  19.8 
</text>
<text x="313.429" y="111.76" fill="black" font-size="12.4484" font-family="Helvetica">
1-Counts 
</text>
<text x="491.229" y="111.76" fill="black" font-size="12.4484" font-family="Helvetica">
 5.840e+02
</text>
<text x="484.117" y="111.76" fill="black" font-size="12.4484" font-family="Times">
&#0177;
</text>
<text x="421.125" y="111.76" fill="black" font-size="12.4484" font-family="Helvetica">
 9.023e+04 
</text>
<text x="313.429" y="125.984" fill="black" font-size="12.4484" font-family="Helvetica">
2-Centroid 
</text>
<text x="531.869" y="125.984" fill="black" font-size="12.4484" font-family="Helvetica">
 0.0
</text>
<text x="524.757" y="125.984" fill="black" font-size="12.4484" font-family="Times">
&#0177;
</text>
<text x="488.181" y="125.984" fill="black" font-size="12.4484" font-family="Helvetica">
  1447 
</text>
<text x="313.429" y="140.208" fill="black" font-size="12.4484" font-family="Helvetica">
2-FWHM   
</text>
<text x="524.757" y="140.208" fill="black" font-size="12.4484" font-family="Helvetica">
 0.07
</text>
<text x="517.645" y="140.208" fill="black" font-size="12.4484" font-family="Times">
&#0177;
</text>
<text x="481.069" y="140.208" fill="black" font-size="12.4484" font-family="Helvetica">
 18.54 
</text>
<text x="313.429" y="154.432" fill="black" font-size="12.4484" font-family="Helvetica">
2-Counts 
</text>
<text x="491.229" y="154.432" fill="black" font-size="12.4484" font-family="Helvetica">
 6.310e+02
</text>
<text x="484.117" y="154.432" fill="black" font-size="12.4484" font-family="Times">
&#0177;
</text>
<text x="421.125" y="154.432" fill="black" font-size="12.4484" font-family="Helvetica">
 1.436e+05 
</text>
<text x="313.429" y="168.656" fill="black" font-size="12.4484" font-family="Helvetica">
3-Centroid 
</text>
<text x="533.901" y="168.656" fill="black" font-size="12.4484" font-family="Helvetica">
 0.1
</text>
<text x="526.789" y="168.656" fill="black" font-size="12.4484" font-family="Times">
&#0177;
</text>
<text x="490.213" y="168.656" fill="black" font-size="12.4484" font-family="Helvetica">
  1637 
</text>
<text x="313.429" y="182.88" fill="black" font-size="12.4484" font-family="Helvetica">
3-FWHM   
</text>
<text x="524.757" y="182.88" fill="black" font-size="12.4484" font-family="Helvetica">
 0.12
</text>
<text x="517.645" y="182.88" fill="black" font-size="12.4484" font-family="Times">
&#0177;
</text>
<text x="481.069" y="182.88" fill="black" font-size="12.4484" font-family="Helvetica">
 21.73 
</text>
<text x="313.429" y="197.104" fill="black" font-size="12.4484" font-family="Helvetica">
3-Counts 
</text>
<text x="491.229" y="197.104" fill="black" font-size="12.4484" font-family="Helvetica">
 2.066e+02
</text>
<text x="484.117" y="197.104" fill="black" font-size="12.4484" font-family="Times">
&#0177;
</text>
<text x="421.125" y="197.104" fill="black" font-size="12.4484" font-family="Helvetica">
 3.822e+04 
</text>
<text x="313.429" y="211.328" fill="black" font-size="12.4484" font-family="Helvetica">
4-Centroid 
</text>
<text x="533.901" y="211.328" fill="black" font-size="12.4484" font-family="Helvetica">
 0.1
</text>
<text x="526.789" y="211.328" fill="black" font-size="12.4484" font-family="Times">
&#0177;
</text>
<text x="490.213" y="211.328" fill="black" font-size="12.4484" font-family="Helvetica">
  1682 
</text>
<text x="313.429" y="225.552" fill="black" font-size="12.4484" font-family="Helvetica">
4-FWHM   
</text>
<text x="524.757" y="225.552" fill="black" font-size="12.4484" font-family="Helvetica">
 0.28
</text>
<text x="517.645" y="225.552" fill="black" font-size="12.4484" font-family="Times">
&#0177;
</text>
<text x="481.069" y="225.552" fill="black" font-size="12.4484" font-family="Helvetica">
 22.46 
</text>
<text x="313.429" y="239.776" fill="black" font-size="12.4484" font-family="Helvetica">
4-Counts 
</text>
<text x="517.645" y="239.776" fill="black" font-size="12.4484" font-family="Helvetica">
 114.2
</text>
<text x="510.533" y="239.776" fill="black" font-size="12.4484" font-family="Times">
&#0177;
</text>
<text x="475.989" y="239.776" fill="black" font-size="12.4484" font-family="Helvetica">
  9251 
</text>
<text x="313.429" y="252.984" fill="black" font-size="12.4484" font-family="Helvetica">
Intercept 
</text>
<text x="531.869" y="254.001" fill="black" font-size="12.4484" font-family="Helvetica">
 0.6
</text>
<text x="524.757" y="254.001" fill="black" font-size="12.4484" font-family="Times">
&#0177;
</text>
<text x="492.245" y="254.001" fill="black" font-size="12.4484" font-family="Helvetica">
   874 
</text>
<text x="313.429" y="267.209" fill="black" font-size="12.4484" font-family="Helvetica">
Slope    
</text>
<text x="511.549" y="268.225" fill="black" font-size="12.4484" font-family="Helvetica">
 0.0003
</text>
<text x="504.437" y="268.225" fill="black" font-size="12.4484" font-family="Times">
&#0177;
</text>
<text x="466.845" y="268.225" fill="black" font-size="12.4484" font-family="Helvetica">
0.5051 
</text>
<text x="459.733" y="268.225" fill="black" font-size="12.4484" font-family="Times">
&#8722;
</text>
<text x="456.685" y="268.225" fill="black" font-size="12.4484" font-family="Helvetica">
 
</text>
<path d="M59.4606,360.053l 4.53543, 0.0729423l 4.53543, 0.0729209l 4.53543, 0.0727265l 4.53543, 0.0712534l 4.53543, 0.0619563l 4.53543, 0.0132327l 4.53543, -0.197966l 4.53543, -0.950856l 4.53543, -3.13932l 4.53543, -8.25473l 4.53543, -17.6325l
 4.53543, -30.4154l 4.53543, -41.4752l 4.53543, -42.5374l 4.53543, -28.3221l 4.53543, -3.60333l 4.53543, 16.6415l 4.53543, 16.6615l 4.53543, -7.49051l 4.53543, -41.7283l 4.53543, -60.1896l 4.53543, -43.4068l 4.53543, 3.81849l 4.53543, 53.7157l
 4.53543, 78.572l 4.53543, 72.2227l 4.53543, 48.7765l 4.53543, 25.4862l 4.53543, 10.5637l 4.53543, 3.54191l 4.53543, 0.99864l 4.53543, 0.273244l 4.53543, 0.108201l 4.53543, 0.0780042l 4.53543, 0.0735375l 4.53543, 0.0730013l 4.53543, 0.0729489l
 4.53543, 0.0729447l 4.53543, 0.0729445l 4.53543, 0.0729445l 4.53543, 0.0729445l 4.53543, 0.0729445l 4.53543, 0.0729445l 4.53543, 0.0729445l 4.53543, 0.0729445l 4.53543, 0.0729445l 4.53543, 0.0729445l 4.53543, 0.0729445l 4.53543, 0.0729445"
 fill="none" stroke="#0000ff" stroke-width="2"/>
<path d="M281.697,363.627l 4.53543, 0.0729445l 4.53543, 0.0729445l 4.53543, 0.0729445l 4.53543, 0.0729445l 4.53543, 0.0729445l 4.53543, 0.0729445l 4.53543, 0.0729445l 4.53543, 0.0729445l 4.53543, 0.0729445l 4.53543, 0.0729444l 4.53543, 0.0729444l
 4.53543, 0.0729434l 4.53543, 0.0729349l 4.53543, 0.0728722l 4.53543, 0.0724703l 4.53543, 0.070261l 4.53543, 0.0598535l 4.53543, 0.0179604l 4.53543, -0.125575l 4.53543, -0.541862l 4.53543, -1.55541l 4.53543, -3.59953l 4.53543, -6.93356l 4.53543,
 -11.1133l 4.53543, -14.5836l 4.53543, -15.0495l 4.53543, -10.8753l 4.53543, -2.63814l 4.53543, 6.68002l 4.53543, 13.4076l 4.53543, 15.4809l 4.53543, 13.3884l 4.53543, 9.21613l 4.53543, 4.9778l 4.53543, 1.64933l 4.53543, -0.714592l 4.53543, -2.33962l
 4.53543, -3.24519l 4.53543, -3.21334l 4.53543, -2.10896l 4.53543, -0.20662l 4.53543, 1.80578l 4.53543, 3.187l 4.53543, 3.56712l 4.53543, 3.0886l 4.53543, 2.19975l 4.53543, 1.33104l 4.53543, 0.705734l 4.53543, 0.345753" fill="none" stroke="#0000ff"
 stroke-width="2"/>
<path d="M503.933,367.056l 4.53543, 0.174274" fill="none" stroke="#0000ff" stroke-width="2"/>
<path d="M57.1929,367.59h 453.543" fill="none" stroke="black" stroke-width="2"/>
<text x="456.685" y="395.225" fill="black" font-size="13.6148" font-family="Helvetica">
Channels
</text>
<path d="M99.9556,357.787v 9.80239" fill="none" stroke="black" stroke-width="2"/>
<path d="M125.872,362.688v 4.90119" fill="none" stroke="black" stroke-width="2"/>
<path d="M151.789,362.688v 4.90119" fill="none" stroke="black" stroke-width="2"/>
<path d="M177.706,362.688v 4.90119" fill="none" stroke="black" stroke-width="2"/>
<path d="M203.623,362.688v 4.90119" fill="none" stroke="black" stroke-width="2"/>
<path d="M229.539,357.787v 9.80239" fill="none" stroke="black" stroke-width="2"/>
<path d="M255.456,362.688v 4.90119" fill="none" stroke="black" stroke-width="2"/>
<path d="M281.373,362.688v 4.90119" fill="none" stroke="black" stroke-width="2"/>
<path d="M307.29,362.688v 4.90119" fill="none" stroke="black" stroke-width="2"/>
<path d="M333.206,362.688v 4.90119" fill="none" stroke="black" stroke-width="2"/>
<path d="M359.123,357.787v 9.80239" fill="none" stroke="black" stroke-width="2"/>
<path d="M385.04,362.688v 4.90119" fill="none" stroke="black" stroke-width="2"/>
<path d="M410.957,362.688v 4.90119" fill="none" stroke="black" stroke-width="2"/>
<path d="M436.873,362.688v 4.90119" fill="none" stroke="black" stroke-width="2"/>
<path d="M462.79,362.688v 4.90119" fill="none" stroke="black" stroke-width="2"/>
<path d="M488.707,357.787v 9.80239" fill="none" stroke="black" stroke-width="2"/>
<path d="M99.9556,357.787v 9.80239" fill="none" stroke="black" stroke-width="2"/>
<path d="M74.0388,362.688v 4.90119" fill="none" stroke="black" stroke-width="2"/>
<path d="M488.707,357.787v 9.80239" fill="none" stroke="black" stroke-width="2"/>
<text x="83.8122" y="381.001" fill="black" font-size="13.6148" font-family="Helvetica">
1400
</text>
<text x="213.86" y="381.001" fill="black" font-size="13.6148" font-family="Helvetica">
1500
</text>
<text x="342.893" y="381.001" fill="black" font-size="13.6148" font-family="Helvetica">
1600
</text>
<text x="472.941" y="381.001" fill="black" font-size="13.6148" font-family="Helvetica">
1700
</text>
<path d="M57.1929,367.59v -326.746" fill="none" stroke="black" stroke-width="2"/>
<path d="M70.7992,367.59h -13.6063" fill="none" stroke="black" stroke-width="2"/>
<path d="M63.9961,359.337h -6.80315" fill="none" stroke="black" stroke-width="2"/>
<path d="M63.9961,351.085h -6.80315" fill="none" stroke="black" stroke-width="2"/>
<path d="M63.9961,342.833h -6.80315" fill="none" stroke="black" stroke-width="2"/>
<path d="M63.9961,334.581h -6.80315" fill="none" stroke="black" stroke-width="2"/>
<path d="M70.7992,326.329h -13.6063" fill="none" stroke="black" stroke-width="2"/>
<path d="M63.9961,318.077h -6.80315" fill="none" stroke="black" stroke-width="2"/>
<path d="M63.9961,309.825h -6.80315" fill="none" stroke="black" stroke-width="2"/>
<path d="M63.9961,301.573h -6.80315" fill="none" stroke="black" stroke-width="2"/>
<path d="M63.9961,293.321h -6.80315" fill="none" stroke="black" stroke-width="2"/>
<path d="M70.7992,285.068h -13.6063" fill="none" stroke="black" stroke-width="2"/>
<path d="M63.9961,276.816h -6.80315" fill="none" stroke="black" stroke-width="2"/>
<path d="M63.9961,268.564h -6.80315" fill="none" stroke="black" stroke-width="2"/>
<path d="M63.9961,260.312h -6.80315" fill="none" stroke="black" stroke-width="2"/>
<path d="M63.9961,252.06h -6.80315" fill="none" stroke="black" stroke-width="2"/>
<path d="M70.7992,243.808h -13.6063" fill="none" stroke="black" stroke-width="2"/>
<path d="M63.9961,235.556h -6.80315" fill="none" stroke="black" stroke-width="2"/>
<path d="M63.9961,227.304h -6.80315" fill="none" stroke="black" stroke-width="2"/>
<path d="M63.9961,219.052h -6.80315" fill="none" stroke="black" stroke-width="2"/>
<path d="M63.9961,210.8h -6.80315" fill="none" stroke="black" stroke-width="2"/>
<path d="M70.7992,202.547h -13.6063" fill="none" stroke="black" stroke-width="2"/>
<path d="M63.9961,194.295h -6.80315" fill="none" stroke="black" stroke-width="2"/>
<path d="M63.9961,186.043h -6.80315" fill="none" stroke="black" stroke-width="2"/>
<path d="M63.9961,177.791h -6.80315" fill="none" stroke="black" stroke-width="2"/>
<path d="M63.9961,169.539h -6.80315" fill="none" stroke="black" stroke-width="2"/>
<path d="M70.7992,161.287h -13.6063" fill="none" stroke="black" stroke-width="2"/>
<path d="M63.9961,153.035h -6.80315" fill="none" stroke="black" stroke-width="2"/>
<path d="M63.9961,144.783h -6.80315" fill="none" stroke="black" stroke-width="2"/>
<path d="M63.9961,136.531h -6.80315" fill="none" stroke="black" stroke-width="2"/>
<path d="M63.9961,128.278h -6.80315" fill="none" stroke="black" stroke-width="2"/>
<path d="M70.7992,120.026h -13.6063" fill="none" stroke="black" stroke-width="2"/>
<path d="M63.9961,111.774h -6.80315" fill="none" stroke="black" stroke-width="2"/>
<path d="M63.9961,103.522h -6.80315" fill="none" stroke="black" stroke-width="2"/>
<path d="M63.9961,95.27h -6.80315" fill="none" stroke="black" stroke-width="2"/>
<path d="M63.9961,87.0179h -6.80315" fill="none" stroke="black" stroke-width="2"/>
<path d="M70.7992,78.7658h -13.6063" fill="none" stroke="black" stroke-width="2"/>
<path d="M70.7992,78.7658h -13.6063" fill="none" stroke="black" stroke-width="2"/>
<path d="M63.9961,70.5137h -6.80315" fill="none" stroke="black" stroke-width="2"/>
<path d="M63.9961,62.2616h -6.80315" fill="none" stroke="black" stroke-width="2"/>
<path d="M63.9961,54.0095h -6.80315" fill="none" stroke="black" stroke-width="2"/>
<path d="M63.9961,45.7574h -6.80315" fill="none" stroke="black" stroke-width="2"/>
<text x="47.2361" y="371.857" fill="black" font-size="13.6148" font-family="Helvetica">
0
</text>
<text x="24.884" y="331.217" fill="black" font-size="13.6148" font-family="Helvetica">
1000
</text>
<text x="24.884" y="289.561" fill="black" font-size="13.6148" font-family="Helvetica">
2000
</text>
<text x="24.884" y="247.904" fill="black" font-size="13.6148" font-family="Helvetica">
3000
</text>
<text x="24.884" y="207.264" fill="black" font-size="13.6148" font-family="Helvetica">
4000
</text>
<text x="24.884" y="165.608" fill="black" font-size="13.6148" font-family="Helvetica">
5000
</text>
<text x="24.884" y="124.968" fill="black" font-size="13.6148" font-family="Helvetica">
6000
</text>
<text x="24.884" y="83.3122" fill="black" font-size="13.6148" font-family="Helvetica">
7000
</text>
<rect x="300.221" y="57.9121" width="265.177" height="212.344" fill="white"/>
<path d="M300.221,270.257h 265.177" fill="none" stroke="black" stroke-width="2"/>
<path d="M565.397,270.257v -212.344" fill="none" stroke="black" stroke-width="2"/>
<path d="M565.397,57.9121h -265.177" fill="none" stroke="black" stroke-width="2"/>
<path d="M300.221,57.9121v 212.344" fill="none" stroke="black" stroke-width="2"/>
<text x="325.621" y="68.0721" fill="black" font-size="12.4484" font-family="Helvetica">
 / ndf 
</text>
<text x="320.541" y="64.0081" fill="black" font-size="8.46562" font-family="Helvetica">
2
</text>
<text x="313.429" y="68.0721" fill="black" font-size="12.4484" font-family="Times">
&#0967;
</text>
<text x="488.181" y="69.0881" fill="black" font-size="12.4484" font-family="Helvetica">
  5901 / 336
</text>
<text x="313.429" y="83.3122" fill="black" font-size="12.4484" font-family="Helvetica">
1-Centroid 
</text>
<text x="533.901" y="83.3122" fill="black" font-size="12.4484" font-family="Helvetica">
 0.1
</text>
<text x="526.789" y="83.3122" fill="black" font-size="12.4484" font-family="Times">
&#0177;
</text>
<text x="490.213" y="83.3122" fill="black" font-size="12.4484" font-family="Helvetica">
  1423 
</text>
<text x="313.429" y="97.5362" fill="black" font-size="12.4484" font-family="Helvetica">
1-FWHM   
</text>
<text x="533.901" y="97.5362" fill="black" font-size="12.4484" font-family="Helvetica">
 0.1
</text>
<text x="526.789" y="97.5362" fill="black" font-size="12.4484" font-family="Times">
&#0177;
</text>
<text x="494.277" y="97.5362" fill="black" font-size="12.4484" font-family="Helvetica">
  19.8 
</text>
<text x="313.429" y="111.76" fill="black" font-size="12.4484" font-family="Helvetica">
1-Counts 
</text>
<text x="491.229" y="111.76" fill="black" font-size="12.4484" font-family="Helvetica">
 5.840e+02
</text>
<text x="484.117" y="111.76" fill="black" font-size="12.4484" font-family="Times">
&#0177;
</text>
<text x="421.125" y="111.76" fill="black" font-size="12.4484" font-family="Helvetica">
 9.023e+04 
</text>
<text x="313.429" y="125.984" fill="black" font-size="12.4484" font-family="Helvetica">
2-Centroid 
</text>
<text x="531.869" y="125.984" fill="black" font-size="12.4484" font-family="Helvetica">
 0.0
</text>
<text x="524.757" y="125.984" fill="black" font-size="12.4484" font-family="Times">
&#0177;
</text>
<text x="488.181" y="125.984" fill="black" font-size="12.4484" font-family="Helvetica">
  1447 
</text>
<text x="313.429" y="140.208" fill="black" font-size="12.4484" font-family="Helvetica">
2-FWHM   
</text>
<text x="524.757" y="140.208" fill="black" font-size="12.4484" font-family="Helvetica">
 0.07
</text>
<text x="517.645" y="140.208" fill="black" font-size="12.4484" font-family="Times">
&#0177;
</text>
<text x="481.069" y="140.208" fill="black" font-size="12.4484" font-family="Helvetica">
 18.54 
</text>
<text x="313.429" y="154.432" fill="black" font-size="12.4484" font-family="Helvetica">
2-Counts 
</text>
<text x="491.229" y="154.432" fill="black" font-size="12.4484" font-family="Helvetica">
 6.310e+02
</text>
<text x="484.117" y="154.432" fill="black" font-size="12.4484" font-family="Times">
&#0177;
</text>
<text x="421.125" y="154.432" fill="black" font-size="12.4484" font-family="Helvetica">
 1.436e+05 
</text>
<text x="313.429" y="168.656" fill="black" font-size="12.4484" font-family="Helvetica">
3-Centroid 
</text>
<text x="533.901" y="168.656" fill="black" font-size="12.4484" font-family="Helvetica">
 0.1
</text>
<text x="526.789" y="168.656" fill="black" font-size="12.4484" font-family="Times">
&#0177;
</text>
<text x="490.213" y="168.656" fill="black" font-size="12.4484" font-family="Helvetica">
  1637 
</text>
<text x="313.429" y="182.88" fill="black" font-size="12.4484" font-family="Helvetica">
3-FWHM   
</text>
<text x="524.757" y="182.88" fill="black" font-size="12.4484" font-family="Helvetica">
 0.12
</text>
<text x="517.645" y="182.88" fill="black" font-size="12.4484" font-family="Times">
&#0177;
</text>
<text x="481.069" y="182.88" fill="black" font-size="12.4484" font-family="Helvetica">
 21.73 
</text>
<text x="313.429" y="197.104" fill="black" font-size="12.4484" font-family="Helvetica">
3-Counts 
</text>
<text x="491.229" y="197.104" fill="black" font-size="12.4484" font-family="Helvetica">
 2.066e+02
</text>
<text x="484.117" y="197.104" fill="black" font-size="12.4484" font-family="Times">
&#0177;
</text>
<text x="421.125" y="197.104" fill="black" font-size="12.4484" font-family="Helvetica">
 3.822e+04 
</text>
<text x="313.429" y="211.328" fill="black" font-size="12.4484" font-family="Helvetica">
4-Centroid 
</text>
<text x="533.901" y="211.328" fill="black" font-size="12.4484" font-family="Helvetica">
 0.1
</text>
<text x="526.789" y="211.328" fill="black" font-size="12.4484" font-family="Times">
&#0177;
</text>
<text x="490.213" y="211.328" fill="black" font-size="12.4484" font-family="Helvetica">
  1682 
</text>
<text x="313.429" y="225.552" fill="black" font-size="12.4484" font-family="Helvetica">
4-FWHM   
</text>
<text x="524.757" y="225.552" fill="black" font-size="12.4484" font-family="Helvetica">
 0.28
</text>
<text x="517.645" y="225.552" fill="black" font-size="12.4484" font-family="Times">
&#0177;
</text>
<text x="481.069" y="225.552" fill="black" font-size="12.4484" font-family="Helvetica">
 22.46 
</text>
<text x="313.429" y="239.776" fill="black" font-size="12.4484" font-family="Helvetica">
4-Counts 
</text>
<text x="517.645" y="239.776" fill="black" font-size="12.4484" font-family="Helvetica">
 114.2
</text>
<text x="510.533" y="239.776" fill="black" font-size="12.4484" font-family="Times">
&#0177;
</text>
<text x="475.989" y="239.776" fill="black" font-size="12.4484" font-family="Helvetica">
  9251 
</text>
<text x="313.429" y="252.984" fill="black" font-size="12.4484" font-family="Helvetica">
Intercept 
</text>
<text x="531.869" y="254.001" fill="black" font-size="12.4484" font-family="Helvetica">
 0.6
</text>
<text x="524.757" y="254.001" fill="black" font-size="12.4484" font-family="Times">
&#0177;
</text>
<text x="492.245" y="254.001" fill="black" font-size="12.4484" font-family="Helvetica">
   874 
</text>
<text x="313.429" y="267.209" fill="black" font-size="12.4484" font-family="Helvetica">
Slope    
</text>
<text x="511.549" y="268.225" fill="black" font-size="12.4484" font-family="Helvetica">
 0.0003
</text>
<text x="504.437" y="268.225" fill="black" font-size="12.4484" font-family="Times">
&#0177;
</text>
<text x="466.845" y="268.225" fill="black" font-size="12.4484" font-family="Helvetica">
0.5051 
</text>
<text x="459.733" y="268.225" fill="black" font-size="12.4484" font-family="Times">
&#8722;
</text>
<text x="456.685" y="268.225" fill="black" font-size="12.4484" font-family="Helvetica">
 
</text>
<path d="M59.4606,367.59h 22.6772l 4.53543, -0.0726347l 4.53543, -0.27091l 4.53543, -1.0238l 4.53543, -3.21226l 4.53543, -8.32761l 4.53543, -17.7048l 4.53543, -30.4831l 4.53543, -41.5118l 4.53543, -42.4042l 4.53543, -27.446l 4.53543, -0.132985l
 4.53543, 27.2432l 4.53543, 42.3437l 4.53543, 41.5774l 4.53543, 30.6006l 4.53543, 17.808l 4.53543, 8.3914l 4.53543, 3.24248l 4.53543, 1.03517l 4.53543, 0.27437l 4.53543, 0.0737063h 104.315" fill="none" stroke="#00ff00" stroke-width="2"/>
<path d="M281.697,367.59h 222.236" fill="none" stroke="#00ff00" stroke-width="2"/>
<path d="M503.933,367.59h 4.53543" fill="none" stroke="#00ff00" stroke-width="2"/>
<path d="M59.4606,367.59h 54.4252l 4.53543, -0.0423323l 4.53543, -0.206099l 4.53543, -0.94904l 4.53543, -3.54329l 4.53543, -10.6747l 4.53543, -25.7552l 4.53543, -49.1409l 4.53543, -72.4018l 4.53543, -78.0706l 4.53543, -51.8711l 4.53543, 0.503064l
 4.53543, 52.6076l 4.53543, 78.2247l 4.53543, 72.0892l 4.53543, 48.6924l 4.53543, 25.4116l 4.53543, 10.4905l 4.53543, 3.46895l 4.53543, 0.925694l 4.53543, 0.2003l 4.53543, 0.0409709h 72.5669" fill="none" stroke="#00ff00" stroke-width="2"/>
<path d="M281.697,367.59h 222.236" fill="none" stroke="#00ff00" stroke-width="2"/>
<path d="M503.933,367.59h 4.53543" fill="none" stroke="#00ff00" stroke-width="2"/>
<path d="M59.4606,367.59h 222.236" fill="none" stroke="#00ff00" stroke-width="2"/>
<path d="M281.697,367.59h 77.1024l 4.53543, -0.0713156l 4.53543, -0.198519l 4.53543, -0.614806l 4.53543, -1.62836l 4.53543, -3.67248l 4.53543, -7.00651l 4.53543, -11.1863l 4.53543, -14.6565l 4.53543, -15.1224l 4.53543, -10.9482l 4.53543, -2.71079l
 4.53543, 6.60854l 4.53543, 13.3409l 4.53543, 15.4314l 4.53543, 13.3913l 4.53543, 9.35554l 4.53543, 5.41767l 4.53543, 2.63954l 4.53543, 1.09137l 4.53543, 0.385045l 4.53543, 0.116343l 4.53543, 0.0384655h 45.3543" fill="none" stroke="#00ff00"
 stroke-width="2"/>
<path d="M503.933,367.59h 4.53543" fill="none" stroke="#00ff00" stroke-width="2"/>
<path d="M59.4606,367.59h 222.236" fill="none" stroke="#00ff00" stroke-width="2"/>
<path d="M281.697,367.59h 140.598l 4.53543, -0.107371l 4.53543, -0.212354l 4.53543, -0.512811l 4.53543, -1.06316l 4.53543, -1.8789l 4.53543, -2.79761l 4.53543, -3.43447l 4.53543, -3.31647l 4.53543, -2.18864l 4.53543, -0.28086l 4.53543, 1.73262l
 4.53543, 3.11403l 4.53543, 3.49417l 4.53543, 3.01566l 4.53543, 2.12681l 4.53543, 1.25809l 4.53543, 0.632789l 4.53543, 0.272808" fill="none" stroke="#00ff00" stroke-width="2"/>
<path d="M503.933,367.444l 4.53543, 0.101329" fill="none" stroke="#00ff00" stroke-width="2"/>
<text x="195.572" y="19.304" fill="black" font-size="17.7903" font-family="Helvetica">
vsBiasVoltage/450.Spe
</text></svg>
