<?xml version="1.0" standalone="no"?>
<svg width="567.429" height="341.17" viewBox="0 0 567.429 341.17" xmlns="http://www.w3.org/2000/svg">
<title>
/home/ADF/hyw543/XRay/Resolution/500.svg
</title>
<desc>
Creator: ROOT Version 6.06/08
CreationDate: Fri Mar  1 15:17:48 2019</desc>
<defs>
</defs>
<rect x="0.5" y="0" width="566.929" height="340.67" fill="white"/>
<rect x="57.1929" y="34.067" width="453.543" height="272.536" fill="white"/>
<rect x="57.1929" y="34.067" width="453.543" height="272.536" fill="none" stroke="black"/>
<rect x="57.1929" y="34.067" width="453.543" height="272.536" fill="white"/>
<rect x="57.1929" y="34.067" width="453.543" height="272.536" fill="none" stroke="black"/>
<path d="M57.1929,296.559h 1.32615v -0.269371h 1.32615v 0.885075h 1.32615v -2.61674h 1.32615v 1.42382h 1.32615v -0.692667h 1.32615v -0.769631h 1.32615v 0.423297h 1.32615v -0.0769631h 1.32615v -0.192408h 1.32615v -0.577223h 1.32615v 0.0769631h
 1.32615v -1.50078h 1.32615v 1.53926h 1.32615v -1.11596h 1.32615v -1.15445h 1.32615v -1.34685h 1.32615v -0.808112h 1.32615v 0.115445h 1.32615v -2.23193h 1.32615v -1.77015h 1.32615v -4.34841h 1.32615v -1.77015h 1.32615v -6.88819h 1.32615v -3.57878h
 1.32615v -8.65834h 1.32615v -6.19553h 1.32615v -7.69631h 1.32615v -11.8523h 1.32615v -13.3531h 1.32615v -11.6214h 1.32615v -9.38949h 1.32615v -11.2751h 1.32615v -10.6594h 1.32615v -7.65782h 1.32615v -5.50286h 1.32615v -9.19709h 1.32615v -8.23505h
 1.32615v 1.80863h 1.32615v 4.27145h 1.32615v -5.69527h 1.32615v 13.6994h 1.32615v -5.15652h 1.32615v 14.3536h 1.32615v 6.0416h 1.32615v 6.08008h 1.32615v 2.77067h 1.32615v -0.115445h 1.32615v 4.88715h 1.32615v -3.5403h 1.32615v -4.23297h 1.32615v
 -9.85127h 1.32615v -14.1997h 1.32615v -9.96672h 1.32615v -13.1607h 1.32615v -17.7785h 1.32615v -15.7005h 1.32615v -10.8133h 1.32615v -23.5122h 1.32615v -4.34841h 1.32615v -3.04004h 1.32615v -13.7764h 1.32615v 1.34685h 1.32615v 3.46334h 1.32615v
 10.6594h 1.32615v 7.15756h 1.32615v 14.7384h 1.32615v 17.2782h 1.32615v 18.779h 1.32615v 17.8939h 1.32615v 21.3957h 1.32615v 16.1622h 1.32615v 15.662h 1.32615v 16.0083h 1.32615v 15.1232h 1.32615v 14.0842h 1.32615v 9.27405h 1.32615v 9.85127h 1.32615v
 8.42745h 1.32615v 6.73427h 1.32615v 6.0416h 1.32615v 5.38741h 1.32615v 3.34789h 1.32615v 3.92512h 1.32615v 3.19397h 1.32615v 2.30889h 1.32615v 1.65471h 1.32615v 2.19345h 1.32615v 0.153926h 1.32615v 2.15497h 1.32615v -0.538741h 1.32615v 1.26989h
 1.32615v 0.808112h 1.32615v 0.808112h 1.32615v -1.15445h 1.32615v 0.731149h 1.32615v -0.230889h 1.32615v 0.307852h 1.32615v -0.0384815h 1.32615v 0.538741h 1.32615v -0.346334h 1.32615v 0.230889h 1.32615v 0.0769631h 1.32615v 0.654186h 1.32615v
 -0.731149h 1.32615v -0.0769631h 1.32615v 0.808112h 1.32615v 0.0384815h 1.32615v -0.692667h 1.32615v -0.0384815h 1.32615v 0.384815h 1.32615v 0.153926h 2.6523v -0.0769631h 1.32615v -0.538741h 1.32615v 0.615704h 2.6523v -0.0769631h 1.32615v -0.0384815h
 1.32615v 0.230889h 1.32615v 0.384815h 1.32615v -0.846594h 1.32615v 0.692667h 1.32615v -0.269371h 1.32615v -0.0769631h 1.32615v 0.307852h 1.32615v -0.692667h 1.32615v 0.192408h 3.97845v 0.153926h 1.32615v 0.307852h 1.32615v -0.269371h 1.32615v
 0.230889h 1.32615v -0.384815h 1.32615v 0.50026h 1.32615v -0.577223h 1.32615v 0.384815h 1.32615v 0.0384815h 1.32615v -0.769631h 1.32615v 0.115445h 1.32615v 0.384815h 1.32615v -0.615704h 1.32615v 0.962038h 1.32615v -0.50026h 1.32615v 0.769631h
 1.32615v -0.423297h 1.32615v -0.846594h 1.32615v 0.384815h 1.32615v 0.615704h 1.32615v -0.731149h 1.32615v 0.230889h 1.32615v -0.346334h 1.32615v -0.538741h 1.32615v 0.384815h 1.32615v 0.692667h 1.32615v -0.153926h 1.32615v -0.423297h 1.32615v
 0.192408h 1.32615v -0.0769631h 1.32615v 0.654186h 1.32615v -0.384815h 1.32615v -0.0769631h 1.32615v 0.50026h 1.32615v -1.30837h 1.32615v 0.923557h 1.32615v -0.192408h 1.32615v 0.115445h 1.32615v -0.577223h 1.32615v -0.50026h 1.32615v 1.07748h
 1.32615v -0.461778h 1.32615v -0.0384815h 1.32615v 0.692667h 1.32615v -0.423297h 1.32615v -0.0384815h 1.32615v -0.307852h 1.32615v 0.0769631h 1.32615v -0.731149h 1.32615v 0.269371h 1.32615v 0.0769631h 1.32615v 0.269371h 1.32615v -0.346334h 1.32615v
 0.153926h 1.32615v -0.115445h 1.32615v -0.0384815h 1.32615v -0.230889h 1.32615v -0.423297h 1.32615v -0.0769631h 1.32615v 0.577223h 1.32615v -0.50026h 1.32615v 0.962038h 1.32615v -0.731149h 2.6523v -0.0769631h 1.32615v 0.153926h 1.32615v -0.384815h
 1.32615v -0.461778h 1.32615v 0.923557h 1.32615v -0.615704h 1.32615v -0.0769631h 1.32615v 0.50026h 1.32615v -0.538741h 1.32615v -0.192408h 1.32615v 0.461778h 1.32615v -0.423297h 1.32615v 0.692667h 1.32615v -0.423297h 1.32615v -0.269371h 1.32615v
 -0.346334h 1.32615v 0.0769631h 1.32615v 0.654186h 1.32615v -0.192408h 1.32615v -0.885075h 1.32615v 0.269371h 1.32615v 0.230889h 1.32615v 0.346334h 1.32615v -0.384815h 1.32615v -0.808112h 1.32615v 0.962038h 1.32615v -0.461778h 1.32615v -0.538741h
 1.32615v 0.808112h 1.32615v -0.307852h 1.32615v -0.269371h 1.32615v -0.115445h 1.32615v -1.53926h 1.32615v 2.00104h 1.32615v -0.731149h 1.32615v -1.07748h 1.32615v -0.307852h 1.32615v 0.230889h 1.32615v -0.192408h 1.32615v -1.07748h 1.32615v
 -0.769631h 1.32615v -2.23193h 1.32615v -0.307852h 1.32615v -3.88663h 1.32615v -0.346334h 1.32615v -3.73271h 1.32615v -1.73167h 1.32615v -2.46282h 1.32615v -7.15756h 1.32615v -3.65575h 1.32615v -3.57878h 1.32615v -6.11856h 1.32615v -3.80967h 1.32615v
 0.962038h 1.32615v -7.34997h 1.32615v -1.19293h 1.32615v -2.27041h 1.32615v -3.42486h 1.32615v 2.19345h 1.32615v -1.039h 1.32615v 0.885075h 1.32615v 2.57826h 1.32615v 4.42538h 1.32615v 1.73167h 1.32615v 1.50078h 1.32615v 3.50182h 1.32615v 5.27197h
 1.32615v 2.34737h 1.32615v 3.57878h 1.32615v 6.69579h 1.32615v 2.30889h 1.32615v 2.9246h 1.32615v 2.84763h 1.32615v 2.34737h 1.32615v 1.53926h 1.32615v 2.5013h 1.32615v 2.078h 1.32615v 0.538741h 1.32615v 2.15497h 1.32615v 1.039h 1.32615v 0.346334h
 1.32615v 0.846594h 1.32615v 1.30837h 1.32615v -0.346334h 1.32615v 0.962038h 1.32615v -0.538741h 1.32615v 0.346334h 1.32615v -0.962038h 1.32615v 0.230889h 2.6523v -1.23141h 1.32615v 0.0769631h 1.32615v -3.19397h 1.32615v 2.19345h 1.32615v -1.80863h
 1.32615v -0.50026h 1.32615v -0.731149h 1.32615v 0.192408h 1.32615v -2.23193h 1.32615v -2.00104h 1.32615v -0.0769631h 1.32615v 0.0769631h 1.32615v -0.692667h 1.32615v -0.384815h 1.32615v -1.4623h 1.32615v 3.5403h 1.32615v -0.230889h 1.32615v
 0.192408h 1.32615v 1.07748h 1.32615v -0.307852h 1.32615v 1.57774h 1.32615v 1.73167h 1.32615v 0.269371h 1.32615v 0.346334h 1.32615v 1.00052h 2.6523v 1.92408h 1.32615v 0.538741h 1.32615v 0.846594h 1.32615v 0.307852h 1.32615v 0.346334h 1.32615v
 1.19293h 1.32615v -0.230889h 1.32615v 0.654186h 1.32615v 0.192408h 1.32615v 0.461778h 1.32615v 0.307852h 1.32615v -0.654186h 1.32615v 1.00052h 1.32615v 0.0384815h 1.32615v 0.0769631h 1.32615v 0.115445h 1.32615v -0.192408h 1.32615v 0.153926h 1.32615v
 -0.115445h 1.32615v 0.538741h 1.32615v -0.384815h 1.32615v 0.307852h 1.32615v -0.192408h 1.32615v 0.0384815h 1.32615v -0.0769631h 1.32615v 0.307852h 1.32615v -0.153926h 1.32615v -0.192408h 1.32615v 0.115445h 1.32615v 0.115445h 1.32615v -0.192408h
 1.32615v 0.423297h 1.32615" fill="none" stroke="#ff0000" stroke-width="2"/>
<path d="M59.4606,301.446l 4.53543, 0.00262297l 4.53543, -0.15667l 4.53543, -0.720188l 4.53543, -2.3541l 4.53543, -6.18667l 4.53543, -13.2927l 4.53543, -23.2178l 4.53543, -32.3408l 4.53543, -34.4108l 4.53543, -24.8569l 4.53543, -6.29784l 4.53543,
 10.5885l 4.53543, 13.5413l 4.53543, -1.85628l 4.53543, -27.1919l 4.53543, -44.9048l 4.53543, -39.5642l 4.53543, -9.91973l 4.53543, 28.6676l 4.53543, 55.5917l 4.53543, 60.3722l 4.53543, 47.6201l 4.53543, 29.27l 4.53543, 14.4466l 4.53543, 5.82541l
 4.53543, 1.95246l 4.53543, 0.566759l 4.53543, 0.165389l 4.53543, 0.070344l 4.53543, 0.0518261l 4.53543, 0.0488445l 4.53543, 0.0484466l 4.53543, 0.0484024l 4.53543, 0.0483983l 4.53543, 0.048398l 4.53543, 0.048398l 4.53543, 0.048398l 4.53543,
 0.048398l 4.53543, 0.048398l 4.53543, 0.048398l 4.53543, 0.048398l 4.53543, 0.048398l 4.53543, 0.048398l 4.53543, 0.048398l 4.53543, 0.048398l 4.53543, 0.048398l 4.53543, 0.048398l 4.53543, 0.048398l 4.53543, 0.048398" fill="none" stroke="#0000ff"
 stroke-width="2"/>
<path d="M281.697,303.828l 4.53543, 0.048398l 4.53543, 0.048398l 4.53543, 0.048398l 4.53543, 0.048398l 4.53543, 0.048398l 4.53543, 0.048398l 4.53543, 0.0483979l 4.53543, 0.0483972l 4.53543, 0.0483917l 4.53543, 0.0483529l 4.53543, 0.0481172l 4.53543,
 0.0468724l 4.53543, 0.0411726l 4.53543, 0.018597l 4.53543, -0.0584982l 4.53543, -0.284492l 4.53543, -0.849475l 4.53543, -2.04211l 4.53543, -4.13255l 4.53543, -7.07944l 4.53543, -10.1777l 4.53543, -12.0018l 4.53543, -10.9911l 4.53543, -6.52924l
 4.53543, 0.287919l 4.53543, 7.01483l 4.53543, 11.2572l 4.53543, 12.0281l 4.53543, 10.0183l 4.53543, 6.7669l 4.53543, 3.59316l 4.53543, 1.08123l 4.53543, -0.762402l 4.53543, -2.06319l 4.53543, -2.76973l 4.53543, -2.67426l 4.53543, -1.68088l 4.53543,
 -0.0524271l 4.53543, 1.61833l 4.53543, 2.72408l 4.53543, 2.98619l 4.53543, 2.54904l 4.53543, 1.79401l 4.53543, 1.07272l 4.53543, 0.560296l 4.53543, 0.267961l 4.53543, 0.129629l 4.53543, 0.0744074l 4.53543, 0.0556229" fill="none" stroke="#0000ff"
 stroke-width="2"/>
<path d="M503.933,306.197l 4.53543, 0.0501422" fill="none" stroke="#0000ff" stroke-width="2"/>
<rect x="351.996" y="22.1435" width="204.094" height="218.029" fill="white"/>
<path d="M351.996,240.172h 204.094" fill="none" stroke="black" stroke-width="2"/>
<path d="M556.091,240.172v -218.029" fill="none" stroke="black" stroke-width="2"/>
<path d="M556.091,22.1435h -204.094" fill="none" stroke="black" stroke-width="2"/>
<path d="M351.996,22.1435v 218.029" fill="none" stroke="black" stroke-width="2"/>
<text x="371.907" y="33.2985" fill="black" font-size="11.6005" font-family="Helvetica">
 / ndf 
</text>
<text x="367.638" y="29.0295" fill="black" font-size="7.90032" font-family="Helvetica">
2
</text>
<text x="361.661" y="33.2985" fill="black" font-size="11.6005" font-family="Times">
&#0967;
</text>
<text x="488.025" y="33.2985" fill="black" font-size="11.6005" font-family="Helvetica">
  4392 / 328
</text>
<text x="361.661" y="47.8133" fill="black" font-size="11.6005" font-family="Helvetica">
1-Centroid 
</text>
<text x="529.008" y="47.8133" fill="black" font-size="11.6005" font-family="Helvetica">
 0.1
</text>
<text x="523.031" y="47.8133" fill="black" font-size="11.6005" font-family="Times">
&#0177;
</text>
<text x="490.586" y="47.8133" fill="black" font-size="11.6005" font-family="Helvetica">
  1423 
</text>
<text x="361.661" y="63.1819" fill="black" font-size="11.6005" font-family="Helvetica">
1-FWHM   
</text>
<text x="521.323" y="62.3281" fill="black" font-size="11.6005" font-family="Helvetica">
 0.14
</text>
<text x="515.347" y="62.3281" fill="black" font-size="11.6005" font-family="Times">
&#0177;
</text>
<text x="482.902" y="62.3281" fill="black" font-size="11.6005" font-family="Helvetica">
 19.58 
</text>
<text x="361.661" y="76.8428" fill="black" font-size="11.6005" font-family="Helvetica">
1-Counts 
</text>
<text x="490.586" y="76.8428" fill="black" font-size="11.6005" font-family="Helvetica">
 5.525e+02
</text>
<text x="484.61" y="76.8428" fill="black" font-size="11.6005" font-family="Times">
&#0177;
</text>
<text x="427.404" y="76.8428" fill="black" font-size="11.6005" font-family="Helvetica">
 7.698e+04 
</text>
<text x="361.661" y="91.3576" fill="black" font-size="11.6005" font-family="Helvetica">
2-Centroid 
</text>
<text x="527.3" y="91.3576" fill="black" font-size="11.6005" font-family="Helvetica">
 0.0
</text>
<text x="521.323" y="91.3576" fill="black" font-size="11.6005" font-family="Times">
&#0177;
</text>
<text x="488.879" y="91.3576" fill="black" font-size="11.6005" font-family="Helvetica">
  1448 
</text>
<text x="361.661" y="106.726" fill="black" font-size="11.6005" font-family="Helvetica">
2-FWHM   
</text>
<text x="521.323" y="105.872" fill="black" font-size="11.6005" font-family="Helvetica">
 0.08
</text>
<text x="515.347" y="105.872" fill="black" font-size="11.6005" font-family="Times">
&#0177;
</text>
<text x="482.902" y="105.872" fill="black" font-size="11.6005" font-family="Helvetica">
 19.13 
</text>
<text x="361.661" y="120.387" fill="black" font-size="11.6005" font-family="Helvetica">
2-Counts 
</text>
<text x="496.563" y="120.387" fill="black" font-size="11.6005" font-family="Helvetica">
 6.01e+02
</text>
<text x="490.586" y="120.387" fill="black" font-size="11.6005" font-family="Times">
&#0177;
</text>
<text x="439.358" y="120.387" fill="black" font-size="11.6005" font-family="Helvetica">
 1.29e+05 
</text>
<text x="361.661" y="134.902" fill="black" font-size="11.6005" font-family="Helvetica">
3-Centroid 
</text>
<text x="529.008" y="134.902" fill="black" font-size="11.6005" font-family="Helvetica">
 0.1
</text>
<text x="523.031" y="134.902" fill="black" font-size="11.6005" font-family="Times">
&#0177;
</text>
<text x="490.586" y="134.902" fill="black" font-size="11.6005" font-family="Helvetica">
  1638 
</text>
<text x="361.661" y="149.417" fill="black" font-size="11.6005" font-family="Helvetica">
3-FWHM   
</text>
<text x="521.323" y="149.417" fill="black" font-size="11.6005" font-family="Helvetica">
 0.13
</text>
<text x="515.347" y="149.417" fill="black" font-size="11.6005" font-family="Times">
&#0177;
</text>
<text x="482.902" y="149.417" fill="black" font-size="11.6005" font-family="Helvetica">
 22.07 
</text>
<text x="361.661" y="163.931" fill="black" font-size="11.6005" font-family="Helvetica">
3-Counts 
</text>
<text x="490.586" y="163.931" fill="black" font-size="11.6005" font-family="Helvetica">
 1.953e+02
</text>
<text x="484.61" y="163.931" fill="black" font-size="11.6005" font-family="Times">
&#0177;
</text>
<text x="427.404" y="163.931" fill="black" font-size="11.6005" font-family="Helvetica">
 3.393e+04 
</text>
<text x="361.661" y="178.446" fill="black" font-size="11.6005" font-family="Helvetica">
4-Centroid 
</text>
<text x="529.008" y="178.446" fill="black" font-size="11.6005" font-family="Helvetica">
 0.1
</text>
<text x="523.031" y="178.446" fill="black" font-size="11.6005" font-family="Times">
&#0177;
</text>
<text x="490.586" y="178.446" fill="black" font-size="11.6005" font-family="Helvetica">
  1683 
</text>
<text x="361.661" y="193.815" fill="black" font-size="11.6005" font-family="Helvetica">
4-FWHM   
</text>
<text x="521.323" y="192.961" fill="black" font-size="11.6005" font-family="Helvetica">
 0.28
</text>
<text x="515.347" y="192.961" fill="black" font-size="11.6005" font-family="Times">
&#0177;
</text>
<text x="484.61" y="192.961" fill="black" font-size="11.6005" font-family="Helvetica">
 22.01 
</text>
<text x="361.661" y="207.476" fill="black" font-size="11.6005" font-family="Helvetica">
4-Counts 
</text>
<text x="515.347" y="207.476" fill="black" font-size="11.6005" font-family="Helvetica">
 106.8
</text>
<text x="509.37" y="207.476" fill="black" font-size="11.6005" font-family="Times">
&#0177;
</text>
<text x="476.925" y="207.476" fill="black" font-size="11.6005" font-family="Helvetica">
  8223 
</text>
<text x="361.661" y="221.137" fill="black" font-size="11.6005" font-family="Helvetica">
Intercept 
</text>
<text x="527.3" y="221.99" fill="black" font-size="11.6005" font-family="Helvetica">
 0.4
</text>
<text x="521.323" y="221.99" fill="black" font-size="11.6005" font-family="Times">
&#0177;
</text>
<text x="488.879" y="221.99" fill="black" font-size="11.6005" font-family="Helvetica">
 643.7 
</text>
<text x="361.661" y="235.651" fill="black" font-size="11.6005" font-family="Helvetica">
Slope    
</text>
<text x="508.516" y="236.505" fill="black" font-size="11.6005" font-family="Helvetica">
 0.0003
</text>
<text x="502.54" y="236.505" fill="black" font-size="11.6005" font-family="Times">
&#0177;
</text>
<text x="466.68" y="236.505" fill="black" font-size="11.6005" font-family="Helvetica">
0.3677 
</text>
<text x="459.849" y="236.505" fill="black" font-size="11.6005" font-family="Times">
&#8722;
</text>
<text x="457.288" y="236.505" fill="black" font-size="11.6005" font-family="Helvetica">
 
</text>
<path d="M57.1929,306.603h 453.543" fill="none" stroke="black" stroke-width="2"/>
<text x="464.972" y="329.57" fill="black" font-size="11.4389" font-family="Helvetica">
Channels
</text>
<path d="M77.0852,298.427v 8.17607" fill="none" stroke="black" stroke-width="2"/>
<path d="M103.608,302.515v 4.08804" fill="none" stroke="black" stroke-width="2"/>
<path d="M130.131,302.515v 4.08804" fill="none" stroke="black" stroke-width="2"/>
<path d="M156.654,302.515v 4.08804" fill="none" stroke="black" stroke-width="2"/>
<path d="M183.177,302.515v 4.08804" fill="none" stroke="black" stroke-width="2"/>
<path d="M209.7,298.427v 8.17607" fill="none" stroke="black" stroke-width="2"/>
<path d="M236.223,302.515v 4.08804" fill="none" stroke="black" stroke-width="2"/>
<path d="M262.746,302.515v 4.08804" fill="none" stroke="black" stroke-width="2"/>
<path d="M289.269,302.515v 4.08804" fill="none" stroke="black" stroke-width="2"/>
<path d="M315.792,302.515v 4.08804" fill="none" stroke="black" stroke-width="2"/>
<path d="M342.315,298.427v 8.17607" fill="none" stroke="black" stroke-width="2"/>
<path d="M368.838,302.515v 4.08804" fill="none" stroke="black" stroke-width="2"/>
<path d="M395.361,302.515v 4.08804" fill="none" stroke="black" stroke-width="2"/>
<path d="M421.884,302.515v 4.08804" fill="none" stroke="black" stroke-width="2"/>
<path d="M448.407,302.515v 4.08804" fill="none" stroke="black" stroke-width="2"/>
<path d="M474.93,298.427v 8.17607" fill="none" stroke="black" stroke-width="2"/>
<path d="M77.0852,298.427v 8.17607" fill="none" stroke="black" stroke-width="2"/>
<path d="M474.93,298.427v 8.17607" fill="none" stroke="black" stroke-width="2"/>
<path d="M501.453,302.515v 4.08804" fill="none" stroke="black" stroke-width="2"/>
<text x="63.6819" y="317.617" fill="black" font-size="11.4389" font-family="Helvetica">
1400
</text>
<text x="196.876" y="317.617" fill="black" font-size="11.4389" font-family="Helvetica">
1500
</text>
<text x="329.216" y="317.617" fill="black" font-size="11.4389" font-family="Helvetica">
1600
</text>
<text x="461.557" y="317.617" fill="black" font-size="11.4389" font-family="Helvetica">
1700
</text>
<path d="M57.1929,306.603v -272.536" fill="none" stroke="black" stroke-width="2"/>
<path d="M70.7992,306.603h -13.6063" fill="none" stroke="black" stroke-width="2"/>
<path d="M63.9961,298.906h -6.80315" fill="none" stroke="black" stroke-width="2"/>
<path d="M63.9961,291.21h -6.80315" fill="none" stroke="black" stroke-width="2"/>
<path d="M63.9961,283.514h -6.80315" fill="none" stroke="black" stroke-width="2"/>
<path d="M63.9961,275.818h -6.80315" fill="none" stroke="black" stroke-width="2"/>
<path d="M70.7992,268.121h -13.6063" fill="none" stroke="black" stroke-width="2"/>
<path d="M63.9961,260.425h -6.80315" fill="none" stroke="black" stroke-width="2"/>
<path d="M63.9961,252.729h -6.80315" fill="none" stroke="black" stroke-width="2"/>
<path d="M63.9961,245.032h -6.80315" fill="none" stroke="black" stroke-width="2"/>
<path d="M63.9961,237.336h -6.80315" fill="none" stroke="black" stroke-width="2"/>
<path d="M70.7992,229.64h -13.6063" fill="none" stroke="black" stroke-width="2"/>
<path d="M63.9961,221.943h -6.80315" fill="none" stroke="black" stroke-width="2"/>
<path d="M63.9961,214.247h -6.80315" fill="none" stroke="black" stroke-width="2"/>
<path d="M63.9961,206.551h -6.80315" fill="none" stroke="black" stroke-width="2"/>
<path d="M63.9961,198.855h -6.80315" fill="none" stroke="black" stroke-width="2"/>
<path d="M70.7992,191.158h -13.6063" fill="none" stroke="black" stroke-width="2"/>
<path d="M63.9961,183.462h -6.80315" fill="none" stroke="black" stroke-width="2"/>
<path d="M63.9961,175.766h -6.80315" fill="none" stroke="black" stroke-width="2"/>
<path d="M63.9961,168.069h -6.80315" fill="none" stroke="black" stroke-width="2"/>
<path d="M63.9961,160.373h -6.80315" fill="none" stroke="black" stroke-width="2"/>
<path d="M70.7992,152.677h -13.6063" fill="none" stroke="black" stroke-width="2"/>
<path d="M63.9961,144.98h -6.80315" fill="none" stroke="black" stroke-width="2"/>
<path d="M63.9961,137.284h -6.80315" fill="none" stroke="black" stroke-width="2"/>
<path d="M63.9961,129.588h -6.80315" fill="none" stroke="black" stroke-width="2"/>
<path d="M63.9961,121.891h -6.80315" fill="none" stroke="black" stroke-width="2"/>
<path d="M70.7992,114.195h -13.6063" fill="none" stroke="black" stroke-width="2"/>
<path d="M63.9961,106.499h -6.80315" fill="none" stroke="black" stroke-width="2"/>
<path d="M63.9961,98.8025h -6.80315" fill="none" stroke="black" stroke-width="2"/>
<path d="M63.9961,91.1062h -6.80315" fill="none" stroke="black" stroke-width="2"/>
<path d="M63.9961,83.4099h -6.80315" fill="none" stroke="black" stroke-width="2"/>
<path d="M70.7992,75.7136h -13.6063" fill="none" stroke="black" stroke-width="2"/>
<path d="M63.9961,68.0173h -6.80315" fill="none" stroke="black" stroke-width="2"/>
<path d="M63.9961,60.321h -6.80315" fill="none" stroke="black" stroke-width="2"/>
<path d="M63.9961,52.6247h -6.80315" fill="none" stroke="black" stroke-width="2"/>
<path d="M63.9961,44.9284h -6.80315" fill="none" stroke="black" stroke-width="2"/>
<path d="M70.7992,37.2321h -13.6063" fill="none" stroke="black" stroke-width="2"/>
<path d="M70.7992,37.2321h -13.6063" fill="none" stroke="black" stroke-width="2"/>
<text x="48.3133" y="310.786" fill="black" font-size="11.4389" font-family="Helvetica">
0
</text>
<text x="29.5295" y="272.365" fill="black" font-size="11.4389" font-family="Helvetica">
1000
</text>
<text x="29.5295" y="233.09" fill="black" font-size="11.4389" font-family="Helvetica">
2000
</text>
<text x="29.5295" y="194.668" fill="black" font-size="11.4389" font-family="Helvetica">
3000
</text>
<text x="29.5295" y="156.247" fill="black" font-size="11.4389" font-family="Helvetica">
4000
</text>
<text x="29.5295" y="117.826" fill="black" font-size="11.4389" font-family="Helvetica">
5000
</text>
<text x="29.5295" y="79.4042" fill="black" font-size="11.4389" font-family="Helvetica">
6000
</text>
<text x="29.5295" y="40.9828" fill="black" font-size="11.4389" font-family="Helvetica">
7000
</text>
<rect x="351.996" y="22.1435" width="204.094" height="218.029" fill="white"/>
<path d="M351.996,240.172h 204.094" fill="none" stroke="black" stroke-width="2"/>
<path d="M556.091,240.172v -218.029" fill="none" stroke="black" stroke-width="2"/>
<path d="M556.091,22.1435h -204.094" fill="none" stroke="black" stroke-width="2"/>
<path d="M351.996,22.1435v 218.029" fill="none" stroke="black" stroke-width="2"/>
<text x="371.907" y="33.2985" fill="black" font-size="11.6005" font-family="Helvetica">
 / ndf 
</text>
<text x="367.638" y="29.0295" fill="black" font-size="7.90032" font-family="Helvetica">
2
</text>
<text x="361.661" y="33.2985" fill="black" font-size="11.6005" font-family="Times">
&#0967;
</text>
<text x="488.025" y="33.2985" fill="black" font-size="11.6005" font-family="Helvetica">
  4392 / 328
</text>
<text x="361.661" y="47.8133" fill="black" font-size="11.6005" font-family="Helvetica">
1-Centroid 
</text>
<text x="529.008" y="47.8133" fill="black" font-size="11.6005" font-family="Helvetica">
 0.1
</text>
<text x="523.031" y="47.8133" fill="black" font-size="11.6005" font-family="Times">
&#0177;
</text>
<text x="490.586" y="47.8133" fill="black" font-size="11.6005" font-family="Helvetica">
  1423 
</text>
<text x="361.661" y="63.1819" fill="black" font-size="11.6005" font-family="Helvetica">
1-FWHM   
</text>
<text x="521.323" y="62.3281" fill="black" font-size="11.6005" font-family="Helvetica">
 0.14
</text>
<text x="515.347" y="62.3281" fill="black" font-size="11.6005" font-family="Times">
&#0177;
</text>
<text x="482.902" y="62.3281" fill="black" font-size="11.6005" font-family="Helvetica">
 19.58 
</text>
<text x="361.661" y="76.8428" fill="black" font-size="11.6005" font-family="Helvetica">
1-Counts 
</text>
<text x="490.586" y="76.8428" fill="black" font-size="11.6005" font-family="Helvetica">
 5.525e+02
</text>
<text x="484.61" y="76.8428" fill="black" font-size="11.6005" font-family="Times">
&#0177;
</text>
<text x="427.404" y="76.8428" fill="black" font-size="11.6005" font-family="Helvetica">
 7.698e+04 
</text>
<text x="361.661" y="91.3576" fill="black" font-size="11.6005" font-family="Helvetica">
2-Centroid 
</text>
<text x="527.3" y="91.3576" fill="black" font-size="11.6005" font-family="Helvetica">
 0.0
</text>
<text x="521.323" y="91.3576" fill="black" font-size="11.6005" font-family="Times">
&#0177;
</text>
<text x="488.879" y="91.3576" fill="black" font-size="11.6005" font-family="Helvetica">
  1448 
</text>
<text x="361.661" y="106.726" fill="black" font-size="11.6005" font-family="Helvetica">
2-FWHM   
</text>
<text x="521.323" y="105.872" fill="black" font-size="11.6005" font-family="Helvetica">
 0.08
</text>
<text x="515.347" y="105.872" fill="black" font-size="11.6005" font-family="Times">
&#0177;
</text>
<text x="482.902" y="105.872" fill="black" font-size="11.6005" font-family="Helvetica">
 19.13 
</text>
<text x="361.661" y="120.387" fill="black" font-size="11.6005" font-family="Helvetica">
2-Counts 
</text>
<text x="496.563" y="120.387" fill="black" font-size="11.6005" font-family="Helvetica">
 6.01e+02
</text>
<text x="490.586" y="120.387" fill="black" font-size="11.6005" font-family="Times">
&#0177;
</text>
<text x="439.358" y="120.387" fill="black" font-size="11.6005" font-family="Helvetica">
 1.29e+05 
</text>
<text x="361.661" y="134.902" fill="black" font-size="11.6005" font-family="Helvetica">
3-Centroid 
</text>
<text x="529.008" y="134.902" fill="black" font-size="11.6005" font-family="Helvetica">
 0.1
</text>
<text x="523.031" y="134.902" fill="black" font-size="11.6005" font-family="Times">
&#0177;
</text>
<text x="490.586" y="134.902" fill="black" font-size="11.6005" font-family="Helvetica">
  1638 
</text>
<text x="361.661" y="149.417" fill="black" font-size="11.6005" font-family="Helvetica">
3-FWHM   
</text>
<text x="521.323" y="149.417" fill="black" font-size="11.6005" font-family="Helvetica">
 0.13
</text>
<text x="515.347" y="149.417" fill="black" font-size="11.6005" font-family="Times">
&#0177;
</text>
<text x="482.902" y="149.417" fill="black" font-size="11.6005" font-family="Helvetica">
 22.07 
</text>
<text x="361.661" y="163.931" fill="black" font-size="11.6005" font-family="Helvetica">
3-Counts 
</text>
<text x="490.586" y="163.931" fill="black" font-size="11.6005" font-family="Helvetica">
 1.953e+02
</text>
<text x="484.61" y="163.931" fill="black" font-size="11.6005" font-family="Times">
&#0177;
</text>
<text x="427.404" y="163.931" fill="black" font-size="11.6005" font-family="Helvetica">
 3.393e+04 
</text>
<text x="361.661" y="178.446" fill="black" font-size="11.6005" font-family="Helvetica">
4-Centroid 
</text>
<text x="529.008" y="178.446" fill="black" font-size="11.6005" font-family="Helvetica">
 0.1
</text>
<text x="523.031" y="178.446" fill="black" font-size="11.6005" font-family="Times">
&#0177;
</text>
<text x="490.586" y="178.446" fill="black" font-size="11.6005" font-family="Helvetica">
  1683 
</text>
<text x="361.661" y="193.815" fill="black" font-size="11.6005" font-family="Helvetica">
4-FWHM   
</text>
<text x="521.323" y="192.961" fill="black" font-size="11.6005" font-family="Helvetica">
 0.28
</text>
<text x="515.347" y="192.961" fill="black" font-size="11.6005" font-family="Times">
&#0177;
</text>
<text x="484.61" y="192.961" fill="black" font-size="11.6005" font-family="Helvetica">
 22.01 
</text>
<text x="361.661" y="207.476" fill="black" font-size="11.6005" font-family="Helvetica">
4-Counts 
</text>
<text x="515.347" y="207.476" fill="black" font-size="11.6005" font-family="Helvetica">
 106.8
</text>
<text x="509.37" y="207.476" fill="black" font-size="11.6005" font-family="Times">
&#0177;
</text>
<text x="476.925" y="207.476" fill="black" font-size="11.6005" font-family="Helvetica">
  8223 
</text>
<text x="361.661" y="221.137" fill="black" font-size="11.6005" font-family="Helvetica">
Intercept 
</text>
<text x="527.3" y="221.99" fill="black" font-size="11.6005" font-family="Helvetica">
 0.4
</text>
<text x="521.323" y="221.99" fill="black" font-size="11.6005" font-family="Times">
&#0177;
</text>
<text x="488.879" y="221.99" fill="black" font-size="11.6005" font-family="Helvetica">
 643.7 
</text>
<text x="361.661" y="235.651" fill="black" font-size="11.6005" font-family="Helvetica">
Slope    
</text>
<text x="508.516" y="236.505" fill="black" font-size="11.6005" font-family="Helvetica">
 0.0003
</text>
<text x="502.54" y="236.505" fill="black" font-size="11.6005" font-family="Times">
&#0177;
</text>
<text x="466.68" y="236.505" fill="black" font-size="11.6005" font-family="Helvetica">
0.3677 
</text>
<text x="459.849" y="236.505" fill="black" font-size="11.6005" font-family="Times">
&#8722;
</text>
<text x="457.288" y="236.505" fill="black" font-size="11.6005" font-family="Helvetica">
 
</text>
<path d="M59.4606,306.603l 4.53543, -0.0558888l 4.53543, -0.205068l 4.53543, -0.768585l 4.53543, -2.40249l 4.53543, -6.23495l 4.53543, -13.3402l 4.53543, -23.2593l 4.53543, -32.3479l 4.53543, -34.2533l 4.53543, -24.053l 4.53543, -3.42552l 4.53543,
 18.7936l 4.53543, 32.5997l 4.53543, 33.9497l 4.53543, 26.2658l 4.53543, 16.051l 4.53543, 7.95422l 4.53543, 3.24071l 4.53543, 1.09429l 4.53543, 0.30782l 4.53543, 0.0893769h 126.992" fill="none" stroke="#00ff00" stroke-width="2"/>
<path d="M281.697,306.603h 222.236" fill="none" stroke="#00ff00" stroke-width="2"/>
<path d="M503.933,306.603h 4.53543" fill="none" stroke="#00ff00" stroke-width="2"/>
<path d="M59.4606,306.603h 31.748l 4.53543, -0.0492966l 4.53543, -0.205906l 4.53543, -0.852222l 4.53543, -2.92072l 4.53543, -8.25352l 4.53543, -19.1069l 4.53543, -35.8544l 4.53543, -53.5061l 4.53543, -61.0041l 4.53543, -47.5668l 4.53543, -13.2088l
 4.53543, 27.5249l 4.53543, 55.2355l 4.53543, 60.2515l 4.53543, 47.5575l 4.53543, 29.2193l 4.53543, 14.3979l 4.53543, 5.77698l 4.53543, 1.90406l 4.53543, 0.518361l 4.53543, 0.142865h 95.2441" fill="none" stroke="#00ff00" stroke-width="2"/>
<path d="M281.697,306.603h 222.236" fill="none" stroke="#00ff00" stroke-width="2"/>
<path d="M503.933,306.603h 4.53543" fill="none" stroke="#00ff00" stroke-width="2"/>
<path d="M59.4606,306.603h 222.236" fill="none" stroke="#00ff00" stroke-width="2"/>
<path d="M281.697,306.603h 58.9606l 4.53543, -0.0388852l 4.53543, -0.106896l 4.53543, -0.33289l 4.53543, -0.897873l 4.53543, -2.09051l 4.53543, -4.18094l 4.53543, -7.12784l 4.53543, -10.2261l 4.53543, -12.0501l 4.53543, -11.0395l 4.53543, -6.57758l
 4.53543, 0.239824l 4.53543, 6.9679l 4.53543, 11.2149l 4.53543, 12.0023l 4.53543, 10.0416l 4.53543, 6.91567l 4.53543, 4.01248l 4.53543, 1.98576l 4.53543, 0.844495l 4.53543, 0.310101l 4.53543, 0.0986428l 4.53543, 0.0354558h 58.9606" fill="none"
 stroke="#00ff00" stroke-width="2"/>
<path d="M503.933,306.603h 4.53543" fill="none" stroke="#00ff00" stroke-width="2"/>
<path d="M59.4606,306.603h 222.236" fill="none" stroke="#00ff00" stroke-width="2"/>
<path d="M281.697,306.603h 122.457l 4.53543, -0.0305958l 4.53543, -0.0717246l 4.53543, -0.197167l 4.53543, -0.467719l 4.53543, -0.952928l 4.53543, -1.65529l 4.53543, -2.42169l 4.53543, -2.91677l 4.53543, -2.7499l 4.53543, -1.73582l 4.53543,
 -0.102195l 4.53543, 1.56968l 4.53543, 2.67565l 4.53543, 2.93778l 4.53543, 2.50064l 4.53543, 1.74561l 4.53543, 1.02432l 4.53543, 0.511898l 4.53543, 0.219563l 4.53543, 0.0812306l 4.53543, 0.0354243h 4.53543" fill="none" stroke="#00ff00"
 stroke-width="2"/>
<path d="M503.933,306.603h 4.53543" fill="none" stroke="#00ff00" stroke-width="2"/>
<text x="201.145" y="17.0762" fill="black" font-size="16.6062" font-family="Helvetica">
vsBiasVoltage/500.Spe
</text></svg>
