<?xml version="1.0" standalone="no"?>
<svg width="567.429" height="358.427" viewBox="0 0 567.429 358.427" xmlns="http://www.w3.org/2000/svg">
<title>
/home/ADF/hyw543/XRay/Resolution/c1.svg
</title>
<desc>
Creator: ROOT Version 6.06/08
CreationDate: Fri Mar  1 15:14:15 2019</desc>
<defs>
</defs>
<rect x="0.5" y="0" width="566.929" height="357.927" fill="white"/>
<rect x="57.1929" y="35.7927" width="453.543" height="286.342" fill="white"/>
<rect x="57.1929" y="35.7927" width="453.543" height="286.342" fill="none" stroke="black"/>
<rect x="57.1929" y="35.7927" width="453.543" height="286.342" fill="white"/>
<rect x="57.1929" y="35.7927" width="453.543" height="286.342" fill="none" stroke="black"/>
<path d="M57.1929,313.805h 3.38465v 0.161723h 3.38465v 0.283016h 3.38465v -0.323447h 3.38465v 0.283016h 3.38465v -1.65767h 3.38465v 1.85982h 3.38465v -1.73853h 3.38465v 0.48517h 3.38465v -0.161723h 3.38465v -0.849048h 3.38465v -0.48517h 3.38465v
 1.41508h 3.38465v -0.849048h 3.38465v 1.09163h 3.38465v -1.6981h 3.38465v 0.849048h 3.38465v -1.0512h 3.38465v 0.646894h 3.38465v -0.525601h 3.38465v 0.0404309h 3.38465v -0.283016h 3.38465v 0.92991h 3.38465v -2.7493h 3.38465v 1.49594h 3.38465v
 -0.727756h 3.38465v -0.808617h 3.38465v 0.44474h 3.38465v -0.0808617h 3.38465v -0.202154h 3.38465v -0.606463h 3.38465v 0.0808617h 3.38465v -1.5768h 3.38465v 1.61723h 3.38465v -1.1725h 3.38465v -1.21293h 3.38465v -1.41508h 3.38465v -0.849048h
 3.38465v 0.121293h 3.38465v -2.34499h 3.38465v -1.85982h 3.38465v -4.56869h 3.38465v -1.85982h 3.38465v -7.23713h 3.38465v -3.76007h 3.38465v -9.09694h 3.38465v -6.50937h 3.38465v -8.08617h 3.38465v -12.4527h 3.38465v -14.0295h 3.38465v -12.2101h
 3.38465v -9.86513h 3.38465v -11.8462h 3.38465v -11.1994h 3.38465v -8.04574h 3.38465v -5.78161h 3.38465v -9.66298h 3.38465v -8.65221h 3.38465v 1.90025h 3.38465v 4.48783h 3.38465v -5.98377h 3.38465v 14.3934h 3.38465v -5.41774h 3.38465v 15.0807h
 3.38465v 6.34765h 3.38465v 6.38808h 3.38465v 2.91102h 3.38465v -0.121293h 3.38465v 5.13472h 3.38465v -3.71964h 3.38465v -4.4474h 3.38465v -10.3503h 3.38465v -14.919h 3.38465v -10.4716h 3.38465v -13.8274h 3.38465v -18.6791h 3.38465v -16.4958h
 3.38465v -11.3611h 3.38465v -24.7033h 3.38465v -4.56869h 3.38465v -3.19404h 3.38465v -14.4743h 3.38465v 1.41508h 3.38465v 3.63878h 3.38465v 11.1994h 3.38465v 7.52014h 3.38465v 15.485h 3.38465v 18.1535h 3.38465v 19.7303h 3.38465v 18.8004h 3.38465v
 22.4796h 3.38465v 16.981h 3.38465v 16.4554h 3.38465v 16.8192h 3.38465v 15.8893h 3.38465v 14.7977h 3.38465v 9.74384h 3.38465v 10.3503h 3.38465v 8.85436h 3.38465v 7.0754h 3.38465v 6.34765h 3.38465v 5.66032h 3.38465v 3.51749h 3.38465v 4.12395h 3.38465v
 3.35576h 3.38465v 2.42585h 3.38465v 1.73853h 3.38465v 2.30456h 3.38465v 0.161723h 3.38465v 2.26413h 3.38465v -0.566032h 3.38465v 1.33422h 3.38465v 0.849048h 3.38465v 0.849048h 3.38465v -1.21293h 3.38465v 0.768186h 3.38465v -0.242585h 3.38465v
 0.323447h 3.38465v -0.0404309h 3.38465v 0.566032h 3.38465v -0.363878h 3.38465v 0.242585h 3.38465v 0.0808617h 3.38465v 0.687325h 3.38465v -0.768186h 3.38465v -0.0808617h 3.38465v 0.849048h 3.38465v 0.0404309h 3.38465v -0.727756h 3.38465v -0.0404309h
 3.38465v 0.404309h 3.38465v 0.161723h 6.7693v -0.0808617h 3.38465" fill="none" stroke="#ff0000" stroke-width="2"/>
<path d="M59.4606,312.867l 4.53543, 0.0644186l 4.53543, 0.0619624l 4.53543, 0.0579305l 4.53543, 0.0515371l 4.53543, 0.0417521l 4.53543, 0.0273129l 4.53543, 0.00679531l 4.53543, -0.0212333l 4.53543, -0.0579647l 4.53543, -0.104009l 4.53543, -0.158998l
 4.53543, -0.221196l 4.53543, -0.287219l 4.53543, -0.351985l 4.53543, -0.408998l 4.53543, -0.451032l 4.53543, -0.47124l 4.53543, -0.464587l 4.53543, -0.429457l 4.53543, -0.369235l 4.53543, -0.293644l 4.53543, -0.219667l 4.53543, -0.171955l 4.53543,
 -0.182643l 4.53543, -0.290515l 4.53543, -0.539361l 4.53543, -0.975255l 4.53543, -1.64237l 4.53543, -2.57696l 4.53543, -3.79938l 4.53543, -5.30459l 4.53543, -7.05229l 4.53543, -8.95878l 4.53543, -10.8933l 4.53543, -12.6814l 4.53543, -14.1181l
 4.53543, -14.9905l 4.53543, -15.1086l 4.53543, -14.3398l 4.53543, -12.6415l 4.53543, -10.0838l 4.53543, -6.85701l 4.53543, -3.26058l 4.53543, 0.327098l 4.53543, 3.49364l 4.53543, 5.84575l 4.53543, 7.06215l 4.53543, 6.93854l 4.53543, 5.41846"
 fill="none" stroke="#0000ff" stroke-width="2"/>
<path d="M281.697,191.486l 4.53543, 2.60674l 4.53543, -1.23542l 4.53543, -5.71265l 4.53543, -10.3328l 4.53543, -14.5563l 4.53543, -17.8542l 4.53543, -19.7692l 4.53543, -19.9736l 4.53543, -18.3163l 4.53543, -14.8503l 4.53543, -9.83469l 4.53543,
 -3.70682l 4.53543, 2.97148l 4.53543, 9.58759l 4.53543, 15.5587l 4.53543, 20.4059l 4.53543, 23.8087l 4.53543, 25.6321l 4.53543, 25.9227l 4.53543, 24.879l 4.53543, 22.8027l 4.53543, 20.0434l 4.53543, 16.9465l 4.53543, 13.8124l 4.53543, 10.8714l
 4.53543, 8.27472l 4.53543, 6.09862l 4.53543, 4.35812l 4.53543, 3.02436l 4.53543, 2.04243l 4.53543, 1.3465l 4.53543, 0.870921l 4.53543, 0.557178l 4.53543, 0.357167l 4.53543, 0.233855l 4.53543, 0.160282l 4.53543, 0.117778l 4.53543, 0.0939904l 4.53543,
 0.0810886l 4.53543, 0.0743048l 4.53543, 0.0708458l 4.53543, 0.0691349l 4.53543, 0.0683139l 4.53543, 0.0679316l 4.53543, 0.0677588l 4.53543, 0.067683l 4.53543, 0.0676507l 4.53543, 0.0676373l 4.53543, 0.067632" fill="none" stroke="#0000ff"
 stroke-width="2"/>
<path d="M503.933,319.499l 4.53543, 0.0676299" fill="none" stroke="#0000ff" stroke-width="2"/>
<rect x="351.996" y="23.2652" width="204.094" height="157.488" fill="white"/>
<path d="M351.996,180.753h 204.094" fill="none" stroke="black" stroke-width="2"/>
<path d="M556.091,180.753v -157.488" fill="none" stroke="black" stroke-width="2"/>
<path d="M556.091,23.2652h -204.094" fill="none" stroke="black" stroke-width="2"/>
<path d="M351.996,23.2652v 157.488" fill="none" stroke="black" stroke-width="2"/>
<text x="372.812" y="34.6927" fill="black" font-size="11.8793" font-family="Helvetica">
 / ndf 
</text>
<text x="368.581" y="30.4619" fill="black" font-size="8.08617" font-family="Helvetica">
2
</text>
<text x="361.812" y="34.6927" fill="black" font-size="11.8793" font-family="Times">
&#0967;
</text>
<text x="484.505" y="35.5388" fill="black" font-size="11.8793" font-family="Helvetica">
 534.3 / 125
</text>
<text x="361.812" y="51.6159" fill="black" font-size="11.8793" font-family="Helvetica">
1-Centroid 
</text>
<text x="526.813" y="50.7698" fill="black" font-size="11.8793" font-family="Helvetica">
 0.5
</text>
<text x="520.044" y="50.7698" fill="black" font-size="11.8793" font-family="Times">
&#0177;
</text>
<text x="485.351" y="50.7698" fill="black" font-size="11.8793" font-family="Helvetica">
  1396 
</text>
<text x="361.812" y="67.693" fill="black" font-size="11.8793" font-family="Helvetica">
1-FWHM   
</text>
<text x="520.044" y="66.8469" fill="black" font-size="11.8793" font-family="Helvetica">
 0.05
</text>
<text x="513.275" y="66.8469" fill="black" font-size="11.8793" font-family="Times">
&#0177;
</text>
<text x="480.274" y="66.8469" fill="black" font-size="11.8793" font-family="Helvetica">
 18.61 
</text>
<text x="361.812" y="82.924" fill="black" font-size="11.8793" font-family="Helvetica">
1-Counts 
</text>
<text x="513.275" y="82.0778" fill="black" font-size="11.8793" font-family="Helvetica">
 125.7
</text>
<text x="506.505" y="82.0778" fill="black" font-size="11.8793" font-family="Times">
&#0177;
</text>
<text x="471.813" y="82.0778" fill="black" font-size="11.8793" font-family="Helvetica">
  2558 
</text>
<text x="361.812" y="99.0011" fill="black" font-size="11.8793" font-family="Helvetica">
2-Centroid 
</text>
<text x="526.813" y="98.1549" fill="black" font-size="11.8793" font-family="Helvetica">
 0.0
</text>
<text x="520.044" y="98.1549" fill="black" font-size="11.8793" font-family="Times">
&#0177;
</text>
<text x="485.351" y="98.1549" fill="black" font-size="11.8793" font-family="Helvetica">
  1423 
</text>
<text x="361.812" y="114.232" fill="black" font-size="11.8793" font-family="Helvetica">
2-Counts 
</text>
<text x="487.044" y="113.386" fill="black" font-size="11.8793" font-family="Helvetica">
 3.338e+02
</text>
<text x="480.274" y="113.386" fill="black" font-size="11.8793" font-family="Times">
&#0177;
</text>
<text x="419.351" y="113.386" fill="black" font-size="11.8793" font-family="Helvetica">
 7.472e+04 
</text>
<text x="361.812" y="130.309" fill="black" font-size="11.8793" font-family="Helvetica">
3-Centroid 
</text>
<text x="526.813" y="129.463" fill="black" font-size="11.8793" font-family="Helvetica">
 0.0
</text>
<text x="520.044" y="129.463" fill="black" font-size="11.8793" font-family="Times">
&#0177;
</text>
<text x="485.351" y="129.463" fill="black" font-size="11.8793" font-family="Helvetica">
  1448 
</text>
<text x="361.812" y="146.386" fill="black" font-size="11.8793" font-family="Helvetica">
3-Counts 
</text>
<text x="487.044" y="145.54" fill="black" font-size="11.8793" font-family="Helvetica">
 4.128e+02
</text>
<text x="480.274" y="145.54" fill="black" font-size="11.8793" font-family="Times">
&#0177;
</text>
<text x="419.351" y="145.54" fill="black" font-size="11.8793" font-family="Helvetica">
 1.288e+05 
</text>
<text x="361.812" y="159.925" fill="black" font-size="11.8793" font-family="Helvetica">
Intercept 
</text>
<text x="520.044" y="160.771" fill="black" font-size="11.8793" font-family="Helvetica">
 53.2
</text>
<text x="513.275" y="160.771" fill="black" font-size="11.8793" font-family="Times">
&#0177;
</text>
<text x="478.582" y="160.771" fill="black" font-size="11.8793" font-family="Helvetica">
  1934 
</text>
<text x="361.812" y="176.002" fill="black" font-size="11.8793" font-family="Helvetica">
Slope    
</text>
<text x="513.275" y="176.848" fill="black" font-size="11.8793" font-family="Helvetica">
 0.036
</text>
<text x="506.505" y="176.848" fill="black" font-size="11.8793" font-family="Times">
&#0177;
</text>
<text x="474.351" y="176.848" fill="black" font-size="11.8793" font-family="Helvetica">
1.248 
</text>
<text x="467.582" y="176.848" fill="black" font-size="11.8793" font-family="Times">
&#8722;
</text>
<text x="465.043" y="176.848" fill="black" font-size="11.8793" font-family="Helvetica">
 
</text>
<path d="M57.1929,322.134h 453.543" fill="none" stroke="black" stroke-width="2"/>
<text x="462.505" y="346.927" fill="black" font-size="11.9931" font-family="Helvetica">
Channels
</text>
<path d="M175.656,313.544v 8.59025" fill="none" stroke="black" stroke-width="2"/>
<path d="M209.502,317.839v 4.29512" fill="none" stroke="black" stroke-width="2"/>
<path d="M243.349,317.839v 4.29512" fill="none" stroke="black" stroke-width="2"/>
<path d="M277.195,317.839v 4.29512" fill="none" stroke="black" stroke-width="2"/>
<path d="M311.042,317.839v 4.29512" fill="none" stroke="black" stroke-width="2"/>
<path d="M344.888,313.544v 8.59025" fill="none" stroke="black" stroke-width="2"/>
<path d="M175.656,313.544v 8.59025" fill="none" stroke="black" stroke-width="2"/>
<path d="M141.809,317.839v 4.29512" fill="none" stroke="black" stroke-width="2"/>
<path d="M107.963,317.839v 4.29512" fill="none" stroke="black" stroke-width="2"/>
<path d="M74.1162,317.839v 4.29512" fill="none" stroke="black" stroke-width="2"/>
<path d="M344.888,313.544v 8.59025" fill="none" stroke="black" stroke-width="2"/>
<path d="M378.735,317.839v 4.29512" fill="none" stroke="black" stroke-width="2"/>
<path d="M412.581,317.839v 4.29512" fill="none" stroke="black" stroke-width="2"/>
<path d="M446.428,317.839v 4.29512" fill="none" stroke="black" stroke-width="2"/>
<path d="M480.274,317.839v 4.29512" fill="none" stroke="black" stroke-width="2"/>
<text x="162.117" y="333.388" fill="black" font-size="11.9931" font-family="Helvetica">
1400
</text>
<text x="331.35" y="333.388" fill="black" font-size="11.9931" font-family="Helvetica">
1450
</text>
<path d="M57.1929,322.134v -286.342" fill="none" stroke="black" stroke-width="2"/>
<path d="M70.7992,322.134h -13.6063" fill="none" stroke="black" stroke-width="2"/>
<path d="M63.9961,314.048h -6.80315" fill="none" stroke="black" stroke-width="2"/>
<path d="M63.9961,305.962h -6.80315" fill="none" stroke="black" stroke-width="2"/>
<path d="M63.9961,297.876h -6.80315" fill="none" stroke="black" stroke-width="2"/>
<path d="M63.9961,289.79h -6.80315" fill="none" stroke="black" stroke-width="2"/>
<path d="M70.7992,281.703h -13.6063" fill="none" stroke="black" stroke-width="2"/>
<path d="M63.9961,273.617h -6.80315" fill="none" stroke="black" stroke-width="2"/>
<path d="M63.9961,265.531h -6.80315" fill="none" stroke="black" stroke-width="2"/>
<path d="M63.9961,257.445h -6.80315" fill="none" stroke="black" stroke-width="2"/>
<path d="M63.9961,249.359h -6.80315" fill="none" stroke="black" stroke-width="2"/>
<path d="M70.7992,241.272h -13.6063" fill="none" stroke="black" stroke-width="2"/>
<path d="M63.9961,233.186h -6.80315" fill="none" stroke="black" stroke-width="2"/>
<path d="M63.9961,225.1h -6.80315" fill="none" stroke="black" stroke-width="2"/>
<path d="M63.9961,217.014h -6.80315" fill="none" stroke="black" stroke-width="2"/>
<path d="M63.9961,208.928h -6.80315" fill="none" stroke="black" stroke-width="2"/>
<path d="M70.7992,200.842h -13.6063" fill="none" stroke="black" stroke-width="2"/>
<path d="M63.9961,192.755h -6.80315" fill="none" stroke="black" stroke-width="2"/>
<path d="M63.9961,184.669h -6.80315" fill="none" stroke="black" stroke-width="2"/>
<path d="M63.9961,176.583h -6.80315" fill="none" stroke="black" stroke-width="2"/>
<path d="M63.9961,168.497h -6.80315" fill="none" stroke="black" stroke-width="2"/>
<path d="M70.7992,160.411h -13.6063" fill="none" stroke="black" stroke-width="2"/>
<path d="M63.9961,152.325h -6.80315" fill="none" stroke="black" stroke-width="2"/>
<path d="M63.9961,144.238h -6.80315" fill="none" stroke="black" stroke-width="2"/>
<path d="M63.9961,136.152h -6.80315" fill="none" stroke="black" stroke-width="2"/>
<path d="M63.9961,128.066h -6.80315" fill="none" stroke="black" stroke-width="2"/>
<path d="M70.7992,119.98h -13.6063" fill="none" stroke="black" stroke-width="2"/>
<path d="M63.9961,111.894h -6.80315" fill="none" stroke="black" stroke-width="2"/>
<path d="M63.9961,103.808h -6.80315" fill="none" stroke="black" stroke-width="2"/>
<path d="M63.9961,95.7213h -6.80315" fill="none" stroke="black" stroke-width="2"/>
<path d="M63.9961,87.6352h -6.80315" fill="none" stroke="black" stroke-width="2"/>
<path d="M70.7992,79.549h -13.6063" fill="none" stroke="black" stroke-width="2"/>
<path d="M63.9961,71.4628h -6.80315" fill="none" stroke="black" stroke-width="2"/>
<path d="M63.9961,63.3767h -6.80315" fill="none" stroke="black" stroke-width="2"/>
<path d="M63.9961,55.2905h -6.80315" fill="none" stroke="black" stroke-width="2"/>
<path d="M63.9961,47.2043h -6.80315" fill="none" stroke="black" stroke-width="2"/>
<path d="M70.7992,39.1181h -13.6063" fill="none" stroke="black" stroke-width="2"/>
<path d="M70.7992,39.1181h -13.6063" fill="none" stroke="black" stroke-width="2"/>
<text x="47.039" y="325.773" fill="black" font-size="11.9931" font-family="Helvetica">
0
</text>
<text x="27.5772" y="285.157" fill="black" font-size="11.9931" font-family="Helvetica">
1000
</text>
<text x="27.5772" y="245.387" fill="black" font-size="11.9931" font-family="Helvetica">
2000
</text>
<text x="27.5772" y="204.771" fill="black" font-size="11.9931" font-family="Helvetica">
3000
</text>
<text x="27.5772" y="164.156" fill="black" font-size="11.9931" font-family="Helvetica">
4000
</text>
<text x="27.5772" y="123.54" fill="black" font-size="11.9931" font-family="Helvetica">
5000
</text>
<text x="27.5772" y="83.7701" fill="black" font-size="11.9931" font-family="Helvetica">
6000
</text>
<text x="27.5772" y="43.1543" fill="black" font-size="11.9931" font-family="Helvetica">
7000
</text>
<rect x="351.996" y="23.2652" width="204.094" height="157.488" fill="white"/>
<path d="M351.996,180.753h 204.094" fill="none" stroke="black" stroke-width="2"/>
<path d="M556.091,180.753v -157.488" fill="none" stroke="black" stroke-width="2"/>
<path d="M556.091,23.2652h -204.094" fill="none" stroke="black" stroke-width="2"/>
<path d="M351.996,23.2652v 157.488" fill="none" stroke="black" stroke-width="2"/>
<text x="372.812" y="34.6927" fill="black" font-size="11.8793" font-family="Helvetica">
 / ndf 
</text>
<text x="368.581" y="30.4619" fill="black" font-size="8.08617" font-family="Helvetica">
2
</text>
<text x="361.812" y="34.6927" fill="black" font-size="11.8793" font-family="Times">
&#0967;
</text>
<text x="484.505" y="35.5388" fill="black" font-size="11.8793" font-family="Helvetica">
 534.3 / 125
</text>
<text x="361.812" y="51.6159" fill="black" font-size="11.8793" font-family="Helvetica">
1-Centroid 
</text>
<text x="526.813" y="50.7698" fill="black" font-size="11.8793" font-family="Helvetica">
 0.5
</text>
<text x="520.044" y="50.7698" fill="black" font-size="11.8793" font-family="Times">
&#0177;
</text>
<text x="485.351" y="50.7698" fill="black" font-size="11.8793" font-family="Helvetica">
  1396 
</text>
<text x="361.812" y="67.693" fill="black" font-size="11.8793" font-family="Helvetica">
1-FWHM   
</text>
<text x="520.044" y="66.8469" fill="black" font-size="11.8793" font-family="Helvetica">
 0.05
</text>
<text x="513.275" y="66.8469" fill="black" font-size="11.8793" font-family="Times">
&#0177;
</text>
<text x="480.274" y="66.8469" fill="black" font-size="11.8793" font-family="Helvetica">
 18.61 
</text>
<text x="361.812" y="82.924" fill="black" font-size="11.8793" font-family="Helvetica">
1-Counts 
</text>
<text x="513.275" y="82.0778" fill="black" font-size="11.8793" font-family="Helvetica">
 125.7
</text>
<text x="506.505" y="82.0778" fill="black" font-size="11.8793" font-family="Times">
&#0177;
</text>
<text x="471.813" y="82.0778" fill="black" font-size="11.8793" font-family="Helvetica">
  2558 
</text>
<text x="361.812" y="99.0011" fill="black" font-size="11.8793" font-family="Helvetica">
2-Centroid 
</text>
<text x="526.813" y="98.1549" fill="black" font-size="11.8793" font-family="Helvetica">
 0.0
</text>
<text x="520.044" y="98.1549" fill="black" font-size="11.8793" font-family="Times">
&#0177;
</text>
<text x="485.351" y="98.1549" fill="black" font-size="11.8793" font-family="Helvetica">
  1423 
</text>
<text x="361.812" y="114.232" fill="black" font-size="11.8793" font-family="Helvetica">
2-Counts 
</text>
<text x="487.044" y="113.386" fill="black" font-size="11.8793" font-family="Helvetica">
 3.338e+02
</text>
<text x="480.274" y="113.386" fill="black" font-size="11.8793" font-family="Times">
&#0177;
</text>
<text x="419.351" y="113.386" fill="black" font-size="11.8793" font-family="Helvetica">
 7.472e+04 
</text>
<text x="361.812" y="130.309" fill="black" font-size="11.8793" font-family="Helvetica">
3-Centroid 
</text>
<text x="526.813" y="129.463" fill="black" font-size="11.8793" font-family="Helvetica">
 0.0
</text>
<text x="520.044" y="129.463" fill="black" font-size="11.8793" font-family="Times">
&#0177;
</text>
<text x="485.351" y="129.463" fill="black" font-size="11.8793" font-family="Helvetica">
  1448 
</text>
<text x="361.812" y="146.386" fill="black" font-size="11.8793" font-family="Helvetica">
3-Counts 
</text>
<text x="487.044" y="145.54" fill="black" font-size="11.8793" font-family="Helvetica">
 4.128e+02
</text>
<text x="480.274" y="145.54" fill="black" font-size="11.8793" font-family="Times">
&#0177;
</text>
<text x="419.351" y="145.54" fill="black" font-size="11.8793" font-family="Helvetica">
 1.288e+05 
</text>
<text x="361.812" y="159.925" fill="black" font-size="11.8793" font-family="Helvetica">
Intercept 
</text>
<text x="520.044" y="160.771" fill="black" font-size="11.8793" font-family="Helvetica">
 53.2
</text>
<text x="513.275" y="160.771" fill="black" font-size="11.8793" font-family="Times">
&#0177;
</text>
<text x="478.582" y="160.771" fill="black" font-size="11.8793" font-family="Helvetica">
  1934 
</text>
<text x="361.812" y="176.002" fill="black" font-size="11.8793" font-family="Helvetica">
Slope    
</text>
<text x="513.275" y="176.848" fill="black" font-size="11.8793" font-family="Helvetica">
 0.036
</text>
<text x="506.505" y="176.848" fill="black" font-size="11.8793" font-family="Times">
&#0177;
</text>
<text x="474.351" y="176.848" fill="black" font-size="11.8793" font-family="Helvetica">
1.248 
</text>
<text x="467.582" y="176.848" fill="black" font-size="11.8793" font-family="Times">
&#8722;
</text>
<text x="465.043" y="176.848" fill="black" font-size="11.8793" font-family="Helvetica">
 
</text>
<path d="M59.4606,322.134h 13.6063l 4.53543, -0.0383198l 4.53543, -0.0258764l 4.53543, -0.0403153l 4.53543, -0.0608321l 4.53543, -0.0888588l 4.53543, -0.125585l 4.53543, -0.171617l 4.53543, -0.226577l 4.53543, -0.288705l 4.53543, -0.354573l 4.53543,
 -0.418998l 4.53543, -0.475285l 4.53543, -0.515821l 4.53543, -0.533034l 4.53543, -0.520574l 4.53543, -0.474534l 4.53543, -0.394453l 4.53543, -0.283858l 4.53543, -0.150162l 4.53543, -0.00387934l 4.53543, 0.142732l 4.53543, 0.277367l 4.53543, 0.389383l
 4.53543, 0.47118l 4.53543, 0.51902l 4.53543, 0.533164l 4.53543, 0.51736l 4.53543, 0.477859l 4.53543, 0.422203l 4.53543, 0.358026l 4.53543, 0.292091l 4.53543, 0.229667l 4.53543, 0.174276l 4.53543, 0.127757l 4.53543, 0.0905532l 4.53543, 0.0620982l
 4.53543, 0.0412236l 4.53543, 0.0265034l 4.53543, 0.0393944h 31.748" fill="none" stroke="#00ff00" stroke-width="2"/>
<path d="M281.697,322.134h 222.236" fill="none" stroke="#00ff00" stroke-width="2"/>
<path d="M503.933,322.134h 4.53543" fill="none" stroke="#00ff00" stroke-width="2"/>
<path d="M59.4606,322.134h 81.6378l 4.53543, -0.0453023l 4.53543, -0.042411l 4.53543, -0.0774142l 4.53543, -0.137134l 4.53543, -0.235704l 4.53543, -0.393002l 4.53543, -0.635509l 4.53543, -0.996367l 4.53543, -1.51405l 4.53543, -2.22898l 4.53543,
 -3.17766l 4.53543, -4.38415l 4.53543, -5.84957l 4.53543, -7.54099l 4.53543, -9.38198l 4.53543, -11.2478l 4.53543, -12.9682l 4.53543, -14.3393l 4.53543, -15.1461l 4.53543, -15.1924l 4.53543, -14.3348l 4.53543, -12.5131l 4.53543, -9.77237l 4.53543,
 -6.26834l 4.53543, -2.25513l 4.53543, 1.94486l 4.53543, 5.98366l 4.53543, 9.53538l 4.53543, 12.3396l 4.53543, 14.2325l 4.53543, 15.161" fill="none" stroke="#00ff00" stroke-width="2"/>
<path d="M281.697,230.653l 4.53543, 15.1779l 4.53543, 14.4214l 4.53543, 13.0849l 4.53543, 11.3832l 4.53543, 9.52178l 4.53543, 7.67404l 4.53543, 5.96828l 4.53543, 4.48442l 4.53543, 3.25835l 4.53543, 2.29111l 4.53543, 1.55995l 4.53543, 1.02898l
 4.53543, 0.65783l 4.53543, 0.407739l 4.53543, 0.245097l 4.53543, 0.14292l 4.53543, 0.0808617l 4.53543, 0.0443983l 4.53543, 0.0476306h 136.063" fill="none" stroke="#00ff00" stroke-width="2"/>
<path d="M503.933,322.134h 4.53543" fill="none" stroke="#00ff00" stroke-width="2"/>
<path d="M59.4606,322.134h 158.74l 4.53543, -0.0407586l 4.53543, -0.0397927l 4.53543, -0.0743088l 4.53543, -0.134754l 4.53543, -0.237269l 4.53543, -0.40556l 4.53543, -0.672811l 4.53543, -1.08305l 4.53543, -1.69122l 4.53543, -2.56096l 4.53543,
 -3.75908l 4.53543, -5.34603l 4.53543, -7.36212l 4.53543, -9.81047" fill="none" stroke="#00ff00" stroke-width="2"/>
<path d="M281.697,288.916l 4.53543, -12.6389l 4.53543, -15.7245l 4.53543, -18.8652l 4.53543, -21.7836l 4.53543, -24.1457l 4.53543, -25.5959l 4.53543, -25.8051l 4.53543, -24.5256l 4.53543, -21.6423l 4.53543, -17.2091l 4.53543, -11.4623l 4.53543,
 -4.80343l 4.53543, 2.24602l 4.53543, 9.11222l 4.53543, 15.246l 4.53543, 20.1953l 4.53543, 23.6602l 4.53543, 25.5201l 4.53543, 25.8315l 4.53543, 24.7991l 4.53543, 22.7289l 4.53543, 19.9727l 4.53543, 16.8774l 4.53543, 13.7441l 4.53543, 10.8035l
 4.53543, 8.20697l 4.53543, 6.03094l 4.53543, 4.29047l 4.53543, 2.95672l 4.53543, 1.9748l 4.53543, 1.27887l 4.53543, 0.803292l 4.53543, 0.489549l 4.53543, 0.289539l 4.53543, 0.166227l 4.53543, 0.0926537l 4.53543, 0.0501494l 4.53543, 0.0524304h
 49.8898" fill="none" stroke="#00ff00" stroke-width="2"/>
<path d="M503.933,322.134h 4.53543" fill="none" stroke="#00ff00" stroke-width="2"/>
<text x="197.656" y="16.9233" fill="black" font-size="17.4221" font-family="Helvetica">
vsBiasVoltage/500.Spe
</text></svg>
