<?xml version="1.0" standalone="no"?>
<svg width="567.429" height="319.897" viewBox="0 0 567.429 319.897" xmlns="http://www.w3.org/2000/svg">
<title>
/home/ADF/hyw543/Coincidence/Wk4/TAC-Spectra/c1.svg
</title>
<desc>
Creator: ROOT Version 6.06/08
CreationDate: Mon Jan  7 22:23:15 2019</desc>
<defs>
</defs>
<rect x="0.5" y="0" width="566.929" height="319.397" fill="white"/>
<rect x="57.1929" y="31.9397" width="453.543" height="255.517" fill="white"/>
<rect x="57.1929" y="31.9397" width="453.543" height="255.517" fill="none" stroke="black"/>
<rect x="57.1929" y="31.9397" width="453.543" height="255.517" fill="white"/>
<rect x="57.1929" y="31.9397" width="453.543" height="255.517" fill="none" stroke="black"/>
<path d="M57.1929,287.457h 95.9418v -1.34447h 0.670922v 1.34447h 22.8113v -1.34447h 0.670922v 1.34447h 40.9262v -1.34447h 0.670922v 1.34447h 13.4184v -1.34447h 0.670922v 1.34447h 2.01277v -1.34447h 0.670922v -1.34447h 0.670922v 2.68895h 0.670922v
 -1.34447h 0.670922v 1.34447h 4.69645v -2.68895h 0.670922v 2.68895h 1.34184v -2.68895h 0.670922v 1.34447h 0.670922v 1.34447h 1.34184v -2.68895h 1.34184v -4.03342h 1.34184v 1.34447h 0.670922v 5.3779h 0.670922v -4.03342h 0.670922v 1.34447h 0.670922v
 -10.7558h 0.670922v 2.68895h 0.670922v -1.34447h 1.34184v -4.03342h 0.670922v 1.34447h 0.670922v 4.03342h 0.670922v -8.06685h 0.670922v -8.06685h 0.670922v 5.3779h 0.670922v -10.7558h 0.670922v -2.68895h 0.670922v 6.72237h 0.670922v -9.41132h
 0.670922v -8.06685h 0.670922v 6.72237h 0.670922v 4.03342h 0.670922v -2.68895h 0.670922v -16.1337h 0.670922v -2.68895h 0.670922v -12.1003h 0.670922v -1.34447h 0.670922v -6.72237h 0.670922v 4.03342h 0.670922v -6.72237h 0.670922v -13.4447h 0.670922v
 9.41132h 0.670922v -12.1003h 0.670922v -4.03342h 0.670922v -26.8895h 0.670922v 2.68895h 0.670922v -17.4782h 0.670922v 24.2005h 0.670922v 5.3779h 0.670922v -40.3342h 0.670922v 25.545h 0.670922v -24.2005h 0.670922v 18.8226h 0.670922v -30.9229h
 0.670922v 2.68895h 0.670922v -26.8895h 1.34184v 29.5784h 0.670922v -30.9229h 0.670922v -13.4447h 0.670922v 8.06685h 0.670922v 1.34447h 0.670922v 13.4447h 0.670922v -20.1671h 0.670922v -12.1003h 0.670922v 4.03342h 0.670922v -36.3008h 0.670922v
 24.2005h 0.670922v -4.03342h 0.670922v 6.72237h 0.670922v 28.234h 0.670922v 5.3779h 0.670922v -36.3008h 0.670922v 26.8895h 0.670922v -21.5116h 0.670922v 28.234h 0.670922v -4.03342h 0.670922v -2.68895h 0.670922v -4.03342h 0.670922v 37.6453h 0.670922v
 -41.6787h 0.670922v 17.4782h 0.670922v 9.41132h 0.670922v 22.8561h 0.670922v -5.3779h 0.670922v -8.06685h 0.670922v 33.6119h 0.670922v -37.6453h 0.670922v 38.9898h 0.670922v 2.68895h 0.670922v -13.4447h 0.670922v 20.1671h 0.670922v -10.7558h
 0.670922v 25.545h 0.670922v 10.7558h 0.670922v 1.34447h 0.670922v -18.8226h 0.670922v 26.8895h 0.670922v -4.03342h 0.670922v -5.3779h 0.670922v 14.7892h 0.670922v 17.4782h 0.670922v -4.03342h 0.670922v -2.68895h 0.670922v 17.4782h 0.670922v 4.03342h
 0.670922v -8.06685h 0.670922v -1.34447h 0.670922v 16.1337h 0.670922v -2.68895h 0.670922v -2.68895h 0.670922v 20.1671h 0.670922v -1.34447h 0.670922v -2.68895h 0.670922v 14.7892h 0.670922v -10.7558h 0.670922v 6.72237h 0.670922v 4.03342h 1.34184v
 1.34447h 0.670922v -2.68895h 0.670922v 6.72237h 0.670922v -1.34447h 1.34184v -1.34447h 0.670922v 4.03342h 0.670922v 2.68895h 0.670922v -2.68895h 0.670922v -2.68895h 0.670922v 1.34447h 0.670922v 5.3779h 0.670922v -1.34447h 0.670922v 1.34447h 1.34184v
 4.03342h 0.670922v -6.72237h 0.670922v 5.3779h 0.670922v 1.34447h 0.670922v -4.03342h 0.670922v 2.68895h 2.01277v -1.34447h 0.670922v 1.34447h 0.670922v 1.34447h 4.02553v -1.34447h 0.670922v 1.34447h 4.69645v -1.34447h 0.670922v 1.34447h 21.4695v
 -1.34447h 0.670922v 1.34447h 14.0894v -1.34447h 0.670922v 1.34447h 34.8879v -1.34447h 0.670922v 1.34447h 77.827v -1.34447h 0.670922v 1.34447h 10.7348" fill="none" stroke="#ff0000" stroke-width="2"/>
<path d="M59.4606,286.947l 4.53543, -0.00931713l 4.53543, -0.00931713l 4.53543, -0.00931713l 4.53543, -0.00931713l 4.53543, -0.00931713l 4.53543, -0.00931713l 4.53543, -0.00931713l 4.53543, -0.00931713l 4.53543, -0.00931713l 4.53543, -0.00931713l
 4.53543, -0.00931713l 4.53543, -0.00931713l 4.53543, -0.00931713l 4.53543, -0.00931713l 4.53543, -0.00931713l 4.53543, -0.00931713l 4.53543, -0.00931713l 4.53543, -0.00931713l 4.53543, -0.00931713l 4.53543, -0.00931713l 4.53543, -0.00931713l
 4.53543, -0.00931713l 4.53543, -0.00931713l 4.53543, -0.00931713l 4.53543, -0.00931713l 4.53543, -0.00931713l 4.53543, -0.00931713l 4.53543, -0.00931713l 4.53543, -0.00931714l 4.53543, -0.00931722l 4.53543, -0.00931783l 4.53543, -0.00932187l
 4.53543, -0.00934599l 4.53543, -0.00947542l 4.53543, -0.0101l 4.53543, -0.0128074l 4.53543, -0.0233363l 4.53543, -0.060019l 4.53543, -0.174292l 4.53543, -0.491787l 4.53543, -1.27587l 4.53543, -2.98885l 4.53543, -6.27619l 4.53543, -11.7569l 4.53543,
 -19.5446l 4.53543, -28.6222l 4.53543, -36.486l 4.53543, -39.6062l 4.53543, -34.8965" fill="none" stroke="#0000ff" stroke-width="2"/>
<path d="M281.697,104.405l 4.53543, -21.5978l 4.53543, -2.34312l 4.53543, 17.5817l 4.53543, 32.5802l 4.53543, 39.2833l 4.53543, 37.7202l 4.53543, 30.6076l 4.53543, 21.534l 4.53543, 13.3135l 4.53543, 7.28983l 4.53543, 3.55152l 4.53543, 1.54285l
 4.53543, 0.596713l 4.53543, 0.20301l 4.53543, 0.0575266l 4.53543, 0.00961152l 4.53543, -0.00449163l 4.53543, -0.00820893l 4.53543, -0.00908773l 4.53543, -0.00927431l 4.53543, -0.00930992l 4.53543, -0.00931603l 4.53543, -0.00931698l 4.53543,
 -0.00931711l 4.53543, -0.00931712l 4.53543, -0.00931713l 4.53543, -0.00931713l 4.53543, -0.00931713l 4.53543, -0.00931713l 4.53543, -0.00931713l 4.53543, -0.00931713l 4.53543, -0.00931713l 4.53543, -0.00931713l 4.53543, -0.00931713l 4.53543,
 -0.00931713l 4.53543, -0.00931713l 4.53543, -0.00931713l 4.53543, -0.00931713l 4.53543, -0.00931713l 4.53543, -0.00931713l 4.53543, -0.00931713l 4.53543, -0.00931713l 4.53543, -0.00931713l 4.53543, -0.00931713l 4.53543, -0.00931713l 4.53543,
 -0.00931713l 4.53543, -0.00931713l 4.53543, -0.00931713l 4.53543, -0.00931713" fill="none" stroke="#0000ff" stroke-width="2"/>
<path d="M503.933,286.034l 4.53543, -0.00931713" fill="none" stroke="#0000ff" stroke-width="2"/>
<rect x="351.996" y="20.7608" width="204.094" height="89.4311" fill="white"/>
<path d="M351.996,110.192h 204.094" fill="none" stroke="black" stroke-width="2"/>
<path d="M556.091,110.192v -89.4311" fill="none" stroke="black" stroke-width="2"/>
<path d="M556.091,20.7608h -204.094" fill="none" stroke="black" stroke-width="2"/>
<path d="M351.996,20.7608v 89.4311" fill="none" stroke="black" stroke-width="2"/>
<text x="373.795" y="31.9397" fill="black" font-size="12.9527" font-family="Helvetica">
 / ndf 
</text>
<text x="368.804" y="27.9472" fill="black" font-size="8.80177" font-family="Helvetica">
2
</text>
<text x="361.818" y="31.9397" fill="black" font-size="12.9527" font-family="Times">
&#0967;
</text>
<text x="478.597" y="32.9378" fill="black" font-size="12.9527" font-family="Helvetica">
 110.2 / 145
</text>
<text x="361.818" y="47.9095" fill="black" font-size="12.9527" font-family="Helvetica">
Centroid 
</text>
<text x="524.51" y="47.9095" fill="black" font-size="12.9527" font-family="Helvetica">
 0.2
</text>
<text x="517.523" y="47.9095" fill="black" font-size="12.9527" font-family="Times">
&#0177;
</text>
<text x="479.595" y="47.9095" fill="black" font-size="12.9527" font-family="Helvetica">
 881.5 
</text>
<text x="361.818" y="63.8793" fill="black" font-size="12.9527" font-family="Helvetica">
FWHM     
</text>
<text x="517.523" y="62.8812" fill="black" font-size="12.9527" font-family="Helvetica">
 0.48
</text>
<text x="510.537" y="62.8812" fill="black" font-size="12.9527" font-family="Times">
&#0177;
</text>
<text x="472.608" y="62.8812" fill="black" font-size="12.9527" font-family="Helvetica">
 50.07 
</text>
<text x="361.818" y="77.8529" fill="black" font-size="12.9527" font-family="Helvetica">
Counts   
</text>
<text x="517.523" y="77.8529" fill="black" font-size="12.9527" font-family="Helvetica">
 96.5
</text>
<text x="510.537" y="77.8529" fill="black" font-size="12.9527" font-family="Times">
&#0177;
</text>
<text x="472.608" y="77.8529" fill="black" font-size="12.9527" font-family="Helvetica">
  8246 
</text>
<text x="361.818" y="91.8266" fill="black" font-size="12.9527" font-family="Helvetica">
Intercept 
</text>
<text x="502.552" y="92.8247" fill="black" font-size="12.9527" font-family="Helvetica">
 1.5864
</text>
<text x="495.565" y="92.8247" fill="black" font-size="12.9527" font-family="Times">
&#0177;
</text>
<text x="453.644" y="92.8247" fill="black" font-size="12.9527" font-family="Helvetica">
0.1739 
</text>
<text x="446.657" y="92.8247" fill="black" font-size="12.9527" font-family="Times">
&#8722;
</text>
<text x="443.663" y="92.8247" fill="black" font-size="12.9527" font-family="Helvetica">
 
</text>
<text x="361.818" y="105.8" fill="black" font-size="12.9527" font-family="Helvetica">
Slope    
</text>
<text x="488.578" y="106.798" fill="black" font-size="12.9527" font-family="Helvetica">
 0.001738
</text>
<text x="481.591" y="106.798" fill="black" font-size="12.9527" font-family="Times">
&#0177;
</text>
<text x="421.704" y="106.798" fill="black" font-size="12.9527" font-family="Helvetica">
 0.001025 
</text>
<path d="M57.1929,287.457h 453.543" fill="none" stroke="black" stroke-width="2"/>
<text x="469.614" y="308.417" fill="black" font-size="10.7559" font-family="Helvetica">
Channels
</text>
<path d="M100.132,279.792v 7.66552" fill="none" stroke="black" stroke-width="2"/>
<path d="M133.678,283.624v 3.83276" fill="none" stroke="black" stroke-width="2"/>
<path d="M167.224,283.624v 3.83276" fill="none" stroke="black" stroke-width="2"/>
<path d="M200.77,283.624v 3.83276" fill="none" stroke="black" stroke-width="2"/>
<path d="M234.316,279.792v 7.66552" fill="none" stroke="black" stroke-width="2"/>
<path d="M267.862,283.624v 3.83276" fill="none" stroke="black" stroke-width="2"/>
<path d="M301.409,283.624v 3.83276" fill="none" stroke="black" stroke-width="2"/>
<path d="M334.955,283.624v 3.83276" fill="none" stroke="black" stroke-width="2"/>
<path d="M368.501,279.792v 7.66552" fill="none" stroke="black" stroke-width="2"/>
<path d="M402.047,283.624v 3.83276" fill="none" stroke="black" stroke-width="2"/>
<path d="M435.593,283.624v 3.83276" fill="none" stroke="black" stroke-width="2"/>
<path d="M469.139,283.624v 3.83276" fill="none" stroke="black" stroke-width="2"/>
<path d="M502.685,279.792v 7.66552" fill="none" stroke="black" stroke-width="2"/>
<path d="M100.132,279.792v 7.66552" fill="none" stroke="black" stroke-width="2"/>
<path d="M66.5858,283.624v 3.83276" fill="none" stroke="black" stroke-width="2"/>
<path d="M502.685,279.792v 7.66552" fill="none" stroke="black" stroke-width="2"/>
<text x="90.3303" y="297.438" fill="black" font-size="10.7559" font-family="Helvetica">
600
</text>
<text x="225.076" y="297.438" fill="black" font-size="10.7559" font-family="Helvetica">
800
</text>
<text x="356.827" y="297.438" fill="black" font-size="10.7559" font-family="Helvetica">
1000
</text>
<text x="491.572" y="297.438" fill="black" font-size="10.7559" font-family="Helvetica">
1200
</text>
<path d="M57.1929,287.457v -255.517" fill="none" stroke="black" stroke-width="2"/>
<path d="M70.7992,287.457h -13.6063" fill="none" stroke="black" stroke-width="2"/>
<path d="M63.9961,280.735h -6.80315" fill="none" stroke="black" stroke-width="2"/>
<path d="M63.9961,274.012h -6.80315" fill="none" stroke="black" stroke-width="2"/>
<path d="M63.9961,267.29h -6.80315" fill="none" stroke="black" stroke-width="2"/>
<path d="M70.7992,260.568h -13.6063" fill="none" stroke="black" stroke-width="2"/>
<path d="M63.9961,253.845h -6.80315" fill="none" stroke="black" stroke-width="2"/>
<path d="M63.9961,247.123h -6.80315" fill="none" stroke="black" stroke-width="2"/>
<path d="M63.9961,240.4h -6.80315" fill="none" stroke="black" stroke-width="2"/>
<path d="M70.7992,233.678h -13.6063" fill="none" stroke="black" stroke-width="2"/>
<path d="M63.9961,226.956h -6.80315" fill="none" stroke="black" stroke-width="2"/>
<path d="M63.9961,220.233h -6.80315" fill="none" stroke="black" stroke-width="2"/>
<path d="M63.9961,213.511h -6.80315" fill="none" stroke="black" stroke-width="2"/>
<path d="M70.7992,206.789h -13.6063" fill="none" stroke="black" stroke-width="2"/>
<path d="M63.9961,200.066h -6.80315" fill="none" stroke="black" stroke-width="2"/>
<path d="M63.9961,193.344h -6.80315" fill="none" stroke="black" stroke-width="2"/>
<path d="M63.9961,186.621h -6.80315" fill="none" stroke="black" stroke-width="2"/>
<path d="M70.7992,179.899h -13.6063" fill="none" stroke="black" stroke-width="2"/>
<path d="M63.9961,173.177h -6.80315" fill="none" stroke="black" stroke-width="2"/>
<path d="M63.9961,166.454h -6.80315" fill="none" stroke="black" stroke-width="2"/>
<path d="M63.9961,159.732h -6.80315" fill="none" stroke="black" stroke-width="2"/>
<path d="M70.7992,153.01h -13.6063" fill="none" stroke="black" stroke-width="2"/>
<path d="M63.9961,146.287h -6.80315" fill="none" stroke="black" stroke-width="2"/>
<path d="M63.9961,139.565h -6.80315" fill="none" stroke="black" stroke-width="2"/>
<path d="M63.9961,132.842h -6.80315" fill="none" stroke="black" stroke-width="2"/>
<path d="M70.7992,126.12h -13.6063" fill="none" stroke="black" stroke-width="2"/>
<path d="M63.9961,119.398h -6.80315" fill="none" stroke="black" stroke-width="2"/>
<path d="M63.9961,112.675h -6.80315" fill="none" stroke="black" stroke-width="2"/>
<path d="M63.9961,105.953h -6.80315" fill="none" stroke="black" stroke-width="2"/>
<path d="M70.7992,99.2306h -13.6063" fill="none" stroke="black" stroke-width="2"/>
<path d="M63.9961,92.5082h -6.80315" fill="none" stroke="black" stroke-width="2"/>
<path d="M63.9961,85.7859h -6.80315" fill="none" stroke="black" stroke-width="2"/>
<path d="M63.9961,79.0635h -6.80315" fill="none" stroke="black" stroke-width="2"/>
<path d="M70.7992,72.3411h -13.6063" fill="none" stroke="black" stroke-width="2"/>
<path d="M63.9961,65.6188h -6.80315" fill="none" stroke="black" stroke-width="2"/>
<path d="M63.9961,58.8964h -6.80315" fill="none" stroke="black" stroke-width="2"/>
<path d="M63.9961,52.174h -6.80315" fill="none" stroke="black" stroke-width="2"/>
<path d="M70.7992,45.4516h -13.6063" fill="none" stroke="black" stroke-width="2"/>
<path d="M70.7992,45.4516h -13.6063" fill="none" stroke="black" stroke-width="2"/>
<path d="M63.9961,38.7293h -6.80315" fill="none" stroke="black" stroke-width="2"/>
<path d="M63.9961,32.0069h -6.80315" fill="none" stroke="black" stroke-width="2"/>
<text x="47.4114" y="291.449" fill="black" font-size="10.7559" font-family="Helvetica">
0
</text>
<text x="42.4208" y="264.5" fill="black" font-size="10.7559" font-family="Helvetica">
20
</text>
<text x="42.4208" y="237.551" fill="black" font-size="10.7559" font-family="Helvetica">
40
</text>
<text x="42.4208" y="210.602" fill="black" font-size="10.7559" font-family="Helvetica">
60
</text>
<text x="42.4208" y="183.653" fill="black" font-size="10.7559" font-family="Helvetica">
80
</text>
<text x="36.4321" y="156.704" fill="black" font-size="10.7559" font-family="Helvetica">
100
</text>
<text x="36.4321" y="129.755" fill="black" font-size="10.7559" font-family="Helvetica">
120
</text>
<text x="36.4321" y="102.806" fill="black" font-size="10.7559" font-family="Helvetica">
140
</text>
<text x="36.4321" y="75.8567" fill="black" font-size="10.7559" font-family="Helvetica">
160
</text>
<text x="36.4321" y="48.9076" fill="black" font-size="10.7559" font-family="Helvetica">
180
</text>
<rect x="351.996" y="20.7608" width="204.094" height="89.4311" fill="white"/>
<path d="M351.996,110.192h 204.094" fill="none" stroke="black" stroke-width="2"/>
<path d="M556.091,110.192v -89.4311" fill="none" stroke="black" stroke-width="2"/>
<path d="M556.091,20.7608h -204.094" fill="none" stroke="black" stroke-width="2"/>
<path d="M351.996,20.7608v 89.4311" fill="none" stroke="black" stroke-width="2"/>
<text x="373.795" y="31.9397" fill="black" font-size="12.9527" font-family="Helvetica">
 / ndf 
</text>
<text x="368.804" y="27.9472" fill="black" font-size="8.80177" font-family="Helvetica">
2
</text>
<text x="361.818" y="31.9397" fill="black" font-size="12.9527" font-family="Times">
&#0967;
</text>
<text x="478.597" y="32.9378" fill="black" font-size="12.9527" font-family="Helvetica">
 110.2 / 145
</text>
<text x="361.818" y="47.9095" fill="black" font-size="12.9527" font-family="Helvetica">
Centroid 
</text>
<text x="524.51" y="47.9095" fill="black" font-size="12.9527" font-family="Helvetica">
 0.2
</text>
<text x="517.523" y="47.9095" fill="black" font-size="12.9527" font-family="Times">
&#0177;
</text>
<text x="479.595" y="47.9095" fill="black" font-size="12.9527" font-family="Helvetica">
 881.5 
</text>
<text x="361.818" y="63.8793" fill="black" font-size="12.9527" font-family="Helvetica">
FWHM     
</text>
<text x="517.523" y="62.8812" fill="black" font-size="12.9527" font-family="Helvetica">
 0.48
</text>
<text x="510.537" y="62.8812" fill="black" font-size="12.9527" font-family="Times">
&#0177;
</text>
<text x="472.608" y="62.8812" fill="black" font-size="12.9527" font-family="Helvetica">
 50.07 
</text>
<text x="361.818" y="77.8529" fill="black" font-size="12.9527" font-family="Helvetica">
Counts   
</text>
<text x="517.523" y="77.8529" fill="black" font-size="12.9527" font-family="Helvetica">
 96.5
</text>
<text x="510.537" y="77.8529" fill="black" font-size="12.9527" font-family="Times">
&#0177;
</text>
<text x="472.608" y="77.8529" fill="black" font-size="12.9527" font-family="Helvetica">
  8246 
</text>
<text x="361.818" y="91.8266" fill="black" font-size="12.9527" font-family="Helvetica">
Intercept 
</text>
<text x="502.552" y="92.8247" fill="black" font-size="12.9527" font-family="Helvetica">
 1.5864
</text>
<text x="495.565" y="92.8247" fill="black" font-size="12.9527" font-family="Times">
&#0177;
</text>
<text x="453.644" y="92.8247" fill="black" font-size="12.9527" font-family="Helvetica">
0.1739 
</text>
<text x="446.657" y="92.8247" fill="black" font-size="12.9527" font-family="Times">
&#8722;
</text>
<text x="443.663" y="92.8247" fill="black" font-size="12.9527" font-family="Helvetica">
 
</text>
<text x="361.818" y="105.8" fill="black" font-size="12.9527" font-family="Helvetica">
Slope    
</text>
<text x="488.578" y="106.798" fill="black" font-size="12.9527" font-family="Helvetica">
 0.001738
</text>
<text x="481.591" y="106.798" fill="black" font-size="12.9527" font-family="Times">
&#0177;
</text>
<text x="421.704" y="106.798" fill="black" font-size="12.9527" font-family="Helvetica">
 0.001025 
</text>
<path d="M59.4606,287.457h 167.811l 4.53543, -0.0691869l 4.53543, -0.164975l 4.53543, -0.48247l 4.53543, -1.26656l 4.53543, -2.97954l 4.53543, -6.26687l 4.53543, -11.7476l 4.53543, -19.5353l 4.53543, -28.6129l 4.53543, -36.4767l 4.53543, -39.5969l
 4.53543, -34.8871" fill="none" stroke="#00ff00" stroke-width="2"/>
<path d="M281.697,105.371l 4.53543, -21.5885l 4.53543, -2.3338l 4.53543, 17.591l 4.53543, 32.5895l 4.53543, 39.2926l 4.53543, 37.7296l 4.53543, 30.6169l 4.53543, 21.5434l 4.53543, 13.3228l 4.53543, 7.29915l 4.53543, 3.56083l 4.53543, 1.55216l
 4.53543, 0.60603l 4.53543, 0.212327l 4.53543, 0.0919868h 154.205" fill="none" stroke="#00ff00" stroke-width="2"/>
<path d="M503.933,287.457h 4.53543" fill="none" stroke="#00ff00" stroke-width="2"/>
<text x="95.3209" y="14.9717" fill="black" font-size="13.2273" font-family="Helvetica">
Na-22-COIN-(FWHM-investigation)-SameSettingAsLastWeek.Spe
</text></svg>
