<?xml version="1.0" standalone="no"?>
<svg width="567.429" height="335.986" viewBox="0 0 567.429 335.986" xmlns="http://www.w3.org/2000/svg">
<title>
/home/ADF/hyw543/Attenuation/Calib/c1.svg
</title>
<desc>
Creator: ROOT Version 6.06/08
CreationDate: Mon Jan  7 23:10:02 2019</desc>
<defs>
</defs>
<rect x="0.5" y="0" width="566.929" height="335.486" fill="white"/>
<rect x="57.1929" y="33.5486" width="453.543" height="268.389" fill="white"/>
<rect x="57.1929" y="33.5486" width="453.543" height="268.389" fill="none" stroke="black"/>
<rect x="57.1929" y="33.5486" width="453.543" height="268.389" fill="white"/>
<rect x="57.1929" y="33.5486" width="453.543" height="268.389" fill="none" stroke="black"/>
<path d="M57.1929,244.336h 0.429492v -25.2008h 0.429492v 25.2008h 0.429492v 3.60012h 0.429492v -7.20024h 0.429492v 32.4011h 0.429492v 3.60012h 0.429492v -21.6007h 0.858984v -7.20024h 0.429492v 10.8004h 0.429492v 7.20024h 0.429492v -7.20024h 0.429492v
 -18.0006h 0.429492v -3.60012h 0.858984v 18.0006h 0.429492v -21.6007h 0.429492v 43.2014h 0.429492v -14.4005h 0.429492v -25.2008h 0.429492v 18.0006h 0.429492v -18.0006h 0.429492v -3.60012h 0.429492v 14.4005h 0.429492v -14.4005h 0.429492v -18.0006h
 0.429492v 32.4011h 0.429492v 7.20024h 0.429492v -3.60012h 0.429492v 14.4005h 0.429492v -10.8004h 0.429492v 3.60012h 0.429492v -10.8004h 0.858984v 10.8004h 0.429492v 18.0006h 0.858984v -21.6007h 0.429492v -10.8004h 0.429492v -3.60012h 0.429492v
 21.6007h 0.429492v 10.8004h 0.429492v -18.0006h 0.429492v 14.4005h 0.429492v -43.2014h 0.429492v 43.2014h 0.429492v -39.6013h 0.429492v 36.0012h 0.858984v -7.20024h 0.429492v 18.0006h 0.429492v -21.6007h 0.429492v 18.0006h 0.429492v -32.4011h
 0.858984v 18.0006h 0.429492v -10.8004h 0.429492v -10.8004h 0.429492v 25.2008h 0.429492v -21.6007h 0.429492v 7.20024h 0.858984v -7.20024h 0.429492v -7.20024h 0.429492v 7.20024h 0.858984v -7.20024h 0.429492v 32.4011h 0.429492v -7.20024h 0.429492v
 -14.4005h 0.429492v 18.0006h 0.429492v 7.20024h 0.429492v -7.20024h 0.858984v -10.8004h 0.429492v -10.8004h 0.429492v 10.8004h 0.429492v 10.8004h 0.429492v -14.4005h 0.429492v 3.60012h 0.858984v 3.60012h 0.429492v 3.60012h 0.429492v -21.6007h
 0.429492v 25.2008h 0.429492v -25.2008h 0.429492v 21.6007h 0.429492v 7.20024h 0.429492v -28.801h 0.429492v 14.4005h 0.858984v -14.4005h 0.429492v -18.0006h 0.429492v 25.2008h 0.429492v -10.8004h 0.429492v 32.4011h 0.429492v -10.8004h 0.429492v
 10.8004h 0.429492v -32.4011h 0.429492v 7.20024h 0.429492v 25.2008h 0.429492v -25.2008h 0.429492v -3.60012h 0.429492v 18.0006h 0.429492v -14.4005h 0.429492v 3.60012h 0.429492v 7.20024h 0.429492v -21.6007h 0.429492v 28.801h 0.429492v -14.4005h
 0.429492v 21.6007h 0.429492v 7.20024h 0.429492v -36.0012h 0.429492v -21.6007h 0.429492v 32.4011h 0.429492v 3.60012h 0.858984v -14.4005h 0.429492v -21.6007h 0.429492v 43.2014h 0.429492v -36.0012h 0.429492v -3.60012h 0.429492v 7.20024h 0.429492v
 36.0012h 0.429492v -7.20024h 0.429492v 3.60012h 0.429492v -46.8016h 0.429492v 18.0006h 1.28848v -18.0006h 0.429492v 25.2008h 0.429492v 10.8004h 0.429492v 3.60012h 0.429492v -7.20024h 0.429492v 10.8004h 0.429492v -7.20024h 0.429492v -18.0006h
 0.429492v 14.4005h 0.429492v -43.2014h 0.429492v 25.2008h 0.429492v 3.60012h 0.429492v -21.6007h 0.429492v 43.2014h 0.429492v -39.6013h 0.429492v 21.6007h 0.429492v 10.8004h 0.429492v -10.8004h 0.429492v 10.8004h 0.429492v 3.60012h 0.858984v
 -46.8016h 0.429492v 14.4005h 0.429492v 18.0006h 0.429492v 3.60012h 0.429492v 10.8004h 0.429492v -28.801h 0.429492v -3.60012h 0.429492v 10.8004h 0.429492v -3.60012h 0.429492v 7.20024h 0.429492v -18.0006h 0.429492v 18.0006h 0.429492v -43.2014h
 0.429492v 32.4011h 0.429492v -25.2008h 0.429492v 36.0012h 0.429492v -14.4005h 0.429492v -32.4011h 0.429492v 18.0006h 0.429492v -14.4005h 0.429492v 25.2008h 0.429492v 7.20024h 0.429492v 3.60012h 0.858984v 10.8004h 0.429492v -39.6013h 0.429492v
 18.0006h 0.429492v -39.6013h 0.429492v 36.0012h 0.429492v -28.801h 0.429492v -10.8004h 0.429492v 21.6007h 0.429492v 7.20024h 0.429492v -32.4011h 0.429492v 18.0006h 0.429492v 28.801h 0.429492v -21.6007h 0.429492v 28.801h 0.429492v -36.0012h 0.429492v
 14.4005h 0.429492v 10.8004h 0.429492v -43.2014h 0.429492v 28.801h 0.429492v -36.0012h 0.429492v 72.0024h 0.429492v -54.0018h 0.429492v -7.20024h 0.858984v -3.60012h 0.429492v -7.20024h 0.429492v 21.6007h 0.429492v -25.2008h 0.429492v 46.8016h
 0.429492v -32.4011h 0.429492v 21.6007h 0.429492v -39.6013h 0.429492v 32.4011h 0.429492v -18.0006h 0.429492v 21.6007h 0.429492v 18.0006h 0.429492v -43.2014h 0.429492v 36.0012h 0.429492v -28.801h 0.429492v 14.4005h 0.429492v -10.8004h 0.429492v
 -14.4005h 0.429492v 3.60012h 0.429492v 39.6013h 0.429492v -10.8004h 0.429492v 10.8004h 0.429492v -21.6007h 0.429492v -21.6007h 0.429492v 21.6007h 0.429492v 7.20024h 0.429492v -21.6007h 0.429492v 28.801h 0.429492v -25.2008h 0.429492v -14.4005h
 0.858984v -18.0006h 0.429492v -54.0018h 0.429492v 111.604h 0.429492v -57.6019h 0.429492v -10.8004h 0.429492v 7.20024h 0.429492v 28.801h 0.429492v -14.4005h 0.429492v 21.6007h 0.429492v -10.8004h 0.858984v -7.20024h 0.429492v -18.0006h 0.429492v
 -18.0006h 0.429492v 32.4011h 0.429492v 14.4005h 0.429492v -32.4011h 0.429492v 7.20024h 0.858984v 3.60012h 0.429492v -28.801h 0.429492v -18.0006h 0.429492v 46.8016h 0.858984v 10.8004h 0.429492v -7.20024h 0.429492v -14.4005h 0.429492v -64.8022h
 0.429492v 108.004h 0.429492v -39.6013h 0.429492v 10.8004h 0.429492v -21.6007h 0.858984v -7.20024h 0.429492v 43.2014h 0.429492v -82.8027h 0.429492v 54.0018h 0.429492v -21.6007h 0.429492v 3.60012h 0.429492v -7.20024h 0.858984v -10.8004h 0.429492v
 -21.6007h 0.429492v 93.6031h 0.429492v -43.2014h 0.429492v -3.60012h 0.429492v 18.0006h 0.429492v -25.2008h 0.429492v 46.8016h 0.429492v -75.6025h 0.429492v 54.0018h 0.429492v -46.8016h 0.429492v 50.4017h 0.429492v -36.0012h 0.429492v 14.4005h
 0.429492v 21.6007h 0.429492v -28.801h 0.429492v 32.4011h 0.429492v -39.6013h 0.429492v 3.60012h 0.858984v -28.801h 0.429492v 18.0006h 0.429492v 43.2014h 0.429492v -46.8016h 0.429492v -25.2008h 0.429492v 10.8004h 0.429492v 39.6013h 0.429492v 7.20024h
 0.429492v -18.0006h 0.429492v -36.0012h 0.429492v 79.2026h 0.429492v -104.403h 0.429492v 82.8027h 0.429492v -21.6007h 0.429492v 10.8004h 0.429492v 46.8016h 0.429492v -54.0018h 0.858984v 7.20024h 0.429492v -7.20024h 0.429492v -21.6007h 0.429492v
 10.8004h 0.429492v -7.20024h 0.429492v 39.6013h 0.858984v -32.4011h 0.429492v -3.60012h 0.429492v 28.801h 0.429492v -36.0012h 0.429492v 14.4005h 0.429492v -7.20024h 0.429492v 68.4023h 0.429492v -21.6007h 0.429492v -46.8016h 0.429492v 10.8004h
 0.429492v 7.20024h 0.429492v 10.8004h 0.429492v -25.2008h 0.429492v -3.60012h 0.429492v 14.4005h 0.429492v 25.2008h 0.429492v 21.6007h 0.429492v -25.2008h 0.429492v -32.4011h 0.429492v -3.60012h 0.429492v 75.6025h 0.429492v -32.4011h 0.429492v
 -36.0012h 0.858984v 36.0012h 0.429492v 28.801h 0.429492v -46.8016h 0.429492v -28.801h 0.429492v 61.202h 0.429492v -25.2008h 0.429492v -32.4011h 0.429492v 25.2008h 0.429492v -14.4005h 0.429492v 39.6013h 0.429492v -25.2008h 0.429492v -3.60012h
 0.429492v 54.0018h 0.429492v -3.60012h 0.429492v -21.6007h 0.429492v -39.6013h 0.429492v 54.0018h 0.429492v 7.20024h 0.429492v -21.6007h 0.429492v -3.60012h 0.429492v 36.0012h 0.429492v -75.6025h 0.429492v 46.8016h 0.429492v 14.4005h 0.429492v
 -64.8022h 0.429492v -3.60012h 0.429492v 50.4017h 0.429492v 10.8004h 0.429492v 28.801h 0.429492v -54.0018h 0.429492v 7.20024h 0.429492v 28.801h 0.429492v -21.6007h 0.429492v 32.4011h 0.429492v 14.4005h 0.429492v -7.20024h 0.429492v -21.6007h
 0.429492v -25.2008h 0.429492v 68.4023h 0.429492v -61.202h 0.429492v 39.6013h 0.429492v 39.6013h 0.429492v -64.8022h 0.429492v 39.6013h 0.429492v -32.4011h 0.429492v 46.8016h 0.429492v -54.0018h 0.858984v 10.8004h 0.429492v 3.60012h 0.429492v
 18.0006h 0.429492v -43.2014h 0.429492v 10.8004h 0.429492v 28.801h 0.429492v -18.0006h 0.429492v 50.4017h 0.429492v -68.4023h 0.429492v 61.202h 0.429492v -46.8016h 0.429492v 28.801h 0.429492v -7.20024h 0.429492v 21.6007h 0.429492v -10.8004h 0.429492v
 -46.8016h 0.429492v 43.2014h 0.429492v 10.8004h 0.429492v -18.0006h 0.429492v -3.60012h 0.429492v 36.0012h 0.429492v -39.6013h 0.429492v 3.60012h 0.429492v 18.0006h 0.429492v 14.4005h 0.429492v 14.4005h 0.429492v -39.6013h 0.429492v 28.801h
 0.429492v 25.2008h 0.429492v -79.2026h 0.429492v 46.8016h 0.429492v 14.4005h 0.429492v -7.20024h 0.429492v 7.20024h 0.429492v 18.0006h 0.429492v -3.60012h 0.429492v -50.4017h 0.429492v 25.2008h 0.858984v 28.801h 0.429492v -18.0006h 0.429492v
 -3.60012h 0.429492v 3.60012h 0.429492v 21.6007h 0.429492v 3.60012h 0.429492v -28.801h 0.429492v 18.0006h 0.429492v -3.60012h 0.429492v -14.4005h 0.429492v 43.2014h 0.429492v -25.2008h 0.429492v -14.4005h 0.429492v -7.20024h 0.429492v 7.20024h
 0.429492v 18.0006h 0.429492v -7.20024h 0.429492v -3.60012h 0.429492v 14.4005h 0.858984v 14.4005h 0.429492v -25.2008h 0.429492v 14.4005h 0.429492v -28.801h 0.429492v 46.8016h 0.429492v -10.8004h 0.429492v -18.0006h 0.429492v 3.60012h 0.429492v
 -10.8004h 0.429492v 14.4005h 0.429492v 3.60012h 0.429492v -3.60012h 0.429492v -21.6007h 0.429492v 10.8004h 0.429492v 10.8004h 0.429492v 7.20024h 0.429492v 3.60012h 0.429492v -18.0006h 0.429492v -3.60012h 0.429492v 36.0012h 0.429492v -36.0012h
 0.429492v 7.20024h 0.429492v 28.801h 0.429492v -21.6007h 0.429492v -10.8004h 0.858984v 14.4005h 0.429492v -7.20024h 0.429492v 28.801h 0.429492v -21.6007h 0.429492v 10.8004h 0.429492v 3.60012h 0.429492v -10.8004h 0.429492v -10.8004h 0.429492v
 43.2014h 0.429492v -14.4005h 0.429492v -3.60012h 0.429492v -7.20024h 0.429492v 7.20024h 0.429492v -10.8004h 0.429492v 10.8004h 0.429492v -7.20024h 0.858984v 10.8004h 0.429492v -10.8004h 0.429492v 3.60012h 0.429492v 7.20024h 0.429492v -7.20024h
 0.858984v -10.8004h 0.429492v -7.20024h 0.429492v 14.4005h 0.429492v 21.6007h 0.429492v -14.4005h 0.429492v -3.60012h 0.429492v 14.4005h 0.429492v -10.8004h 0.429492v -7.20024h 0.429492v 14.4005h 0.429492v -18.0006h 0.429492v 14.4005h 0.858984v
 7.20024h 0.429492v -14.4005h 0.429492v -18.0006h 0.429492v 21.6007h 0.429492v -10.8004h 0.429492v 7.20024h 0.429492v 14.4005h 0.858984v -25.2008h 0.429492v -3.60012h 0.429492v 21.6007h 0.858984v -10.8004h 0.429492v 21.6007h 0.429492v -3.60012h
 0.429492v -3.60012h 0.429492v -7.20024h 0.429492v 14.4005h 0.429492v 7.20024h 0.429492v -28.801h 0.429492v -3.60012h 0.429492v 3.60012h 0.429492v 3.60012h 0.858984v 14.4005h 0.429492v -3.60012h 0.429492v -21.6007h 0.429492v 18.0006h 0.429492v
 -3.60012h 0.858984v -3.60012h 0.429492v -14.4005h 0.429492v 25.2008h 0.429492v 10.8004h 0.429492v -14.4005h 0.429492v -3.60012h 0.429492v 3.60012h 0.429492v -10.8004h 0.429492v 7.20024h 0.429492v 7.20024h 0.858984v -7.20024h 0.429492v 14.4005h
 0.429492v -14.4005h 0.429492v 3.60012h 0.429492v 10.8004h 0.429492v -14.4005h 0.429492v 10.8004h 0.429492v -21.6007h 0.429492v 14.4005h 0.429492v -14.4005h 0.429492v 10.8004h 0.429492v 10.8004h 0.429492v -10.8004h 0.429492v -7.20024h 0.858984v
 10.8004h 0.429492v 10.8004h 0.429492v -18.0006h 0.858984v -18.0006h 0.429492v -10.8004h 0.429492v 3.60012h 0.429492v 32.4011h 0.429492v -10.8004h 0.429492v 7.20024h 0.429492v -3.60012h 0.429492v -3.60012h 0.429492v -10.8004h 0.429492v 21.6007h
 0.429492v -18.0006h 0.429492v -3.60012h 0.429492v 25.2008h 0.429492v -7.20024h 0.429492v -7.20024h 0.429492v 3.60012h 0.429492v 3.60012h 0.429492v -21.6007h 0.429492v 21.6007h 0.429492v -21.6007h 0.429492v 10.8004h 0.429492v -10.8004h 0.858984v
 -10.8004h 0.429492v 18.0006h 1.28848v 3.60012h 0.429492v 7.20024h 0.858984v -14.4005h 0.429492v 25.2008h 0.858984v -18.0006h 0.429492v -3.60012h 0.429492v -7.20024h 0.858984v 3.60012h 0.429492v 7.20024h 0.429492v 7.20024h 0.429492v -18.0006h
 0.429492v 7.20024h 0.429492v 3.60012h 0.429492v -10.8004h 0.429492v 3.60012h 0.429492v -18.0006h 0.429492v 10.8004h 0.429492v 21.6007h 0.429492v -14.4005h 0.858984v -50.4017h 0.429492v 36.0012h 0.429492v 18.0006h 0.429492v -25.2008h 0.429492v
 36.0012h 0.429492v -10.8004h 0.429492v -14.4005h 0.429492v -3.60012h 0.429492v -7.20024h 0.429492v -3.60012h 0.429492v 3.60012h 0.429492v 25.2008h 0.429492v -28.801h 0.429492v 43.2014h 0.429492v -39.6013h 0.429492v 39.6013h 0.429492v -43.2014h
 0.429492v 28.801h 0.429492v -21.6007h 0.429492v 18.0006h 0.429492v -3.60012h 0.429492v -14.4005h 0.429492v -18.0006h 0.429492v 18.0006h 0.429492v -14.4005h 0.429492v 10.8004h 0.429492v -14.4005h 0.429492v -14.4005h 0.429492v 14.4005h 0.858984v
 25.2008h 0.429492v -10.8004h 0.429492v -10.8004h 0.429492v -3.60012h 0.429492v -10.8004h 0.429492v 32.4011h 0.429492v -7.20024h 0.429492v 3.60012h 0.429492v -21.6007h 0.429492v 18.0006h 0.429492v -28.801h 0.429492v 28.801h 0.429492v -25.2008h
 0.429492v 21.6007h 0.429492v -39.6013h 0.429492v 28.801h 0.429492v -18.0006h 0.429492v -28.801h 0.429492v 54.0018h 0.429492v -14.4005h 0.429492v -21.6007h 0.429492v 21.6007h 0.429492v -43.2014h 0.429492v 54.0018h 0.429492v 7.20024h 0.429492v
 -21.6007h 0.429492v 3.60012h 0.429492v -7.20024h 0.429492v 7.20024h 0.858984v -50.4017h 0.429492v 86.4029h 0.429492v -36.0012h 0.429492v 10.8004h 0.429492v -21.6007h 0.429492v 25.2008h 0.429492v -36.0012h 0.429492v -7.20024h 0.429492v 10.8004h
 0.429492v -21.6007h 0.429492v 7.20024h 0.429492v -21.6007h 0.429492v 43.2014h 0.429492v -18.0006h 0.429492v 43.2014h 0.429492v -39.6013h 0.429492v 21.6007h 0.429492v -25.2008h 0.429492v 25.2008h 0.429492v -7.20024h 0.429492v -28.801h 0.429492v
 -3.60012h 0.429492v 18.0006h 0.429492v 7.20024h 0.429492v -7.20024h 0.429492v -36.0012h 0.429492v 54.0018h 0.429492v -14.4005h 0.429492v -7.20024h 0.429492v -43.2014h 0.429492v 28.801h 0.429492v 3.60012h 0.429492v -21.6007h 0.429492v 28.801h
 0.429492v -7.20024h 0.429492v -28.801h 0.429492v 39.6013h 0.429492v -7.20024h 0.429492v -39.6013h 0.429492v -14.4005h 0.429492v 14.4005h 0.429492v 68.4023h 0.429492v -68.4023h 0.429492v 14.4005h 0.858984v 21.6007h 0.429492v 3.60012h 0.429492v
 3.60012h 0.429492v -28.801h 0.429492v -18.0006h 0.429492v 50.4017h 0.858984v -57.6019h 0.429492v 21.6007h 0.429492v 39.6013h 0.429492v -32.4011h 0.858984v 10.8004h 0.429492v -10.8004h 0.429492v -14.4005h 0.429492v -14.4005h 0.429492v 61.202h
 0.429492v -32.4011h 0.429492v 7.20024h 0.429492v -3.60012h 0.429492v -64.8022h 0.429492v 36.0012h 0.429492v 39.6013h 0.429492v -10.8004h 0.429492v -25.2008h 0.429492v -14.4005h 0.429492v 18.0006h 0.429492v 50.4017h 0.429492v -90.003h 0.429492v
 97.2032h 0.429492v -18.0006h 0.429492v -36.0012h 0.429492v -25.2008h 0.429492v 36.0012h 0.429492v 14.4005h 0.429492v -46.8016h 0.429492v 21.6007h 0.429492v -21.6007h 0.429492v 43.2014h 0.429492v -7.20024h 0.429492v -28.801h 0.429492v -3.60012h
 0.429492v 32.4011h 0.429492v -10.8004h 0.858984v -25.2008h 0.429492v 36.0012h 0.429492v 10.8004h 0.429492v -28.801h 0.429492v -18.0006h 0.429492v 10.8004h 0.429492v 7.20024h 0.429492v 28.801h 0.429492v 25.2008h 0.429492v -54.0018h 0.429492v
 -10.8004h 0.429492v 39.6013h 0.429492v -28.801h 0.429492v -28.801h 0.429492v 50.4017h 0.429492v -43.2014h 0.429492v 75.6025h 0.429492v -36.0012h 0.429492v -46.8016h 0.429492v 25.2008h 0.429492v 21.6007h 0.429492v -25.2008h 0.429492v -7.20024h
 0.429492v 64.8022h 0.429492v -61.202h 0.429492v -14.4005h 0.429492v 68.4023h 0.429492v -36.0012h 0.429492v -3.60012h 0.429492v -7.20024h 0.429492v 46.8016h 0.429492v 10.8004h 0.429492v -14.4005h 0.429492v -61.202h 0.429492v 7.20024h 0.429492v
 -3.60012h 0.429492v 39.6013h 0.429492v -14.4005h 0.429492v -18.0006h 0.429492v 28.801h 0.429492v 18.0006h 0.429492v -50.4017h 0.429492v 32.4011h 0.429492v 14.4005h 0.429492v 36.0012h 0.429492v -61.202h 0.858984v -7.20024h 0.429492v 46.8016h
 0.858984v -3.60012h 0.429492v -25.2008h 0.429492v 14.4005h 0.429492v 21.6007h 0.429492v -7.20024h 0.429492v -21.6007h 0.429492v -10.8004h 0.429492v -10.8004h 0.429492v 10.8004h 0.429492v 14.4005h 0.429492v 10.8004h 0.429492v -3.60012h 0.858984v
 -3.60012h 0.429492v 14.4005h 0.858984v -46.8016h 0.858984v 32.4011h 0.429492v -10.8004h 0.429492v 36.0012h 0.429492v -25.2008h 0.429492v -21.6007h 0.429492v 46.8016h 0.429492v 10.8004h 0.429492v -28.801h 0.429492v 14.4005h 0.429492v -18.0006h
 0.429492v 18.0006h 0.429492v 10.8004h 0.429492v -25.2008h 0.429492v -43.2014h 0.429492v 72.0024h 0.429492v -39.6013h 0.429492v 36.0012h 0.429492v -3.60012h 0.429492v -21.6007h 0.429492v 3.60012h 0.429492v 21.6007h 0.429492v -14.4005h 0.429492v
 21.6007h 0.429492v 7.20024h 0.429492v -54.0018h 0.429492v 21.6007h 0.429492v 25.2008h 0.429492v 7.20024h 0.429492v -18.0006h 0.429492v -14.4005h 0.429492v 3.60012h 0.429492v 18.0006h 0.429492v 18.0006h 0.858984v -10.8004h 0.429492v -7.20024h
 0.429492v 7.20024h 0.429492v -21.6007h 0.429492v -10.8004h 0.429492v 21.6007h 0.429492v 10.8004h 0.429492v 3.60012h 0.429492v -28.801h 0.429492v 28.801h 0.429492v 14.4005h 0.429492v -18.0006h 0.429492v -14.4005h 0.429492v 10.8004h 0.429492v 18.0006h
 0.429492v 3.60012h 0.429492v 7.20024h 0.429492v -18.0006h 0.429492v 18.0006h 0.429492v -25.2008h 0.858984v 28.801h 0.429492v -32.4011h 0.429492v 21.6007h 0.429492v -14.4005h 0.429492v -18.0006h 0.429492v 25.2008h 0.858984v 10.8004h 0.429492v
 -7.20024h 0.429492v 39.6013h 0.429492v -10.8004h 0.429492v -14.4005h 0.429492v 10.8004h 0.429492v -39.6013h 0.429492v 18.0006h 0.429492v -39.6013h 0.429492v 54.0018h 0.429492v 7.20024h 0.429492v -39.6013h 0.429492v -3.60012h 0.429492v 10.8004h
 0.429492v 50.4017h 0.429492v -36.0012h 0.858984v 18.0006h 0.429492v 21.6007h 0.429492v -18.0006h 0.429492v -3.60012h 0.429492v 14.4005h 0.858984v -18.0006h 0.429492v -10.8004h 0.429492v 18.0006h 0.429492v -10.8004h 0.429492v 10.8004h 0.429492v
 7.20024h 0.858984v -3.60012h 0.429492v 10.8004h 0.429492v -7.20024h 0.429492v -10.8004h 0.429492v -7.20024h 0.429492v 18.0006h 0.429492v -10.8004h 0.858984v 25.2008h 0.429492v -18.0006h 0.429492v -3.60012h 1.28848v 14.4005h 0.429492v -10.8004h
 0.429492v 21.6007h 0.429492v -7.20024h 0.429492v -3.60012h 0.429492v -7.20024h 0.429492v 7.20024h 0.429492v -14.4005h 0.429492v 14.4005h 0.858984v -10.8004h 0.429492v 3.60012h 0.429492v -14.4005h 0.429492v 25.2008h 0.429492v 14.4005h 0.429492v
 -10.8004h 0.429492v 14.4005h 0.429492v -21.6007h 0.429492v 14.4005h 0.429492v 7.20024h 0.429492v -18.0006h 0.858984v -7.20024h 0.429492v 10.8004h 0.429492v 7.20024h 0.429492v -7.20024h 0.429492v 7.20024h 0.429492v -18.0006h 0.429492v 7.20024h
 0.429492v 14.4005h 0.429492v 3.60012h 0.858984v -18.0006h 0.429492v 3.60012h 0.429492v -3.60012h 0.858984v 18.0006h 0.429492v -7.20024h 0.429492v 10.8004h 0.429492v -3.60012h 0.429492v 3.60012h 0.429492v -28.801h 0.429492v 10.8004h 0.429492v
 10.8004h 0.429492v -7.20024h 0.429492v 7.20024h 0.858984v -7.20024h 0.429492v 10.8004h 0.429492v -3.60012h 0.429492v -7.20024h 0.429492v 7.20024h 0.429492v 7.20024h 0.429492v -14.4005h 0.429492v 7.20024h 0.429492v 7.20024h 0.429492v -14.4005h
 0.429492v 7.20024h 0.429492v 3.60012h 0.429492v -3.60012h 0.429492v 7.20024h 1.28848v -10.8004h 0.429492v 7.20024h 0.429492v -3.60012h 0.858984v 10.8004h 0.429492v -25.2008h 0.429492v 3.60012h 0.429492v 14.4005h 0.429492v -3.60012h 0.429492v
 7.20024h 0.858984v -3.60012h 0.429492v -7.20024h 0.429492v 3.60012h 0.858984v 7.20024h 0.429492v -10.8004h 0.429492v 7.20024h 0.429492v 3.60012h 0.858984v -10.8004h 0.429492v 10.8004h 0.429492v -14.4005h 0.429492v 7.20024h 0.429492v 3.60012h
 0.429492v -18.0006h 0.429492v 21.6007h 1.71797v 3.60012h 0.429492v -3.60012h 1.28848v -7.20024h 0.429492v 10.8004h 0.429492v -10.8004h 0.429492v 3.60012h 0.429492v -3.60012h 0.429492v 7.20024h 0.858984v -3.60012h 0.429492v 3.60012h 0.429492v
 -10.8004h 0.429492v 7.20024h 0.858984v 3.60012h 0.429492v -3.60012h 0.429492v 3.60012h 0.858984" fill="none" stroke="#ff0000" stroke-width="2"/>
<path d="M59.4606,260.147l 4.53543, 0.262756l 4.53543, 0.186056l 4.53543, 0.076474l 4.53543, -0.0768393l 4.53543, -0.286797l 4.53543, -0.568098l 4.53543, -0.936586l 4.53543, -1.40817l 4.53543, -1.99727l 4.53543, -2.71472l 4.53543, -3.56534l 4.53543,
 -4.54524l 4.53543, -5.63919l 4.53543, -6.81845l 4.53543, -8.03947l 4.53543, -9.24386l 4.53543, -10.3601l 4.53543, -11.3071l 4.53543, -11.9995l 4.53543, -12.3549l 4.53543, -12.3016l 4.53543, -11.7866l 4.53543, -10.7832l 4.53543, -9.29643l 4.53543,
 -7.36527l 4.53543, -5.06241l 4.53543, -2.48996l 4.53543, 0.228005l 4.53543, 2.9553l 4.53543, 5.55495l 4.53543, 7.90063l 4.53543, 9.88676l 4.53543, 11.4363l 4.53543, 12.5056l 4.53543, 13.0851l 4.53543, 13.1973l 4.53543, 12.8919l 4.53543, 12.2382l
 4.53543, 11.3172l 4.53543, 10.2136l 4.53543, 9.00844l 4.53543, 7.77336l 4.53543, 6.56665l 4.53543, 5.43118l 4.53543, 4.39402l 4.53543, 3.46738l 4.53543, 2.65059l 4.53543, 1.93255l 4.53543, 1.29439" fill="none" stroke="#0000ff" stroke-width="2"/>
<path d="M281.697,275.654l 4.53543, 0.712151l 4.53543, 0.159196l 4.53543, -0.391581l 4.53543, -0.965773l 4.53543, -1.58564l 4.53543, -2.26839l 4.53543, -3.02456l 4.53543, -3.85648l 4.53543, -4.75696l 4.53543, -5.70831l 4.53543, -6.68201l 4.53543,
 -7.63896l 4.53543, -8.53087l 4.53543, -9.30255l 4.53543, -9.8953l 4.53543, -10.2512l 4.53543, -10.3181l 4.53543, -10.0543l 4.53543, -9.43405l 4.53543, -8.45054l 4.53543, -7.119l 4.53543, -5.47712l 4.53543, -3.58372l 4.53543, -1.51544l 4.53543,
 0.638418l 4.53543, 2.78224l 4.53543, 4.82115l 4.53543, 6.668l 4.53543, 8.2495l 4.53543, 9.51101l 4.53543, 10.4195l 4.53543, 10.9645l 4.53543, 11.157l 4.53543, 11.0266l 4.53543, 10.6177l 4.53543, 9.98439l 4.53543, 9.18548l 4.53543, 8.27995l 4.53543,
 7.32279l 4.53543, 6.36202l 4.53543, 5.43676l 4.53543, 4.57638l 4.53543, 3.80056l 4.53543, 3.12015l 4.53543, 2.53848l 4.53543, 2.05298l 4.53543, 1.65682l 4.53543, 1.34047l 4.53543, 1.09305" fill="none" stroke="#0000ff" stroke-width="2"/>
<path d="M503.933,299.321l 4.53543, 0.903402" fill="none" stroke="#0000ff" stroke-width="2"/>
<rect x="351.996" y="21.8066" width="204.094" height="120.775" fill="white"/>
<path d="M351.996,142.582h 204.094" fill="none" stroke="black" stroke-width="2"/>
<path d="M556.091,142.582v -120.775" fill="none" stroke="black" stroke-width="2"/>
<path d="M556.091,21.8066h -204.094" fill="none" stroke="black" stroke-width="2"/>
<path d="M351.996,21.8066v 120.775" fill="none" stroke="black" stroke-width="2"/>
<text x="374.206" y="32.9116" fill="black" font-size="13.2423" font-family="Helvetica">
 / ndf 
</text>
<text x="368.898" y="28.665" fill="black" font-size="8.99488" font-family="Helvetica">
2
</text>
<text x="361.466" y="32.9116" fill="black" font-size="13.2423" font-family="Times">
&#0967;
</text>
<text x="471.879" y="33.9733" fill="black" font-size="13.2423" font-family="Helvetica">
  1250 / 1046
</text>
<text x="361.466" y="48.8366" fill="black" font-size="13.2423" font-family="Helvetica">
1-Centroid 
</text>
<text x="524.963" y="48.8366" fill="black" font-size="13.2423" font-family="Helvetica">
 1.2
</text>
<text x="517.531" y="48.8366" fill="black" font-size="13.2423" font-family="Times">
&#0177;
</text>
<text x="479.311" y="48.8366" fill="black" font-size="13.2423" font-family="Helvetica">
  3624 
</text>
<text x="361.466" y="64.7616" fill="black" font-size="13.2423" font-family="Helvetica">
1-FWHM   
</text>
<text x="527.086" y="64.7616" fill="black" font-size="13.2423" font-family="Helvetica">
 2.1
</text>
<text x="519.654" y="64.7616" fill="black" font-size="13.2423" font-family="Times">
&#0177;
</text>
<text x="481.434" y="64.7616" fill="black" font-size="13.2423" font-family="Helvetica">
 190.6 
</text>
<text x="361.466" y="79.6249" fill="black" font-size="13.2423" font-family="Helvetica">
1-Counts 
</text>
<text x="510.099" y="79.6249" fill="black" font-size="13.2423" font-family="Helvetica">
 155.6
</text>
<text x="502.668" y="79.6249" fill="black" font-size="13.2423" font-family="Times">
&#0177;
</text>
<text x="464.448" y="79.6249" fill="black" font-size="13.2423" font-family="Helvetica">
  9162 
</text>
<text x="361.466" y="94.4882" fill="black" font-size="13.2423" font-family="Helvetica">
2-Centroid 
</text>
<text x="524.963" y="94.4882" fill="black" font-size="13.2423" font-family="Helvetica">
 1.2
</text>
<text x="517.531" y="94.4882" fill="black" font-size="13.2423" font-family="Times">
&#0177;
</text>
<text x="479.311" y="94.4882" fill="black" font-size="13.2423" font-family="Helvetica">
  4108 
</text>
<text x="361.466" y="109.352" fill="black" font-size="13.2423" font-family="Helvetica">
2-Counts 
</text>
<text x="510.099" y="109.352" fill="black" font-size="13.2423" font-family="Helvetica">
 131.5
</text>
<text x="502.668" y="109.352" fill="black" font-size="13.2423" font-family="Times">
&#0177;
</text>
<text x="464.448" y="109.352" fill="black" font-size="13.2423" font-family="Helvetica">
  8717 
</text>
<text x="361.466" y="123.153" fill="black" font-size="13.2423" font-family="Helvetica">
Intercept 
</text>
<text x="517.531" y="124.215" fill="black" font-size="13.2423" font-family="Helvetica">
 1.49
</text>
<text x="510.099" y="124.215" fill="black" font-size="13.2423" font-family="Times">
&#0177;
</text>
<text x="471.879" y="124.215" fill="black" font-size="13.2423" font-family="Helvetica">
 47.75 
</text>
<text x="361.466" y="139.078" fill="black" font-size="13.2423" font-family="Helvetica">
Slope    
</text>
<text x="496.298" y="140.14" fill="black" font-size="13.2423" font-family="Helvetica">
 0.00036
</text>
<text x="488.866" y="140.14" fill="black" font-size="13.2423" font-family="Times">
&#0177;
</text>
<text x="440.029" y="140.14" fill="black" font-size="13.2423" font-family="Helvetica">
0.01087 
</text>
<text x="432.598" y="140.14" fill="black" font-size="13.2423" font-family="Times">
&#8722;
</text>
<text x="429.413" y="140.14" fill="black" font-size="13.2423" font-family="Helvetica">
 
</text>
<path d="M57.1929,301.938h 453.543" fill="none" stroke="black" stroke-width="2"/>
<text x="466.571" y="324.87" fill="black" font-size="11.2725" font-family="Helvetica">
Channels
</text>
<path d="M131.066,293.886v 8.05167" fill="none" stroke="black" stroke-width="2"/>
<path d="M174.015,297.912v 4.02583" fill="none" stroke="black" stroke-width="2"/>
<path d="M216.964,297.912v 4.02583" fill="none" stroke="black" stroke-width="2"/>
<path d="M259.913,297.912v 4.02583" fill="none" stroke="black" stroke-width="2"/>
<path d="M302.862,297.912v 4.02583" fill="none" stroke="black" stroke-width="2"/>
<path d="M345.811,293.886v 8.05167" fill="none" stroke="black" stroke-width="2"/>
<path d="M131.066,293.886v 8.05167" fill="none" stroke="black" stroke-width="2"/>
<path d="M88.1163,297.912v 4.02583" fill="none" stroke="black" stroke-width="2"/>
<path d="M345.811,293.886v 8.05167" fill="none" stroke="black" stroke-width="2"/>
<path d="M388.761,297.912v 4.02583" fill="none" stroke="black" stroke-width="2"/>
<path d="M431.71,297.912v 4.02583" fill="none" stroke="black" stroke-width="2"/>
<path d="M474.659,297.912v 4.02583" fill="none" stroke="black" stroke-width="2"/>
<text x="118.345" y="312.13" fill="black" font-size="11.2725" font-family="Helvetica">
3500
</text>
<text x="333.863" y="312.13" fill="black" font-size="11.2725" font-family="Helvetica">
4000
</text>
<path d="M57.1929,301.938v -268.389" fill="none" stroke="black" stroke-width="2"/>
<path d="M70.7992,301.938h -13.6063" fill="none" stroke="black" stroke-width="2"/>
<path d="M63.9961,294.737h -6.80315" fill="none" stroke="black" stroke-width="2"/>
<path d="M63.9961,287.537h -6.80315" fill="none" stroke="black" stroke-width="2"/>
<path d="M63.9961,280.337h -6.80315" fill="none" stroke="black" stroke-width="2"/>
<path d="M63.9961,273.137h -6.80315" fill="none" stroke="black" stroke-width="2"/>
<path d="M70.7992,265.936h -13.6063" fill="none" stroke="black" stroke-width="2"/>
<path d="M63.9961,258.736h -6.80315" fill="none" stroke="black" stroke-width="2"/>
<path d="M63.9961,251.536h -6.80315" fill="none" stroke="black" stroke-width="2"/>
<path d="M63.9961,244.336h -6.80315" fill="none" stroke="black" stroke-width="2"/>
<path d="M63.9961,237.135h -6.80315" fill="none" stroke="black" stroke-width="2"/>
<path d="M70.7992,229.935h -13.6063" fill="none" stroke="black" stroke-width="2"/>
<path d="M63.9961,222.735h -6.80315" fill="none" stroke="black" stroke-width="2"/>
<path d="M63.9961,215.535h -6.80315" fill="none" stroke="black" stroke-width="2"/>
<path d="M63.9961,208.334h -6.80315" fill="none" stroke="black" stroke-width="2"/>
<path d="M63.9961,201.134h -6.80315" fill="none" stroke="black" stroke-width="2"/>
<path d="M70.7992,193.934h -13.6063" fill="none" stroke="black" stroke-width="2"/>
<path d="M63.9961,186.734h -6.80315" fill="none" stroke="black" stroke-width="2"/>
<path d="M63.9961,179.533h -6.80315" fill="none" stroke="black" stroke-width="2"/>
<path d="M63.9961,172.333h -6.80315" fill="none" stroke="black" stroke-width="2"/>
<path d="M63.9961,165.133h -6.80315" fill="none" stroke="black" stroke-width="2"/>
<path d="M70.7992,157.933h -13.6063" fill="none" stroke="black" stroke-width="2"/>
<path d="M63.9961,150.733h -6.80315" fill="none" stroke="black" stroke-width="2"/>
<path d="M63.9961,143.532h -6.80315" fill="none" stroke="black" stroke-width="2"/>
<path d="M63.9961,136.332h -6.80315" fill="none" stroke="black" stroke-width="2"/>
<path d="M63.9961,129.132h -6.80315" fill="none" stroke="black" stroke-width="2"/>
<path d="M70.7992,121.932h -13.6063" fill="none" stroke="black" stroke-width="2"/>
<path d="M63.9961,114.731h -6.80315" fill="none" stroke="black" stroke-width="2"/>
<path d="M63.9961,107.531h -6.80315" fill="none" stroke="black" stroke-width="2"/>
<path d="M63.9961,100.331h -6.80315" fill="none" stroke="black" stroke-width="2"/>
<path d="M63.9961,93.1306h -6.80315" fill="none" stroke="black" stroke-width="2"/>
<path d="M70.7992,85.9304h -13.6063" fill="none" stroke="black" stroke-width="2"/>
<path d="M63.9961,78.7301h -6.80315" fill="none" stroke="black" stroke-width="2"/>
<path d="M63.9961,71.5299h -6.80315" fill="none" stroke="black" stroke-width="2"/>
<path d="M63.9961,64.3296h -6.80315" fill="none" stroke="black" stroke-width="2"/>
<path d="M63.9961,57.1294h -6.80315" fill="none" stroke="black" stroke-width="2"/>
<path d="M70.7992,49.9292h -13.6063" fill="none" stroke="black" stroke-width="2"/>
<path d="M70.7992,49.9292h -13.6063" fill="none" stroke="black" stroke-width="2"/>
<path d="M63.9961,42.7289h -6.80315" fill="none" stroke="black" stroke-width="2"/>
<path d="M63.9961,35.5287h -6.80315" fill="none" stroke="black" stroke-width="2"/>
<text x="47.2133" y="305.76" fill="black" font-size="11.2725" font-family="Helvetica">
0
</text>
<text x="41.9049" y="269.663" fill="black" font-size="11.2725" font-family="Helvetica">
10
</text>
<text x="41.9049" y="233.566" fill="black" font-size="11.2725" font-family="Helvetica">
20
</text>
<text x="41.9049" y="197.47" fill="black" font-size="11.2725" font-family="Helvetica">
30
</text>
<text x="41.9049" y="161.373" fill="black" font-size="11.2725" font-family="Helvetica">
40
</text>
<text x="41.9049" y="125.276" fill="black" font-size="11.2725" font-family="Helvetica">
50
</text>
<text x="41.9049" y="89.1799" fill="black" font-size="11.2725" font-family="Helvetica">
60
</text>
<text x="41.9049" y="54.1449" fill="black" font-size="11.2725" font-family="Helvetica">
70
</text>
<rect x="351.996" y="21.8066" width="204.094" height="120.775" fill="white"/>
<path d="M351.996,142.582h 204.094" fill="none" stroke="black" stroke-width="2"/>
<path d="M556.091,142.582v -120.775" fill="none" stroke="black" stroke-width="2"/>
<path d="M556.091,21.8066h -204.094" fill="none" stroke="black" stroke-width="2"/>
<path d="M351.996,21.8066v 120.775" fill="none" stroke="black" stroke-width="2"/>
<text x="374.206" y="32.9116" fill="black" font-size="13.2423" font-family="Helvetica">
 / ndf 
</text>
<text x="368.898" y="28.665" fill="black" font-size="8.99488" font-family="Helvetica">
2
</text>
<text x="361.466" y="32.9116" fill="black" font-size="13.2423" font-family="Times">
&#0967;
</text>
<text x="471.879" y="33.9733" fill="black" font-size="13.2423" font-family="Helvetica">
  1250 / 1046
</text>
<text x="361.466" y="48.8366" fill="black" font-size="13.2423" font-family="Helvetica">
1-Centroid 
</text>
<text x="524.963" y="48.8366" fill="black" font-size="13.2423" font-family="Helvetica">
 1.2
</text>
<text x="517.531" y="48.8366" fill="black" font-size="13.2423" font-family="Times">
&#0177;
</text>
<text x="479.311" y="48.8366" fill="black" font-size="13.2423" font-family="Helvetica">
  3624 
</text>
<text x="361.466" y="64.7616" fill="black" font-size="13.2423" font-family="Helvetica">
1-FWHM   
</text>
<text x="527.086" y="64.7616" fill="black" font-size="13.2423" font-family="Helvetica">
 2.1
</text>
<text x="519.654" y="64.7616" fill="black" font-size="13.2423" font-family="Times">
&#0177;
</text>
<text x="481.434" y="64.7616" fill="black" font-size="13.2423" font-family="Helvetica">
 190.6 
</text>
<text x="361.466" y="79.6249" fill="black" font-size="13.2423" font-family="Helvetica">
1-Counts 
</text>
<text x="510.099" y="79.6249" fill="black" font-size="13.2423" font-family="Helvetica">
 155.6
</text>
<text x="502.668" y="79.6249" fill="black" font-size="13.2423" font-family="Times">
&#0177;
</text>
<text x="464.448" y="79.6249" fill="black" font-size="13.2423" font-family="Helvetica">
  9162 
</text>
<text x="361.466" y="94.4882" fill="black" font-size="13.2423" font-family="Helvetica">
2-Centroid 
</text>
<text x="524.963" y="94.4882" fill="black" font-size="13.2423" font-family="Helvetica">
 1.2
</text>
<text x="517.531" y="94.4882" fill="black" font-size="13.2423" font-family="Times">
&#0177;
</text>
<text x="479.311" y="94.4882" fill="black" font-size="13.2423" font-family="Helvetica">
  4108 
</text>
<text x="361.466" y="109.352" fill="black" font-size="13.2423" font-family="Helvetica">
2-Counts 
</text>
<text x="510.099" y="109.352" fill="black" font-size="13.2423" font-family="Helvetica">
 131.5
</text>
<text x="502.668" y="109.352" fill="black" font-size="13.2423" font-family="Times">
&#0177;
</text>
<text x="464.448" y="109.352" fill="black" font-size="13.2423" font-family="Helvetica">
  8717 
</text>
<text x="361.466" y="123.153" fill="black" font-size="13.2423" font-family="Helvetica">
Intercept 
</text>
<text x="517.531" y="124.215" fill="black" font-size="13.2423" font-family="Helvetica">
 1.49
</text>
<text x="510.099" y="124.215" fill="black" font-size="13.2423" font-family="Times">
&#0177;
</text>
<text x="471.879" y="124.215" fill="black" font-size="13.2423" font-family="Helvetica">
 47.75 
</text>
<text x="361.466" y="139.078" fill="black" font-size="13.2423" font-family="Helvetica">
Slope    
</text>
<text x="496.298" y="140.14" fill="black" font-size="13.2423" font-family="Helvetica">
 0.00036
</text>
<text x="488.866" y="140.14" fill="black" font-size="13.2423" font-family="Times">
&#0177;
</text>
<text x="440.029" y="140.14" fill="black" font-size="13.2423" font-family="Helvetica">
0.01087 
</text>
<text x="432.598" y="140.14" fill="black" font-size="13.2423" font-family="Times">
&#8722;
</text>
<text x="429.413" y="140.14" fill="black" font-size="13.2423" font-family="Helvetica">
 
</text>
<path d="M59.4606,301.679l 4.53543, -0.150325l 4.53543, -0.227026l 4.53543, -0.336607l 4.53543, -0.48992l 4.53543, -0.699879l 4.53543, -0.981179l 4.53543, -1.34967l 4.53543, -1.82125l 4.53543, -2.41035l 4.53543, -3.1278l 4.53543, -3.97842l 4.53543,
 -4.95832l 4.53543, -6.05227l 4.53543, -7.23154l 4.53543, -8.45255l 4.53543, -9.65694l 4.53543, -10.7732l 4.53543, -11.7202l 4.53543, -12.4126l 4.53543, -12.768l 4.53543, -12.7146l 4.53543, -12.1996l 4.53543, -11.1963l 4.53543, -9.70951l 4.53543,
 -7.77835l 4.53543, -5.47549l 4.53543, -2.90303l 4.53543, -0.185062l 4.53543, 2.54224l 4.53543, 5.14193l 4.53543, 7.48765l 4.53543, 9.47386l 4.53543, 11.0236l 4.53543, 12.0931l 4.53543, 12.673l 4.53543, 12.786l 4.53543, 12.4819l 4.53543, 11.8302l
 4.53543, 10.9126l 4.53543, 9.81425l 4.53543, 8.61731l 4.53543, 7.39482l 4.53543, 6.20705l 4.53543, 5.09961l 4.53543, 4.10317l 4.53543, 3.23467l 4.53543, 2.49939l 4.53543, 1.89352l 4.53543, 1.40688" fill="none" stroke="#00ff00" stroke-width="2"/>
<path d="M281.697,298.636l 4.53543, 1.02541l 4.53543, 0.733293l 4.53543, 0.514609l 4.53543, 0.354458l 4.53543, 0.239661l 4.53543, 0.159085l 4.53543, 0.103683l 4.53543, 0.0663551l 4.53543, 0.041703l 4.53543, 0.0257407l 4.53543, 0.0373201h 172.346"
 fill="none" stroke="#00ff00" stroke-width="2"/>
<path d="M503.933,301.938h 4.53543" fill="none" stroke="#00ff00" stroke-width="2"/>
<path d="M59.4606,301.938h 176.882l 4.53543, -0.0345296l 4.53543, -0.0219548l 4.53543, -0.0345422l 4.53543, -0.0534877l 4.53543, -0.0815104l 4.53543, -0.122235l 4.53543, -0.180372l 4.53543, -0.261876l 4.53543, -0.374052l 4.53543, -0.52557"
 fill="none" stroke="#00ff00" stroke-width="2"/>
<path d="M281.697,300.247l 4.53543, -0.726337l 4.53543, -0.987178l 4.53543, -1.31927l 4.53543, -1.73331l 4.53543, -2.23838l 4.53543, -2.84056l 4.53543, -3.54133l 4.53543, -4.33592l 4.53543, -5.21174l 4.53543, -6.14714l 4.53543, -7.11069l 4.53543,
 -8.06134l 4.53543, -8.94939l 4.53543, -9.71875l 4.53543, -10.3101l 4.53543, -10.6653l 4.53543, -10.7317l 4.53543, -10.4677l 4.53543, -9.84728l 4.53543, -8.8637l 4.53543, -7.53212l 4.53543, -5.89022l 4.53543, -3.99681l 4.53543, -1.92852l 4.53543,
 0.225335l 4.53543, 2.36916l 4.53543, 4.40807l 4.53543, 6.25492l 4.53543, 7.83642l 4.53543, 9.09793l 4.53543, 10.0064l 4.53543, 10.5514l 4.53543, 10.7439l 4.53543, 10.6136l 4.53543, 10.2046l 4.53543, 9.57131l 4.53543, 8.7724l 4.53543, 7.86687l
 4.53543, 6.90971l 4.53543, 5.94894l 4.53543, 5.02368l 4.53543, 4.1633l 4.53543, 3.38748l 4.53543, 2.70707l 4.53543, 2.1254l 4.53543, 1.6399l 4.53543, 1.24374l 4.53543, 0.927387l 4.53543, 0.679969" fill="none" stroke="#00ff00" stroke-width="2"/>
<path d="M503.933,300.372l 4.53543, 0.490321" fill="none" stroke="#00ff00" stroke-width="2"/>
<text x="225.573" y="16.9866" fill="black" font-size="16.3958" font-family="Helvetica">
Co60_750V.Spe
</text></svg>
