<?xml version="1.0" standalone="no"?>
<svg width="567.429" height="372.003" viewBox="0 0 567.429 372.003" xmlns="http://www.w3.org/2000/svg">
<title>
/home/ADF/hyw543/Attenuation/Calib/c1.svg
</title>
<desc>
Creator: ROOT Version 6.06/08
CreationDate: Mon Jan  7 23:08:22 2019</desc>
<defs>
</defs>
<rect x="0.5" y="0" width="566.929" height="371.503" fill="white"/>
<rect x="57.1929" y="37.1503" width="453.543" height="297.202" fill="white"/>
<rect x="57.1929" y="37.1503" width="453.543" height="297.202" fill="none" stroke="black"/>
<rect x="57.1929" y="37.1503" width="453.543" height="297.202" fill="white"/>
<rect x="57.1929" y="37.1503" width="453.543" height="297.202" fill="none" stroke="black"/>
<path d="M57.1929,288.958h 0.829147v -18.692h 0.829147v 10.6811h 1.65829v -8.01085h 0.829147v 18.692h 0.829147v 13.3514h 0.829147v -24.0325h 0.829147v -5.34056h 0.829147v -10.6811h 0.829147v -8.01085h 0.829147v -13.3514h 0.829147v 40.0542h 0.829147v
 -8.01085h 0.829147v -5.34056h 0.829147v -16.0217h 0.829147v 21.3623h 0.829147v 21.3623h 0.829147v -21.3623h 0.829147v -18.692h 0.829147v 13.3514h 0.829147v -5.34056h 0.829147v 8.01085h 0.829147v -16.0217h 1.65829v -8.01085h 0.829147v 16.0217h
 1.65829v -18.692h 0.829147v 18.692h 1.65829v -21.3623h 0.829147v 5.34056h 0.829147v 16.0217h 1.65829v -10.6811h 0.829147v 10.6811h 0.829147v -13.3514h 0.829147v -2.67028h 0.829147v -10.6811h 0.829147v -13.3514h 1.65829v 26.7028h 0.829147v 5.34056h
 1.65829v 13.3514h 0.829147v -32.0434h 0.829147v 8.01085h 0.829147v -8.01085h 0.829147v 16.0217h 0.829147v 5.34056h 0.829147v -5.34056h 0.829147v -48.0651h 0.829147v 45.3948h 0.829147v -26.7028h 0.829147v 18.692h 0.829147v -2.67028h 0.829147v
 -26.7028h 0.829147v 16.0217h 0.829147v 24.0325h 0.829147v -8.01085h 0.829147v -18.692h 0.829147v -10.6811h 0.829147v 13.3514h 0.829147v -21.3623h 0.829147v 26.7028h 0.829147v -45.3948h 0.829147v 8.01085h 0.829147v 29.3731h 0.829147v -48.0651h
 0.829147v 32.0434h 0.829147v -5.34056h 0.829147v 8.01085h 0.829147v 10.6811h 0.829147v 13.3514h 0.829147v -18.692h 0.829147v -34.7137h 0.829147v 8.01085h 0.829147v 13.3514h 0.829147v -10.6811h 0.829147v 2.67028h 0.829147v -13.3514h 0.829147v
 32.0434h 0.829147v -37.384h 0.829147v 29.3731h 0.829147v -26.7028h 0.829147v -21.3623h 0.829147v 32.0434h 0.829147v 10.6811h 0.829147v -45.3948h 0.829147v -5.34056h 0.829147v 5.34056h 0.829147v 42.7245h 0.829147v -37.384h 0.829147v -2.67028h
 0.829147v 2.67028h 0.829147v -16.0217h 0.829147v -5.34056h 0.829147v 24.0325h 0.829147v -61.4165h 0.829147v -5.34056h 0.829147v 21.3623h 0.829147v 5.34056h 0.829147v 16.0217h 0.829147v -16.0217h 0.829147v 56.0759h 0.829147v -56.0759h 0.829147v
 -16.0217h 0.829147v 42.7245h 0.829147v -69.4273h 0.829147v 18.692h 0.829147v 5.34056h 0.829147v 42.7245h 0.829147v -18.692h 0.829147v -34.7137h 0.829147v 26.7028h 0.829147v -13.3514h 0.829147v -8.01085h 0.829147v -10.6811h 0.829147v 24.0325h
 0.829147v -24.0325h 0.829147v 32.0434h 0.829147v -34.7137h 0.829147v 48.0651h 0.829147v -2.67028h 0.829147v -26.7028h 0.829147v 5.34056h 0.829147v -18.692h 1.65829v -34.7137h 0.829147v 32.0434h 0.829147v -21.3623h 0.829147v 58.7462h 0.829147v
 -56.0759h 0.829147v -21.3623h 0.829147v 34.7137h 0.829147v 40.0542h 0.829147v 5.34056h 0.829147v -80.1085h 0.829147v 5.34056h 0.829147v 96.1302h 0.829147v -56.0759h 0.829147v 5.34056h 0.829147v 16.0217h 0.829147v -53.4056h 0.829147v 37.384h
 0.829147v -48.0651h 0.829147v 58.7462h 0.829147v -29.3731h 0.829147v 40.0542h 0.829147v -29.3731h 0.829147v -13.3514h 0.829147v 40.0542h 0.829147v -16.0217h 0.829147v -24.0325h 0.829147v 10.6811h 0.829147v 53.4056h 0.829147v -29.3731h 0.829147v
 2.67028h 0.829147v -37.384h 0.829147v 2.67028h 0.829147v 74.7679h 0.829147v -13.3514h 0.829147v -42.7245h 1.65829v 32.0434h 0.829147v -5.34056h 0.829147v -26.7028h 0.829147v -16.0217h 0.829147v 48.0651h 1.65829v -21.3623h 0.829147v 10.6811h
 0.829147v 8.01085h 0.829147v 5.34056h 0.829147v 21.3623h 0.829147v -2.67028h 0.829147v -24.0325h 0.829147v 18.692h 0.829147v 5.34056h 0.829147v 2.67028h 0.829147v 10.6811h 1.65829v -26.7028h 0.829147v 8.01085h 0.829147v 50.7354h 0.829147v -64.0868h
 0.829147v -2.67028h 0.829147v 40.0542h 0.829147v 13.3514h 0.829147v -29.3731h 0.829147v 26.7028h 0.829147v 18.692h 0.829147v -29.3731h 0.829147v -5.34056h 0.829147v 8.01085h 0.829147v -10.6811h 0.829147v 64.0868h 0.829147v -34.7137h 1.65829v
 16.0217h 0.829147v 16.0217h 0.829147v -5.34056h 0.829147v -37.384h 0.829147v 34.7137h 1.65829v 2.67028h 0.829147v -10.6811h 0.829147v 24.0325h 0.829147v 24.0325h 0.829147v -16.0217h 0.829147v -5.34056h 0.829147v -16.0217h 1.65829v 24.0325h 0.829147v
 -8.01085h 0.829147v 10.6811h 0.829147v 18.692h 0.829147v -32.0434h 1.65829v -5.34056h 0.829147v 40.0542h 0.829147v -18.692h 0.829147v 8.01085h 0.829147v 24.0325h 0.829147v -10.6811h 0.829147v -13.3514h 0.829147v 18.692h 0.829147v -13.3514h 0.829147v
 10.6811h 0.829147v 16.0217h 0.829147v -24.0325h 1.65829v 2.67028h 0.829147v -18.692h 0.829147v 42.7245h 0.829147v -21.3623h 0.829147v 24.0325h 0.829147v 2.67028h 0.829147v -21.3623h 0.829147v 13.3514h 1.65829v -16.0217h 0.829147v -8.01085h 0.829147v
 26.7028h 0.829147v -21.3623h 0.829147v 26.7028h 0.829147v -21.3623h 0.829147v 26.7028h 0.829147v -21.3623h 0.829147v 24.0325h 0.829147v -2.67028h 0.829147v -16.0217h 0.829147v 13.3514h 0.829147v -2.67028h 0.829147v -13.3514h 0.829147v 8.01085h
 0.829147v 10.6811h 0.829147v -8.01085h 0.829147v 21.3623h 0.829147v -10.6811h 0.829147v -2.67028h 0.829147v -2.67028h 0.829147v 8.01085h 0.829147v -13.3514h 0.829147v -2.67028h 0.829147v -13.3514h 0.829147v 5.34056h 0.829147v 32.0434h 0.829147v
 -13.3514h 0.829147v -2.67028h 0.829147v -10.6811h 0.829147v 10.6811h 0.829147v -16.0217h 0.829147v 13.3514h 0.829147v 18.692h 0.829147v -21.3623h 0.829147v 8.01085h 0.829147v -2.67028h 0.829147v -13.3514h 0.829147v 18.692h 0.829147v -2.67028h
 0.829147v -10.6811h 0.829147v 5.34056h 0.829147v -5.34056h 0.829147v 21.3623h 0.829147v -10.6811h 0.829147v -8.01085h 0.829147v -2.67028h 0.829147v 2.67028h 0.829147v 8.01085h 0.829147v 2.67028h 0.829147v -13.3514h 0.829147v -5.34056h 0.829147v
 21.3623h 0.829147v -10.6811h 0.829147v -2.67028h 0.829147v 2.67028h 0.829147v 8.01085h 0.829147v -16.0217h 0.829147v -5.34056h 0.829147v 26.7028h 0.829147v -48.0651h 0.829147v 40.0542h 0.829147v -16.0217h 0.829147v 10.6811h 0.829147v -5.34056h
 0.829147v -8.01085h 0.829147v -2.67028h 0.829147v -10.6811h 0.829147v 21.3623h 0.829147v 16.0217h 0.829147v -8.01085h 0.829147v -53.4056h 0.829147v 13.3514h 0.829147v 26.7028h 0.829147v -13.3514h 0.829147v -5.34056h 0.829147v -2.67028h 0.829147v
 -8.01085h 0.829147v 34.7137h 0.829147v -5.34056h 0.829147v -18.692h 0.829147v 5.34056h 0.829147v -29.3731h 0.829147v 26.7028h 0.829147v -13.3514h 1.65829v -8.01085h 0.829147v 18.692h 0.829147v -5.34056h 0.829147v -10.6811h 0.829147v -21.3623h
 0.829147v 32.0434h 0.829147v 5.34056h 0.829147v -2.67028h 0.829147v -16.0217h 0.829147v 21.3623h 0.829147v -13.3514h 0.829147v 21.3623h 0.829147v -61.4165h 0.829147v 18.692h 0.829147v -24.0325h 0.829147v 18.692h 0.829147v 5.34056h 0.829147v 21.3623h
 0.829147v -26.7028h 0.829147v 13.3514h 0.829147v -13.3514h 0.829147v -13.3514h 0.829147v -29.3731h 0.829147v 40.0542h 0.829147v -40.0542h 0.829147v 24.0325h 0.829147v 18.692h 0.829147v 8.01085h 0.829147v -29.3731h 0.829147v 10.6811h 0.829147v
 -26.7028h 0.829147v 26.7028h 0.829147v -8.01085h 0.829147v -8.01085h 0.829147v 16.0217h 0.829147v -8.01085h 0.829147v 8.01085h 0.829147v -34.7137h 0.829147v -42.7245h 0.829147v 53.4056h 0.829147v -21.3623h 0.829147v 2.67028h 0.829147v 32.0434h
 0.829147v 10.6811h 0.829147v -42.7245h 0.829147v -26.7028h 0.829147v -13.3514h 0.829147v 34.7137h 0.829147v 5.34056h 0.829147v -18.692h 0.829147v -10.6811h 0.829147v 18.692h 0.829147v -26.7028h 0.829147v 16.0217h 0.829147v -29.3731h 0.829147v
 64.0868h 0.829147v -53.4056h 0.829147v 2.67028h 0.829147v 5.34056h 0.829147v 2.67028h 0.829147v 5.34056h 0.829147v -42.7245h 0.829147v 93.4599h 0.829147v -56.0759h 0.829147v 2.67028h 0.829147v -26.7028h 0.829147v 2.67028h 0.829147v -2.67028h
 0.829147v -2.67028h 0.829147v 13.3514h 1.65829v 8.01085h 0.829147v 8.01085h 0.829147v 13.3514h 0.829147v -5.34056h 0.829147v -37.384h 0.829147v -13.3514h 0.829147v -13.3514h 0.829147v 61.4165h 0.829147v -48.0651h 0.829147v 10.6811h 0.829147v
 24.0325h 0.829147v -24.0325h 0.829147v 50.7354h 0.829147v -34.7137h 0.829147v -5.34056h 0.829147v 2.67028h 0.829147v 2.67028h 0.829147v -29.3731h 0.829147v 2.67028h 0.829147v -24.0325h 0.829147v 72.0976h 0.829147v -5.34056h 0.829147v 16.0217h
 0.829147v -48.0651h 0.829147v 16.0217h 0.829147v 24.0325h 0.829147v -40.0542h 0.829147v 18.692h 0.829147v -8.01085h 0.829147v 16.0217h 0.829147v -32.0434h 0.829147v 37.384h 0.829147v -10.6811h 0.829147v -29.3731h 0.829147v 34.7137h 0.829147v
 -18.692h 0.829147v 18.692h 0.829147v 5.34056h 0.829147v 5.34056h 0.829147v -16.0217h 0.829147v 34.7137h 0.829147v -42.7245h 0.829147v -5.34056h 0.829147v 8.01085h 0.829147v -8.01085h 0.829147v 26.7028h 0.829147v 2.67028h 0.829147v 8.01085h 0.829147v
 16.0217h 0.829147v -16.0217h 0.829147v -13.3514h 0.829147v 16.0217h 0.829147v 16.0217h 0.829147v 5.34056h 0.829147v -64.0868h 0.829147v 37.384h 0.829147v 34.7137h 0.829147v -16.0217h 0.829147v -18.692h 0.829147v 13.3514h 0.829147v 29.3731h 0.829147v
 29.3731h 0.829147v -58.7462h 0.829147v 13.3514h 0.829147v 21.3623h 0.829147v -45.3948h 0.829147v 42.7245h 0.829147v 8.01085h 0.829147v -26.7028h 0.829147v 42.7245h 0.829147v -18.692h 0.829147v -16.0217h 0.829147v 32.0434h 0.829147v -16.0217h
 0.829147v 29.3731h 0.829147v -21.3623h 0.829147v 16.0217h 0.829147v -13.3514h 1.65829v 13.3514h 0.829147v 16.0217h 0.829147v -29.3731h 0.829147v -37.384h 0.829147v 50.7354h 0.829147v -10.6811h 0.829147v 13.3514h 1.65829v 10.6811h 0.829147v 24.0325h
 0.829147v -48.0651h 0.829147v 13.3514h 0.829147v 16.0217h 0.829147v 5.34056h 0.829147v -8.01085h 0.829147v 8.01085h 0.829147v -13.3514h 0.829147v 24.0325h 1.65829v -8.01085h 0.829147v 13.3514h 0.829147v -13.3514h 0.829147v 24.0325h 0.829147v
 -16.0217h 0.829147v 2.67028h 0.829147v -2.67028h 0.829147v 10.6811h 0.829147v -8.01085h 0.829147v 5.34056h 0.829147v -16.0217h 0.829147v 18.692h 0.829147v 18.692h 0.829147v 5.34056h 0.829147v -37.384h 0.829147v 16.0217h 0.829147v 10.6811h 0.829147v
 -24.0325h 0.829147v 21.3623h 0.829147v 5.34056h 1.65829v 5.34056h 0.829147v -18.692h 0.829147v 13.3514h 0.829147v -5.34056h 0.829147v 8.01085h 0.829147v -5.34056h 0.829147v 10.6811h 0.829147v -16.0217h 0.829147v 13.3514h 0.829147v -5.34056h
 0.829147v 13.3514h 0.829147v -21.3623h 1.65829v 29.3731h 0.829147v -32.0434h 0.829147v 21.3623h 0.829147v 2.67028h 0.829147v -2.67028h 0.829147v 5.34056h 0.829147v -2.67028h 0.829147v -8.01085h 0.829147v 16.0217h 1.65829v 8.01085h 0.829147v
 -10.6811h 0.829147v 5.34056h 1.65829v -5.34056h 0.829147v 2.67028h 0.829147" fill="none" stroke="#ff0000" stroke-width="2"/>
<path d="M59.4606,282.944l 4.53543, -1.29238l 4.53543, -1.7771l 4.53543, -2.35593l 4.53543, -3.03449l 4.53543, -3.81461l 4.53543, -4.69315l 4.53543, -5.66074l 4.53543, -6.70081l 4.53543, -7.78883l 4.53543, -8.89209l 4.53543, -9.97007l 4.53543,
 -10.9754l 4.53543, -11.8558l 4.53543, -12.5563l 4.53543, -13.0228l 4.53543, -13.2051l 4.53543, -13.0612l 4.53543, -12.5606l 4.53543, -11.6876l 4.53543, -10.4436l 4.53543, -8.8489l 4.53543, -6.94203l 4.53543, -4.7791l 4.53543, -2.43082l 4.53543,
 0.0212005l 4.53543, 2.48918l 4.53543, 4.88439l 4.53543, 7.12241l 4.53543, 9.1281l 4.53543, 10.8397l 4.53543, 12.2121l 4.53543, 13.2183l 4.53543, 13.85l 4.53543, 14.1167l 4.53543, 14.0437l 4.53543, 13.6688l 4.53543, 13.039l 4.53543, 12.2066l 4.53543,
 11.2254l 4.53543, 10.1473l 4.53543, 9.0199l 4.53543, 7.88364l 4.53543, 6.77094l 4.53543, 5.70539l 4.53543, 4.7017l 4.53543, 3.76629l 4.53543, 2.89822l 4.53543, 2.09043l 4.53543, 1.33118" fill="none" stroke="#0000ff" stroke-width="2"/>
<path d="M281.697,300.975l 4.53543, 0.605527l 4.53543, -0.103164l 4.53543, -0.811741l 4.53543, -1.5359l 4.53543, -2.28887l 4.53543, -3.08026l 4.53543, -3.91504l 4.53543, -4.79263l 4.53543, -5.70633l 4.53543, -6.64289l 4.53543, -7.58249l 4.53543,
 -8.49907l 4.53543, -9.36108l 4.53543, -10.1327l 4.53543, -10.7753l 4.53543, -11.2499l 4.53543, -11.5189l 4.53543, -11.5489l 4.53543, -11.3132l 4.53543, -10.7937l 4.53543, -9.98338l 4.53543, -8.88722l 4.53543, -7.52304l 4.53543, -5.92133l 4.53543,
 -4.12425l 4.53543, -2.1839l 4.53543, -0.159772l 4.53543, 1.88424l 4.53543, 3.88318l 4.53543, 5.77448l 4.53543, 7.50122l 4.53543, 9.01492l 4.53543, 10.2778l 4.53543, 11.2644l 4.53543, 11.9618l 4.53543, 12.3701l 4.53543, 12.5009l 4.53543, 12.3761l
 4.53543, 12.0258l 4.53543, 11.4857l 4.53543, 10.7951l 4.53543, 9.99405l 4.53543, 9.12173l 4.53543, 8.21435l 4.53543, 7.30396l 4.53543, 6.41751l 4.53543, 5.5764l 4.53543, 4.79645l 4.53543, 4.08814" fill="none" stroke="#0000ff" stroke-width="2"/>
<path d="M503.933,319.774l 4.53543, 3.45718" fill="none" stroke="#0000ff" stroke-width="2"/>
<rect x="351.996" y="24.1477" width="204.094" height="133.741" fill="white"/>
<path d="M351.996,157.889h 204.094" fill="none" stroke="black" stroke-width="2"/>
<path d="M556.091,157.889v -133.741" fill="none" stroke="black" stroke-width="2"/>
<path d="M556.091,24.1477h -204.094" fill="none" stroke="black" stroke-width="2"/>
<path d="M351.996,24.1477v 133.741" fill="none" stroke="black" stroke-width="2"/>
<text x="372.971" y="36.7633" fill="black" font-size="13.2892" font-family="Helvetica">
 / ndf 
</text>
<text x="368.133" y="31.926" fill="black" font-size="9.02616" font-family="Helvetica">
2
</text>
<text x="361.361" y="36.7633" fill="black" font-size="13.2892" font-family="Times">
&#0967;
</text>
<text x="480.358" y="36.7633" fill="black" font-size="13.2892" font-family="Helvetica">
 587.7 / 540
</text>
<text x="361.361" y="53.2101" fill="black" font-size="13.2892" font-family="Helvetica">
1-Centroid 
</text>
<text x="524.861" y="53.2101" fill="black" font-size="13.2892" font-family="Helvetica">
 0.7
</text>
<text x="518.089" y="53.2101" fill="black" font-size="13.2892" font-family="Times">
&#0177;
</text>
<text x="481.326" y="53.2101" fill="black" font-size="13.2892" font-family="Helvetica">
  2097 
</text>
<text x="361.361" y="71.5917" fill="black" font-size="13.2892" font-family="Helvetica">
1-FWHM   
</text>
<text x="524.861" y="70.6243" fill="black" font-size="13.2892" font-family="Helvetica">
 0.9
</text>
<text x="518.089" y="70.6243" fill="black" font-size="13.2892" font-family="Times">
&#0177;
</text>
<text x="481.326" y="70.6243" fill="black" font-size="13.2892" font-family="Helvetica">
 116.9 
</text>
<text x="361.361" y="87.071" fill="black" font-size="13.2892" font-family="Helvetica">
1-Counts 
</text>
<text x="511.317" y="87.071" fill="black" font-size="13.2892" font-family="Helvetica">
 112.9
</text>
<text x="504.544" y="87.071" fill="black" font-size="13.2892" font-family="Times">
&#0177;
</text>
<text x="467.781" y="87.071" fill="black" font-size="13.2892" font-family="Helvetica">
  9588 
</text>
<text x="361.361" y="103.518" fill="black" font-size="13.2892" font-family="Helvetica">
2-Centroid 
</text>
<text x="524.861" y="103.518" fill="black" font-size="13.2892" font-family="Helvetica">
 0.6
</text>
<text x="518.089" y="103.518" fill="black" font-size="13.2892" font-family="Times">
&#0177;
</text>
<text x="481.326" y="103.518" fill="black" font-size="13.2892" font-family="Helvetica">
  2376 
</text>
<text x="361.361" y="120.932" fill="black" font-size="13.2892" font-family="Helvetica">
2-Counts 
</text>
<text x="511.317" y="120.932" fill="black" font-size="13.2892" font-family="Helvetica">
 104.0
</text>
<text x="504.544" y="120.932" fill="black" font-size="13.2892" font-family="Times">
&#0177;
</text>
<text x="467.781" y="120.932" fill="black" font-size="13.2892" font-family="Helvetica">
  9566 
</text>
<text x="361.361" y="136.411" fill="black" font-size="13.2892" font-family="Helvetica">
Intercept 
</text>
<text x="518.089" y="137.379" fill="black" font-size="13.2892" font-family="Helvetica">
 0.00
</text>
<text x="511.317" y="137.379" fill="black" font-size="13.2892" font-family="Times">
&#0177;
</text>
<text x="474.553" y="137.379" fill="black" font-size="13.2892" font-family="Helvetica">
 79.77 
</text>
<text x="361.361" y="152.858" fill="black" font-size="13.2892" font-family="Helvetica">
Slope    
</text>
<text x="496.805" y="153.825" fill="black" font-size="13.2892" font-family="Helvetica">
 0.00000
</text>
<text x="490.033" y="153.825" fill="black" font-size="13.2892" font-family="Times">
&#0177;
</text>
<text x="441.66" y="153.825" fill="black" font-size="13.2892" font-family="Helvetica">
0.03184 
</text>
<text x="433.92" y="153.825" fill="black" font-size="13.2892" font-family="Times">
&#8722;
</text>
<text x="431.018" y="153.825" fill="black" font-size="13.2892" font-family="Helvetica">
 
</text>
<path d="M57.1929,334.353h 453.543" fill="none" stroke="black" stroke-width="2"/>
<text x="459.074" y="359.894" fill="black" font-size="12.429" font-family="Helvetica">
Channels
</text>
<path d="M91.1879,325.437v 8.91607" fill="none" stroke="black" stroke-width="2"/>
<path d="M132.645,329.895v 4.45804" fill="none" stroke="black" stroke-width="2"/>
<path d="M174.103,329.895v 4.45804" fill="none" stroke="black" stroke-width="2"/>
<path d="M215.56,329.895v 4.45804" fill="none" stroke="black" stroke-width="2"/>
<path d="M257.017,325.437v 8.91607" fill="none" stroke="black" stroke-width="2"/>
<path d="M298.475,329.895v 4.45804" fill="none" stroke="black" stroke-width="2"/>
<path d="M339.932,329.895v 4.45804" fill="none" stroke="black" stroke-width="2"/>
<path d="M381.389,329.895v 4.45804" fill="none" stroke="black" stroke-width="2"/>
<path d="M422.847,325.437v 8.91607" fill="none" stroke="black" stroke-width="2"/>
<path d="M91.1879,325.437v 8.91607" fill="none" stroke="black" stroke-width="2"/>
<path d="M422.847,325.437v 8.91607" fill="none" stroke="black" stroke-width="2"/>
<path d="M464.304,329.895v 4.45804" fill="none" stroke="black" stroke-width="2"/>
<path d="M505.761,329.895v 4.45804" fill="none" stroke="black" stroke-width="2"/>
<text x="75.9616" y="346.349" fill="black" font-size="12.429" font-family="Helvetica">
2000
</text>
<text x="242.364" y="346.349" fill="black" font-size="12.429" font-family="Helvetica">
2200
</text>
<text x="407.799" y="346.349" fill="black" font-size="12.429" font-family="Helvetica">
2400
</text>
<path d="M57.1929,334.353v -297.202" fill="none" stroke="black" stroke-width="2"/>
<path d="M70.7992,334.353h -13.6063" fill="none" stroke="black" stroke-width="2"/>
<path d="M63.9961,321.001h -6.80315" fill="none" stroke="black" stroke-width="2"/>
<path d="M63.9961,307.65h -6.80315" fill="none" stroke="black" stroke-width="2"/>
<path d="M63.9961,294.298h -6.80315" fill="none" stroke="black" stroke-width="2"/>
<path d="M70.7992,280.947h -13.6063" fill="none" stroke="black" stroke-width="2"/>
<path d="M63.9961,267.596h -6.80315" fill="none" stroke="black" stroke-width="2"/>
<path d="M63.9961,254.244h -6.80315" fill="none" stroke="black" stroke-width="2"/>
<path d="M63.9961,240.893h -6.80315" fill="none" stroke="black" stroke-width="2"/>
<path d="M70.7992,227.541h -13.6063" fill="none" stroke="black" stroke-width="2"/>
<path d="M63.9961,214.19h -6.80315" fill="none" stroke="black" stroke-width="2"/>
<path d="M63.9961,200.839h -6.80315" fill="none" stroke="black" stroke-width="2"/>
<path d="M63.9961,187.487h -6.80315" fill="none" stroke="black" stroke-width="2"/>
<path d="M70.7992,174.136h -13.6063" fill="none" stroke="black" stroke-width="2"/>
<path d="M63.9961,160.784h -6.80315" fill="none" stroke="black" stroke-width="2"/>
<path d="M63.9961,147.433h -6.80315" fill="none" stroke="black" stroke-width="2"/>
<path d="M63.9961,134.082h -6.80315" fill="none" stroke="black" stroke-width="2"/>
<path d="M70.7992,120.73h -13.6063" fill="none" stroke="black" stroke-width="2"/>
<path d="M63.9961,107.379h -6.80315" fill="none" stroke="black" stroke-width="2"/>
<path d="M63.9961,94.0273h -6.80315" fill="none" stroke="black" stroke-width="2"/>
<path d="M63.9961,80.6759h -6.80315" fill="none" stroke="black" stroke-width="2"/>
<path d="M70.7992,67.3245h -13.6063" fill="none" stroke="black" stroke-width="2"/>
<path d="M70.7992,67.3245h -13.6063" fill="none" stroke="black" stroke-width="2"/>
<path d="M63.9961,53.9731h -6.80315" fill="none" stroke="black" stroke-width="2"/>
<path d="M63.9961,40.6217h -6.80315" fill="none" stroke="black" stroke-width="2"/>
<text x="46.9379" y="338.61" fill="black" font-size="12.429" font-family="Helvetica">
0
</text>
<text x="40.1657" y="285.399" fill="black" font-size="12.429" font-family="Helvetica">
20
</text>
<text x="40.1657" y="232.189" fill="black" font-size="12.429" font-family="Helvetica">
40
</text>
<text x="40.1657" y="178.012" fill="black" font-size="12.429" font-family="Helvetica">
60
</text>
<text x="40.1657" y="124.802" fill="black" font-size="12.429" font-family="Helvetica">
80
</text>
<text x="32.426" y="71.5917" fill="black" font-size="12.429" font-family="Helvetica">
100
</text>
<rect x="351.996" y="24.1477" width="204.094" height="133.741" fill="white"/>
<path d="M351.996,157.889h 204.094" fill="none" stroke="black" stroke-width="2"/>
<path d="M556.091,157.889v -133.741" fill="none" stroke="black" stroke-width="2"/>
<path d="M556.091,24.1477h -204.094" fill="none" stroke="black" stroke-width="2"/>
<path d="M351.996,24.1477v 133.741" fill="none" stroke="black" stroke-width="2"/>
<text x="372.971" y="36.7633" fill="black" font-size="13.2892" font-family="Helvetica">
 / ndf 
</text>
<text x="368.133" y="31.926" fill="black" font-size="9.02616" font-family="Helvetica">
2
</text>
<text x="361.361" y="36.7633" fill="black" font-size="13.2892" font-family="Times">
&#0967;
</text>
<text x="480.358" y="36.7633" fill="black" font-size="13.2892" font-family="Helvetica">
 587.7 / 540
</text>
<text x="361.361" y="53.2101" fill="black" font-size="13.2892" font-family="Helvetica">
1-Centroid 
</text>
<text x="524.861" y="53.2101" fill="black" font-size="13.2892" font-family="Helvetica">
 0.7
</text>
<text x="518.089" y="53.2101" fill="black" font-size="13.2892" font-family="Times">
&#0177;
</text>
<text x="481.326" y="53.2101" fill="black" font-size="13.2892" font-family="Helvetica">
  2097 
</text>
<text x="361.361" y="71.5917" fill="black" font-size="13.2892" font-family="Helvetica">
1-FWHM   
</text>
<text x="524.861" y="70.6243" fill="black" font-size="13.2892" font-family="Helvetica">
 0.9
</text>
<text x="518.089" y="70.6243" fill="black" font-size="13.2892" font-family="Times">
&#0177;
</text>
<text x="481.326" y="70.6243" fill="black" font-size="13.2892" font-family="Helvetica">
 116.9 
</text>
<text x="361.361" y="87.071" fill="black" font-size="13.2892" font-family="Helvetica">
1-Counts 
</text>
<text x="511.317" y="87.071" fill="black" font-size="13.2892" font-family="Helvetica">
 112.9
</text>
<text x="504.544" y="87.071" fill="black" font-size="13.2892" font-family="Times">
&#0177;
</text>
<text x="467.781" y="87.071" fill="black" font-size="13.2892" font-family="Helvetica">
  9588 
</text>
<text x="361.361" y="103.518" fill="black" font-size="13.2892" font-family="Helvetica">
2-Centroid 
</text>
<text x="524.861" y="103.518" fill="black" font-size="13.2892" font-family="Helvetica">
 0.6
</text>
<text x="518.089" y="103.518" fill="black" font-size="13.2892" font-family="Times">
&#0177;
</text>
<text x="481.326" y="103.518" fill="black" font-size="13.2892" font-family="Helvetica">
  2376 
</text>
<text x="361.361" y="120.932" fill="black" font-size="13.2892" font-family="Helvetica">
2-Counts 
</text>
<text x="511.317" y="120.932" fill="black" font-size="13.2892" font-family="Helvetica">
 104.0
</text>
<text x="504.544" y="120.932" fill="black" font-size="13.2892" font-family="Times">
&#0177;
</text>
<text x="467.781" y="120.932" fill="black" font-size="13.2892" font-family="Helvetica">
  9566 
</text>
<text x="361.361" y="136.411" fill="black" font-size="13.2892" font-family="Helvetica">
Intercept 
</text>
<text x="518.089" y="137.379" fill="black" font-size="13.2892" font-family="Helvetica">
 0.00
</text>
<text x="511.317" y="137.379" fill="black" font-size="13.2892" font-family="Times">
&#0177;
</text>
<text x="474.553" y="137.379" fill="black" font-size="13.2892" font-family="Helvetica">
 79.77 
</text>
<text x="361.361" y="152.858" fill="black" font-size="13.2892" font-family="Helvetica">
Slope    
</text>
<text x="496.805" y="153.825" fill="black" font-size="13.2892" font-family="Helvetica">
 0.00000
</text>
<text x="490.033" y="153.825" fill="black" font-size="13.2892" font-family="Times">
&#0177;
</text>
<text x="441.66" y="153.825" fill="black" font-size="13.2892" font-family="Helvetica">
0.03184 
</text>
<text x="433.92" y="153.825" fill="black" font-size="13.2892" font-family="Times">
&#8722;
</text>
<text x="431.018" y="153.825" fill="black" font-size="13.2892" font-family="Helvetica">
 
</text>
<path d="M59.4606,329.173l 4.53543, -1.75742l 4.53543, -2.24214l 4.53543, -2.82097l 4.53543, -3.49953l 4.53543, -4.27965l 4.53543, -5.15819l 4.53543, -6.12578l 4.53543, -7.16585l 4.53543, -8.25386l 4.53543, -9.35713l 4.53543, -10.4351l 4.53543,
 -11.4405l 4.53543, -12.3208l 4.53543, -13.0214l 4.53543, -13.4878l 4.53543, -13.6702l 4.53543, -13.5263l 4.53543, -13.0257l 4.53543, -12.1526l 4.53543, -10.9087l 4.53543, -9.31392l 4.53543, -7.40706l 4.53543, -5.24411l 4.53543, -2.89581l 4.53543,
 -0.443752l 4.53543, 2.02429l 4.53543, 4.41959l 4.53543, 6.65777l 4.53543, 8.66371l 4.53543, 10.3757l 4.53543, 11.7487l 4.53543, 12.7558l 4.53543, 13.389l 4.53543, 13.658l 4.53543, 13.5883l 4.53543, 13.2182l 4.53543, 12.5955l 4.53543, 11.7732l
 4.53543, 10.8065l 4.53543, 9.74878l 4.53543, 8.64954l 4.53543, 7.55187l 4.53543, 6.49137l 4.53543, 5.49549l 4.53543, 4.58359l 4.53543, 3.76753l 4.53543, 3.05255l 4.53543, 2.43845l 4.53543, 1.92082" fill="none" stroke="#00ff00" stroke-width="2"/>
<path d="M281.697,328.593l 4.53543, 1.49229l 4.53543, 1.14359l 4.53543, 0.864556l 4.53543, 0.644867l 4.53543, 0.474617l 4.53543, 0.344708l 4.53543, 0.247075l 4.53543, 0.174786l 4.53543, 0.122043l 4.53543, 0.0841149l 4.53543, 0.0572284l 4.53543,
 0.038437l 4.53543, 0.0254863l 4.53543, 0.0454846h 158.74" fill="none" stroke="#00ff00" stroke-width="2"/>
<path d="M503.933,334.353h 4.53543" fill="none" stroke="#00ff00" stroke-width="2"/>
<path d="M59.4606,334.353h 158.74l 4.53543, -0.0413187l 4.53543, -0.0215055l 4.53543, -0.0316858l 4.53543, -0.0461591l 4.53543, -0.0664831l 4.53543, -0.0946695l 4.53543, -0.133271l 4.53543, -0.185466l 4.53543, -0.255139l 4.53543, -0.346933l 4.53543,
 -0.466279l 4.53543, -0.619367l 4.53543, -0.81305l 4.53543, -1.05468" fill="none" stroke="#00ff00" stroke-width="2"/>
<path d="M281.697,330.177l 4.53543, -1.3518l 4.53543, -1.71179l 4.53543, -2.14134l 4.53543, -2.6458l 4.53543, -3.22852l 4.53543, -3.89001l 4.53543, -4.62715l 4.53543, -5.43246l 4.53543, -6.29341l 4.53543, -7.19204l 4.53543, -8.10476l 4.53543,
 -9.00255l 4.53543, -9.8516l 4.53543, -10.6144l 4.53543, -11.2512l 4.53543, -11.7218l 4.53543, -11.9883l 4.53543, -12.0167l 4.53543, -11.7799l 4.53543, -11.2597l 4.53543, -10.449l 4.53543, -9.35262l 4.53543, -7.98829l 4.53543, -6.38649l 4.53543,
 -4.58936l 4.53543, -2.64898l 4.53543, -0.624832l 4.53543, 1.41919l 4.53543, 3.41813l 4.53543, 5.30944l 4.53543, 7.03618l 4.53543, 8.54989l 4.53543, 9.81279l 4.53543, 10.7993l 4.53543, 11.4967l 4.53543, 11.905l 4.53543, 12.0358l 4.53543, 11.9111l
 4.53543, 11.5608l 4.53543, 11.0207l 4.53543, 10.33l 4.53543, 9.52901l 4.53543, 8.65669l 4.53543, 7.74931l 4.53543, 6.83893l 4.53543, 5.95247l 4.53543, 5.11136l 4.53543, 4.33141l 4.53543, 3.6231" fill="none" stroke="#00ff00" stroke-width="2"/>
<path d="M503.933,320.429l 4.53543, 2.99214" fill="none" stroke="#00ff00" stroke-width="2"/>
<text x="217.21" y="18.3817" fill="black" font-size="18.6065" font-family="Helvetica">
Co60_700V.Spe
</text></svg>
