<?xml version="1.0" standalone="no"?>
<svg width="567.429" height="386.892" viewBox="0 0 567.429 386.892" xmlns="http://www.w3.org/2000/svg">
<title>
/home/ADF/hyw543/Attenuation/Calib/c1.svg
</title>
<desc>
Creator: ROOT Version 6.06/08
CreationDate: Mon Jan  7 23:11:00 2019</desc>
<defs>
</defs>
<rect x="0.5" y="0" width="566.929" height="386.392" fill="white"/>
<rect x="57.1929" y="38.6393" width="453.543" height="309.114" fill="white"/>
<rect x="57.1929" y="38.6393" width="453.543" height="309.114" fill="none" stroke="black"/>
<rect x="57.1929" y="38.6393" width="453.543" height="309.114" fill="white"/>
<rect x="57.1929" y="38.6393" width="453.543" height="309.114" fill="none" stroke="black"/>
<path d="M57.1929,269.989h 0.32961v 22.2184h 0.32961v -16.6638h 0.32961v -5.55461h 0.32961v 16.6638h 0.32961v 5.55461h 0.32961v -11.1092h 0.32961v 44.4369h 0.32961v -61.1007h 0.32961v 16.6638h 0.32961v -11.1092h 0.32961v 33.3277h 0.65922v -16.6638h
 0.65922v -16.6638h 0.32961v 33.3277h 0.32961v -27.773h 0.32961v -16.6638h 0.32961v 5.55461h 0.32961v 44.4369h 0.32961v -11.1092h 0.32961v -22.2184h 0.32961v -5.55461h 0.32961v 16.6638h 0.32961v -11.1092h 0.32961v 5.55461h 0.32961v -11.1092h 0.32961v
 5.55461h 0.32961v 33.3277h 0.32961v -27.773h 0.32961v 5.55461h 0.32961v -27.773h 0.32961v 5.55461h 0.32961v 27.773h 0.32961v -11.1092h 0.32961v 11.1092h 0.32961v -16.6638h 0.32961v 5.55461h 0.32961v -16.6638h 0.32961v -5.55461h 0.32961v 5.55461h
 0.32961v 38.8823h 0.65922v -22.2184h 0.32961v 22.2184h 0.32961v -27.773h 0.32961v 38.8823h 0.32961v -61.1007h 0.32961v 44.4369h 0.32961v -22.2184h 0.32961v 22.2184h 0.32961v -27.773h 0.32961v -22.2184h 0.32961v 55.5461h 0.32961v -38.8823h 0.32961v
 -27.773h 0.32961v 16.6638h 0.32961v -11.1092h 0.32961v 38.8823h 0.32961v -16.6638h 0.65922v -11.1092h 0.32961v 22.2184h 0.65922v 11.1092h 0.32961v -49.9915h 0.32961v 11.1092h 0.32961v 27.773h 0.32961v -33.3277h 0.32961v -16.6638h 0.32961v 44.4369h
 0.32961v 16.6638h 0.32961v -5.55461h 0.32961v -55.5461h 0.32961v 77.7645h 0.32961v -55.5461h 0.32961v 11.1092h 0.32961v 38.8823h 0.32961v -16.6638h 0.32961v -22.2184h 0.32961v 38.8823h 0.32961v -33.3277h 0.32961v 11.1092h 0.65922v -5.55461h 0.32961v
 -33.3277h 0.65922v 5.55461h 0.65922v 33.3277h 0.32961v -33.3277h 0.32961v -16.6638h 0.32961v 22.2184h 0.32961v 16.6638h 0.32961v -5.55461h 0.32961v -27.773h 0.32961v 33.3277h 0.32961v -38.8823h 0.32961v 5.55461h 0.32961v 22.2184h 0.32961v -22.2184h
 0.32961v -11.1092h 0.32961v 22.2184h 0.32961v -11.1092h 0.32961v 11.1092h 0.65922v 22.2184h 0.32961v -33.3277h 0.98883v 22.2184h 0.32961v -5.55461h 0.32961v -49.9915h 0.32961v 72.2099h 0.32961v -49.9915h 0.32961v 27.773h 0.65922v -44.4369h 0.32961v
 27.773h 0.32961v 5.55461h 0.32961v -27.773h 0.65922v 55.5461h 0.32961v -22.2184h 0.65922v -49.9915h 0.32961v 33.3277h 0.65922v -11.1092h 0.32961v 27.773h 0.32961v -44.4369h 0.32961v 33.3277h 0.32961v -16.6638h 0.65922v -38.8823h 0.32961v 66.6553h
 0.32961v -38.8823h 0.32961v 27.773h 0.65922v -11.1092h 0.32961v 49.9915h 0.32961v -49.9915h 0.32961v 16.6638h 0.32961v -38.8823h 0.32961v 66.6553h 0.32961v 11.1092h 0.32961v -88.8737h 0.32961v 27.773h 0.32961v 55.5461h 0.32961v -77.7645h 0.32961v
 27.773h 0.32961v -27.773h 0.32961v 55.5461h 0.32961v -16.6638h 0.32961v -22.2184h 0.32961v 44.4369h 0.32961v -55.5461h 0.32961v 22.2184h 0.32961v -27.773h 0.32961v 16.6638h 0.32961v 11.1092h 0.32961v -11.1092h 0.32961v 5.55461h 0.32961v -11.1092h
 0.32961v 33.3277h 0.32961v -49.9915h 0.32961v 72.2099h 0.32961v -66.6553h 0.32961v -11.1092h 0.32961v 61.1007h 0.32961v -44.4369h 0.65922v 16.6638h 0.32961v -88.8737h 0.32961v 88.8737h 0.32961v -16.6638h 0.32961v 5.55461h 0.32961v 16.6638h 0.65922v
 -22.2184h 0.32961v 11.1092h 0.32961v -5.55461h 0.32961v 38.8823h 0.32961v -44.4369h 0.32961v -49.9915h 0.32961v 55.5461h 0.32961v -33.3277h 0.32961v -5.55461h 0.32961v 27.773h 0.32961v 27.773h 0.32961v 16.6638h 0.32961v -27.773h 0.32961v -22.2184h
 0.32961v 22.2184h 0.32961v -33.3277h 0.32961v 5.55461h 0.65922v 38.8823h 0.32961v -77.7645h 0.32961v 61.1007h 0.32961v -16.6638h 0.32961v -33.3277h 0.32961v 49.9915h 0.32961v 11.1092h 0.32961v -11.1092h 0.32961v -5.55461h 0.32961v 11.1092h 0.32961v
 -55.5461h 0.32961v -11.1092h 0.32961v 44.4369h 0.32961v -16.6638h 0.32961v 22.2184h 0.32961v -27.773h 0.32961v 22.2184h 0.32961v 22.2184h 0.32961v -27.773h 0.32961v -11.1092h 0.32961v 5.55461h 0.32961v -5.55461h 0.32961v -5.55461h 0.32961v 55.5461h
 0.32961v -27.773h 0.32961v 22.2184h 0.32961v -44.4369h 0.32961v 27.773h 0.65922v -16.6638h 0.32961v -5.55461h 0.32961v 16.6638h 0.32961v -27.773h 0.32961v 33.3277h 0.32961v 5.55461h 0.65922v -5.55461h 0.32961v 5.55461h 0.32961v -72.2099h 0.32961v
 99.983h 0.32961v -5.55461h 0.32961v -38.8823h 0.32961v -38.8823h 0.32961v 22.2184h 0.32961v -49.9915h 0.32961v 72.2099h 0.32961v -44.4369h 0.32961v 38.8823h 0.32961v -16.6638h 0.32961v 11.1092h 0.32961v -16.6638h 0.98883v 44.4369h 0.32961v -27.773h
 0.32961v 11.1092h 0.32961v 11.1092h 0.65922v -83.3191h 0.32961v 77.7645h 0.32961v -33.3277h 0.32961v 33.3277h 0.32961v -44.4369h 0.32961v 38.8823h 0.32961v -16.6638h 0.32961v 22.2184h 0.32961v 22.2184h 0.32961v -72.2099h 0.32961v -38.8823h 0.32961v
 61.1007h 0.32961v -44.4369h 0.32961v 88.8737h 0.32961v -49.9915h 0.32961v 44.4369h 0.32961v -11.1092h 0.32961v 5.55461h 0.32961v -22.2184h 0.32961v -38.8823h 0.32961v -16.6638h 0.32961v 61.1007h 0.32961v -5.55461h 0.32961v -5.55461h 0.32961v
 16.6638h 0.32961v -16.6638h 0.32961v -38.8823h 0.32961v 11.1092h 0.32961v 5.55461h 0.32961v -38.8823h 0.32961v 49.9915h 0.32961v 55.5461h 0.32961v -44.4369h 0.32961v 38.8823h 0.32961v -61.1007h 0.32961v 44.4369h 0.32961v -33.3277h 0.65922v 11.1092h
 0.32961v 16.6638h 0.32961v -33.3277h 0.65922v -11.1092h 0.32961v 72.2099h 0.32961v -27.773h 0.32961v -22.2184h 0.65922v -16.6638h 0.32961v 55.5461h 0.32961v -44.4369h 0.65922v -5.55461h 0.32961v -22.2184h 0.32961v 38.8823h 0.32961v -5.55461h
 0.32961v -72.2099h 0.32961v 33.3277h 0.32961v 22.2184h 0.32961v 44.4369h 0.32961v 38.8823h 0.32961v -83.3191h 0.65922v -38.8823h 0.32961v -61.1007h 0.32961v 33.3277h 0.32961v 83.3191h 0.32961v 16.6638h 0.32961v 44.4369h 0.32961v -27.773h 0.32961v
 -38.8823h 0.32961v -27.773h 0.32961v 33.3277h 0.32961v 44.4369h 0.32961v -44.4369h 0.32961v -5.55461h 0.32961v 5.55461h 0.32961v -11.1092h 0.32961v -66.6553h 0.32961v 66.6553h 0.32961v 5.55461h 0.65922v 27.773h 0.32961v -11.1092h 0.32961v 44.4369h
 0.32961v -77.7645h 0.32961v 22.2184h 0.32961v -11.1092h 0.32961v 49.9915h 0.32961v 27.773h 0.32961v -66.6553h 0.32961v 61.1007h 0.32961v -44.4369h 0.65922v -5.55461h 0.32961v -83.3191h 0.32961v 33.3277h 0.32961v 49.9915h 0.32961v 55.5461h 0.32961v
 -44.4369h 0.32961v -5.55461h 0.32961v 11.1092h 0.32961v -16.6638h 0.32961v -72.2099h 0.32961v 116.647h 0.32961v -27.773h 0.65922v 49.9915h 0.32961v -55.5461h 0.32961v -22.2184h 0.32961v -38.8823h 0.32961v 49.9915h 0.32961v 22.2184h 0.32961v 66.6553h
 0.32961v -55.5461h 0.32961v -27.773h 0.32961v -27.773h 0.65922v 49.9915h 0.32961v -66.6553h 0.32961v 55.5461h 0.32961v 38.8823h 0.32961v -105.538h 0.32961v 105.538h 0.32961v -33.3277h 0.32961v 11.1092h 0.32961v -5.55461h 0.32961v 44.4369h 0.32961v
 -44.4369h 0.32961v -16.6638h 0.32961v 38.8823h 0.32961v 5.55461h 0.32961v -44.4369h 0.32961v 44.4369h 0.32961v 5.55461h 0.32961v -49.9915h 0.32961v 61.1007h 0.32961v -105.538h 0.32961v 44.4369h 0.32961v 22.2184h 0.32961v 22.2184h 0.32961v -33.3277h
 0.32961v -11.1092h 0.32961v 72.2099h 0.32961v -55.5461h 0.32961v 44.4369h 0.32961v -27.773h 0.65922v -49.9915h 0.65922v 44.4369h 0.32961v -5.55461h 0.32961v -5.55461h 0.32961v 72.2099h 0.32961v -44.4369h 0.32961v -38.8823h 0.32961v 49.9915h 0.32961v
 -11.1092h 0.32961v 22.2184h 0.32961v -77.7645h 0.32961v 38.8823h 0.32961v 16.6638h 0.32961v -27.773h 0.32961v 27.773h 0.32961v -16.6638h 0.32961v -27.773h 0.32961v 55.5461h 0.32961v 5.55461h 0.32961v -44.4369h 0.32961v 11.1092h 0.32961v 5.55461h
 0.32961v 22.2184h 0.32961v 16.6638h 0.32961v -44.4369h 0.32961v 38.8823h 0.32961v -33.3277h 0.65922v 22.2184h 0.32961v -33.3277h 0.32961v 38.8823h 0.32961v 5.55461h 0.65922v -38.8823h 0.32961v 49.9915h 0.32961v -38.8823h 0.32961v 11.1092h 0.32961v
 22.2184h 0.32961v -22.2184h 0.32961v 61.1007h 0.32961v -66.6553h 0.32961v 49.9915h 0.32961v -61.1007h 0.32961v 38.8823h 0.32961v 5.55461h 0.32961v -33.3277h 0.32961v 11.1092h 0.32961v 33.3277h 0.32961v -27.773h 0.32961v -72.2099h 0.32961v 72.2099h
 0.32961v 16.6638h 0.65922v -66.6553h 0.32961v 77.7645h 0.32961v -11.1092h 0.32961v 5.55461h 0.32961v -5.55461h 0.32961v -16.6638h 0.32961v -22.2184h 0.98883v 61.1007h 0.32961v -11.1092h 0.32961v -16.6638h 0.32961v 5.55461h 0.32961v -11.1092h
 0.32961v 27.773h 0.65922v -38.8823h 0.32961v 27.773h 0.32961v 16.6638h 0.32961v -44.4369h 0.32961v 5.55461h 0.32961v 16.6638h 0.32961v 5.55461h 0.32961v -33.3277h 0.32961v 11.1092h 0.32961v 11.1092h 0.32961v 27.773h 0.32961v -66.6553h 0.32961v
 11.1092h 0.32961v 27.773h 0.32961v 11.1092h 0.32961v 27.773h 0.32961v 11.1092h 0.32961v -22.2184h 0.32961v -33.3277h 0.32961v 11.1092h 0.32961v -11.1092h 0.32961v -22.2184h 0.32961v 27.773h 0.32961v 33.3277h 0.32961v -44.4369h 0.32961v 66.6553h
 0.32961v -72.2099h 0.32961v 44.4369h 0.32961v -22.2184h 0.32961v 16.6638h 0.32961v -16.6638h 0.32961v 16.6638h 0.32961v -22.2184h 0.32961v 11.1092h 0.32961v 33.3277h 0.32961v -22.2184h 0.32961v 5.55461h 0.32961v -38.8823h 0.32961v 49.9915h 0.65922v
 5.55461h 0.32961v -22.2184h 0.32961v -22.2184h 0.32961v 38.8823h 0.32961v -27.773h 0.32961v 27.773h 0.32961v 11.1092h 0.32961v -22.2184h 0.32961v -22.2184h 0.32961v 27.773h 0.32961v 11.1092h 0.32961v -5.55461h 0.32961v -11.1092h 0.32961v 5.55461h
 0.65922v 11.1092h 0.32961v 5.55461h 0.32961v -16.6638h 0.32961v -22.2184h 0.32961v 22.2184h 0.32961v -5.55461h 0.65922v 11.1092h 0.32961v -22.2184h 0.32961v 38.8823h 0.32961v -5.55461h 0.32961v -33.3277h 0.32961v 11.1092h 0.32961v 11.1092h 0.32961v
 -11.1092h 0.32961v -5.55461h 0.32961v 22.2184h 0.32961v 22.2184h 0.32961v -61.1007h 0.32961v 55.5461h 0.32961v -27.773h 0.65922v 27.773h 0.32961v -11.1092h 0.32961v -5.55461h 0.32961v 16.6638h 0.32961v -16.6638h 0.32961v -5.55461h 0.32961v 33.3277h
 0.32961v -27.773h 0.32961v -5.55461h 0.32961v 5.55461h 0.32961v -22.2184h 0.32961v 22.2184h 0.32961v -11.1092h 0.32961v -5.55461h 0.32961v -11.1092h 0.32961v 22.2184h 0.32961v -11.1092h 0.32961v 11.1092h 0.32961v 5.55461h 0.32961v 11.1092h 0.32961v
 5.55461h 0.32961v -11.1092h 0.65922v -22.2184h 0.32961v 11.1092h 0.32961v 16.6638h 0.32961v -5.55461h 0.32961v -5.55461h 0.32961v 5.55461h 0.32961v -16.6638h 0.32961v 16.6638h 0.32961v 16.6638h 0.32961v -27.773h 0.32961v 27.773h 0.65922v -11.1092h
 0.32961v -5.55461h 0.32961v 5.55461h 0.32961v 11.1092h 0.32961v -11.1092h 0.32961v 11.1092h 0.65922v -16.6638h 0.32961v 11.1092h 0.32961v -11.1092h 0.32961v 16.6638h 0.32961v -27.773h 0.32961v -5.55461h 0.32961v 5.55461h 0.32961v 22.2184h 0.32961v
 5.55461h 0.65922v -22.2184h 0.32961v 11.1092h 0.32961v 5.55461h 0.32961v -16.6638h 0.32961v 5.55461h 0.32961v -16.6638h 0.32961v 16.6638h 0.32961v -5.55461h 0.32961v 22.2184h 0.32961v -16.6638h 0.32961v -5.55461h 0.32961v 11.1092h 0.32961v 5.55461h
 0.32961v 16.6638h 0.32961v -16.6638h 0.32961v -5.55461h 0.32961v -5.55461h 0.32961v 22.2184h 0.32961v -5.55461h 0.32961v -22.2184h 0.32961v 5.55461h 0.32961v -11.1092h 0.32961v 27.773h 0.32961v -16.6638h 0.98883v 11.1092h 0.32961v -5.55461h 0.32961v
 16.6638h 0.32961v -11.1092h 0.32961v 16.6638h 0.32961v -38.8823h 0.32961v 33.3277h 0.65922v -22.2184h 0.32961v 11.1092h 0.32961v 5.55461h 0.32961v -11.1092h 0.32961v 11.1092h 0.32961v -22.2184h 0.32961v 16.6638h 0.32961v 16.6638h 0.32961v -27.773h
 0.32961v 22.2184h 0.32961v -11.1092h 0.32961v -16.6638h 0.32961v 27.773h 0.65922v -16.6638h 0.32961v -22.2184h 0.32961v 22.2184h 0.32961v 22.2184h 0.32961v -11.1092h 0.32961v 5.55461h 0.65922v -22.2184h 0.32961v 16.6638h 0.32961v -5.55461h 0.32961v
 11.1092h 0.32961v -16.6638h 0.32961v 11.1092h 0.32961v -5.55461h 0.32961v -11.1092h 0.32961v 16.6638h 0.32961v -11.1092h 0.65922v -5.55461h 0.32961v 11.1092h 0.65922v 5.55461h 0.98883v 5.55461h 0.32961v -11.1092h 0.32961v -5.55461h 0.32961v 22.2184h
 0.65922v -27.773h 0.32961v 5.55461h 0.32961v 11.1092h 0.32961v 11.1092h 0.32961v -27.773h 0.32961v 22.2184h 0.32961v -27.773h 0.32961v 27.773h 0.32961v -5.55461h 0.32961v -11.1092h 0.32961v -22.2184h 0.32961v 44.4369h 0.32961v -38.8823h 0.32961v
 11.1092h 0.32961v -22.2184h 0.32961v -5.55461h 0.32961v 38.8823h 0.32961v -11.1092h 0.32961v 16.6638h 0.32961v -11.1092h 0.32961v 5.55461h 0.32961v -11.1092h 0.32961v 5.55461h 1.31844v -11.1092h 0.32961v -5.55461h 0.32961v 22.2184h 0.65922v 16.6638h
 0.32961v -38.8823h 0.32961v 16.6638h 0.32961v 16.6638h 0.32961v -11.1092h 0.32961v -5.55461h 0.65922v -5.55461h 0.32961v 27.773h 0.32961v -5.55461h 0.32961v -5.55461h 0.32961v -27.773h 0.32961v 5.55461h 0.32961v -5.55461h 0.32961v 11.1092h 0.32961v
 16.6638h 1.31844v -11.1092h 0.32961v 16.6638h 0.32961v -33.3277h 0.32961v 11.1092h 0.32961v 5.55461h 0.32961v -11.1092h 0.32961v 33.3277h 0.32961v -33.3277h 0.32961v -11.1092h 0.32961v 22.2184h 0.32961v 5.55461h 0.32961v 5.55461h 0.32961v -33.3277h
 0.32961v 22.2184h 0.32961v -5.55461h 0.32961v 11.1092h 0.32961v -16.6638h 0.65922v 5.55461h 0.32961v 16.6638h 0.32961v -27.773h 0.32961v 27.773h 0.98883v -16.6638h 0.32961v -5.55461h 0.32961v 16.6638h 0.32961v -5.55461h 0.32961v 5.55461h 0.32961v
 -11.1092h 0.98883v 11.1092h 0.32961v -27.773h 0.32961v 27.773h 0.32961v -16.6638h 0.65922v 5.55461h 0.32961v -27.773h 0.32961v 49.9915h 0.32961v -16.6638h 0.32961v 16.6638h 0.32961v -16.6638h 0.32961v -5.55461h 0.32961v -27.773h 0.32961v 27.773h
 0.32961v 11.1092h 0.32961v -11.1092h 0.32961v 5.55461h 0.65922v -11.1092h 0.32961v 16.6638h 0.32961v -11.1092h 0.32961v -11.1092h 0.32961v 27.773h 0.32961v -27.773h 0.32961v -5.55461h 0.32961v 11.1092h 0.32961v 22.2184h 0.32961v -27.773h 0.32961v
 16.6638h 0.65922v -22.2184h 0.65922v 5.55461h 0.32961v 11.1092h 0.32961v -16.6638h 0.32961v 16.6638h 0.32961v 11.1092h 0.32961v -11.1092h 0.32961v -5.55461h 0.32961v 16.6638h 0.32961v -5.55461h 0.32961v -16.6638h 0.32961v 5.55461h 0.32961v 11.1092h
 0.32961v -16.6638h 0.32961v 11.1092h 0.32961v -27.773h 0.32961v -5.55461h 0.32961v 33.3277h 0.32961v -11.1092h 0.65922v 11.1092h 0.32961v -11.1092h 0.32961v -5.55461h 0.65922v -11.1092h 0.32961v -16.6638h 0.32961v 55.5461h 0.32961v -49.9915h
 0.32961v 27.773h 0.32961v -38.8823h 0.32961v 11.1092h 0.32961v 44.4369h 0.32961v -22.2184h 0.32961v 11.1092h 0.32961v -5.55461h 0.32961v 11.1092h 0.32961v -11.1092h 0.32961v -11.1092h 0.98883v 5.55461h 0.32961v -44.4369h 0.32961v 44.4369h 0.32961v
 -16.6638h 0.32961v 33.3277h 0.32961v -5.55461h 0.32961v -33.3277h 0.32961v 5.55461h 0.32961v -5.55461h 0.98883v -5.55461h 0.32961v 5.55461h 0.32961v 22.2184h 0.32961v -44.4369h 0.32961v 49.9915h 0.32961v -16.6638h 0.32961v -5.55461h 0.32961v
 16.6638h 0.32961v -55.5461h 0.32961v 66.6553h 0.32961v -66.6553h 0.32961v 38.8823h 0.32961v 27.773h 0.32961v -44.4369h 0.32961v 55.5461h 0.32961v -27.773h 0.65922v 16.6638h 0.65922v -66.6553h 0.32961v 38.8823h 0.65922v -5.55461h 0.32961v -49.9915h
 0.32961v 5.55461h 0.32961v 49.9915h 0.32961v 16.6638h 0.32961v -27.773h 0.32961v 11.1092h 0.65922v 5.55461h 0.32961v -16.6638h 0.32961v -5.55461h 0.32961v 11.1092h 0.32961v -22.2184h 0.32961v -11.1092h 0.32961v 16.6638h 0.32961v 27.773h 0.32961v
 -11.1092h 0.32961v -5.55461h 0.32961v -11.1092h 0.32961v 22.2184h 0.32961v -38.8823h 0.32961v 27.773h 0.32961v -27.773h 0.32961v 16.6638h 0.32961v -5.55461h 0.32961v 11.1092h 0.32961v 22.2184h 0.32961v -49.9915h 0.32961v 38.8823h 0.32961v -5.55461h
 0.32961v 11.1092h 0.32961v -44.4369h 0.32961v 11.1092h 0.32961v 33.3277h 0.32961v -11.1092h 0.32961v -22.2184h 0.32961v -16.6638h 0.32961v -5.55461h 0.32961v 27.773h 0.32961v 5.55461h 0.65922v 5.55461h 0.65922v -33.3277h 0.32961v 16.6638h 0.32961v
 -27.773h 0.32961v 27.773h 0.32961v 16.6638h 0.32961v -22.2184h 0.32961v -22.2184h 0.32961v 33.3277h 0.32961v 72.2099h 0.32961v -77.7645h 0.32961v 22.2184h 0.32961v -38.8823h 0.32961v 22.2184h 0.32961v 5.55461h 0.32961v 22.2184h 0.32961v -22.2184h
 0.32961v 16.6638h 0.32961v -66.6553h 0.32961v 27.773h 0.65922v 11.1092h 0.32961v 27.773h 0.32961v -38.8823h 0.32961v -33.3277h 0.32961v 55.5461h 0.32961v -11.1092h 0.65922v 11.1092h 0.98883v 16.6638h 0.32961v -11.1092h 0.32961v -5.55461h 0.32961v
 -77.7645h 0.32961v 44.4369h 0.32961v 16.6638h 0.32961v -27.773h 0.32961v -27.773h 0.32961v 44.4369h 0.32961v -11.1092h 0.32961v 61.1007h 0.32961v -88.8737h 0.32961v 33.3277h 0.32961v -55.5461h 0.32961v 44.4369h 0.32961v 5.55461h 0.32961v 38.8823h
 0.32961v -66.6553h 0.32961v 55.5461h 0.32961v -61.1007h 0.32961v 55.5461h 0.32961v 16.6638h 0.32961v -16.6638h 0.32961v -38.8823h 0.32961v 72.2099h 0.32961v -55.5461h 0.32961v 22.2184h 0.32961v -49.9915h 0.32961v 11.1092h 0.32961v 16.6638h 0.32961v
 -11.1092h 0.32961v 11.1092h 0.32961v 11.1092h 0.32961v 22.2184h 0.65922v -33.3277h 0.32961v -27.773h 0.32961v 44.4369h 0.32961v 16.6638h 0.32961v -27.773h 0.32961v -5.55461h 0.32961v 11.1092h 0.32961v -33.3277h 0.32961v 22.2184h 0.32961v 16.6638h
 0.32961v 33.3277h 0.32961v -49.9915h 0.32961v 5.55461h 0.32961v -11.1092h 0.32961v -27.773h 0.32961v -11.1092h 0.32961v 22.2184h 0.32961v 5.55461h 0.32961v 11.1092h 0.32961v -5.55461h 0.32961v -22.2184h 0.32961v 27.773h 0.32961v -77.7645h 0.32961v
 83.3191h 0.32961v 16.6638h 0.32961v -33.3277h 0.32961v 11.1092h 0.32961v -49.9915h 0.32961v 49.9915h 0.32961v -16.6638h 0.32961v 33.3277h 0.32961v -5.55461h 0.32961v -22.2184h 0.32961v 27.773h 0.32961v -49.9915h 0.32961v 11.1092h 0.32961v 22.2184h
 0.32961v 49.9915h 0.32961v -77.7645h 0.32961v 11.1092h 0.32961v -5.55461h 0.32961v -5.55461h 0.32961v 27.773h 0.32961v 16.6638h 0.32961v -11.1092h 0.32961v -44.4369h 0.32961v 16.6638h 0.32961v -16.6638h 0.32961v -33.3277h 0.32961v 44.4369h 0.65922v
 -11.1092h 0.32961v 5.55461h 0.32961v 49.9915h 0.32961v -72.2099h 0.32961v 49.9915h 0.32961v 44.4369h 0.32961v -27.773h 0.32961v -38.8823h 0.32961v 38.8823h 0.32961v -27.773h 0.32961v 27.773h 0.32961v -16.6638h 0.65922v -16.6638h 0.32961v 5.55461h
 0.32961v -22.2184h 0.32961v 22.2184h 0.32961v 11.1092h 0.32961v 16.6638h 0.32961v -44.4369h 0.32961v -5.55461h 0.32961v 61.1007h 0.32961v -49.9915h 0.98883v 16.6638h 0.32961v -22.2184h 0.32961v 5.55461h 0.32961v 27.773h 0.32961v -27.773h 0.32961v
 16.6638h 0.32961v -22.2184h 0.32961v 33.3277h 0.32961v -16.6638h 0.65922v 33.3277h 0.32961v -49.9915h 0.32961v 33.3277h 0.32961v 33.3277h 0.32961v -38.8823h 0.32961v -33.3277h 0.32961v 5.55461h 0.32961v 16.6638h 0.32961v 22.2184h 0.32961v -44.4369h
 0.32961v 27.773h 0.32961v 16.6638h 0.32961v -27.773h 0.32961v 22.2184h 0.32961v -33.3277h 0.32961v -55.5461h 0.32961v 55.5461h 0.32961v 5.55461h 0.32961v 55.5461h 0.32961v -49.9915h 0.65922v -16.6638h 0.32961v 33.3277h 0.32961v -16.6638h 0.32961v
 5.55461h 0.32961v 5.55461h 0.32961v -22.2184h 0.32961v 49.9915h 0.32961v -27.773h 0.65922v -49.9915h 0.32961v 27.773h 0.32961v 33.3277h 0.32961v 11.1092h 0.32961v 11.1092h 0.32961v -77.7645h 0.32961v 77.7645h 0.32961v -27.773h 0.32961v -61.1007h
 0.32961v 55.5461h 0.32961v 5.55461h 0.32961v 44.4369h 0.32961v -66.6553h 0.32961v 38.8823h 0.32961v -44.4369h 0.32961v 27.773h 0.32961v -33.3277h 0.32961v 44.4369h 0.32961v 27.773h 0.32961v -49.9915h 0.32961v 16.6638h 0.32961v 16.6638h 0.32961v
 -22.2184h 0.32961v -5.55461h 0.32961v 16.6638h 0.32961v 5.55461h 0.32961v -22.2184h 0.32961v 5.55461h 0.32961v -5.55461h 0.32961v 44.4369h 0.32961v -5.55461h 0.32961v -38.8823h 1.31844v 72.2099h 0.32961v -16.6638h 0.32961v -33.3277h 0.32961v
 16.6638h 0.32961v -16.6638h 0.32961v -11.1092h 0.32961v -44.4369h 0.32961v 33.3277h 0.32961v -27.773h 0.32961v 55.5461h 0.32961v -16.6638h 0.65922v -22.2184h 0.32961v -11.1092h 0.32961v -38.8823h 0.32961v 99.983h 0.32961v -38.8823h 0.32961v 11.1092h
 0.32961v 22.2184h 0.32961v -49.9915h 0.32961v 5.55461h 0.32961v 16.6638h 0.32961v -11.1092h 0.32961v 44.4369h 0.32961v -22.2184h 0.32961v -38.8823h 0.32961v 49.9915h 0.32961v -38.8823h 0.32961v 22.2184h 0.32961v 5.55461h 0.32961v 16.6638h 0.32961v
 -11.1092h 0.32961v 22.2184h 0.32961v -33.3277h 0.32961v -16.6638h 0.32961v -11.1092h 0.32961v 44.4369h 0.32961v -61.1007h 0.32961v 55.5461h 0.32961v 22.2184h 0.32961v -5.55461h 0.32961v 5.55461h 0.32961v -33.3277h 0.32961v 61.1007h 0.32961v
 -33.3277h 0.32961v 22.2184h 0.32961v -61.1007h 0.32961v 11.1092h 0.32961v 33.3277h 0.32961v -5.55461h 0.32961v 16.6638h 0.32961v -22.2184h 0.32961v -5.55461h 0.32961v 11.1092h 0.32961v 11.1092h 0.32961v -5.55461h 0.32961v 16.6638h 0.32961v -38.8823h
 0.32961v 27.773h 0.32961v -16.6638h 0.32961v 22.2184h 0.32961v -27.773h 0.32961v 22.2184h 0.32961v 5.55461h 0.32961v -55.5461h 0.32961v 66.6553h 0.32961v -27.773h 0.32961v 11.1092h 0.32961v -33.3277h 0.32961v 49.9915h 0.32961v -27.773h 0.32961v
 5.55461h 0.32961v -27.773h 0.32961v 49.9915h 0.32961v -44.4369h 0.32961v 49.9915h 0.32961v -33.3277h 0.32961v 22.2184h 0.32961v -33.3277h 0.65922v 55.5461h 0.32961v -72.2099h 0.32961v 38.8823h 0.65922v 5.55461h 0.32961v 11.1092h 0.65922v -33.3277h
 0.32961v 38.8823h 0.32961v -38.8823h 0.32961v -11.1092h 0.32961v 38.8823h 0.32961v 27.773h 0.32961v -16.6638h 0.32961v -33.3277h 0.32961v -5.55461h 0.32961v 5.55461h 0.32961v 44.4369h 0.32961v -66.6553h 0.32961v 61.1007h 0.32961v -27.773h 0.32961v
 16.6638h 0.32961v -5.55461h 0.32961v -38.8823h 0.32961v -11.1092h 0.32961v 61.1007h 0.32961v -38.8823h 0.32961v 38.8823h 0.32961v -5.55461h 0.32961v -16.6638h 0.32961v 16.6638h 0.32961v 49.9915h 0.32961v -44.4369h 0.32961v -49.9915h 0.32961v
 5.55461h 0.65922v 66.6553h 0.32961v -44.4369h 0.32961v 27.773h 0.65922v -11.1092h 0.32961v 11.1092h 0.32961v -5.55461h 0.32961v 16.6638h 0.32961v 5.55461h 0.32961v -33.3277h 0.32961v -44.4369h 0.32961v 33.3277h 0.32961v 27.773h 0.32961v -5.55461h
 0.65922v 27.773h 0.32961v -22.2184h 0.32961v -11.1092h 0.32961v 27.773h 0.32961v -5.55461h 0.32961v 22.2184h 0.32961v -11.1092h 0.32961v -22.2184h 0.32961v 11.1092h 0.32961v -11.1092h 0.32961v -11.1092h 0.32961v 16.6638h 0.65922v 16.6638h 0.32961v
 -27.773h 0.98883v -16.6638h 0.32961v 49.9915h 0.32961v -16.6638h 0.32961v -22.2184h 0.32961v 27.773h 0.32961v 5.55461h 0.32961v 16.6638h 0.32961v -16.6638h 0.65922v -22.2184h 0.32961v 27.773h 0.32961v -11.1092h 0.32961v 16.6638h 0.32961v -22.2184h
 0.32961v 5.55461h 0.32961v 11.1092h 0.32961v 5.55461h 0.32961v 11.1092h 0.32961v -11.1092h 0.32961v -16.6638h 0.32961v 5.55461h 0.65922v 5.55461h 0.65922v -38.8823h 0.32961v 44.4369h 0.65922v -11.1092h 0.32961v 11.1092h 0.32961v -22.2184h 0.32961v
 44.4369h 0.32961v -61.1007h 0.65922v 33.3277h 0.32961v 11.1092h 0.32961v 11.1092h 0.32961v -27.773h 0.98883v -5.55461h 0.32961v 5.55461h 0.65922v -22.2184h 0.32961v 11.1092h 0.32961v 11.1092h 0.32961v -5.55461h 0.32961v 22.2184h 0.32961v -5.55461h
 0.65922v -33.3277h 0.32961v 22.2184h 0.32961v 22.2184h 0.32961v 5.55461h 0.32961v -27.773h 0.32961v 22.2184h 0.32961v -16.6638h 0.32961v 5.55461h 0.32961v -5.55461h 0.32961v 11.1092h 0.65922v 5.55461h 0.32961v -22.2184h 0.32961v 5.55461h 0.32961v
 16.6638h 0.32961v -11.1092h 0.65922v 11.1092h 0.65922v 5.55461h 0.32961v -16.6638h 0.32961v 16.6638h 0.32961v 11.1092h 0.32961v -22.2184h 0.32961v -5.55461h 0.32961v -22.2184h 0.32961v 16.6638h 0.32961v 27.773h 0.32961v -16.6638h 0.32961v 5.55461h
 0.32961v -5.55461h 0.32961v -16.6638h 0.32961v 16.6638h 0.65922v 5.55461h 0.32961v -5.55461h 0.32961v -16.6638h 0.65922v 38.8823h 0.32961v -44.4369h 0.32961v 38.8823h 0.32961v -16.6638h 0.32961v -5.55461h 0.32961v 27.773h 0.32961v -27.773h 0.32961v
 16.6638h 0.32961v 5.55461h 0.32961v -22.2184h 0.65922v -5.55461h 0.65922v 22.2184h 0.32961v -5.55461h 0.32961v 16.6638h 0.32961v -16.6638h 0.32961v -5.55461h 0.32961" fill="none" stroke="#ff0000" stroke-width="2"/>
<path d="M59.4606,301.816l 4.53543, -5.0337l 4.53543, -5.71747l 4.53543, -6.40658l 4.53543, -7.0806l 4.53543, -7.71615l 4.53543, -8.28754l 4.53543, -8.76776l 4.53543, -9.12965l 4.53543, -9.34724l 4.53543, -9.39723l 4.53543, -9.26043l 4.53543,
 -8.9232l 4.53543, -8.37861l 4.53543, -7.62734l 4.53543, -6.67828l 4.53543, -5.54855l 4.53543, -4.26312l 4.53543, -2.854l 4.53543, -1.35887l 4.53543, 0.180555l 4.53543, 1.72046l 4.53543, 3.21701l 4.53543, 4.62842l 4.53543, 5.91686l 4.53543, 7.05018l
 4.53543, 8.0032l 4.53543, 8.75857l 4.53543, 9.30716l 4.53543, 9.648l 4.53543, 9.78774l 4.53543, 9.73972l 4.53543, 9.52277l 4.53543, 9.15983l 4.53543, 8.67641l 4.53543, 8.09916l 4.53543, 7.45443l 4.53543, 6.7671l 4.53543, 6.0596l 4.53543, 5.35115l
 4.53543, 4.6573l 4.53543, 3.98972l 4.53543, 3.35621l 4.53543, 2.76086l 4.53543, 2.20445l 4.53543, 1.68489l 4.53543, 1.19774l 4.53543, 0.736812l 4.53543, 0.294749l 4.53543, -0.136395" fill="none" stroke="#0000ff" stroke-width="2"/>
<path d="M281.697,329.835l 4.53543, -0.564593l 4.53543, -0.99731l 4.53543, -1.44101l 4.53543, -1.90073l 4.53543, -2.37964l 4.53543, -2.87875l 4.53543, -3.39662l 4.53543, -3.92919l 4.53543, -4.46967l 4.53543, -5.00861l 4.53543, -5.53404l 4.53543,
 -6.03174l 4.53543, -6.48572l 4.53543, -6.87878l 4.53543, -7.19321l 4.53543, -7.41159l 4.53543, -7.51771l 4.53543, -7.49739l 4.53543, -7.33943l 4.53543, -7.03638l 4.53543, -6.58518l 4.53543, -5.98772l 4.53543, -5.251l 4.53543, -4.3872l 4.53543,
 -3.41342l 4.53543, -2.35112l 4.53543, -1.22534l 4.53543, -0.0637779l 4.53543, 1.1044l 4.53543, 2.24973l 4.53543, 3.34373l 4.53543, 4.36004l 4.53543, 5.27549l 4.53543, 6.07097l 4.53543, 6.73206l 4.53543, 7.24947l 4.53543, 7.61907l 4.53543, 7.84183l
 4.53543, 7.92338l 4.53543, 7.87349l 4.53543, 7.70526l 4.53543, 7.43438l 4.53543, 7.07817l 4.53543, 6.65479l 4.53543, 6.18236l 4.53543, 5.67832l 4.53543, 5.15878l 4.53543, 4.63811l 4.53543, 4.12859" fill="none" stroke="#0000ff" stroke-width="2"/>
<path d="M503.933,326.98l 4.53543, 3.64029" fill="none" stroke="#0000ff" stroke-width="2"/>
<rect x="361.573" y="2.20167" width="203.654" height="126.596" fill="white"/>
<path d="M361.573,128.798h 203.654" fill="none" stroke="black" stroke-width="2"/>
<path d="M565.227,128.798v -126.596" fill="none" stroke="black" stroke-width="2"/>
<path d="M565.227,2.20167h -203.654" fill="none" stroke="black" stroke-width="2"/>
<path d="M361.573,2.20167v 126.596" fill="none" stroke="black" stroke-width="2"/>
<text x="382.489" y="14.3108" fill="black" font-size="12.17" font-family="Helvetica">
 / ndf 
</text>
<text x="378.086" y="9.9075" fill="black" font-size="8.27999" font-family="Helvetica">
2
</text>
<text x="371.481" y="14.3108" fill="black" font-size="12.17" font-family="Times">
&#0967;
</text>
<text x="484.867" y="15.4117" fill="black" font-size="12.17" font-family="Helvetica">
  1462 / 1369
</text>
<text x="371.481" y="30.8233" fill="black" font-size="12.17" font-family="Helvetica">
1-Centroid 
</text>
<text x="534.404" y="29.7225" fill="black" font-size="12.17" font-family="Helvetica">
 1.8
</text>
<text x="527.799" y="29.7225" fill="black" font-size="12.17" font-family="Times">
&#0177;
</text>
<text x="494.774" y="29.7225" fill="black" font-size="12.17" font-family="Helvetica">
  5981 
</text>
<text x="371.481" y="46.235" fill="black" font-size="12.17" font-family="Helvetica">
1-FWHM   
</text>
<text x="534.404" y="45.1342" fill="black" font-size="12.17" font-family="Helvetica">
 2.4
</text>
<text x="527.799" y="45.1342" fill="black" font-size="12.17" font-family="Times">
&#0177;
</text>
<text x="492.572" y="45.1342" fill="black" font-size="12.17" font-family="Helvetica">
 330.7 
</text>
<text x="371.481" y="62.7475" fill="black" font-size="12.17" font-family="Helvetica">
1-Counts 
</text>
<text x="494.774" y="61.6467" fill="black" font-size="12.17" font-family="Helvetica">
 1.134e+02
</text>
<text x="488.169" y="61.6467" fill="black" font-size="12.17" font-family="Times">
&#0177;
</text>
<text x="425.422" y="61.6467" fill="black" font-size="12.17" font-family="Helvetica">
 1.029e+04 
</text>
<text x="371.481" y="78.1592" fill="black" font-size="12.17" font-family="Helvetica">
2-Centroid 
</text>
<text x="534.404" y="77.0583" fill="black" font-size="12.17" font-family="Helvetica">
 1.4
</text>
<text x="527.799" y="77.0583" fill="black" font-size="12.17" font-family="Times">
&#0177;
</text>
<text x="492.572" y="77.0583" fill="black" font-size="12.17" font-family="Helvetica">
  6769 
</text>
<text x="371.481" y="94.6717" fill="black" font-size="12.17" font-family="Helvetica">
2-Counts 
</text>
<text x="521.194" y="93.5708" fill="black" font-size="12.17" font-family="Helvetica">
 100.0
</text>
<text x="514.589" y="93.5708" fill="black" font-size="12.17" font-family="Times">
&#0177;
</text>
<text x="479.362" y="93.5708" fill="black" font-size="12.17" font-family="Helvetica">
  9367 
</text>
<text x="371.481" y="108.982" fill="black" font-size="12.17" font-family="Helvetica">
Intercept 
</text>
<text x="527.799" y="108.982" fill="black" font-size="12.17" font-family="Helvetica">
 0.00
</text>
<text x="521.194" y="108.982" fill="black" font-size="12.17" font-family="Times">
&#0177;
</text>
<text x="485.967" y="108.982" fill="black" font-size="12.17" font-family="Helvetica">
 18.34 
</text>
<text x="371.481" y="124.394" fill="black" font-size="12.17" font-family="Helvetica">
Slope    
</text>
<text x="507.984" y="124.394" fill="black" font-size="12.17" font-family="Helvetica">
 0.00000
</text>
<text x="501.379" y="124.394" fill="black" font-size="12.17" font-family="Times">
&#0177;
</text>
<text x="456.245" y="124.394" fill="black" font-size="12.17" font-family="Helvetica">
0.00259 
</text>
<text x="449.64" y="124.394" fill="black" font-size="12.17" font-family="Times">
&#8722;
</text>
<text x="447.438" y="124.394" fill="black" font-size="12.17" font-family="Helvetica">
 
</text>
<path d="M57.1929,347.753h 453.543" fill="none" stroke="black" stroke-width="2"/>
<text x="460.648" y="374.283" fill="black" font-size="12.9071" font-family="Helvetica">
Channels
</text>
<path d="M154.098,338.48v 9.27342" fill="none" stroke="black" stroke-width="2"/>
<path d="M187.059,343.117v 4.63671" fill="none" stroke="black" stroke-width="2"/>
<path d="M220.02,343.117v 4.63671" fill="none" stroke="black" stroke-width="2"/>
<path d="M252.981,343.117v 4.63671" fill="none" stroke="black" stroke-width="2"/>
<path d="M285.942,343.117v 4.63671" fill="none" stroke="black" stroke-width="2"/>
<path d="M318.903,338.48v 9.27342" fill="none" stroke="black" stroke-width="2"/>
<path d="M351.864,343.117v 4.63671" fill="none" stroke="black" stroke-width="2"/>
<path d="M384.825,343.117v 4.63671" fill="none" stroke="black" stroke-width="2"/>
<path d="M417.786,343.117v 4.63671" fill="none" stroke="black" stroke-width="2"/>
<path d="M450.747,343.117v 4.63671" fill="none" stroke="black" stroke-width="2"/>
<path d="M483.708,338.48v 9.27342" fill="none" stroke="black" stroke-width="2"/>
<path d="M154.098,338.48v 9.27342" fill="none" stroke="black" stroke-width="2"/>
<path d="M121.137,343.117v 4.63671" fill="none" stroke="black" stroke-width="2"/>
<path d="M88.1763,343.117v 4.63671" fill="none" stroke="black" stroke-width="2"/>
<path d="M483.708,338.48v 9.27342" fill="none" stroke="black" stroke-width="2"/>
<text x="140.306" y="359.972" fill="black" font-size="12.9071" font-family="Helvetica">
6000
</text>
<text x="305.431" y="359.972" fill="black" font-size="12.9071" font-family="Helvetica">
6500
</text>
<text x="469.455" y="359.972" fill="black" font-size="12.9071" font-family="Helvetica">
7000
</text>
<path d="M57.1929,347.753v -309.114" fill="none" stroke="black" stroke-width="2"/>
<path d="M70.7992,347.753h -13.6063" fill="none" stroke="black" stroke-width="2"/>
<path d="M63.9961,336.644h -6.80315" fill="none" stroke="black" stroke-width="2"/>
<path d="M63.9961,325.535h -6.80315" fill="none" stroke="black" stroke-width="2"/>
<path d="M63.9961,314.426h -6.80315" fill="none" stroke="black" stroke-width="2"/>
<path d="M63.9961,303.316h -6.80315" fill="none" stroke="black" stroke-width="2"/>
<path d="M70.7992,292.207h -13.6063" fill="none" stroke="black" stroke-width="2"/>
<path d="M63.9961,281.098h -6.80315" fill="none" stroke="black" stroke-width="2"/>
<path d="M63.9961,269.989h -6.80315" fill="none" stroke="black" stroke-width="2"/>
<path d="M63.9961,258.879h -6.80315" fill="none" stroke="black" stroke-width="2"/>
<path d="M63.9961,247.77h -6.80315" fill="none" stroke="black" stroke-width="2"/>
<path d="M70.7992,236.661h -13.6063" fill="none" stroke="black" stroke-width="2"/>
<path d="M63.9961,225.552h -6.80315" fill="none" stroke="black" stroke-width="2"/>
<path d="M63.9961,214.443h -6.80315" fill="none" stroke="black" stroke-width="2"/>
<path d="M63.9961,203.333h -6.80315" fill="none" stroke="black" stroke-width="2"/>
<path d="M63.9961,192.224h -6.80315" fill="none" stroke="black" stroke-width="2"/>
<path d="M70.7992,181.115h -13.6063" fill="none" stroke="black" stroke-width="2"/>
<path d="M63.9961,170.006h -6.80315" fill="none" stroke="black" stroke-width="2"/>
<path d="M63.9961,158.897h -6.80315" fill="none" stroke="black" stroke-width="2"/>
<path d="M63.9961,147.787h -6.80315" fill="none" stroke="black" stroke-width="2"/>
<path d="M63.9961,136.678h -6.80315" fill="none" stroke="black" stroke-width="2"/>
<path d="M70.7992,125.569h -13.6063" fill="none" stroke="black" stroke-width="2"/>
<path d="M63.9961,114.46h -6.80315" fill="none" stroke="black" stroke-width="2"/>
<path d="M63.9961,103.35h -6.80315" fill="none" stroke="black" stroke-width="2"/>
<path d="M63.9961,92.2412h -6.80315" fill="none" stroke="black" stroke-width="2"/>
<path d="M63.9961,81.132h -6.80315" fill="none" stroke="black" stroke-width="2"/>
<path d="M70.7992,70.0228h -13.6063" fill="none" stroke="black" stroke-width="2"/>
<path d="M70.7992,70.0228h -13.6063" fill="none" stroke="black" stroke-width="2"/>
<path d="M63.9961,58.9136h -6.80315" fill="none" stroke="black" stroke-width="2"/>
<path d="M63.9961,47.8044h -6.80315" fill="none" stroke="black" stroke-width="2"/>
<text x="46.735" y="351.166" fill="black" font-size="12.9071" font-family="Helvetica">
0
</text>
<text x="40.13" y="296.124" fill="black" font-size="12.9071" font-family="Helvetica">
10
</text>
<text x="40.13" y="239.982" fill="black" font-size="12.9071" font-family="Helvetica">
20
</text>
<text x="40.13" y="184.94" fill="black" font-size="12.9071" font-family="Helvetica">
30
</text>
<text x="40.13" y="129.898" fill="black" font-size="12.9071" font-family="Helvetica">
40
</text>
<text x="40.13" y="73.7558" fill="black" font-size="12.9071" font-family="Helvetica">
50
</text>
<rect x="361.573" y="2.20167" width="203.654" height="126.596" fill="white"/>
<path d="M361.573,128.798h 203.654" fill="none" stroke="black" stroke-width="2"/>
<path d="M565.227,128.798v -126.596" fill="none" stroke="black" stroke-width="2"/>
<path d="M565.227,2.20167h -203.654" fill="none" stroke="black" stroke-width="2"/>
<path d="M361.573,2.20167v 126.596" fill="none" stroke="black" stroke-width="2"/>
<text x="382.489" y="14.3108" fill="black" font-size="12.17" font-family="Helvetica">
 / ndf 
</text>
<text x="378.086" y="9.9075" fill="black" font-size="8.27999" font-family="Helvetica">
2
</text>
<text x="371.481" y="14.3108" fill="black" font-size="12.17" font-family="Times">
&#0967;
</text>
<text x="484.867" y="15.4117" fill="black" font-size="12.17" font-family="Helvetica">
  1462 / 1369
</text>
<text x="371.481" y="30.8233" fill="black" font-size="12.17" font-family="Helvetica">
1-Centroid 
</text>
<text x="534.404" y="29.7225" fill="black" font-size="12.17" font-family="Helvetica">
 1.8
</text>
<text x="527.799" y="29.7225" fill="black" font-size="12.17" font-family="Times">
&#0177;
</text>
<text x="494.774" y="29.7225" fill="black" font-size="12.17" font-family="Helvetica">
  5981 
</text>
<text x="371.481" y="46.235" fill="black" font-size="12.17" font-family="Helvetica">
1-FWHM   
</text>
<text x="534.404" y="45.1342" fill="black" font-size="12.17" font-family="Helvetica">
 2.4
</text>
<text x="527.799" y="45.1342" fill="black" font-size="12.17" font-family="Times">
&#0177;
</text>
<text x="492.572" y="45.1342" fill="black" font-size="12.17" font-family="Helvetica">
 330.7 
</text>
<text x="371.481" y="62.7475" fill="black" font-size="12.17" font-family="Helvetica">
1-Counts 
</text>
<text x="494.774" y="61.6467" fill="black" font-size="12.17" font-family="Helvetica">
 1.134e+02
</text>
<text x="488.169" y="61.6467" fill="black" font-size="12.17" font-family="Times">
&#0177;
</text>
<text x="425.422" y="61.6467" fill="black" font-size="12.17" font-family="Helvetica">
 1.029e+04 
</text>
<text x="371.481" y="78.1592" fill="black" font-size="12.17" font-family="Helvetica">
2-Centroid 
</text>
<text x="534.404" y="77.0583" fill="black" font-size="12.17" font-family="Helvetica">
 1.4
</text>
<text x="527.799" y="77.0583" fill="black" font-size="12.17" font-family="Times">
&#0177;
</text>
<text x="492.572" y="77.0583" fill="black" font-size="12.17" font-family="Helvetica">
  6769 
</text>
<text x="371.481" y="94.6717" fill="black" font-size="12.17" font-family="Helvetica">
2-Counts 
</text>
<text x="521.194" y="93.5708" fill="black" font-size="12.17" font-family="Helvetica">
 100.0
</text>
<text x="514.589" y="93.5708" fill="black" font-size="12.17" font-family="Times">
&#0177;
</text>
<text x="479.362" y="93.5708" fill="black" font-size="12.17" font-family="Helvetica">
  9367 
</text>
<text x="371.481" y="108.982" fill="black" font-size="12.17" font-family="Helvetica">
Intercept 
</text>
<text x="527.799" y="108.982" fill="black" font-size="12.17" font-family="Helvetica">
 0.00
</text>
<text x="521.194" y="108.982" fill="black" font-size="12.17" font-family="Times">
&#0177;
</text>
<text x="485.967" y="108.982" fill="black" font-size="12.17" font-family="Helvetica">
 18.34 
</text>
<text x="371.481" y="124.394" fill="black" font-size="12.17" font-family="Helvetica">
Slope    
</text>
<text x="507.984" y="124.394" fill="black" font-size="12.17" font-family="Helvetica">
 0.00000
</text>
<text x="501.379" y="124.394" fill="black" font-size="12.17" font-family="Times">
&#0177;
</text>
<text x="456.245" y="124.394" fill="black" font-size="12.17" font-family="Helvetica">
0.00259 
</text>
<text x="449.64" y="124.394" fill="black" font-size="12.17" font-family="Times">
&#8722;
</text>
<text x="447.438" y="124.394" fill="black" font-size="12.17" font-family="Helvetica">
 
</text>
<path d="M59.4606,321.511l 4.53543, -5.23169l 4.53543, -5.91545l 4.53543, -6.60457l 4.53543, -7.27859l 4.53543, -7.91414l 4.53543, -8.48553l 4.53543, -8.96574l 4.53543, -9.32763l 4.53543, -9.54523l 4.53543, -9.59521l 4.53543, -9.45842l 4.53543,
 -9.12119l 4.53543, -8.57659l 4.53543, -7.82533l 4.53543, -6.87626l 4.53543, -5.74652l 4.53543, -4.46109l 4.53543, -3.05196l 4.53543, -1.55682l 4.53543, -0.0173664l 4.53543, 1.52258l 4.53543, 3.01919l 4.53543, 4.43068l 4.53543, 5.71927l 4.53543,
 6.8528l 4.53543, 7.80614l 4.53543, 8.56198l 4.53543, 9.11125l 4.53543, 9.45309l 4.53543, 9.59426l 4.53543, 9.54827l 4.53543, 9.3342l 4.53543, 8.97527l 4.53543, 8.49741l 4.53543, 7.92777l 4.53543, 7.29338l 4.53543, 6.61995l 4.53543, 5.93094l 4.53543,
 5.24685l 4.53543, 4.58477l 4.53543, 3.95822l 4.53543, 3.37711l 4.53543, 2.84801l 4.53543, 2.37446l 4.53543, 1.95742l 4.53543, 1.59573l 4.53543, 1.28659l 4.53543, 1.02606l 4.53543, 0.809476" fill="none" stroke="#00ff00" stroke-width="2"/>
<path d="M281.697,345.219l 4.53543, 0.631782l 4.53543, 0.487863l 4.53543, 0.372758l 4.53543, 0.281826l 4.53543, 0.210857l 4.53543, 0.156123l 4.53543, 0.114404l 4.53543, 0.0829723l 4.53543, 0.0595603l 4.53543, 0.0423184l 4.53543, 0.0297623l 4.53543,
 0.0207197l 4.53543, 0.0431786h 163.276" fill="none" stroke="#00ff00" stroke-width="2"/>
<path d="M503.933,347.753h 4.53543" fill="none" stroke="#00ff00" stroke-width="2"/>
<path d="M59.4606,347.753h 145.134l 4.53543, -0.0430572l 4.53543, -0.0189826l 4.53543, -0.0265992l 4.53543, -0.0369378l 4.53543, -0.0508336l 4.53543, -0.0693258l 4.53543, -0.0936892l 4.53543, -0.125464l 4.53543, -0.166482l 4.53543, -0.218886l
 4.53543, -0.285136l 4.53543, -0.367999l 4.53543, -0.470523l 4.53543, -0.595976l 4.53543, -0.747763l 4.53543, -0.929301l 4.53543, -1.14386" fill="none" stroke="#00ff00" stroke-width="2"/>
<path d="M281.697,342.362l 4.53543, -1.39436l 4.53543, -1.68316l 4.53543, -2.01176l 4.53543, -2.38054l 4.53543, -2.78848l 4.53543, -3.23286l 4.53543, -3.70901l 4.53543, -4.21015l 4.53543, -4.72722l 4.53543, -5.24892l 4.53543, -5.76179l 4.53543,
 -6.25044l 4.53543, -6.69798l 4.53543, -7.08651l 4.53543, -7.39777l 4.53543, -7.61398l 4.53543, -7.71861l 4.53543, -7.69729l 4.53543, -7.53866l 4.53543, -7.23516l 4.53543, -6.78368l 4.53543, -6.18602l 4.53543, -5.44918l 4.53543, -4.58531l 4.53543,
 -3.61149l 4.53543, -2.54915l 4.53543, -1.42336l 4.53543, -0.261782l 4.53543, 0.906399l 4.53543, 2.05174l 4.53543, 3.14574l 4.53543, 4.16205l 4.53543, 5.0775l 4.53543, 5.87298l 4.53543, 6.53408l 4.53543, 7.05148l 4.53543, 7.42108l 4.53543, 7.64384l
 4.53543, 7.72539l 4.53543, 7.6755l 4.53543, 7.50727l 4.53543, 7.23639l 4.53543, 6.88018l 4.53543, 6.4568l 4.53543, 5.98437l 4.53543, 5.48033l 4.53543, 4.9608l 4.53543, 4.44012l 4.53543, 3.93061" fill="none" stroke="#00ff00" stroke-width="2"/>
<path d="M503.933,327.272l 4.53543, 3.44231" fill="none" stroke="#00ff00" stroke-width="2"/>
<text x="222.868" y="18.7142" fill="black" font-size="17.1374" font-family="Helvetica">
Co60_800V.Spe
</text></svg>
