<?xml version="1.0" standalone="no"?>
<svg width="567.429" height="304.494" viewBox="0 0 567.429 304.494" xmlns="http://www.w3.org/2000/svg">
<title>
/home/ADF/hyw543/Coincidence/OperatingVoltage_Gain/c1.svg
</title>
<desc>
Creator: ROOT Version 6.06/08
CreationDate: Mon Jan  7 22:48:38 2019</desc>
<defs>
</defs>
<rect x="0.5" y="0" width="566.929" height="303.994" fill="white"/>
<rect x="57.1929" y="30.3994" width="453.543" height="243.195" fill="white"/>
<rect x="57.1929" y="30.3994" width="453.543" height="243.195" fill="none" stroke="black"/>
<rect x="57.1929" y="30.3994" width="453.543" height="243.195" fill="white"/>
<rect x="57.1929" y="30.3994" width="453.543" height="243.195" fill="none" stroke="black"/>
<path d="M57.1929,194.085h 6.04724v -4.60924h 6.04724v 14.98h 6.04724v -12.6754h 6.04724v 11.5231h 6.04724v -24.1985h 6.04724v -1.15231h 6.04724v -4.60924h 6.04724v -23.0462h 6.04724v 34.5693h 6.04724v -23.0462h 6.04724v 11.5231h 6.04724v 3.45693h
 6.04724v -16.1324h 6.04724v 10.3708h 6.04724v 5.76155h 6.04724v -14.98h 6.04724v -12.6754h 6.04724v 9.21849h 6.04724v -16.1324h 6.04724v -19.5893h 6.04724v -14.98h 6.04724v -16.1324h 6.04724v -19.5893h 6.04724v -10.3708h 6.04724v -17.2847h 6.04724v
 -2.30462h 6.04724v 6.91387h 6.04724v 6.91387h 6.04724v 58.7679h 12.0945v 38.0263h 6.04724v 14.98h 6.04724v 33.417h 6.04724v 6.91387h 6.04724v 20.7416h 6.04724v 9.21849h 6.04724v 16.1324h 6.04724v -21.8939h 6.04724v 16.1324h 6.04724v -3.45693h
 6.04724v -2.30462h 6.04724v -3.45693h 6.04724v -14.98h 6.04724v -9.21849h 6.04724v 12.6754h 6.04724v -24.1985h 6.04724v -28.8078h 6.04724v -6.91387h 6.04724v -19.5893h 6.04724v -25.3508h 6.04724v -18.437h 12.0945v -12.6754h 6.04724v -4.60924h
 6.04724v 12.6754h 6.04724v 10.3708h 6.04724v 19.5893h 6.04724v 16.1324h 6.04724v 17.2847h 6.04724v 19.5893h 6.04724v 4.60924h 6.04724v 26.5032h 6.04724v -9.21849h 6.04724v 32.2647h 6.04724v -10.3708h 6.04724v 3.45693h 6.04724v 4.60924h 6.04724v
 -4.60924h 6.04724v 1.15231h 6.04724v 5.76155h 6.04724v 8.06618h 6.04724v 2.30462h 6.04724v 9.21849h 6.04724v -1.15231h 6.04724" fill="none" stroke="#ff0000" stroke-width="2"/>
<rect x="437.146" y="19.7399" width="118.439" height="117.65" fill="white"/>
<path d="M437.146,137.39h 118.439" fill="none" stroke="black" stroke-width="2"/>
<path d="M555.585,137.39v -117.65" fill="none" stroke="black" stroke-width="2"/>
<path d="M555.585,19.7399h -118.439" fill="none" stroke="black" stroke-width="2"/>
<path d="M437.146,19.7399v 117.65" fill="none" stroke="black" stroke-width="2"/>
<text x="450.569" y="29.215" fill="black" font-size="9.08153" font-family="Helvetica">
 / ndf 
</text>
<text x="447.411" y="26.0566" fill="black" font-size="6.22102" font-family="Helvetica">
2
</text>
<text x="442.673" y="29.215" fill="black" font-size="9.08153" font-family="Times">
&#0967;
</text>
<text x="508.999" y="30.0046" fill="black" font-size="9.08153" font-family="Helvetica">
 262.8 / 67
</text>
<text x="442.673" y="42.6381" fill="black" font-size="9.08153" font-family="Helvetica">
1-Centroid 
</text>
<text x="535.056" y="41.8485" fill="black" font-size="9.08153" font-family="Helvetica">
 0.2
</text>
<text x="530.318" y="41.8485" fill="black" font-size="9.08153" font-family="Times">
&#0177;
</text>
<text x="505.051" y="41.8485" fill="black" font-size="9.08153" font-family="Helvetica">
 202.3 
</text>
<text x="442.673" y="56.0612" fill="black" font-size="9.08153" font-family="Helvetica">
1-FWHM   
</text>
<text x="530.318" y="55.2716" fill="black" font-size="9.08153" font-family="Helvetica">
 0.40
</text>
<text x="525.581" y="55.2716" fill="black" font-size="9.08153" font-family="Times">
&#0177;
</text>
<text x="500.314" y="55.2716" fill="black" font-size="9.08153" font-family="Helvetica">
 10.07 
</text>
<text x="442.673" y="68.6948" fill="black" font-size="9.08153" font-family="Helvetica">
1-Counts 
</text>
<text x="530.318" y="67.9052" fill="black" font-size="9.08153" font-family="Helvetica">
 64.6
</text>
<text x="525.581" y="67.9052" fill="black" font-size="9.08153" font-family="Times">
&#0177;
</text>
<text x="500.314" y="67.9052" fill="black" font-size="9.08153" font-family="Helvetica">
  1590 
</text>
<text x="442.673" y="82.1179" fill="black" font-size="9.08153" font-family="Helvetica">
2-Centroid 
</text>
<text x="535.056" y="81.3283" fill="black" font-size="9.08153" font-family="Helvetica">
 0.2
</text>
<text x="530.318" y="81.3283" fill="black" font-size="9.08153" font-family="Times">
&#0177;
</text>
<text x="505.051" y="81.3283" fill="black" font-size="9.08153" font-family="Helvetica">
 231.7 
</text>
<text x="442.673" y="95.541" fill="black" font-size="9.08153" font-family="Helvetica">
2-FWHM   
</text>
<text x="530.318" y="94.7514" fill="black" font-size="9.08153" font-family="Helvetica">
 0.39
</text>
<text x="525.581" y="94.7514" fill="black" font-size="9.08153" font-family="Times">
&#0177;
</text>
<text x="500.314" y="94.7514" fill="black" font-size="9.08153" font-family="Helvetica">
 10.83 
</text>
<text x="442.673" y="108.174" fill="black" font-size="9.08153" font-family="Helvetica">
2-Counts 
</text>
<text x="530.318" y="107.385" fill="black" font-size="9.08153" font-family="Helvetica">
 57.6
</text>
<text x="525.581" y="107.385" fill="black" font-size="9.08153" font-family="Times">
&#0177;
</text>
<text x="500.314" y="107.385" fill="black" font-size="9.08153" font-family="Helvetica">
  1487 
</text>
<text x="442.673" y="120.808" fill="black" font-size="9.08153" font-family="Helvetica">
Intercept 
</text>
<text x="531.897" y="120.808" fill="black" font-size="9.08153" font-family="Helvetica">
 10.1
</text>
<text x="527.16" y="120.808" fill="black" font-size="9.08153" font-family="Times">
&#0177;
</text>
<text x="501.893" y="120.808" fill="black" font-size="9.08153" font-family="Helvetica">
 202.7 
</text>
<text x="442.673" y="133.442" fill="black" font-size="9.08153" font-family="Helvetica">
Slope    
</text>
<text x="522.422" y="133.442" fill="black" font-size="9.08153" font-family="Helvetica">
 0.0451
</text>
<text x="517.685" y="133.442" fill="black" font-size="9.08153" font-family="Times">
&#0177;
</text>
<text x="490.049" y="133.442" fill="black" font-size="9.08153" font-family="Helvetica">
0.7438 
</text>
<text x="485.311" y="133.442" fill="black" font-size="9.08153" font-family="Times">
&#8722;
</text>
<text x="483.732" y="133.442" fill="black" font-size="9.08153" font-family="Helvetica">
 
</text>
<path d="M59.4606,192.087l 4.53543, 0.642826l 4.53543, 0.642803l 4.53543, 0.642748l 4.53543, 0.642617l 4.53543, 0.642316l 4.53543, 0.641644l 4.53543, 0.640195l 4.53543, 0.637178l 4.53543, 0.631099l 4.53543, 0.619264l 4.53543, 0.597007l 4.53543,
 0.556586l 4.53543, 0.485737l 4.53543, 0.365948l 4.53543, 0.170729l 4.53543, -0.13567l 4.53543, -0.598313l 4.53543, -1.26945l 4.53543, -2.20324l 4.53543, -3.44647l 4.53543, -5.02553l 4.53543, -6.93052l 4.53543, -9.09929l 4.53543, -11.4054l 4.53543,
 -13.6548l 4.53543, -15.595l 4.53543, -16.9401l 4.53543, -17.4093l 4.53543, -16.7753l 4.53543, -14.9121l 4.53543, -11.8327l 4.53543, -7.70581l 4.53543, -2.8448l 4.53543, 2.33033l 4.53543, 7.35294l 4.53543, 11.7791l 4.53543, 15.2524l 4.53543, 17.5508l
 4.53543, 18.6075l 4.53543, 18.5029l 4.53543, 17.4342l 4.53543, 15.669l 4.53543, 13.4963l 4.53543, 11.1837l 4.53543, 8.94699l 4.53543, 6.93577l 4.53543, 5.23216l 4.53543, 3.86019l 4.53543, 2.80028" fill="none" stroke="#0000ff" stroke-width="2"/>
<path d="M281.697,219.796l 4.53543, 2.00481l 4.53543, 1.41146l 4.53543, 0.952846l 4.53543, 0.562211l 4.53543, 0.175948l 4.53543, -0.26565l 4.53543, -0.817962l 4.53543, -1.53058l 4.53543, -2.44393l 4.53543, -3.58356l 4.53543, -4.9526l 4.53543,
 -6.52344l 4.53543, -8.23057l 4.53543, -9.96684l 4.53543, -11.5856l 4.53543, -12.9105l 4.53543, -13.7529l 4.53543, -13.9362l 4.53543, -13.3241l 4.53543, -11.8465l 4.53543, -9.51968l 4.53543, -6.45459l 4.53543, -2.85058l 4.53543, 1.02539l 4.53543,
 4.87136l 4.53543, 8.38929l 4.53543, 11.3232l 4.53543, 13.4897l 4.53543, 14.7965l 4.53543, 15.2451l 4.53543, 14.9206l 4.53543, 13.9693l 4.53543, 12.5723l 4.53543, 10.9176l 4.53543, 9.17707l 4.53543, 7.49051l 4.53543, 5.9574l 4.53543, 4.63656l
 4.53543, 3.55102l 4.53543, 2.69627l 4.53543, 2.04948l 4.53543, 1.57808l 4.53543, 1.24659l 4.53543, 1.02139l 4.53543, 0.87343l 4.53543, 0.779331l 4.53543, 0.721363l 4.53543, 0.686754l 4.53543, 0.666717" fill="none" stroke="#0000ff" stroke-width="2"/>
<path d="M503.933,255.06l 4.53543, 0.655464" fill="none" stroke="#0000ff" stroke-width="2"/>
<path d="M57.1929,273.595h 453.543" fill="none" stroke="black" stroke-width="2"/>
<text x="468.73" y="294.519" fill="black" font-size="10.2613" font-family="Helvetica">
Channels
</text>
<path d="M75.3346,266.299v 7.29586" fill="none" stroke="black" stroke-width="2"/>
<path d="M105.571,269.947v 3.64793" fill="none" stroke="black" stroke-width="2"/>
<path d="M135.807,269.947v 3.64793" fill="none" stroke="black" stroke-width="2"/>
<path d="M166.043,269.947v 3.64793" fill="none" stroke="black" stroke-width="2"/>
<path d="M196.28,266.299v 7.29586" fill="none" stroke="black" stroke-width="2"/>
<path d="M226.516,269.947v 3.64793" fill="none" stroke="black" stroke-width="2"/>
<path d="M256.752,269.947v 3.64793" fill="none" stroke="black" stroke-width="2"/>
<path d="M286.988,269.947v 3.64793" fill="none" stroke="black" stroke-width="2"/>
<path d="M317.224,266.299v 7.29586" fill="none" stroke="black" stroke-width="2"/>
<path d="M347.461,269.947v 3.64793" fill="none" stroke="black" stroke-width="2"/>
<path d="M377.697,269.947v 3.64793" fill="none" stroke="black" stroke-width="2"/>
<path d="M407.933,269.947v 3.64793" fill="none" stroke="black" stroke-width="2"/>
<path d="M438.169,266.299v 7.29586" fill="none" stroke="black" stroke-width="2"/>
<path d="M75.3346,266.299v 7.29586" fill="none" stroke="black" stroke-width="2"/>
<path d="M438.169,266.299v 7.29586" fill="none" stroke="black" stroke-width="2"/>
<path d="M468.406,269.947v 3.64793" fill="none" stroke="black" stroke-width="2"/>
<path d="M498.642,269.947v 3.64793" fill="none" stroke="black" stroke-width="2"/>
<text x="66.0364" y="283.465" fill="black" font-size="10.2613" font-family="Helvetica">
180
</text>
<text x="186.844" y="283.465" fill="black" font-size="10.2613" font-family="Helvetica">
200
</text>
<text x="308.442" y="283.465" fill="black" font-size="10.2613" font-family="Helvetica">
220
</text>
<text x="429.25" y="283.465" fill="black" font-size="10.2613" font-family="Helvetica">
240
</text>
<path d="M57.1929,273.595v -243.195" fill="none" stroke="black" stroke-width="2"/>
<path d="M70.7992,273.595h -13.6063" fill="none" stroke="black" stroke-width="2"/>
<path d="M63.9961,267.833h -6.80315" fill="none" stroke="black" stroke-width="2"/>
<path d="M63.9961,262.072h -6.80315" fill="none" stroke="black" stroke-width="2"/>
<path d="M63.9961,256.31h -6.80315" fill="none" stroke="black" stroke-width="2"/>
<path d="M70.7992,250.548h -13.6063" fill="none" stroke="black" stroke-width="2"/>
<path d="M63.9961,244.787h -6.80315" fill="none" stroke="black" stroke-width="2"/>
<path d="M63.9961,239.025h -6.80315" fill="none" stroke="black" stroke-width="2"/>
<path d="M63.9961,233.264h -6.80315" fill="none" stroke="black" stroke-width="2"/>
<path d="M70.7992,227.502h -13.6063" fill="none" stroke="black" stroke-width="2"/>
<path d="M63.9961,221.741h -6.80315" fill="none" stroke="black" stroke-width="2"/>
<path d="M63.9961,215.979h -6.80315" fill="none" stroke="black" stroke-width="2"/>
<path d="M63.9961,210.218h -6.80315" fill="none" stroke="black" stroke-width="2"/>
<path d="M70.7992,204.456h -13.6063" fill="none" stroke="black" stroke-width="2"/>
<path d="M63.9961,198.694h -6.80315" fill="none" stroke="black" stroke-width="2"/>
<path d="M63.9961,192.933h -6.80315" fill="none" stroke="black" stroke-width="2"/>
<path d="M63.9961,187.171h -6.80315" fill="none" stroke="black" stroke-width="2"/>
<path d="M70.7992,181.41h -13.6063" fill="none" stroke="black" stroke-width="2"/>
<path d="M63.9961,175.648h -6.80315" fill="none" stroke="black" stroke-width="2"/>
<path d="M63.9961,169.887h -6.80315" fill="none" stroke="black" stroke-width="2"/>
<path d="M63.9961,164.125h -6.80315" fill="none" stroke="black" stroke-width="2"/>
<path d="M70.7992,158.364h -13.6063" fill="none" stroke="black" stroke-width="2"/>
<path d="M63.9961,152.602h -6.80315" fill="none" stroke="black" stroke-width="2"/>
<path d="M63.9961,146.84h -6.80315" fill="none" stroke="black" stroke-width="2"/>
<path d="M63.9961,141.079h -6.80315" fill="none" stroke="black" stroke-width="2"/>
<path d="M70.7992,135.317h -13.6063" fill="none" stroke="black" stroke-width="2"/>
<path d="M63.9961,129.556h -6.80315" fill="none" stroke="black" stroke-width="2"/>
<path d="M63.9961,123.794h -6.80315" fill="none" stroke="black" stroke-width="2"/>
<path d="M63.9961,118.033h -6.80315" fill="none" stroke="black" stroke-width="2"/>
<path d="M70.7992,112.271h -13.6063" fill="none" stroke="black" stroke-width="2"/>
<path d="M63.9961,106.51h -6.80315" fill="none" stroke="black" stroke-width="2"/>
<path d="M63.9961,100.748h -6.80315" fill="none" stroke="black" stroke-width="2"/>
<path d="M63.9961,94.9864h -6.80315" fill="none" stroke="black" stroke-width="2"/>
<path d="M70.7992,89.2249h -13.6063" fill="none" stroke="black" stroke-width="2"/>
<path d="M63.9961,83.4633h -6.80315" fill="none" stroke="black" stroke-width="2"/>
<path d="M63.9961,77.7018h -6.80315" fill="none" stroke="black" stroke-width="2"/>
<path d="M63.9961,71.9402h -6.80315" fill="none" stroke="black" stroke-width="2"/>
<path d="M70.7992,66.1787h -13.6063" fill="none" stroke="black" stroke-width="2"/>
<path d="M63.9961,60.4171h -6.80315" fill="none" stroke="black" stroke-width="2"/>
<path d="M63.9961,54.6555h -6.80315" fill="none" stroke="black" stroke-width="2"/>
<path d="M63.9961,48.894h -6.80315" fill="none" stroke="black" stroke-width="2"/>
<path d="M70.7992,43.1324h -13.6063" fill="none" stroke="black" stroke-width="2"/>
<path d="M70.7992,43.1324h -13.6063" fill="none" stroke="black" stroke-width="2"/>
<path d="M63.9961,37.3709h -6.80315" fill="none" stroke="black" stroke-width="2"/>
<path d="M63.9961,31.6093h -6.80315" fill="none" stroke="black" stroke-width="2"/>
<text x="48.6653" y="277.148" fill="black" font-size="10.2613" font-family="Helvetica">
0
</text>
<text x="43.1381" y="254.25" fill="black" font-size="10.2613" font-family="Helvetica">
20
</text>
<text x="43.1381" y="231.351" fill="black" font-size="10.2613" font-family="Helvetica">
40
</text>
<text x="43.1381" y="207.663" fill="black" font-size="10.2613" font-family="Helvetica">
60
</text>
<text x="43.1381" y="184.765" fill="black" font-size="10.2613" font-family="Helvetica">
80
</text>
<text x="36.8214" y="161.867" fill="black" font-size="10.2613" font-family="Helvetica">
100
</text>
<text x="36.8214" y="138.969" fill="black" font-size="10.2613" font-family="Helvetica">
120
</text>
<text x="36.8214" y="116.07" fill="black" font-size="10.2613" font-family="Helvetica">
140
</text>
<text x="36.8214" y="93.1722" fill="black" font-size="10.2613" font-family="Helvetica">
160
</text>
<text x="36.8214" y="69.4844" fill="black" font-size="10.2613" font-family="Helvetica">
180
</text>
<text x="36.8214" y="46.5861" fill="black" font-size="10.2613" font-family="Helvetica">
200
</text>
<rect x="437.146" y="19.7399" width="118.439" height="117.65" fill="white"/>
<path d="M437.146,137.39h 118.439" fill="none" stroke="black" stroke-width="2"/>
<path d="M555.585,137.39v -117.65" fill="none" stroke="black" stroke-width="2"/>
<path d="M555.585,19.7399h -118.439" fill="none" stroke="black" stroke-width="2"/>
<path d="M437.146,19.7399v 117.65" fill="none" stroke="black" stroke-width="2"/>
<text x="450.569" y="29.215" fill="black" font-size="9.08153" font-family="Helvetica">
 / ndf 
</text>
<text x="447.411" y="26.0566" fill="black" font-size="6.22102" font-family="Helvetica">
2
</text>
<text x="442.673" y="29.215" fill="black" font-size="9.08153" font-family="Times">
&#0967;
</text>
<text x="508.999" y="30.0046" fill="black" font-size="9.08153" font-family="Helvetica">
 262.8 / 67
</text>
<text x="442.673" y="42.6381" fill="black" font-size="9.08153" font-family="Helvetica">
1-Centroid 
</text>
<text x="535.056" y="41.8485" fill="black" font-size="9.08153" font-family="Helvetica">
 0.2
</text>
<text x="530.318" y="41.8485" fill="black" font-size="9.08153" font-family="Times">
&#0177;
</text>
<text x="505.051" y="41.8485" fill="black" font-size="9.08153" font-family="Helvetica">
 202.3 
</text>
<text x="442.673" y="56.0612" fill="black" font-size="9.08153" font-family="Helvetica">
1-FWHM   
</text>
<text x="530.318" y="55.2716" fill="black" font-size="9.08153" font-family="Helvetica">
 0.40
</text>
<text x="525.581" y="55.2716" fill="black" font-size="9.08153" font-family="Times">
&#0177;
</text>
<text x="500.314" y="55.2716" fill="black" font-size="9.08153" font-family="Helvetica">
 10.07 
</text>
<text x="442.673" y="68.6948" fill="black" font-size="9.08153" font-family="Helvetica">
1-Counts 
</text>
<text x="530.318" y="67.9052" fill="black" font-size="9.08153" font-family="Helvetica">
 64.6
</text>
<text x="525.581" y="67.9052" fill="black" font-size="9.08153" font-family="Times">
&#0177;
</text>
<text x="500.314" y="67.9052" fill="black" font-size="9.08153" font-family="Helvetica">
  1590 
</text>
<text x="442.673" y="82.1179" fill="black" font-size="9.08153" font-family="Helvetica">
2-Centroid 
</text>
<text x="535.056" y="81.3283" fill="black" font-size="9.08153" font-family="Helvetica">
 0.2
</text>
<text x="530.318" y="81.3283" fill="black" font-size="9.08153" font-family="Times">
&#0177;
</text>
<text x="505.051" y="81.3283" fill="black" font-size="9.08153" font-family="Helvetica">
 231.7 
</text>
<text x="442.673" y="95.541" fill="black" font-size="9.08153" font-family="Helvetica">
2-FWHM   
</text>
<text x="530.318" y="94.7514" fill="black" font-size="9.08153" font-family="Helvetica">
 0.39
</text>
<text x="525.581" y="94.7514" fill="black" font-size="9.08153" font-family="Times">
&#0177;
</text>
<text x="500.314" y="94.7514" fill="black" font-size="9.08153" font-family="Helvetica">
 10.83 
</text>
<text x="442.673" y="108.174" fill="black" font-size="9.08153" font-family="Helvetica">
2-Counts 
</text>
<text x="530.318" y="107.385" fill="black" font-size="9.08153" font-family="Helvetica">
 57.6
</text>
<text x="525.581" y="107.385" fill="black" font-size="9.08153" font-family="Times">
&#0177;
</text>
<text x="500.314" y="107.385" fill="black" font-size="9.08153" font-family="Helvetica">
  1487 
</text>
<text x="442.673" y="120.808" fill="black" font-size="9.08153" font-family="Helvetica">
Intercept 
</text>
<text x="531.897" y="120.808" fill="black" font-size="9.08153" font-family="Helvetica">
 10.1
</text>
<text x="527.16" y="120.808" fill="black" font-size="9.08153" font-family="Times">
&#0177;
</text>
<text x="501.893" y="120.808" fill="black" font-size="9.08153" font-family="Helvetica">
 202.7 
</text>
<text x="442.673" y="133.442" fill="black" font-size="9.08153" font-family="Helvetica">
Slope    
</text>
<text x="522.422" y="133.442" fill="black" font-size="9.08153" font-family="Helvetica">
 0.0451
</text>
<text x="517.685" y="133.442" fill="black" font-size="9.08153" font-family="Times">
&#0177;
</text>
<text x="490.049" y="133.442" fill="black" font-size="9.08153" font-family="Helvetica">
0.7438 
</text>
<text x="485.311" y="133.442" fill="black" font-size="9.08153" font-family="Times">
&#8722;
</text>
<text x="483.732" y="133.442" fill="black" font-size="9.08153" font-family="Helvetica">
 
</text>
<path d="M59.4606,273.595h 40.8189l 4.53543, -0.0457152l 4.53543, -0.0458325l 4.53543, -0.0862532l 4.53543, -0.157103l 4.53543, -0.276891l 4.53543, -0.47211l 4.53543, -0.77851l 4.53543, -1.24115l 4.53543, -1.91229l 4.53543, -2.84608l 4.53543,
 -4.08931l 4.53543, -5.66837l 4.53543, -7.57336l 4.53543, -9.74213l 4.53543, -12.0483l 4.53543, -14.2977l 4.53543, -16.2379l 4.53543, -17.5829l 4.53543, -18.0521l 4.53543, -17.4181l 4.53543, -15.5549l 4.53543, -12.4756l 4.53543, -8.34865l 4.53543,
 -3.48764l 4.53543, 1.68749l 4.53543, 6.7101l 4.53543, 11.1363l 4.53543, 14.6096l 4.53543, 16.908l 4.53543, 17.9646l 4.53543, 17.8601l 4.53543, 16.7916l 4.53543, 15.0266l 4.53543, 12.8543l 4.53543, 10.5426l 4.53543, 8.30787l 4.53543, 6.30034l
 4.53543, 4.60366l 4.53543, 3.24431l 4.53543, 2.20675" fill="none" stroke="#00ff00" stroke-width="2"/>
<path d="M281.697,269.91l 4.53543, 1.44965l 4.53543, 0.920187l 4.53543, 0.564639l 4.53543, 0.335046l 4.53543, 0.192312l 4.53543, 0.106804l 4.53543, 0.0574046l 4.53543, 0.0298653l 4.53543, 0.028639h 181.417" fill="none" stroke="#00ff00"
 stroke-width="2"/>
<path d="M503.933,273.595h 4.53543" fill="none" stroke="#00ff00" stroke-width="2"/>
<path d="M59.4606,273.595h 208.63l 4.53543, -0.0288703l 4.53543, -0.0269576l 4.53543, -0.0493077" fill="none" stroke="#00ff00" stroke-width="2"/>
<path d="M281.697,273.489l 4.53543, -0.0876824l 4.53543, -0.151567l 4.53543, -0.254633l 4.53543, -0.415675l 4.53543, -0.659203l 4.53543, -1.01529l 4.53543, -1.51821l 4.53543, -2.20329l 4.53543, -3.10181l 4.53543, -4.23373l 4.53543, -5.5989l 4.53543,
 -7.16787l 4.53543, -8.87411l 4.53543, -10.61l 4.53543, -12.2286l 4.53543, -13.5534l 4.53543, -14.3957l 4.53543, -14.5791l 4.53543, -13.967l 4.53543, -12.4893l 4.53543, -10.1625l 4.53543, -7.09743l 4.53543, -3.49342l 4.53543, 0.382547l 4.53543,
 4.22852l 4.53543, 7.74645l 4.53543, 10.6803l 4.53543, 12.8468l 4.53543, 14.1536l 4.53543, 14.6023l 4.53543, 14.2777l 4.53543, 13.3264l 4.53543, 11.9294l 4.53543, 10.2747l 4.53543, 8.53423l 4.53543, 6.84767l 4.53543, 5.31456l 4.53543, 3.99372l
 4.53543, 2.90818l 4.53543, 2.05343l 4.53543, 1.40664l 4.53543, 0.935241l 4.53543, 0.603753l 4.53543, 0.378553l 4.53543, 0.230591l 4.53543, 0.136491l 4.53543, 0.0785236l 4.53543, 0.0439142l 4.53543, 0.0238773" fill="none" stroke="#00ff00"
 stroke-width="2"/>
<path d="M503.933,273.569l 4.53543, 0.0252996" fill="none" stroke="#00ff00" stroke-width="2"/>
<text x="216.849" y="15.0023" fill="black" font-size="14.8723" font-family="Helvetica">
600V_50_Co60.Spe
</text></svg>
