<?xml version="1.0" standalone="no"?>
<svg width="567.429" height="326.569" viewBox="0 0 567.429 326.569" xmlns="http://www.w3.org/2000/svg">
<title>
/home/ADF/jsm576/Labs_Identification/Elevated/Resolution/Ba133_2_before_last2.svg
</title>
<desc>
Creator: ROOT Version 6.06/08
CreationDate: Fri Jan 25 11:00:49 2019</desc>
<defs>
</defs>
<rect x="0.5" y="0" width="566.929" height="326.069" fill="white"/>
<rect x="57.1929" y="32.6069" width="453.543" height="260.856" fill="white"/>
<rect x="57.1929" y="32.6069" width="453.543" height="260.856" fill="none" stroke="black"/>
<rect x="57.1929" y="32.6069" width="453.543" height="260.856" fill="white"/>
<rect x="57.1929" y="32.6069" width="453.543" height="260.856" fill="none" stroke="black"/>
<path d="M57.1929,288.631h 1.57754v 0.805296h 0.788771v 0.805296h 0.788771v -0.805296h 0.788771v 1.20794h 0.788771v 0.402648h 0.788771v -1.61059h 0.788771v 1.61059h 0.788771v -2.81854h 0.788771v 2.01324h 0.788771v 1.20794h 0.788771v -1.20794h
 0.788771v -1.20794h 0.788771v 2.41589h 0.788771v -4.42913h 0.788771v 3.62383h 0.788771v 0.402648h 1.57754v -1.20794h 0.788771v -1.61059h 0.788771v 1.61059h 0.788771v 1.20794h 0.788771v -1.61059h 0.788771v 1.20794h 0.788771v -1.61059h 1.57754v
 1.61059h 0.788771v -2.81854h 0.788771v 3.22118h 0.788771v 0.402648h 0.788771v -2.81854h 1.57754v 0.805296h 0.788771v 0.805296h 1.57754v -0.805296h 0.788771v -1.20794h 0.788771v 2.01324h 0.788771v 0.805296h 0.788771v -1.20794h 0.788771v 0.402648h
 0.788771v -0.402648h 0.788771v -1.20794h 0.788771v 0.805296h 0.788771v 1.20794h 0.788771v -0.402648h 0.788771v -1.20794h 0.788771v 0.805296h 0.788771v 0.402648h 0.788771v 0.805296h 0.788771v 0.805296h 0.788771v -2.41589h 0.788771v 0.805296h
 0.788771v -0.402648h 2.36631v 2.01324h 0.788771v -3.62383h 0.788771v 1.20794h 0.788771v 1.61059h 0.788771v -2.01324h 0.788771v 2.01324h 0.788771v -0.402648h 0.788771v -0.805296h 0.788771v 0.805296h 0.788771v 0.805296h 0.788771v -2.01324h 0.788771v
 0.402648h 0.788771v -1.20794h 0.788771v 0.402648h 0.788771v 1.20794h 0.788771v -0.402648h 0.788771v 0.805296h 0.788771v -1.20794h 0.788771v 2.41589h 0.788771v -0.402648h 0.788771v -2.41589h 0.788771v -3.22118h 0.788771v 5.23443h 0.788771v -1.20794h
 0.788771v -0.805296h 1.57754v 1.20794h 2.36631v 0.805296h 0.788771v -0.402648h 0.788771v -0.402648h 1.57754v 2.01324h 0.788771v -1.20794h 0.788771v -2.01324h 0.788771v -0.402648h 0.788771v 0.402648h 0.788771v 0.805296h 0.788771v -0.402648h 0.788771v
 2.01324h 0.788771v -1.20794h 0.788771v 1.20794h 0.788771v -2.81854h 0.788771v 0.805296h 0.788771v 1.20794h 0.788771v -1.20794h 0.788771v -0.402648h 0.788771v 0.402648h 1.57754v 1.20794h 0.788771v -0.805296h 0.788771v 0.805296h 0.788771v -0.402648h
 0.788771v -1.20794h 0.788771v 0.402648h 0.788771v 0.402648h 0.788771v 0.402648h 0.788771v -1.61059h 0.788771v 3.22118h 0.788771v -2.41589h 0.788771v 0.805296h 0.788771v -0.402648h 0.788771v -0.805296h 0.788771v 1.20794h 0.788771v -1.20794h 0.788771v
 2.01324h 0.788771v -3.22118h 0.788771v 3.22118h 0.788771v -0.402648h 0.788771v 0.402648h 0.788771v -1.61059h 0.788771v 1.20794h 0.788771v -2.01324h 0.788771v -0.402648h 0.788771v 0.805296h 0.788771v 1.20794h 0.788771v 1.20794h 0.788771v -2.41589h
 0.788771v 1.20794h 0.788771v -2.81854h 0.788771v 2.41589h 1.57754v 0.402648h 1.57754v -0.402648h 0.788771v 0.402648h 0.788771v -1.61059h 0.788771v 2.81854h 0.788771v -2.01324h 0.788771v -3.22118h 0.788771v 2.41589h 0.788771v -1.20794h 0.788771v
 1.20794h 0.788771v -4.02648h 0.788771v 2.41589h 0.788771v -0.402648h 0.788771v 1.61059h 0.788771v -4.42913h 0.788771v 0.805296h 0.788771v -6.84502h 0.788771v 2.41589h 0.788771v -3.22118h 0.788771v -3.62383h 0.788771v -12.4821h 0.788771v -2.41589h
 0.788771v -10.0662h 0.788771v -11.6768h 0.788771v -21.3403h 0.788771v -4.83178h 0.788771v -10.8715h 0.788771v -4.83178h 0.788771v -14.898h 0.788771v -0.402648h 0.788771v 21.3403h 0.788771v 8.85826h 0.788771v 7.65031h 0.788771v 9.66355h 0.788771v
 17.7165h 0.788771v 12.0794h 0.788771v 6.03972h 0.788771v 12.8847h 0.788771v 6.44237h 0.788771v 3.22118h 0.788771v -0.402648h 0.788771v 5.23443h 0.788771v -2.01324h 0.788771v 0.402648h 0.788771v 1.20794h 0.788771v 0.402648h 0.788771v -1.20794h
 0.788771v 2.01324h 0.788771v 0.402648h 0.788771v -1.61059h 1.57754v 0.402648h 0.788771v 1.20794h 0.788771v -2.81854h 0.788771v 0.402648h 0.788771v 1.20794h 0.788771v 0.805296h 0.788771v 1.20794h 0.788771v -1.61059h 1.57754v 0.805296h 0.788771v
 -2.81854h 0.788771v 1.61059h 0.788771v 2.01324h 0.788771v -1.61059h 0.788771v 0.805296h 0.788771v -1.20794h 0.788771v -0.805296h 0.788771v 2.01324h 0.788771v -2.41589h 0.788771v 1.61059h 0.788771v 1.20794h 0.788771v -0.402648h 2.36631v -2.41589h
 0.788771v 2.81854h 0.788771v -3.22118h 0.788771v 0.402648h 0.788771v 2.41589h 0.788771v -0.402648h 0.788771v 1.20794h 0.788771v -0.402648h 0.788771v -0.805296h 0.788771v -0.805296h 0.788771v 1.61059h 0.788771v -0.402648h 0.788771v -2.81854h
 0.788771v 2.01324h 0.788771v -0.805296h 0.788771v -1.20794h 0.788771v 0.402648h 0.788771v 1.20794h 0.788771v 0.805296h 0.788771v -0.402648h 0.788771v -0.805296h 1.57754v -2.01324h 0.788771v 4.02648h 0.788771v -3.22118h 1.57754v 2.01324h 0.788771v
 0.805296h 1.57754v -0.402648h 0.788771v -0.805296h 0.788771v 0.805296h 1.57754v 0.402648h 0.788771v -0.402648h 0.788771v -2.01324h 0.788771v 0.805296h 0.788771v 0.805296h 0.788771v 0.402648h 0.788771v 0.402648h 0.788771v -0.402648h 0.788771v
 0.402648h 0.788771v -0.402648h 1.57754v -0.805296h 0.788771v 2.81854h 0.788771v -1.61059h 0.788771v -1.61059h 0.788771v 0.805296h 0.788771v 0.402648h 0.788771v -1.20794h 0.788771v 0.805296h 0.788771v 2.01324h 0.788771v -3.22118h 0.788771v 1.20794h
 1.57754v -2.41589h 0.788771v 4.02648h 0.788771v -0.402648h 0.788771v -1.20794h 1.57754v -0.805296h 0.788771v 0.402648h 0.788771v -1.61059h 0.788771v 2.41589h 0.788771v 0.402648h 0.788771v -1.61059h 0.788771v 1.61059h 0.788771v -3.22118h 0.788771v
 1.20794h 0.788771v 1.20794h 0.788771v 0.805296h 0.788771v -1.20794h 0.788771v -1.20794h 0.788771v -0.402648h 0.788771v 2.01324h 0.788771v 1.61059h 0.788771v -1.61059h 0.788771v -0.805296h 0.788771v 1.20794h 0.788771v -2.41589h 0.788771v 3.62383h
 0.788771v -2.81854h 0.788771v 2.41589h 0.788771v -0.805296h 1.57754v -0.402648h 1.57754v 2.01324h 0.788771v -1.20794h 1.57754v -1.20794h 0.788771v 2.01324h 0.788771v -2.01324h 0.788771v 1.20794h 0.788771v -0.402648h 0.788771v -2.01324h 0.788771v
 1.20794h 0.788771v 0.805296h 0.788771v -0.402648h 0.788771v 0.402648h 0.788771v -2.01324h 0.788771v 3.62383h 0.788771v -2.01324h 0.788771v 0.402648h 0.788771v 0.402648h 0.788771v 0.805296h 0.788771v -4.83178h 0.788771v 3.62383h 2.36631v -1.20794h
 0.788771v 0.805296h 0.788771v 0.402648h 0.788771v -1.61059h 0.788771v 2.41589h 0.788771v -2.01324h 0.788771v -0.402648h 0.788771v 1.61059h 0.788771v 0.402648h 0.788771v -0.805296h 1.57754v -1.20794h 0.788771v -0.805296h 0.788771v 2.81854h 0.788771v
 -1.61059h 0.788771v 0.805296h 1.57754v -0.402648h 0.788771v 0.402648h 0.788771v -0.402648h 0.788771v 1.20794h 0.788771v -5.23443h 0.788771v 2.81854h 0.788771v 2.81854h 0.788771v -3.22118h 0.788771v 1.61059h 0.788771v -1.20794h 0.788771v 1.20794h
 0.788771v -0.805296h 0.788771v 0.805296h 0.788771v -0.402648h 1.57754v 0.805296h 0.788771v -2.01324h 0.788771v 2.41589h 0.788771v -1.61059h 0.788771v 0.805296h 0.788771v 2.01324h 0.788771v -2.81854h 0.788771v 1.20794h 0.788771v -0.805296h 0.788771v
 -3.22118h 0.788771v 2.01324h 0.788771v -0.402648h 0.788771v -1.61059h 0.788771v 2.41589h 0.788771v -3.62383h 1.57754v 2.01324h 0.788771v -1.20794h 0.788771v -3.62383h 0.788771v 2.41589h 0.788771v -3.22118h 0.788771v 0.805296h 0.788771v -4.83178h
 0.788771v -5.63707h 0.788771v -2.01324h 0.788771v -9.66355h 0.788771v -8.05296h 0.788771v -15.3006h 0.788771v -17.7165h 0.788771v -14.898h 0.788771v -14.898h 0.788771v -36.641h 0.788771v -32.2118h 0.788771v -35.433h 0.788771v -20.9377h 0.788771v
 -18.1192h 0.788771v 7.65031h 0.788771v -3.22118h 0.788771v -5.63707h 0.788771v 47.1098h 0.788771v 16.5086h 0.788771v 28.1854h 0.788771v 58.384h 0.788771v 16.1059h 0.788771v 24.5615h 0.788771v 15.7033h 0.788771v 19.3271h 0.788771v 5.63707h 0.788771v
 8.05296h 1.57754v 1.20794h 0.788771v 0.805296h 0.788771v 0.805296h 0.788771v 0.402648h 0.788771v 1.61059h 1.57754v -2.01324h 0.788771v 1.61059h 0.788771v -0.805296h 0.788771v 1.20794h 0.788771v 1.61059h 1.57754v -1.20794h 0.788771v 1.20794h
 0.788771v -0.402648h 1.57754v -0.402648h 0.788771v 1.20794h 0.788771v 0.805296h 0.788771v -1.20794h 0.788771v 0.402648h 0.788771v -0.402648h 0.788771v 0.402648h 0.788771v 0.402648h 0.788771v -0.805296h 0.788771v 1.61059h 0.788771v -1.61059h
 0.788771v -0.402648h 0.788771v -0.805296h 0.788771v 0.805296h 0.788771v 0.402648h 0.788771v -1.61059h 0.788771v 2.41589h 0.788771v -1.61059h 0.788771v 0.402648h 0.788771v 0.805296h 0.788771v -0.402648h 0.788771v 1.20794h 0.788771v -0.402648h
 0.788771v -1.20794h 0.788771v 0.805296h 1.57754v 1.20794h 0.788771v -2.01324h 0.788771v 1.61059h 0.788771v 0.402648h 0.788771v -2.41589h 0.788771v 1.61059h 1.57754v -0.805296h 1.57754v -1.20794h 0.788771v 2.41589h 0.788771v -1.61059h 0.788771v
 1.20794h 0.788771v 0.402648h 0.788771v -0.805296h 0.788771v 0.805296h 1.57754v 0.402648h 0.788771v 0.402648h 0.788771v -1.20794h 0.788771v 0.402648h 0.788771v -0.805296h 1.57754v -2.01324h 0.788771v 1.61059h 0.788771v 1.20794h 0.788771v -1.20794h
 0.788771v 0.402648h 0.788771v 0.402648h 1.57754v -0.805296h 0.788771v 0.402648h 0.788771v 0.402648h 0.788771v -1.20794h 0.788771v 1.20794h 1.57754v -0.402648h 0.788771v 1.20794h 0.788771v -1.61059h 0.788771v 1.20794h 0.788771v -1.20794h 0.788771v
 0.805296h 0.788771v 0.805296h 0.788771v -1.61059h 0.788771v -1.61059h 0.788771v 3.22118h 0.788771v -2.01324h 0.788771v 2.01324h 0.788771v -2.41589h 0.788771v 2.01324h 1.57754v -0.805296h 0.788771v -0.402648h 0.788771v -0.805296h 0.788771v 0.402648h
 0.788771v 0.402648h 0.788771v -1.61059h 0.788771v 4.02648h 0.788771v -2.81854h 0.788771v 0.805296h 0.788771v 0.805296h 0.788771v -0.805296h 0.788771v 0.402648h 0.788771v -0.402648h 0.788771v 1.20794h 0.788771v -2.01324h 0.788771v 0.805296h 0.788771v
 1.20794h 0.788771v -1.20794h 0.788771v 1.20794h 0.788771v -0.805296h 0.788771v -1.20794h 0.788771v 2.01324h 0.788771v -1.61059h 0.788771v 1.61059h 0.788771v -1.20794h 0.788771v 1.20794h 0.788771v -2.41589h 0.788771v 2.01324h 0.788771v -0.402648h
 0.788771v -2.01324h 0.788771v 2.01324h 2.36631v -0.402648h 0.788771v 0.402648h 0.788771v -0.402648h 0.788771v 0.402648h 0.788771v -0.805296h 0.788771v 0.805296h 0.788771v -0.402648h 0.788771v -0.805296h 0.788771v 0.402648h 0.788771v 1.20794h
 0.788771v -0.402648h 1.57754v 0.402648h 1.57754v -1.61059h 0.788771v 0.402648h 0.788771v 0.805296h 0.788771v 0.402648h 0.788771v -0.805296h 0.788771v 1.20794h 0.788771v -0.805296h 0.788771v -0.402648h 0.788771v 1.61059h 0.788771v -1.61059h 0.788771v
 -0.805296h 0.788771v 1.20794h 0.788771v -0.805296h 0.788771v 0.805296h 0.788771v -0.805296h 0.788771v 0.402648h 0.788771v 0.805296h 0.788771v 0.805296h 0.788771v -1.61059h 1.57754v 0.402648h 0.788771v -0.402648h 0.788771v -1.20794h 0.788771v
 0.402648h 1.57754v 2.01324h 0.788771" fill="none" stroke="#ff0000" stroke-width="2"/>
<path d="M59.4606,289.94l 4.53543, 0.0208308l 4.53543, 0.0208308l 4.53543, 0.0208308l 4.53543, 0.0208308l 4.53543, 0.0208308l 4.53543, 0.0208308l 4.53543, 0.0208308l 4.53543, 0.0208308l 4.53543, 0.0208308l 4.53543, 0.0208308l 4.53543, 0.0208308l
 4.53543, 0.0208308l 4.53543, 0.0208308l 4.53543, 0.0208308l 4.53543, 0.0208308l 4.53543, 0.0208308l 4.53543, 0.0208308l 4.53543, 0.0208308l 4.53543, 0.0208308l 4.53543, 0.0208308l 4.53543, 0.0208308l 4.53543, 0.0208308l 4.53543, 0.0208308l 4.53543,
 0.0208279l 4.53543, 0.0192729l 4.53543, -0.184776l 4.53543, -6.46586l 4.53543, -45.9359l 4.53543, -48.1383l 4.53543, 53.844l 4.53543, 41.6763l 4.53543, 5.20469l 4.53543, 0.167083l 4.53543, 0.0218191l 4.53543, 0.0208324l 4.53543, 0.0208308l 4.53543,
 0.0208308l 4.53543, 0.0208308l 4.53543, 0.0208308l 4.53543, 0.0208308l 4.53543, 0.0208308l 4.53543, 0.0208308l 4.53543, 0.0208308l 4.53543, 0.0208308l 4.53543, 0.0208308l 4.53543, 0.0208308l 4.53543, 0.0208308l 4.53543, 0.0208308l 4.53543,
 0.0208308" fill="none" stroke="#0000ff" stroke-width="2"/>
<path d="M281.697,290.961l 4.53543, 0.0208308l 4.53543, 0.0208308l 4.53543, 0.0208308l 4.53543, 0.0208308l 4.53543, 0.0208308l 4.53543, 0.0208308l 4.53543, 0.0208308l 4.53543, 0.0208308l 4.53543, 0.0208308l 4.53543, 0.0208308l 4.53543, 0.0208308l
 4.53543, 0.0208308l 4.53543, 0.0208308l 4.53543, 0.0208279l 4.53543, 0.0192376l 4.53543, -0.207484l 4.53543, -8.48411l 4.53543, -78.7752l 4.53543, -143.803l 4.53543, 70.0864l 4.53543, 131.652l 4.53543, 28.2404l 4.53543, 1.44086l 4.53543, 0.0391699l
 4.53543, 0.0208928l 4.53543, 0.0208308l 4.53543, 0.0208308l 4.53543, 0.0208308l 4.53543, 0.0208308l 4.53543, 0.0208308l 4.53543, 0.0208308l 4.53543, 0.0208308l 4.53543, 0.0208308l 4.53543, 0.0208308l 4.53543, 0.0208308l 4.53543, 0.0208308l 4.53543,
 0.0208308l 4.53543, 0.0208308l 4.53543, 0.0208308l 4.53543, 0.0208308l 4.53543, 0.0208308l 4.53543, 0.0208308l 4.53543, 0.0208308l 4.53543, 0.0208308l 4.53543, 0.0208308l 4.53543, 0.0208308l 4.53543, 0.0208308l 4.53543, 0.0208308l 4.53543,
 0.0208308" fill="none" stroke="#0000ff" stroke-width="2"/>
<path d="M503.933,291.981l 4.53543, 0.0208308" fill="none" stroke="#0000ff" stroke-width="2"/>
<rect x="351.996" y="21.1945" width="204.094" height="130.428" fill="white"/>
<path d="M351.996,151.622h 204.094" fill="none" stroke="black" stroke-width="2"/>
<path d="M556.091,151.622v -130.428" fill="none" stroke="black" stroke-width="2"/>
<path d="M556.091,21.1945h -204.094" fill="none" stroke="black" stroke-width="2"/>
<path d="M351.996,21.1945v 130.428" fill="none" stroke="black" stroke-width="2"/>
<text x="372.583" y="31.8117" fill="black" font-size="12.3666" font-family="Helvetica">
 / ndf 
</text>
<text x="368.038" y="28.4033" fill="black" font-size="8.41109" font-family="Helvetica">
2
</text>
<text x="361.79" y="31.8117" fill="black" font-size="12.3666" font-family="Times">
&#0967;
</text>
<text x="484.492" y="32.9478" fill="black" font-size="12.3666" font-family="Helvetica">
 818.4 / 566
</text>
<text x="361.79" y="47.1494" fill="black" font-size="12.3666" font-family="Helvetica">
1-Centroid 
</text>
<text x="528.801" y="47.1494" fill="black" font-size="12.3666" font-family="Helvetica">
 0.1
</text>
<text x="521.984" y="47.1494" fill="black" font-size="12.3666" font-family="Times">
&#0177;
</text>
<text x="486.764" y="47.1494" fill="black" font-size="12.3666" font-family="Helvetica">
  2348 
</text>
<text x="361.79" y="62.4872" fill="black" font-size="12.3666" font-family="Helvetica">
1-FWHM   
</text>
<text x="520.28" y="61.9191" fill="black" font-size="12.3666" font-family="Helvetica">
 0.19
</text>
<text x="513.463" y="61.9191" fill="black" font-size="12.3666" font-family="Times">
&#0177;
</text>
<text x="478.243" y="61.9191" fill="black" font-size="12.3666" font-family="Helvetica">
 11.37 
</text>
<text x="361.79" y="76.1207" fill="black" font-size="12.3666" font-family="Helvetica">
1-Counts 
</text>
<text x="520.28" y="76.1207" fill="black" font-size="12.3666" font-family="Helvetica">
 57.2
</text>
<text x="513.463" y="76.1207" fill="black" font-size="12.3666" font-family="Times">
&#0177;
</text>
<text x="478.243" y="76.1207" fill="black" font-size="12.3666" font-family="Helvetica">
  3039 
</text>
<text x="361.79" y="90.8904" fill="black" font-size="12.3666" font-family="Helvetica">
2-Centroid 
</text>
<text x="528.801" y="90.8904" fill="black" font-size="12.3666" font-family="Helvetica">
 0.1
</text>
<text x="521.984" y="90.8904" fill="black" font-size="12.3666" font-family="Times">
&#0177;
</text>
<text x="486.764" y="90.8904" fill="black" font-size="12.3666" font-family="Helvetica">
  2574 
</text>
<text x="361.79" y="105.66" fill="black" font-size="12.3666" font-family="Helvetica">
2-FWHM   
</text>
<text x="528.801" y="105.092" fill="black" font-size="12.3666" font-family="Helvetica">
 0.1
</text>
<text x="521.984" y="105.092" fill="black" font-size="12.3666" font-family="Times">
&#0177;
</text>
<text x="490.172" y="105.092" fill="black" font-size="12.3666" font-family="Helvetica">
  11.7 
</text>
<text x="361.79" y="119.862" fill="black" font-size="12.3666" font-family="Helvetica">
2-Counts 
</text>
<text x="520.28" y="119.862" fill="black" font-size="12.3666" font-family="Helvetica">
 87.2
</text>
<text x="513.463" y="119.862" fill="black" font-size="12.3666" font-family="Times">
&#0177;
</text>
<text x="478.243" y="119.862" fill="black" font-size="12.3666" font-family="Helvetica">
  7429 
</text>
<text x="361.79" y="132.927" fill="black" font-size="12.3666" font-family="Helvetica">
Intercept 
</text>
<text x="520.28" y="134.063" fill="black" font-size="12.3666" font-family="Helvetica">
 1.55
</text>
<text x="513.463" y="134.063" fill="black" font-size="12.3666" font-family="Times">
&#0177;
</text>
<text x="478.243" y="134.063" fill="black" font-size="12.3666" font-family="Helvetica">
 28.38 
</text>
<text x="361.79" y="147.697" fill="black" font-size="12.3666" font-family="Helvetica">
Slope    
</text>
<text x="493.581" y="148.833" fill="black" font-size="12.3666" font-family="Helvetica">
 0.000615
</text>
<text x="486.764" y="148.833" fill="black" font-size="12.3666" font-family="Times">
&#0177;
</text>
<text x="434.502" y="148.833" fill="black" font-size="12.3666" font-family="Helvetica">
0.008997 
</text>
<text x="427.685" y="148.833" fill="black" font-size="12.3666" font-family="Times">
&#8722;
</text>
<text x="424.845" y="148.833" fill="black" font-size="12.3666" font-family="Helvetica">
 
</text>
<path d="M57.1929,293.463h 453.543" fill="none" stroke="black" stroke-width="2"/>
<text x="466.314" y="315.844" fill="black" font-size="10.9701" font-family="Helvetica">
Channels
</text>
<path d="M73.7571,285.637v 7.82567" fill="none" stroke="black" stroke-width="2"/>
<path d="M113.196,289.55v 3.91283" fill="none" stroke="black" stroke-width="2"/>
<path d="M152.634,289.55v 3.91283" fill="none" stroke="black" stroke-width="2"/>
<path d="M192.073,289.55v 3.91283" fill="none" stroke="black" stroke-width="2"/>
<path d="M231.511,285.637v 7.82567" fill="none" stroke="black" stroke-width="2"/>
<path d="M270.95,289.55v 3.91283" fill="none" stroke="black" stroke-width="2"/>
<path d="M310.388,289.55v 3.91283" fill="none" stroke="black" stroke-width="2"/>
<path d="M349.827,289.55v 3.91283" fill="none" stroke="black" stroke-width="2"/>
<path d="M389.266,285.637v 7.82567" fill="none" stroke="black" stroke-width="2"/>
<path d="M73.7571,285.637v 7.82567" fill="none" stroke="black" stroke-width="2"/>
<path d="M389.266,285.637v 7.82567" fill="none" stroke="black" stroke-width="2"/>
<path d="M428.704,289.55v 3.91283" fill="none" stroke="black" stroke-width="2"/>
<path d="M468.143,289.55v 3.91283" fill="none" stroke="black" stroke-width="2"/>
<path d="M507.581,289.55v 3.91283" fill="none" stroke="black" stroke-width="2"/>
<text x="61.283" y="303.915" fill="black" font-size="10.9701" font-family="Helvetica">
2200
</text>
<text x="219.205" y="303.915" fill="black" font-size="10.9701" font-family="Helvetica">
2400
</text>
<text x="377.127" y="303.915" fill="black" font-size="10.9701" font-family="Helvetica">
2600
</text>
<path d="M57.1929,293.463v -260.856" fill="none" stroke="black" stroke-width="2"/>
<path d="M70.7992,293.463h -13.6063" fill="none" stroke="black" stroke-width="2"/>
<path d="M63.9961,285.41h -6.80315" fill="none" stroke="black" stroke-width="2"/>
<path d="M63.9961,277.357h -6.80315" fill="none" stroke="black" stroke-width="2"/>
<path d="M63.9961,269.304h -6.80315" fill="none" stroke="black" stroke-width="2"/>
<path d="M63.9961,261.251h -6.80315" fill="none" stroke="black" stroke-width="2"/>
<path d="M70.7992,253.198h -13.6063" fill="none" stroke="black" stroke-width="2"/>
<path d="M63.9961,245.145h -6.80315" fill="none" stroke="black" stroke-width="2"/>
<path d="M63.9961,237.092h -6.80315" fill="none" stroke="black" stroke-width="2"/>
<path d="M63.9961,229.039h -6.80315" fill="none" stroke="black" stroke-width="2"/>
<path d="M63.9961,220.986h -6.80315" fill="none" stroke="black" stroke-width="2"/>
<path d="M70.7992,212.933h -13.6063" fill="none" stroke="black" stroke-width="2"/>
<path d="M63.9961,204.88h -6.80315" fill="none" stroke="black" stroke-width="2"/>
<path d="M63.9961,196.827h -6.80315" fill="none" stroke="black" stroke-width="2"/>
<path d="M63.9961,188.774h -6.80315" fill="none" stroke="black" stroke-width="2"/>
<path d="M63.9961,180.721h -6.80315" fill="none" stroke="black" stroke-width="2"/>
<path d="M70.7992,172.668h -13.6063" fill="none" stroke="black" stroke-width="2"/>
<path d="M63.9961,164.615h -6.80315" fill="none" stroke="black" stroke-width="2"/>
<path d="M63.9961,156.562h -6.80315" fill="none" stroke="black" stroke-width="2"/>
<path d="M63.9961,148.509h -6.80315" fill="none" stroke="black" stroke-width="2"/>
<path d="M63.9961,140.456h -6.80315" fill="none" stroke="black" stroke-width="2"/>
<path d="M70.7992,132.403h -13.6063" fill="none" stroke="black" stroke-width="2"/>
<path d="M63.9961,124.35h -6.80315" fill="none" stroke="black" stroke-width="2"/>
<path d="M63.9961,116.297h -6.80315" fill="none" stroke="black" stroke-width="2"/>
<path d="M63.9961,108.244h -6.80315" fill="none" stroke="black" stroke-width="2"/>
<path d="M63.9961,100.191h -6.80315" fill="none" stroke="black" stroke-width="2"/>
<path d="M70.7992,92.1385h -13.6063" fill="none" stroke="black" stroke-width="2"/>
<path d="M63.9961,84.0855h -6.80315" fill="none" stroke="black" stroke-width="2"/>
<path d="M63.9961,76.0325h -6.80315" fill="none" stroke="black" stroke-width="2"/>
<path d="M63.9961,67.9796h -6.80315" fill="none" stroke="black" stroke-width="2"/>
<path d="M63.9961,59.9266h -6.80315" fill="none" stroke="black" stroke-width="2"/>
<path d="M70.7992,51.8737h -13.6063" fill="none" stroke="black" stroke-width="2"/>
<path d="M70.7992,51.8737h -13.6063" fill="none" stroke="black" stroke-width="2"/>
<path d="M63.9961,43.8207h -6.80315" fill="none" stroke="black" stroke-width="2"/>
<path d="M63.9961,35.7677h -6.80315" fill="none" stroke="black" stroke-width="2"/>
<text x="48.2175" y="297.098" fill="black" font-size="10.9701" font-family="Helvetica">
0
</text>
<text x="36.2881" y="256.766" fill="black" font-size="10.9701" font-family="Helvetica">
100
</text>
<text x="36.2881" y="216.433" fill="black" font-size="10.9701" font-family="Helvetica">
200
</text>
<text x="36.2881" y="176.1" fill="black" font-size="10.9701" font-family="Helvetica">
300
</text>
<text x="36.2881" y="136.336" fill="black" font-size="10.9701" font-family="Helvetica">
400
</text>
<text x="36.2881" y="96.003" fill="black" font-size="10.9701" font-family="Helvetica">
500
</text>
<text x="36.2881" y="55.6704" fill="black" font-size="10.9701" font-family="Helvetica">
600
</text>
<rect x="351.996" y="21.1945" width="204.094" height="130.428" fill="white"/>
<path d="M351.996,151.622h 204.094" fill="none" stroke="black" stroke-width="2"/>
<path d="M556.091,151.622v -130.428" fill="none" stroke="black" stroke-width="2"/>
<path d="M556.091,21.1945h -204.094" fill="none" stroke="black" stroke-width="2"/>
<path d="M351.996,21.1945v 130.428" fill="none" stroke="black" stroke-width="2"/>
<text x="372.583" y="31.8117" fill="black" font-size="12.3666" font-family="Helvetica">
 / ndf 
</text>
<text x="368.038" y="28.4033" fill="black" font-size="8.41109" font-family="Helvetica">
2
</text>
<text x="361.79" y="31.8117" fill="black" font-size="12.3666" font-family="Times">
&#0967;
</text>
<text x="484.492" y="32.9478" fill="black" font-size="12.3666" font-family="Helvetica">
 818.4 / 566
</text>
<text x="361.79" y="47.1494" fill="black" font-size="12.3666" font-family="Helvetica">
1-Centroid 
</text>
<text x="528.801" y="47.1494" fill="black" font-size="12.3666" font-family="Helvetica">
 0.1
</text>
<text x="521.984" y="47.1494" fill="black" font-size="12.3666" font-family="Times">
&#0177;
</text>
<text x="486.764" y="47.1494" fill="black" font-size="12.3666" font-family="Helvetica">
  2348 
</text>
<text x="361.79" y="62.4872" fill="black" font-size="12.3666" font-family="Helvetica">
1-FWHM   
</text>
<text x="520.28" y="61.9191" fill="black" font-size="12.3666" font-family="Helvetica">
 0.19
</text>
<text x="513.463" y="61.9191" fill="black" font-size="12.3666" font-family="Times">
&#0177;
</text>
<text x="478.243" y="61.9191" fill="black" font-size="12.3666" font-family="Helvetica">
 11.37 
</text>
<text x="361.79" y="76.1207" fill="black" font-size="12.3666" font-family="Helvetica">
1-Counts 
</text>
<text x="520.28" y="76.1207" fill="black" font-size="12.3666" font-family="Helvetica">
 57.2
</text>
<text x="513.463" y="76.1207" fill="black" font-size="12.3666" font-family="Times">
&#0177;
</text>
<text x="478.243" y="76.1207" fill="black" font-size="12.3666" font-family="Helvetica">
  3039 
</text>
<text x="361.79" y="90.8904" fill="black" font-size="12.3666" font-family="Helvetica">
2-Centroid 
</text>
<text x="528.801" y="90.8904" fill="black" font-size="12.3666" font-family="Helvetica">
 0.1
</text>
<text x="521.984" y="90.8904" fill="black" font-size="12.3666" font-family="Times">
&#0177;
</text>
<text x="486.764" y="90.8904" fill="black" font-size="12.3666" font-family="Helvetica">
  2574 
</text>
<text x="361.79" y="105.66" fill="black" font-size="12.3666" font-family="Helvetica">
2-FWHM   
</text>
<text x="528.801" y="105.092" fill="black" font-size="12.3666" font-family="Helvetica">
 0.1
</text>
<text x="521.984" y="105.092" fill="black" font-size="12.3666" font-family="Times">
&#0177;
</text>
<text x="490.172" y="105.092" fill="black" font-size="12.3666" font-family="Helvetica">
  11.7 
</text>
<text x="361.79" y="119.862" fill="black" font-size="12.3666" font-family="Helvetica">
2-Counts 
</text>
<text x="520.28" y="119.862" fill="black" font-size="12.3666" font-family="Helvetica">
 87.2
</text>
<text x="513.463" y="119.862" fill="black" font-size="12.3666" font-family="Times">
&#0177;
</text>
<text x="478.243" y="119.862" fill="black" font-size="12.3666" font-family="Helvetica">
  7429 
</text>
<text x="361.79" y="132.927" fill="black" font-size="12.3666" font-family="Helvetica">
Intercept 
</text>
<text x="520.28" y="134.063" fill="black" font-size="12.3666" font-family="Helvetica">
 1.55
</text>
<text x="513.463" y="134.063" fill="black" font-size="12.3666" font-family="Times">
&#0177;
</text>
<text x="478.243" y="134.063" fill="black" font-size="12.3666" font-family="Helvetica">
 28.38 
</text>
<text x="361.79" y="147.697" fill="black" font-size="12.3666" font-family="Helvetica">
Slope    
</text>
<text x="493.581" y="148.833" fill="black" font-size="12.3666" font-family="Helvetica">
 0.000615
</text>
<text x="486.764" y="148.833" fill="black" font-size="12.3666" font-family="Times">
&#0177;
</text>
<text x="434.502" y="148.833" fill="black" font-size="12.3666" font-family="Helvetica">
0.008997 
</text>
<text x="427.685" y="148.833" fill="black" font-size="12.3666" font-family="Times">
&#8722;
</text>
<text x="424.845" y="148.833" fill="black" font-size="12.3666" font-family="Helvetica">
 
</text>
<path d="M59.4606,293.463h 113.386l 4.53543, -0.207168l 4.53543, -6.48669l 4.53543, -45.9568l 4.53543, -48.1591l 4.53543, 53.8232l 4.53543, 41.6555l 4.53543, 5.18386l 4.53543, 0.147242h 72.5669" fill="none" stroke="#00ff00" stroke-width="2"/>
<path d="M281.697,293.463h 222.236" fill="none" stroke="#00ff00" stroke-width="2"/>
<path d="M503.933,293.463h 4.53543" fill="none" stroke="#00ff00" stroke-width="2"/>
<path d="M59.4606,293.463h 222.236" fill="none" stroke="#00ff00" stroke-width="2"/>
<path d="M281.697,293.463h 68.0315l 4.53543, -0.229911l 4.53543, -8.50494l 4.53543, -78.7961l 4.53543, -143.823l 4.53543, 70.0655l 4.53543, 131.631l 4.53543, 28.2195l 4.53543, 1.43843h 117.921" fill="none" stroke="#00ff00" stroke-width="2"/>
<path d="M503.933,293.463h 4.53543" fill="none" stroke="#00ff00" stroke-width="2"/>
<text x="110.705" y="15.3378" fill="black" font-size="15.3844" font-family="Helvetica">
Labs_Identification/Elevated/Resolution/Ba133.TKA
</text></svg>
