<?xml version="1.0" standalone="no"?>
<svg width="567.429" height="326.569" viewBox="0 0 567.429 326.569" xmlns="http://www.w3.org/2000/svg">
<title>
/home/ADF/jsm576/Labs_Identification/Elevated/Resolution/Ba133_last2.svg
</title>
<desc>
Creator: ROOT Version 6.06/08
CreationDate: Fri Jan 25 10:57:10 2019</desc>
<defs>
</defs>
<rect x="0.5" y="0" width="566.929" height="326.069" fill="white"/>
<rect x="57.1929" y="32.6069" width="453.543" height="260.856" fill="white"/>
<rect x="57.1929" y="32.6069" width="453.543" height="260.856" fill="none" stroke="black"/>
<rect x="57.1929" y="32.6069" width="453.543" height="260.856" fill="white"/>
<rect x="57.1929" y="32.6069" width="453.543" height="260.856" fill="none" stroke="black"/>
<path d="M57.1929,293.312h 0.735078v -0.452246h 1.47016v -0.150749h 0.735078v -0.150749h 0.735078v 0.301497h 0.735078v -0.602995h 0.735078v 0.602995h 0.735078v -0.150749h 0.735078v 0.301497h 1.47016v -0.301497h 1.47016v -0.301497h 0.735078v
 -0.452246h 0.735078v 0.904492h 0.735078v 0.150749h 0.735078v -0.753744h 0.735078v 0.452246h 1.47016v 0.452246h 0.735078v -0.150749h 0.735078v -0.150749h 0.735078v -0.602995h 0.735078v 0.602995h 1.47016v 0.301497h 0.735078v -0.150749h 0.735078v
 -0.301497h 0.735078v 0.301497h 0.735078v -0.150749h 1.47016v -0.150749h 0.735078v -0.602995h 0.735078v 0.753744h 2.20523v 0.301497h 1.47016v -0.452246h 0.735078v 0.150749h 0.735078v 0.301497h 0.735078v -0.904492h 0.735078v 0.753744h 0.735078v
 -0.301497h 0.735078v 0.301497h 0.735078v -0.602995h 0.735078v 0.452246h 0.735078v 0.301497h 1.47016v -1.05524h 0.735078v 1.05524h 0.735078v -1.20599h 0.735078v 0.753744h 0.735078v 0.301497h 0.735078v -0.150749h 0.735078v 0.150749h 0.735078v
 0.301497h 0.735078v -0.904492h 0.735078v 0.301497h 0.735078v 0.452246h 0.735078v -0.452246h 0.735078v -0.301497h 0.735078v 0.452246h 0.735078v -0.150749h 0.735078v -0.150749h 0.735078v 0.301497h 0.735078v 0.452246h 0.735078v -0.602995h 0.735078v
 -0.301497h 0.735078v 0.753744h 0.735078v -0.753744h 0.735078v 0.753744h 0.735078v -0.301497h 0.735078v -0.150749h 0.735078v 0.301497h 0.735078v -0.301497h 1.47016v -0.301497h 0.735078v 0.301497h 0.735078v 0.301497h 1.47016v 0.150749h 1.47016v
 -0.150749h 0.735078v -0.753744h 0.735078v -0.150749h 0.735078v 1.05524h 0.735078v -0.904492h 0.735078v 0.753744h 0.735078v -0.150749h 1.47016v -0.301497h 2.20523v 0.301497h 1.47016v -0.452246h 0.735078v -0.301497h 0.735078v 0.904492h 0.735078v
 -0.602995h 0.735078v 0.301497h 0.735078v 0.150749h 0.735078v -0.452246h 0.735078v 0.150749h 0.735078v -0.904492h 0.735078v 1.35674h 0.735078v -0.301497h 1.47016v -0.150749h 2.20523v 0.150749h 0.735078v -0.150749h 0.735078v -0.602995h 0.735078v
 0.602995h 0.735078v -0.301497h 0.735078v 0.301497h 0.735078v -0.301497h 0.735078v 0.904492h 0.735078v -0.150749h 0.735078v -0.150749h 0.735078v -0.301497h 0.735078v -1.35674h 0.735078v 1.50749h 0.735078v -0.602995h 0.735078v 0.150749h 0.735078v
 0.602995h 0.735078v -0.150749h 0.735078v -0.301497h 0.735078v 0.150749h 0.735078v -0.301497h 0.735078v 0.150749h 0.735078v 0.301497h 0.735078v -0.452246h 0.735078v 0.452246h 0.735078v -0.904492h 0.735078v -0.150749h 0.735078v 0.150749h 0.735078v
 -0.150749h 0.735078v 1.20599h 0.735078v -1.80898h 0.735078v 1.05524h 0.735078v 0.150749h 0.735078v -0.150749h 0.735078v -0.150749h 0.735078v 0.301497h 0.735078v -0.452246h 0.735078v -0.301497h 0.735078v -1.20599h 0.735078v 0.753744h 0.735078v
 0.301497h 0.735078v -0.301497h 0.735078v 0.452246h 0.735078v 0.301497h 0.735078v -0.602995h 0.735078v 0.150749h 0.735078v 0.602995h 0.735078v -0.602995h 0.735078v -0.150749h 1.47016v -0.753744h 0.735078v 1.20599h 0.735078v -0.452246h 0.735078v
 -1.50749h 0.735078v 0.602995h 0.735078v -0.904492h 0.735078v 1.35674h 0.735078v -1.20599h 0.735078v -1.65824h 0.735078v -0.150749h 0.735078v -0.904492h 0.735078v 1.50749h 0.735078v -2.26123h 0.735078v -0.753744h 1.47016v -3.46722h 0.735078v
 0.301497h 0.735078v -2.11048h 0.735078v -2.26123h 0.735078v -6.63294h 0.735078v -3.61797h 0.735078v -6.1807h 0.735078v -8.89417h 0.735078v -16.1301h 0.735078v -20.2003h 0.735078v -21.8586h 0.735078v -21.8586h 0.735078v -33.7677h 0.735078v -20.6526h
 0.735078v -28.3408h 0.735078v -25.175h 0.735078v -12.2106h 0.735078v -7.23594h 0.735078v 1.95973h 0.735078v 14.9241h 0.735078v 28.3408h 0.735078v 21.8586h 0.735078v 33.7677h 0.735078v 35.1245h 0.735078v 30.3005h 0.735078v 17.4869h 0.735078v 21.1048h
 0.735078v 12.8136h 0.735078v 10.1002h 0.735078v 7.53744h 0.735078v 3.16572h 0.735078v 2.26123h 0.735078v 4.07022h 0.735078v -0.301497h 0.735078v 2.11048h 0.735078v -0.452246h 0.735078v 0.150749h 0.735078v 0.150749h 0.735078v -0.150749h 0.735078v
 1.05524h 0.735078v -1.05524h 0.735078v 0.452246h 0.735078v 0.301497h 0.735078v 0.452246h 0.735078v 0.150749h 0.735078v -0.452246h 0.735078v 0.150749h 0.735078v 0.150749h 1.47016v 0.150749h 0.735078v -0.150749h 0.735078v 0.301497h 0.735078v 0.301497h
 0.735078v -0.301497h 0.735078v 0.150749h 0.735078v -0.452246h 0.735078v 0.452246h 1.47016v 0.150749h 0.735078v 0.150749h 0.735078v -0.452246h 0.735078v 0.452246h 0.735078v -0.150749h 2.20523v -0.150749h 2.94031v 0.452246h 0.735078v -0.602995h
 0.735078v 0.452246h 0.735078v -0.301497h 0.735078v 0.150749h 0.735078v 0.301497h 0.735078v -0.150749h 0.735078v 0.150749h 1.47016v -0.150749h 0.735078v 0.150749h 0.735078v -0.150749h 1.47016v 0.150749h 2.20523v -0.150749h 0.735078v 0.150749h
 1.47016v -0.150749h 2.20523v 0.150749h 0.735078v -0.753744h 0.735078v 0.301497h 0.735078v 0.301497h 0.735078v -0.150749h 2.20523v 0.150749h 0.735078v -0.602995h 0.735078v 0.753744h 0.735078v -0.602995h 0.735078v 0.602995h 1.47016v -0.301497h
 0.735078v -0.150749h 0.735078v 0.150749h 0.735078v 0.301497h 0.735078v -0.150749h 0.735078v 0.150749h 0.735078v -0.602995h 0.735078v 0.602995h 1.47016v -0.150749h 2.20523v 0.150749h 0.735078v -0.150749h 1.47016v -0.301497h 0.735078v 0.150749h
 0.735078v 0.150749h 2.20523v 0.150749h 1.47016v -0.301497h 1.47016v 0.301497h 2.20523v -0.301497h 0.735078v -0.150749h 0.735078v 0.301497h 0.735078v -0.301497h 0.735078v 0.301497h 0.735078v -0.150749h 1.47016v 0.150749h 0.735078v -0.452246h
 0.735078v 0.452246h 0.735078v -0.150749h 1.47016v 0.150749h 0.735078v -0.150749h 1.47016v 0.301497h 0.735078v -0.301497h 0.735078v 0.150749h 0.735078v 0.150749h 0.735078v -0.602995h 0.735078v 0.452246h 0.735078v -0.150749h 0.735078v -0.301497h
 0.735078v 0.602995h 0.735078v -0.301497h 0.735078v 0.301497h 2.20523v -0.301497h 1.47016v 0.150749h 0.735078v -0.150749h 0.735078v 0.150749h 2.20523v 0.150749h 0.735078v -0.150749h 1.47016v -0.301497h 0.735078v 0.452246h 0.735078v -0.452246h
 0.735078v 0.301497h 2.94031v 0.150749h 0.735078v -0.602995h 0.735078v 0.301497h 0.735078v 0.301497h 0.735078v -0.150749h 2.20523v -0.301497h 0.735078v 0.301497h 1.47016v 0.150749h 0.735078v -0.452246h 0.735078v 0.301497h 1.47016v 0.150749h 0.735078v
 -0.452246h 0.735078v 0.301497h 1.47016v -0.301497h 0.735078v 0.452246h 0.735078v -0.452246h 0.735078v 0.301497h 0.735078v -0.150749h 1.47016v -0.301497h 0.735078v 0.602995h 0.735078v -0.150749h 0.735078v -0.150749h 0.735078v 0.301497h 0.735078v
 -0.452246h 0.735078v 0.150749h 0.735078v 0.301497h 0.735078v -0.301497h 0.735078v -0.150749h 1.47016v 0.452246h 0.735078v -0.150749h 0.735078v -0.150749h 0.735078v 0.301497h 0.735078v -0.602995h 0.735078v 0.301497h 1.47016v -0.150749h 0.735078v
 0.150749h 1.47016v -0.150749h 0.735078v -0.452246h 0.735078v 0.301497h 0.735078v 0.150749h 0.735078v -0.301497h 0.735078v 0.301497h 2.20523v 0.150749h 0.735078v -0.602995h 0.735078v 0.150749h 0.735078v 0.301497h 0.735078v -1.20599h 0.735078v
 0.602995h 0.735078v -0.150749h 0.735078v -0.602995h 0.735078v -0.150749h 0.735078v 0.150749h 1.47016v -0.753744h 0.735078v -0.150749h 0.735078v -2.41198h 0.735078v 0.602995h 0.735078v -1.05524h 0.735078v 0.150749h 0.735078v -3.31647h 0.735078v
 -4.07022h 0.735078v -2.11048h 0.735078v -3.01497h 0.735078v -7.08519h 0.735078v 1.20599h 0.735078v -6.48219h 0.735078v -1.05524h 0.735078v -1.80898h 0.735078v -4.67321h 0.735078v 10.8539h 0.735078v -5.8792h 0.735078v 8.14043h 0.735078v -0.452246h
 0.735078v 7.98968h 0.735078v 3.61797h 0.735078v 4.52246h 0.735078v 1.80898h 0.735078v 2.71348h 0.735078v 1.95973h 0.735078v -0.150749h 0.735078v 0.452246h 0.735078v 0.301497h 0.735078v 0.753744h 0.735078v 0.753744h 0.735078v 0.150749h 0.735078v
 0.150749h 0.735078v -0.301497h 0.735078v 0.301497h 0.735078v 0.150749h 0.735078v -0.452246h 0.735078v 0.301497h 0.735078v -0.150749h 1.47016v 0.301497h 0.735078v -0.150749h 2.94031v -0.150749h 1.47016v 0.150749h 3.67539v 0.150749h 0.735078v
 -0.150749h 0.735078v -0.150749h 0.735078v 0.301497h 0.735078v -0.150749h 0.735078v 0.150749h 0.735078v -0.150749h 0.735078v 0.150749h 1.47016v -0.150749h 0.735078v 0.150749h 0.735078v -0.150749h 1.47016v 0.150749h 2.20523v -0.150749h 0.735078v
 -0.150749h 0.735078v 0.150749h 0.735078v 0.150749h 0.735078v -0.301497h 0.735078v 0.150749h 0.735078v 0.150749h 1.47016v -0.150749h 0.735078v -0.150749h 0.735078v 0.301497h 0.735078v -0.301497h 0.735078v 0.150749h 0.735078v 0.150749h 0.735078v
 -0.150749h 0.735078v 0.150749h 1.47016v -0.150749h 0.735078v 0.150749h 1.47016v -0.150749h 1.47016v 0.150749h 0.735078v -0.150749h 2.20523v 0.150749h 1.47016v -0.301497h 0.735078v 0.301497h 3.67539v -0.150749h 0.735078v 0.150749h 0.735078v
 -0.452246h 0.735078v 0.301497h 1.47016v 0.150749h 1.47016v -0.150749h 0.735078v 0.150749h 0.735078v -0.150749h 0.735078v 0.150749h 1.47016v -0.452246h 0.735078v 0.301497h 0.735078v 0.150749h 2.94031v -0.301497h 0.735078v 0.150749h 0.735078v
 0.150749h 0.735078v -0.301497h 0.735078v 0.150749h 0.735078v 0.150749h 0.735078v -0.150749h 0.735078v 0.150749h 3.67539v -0.301497h 0.735078v 0.301497h 0.735078v -0.150749h 0.735078v 0.150749h 5.88063v -0.150749h 2.20523v 0.150749h 1.47016v
 -0.452246h 0.735078v 0.452246h 0.735078v -0.150749h 0.735078v 0.150749h 8.08586v -0.301497h 0.735078v 0.301497h 2.94031v -0.150749h 0.735078v 0.150749h 1.47016v -0.150749h 0.735078v -0.150749h 0.735078v 0.150749h 0.735078v 0.150749h 0.735078v
 -0.150749h 0.735078v 0.150749h 0.735078v -0.150749h 0.735078v 0.150749h 3.67539v -0.301497h 0.735078v 0.150749h 0.735078v 0.150749h 1.47016v -0.150749h 0.735078v 0.150749h 0.735078v -0.150749h 1.47016v 0.150749h 0.735078v -0.150749h 0.735078v
 0.150749h 2.20523v -0.150749h 0.735078v 0.150749h 1.47016v -0.301497h 0.735078v 0.301497h 1.47016" fill="none" stroke="#ff0000" stroke-width="2"/>
<path d="M59.4606,292.814l 4.53543, 0.00590197l 4.53543, 0.00590197l 4.53543, 0.00590197l 4.53543, 0.00590197l 4.53543, 0.00590197l 4.53543, 0.00590197l 4.53543, 0.00590197l 4.53543, 0.00590197l 4.53543, 0.00590197l 4.53543, 0.00590197l 4.53543,
 0.00590197l 4.53543, 0.00590197l 4.53543, 0.00590197l 4.53543, 0.00590197l 4.53543, 0.00590197l 4.53543, 0.00590197l 4.53543, 0.00590197l 4.53543, 0.00590197l 4.53543, 0.00590197l 4.53543, 0.00590197l 4.53543, 0.00590197l 4.53543, 0.00590197l
 4.53543, 0.00590197l 4.53543, 0.00590197l 4.53543, 0.00590195l 4.53543, 0.00586796l 4.53543, -0.00621764l 4.53543, -1.08913l 4.53543, -24.6164l 4.53543, -126.791l 4.53543, -78.1199l 4.53543, 141.682l 4.53543, 80.2258l 4.53543, 8.54167l 4.53543,
 0.224279l 4.53543, 0.00730705l 4.53543, 0.00590427l 4.53543, 0.00590197l 4.53543, 0.00590197l 4.53543, 0.00590197l 4.53543, 0.00590197l 4.53543, 0.00590197l 4.53543, 0.00590197l 4.53543, 0.00590197l 4.53543, 0.00590197l 4.53543, 0.00590197l 4.53543,
 0.00590197l 4.53543, 0.00590197l 4.53543, 0.00590197" fill="none" stroke="#0000ff" stroke-width="2"/>
<path d="M281.697,293.103l 4.53543, 0.00590197l 4.53543, 0.00590197l 4.53543, 0.00590197l 4.53543, 0.00590197l 4.53543, 0.00590197l 4.53543, 0.00590197l 4.53543, 0.00590197l 4.53543, 0.00590197l 4.53543, 0.00590197l 4.53543, 0.00590197l 4.53543,
 0.00590197l 4.53543, 0.00590197l 4.53543, 0.00590197l 4.53543, 0.00590197l 4.53543, 0.00590186l 4.53543, 0.00581402l 4.53543, -0.011201l 4.53543, -0.811122l 4.53543, -9.22324l 4.53543, -20.1093l 4.53543, 7.68641l 4.53543, 18.3345l 4.53543, 3.9833l
 4.53543, 0.195795l 4.53543, 0.00809574l 4.53543, 0.00590823l 4.53543, 0.00590198l 4.53543, 0.00590197l 4.53543, 0.00590197l 4.53543, 0.00590197l 4.53543, 0.00590197l 4.53543, 0.00590197l 4.53543, 0.00590197l 4.53543, 0.00590197l 4.53543, 0.00590197l
 4.53543, 0.00590197l 4.53543, 0.00590197l 4.53543, 0.00590197l 4.53543, 0.00590197l 4.53543, 0.00590197l 4.53543, 0.00590197l 4.53543, 0.00590197l 4.53543, 0.00590197l 4.53543, 0.00590197l 4.53543, 0.00590197l 4.53543, 0.00590197l 4.53543,
 0.00590197l 4.53543, 0.00590197l 4.53543, 0.00590197" fill="none" stroke="#0000ff" stroke-width="2"/>
<path d="M503.933,293.392l 4.53543, 0.00590197" fill="none" stroke="#0000ff" stroke-width="2"/>
<rect x="301.007" y="50.5578" width="204.503" height="130.087" fill="white"/>
<path d="M301.007,180.645h 204.503" fill="none" stroke="black" stroke-width="2"/>
<path d="M505.51,180.645v -130.087" fill="none" stroke="black" stroke-width="2"/>
<path d="M505.51,50.5578h -204.503" fill="none" stroke="black" stroke-width="2"/>
<path d="M301.007,50.5578v 130.087" fill="none" stroke="black" stroke-width="2"/>
<text x="322.025" y="60.783" fill="black" font-size="11.8265" font-family="Helvetica">
 / ndf 
</text>
<text x="317.48" y="57.3746" fill="black" font-size="8.05103" font-family="Helvetica">
2
</text>
<text x="311.232" y="60.783" fill="black" font-size="11.8265" font-family="Times">
&#0967;
</text>
<text x="436.774" y="61.9191" fill="black" font-size="11.8265" font-family="Helvetica">
  1259 / 475
</text>
<text x="311.232" y="76.6888" fill="black" font-size="11.8265" font-family="Helvetica">
1-Centroid 
</text>
<text x="477.107" y="76.6888" fill="black" font-size="11.8265" font-family="Helvetica">
 0.0
</text>
<text x="470.858" y="76.6888" fill="black" font-size="11.8265" font-family="Times">
&#0177;
</text>
<text x="437.342" y="76.6888" fill="black" font-size="11.8265" font-family="Helvetica">
  3028 
</text>
<text x="311.232" y="90.8904" fill="black" font-size="11.8265" font-family="Helvetica">
1-FWHM   
</text>
<text x="470.858" y="90.8904" fill="black" font-size="11.8265" font-family="Helvetica">
 0.07
</text>
<text x="464.609" y="90.8904" fill="black" font-size="11.8265" font-family="Times">
&#0177;
</text>
<text x="432.798" y="90.8904" fill="black" font-size="11.8265" font-family="Helvetica">
 12.41 
</text>
<text x="311.232" y="105.66" fill="black" font-size="11.8265" font-family="Helvetica">
1-Counts 
</text>
<text x="439.046" y="105.66" fill="black" font-size="11.8265" font-family="Helvetica">
 1.446e+02
</text>
<text x="432.798" y="105.66" fill="black" font-size="11.8265" font-family="Times">
&#0177;
</text>
<text x="373.719" y="105.66" fill="black" font-size="11.8265" font-family="Helvetica">
 2.079e+04 
</text>
<text x="311.232" y="119.862" fill="black" font-size="11.8265" font-family="Helvetica">
2-Centroid 
</text>
<text x="478.811" y="119.862" fill="black" font-size="11.8265" font-family="Helvetica">
 0.1
</text>
<text x="472.562" y="119.862" fill="black" font-size="11.8265" font-family="Times">
&#0177;
</text>
<text x="439.046" y="119.862" fill="black" font-size="11.8265" font-family="Helvetica">
  3266 
</text>
<text x="311.232" y="134.063" fill="black" font-size="11.8265" font-family="Helvetica">
2-FWHM   
</text>
<text x="472.562" y="134.063" fill="black" font-size="11.8265" font-family="Helvetica">
 0.21
</text>
<text x="466.314" y="134.063" fill="black" font-size="11.8265" font-family="Times">
&#0177;
</text>
<text x="432.798" y="134.063" fill="black" font-size="11.8265" font-family="Helvetica">
 12.29 
</text>
<text x="311.232" y="148.833" fill="black" font-size="11.8265" font-family="Helvetica">
2-Counts 
</text>
<text x="470.858" y="148.833" fill="black" font-size="11.8265" font-family="Helvetica">
 53.3
</text>
<text x="464.609" y="148.833" fill="black" font-size="11.8265" font-family="Times">
&#0177;
</text>
<text x="432.798" y="148.833" fill="black" font-size="11.8265" font-family="Helvetica">
  2781 
</text>
<text x="311.232" y="161.899" fill="black" font-size="11.8265" font-family="Helvetica">
Intercept 
</text>
<text x="470.858" y="163.035" fill="black" font-size="11.8265" font-family="Helvetica">
 1.38
</text>
<text x="464.609" y="163.035" fill="black" font-size="11.8265" font-family="Times">
&#0177;
</text>
<text x="432.798" y="163.035" fill="black" font-size="11.8265" font-family="Helvetica">
 22.31 
</text>
<text x="311.232" y="176.668" fill="black" font-size="11.8265" font-family="Helvetica">
Slope    
</text>
<text x="445.863" y="177.804" fill="black" font-size="11.8265" font-family="Helvetica">
 0.000433
</text>
<text x="439.614" y="177.804" fill="black" font-size="11.8265" font-family="Times">
&#0177;
</text>
<text x="389.625" y="177.804" fill="black" font-size="11.8265" font-family="Helvetica">
0.006345 
</text>
<text x="383.376" y="177.804" fill="black" font-size="11.8265" font-family="Times">
&#8722;
</text>
<text x="380.536" y="177.804" fill="black" font-size="11.8265" font-family="Helvetica">
 
</text>
<path d="M57.1929,293.463h 453.543" fill="none" stroke="black" stroke-width="2"/>
<text x="466.314" y="315.844" fill="black" font-size="10.9701" font-family="Helvetica">
Channels
</text>
<path d="M178.481,285.637v 7.82567" fill="none" stroke="black" stroke-width="2"/>
<path d="M215.235,289.55v 3.91283" fill="none" stroke="black" stroke-width="2"/>
<path d="M251.989,289.55v 3.91283" fill="none" stroke="black" stroke-width="2"/>
<path d="M288.743,289.55v 3.91283" fill="none" stroke="black" stroke-width="2"/>
<path d="M325.496,285.637v 7.82567" fill="none" stroke="black" stroke-width="2"/>
<path d="M362.25,289.55v 3.91283" fill="none" stroke="black" stroke-width="2"/>
<path d="M399.004,289.55v 3.91283" fill="none" stroke="black" stroke-width="2"/>
<path d="M435.758,289.55v 3.91283" fill="none" stroke="black" stroke-width="2"/>
<path d="M472.512,285.637v 7.82567" fill="none" stroke="black" stroke-width="2"/>
<path d="M178.481,285.637v 7.82567" fill="none" stroke="black" stroke-width="2"/>
<path d="M141.727,289.55v 3.91283" fill="none" stroke="black" stroke-width="2"/>
<path d="M104.973,289.55v 3.91283" fill="none" stroke="black" stroke-width="2"/>
<path d="M68.2191,289.55v 3.91283" fill="none" stroke="black" stroke-width="2"/>
<path d="M472.512,285.637v 7.82567" fill="none" stroke="black" stroke-width="2"/>
<path d="M509.266,289.55v 3.91283" fill="none" stroke="black" stroke-width="2"/>
<text x="166.375" y="303.915" fill="black" font-size="10.9701" font-family="Helvetica">
3000
</text>
<text x="313.504" y="303.915" fill="black" font-size="10.9701" font-family="Helvetica">
3200
</text>
<text x="460.065" y="303.915" fill="black" font-size="10.9701" font-family="Helvetica">
3400
</text>
<path d="M57.1929,293.463v -260.856" fill="none" stroke="black" stroke-width="2"/>
<path d="M70.7992,293.463h -13.6063" fill="none" stroke="black" stroke-width="2"/>
<path d="M63.9961,285.925h -6.80315" fill="none" stroke="black" stroke-width="2"/>
<path d="M63.9961,278.388h -6.80315" fill="none" stroke="black" stroke-width="2"/>
<path d="M63.9961,270.85h -6.80315" fill="none" stroke="black" stroke-width="2"/>
<path d="M70.7992,263.313h -13.6063" fill="none" stroke="black" stroke-width="2"/>
<path d="M63.9961,255.775h -6.80315" fill="none" stroke="black" stroke-width="2"/>
<path d="M63.9961,248.238h -6.80315" fill="none" stroke="black" stroke-width="2"/>
<path d="M63.9961,240.7h -6.80315" fill="none" stroke="black" stroke-width="2"/>
<path d="M70.7992,233.163h -13.6063" fill="none" stroke="black" stroke-width="2"/>
<path d="M63.9961,225.626h -6.80315" fill="none" stroke="black" stroke-width="2"/>
<path d="M63.9961,218.088h -6.80315" fill="none" stroke="black" stroke-width="2"/>
<path d="M63.9961,210.551h -6.80315" fill="none" stroke="black" stroke-width="2"/>
<path d="M70.7992,203.013h -13.6063" fill="none" stroke="black" stroke-width="2"/>
<path d="M63.9961,195.476h -6.80315" fill="none" stroke="black" stroke-width="2"/>
<path d="M63.9961,187.938h -6.80315" fill="none" stroke="black" stroke-width="2"/>
<path d="M63.9961,180.401h -6.80315" fill="none" stroke="black" stroke-width="2"/>
<path d="M70.7992,172.864h -13.6063" fill="none" stroke="black" stroke-width="2"/>
<path d="M63.9961,165.326h -6.80315" fill="none" stroke="black" stroke-width="2"/>
<path d="M63.9961,157.789h -6.80315" fill="none" stroke="black" stroke-width="2"/>
<path d="M63.9961,150.251h -6.80315" fill="none" stroke="black" stroke-width="2"/>
<path d="M70.7992,142.714h -13.6063" fill="none" stroke="black" stroke-width="2"/>
<path d="M63.9961,135.176h -6.80315" fill="none" stroke="black" stroke-width="2"/>
<path d="M63.9961,127.639h -6.80315" fill="none" stroke="black" stroke-width="2"/>
<path d="M63.9961,120.102h -6.80315" fill="none" stroke="black" stroke-width="2"/>
<path d="M70.7992,112.564h -13.6063" fill="none" stroke="black" stroke-width="2"/>
<path d="M63.9961,105.027h -6.80315" fill="none" stroke="black" stroke-width="2"/>
<path d="M63.9961,97.4892h -6.80315" fill="none" stroke="black" stroke-width="2"/>
<path d="M63.9961,89.9518h -6.80315" fill="none" stroke="black" stroke-width="2"/>
<path d="M70.7992,82.4143h -13.6063" fill="none" stroke="black" stroke-width="2"/>
<path d="M63.9961,74.8769h -6.80315" fill="none" stroke="black" stroke-width="2"/>
<path d="M63.9961,67.3394h -6.80315" fill="none" stroke="black" stroke-width="2"/>
<path d="M63.9961,59.802h -6.80315" fill="none" stroke="black" stroke-width="2"/>
<path d="M70.7992,52.2646h -13.6063" fill="none" stroke="black" stroke-width="2"/>
<path d="M70.7992,52.2646h -13.6063" fill="none" stroke="black" stroke-width="2"/>
<path d="M63.9961,44.7271h -6.80315" fill="none" stroke="black" stroke-width="2"/>
<path d="M63.9961,37.1897h -6.80315" fill="none" stroke="black" stroke-width="2"/>
<text x="48.2175" y="297.098" fill="black" font-size="10.9701" font-family="Helvetica">
0
</text>
<text x="36.2881" y="266.991" fill="black" font-size="10.9701" font-family="Helvetica">
200
</text>
<text x="36.2881" y="236.883" fill="black" font-size="10.9701" font-family="Helvetica">
400
</text>
<text x="36.2881" y="206.776" fill="black" font-size="10.9701" font-family="Helvetica">
600
</text>
<text x="36.2881" y="176.668" fill="black" font-size="10.9701" font-family="Helvetica">
800
</text>
<text x="30.0394" y="146.561" fill="black" font-size="10.9701" font-family="Helvetica">
1000
</text>
<text x="30.0394" y="116.453" fill="black" font-size="10.9701" font-family="Helvetica">
1200
</text>
<text x="30.0394" y="86.3459" fill="black" font-size="10.9701" font-family="Helvetica">
1400
</text>
<text x="30.0394" y="56.2385" fill="black" font-size="10.9701" font-family="Helvetica">
1600
</text>
<rect x="301.007" y="50.5578" width="204.503" height="130.087" fill="white"/>
<path d="M301.007,180.645h 204.503" fill="none" stroke="black" stroke-width="2"/>
<path d="M505.51,180.645v -130.087" fill="none" stroke="black" stroke-width="2"/>
<path d="M505.51,50.5578h -204.503" fill="none" stroke="black" stroke-width="2"/>
<path d="M301.007,50.5578v 130.087" fill="none" stroke="black" stroke-width="2"/>
<text x="322.025" y="60.783" fill="black" font-size="11.8265" font-family="Helvetica">
 / ndf 
</text>
<text x="317.48" y="57.3746" fill="black" font-size="8.05103" font-family="Helvetica">
2
</text>
<text x="311.232" y="60.783" fill="black" font-size="11.8265" font-family="Times">
&#0967;
</text>
<text x="436.774" y="61.9191" fill="black" font-size="11.8265" font-family="Helvetica">
  1259 / 475
</text>
<text x="311.232" y="76.6888" fill="black" font-size="11.8265" font-family="Helvetica">
1-Centroid 
</text>
<text x="477.107" y="76.6888" fill="black" font-size="11.8265" font-family="Helvetica">
 0.0
</text>
<text x="470.858" y="76.6888" fill="black" font-size="11.8265" font-family="Times">
&#0177;
</text>
<text x="437.342" y="76.6888" fill="black" font-size="11.8265" font-family="Helvetica">
  3028 
</text>
<text x="311.232" y="90.8904" fill="black" font-size="11.8265" font-family="Helvetica">
1-FWHM   
</text>
<text x="470.858" y="90.8904" fill="black" font-size="11.8265" font-family="Helvetica">
 0.07
</text>
<text x="464.609" y="90.8904" fill="black" font-size="11.8265" font-family="Times">
&#0177;
</text>
<text x="432.798" y="90.8904" fill="black" font-size="11.8265" font-family="Helvetica">
 12.41 
</text>
<text x="311.232" y="105.66" fill="black" font-size="11.8265" font-family="Helvetica">
1-Counts 
</text>
<text x="439.046" y="105.66" fill="black" font-size="11.8265" font-family="Helvetica">
 1.446e+02
</text>
<text x="432.798" y="105.66" fill="black" font-size="11.8265" font-family="Times">
&#0177;
</text>
<text x="373.719" y="105.66" fill="black" font-size="11.8265" font-family="Helvetica">
 2.079e+04 
</text>
<text x="311.232" y="119.862" fill="black" font-size="11.8265" font-family="Helvetica">
2-Centroid 
</text>
<text x="478.811" y="119.862" fill="black" font-size="11.8265" font-family="Helvetica">
 0.1
</text>
<text x="472.562" y="119.862" fill="black" font-size="11.8265" font-family="Times">
&#0177;
</text>
<text x="439.046" y="119.862" fill="black" font-size="11.8265" font-family="Helvetica">
  3266 
</text>
<text x="311.232" y="134.063" fill="black" font-size="11.8265" font-family="Helvetica">
2-FWHM   
</text>
<text x="472.562" y="134.063" fill="black" font-size="11.8265" font-family="Helvetica">
 0.21
</text>
<text x="466.314" y="134.063" fill="black" font-size="11.8265" font-family="Times">
&#0177;
</text>
<text x="432.798" y="134.063" fill="black" font-size="11.8265" font-family="Helvetica">
 12.29 
</text>
<text x="311.232" y="148.833" fill="black" font-size="11.8265" font-family="Helvetica">
2-Counts 
</text>
<text x="470.858" y="148.833" fill="black" font-size="11.8265" font-family="Helvetica">
 53.3
</text>
<text x="464.609" y="148.833" fill="black" font-size="11.8265" font-family="Times">
&#0177;
</text>
<text x="432.798" y="148.833" fill="black" font-size="11.8265" font-family="Helvetica">
  2781 
</text>
<text x="311.232" y="161.899" fill="black" font-size="11.8265" font-family="Helvetica">
Intercept 
</text>
<text x="470.858" y="163.035" fill="black" font-size="11.8265" font-family="Helvetica">
 1.38
</text>
<text x="464.609" y="163.035" fill="black" font-size="11.8265" font-family="Times">
&#0177;
</text>
<text x="432.798" y="163.035" fill="black" font-size="11.8265" font-family="Helvetica">
 22.31 
</text>
<text x="311.232" y="176.668" fill="black" font-size="11.8265" font-family="Helvetica">
Slope    
</text>
<text x="445.863" y="177.804" fill="black" font-size="11.8265" font-family="Helvetica">
 0.000433
</text>
<text x="439.614" y="177.804" fill="black" font-size="11.8265" font-family="Times">
&#0177;
</text>
<text x="389.625" y="177.804" fill="black" font-size="11.8265" font-family="Helvetica">
0.006345 
</text>
<text x="383.376" y="177.804" fill="black" font-size="11.8265" font-family="Times">
&#8722;
</text>
<text x="380.536" y="177.804" fill="black" font-size="11.8265" font-family="Helvetica">
 
</text>
<path d="M59.4606,293.463h 122.457l 4.53543, -1.10718l 4.53543, -24.6223l 4.53543, -126.797l 4.53543, -78.1258l 4.53543, 141.676l 4.53543, 80.2199l 4.53543, 8.53576l 4.53543, 0.219784h 63.4961" fill="none" stroke="#00ff00" stroke-width="2"/>
<path d="M281.697,293.463h 222.236" fill="none" stroke="#00ff00" stroke-width="2"/>
<path d="M503.933,293.463h 4.53543" fill="none" stroke="#00ff00" stroke-width="2"/>
<path d="M59.4606,293.463h 222.236" fill="none" stroke="#00ff00" stroke-width="2"/>
<path d="M281.697,293.463h 77.1024l 4.53543, -0.834215l 4.53543, -9.22915l 4.53543, -20.1152l 4.53543, 7.68051l 4.53543, 18.3286l 4.53543, 3.9774l 4.53543, 0.192093h 113.386" fill="none" stroke="#00ff00" stroke-width="2"/>
<path d="M503.933,293.463h 4.53543" fill="none" stroke="#00ff00" stroke-width="2"/>
<text x="110.705" y="15.3378" fill="black" font-size="15.3844" font-family="Helvetica">
Labs_Identification/Elevated/Resolution/Ba133.TKA
</text></svg>
