<?xml version="1.0" standalone="no"?>
<svg width="567.429" height="326.569" viewBox="0 0 567.429 326.569" xmlns="http://www.w3.org/2000/svg">
<title>
/home/ADF/jsm576/Labs_Identification/Elevated/Resolution/Co60.svg
</title>
<desc>
Creator: ROOT Version 6.06/08
CreationDate: Fri Jan 25 10:54:11 2019</desc>
<defs>
</defs>
<rect x="0.5" y="0" width="566.929" height="326.069" fill="white"/>
<rect x="57.1929" y="32.6069" width="453.543" height="260.856" fill="white"/>
<rect x="57.1929" y="32.6069" width="453.543" height="260.856" fill="none" stroke="black"/>
<rect x="57.1929" y="32.6069" width="453.543" height="260.856" fill="white"/>
<rect x="57.1929" y="32.6069" width="453.543" height="260.856" fill="none" stroke="black"/>
<path d="M57.1929,293.463h 0.210363v -6.05936h 0.210363v 6.05936h 0.210363v -12.1187h 0.210363v 12.1187h 0.420727v -18.1781h 0.210363v 12.1187h 0.210363v 6.05936h 0.63109v -12.1187h 0.210363v 12.1187h 0.210363v -6.05936h 0.63109v 6.05936h 0.63109v
 -12.1187h 0.210363v 6.05936h 0.210363v 6.05936h 0.210363v -12.1187h 0.210363v -6.05936h 0.210363v 18.1781h 0.210363v -6.05936h 0.210363v 6.05936h 0.63109v -18.1781h 0.210363v 18.1781h 1.47254v -6.05936h 0.210363v 6.05936h 0.63109v -12.1187h
 0.210363v 12.1187h 0.63109v -6.05936h 0.420727v 6.05936h 0.63109v -12.1187h 0.420727v 6.05936h 0.210363v 6.05936h 0.841453v -12.1187h 0.210363v 6.05936h 0.210363v 6.05936h 0.841453v -6.05936h 0.210363v -6.05936h 0.210363v 12.1187h 0.210363v
 -6.05936h 0.210363v 6.05936h 0.420727v -12.1187h 0.210363v 6.05936h 0.420727v -12.1187h 0.210363v 12.1187h 0.210363v 6.05936h 0.420727v -6.05936h 0.420727v 6.05936h 0.420727v -12.1187h 0.210363v 6.05936h 0.210363v 6.05936h 0.841453v -6.05936h
 0.63109v 6.05936h 0.841453v -6.05936h 0.210363v 6.05936h 0.210363v -12.1187h 0.210363v 12.1187h 0.210363v -6.05936h 0.210363v 6.05936h 0.420727v -6.05936h 1.05182v 6.05936h 1.05182v -6.05936h 0.210363v 6.05936h 0.210363v -6.05936h 0.210363v 6.05936h
 0.420727v -6.05936h 0.210363v 6.05936h 0.420727v -6.05936h 0.420727v 6.05936h 0.420727v -6.05936h 0.210363v -12.1187h 0.210363v 6.05936h 0.420727v 12.1187h 0.420727v -6.05936h 0.210363v 6.05936h 0.420727v -12.1187h 0.210363v 6.05936h 0.210363v
 6.05936h 0.210363v -6.05936h 0.420727v 6.05936h 1.26218v -6.05936h 0.420727v 6.05936h 1.68291v -6.05936h 0.63109v -12.1187h 0.210363v 12.1187h 0.210363v -6.05936h 0.210363v 6.05936h 0.210363v 6.05936h 0.210363v -6.05936h 0.210363v 6.05936h 0.420727v
 -6.05936h 0.210363v -6.05936h 0.210363v 12.1187h 0.210363v -6.05936h 0.841453v -6.05936h 0.420727v 12.1187h 0.210363v -6.05936h 0.210363v 6.05936h 0.210363v -6.05936h 0.210363v 6.05936h 0.420727v -6.05936h 0.210363v 6.05936h 0.210363v -12.1187h
 0.210363v 12.1187h 0.420727v -12.1187h 0.210363v 12.1187h 0.210363v -6.05936h 0.210363v 6.05936h 0.210363v -6.05936h 0.210363v -6.05936h 0.210363v 6.05936h 0.210363v 6.05936h 0.210363v -6.05936h 0.210363v 6.05936h 0.210363v -6.05936h 0.210363v
 6.05936h 1.05182v -6.05936h 0.420727v -6.05936h 0.210363v 12.1187h 0.210363v -12.1187h 0.210363v 12.1187h 0.63109v -12.1187h 0.210363v 12.1187h 0.210363v -6.05936h 0.210363v 6.05936h 0.210363v -12.1187h 0.210363v 6.05936h 0.420727v 6.05936h
 0.210363v -12.1187h 0.210363v 6.05936h 0.210363v 6.05936h 0.210363v -6.05936h 0.210363v 6.05936h 0.420727v -12.1187h 0.210363v 12.1187h 0.210363v -6.05936h 0.210363v 6.05936h 0.63109v -6.05936h 0.210363v 6.05936h 0.841453v -6.05936h 0.210363v
 6.05936h 0.210363v -6.05936h 1.47254v 6.05936h 0.841453v -6.05936h 0.210363v 6.05936h 0.420727v -12.1187h 0.210363v 12.1187h 0.210363v -6.05936h 0.210363v 6.05936h 0.210363v -6.05936h 0.210363v -6.05936h 0.210363v 12.1187h 0.420727v -6.05936h
 0.210363v -12.1187h 0.210363v 6.05936h 0.210363v 12.1187h 0.420727v -6.05936h 0.420727v -6.05936h 0.420727v 12.1187h 0.210363v -12.1187h 0.210363v 12.1187h 0.210363v -6.05936h 0.210363v 6.05936h 0.841453v -6.05936h 0.420727v 6.05936h 0.210363v
 -18.1781h 0.210363v 12.1187h 0.210363v 6.05936h 0.420727v -18.1781h 0.210363v 18.1781h 0.420727v -6.05936h 0.210363v 6.05936h 0.420727v -6.05936h 0.210363v 6.05936h 0.210363v -12.1187h 0.210363v 6.05936h 0.210363v 6.05936h 0.210363v -6.05936h
 0.63109v -6.05936h 0.210363v 6.05936h 0.420727v 6.05936h 0.210363v -6.05936h 0.420727v -6.05936h 0.210363v 12.1187h 1.05182v -6.05936h 0.210363v -6.05936h 0.841453v 12.1187h 0.210363v -6.05936h 0.210363v -6.05936h 0.210363v 12.1187h 0.210363v
 -6.05936h 0.420727v -6.05936h 0.210363v -6.05936h 0.210363v 12.1187h 0.210363v -12.1187h 0.210363v 6.05936h 0.420727v -6.05936h 0.210363v 6.05936h 0.210363v 6.05936h 0.420727v -18.1781h 0.210363v 6.05936h 0.210363v 18.1781h 0.210363v -18.1781h
 0.210363v 18.1781h 0.210363v -24.2375h 0.210363v -6.05936h 0.210363v 24.2375h 0.210363v -24.2375h 0.210363v 24.2375h 0.210363v -18.1781h 0.210363v -6.05936h 0.210363v 12.1187h 0.210363v -12.1187h 0.210363v -6.05936h 0.210363v 18.1781h 0.210363v
 -6.05936h 0.210363v 12.1187h 0.210363v -18.1781h 0.420727v 18.1781h 0.210363v -36.3562h 0.210363v -6.05936h 0.210363v 24.2375h 0.210363v -6.05936h 0.420727v -6.05936h 0.210363v -6.05936h 0.210363v -42.4155h 0.210363v -6.05936h 0.210363v -12.1187h
 0.210363v -12.1187h 0.210363v -18.1781h 0.210363v -6.05936h 0.210363v -6.05936h 0.210363v -6.05936h 0.210363v 6.05936h 0.210363v -36.3562h 0.210363v -6.05936h 0.210363v -48.4749h 0.210363v 60.5936h 0.210363v -12.1187h 0.210363v -54.5343h 0.210363v
 42.4155h 0.210363v 48.4749h 0.210363v -54.5343h 0.210363v 6.05936h 0.210363v 42.4155h 0.210363v 6.05936h 0.210363v -6.05936h 0.210363v 48.4749h 0.210363v 6.05936h 0.210363v 36.3562h 0.210363v 12.1187h 0.210363v -24.2375h 0.210363v 42.4155h 0.210363v
 18.1781h 0.420727v -6.05936h 0.210363v 12.1187h 0.210363v 6.05936h 0.420727v 6.05936h 0.210363v -12.1187h 0.210363v 18.1781h 0.210363v -18.1781h 0.210363v 12.1187h 0.210363v 6.05936h 0.210363v -6.05936h 0.420727v -12.1187h 0.210363v 12.1187h
 0.420727v 6.05936h 0.63109v -6.05936h 0.210363v 6.05936h 0.841453v -6.05936h 0.210363v 6.05936h 0.420727v -6.05936h 0.420727v 6.05936h 0.420727v -6.05936h 0.210363v 6.05936h 0.63109v -6.05936h 0.210363v 6.05936h 0.210363v -6.05936h 0.210363v
 6.05936h 1.05182v -12.1187h 0.210363v 6.05936h 0.210363v 6.05936h 1.05182v -6.05936h 0.210363v 6.05936h 1.05182v -12.1187h 0.210363v 12.1187h 0.420727v -12.1187h 0.420727v 6.05936h 0.210363v 6.05936h 0.210363v -6.05936h 0.210363v 6.05936h 0.841453v
 -6.05936h 0.210363v 6.05936h 0.420727v -6.05936h 0.210363v 6.05936h 1.05182v -6.05936h 0.210363v 6.05936h 0.63109v -6.05936h 0.210363v 6.05936h 0.420727v -6.05936h 0.210363v 6.05936h 2.314v -6.05936h 0.420727v 6.05936h 0.841453v -6.05936h 0.210363v
 6.05936h 1.68291v -6.05936h 0.210363v 6.05936h 0.841453v -6.05936h 0.420727v 6.05936h 0.420727v -12.1187h 0.210363v 12.1187h 0.210363v -6.05936h 0.210363v 6.05936h 0.210363v -6.05936h 0.210363v 6.05936h 0.210363v -6.05936h 0.210363v 6.05936h
 0.420727v -6.05936h 0.210363v 6.05936h 0.63109v -6.05936h 0.420727v 6.05936h 1.05182v -6.05936h 0.210363v 6.05936h 1.47254v -6.05936h 0.210363v 6.05936h 0.420727v -6.05936h 0.63109v -6.05936h 0.210363v 12.1187h 0.420727v -6.05936h 0.210363v 6.05936h
 0.210363v -6.05936h 0.210363v 6.05936h 1.05182v -6.05936h 0.210363v 6.05936h 0.420727v -6.05936h 0.420727v 6.05936h 0.420727v -6.05936h 0.210363v 6.05936h 1.47254v -6.05936h 0.210363v 6.05936h 0.841453v -6.05936h 0.210363v 6.05936h 0.210363v
 -6.05936h 0.210363v -6.05936h 0.210363v 6.05936h 0.210363v 6.05936h 0.210363v -6.05936h 0.210363v 6.05936h 0.420727v -6.05936h 0.63109v 6.05936h 2.52436v -12.1187h 0.210363v 12.1187h 1.05182v -6.05936h 0.210363v 6.05936h 1.05182v -18.1781h 0.210363v
 12.1187h 0.210363v 6.05936h 0.420727v -6.05936h 0.210363v 6.05936h 0.63109v -12.1187h 0.420727v 6.05936h 0.420727v 6.05936h 0.841453v -6.05936h 0.210363v 6.05936h 1.47254v -6.05936h 0.210363v 6.05936h 0.210363v -6.05936h 0.210363v 6.05936h 1.68291v
 -6.05936h 0.420727v 6.05936h 0.210363v -6.05936h 0.210363v 6.05936h 1.05182v -6.05936h 0.210363v 6.05936h 0.420727v -6.05936h 0.420727v 6.05936h 0.210363v -6.05936h 0.210363v 6.05936h 0.420727v -6.05936h 0.210363v 6.05936h 0.210363v -6.05936h
 0.210363v 6.05936h 0.63109v -6.05936h 0.210363v 6.05936h 1.47254v -6.05936h 0.63109v 6.05936h 0.63109v -6.05936h 0.420727v 6.05936h 0.210363v -12.1187h 0.210363v 12.1187h 0.210363v -6.05936h 0.210363v 6.05936h 2.73472v -6.05936h 0.210363v 6.05936h
 1.05182v -6.05936h 0.420727v 6.05936h 0.63109v -12.1187h 0.210363v 12.1187h 1.68291v -6.05936h 0.210363v 6.05936h 0.63109v -18.1781h 0.210363v 18.1781h 1.26218v -6.05936h 0.210363v 6.05936h 2.94509v -6.05936h 0.420727v 6.05936h 1.05182v -6.05936h
 0.210363v -6.05936h 0.210363v 12.1187h 4.20727v -6.05936h 0.210363v 6.05936h 0.63109v -6.05936h 0.210363v 6.05936h 1.47254v -6.05936h 0.210363v 6.05936h 0.210363v -6.05936h 0.420727v 6.05936h 0.210363v -6.05936h 0.420727v 6.05936h 0.420727v
 -6.05936h 0.210363v 6.05936h 2.73472v -6.05936h 0.420727v 6.05936h 2.10363v -6.05936h 0.210363v 6.05936h 0.63109v -6.05936h 0.210363v 6.05936h 5.04872v -6.05936h 0.420727v 6.05936h 0.841453v -6.05936h 0.210363v 6.05936h 0.63109v -6.05936h 0.210363v
 6.05936h 1.05182v -6.05936h 0.210363v 6.05936h 0.63109v -6.05936h 0.210363v 6.05936h 0.420727v -6.05936h 0.210363v 6.05936h 1.05182v -6.05936h 0.210363v 6.05936h 0.420727v -6.05936h 0.210363v 6.05936h 0.420727v -6.05936h 0.210363v 6.05936h 0.210363v
 -6.05936h 0.210363v 6.05936h 1.05182v -6.05936h 0.420727v 6.05936h 2.10363v -6.05936h 0.210363v 6.05936h 1.47254v -6.05936h 0.210363v 6.05936h 2.52436v -6.05936h 0.210363v 6.05936h 1.89327v -6.05936h 0.210363v 6.05936h 0.210363v -6.05936h 0.210363v
 6.05936h 1.05182v -6.05936h 0.210363v 6.05936h 0.420727v -6.05936h 0.210363v -6.05936h 0.210363v 6.05936h 0.210363v 6.05936h 1.47254v -6.05936h 0.210363v 6.05936h 1.05182v -6.05936h 0.210363v 6.05936h 0.210363v -6.05936h 0.210363v 6.05936h 0.841453v
 -6.05936h 0.63109v 6.05936h 0.63109v -6.05936h 0.210363v 6.05936h 0.63109v -6.05936h 0.210363v 6.05936h 1.26218v -6.05936h 0.210363v 6.05936h 0.420727v -6.05936h 0.210363v 6.05936h 3.57618v -6.05936h 0.210363v 6.05936h 5.89017v -6.05936h 0.210363v
 6.05936h 1.26218v -6.05936h 0.210363v 6.05936h 0.210363v -6.05936h 0.210363v 6.05936h 5.46945v -6.05936h 0.420727v 6.05936h 4.62799v -6.05936h 0.210363v 6.05936h 4.20727v -6.05936h 0.210363v 6.05936h 2.10363v -6.05936h 0.210363v 6.05936h 1.47254v
 -6.05936h 0.210363v 6.05936h 1.26218v -6.05936h 0.210363v 6.05936h 0.210363v -6.05936h 0.210363v 6.05936h 0.210363v -6.05936h 0.210363v 6.05936h 7.57308v -6.05936h 0.210363v 6.05936h 2.94509v -6.05936h 0.210363v 6.05936h 2.10363v -6.05936h 0.210363v
 6.05936h 2.73472v -6.05936h 0.210363v 6.05936h 0.210363v -6.05936h 0.210363v 6.05936h 0.420727v -6.05936h 0.210363v 6.05936h 0.841453v -6.05936h 0.210363v 6.05936h 1.47254v -6.05936h 0.210363v 6.05936h 1.89327v -6.05936h 0.210363v 6.05936h 1.05182v
 -6.05936h 0.210363v 6.05936h 0.210363v -6.05936h 0.210363v 6.05936h 0.210363v -6.05936h 0.210363v 6.05936h 3.78654v -6.05936h 0.210363v -6.05936h 0.210363v 12.1187h 1.89327v -6.05936h 0.210363v 6.05936h 1.47254v -6.05936h 0.210363v 6.05936h 1.68291v
 -6.05936h 0.210363v -6.05936h 0.210363v 12.1187h 2.94509v -6.05936h 0.210363v 6.05936h 2.52436v -6.05936h 0.63109v 6.05936h 1.68291v -6.05936h 0.210363v 6.05936h 1.26218v -12.1187h 0.210363v 12.1187h 0.210363v -6.05936h 0.210363v 6.05936h 1.05182v
 -6.05936h 0.210363v 6.05936h 0.210363v -6.05936h 0.210363v 6.05936h 2.52436v -6.05936h 0.210363v 6.05936h 0.210363v -6.05936h 0.420727v 6.05936h 1.68291v -6.05936h 0.210363v 6.05936h 0.420727v -6.05936h 0.210363v 6.05936h 0.63109v -6.05936h
 0.420727v 6.05936h 1.47254v -6.05936h 0.210363v 6.05936h 0.420727v -6.05936h 0.210363v 6.05936h 1.26218v -12.1187h 0.210363v 12.1187h 2.10363v -6.05936h 0.210363v 6.05936h 3.15545v -6.05936h 0.210363v 6.05936h 1.26218v -6.05936h 0.210363v 6.05936h
 0.210363v -6.05936h 0.210363v 6.05936h 0.420727v -12.1187h 0.210363v 12.1187h 6.73163v -6.05936h 0.210363v 6.05936h 2.52436v -6.05936h 0.210363v 6.05936h 0.210363v -6.05936h 0.420727v 6.05936h 3.36581v -6.05936h 0.210363v 6.05936h 0.210363v
 -6.05936h 0.210363v 6.05936h 1.05182v -6.05936h 0.420727v 6.05936h 0.420727v -6.05936h 0.210363v 6.05936h 0.210363v -6.05936h 0.210363v 6.05936h 0.841453v -6.05936h 0.210363v 6.05936h 0.210363v -6.05936h 0.210363v 6.05936h 0.210363v -6.05936h
 0.210363v 6.05936h 0.63109v -6.05936h 0.420727v 6.05936h 0.210363v -6.05936h 0.210363v 6.05936h 2.10363v -6.05936h 0.210363v 6.05936h 1.68291v -6.05936h 0.210363v 6.05936h 1.89327v -6.05936h 0.210363v 6.05936h 1.89327v -6.05936h 0.210363v 6.05936h
 0.420727v -12.1187h 0.210363v 12.1187h 1.47254v -6.05936h 0.210363v 6.05936h 1.68291v -6.05936h 0.210363v 6.05936h 0.63109v -6.05936h 0.210363v 6.05936h 1.89327v -6.05936h 0.210363v 6.05936h 0.210363v -6.05936h 0.210363v 6.05936h 1.05182v -6.05936h
 0.210363v 6.05936h 0.210363v -12.1187h 0.210363v 12.1187h 0.420727v -6.05936h 0.420727v 6.05936h 0.63109v -6.05936h 0.210363v 6.05936h 0.210363v -18.1781h 0.210363v 18.1781h 0.210363v -6.05936h 0.210363v 6.05936h 0.420727v -6.05936h 0.210363v
 6.05936h 1.26218v -6.05936h 0.420727v 6.05936h 0.63109v -6.05936h 0.210363v 6.05936h 0.210363v -12.1187h 0.210363v 6.05936h 0.210363v 6.05936h 0.210363v -12.1187h 0.210363v 12.1187h 0.210363v -24.2375h 0.210363v 18.1781h 0.210363v -12.1187h
 0.210363v 18.1781h 0.63109v -6.05936h 0.420727v -12.1187h 0.210363v 12.1187h 0.210363v -6.05936h 0.210363v 6.05936h 0.210363v -6.05936h 0.210363v 6.05936h 0.63109v 6.05936h 0.210363v -6.05936h 0.210363v -6.05936h 0.420727v -6.05936h 0.210363v
 12.1187h 0.420727v -12.1187h 0.420727v 18.1781h 0.210363v -12.1187h 0.210363v 6.05936h 0.210363v -12.1187h 0.420727v -6.05936h 0.210363v 12.1187h 0.420727v -6.05936h 0.210363v -12.1187h 0.210363v 30.2968h 0.420727v -12.1187h 0.210363v -12.1187h
 0.210363v 12.1187h 0.210363v -18.1781h 0.210363v -60.5936h 0.210363v 54.5343h 0.210363v -18.1781h 0.210363v 18.1781h 0.210363v -6.05936h 0.210363v 6.05936h 0.210363v -24.2375h 0.210363v -12.1187h 0.420727v -42.4155h 0.210363v -18.1781h 0.210363v
 -18.1781h 0.420727v -18.1781h 0.210363v 24.2375h 0.210363v -48.4749h 0.210363v -42.4155h 0.210363v 6.05936h 0.210363v 36.3562h 0.210363v -12.1187h 0.210363v -12.1187h 0.210363v 12.1187h 0.210363v 36.3562h 0.210363v -24.2375h 0.210363v 54.5343h
 0.210363v -30.2968h 0.210363v -6.05936h 0.210363v 42.4155h 0.420727v 6.05936h 0.210363v 60.5936h 0.210363v -12.1187h 0.210363v 24.2375h 0.210363v -12.1187h 0.210363v 30.2968h 0.210363v 18.1781h 0.210363v -18.1781h 0.210363v 12.1187h 0.210363v
 6.05936h 0.210363v -6.05936h 0.210363v 12.1187h 0.210363v 12.1187h 0.210363v -6.05936h 0.210363v 6.05936h 0.63109v -12.1187h 0.210363v 12.1187h 1.47254v -6.05936h 0.210363v 6.05936h 0.210363v -6.05936h 0.210363v 6.05936h 2.314v -6.05936h 0.420727v
 6.05936h 6.10054v -6.05936h 0.210363v 6.05936h 0.841453v -6.05936h 0.210363v 6.05936h 0.210363v -6.05936h 0.210363v 6.05936h 2.10363v -6.05936h 0.420727v 6.05936h 19.7742v -12.1187h 0.210363v 12.1187h 4.62799v -6.05936h 0.210363v 6.05936h 5.25908v
 -6.05936h 0.210363v 6.05936h 3.15545v -6.05936h 0.210363v 6.05936h 9.46635v -6.05936h 0.210363v 6.05936h 1.26218v -6.05936h 0.210363v 6.05936h 4.83836v -6.05936h 0.210363v 6.05936h 2.73472v -6.05936h 0.210363v 6.05936h 0.210363v -6.05936h 0.210363v
 6.05936h 1.47254v -6.05936h 0.210363v 6.05936h 4.83836v -6.05936h 0.210363v 6.05936h 0.841453v -6.05936h 0.210363v 6.05936h 7.78344" fill="none" stroke="#ff0000" stroke-width="2"/>
<path d="M59.4606,286.104l 4.53543, 0.0085922l 4.53543, 0.0085922l 4.53543, 0.0085922l 4.53543, 0.0085922l 4.53543, 0.0085922l 4.53543, 0.0085922l 4.53543, 0.0085922l 4.53543, 0.0085922l 4.53543, 0.0085922l 4.53543, 0.0085922l 4.53543, 0.0085922l
 4.53543, 0.0085922l 4.53543, 0.0085922l 4.53543, 0.00859217l 4.53543, -0.0398098l 4.53543, -70.4748l 4.53543, -32.8114l 4.53543, 103.208l 4.53543, 0.160879l 4.53543, 0.00859243l 4.53543, 0.0085922l 4.53543, 0.0085922l 4.53543, 0.0085922l 4.53543,
 0.0085922l 4.53543, 0.0085922l 4.53543, 0.0085922l 4.53543, 0.0085922l 4.53543, 0.0085922l 4.53543, 0.0085922l 4.53543, 0.0085922l 4.53543, 0.0085922l 4.53543, 0.0085922l 4.53543, 0.0085922l 4.53543, 0.0085922l 4.53543, 0.0085922l 4.53543,
 0.0085922l 4.53543, 0.0085922l 4.53543, 0.0085922l 4.53543, 0.0085922l 4.53543, 0.0085922l 4.53543, 0.0085922l 4.53543, 0.0085922l 4.53543, 0.0085922l 4.53543, 0.0085922l 4.53543, 0.0085922l 4.53543, 0.0085922l 4.53543, 0.0085922l 4.53543,
 0.0085922l 4.53543, 0.0085922" fill="none" stroke="#0000ff" stroke-width="2"/>
<path d="M281.697,286.526l 4.53543, 0.0085922l 4.53543, 0.0085922l 4.53543, 0.0085922l 4.53543, 0.0085922l 4.53543, 0.0085922l 4.53543, 0.0085922l 4.53543, 0.0085922l 4.53543, 0.0085922l 4.53543, 0.0085922l 4.53543, 0.0085922l 4.53543, 0.0085922l
 4.53543, 0.0085922l 4.53543, 0.0085922l 4.53543, 0.0085922l 4.53543, 0.0085922l 4.53543, 0.0085922l 4.53543, 0.0085922l 4.53543, 0.0085922l 4.53543, 0.0085922l 4.53543, 0.0085922l 4.53543, 0.0085922l 4.53543, 0.0085922l 4.53543, 0.0085922l 4.53543,
 0.0085922l 4.53543, 0.0085922l 4.53543, 0.0085922l 4.53543, 0.0085922l 4.53543, 0.0085922l 4.53543, -0.000261148l 4.53543, -36.5282l 4.53543, -112.594l 4.53543, 148.555l 4.53543, 0.610401l 4.53543, 0.00859461l 4.53543, 0.0085922l 4.53543, 0.0085922l
 4.53543, 0.0085922l 4.53543, 0.0085922l 4.53543, 0.0085922l 4.53543, 0.0085922l 4.53543, 0.0085922l 4.53543, 0.0085922l 4.53543, 0.0085922l 4.53543, 0.0085922l 4.53543, 0.0085922l 4.53543, 0.0085922l 4.53543, 0.0085922l 4.53543, 0.0085922l 4.53543,
 0.0085922" fill="none" stroke="#0000ff" stroke-width="2"/>
<path d="M503.933,286.947l 4.53543, 0.0085922" fill="none" stroke="#0000ff" stroke-width="2"/>
<rect x="181.713" y="42.6049" width="204.503" height="130.087" fill="white"/>
<path d="M181.713,172.692h 204.503" fill="none" stroke="black" stroke-width="2"/>
<path d="M386.216,172.692v -130.087" fill="none" stroke="black" stroke-width="2"/>
<path d="M386.216,42.6049h -204.503" fill="none" stroke="black" stroke-width="2"/>
<path d="M181.713,42.6049v 130.087" fill="none" stroke="black" stroke-width="2"/>
<text x="202.731" y="52.8301" fill="black" font-size="11.947" font-family="Helvetica">
 / ndf 
</text>
<text x="198.187" y="49.4217" fill="black" font-size="8.13136" font-family="Helvetica">
2
</text>
<text x="191.938" y="52.8301" fill="black" font-size="11.947" font-family="Times">
&#0967;
</text>
<text x="314.64" y="53.9662" fill="black" font-size="11.947" font-family="Helvetica">
 154.3 / 555
</text>
<text x="191.938" y="68.7359" fill="black" font-size="11.947" font-family="Helvetica">
1-Centroid 
</text>
<text x="356.677" y="68.7359" fill="black" font-size="11.947" font-family="Helvetica">
 0.4
</text>
<text x="349.86" y="68.7359" fill="black" font-size="11.947" font-family="Times">
&#0177;
</text>
<text x="287.941" y="68.7359" fill="black" font-size="11.947" font-family="Helvetica">
 1.001e+04 
</text>
<text x="191.938" y="83.5056" fill="black" font-size="11.947" font-family="Helvetica">
1-FWHM   
</text>
<text x="350.428" y="82.9375" fill="black" font-size="11.947" font-family="Helvetica">
 0.67
</text>
<text x="343.611" y="82.9375" fill="black" font-size="11.947" font-family="Times">
&#0177;
</text>
<text x="308.391" y="82.9375" fill="black" font-size="11.947" font-family="Helvetica">
 19.29 
</text>
<text x="191.938" y="97.7072" fill="black" font-size="11.947" font-family="Helvetica">
1-Counts 
</text>
<text x="350.428" y="97.7072" fill="black" font-size="11.947" font-family="Helvetica">
 27.6
</text>
<text x="343.611" y="97.7072" fill="black" font-size="11.947" font-family="Times">
&#0177;
</text>
<text x="308.391" y="97.7072" fill="black" font-size="11.947" font-family="Helvetica">
 694.2 
</text>
<text x="191.938" y="111.909" fill="black" font-size="11.947" font-family="Helvetica">
2-Centroid 
</text>
<text x="357.245" y="111.909" fill="black" font-size="11.947" font-family="Helvetica">
 0.3
</text>
<text x="350.428" y="111.909" fill="black" font-size="11.947" font-family="Times">
&#0177;
</text>
<text x="288.509" y="111.909" fill="black" font-size="11.947" font-family="Helvetica">
 1.138e+04 
</text>
<text x="191.938" y="126.679" fill="black" font-size="11.947" font-family="Helvetica">
2-FWHM   
</text>
<text x="350.428" y="126.11" fill="black" font-size="11.947" font-family="Helvetica">
 0.72
</text>
<text x="343.611" y="126.11" fill="black" font-size="11.947" font-family="Times">
&#0177;
</text>
<text x="308.391" y="126.11" fill="black" font-size="11.947" font-family="Helvetica">
 19.26 
</text>
<text x="191.938" y="140.88" fill="black" font-size="11.947" font-family="Helvetica">
2-Counts 
</text>
<text x="350.428" y="140.88" fill="black" font-size="11.947" font-family="Helvetica">
 27.6
</text>
<text x="343.611" y="140.88" fill="black" font-size="11.947" font-family="Times">
&#0177;
</text>
<text x="308.391" y="140.88" fill="black" font-size="11.947" font-family="Helvetica">
 685.8 
</text>
<text x="191.938" y="153.946" fill="black" font-size="11.947" font-family="Helvetica">
Intercept 
</text>
<text x="350.428" y="155.082" fill="black" font-size="11.947" font-family="Helvetica">
 0.89
</text>
<text x="343.611" y="155.082" fill="black" font-size="11.947" font-family="Times">
&#0177;
</text>
<text x="312.368" y="155.082" fill="black" font-size="11.947" font-family="Helvetica">
  1.85 
</text>
<text x="191.938" y="168.715" fill="black" font-size="11.947" font-family="Helvetica">
Slope    
</text>
<text x="362.926" y="169.852" fill="black" font-size="11.947" font-family="Helvetica">
05
</text>
<text x="356.677" y="169.852" fill="black" font-size="11.947" font-family="Times">
&#8722;
</text>
<text x="318.048" y="169.852" fill="black" font-size="11.947" font-family="Helvetica">
 8.496e
</text>
<text x="311.232" y="169.852" fill="black" font-size="11.947" font-family="Times">
&#0177;
</text>
<text x="295.326" y="169.852" fill="black" font-size="11.947" font-family="Helvetica">
05 
</text>
<text x="289.077" y="169.852" fill="black" font-size="11.947" font-family="Times">
&#8722;
</text>
<text x="253.289" y="169.852" fill="black" font-size="11.947" font-family="Helvetica">
6.577e
</text>
<text x="247.04" y="169.852" fill="black" font-size="11.947" font-family="Times">
&#8722;
</text>
<text x="244.2" y="169.852" fill="black" font-size="11.947" font-family="Helvetica">
 
</text>
<path d="M57.1929,293.463h 453.543" fill="none" stroke="black" stroke-width="2"/>
<text x="466.314" y="315.844" fill="black" font-size="10.9701" font-family="Helvetica">
Channels
</text>
<path d="M131.451,285.637v 7.82567" fill="none" stroke="black" stroke-width="2"/>
<path d="M152.488,289.55v 3.91283" fill="none" stroke="black" stroke-width="2"/>
<path d="M173.524,289.55v 3.91283" fill="none" stroke="black" stroke-width="2"/>
<path d="M194.56,289.55v 3.91283" fill="none" stroke="black" stroke-width="2"/>
<path d="M215.596,289.55v 3.91283" fill="none" stroke="black" stroke-width="2"/>
<path d="M236.633,285.637v 7.82567" fill="none" stroke="black" stroke-width="2"/>
<path d="M257.669,289.55v 3.91283" fill="none" stroke="black" stroke-width="2"/>
<path d="M278.705,289.55v 3.91283" fill="none" stroke="black" stroke-width="2"/>
<path d="M299.742,289.55v 3.91283" fill="none" stroke="black" stroke-width="2"/>
<path d="M320.778,289.55v 3.91283" fill="none" stroke="black" stroke-width="2"/>
<path d="M341.814,285.637v 7.82567" fill="none" stroke="black" stroke-width="2"/>
<path d="M362.851,289.55v 3.91283" fill="none" stroke="black" stroke-width="2"/>
<path d="M383.887,289.55v 3.91283" fill="none" stroke="black" stroke-width="2"/>
<path d="M404.923,289.55v 3.91283" fill="none" stroke="black" stroke-width="2"/>
<path d="M425.96,289.55v 3.91283" fill="none" stroke="black" stroke-width="2"/>
<path d="M446.996,285.637v 7.82567" fill="none" stroke="black" stroke-width="2"/>
<path d="M131.451,285.637v 7.82567" fill="none" stroke="black" stroke-width="2"/>
<path d="M110.415,289.55v 3.91283" fill="none" stroke="black" stroke-width="2"/>
<path d="M89.3785,289.55v 3.91283" fill="none" stroke="black" stroke-width="2"/>
<path d="M68.3422,289.55v 3.91283" fill="none" stroke="black" stroke-width="2"/>
<path d="M446.996,285.637v 7.82567" fill="none" stroke="black" stroke-width="2"/>
<path d="M468.032,289.55v 3.91283" fill="none" stroke="black" stroke-width="2"/>
<path d="M489.069,289.55v 3.91283" fill="none" stroke="black" stroke-width="2"/>
<path d="M510.105,289.55v 3.91283" fill="none" stroke="black" stroke-width="2"/>
<text x="116.385" y="303.915" fill="black" font-size="10.9701" font-family="Helvetica">
10000
</text>
<text x="221.477" y="303.915" fill="black" font-size="10.9701" font-family="Helvetica">
10500
</text>
<text x="326.569" y="303.915" fill="black" font-size="10.9701" font-family="Helvetica">
11000
</text>
<text x="431.662" y="303.915" fill="black" font-size="10.9701" font-family="Helvetica">
11500
</text>
<path d="M57.1929,293.463v -260.856" fill="none" stroke="black" stroke-width="2"/>
<path d="M70.7992,293.463h -13.6063" fill="none" stroke="black" stroke-width="2"/>
<path d="M63.9961,287.403h -6.80315" fill="none" stroke="black" stroke-width="2"/>
<path d="M63.9961,281.344h -6.80315" fill="none" stroke="black" stroke-width="2"/>
<path d="M63.9961,275.284h -6.80315" fill="none" stroke="black" stroke-width="2"/>
<path d="M63.9961,269.225h -6.80315" fill="none" stroke="black" stroke-width="2"/>
<path d="M70.7992,263.166h -13.6063" fill="none" stroke="black" stroke-width="2"/>
<path d="M63.9961,257.106h -6.80315" fill="none" stroke="black" stroke-width="2"/>
<path d="M63.9961,251.047h -6.80315" fill="none" stroke="black" stroke-width="2"/>
<path d="M63.9961,244.988h -6.80315" fill="none" stroke="black" stroke-width="2"/>
<path d="M63.9961,238.928h -6.80315" fill="none" stroke="black" stroke-width="2"/>
<path d="M70.7992,232.869h -13.6063" fill="none" stroke="black" stroke-width="2"/>
<path d="M63.9961,226.81h -6.80315" fill="none" stroke="black" stroke-width="2"/>
<path d="M63.9961,220.75h -6.80315" fill="none" stroke="black" stroke-width="2"/>
<path d="M63.9961,214.691h -6.80315" fill="none" stroke="black" stroke-width="2"/>
<path d="M63.9961,208.631h -6.80315" fill="none" stroke="black" stroke-width="2"/>
<path d="M70.7992,202.572h -13.6063" fill="none" stroke="black" stroke-width="2"/>
<path d="M63.9961,196.513h -6.80315" fill="none" stroke="black" stroke-width="2"/>
<path d="M63.9961,190.453h -6.80315" fill="none" stroke="black" stroke-width="2"/>
<path d="M63.9961,184.394h -6.80315" fill="none" stroke="black" stroke-width="2"/>
<path d="M63.9961,178.335h -6.80315" fill="none" stroke="black" stroke-width="2"/>
<path d="M70.7992,172.275h -13.6063" fill="none" stroke="black" stroke-width="2"/>
<path d="M63.9961,166.216h -6.80315" fill="none" stroke="black" stroke-width="2"/>
<path d="M63.9961,160.157h -6.80315" fill="none" stroke="black" stroke-width="2"/>
<path d="M63.9961,154.097h -6.80315" fill="none" stroke="black" stroke-width="2"/>
<path d="M63.9961,148.038h -6.80315" fill="none" stroke="black" stroke-width="2"/>
<path d="M70.7992,141.978h -13.6063" fill="none" stroke="black" stroke-width="2"/>
<path d="M63.9961,135.919h -6.80315" fill="none" stroke="black" stroke-width="2"/>
<path d="M63.9961,129.86h -6.80315" fill="none" stroke="black" stroke-width="2"/>
<path d="M63.9961,123.8h -6.80315" fill="none" stroke="black" stroke-width="2"/>
<path d="M63.9961,117.741h -6.80315" fill="none" stroke="black" stroke-width="2"/>
<path d="M70.7992,111.682h -13.6063" fill="none" stroke="black" stroke-width="2"/>
<path d="M63.9961,105.622h -6.80315" fill="none" stroke="black" stroke-width="2"/>
<path d="M63.9961,99.5629h -6.80315" fill="none" stroke="black" stroke-width="2"/>
<path d="M63.9961,93.5035h -6.80315" fill="none" stroke="black" stroke-width="2"/>
<path d="M63.9961,87.4442h -6.80315" fill="none" stroke="black" stroke-width="2"/>
<path d="M70.7992,81.3848h -13.6063" fill="none" stroke="black" stroke-width="2"/>
<path d="M63.9961,75.3255h -6.80315" fill="none" stroke="black" stroke-width="2"/>
<path d="M63.9961,69.2661h -6.80315" fill="none" stroke="black" stroke-width="2"/>
<path d="M63.9961,63.2067h -6.80315" fill="none" stroke="black" stroke-width="2"/>
<path d="M63.9961,57.1474h -6.80315" fill="none" stroke="black" stroke-width="2"/>
<path d="M70.7992,51.088h -13.6063" fill="none" stroke="black" stroke-width="2"/>
<path d="M70.7992,51.088h -13.6063" fill="none" stroke="black" stroke-width="2"/>
<path d="M63.9961,45.0286h -6.80315" fill="none" stroke="black" stroke-width="2"/>
<path d="M63.9961,38.9693h -6.80315" fill="none" stroke="black" stroke-width="2"/>
<path d="M63.9961,32.9099h -6.80315" fill="none" stroke="black" stroke-width="2"/>
<text x="48.2175" y="297.098" fill="black" font-size="10.9701" font-family="Helvetica">
0
</text>
<text x="48.2175" y="266.991" fill="black" font-size="10.9701" font-family="Helvetica">
5
</text>
<text x="41.9688" y="236.315" fill="black" font-size="10.9701" font-family="Helvetica">
10
</text>
<text x="41.9688" y="206.208" fill="black" font-size="10.9701" font-family="Helvetica">
15
</text>
<text x="41.9688" y="176.1" fill="black" font-size="10.9701" font-family="Helvetica">
20
</text>
<text x="41.9688" y="145.425" fill="black" font-size="10.9701" font-family="Helvetica">
25
</text>
<text x="41.9688" y="115.317" fill="black" font-size="10.9701" font-family="Helvetica">
30
</text>
<text x="41.9688" y="85.2098" fill="black" font-size="10.9701" font-family="Helvetica">
35
</text>
<text x="41.9688" y="54.5343" fill="black" font-size="10.9701" font-family="Helvetica">
40
</text>
<rect x="181.713" y="42.6049" width="204.503" height="130.087" fill="white"/>
<path d="M181.713,172.692h 204.503" fill="none" stroke="black" stroke-width="2"/>
<path d="M386.216,172.692v -130.087" fill="none" stroke="black" stroke-width="2"/>
<path d="M386.216,42.6049h -204.503" fill="none" stroke="black" stroke-width="2"/>
<path d="M181.713,42.6049v 130.087" fill="none" stroke="black" stroke-width="2"/>
<text x="202.731" y="52.8301" fill="black" font-size="11.947" font-family="Helvetica">
 / ndf 
</text>
<text x="198.187" y="49.4217" fill="black" font-size="8.13136" font-family="Helvetica">
2
</text>
<text x="191.938" y="52.8301" fill="black" font-size="11.947" font-family="Times">
&#0967;
</text>
<text x="314.64" y="53.9662" fill="black" font-size="11.947" font-family="Helvetica">
 154.3 / 555
</text>
<text x="191.938" y="68.7359" fill="black" font-size="11.947" font-family="Helvetica">
1-Centroid 
</text>
<text x="356.677" y="68.7359" fill="black" font-size="11.947" font-family="Helvetica">
 0.4
</text>
<text x="349.86" y="68.7359" fill="black" font-size="11.947" font-family="Times">
&#0177;
</text>
<text x="287.941" y="68.7359" fill="black" font-size="11.947" font-family="Helvetica">
 1.001e+04 
</text>
<text x="191.938" y="83.5056" fill="black" font-size="11.947" font-family="Helvetica">
1-FWHM   
</text>
<text x="350.428" y="82.9375" fill="black" font-size="11.947" font-family="Helvetica">
 0.67
</text>
<text x="343.611" y="82.9375" fill="black" font-size="11.947" font-family="Times">
&#0177;
</text>
<text x="308.391" y="82.9375" fill="black" font-size="11.947" font-family="Helvetica">
 19.29 
</text>
<text x="191.938" y="97.7072" fill="black" font-size="11.947" font-family="Helvetica">
1-Counts 
</text>
<text x="350.428" y="97.7072" fill="black" font-size="11.947" font-family="Helvetica">
 27.6
</text>
<text x="343.611" y="97.7072" fill="black" font-size="11.947" font-family="Times">
&#0177;
</text>
<text x="308.391" y="97.7072" fill="black" font-size="11.947" font-family="Helvetica">
 694.2 
</text>
<text x="191.938" y="111.909" fill="black" font-size="11.947" font-family="Helvetica">
2-Centroid 
</text>
<text x="357.245" y="111.909" fill="black" font-size="11.947" font-family="Helvetica">
 0.3
</text>
<text x="350.428" y="111.909" fill="black" font-size="11.947" font-family="Times">
&#0177;
</text>
<text x="288.509" y="111.909" fill="black" font-size="11.947" font-family="Helvetica">
 1.138e+04 
</text>
<text x="191.938" y="126.679" fill="black" font-size="11.947" font-family="Helvetica">
2-FWHM   
</text>
<text x="350.428" y="126.11" fill="black" font-size="11.947" font-family="Helvetica">
 0.72
</text>
<text x="343.611" y="126.11" fill="black" font-size="11.947" font-family="Times">
&#0177;
</text>
<text x="308.391" y="126.11" fill="black" font-size="11.947" font-family="Helvetica">
 19.26 
</text>
<text x="191.938" y="140.88" fill="black" font-size="11.947" font-family="Helvetica">
2-Counts 
</text>
<text x="350.428" y="140.88" fill="black" font-size="11.947" font-family="Helvetica">
 27.6
</text>
<text x="343.611" y="140.88" fill="black" font-size="11.947" font-family="Times">
&#0177;
</text>
<text x="308.391" y="140.88" fill="black" font-size="11.947" font-family="Helvetica">
 685.8 
</text>
<text x="191.938" y="153.946" fill="black" font-size="11.947" font-family="Helvetica">
Intercept 
</text>
<text x="350.428" y="155.082" fill="black" font-size="11.947" font-family="Helvetica">
 0.89
</text>
<text x="343.611" y="155.082" fill="black" font-size="11.947" font-family="Times">
&#0177;
</text>
<text x="312.368" y="155.082" fill="black" font-size="11.947" font-family="Helvetica">
  1.85 
</text>
<text x="191.938" y="168.715" fill="black" font-size="11.947" font-family="Helvetica">
Slope    
</text>
<text x="362.926" y="169.852" fill="black" font-size="11.947" font-family="Helvetica">
05
</text>
<text x="356.677" y="169.852" fill="black" font-size="11.947" font-family="Times">
&#8722;
</text>
<text x="318.048" y="169.852" fill="black" font-size="11.947" font-family="Helvetica">
 8.496e
</text>
<text x="311.232" y="169.852" fill="black" font-size="11.947" font-family="Times">
&#0177;
</text>
<text x="295.326" y="169.852" fill="black" font-size="11.947" font-family="Helvetica">
05 
</text>
<text x="289.077" y="169.852" fill="black" font-size="11.947" font-family="Times">
&#8722;
</text>
<text x="253.289" y="169.852" fill="black" font-size="11.947" font-family="Helvetica">
6.577e
</text>
<text x="247.04" y="169.852" fill="black" font-size="11.947" font-family="Times">
&#8722;
</text>
<text x="244.2" y="169.852" fill="black" font-size="11.947" font-family="Helvetica">
 
</text>
<path d="M59.4606,293.463h 63.4961l 4.53543, -0.0484021l 4.53543, -70.4834l 4.53543, -32.82l 4.53543, 103.199l 4.53543, 0.152287h 136.063" fill="none" stroke="#00ff00" stroke-width="2"/>
<path d="M281.697,293.463h 222.236" fill="none" stroke="#00ff00" stroke-width="2"/>
<path d="M503.933,293.463h 4.53543" fill="none" stroke="#00ff00" stroke-width="2"/>
<path d="M59.4606,293.463h 222.236" fill="none" stroke="#00ff00" stroke-width="2"/>
<path d="M281.697,293.463h 131.528l 4.53543, -36.5456l 4.53543, -112.603l 4.53543, 148.547l 4.53543, 0.601811h 72.5669" fill="none" stroke="#00ff00" stroke-width="2"/>
<path d="M503.933,293.463h 4.53543" fill="none" stroke="#00ff00" stroke-width="2"/>
<text x="114.681" y="15.3378" fill="black" font-size="15.3844" font-family="Helvetica">
Labs_Identification/Elevated/Resolution/Co60.TKA
</text></svg>
