<?xml version="1.0" standalone="no"?>
<svg width="567.429" height="559.72" viewBox="0 0 567.429 559.72" xmlns="http://www.w3.org/2000/svg">
<title>
/home/ADF/jsm576/Labs_Identification/Elevated/Resolution/Cs137.svg
</title>
<desc>
Creator: ROOT Version 6.06/08
CreationDate: Fri Jan 25 10:53:08 2019</desc>
<defs>
</defs>
<rect x="0.5" y="0" width="566.929" height="559.22" fill="white"/>
<rect x="57.1929" y="55.922" width="453.543" height="447.376" fill="white"/>
<rect x="57.1929" y="55.922" width="453.543" height="447.376" fill="none" stroke="black"/>
<rect x="57.1929" y="55.922" width="453.543" height="447.376" fill="white"/>
<rect x="57.1929" y="55.922" width="453.543" height="447.376" fill="none" stroke="black"/>
<path d="M57.1929,502.03h 0.571213v 0.362383h 0.571213v -0.0905958h 0.571213v -0.181192h 0.571213v 0.452979h 0.571213v -0.0905958h 0.571213v -0.181192h 0.571213v 0.543575h 0.571213v -0.0905958h 0.571213v -0.0905958h 0.571213v -0.452979h 0.571213v
 0.181192h 0.571213v -0.0905958h 0.571213v 0.271788h 0.571213v -0.271788h 0.571213v 0.271788h 0.571213v 0.0905958h 0.571213v -0.362383h 0.571213v 0.452979h 0.571213v -0.271788h 0.571213v -0.181192h 0.571213v 0.0905958h 0.571213v 0.0905958h 0.571213v
 -0.452979h 0.571213v 0.634171h 0.571213v -0.634171h 0.571213v 0.634171h 0.571213v -0.815363h 0.571213v 0.0905958h 0.571213v 0.634171h 0.571213v 0.452979h 0.571213v -0.815363h 0.571213v 0.0905958h 0.571213v 0.634171h 0.571213v -0.905958h 0.571213v
 -0.0905958h 0.571213v 0.724767h 0.571213v -0.181192h 0.571213v 0.0905958h 0.571213v -0.181192h 0.571213v -0.634171h 0.571213v 0.996554h 0.571213v -0.634171h 0.571213v 0.452979h 0.571213v 0.181192h 0.571213v 0.0905958h 0.571213v -0.181192h 0.571213v
 -0.724767h 0.571213v 0.634171h 0.571213v -0.0905958h 0.571213v -0.0905958h 0.571213v -0.452979h 0.571213v 0.271788h 0.571213v 0.271788h 0.571213v -0.724767h 0.571213v 0.815363h 0.571213v 0.362383h 0.571213v -0.0905958h 0.571213v -0.634171h 0.571213v
 0.543575h 0.571213v -0.452979h 0.571213v 0.0905958h 0.571213v 0.0905958h 0.571213v 0.452979h 0.571213v -0.362383h 0.571213v -0.452979h 0.571213v 0.724767h 0.571213v -0.724767h 0.571213v 0.362383h 0.571213v -0.362383h 0.571213v 0.362383h 0.571213v
 0.271788h 0.571213v -0.362383h 1.14243v 0.181192h 0.571213v -0.362383h 0.571213v -0.0905958h 0.571213v 0.362383h 0.571213v -0.634171h 0.571213v 0.724767h 0.571213v 0.181192h 0.571213v -0.181192h 0.571213v -0.724767h 0.571213v 0.452979h 0.571213v
 0.634171h 0.571213v -0.181192h 0.571213v 0.0905958h 0.571213v -0.543575h 0.571213v 0.271788h 0.571213v -0.362383h 0.571213v 0.181192h 0.571213v -0.0905958h 0.571213v 0.181192h 0.571213v -0.0905958h 0.571213v -0.724767h 0.571213v 0.634171h 1.14243v
 0.271788h 0.571213v -0.181192h 1.14243v -0.362383h 0.571213v 0.634171h 1.14243v -0.0905958h 0.571213v 0.271788h 0.571213v -0.0905958h 0.571213v -0.271788h 0.571213v -0.271788h 0.571213v 0.0905958h 0.571213v 0.634171h 0.571213v -0.543575h 0.571213v
 0.452979h 0.571213v -0.181192h 0.571213v -0.181192h 0.571213v 0.452979h 0.571213v -0.271788h 1.71364v 0.0905958h 1.14243v -0.543575h 0.571213v 0.452979h 0.571213v -0.0905958h 0.571213v 0.181192h 0.571213v -0.724767h 0.571213v 0.543575h 0.571213v
 0.0905958h 0.571213v -0.181192h 0.571213v 0.0905958h 0.571213v -0.181192h 0.571213v 0.362383h 1.14243v 0.181192h 0.571213v -0.543575h 0.571213v -0.181192h 0.571213v 0.543575h 0.571213v -0.181192h 1.14243v -0.0905958h 0.571213v 0.181192h 0.571213v
 -0.543575h 0.571213v 0.724767h 0.571213v -0.0905958h 0.571213v -0.271788h 0.571213v -0.181192h 0.571213v 0.0905958h 0.571213v 0.181192h 0.571213v 0.0905958h 0.571213v -0.181192h 0.571213v -0.362383h 0.571213v 0.181192h 0.571213v -0.271788h 0.571213v
 0.724767h 0.571213v -0.362383h 0.571213v 0.271788h 0.571213v 0.181192h 0.571213v 0.0905958h 0.571213v -0.452979h 1.14243v 0.181192h 0.571213v -0.271788h 0.571213v 0.452979h 0.571213v -0.634171h 0.571213v 0.271788h 0.571213v -0.181192h 0.571213v
 0.724767h 0.571213v -0.724767h 0.571213v 0.271788h 0.571213v -0.724767h 0.571213v 0.362383h 0.571213v 0.181192h 1.14243v -0.0905958h 0.571213v 0.362383h 0.571213v -0.0905958h 0.571213v 0.362383h 0.571213v -0.362383h 0.571213v -0.0905958h 1.14243v
 -0.271788h 0.571213v 0.543575h 0.571213v -0.0905958h 0.571213v -0.362383h 0.571213v 0.362383h 0.571213v 0.0905958h 0.571213v -0.362383h 0.571213v 0.0905958h 0.571213v -0.181192h 0.571213v 0.271788h 0.571213v -0.271788h 0.571213v 0.634171h 0.571213v
 -0.905958h 0.571213v 0.815363h 0.571213v -0.362383h 0.571213v -0.362383h 0.571213v 0.543575h 1.14243v -0.0905958h 0.571213v 0.271788h 0.571213v -0.724767h 0.571213v 0.543575h 0.571213v -0.271788h 0.571213v 0.0905958h 0.571213v 0.271788h 0.571213v
 -0.362383h 0.571213v -0.362383h 0.571213v 0.181192h 0.571213v 0.362383h 1.14243v -0.362383h 0.571213v 0.181192h 0.571213v 0.181192h 0.571213v 0.0905958h 0.571213v -0.181192h 0.571213v 0.362383h 0.571213v -0.724767h 1.14243v -0.362383h 0.571213v
 0.362383h 0.571213v 0.0905958h 0.571213v 0.362383h 0.571213v -0.181192h 0.571213v -0.0905958h 0.571213v 0.0905958h 0.571213v 0.0905958h 0.571213v -0.181192h 0.571213v 0.181192h 1.71364v -0.0905958h 0.571213v -0.724767h 0.571213v 0.905958h 1.14243v
 0.0905958h 0.571213v -0.0905958h 0.571213v -0.271788h 0.571213v 0.181192h 0.571213v 0.0905958h 0.571213v -0.271788h 0.571213v -0.181192h 0.571213v 0.905958h 0.571213v -0.543575h 0.571213v -0.543575h 0.571213v 0.452979h 1.14243v 0.0905958h 0.571213v
 0.0905958h 0.571213v -0.452979h 0.571213v 0.362383h 0.571213v -0.362383h 1.14243v 0.362383h 0.571213v 0.0905958h 0.571213v -0.362383h 0.571213v 0.0905958h 0.571213v 0.271788h 0.571213v -0.181192h 0.571213v -0.0905958h 0.571213v -0.0905958h 0.571213v
 -0.0905958h 0.571213v 0.543575h 0.571213v -0.271788h 0.571213v -0.0905958h 0.571213v 0.362383h 0.571213v -0.271788h 0.571213v 0.0905958h 0.571213v -0.724767h 0.571213v 0.452979h 0.571213v -0.452979h 0.571213v 0.452979h 0.571213v 0.181192h 0.571213v
 -0.181192h 0.571213v 0.0905958h 0.571213v -0.724767h 0.571213v 1.26834h 0.571213v -0.815363h 0.571213v 0.362383h 0.571213v 0.271788h 0.571213v -0.0905958h 0.571213v -0.452979h 0.571213v -0.271788h 0.571213v 0.724767h 0.571213v -0.0905958h 0.571213v
 0.0905958h 0.571213v -0.181192h 1.71364v 0.181192h 0.571213v -0.362383h 0.571213v 0.271788h 0.571213v -0.181192h 0.571213v -0.181192h 0.571213v 0.0905958h 1.14243v -0.362383h 0.571213v 0.362383h 0.571213v 0.0905958h 0.571213v 0.0905958h 0.571213v
 -0.996554h 0.571213v 0.724767h 0.571213v -0.0905958h 0.571213v 0.271788h 0.571213v -0.634171h 0.571213v 0.181192h 0.571213v 0.271788h 0.571213v 0.0905958h 0.571213v -0.0905958h 0.571213v -0.724767h 0.571213v 0.0905958h 0.571213v 0.905958h 1.14243v
 -0.543575h 0.571213v -0.724767h 0.571213v 0.452979h 0.571213v 0.815363h 0.571213v -0.815363h 0.571213v 0.543575h 0.571213v -0.634171h 0.571213v 0.634171h 0.571213v -0.181192h 1.14243v -0.452979h 0.571213v 0.815363h 0.571213v -0.0905958h 0.571213v
 0.0905958h 0.571213v -0.0905958h 0.571213v -0.815363h 0.571213v 0.271788h 0.571213v 0.0905958h 0.571213v 0.362383h 0.571213v -1.08715h 0.571213v 0.905958h 1.14243v -0.362383h 0.571213v 0.0905958h 0.571213v -0.362383h 0.571213v -0.181192h 0.571213v
 -0.271788h 0.571213v 0.452979h 0.571213v -0.0905958h 0.571213v 0.543575h 0.571213v -0.362383h 0.571213v 0.452979h 0.571213v -0.815363h 0.571213v 0.452979h 0.571213v -0.634171h 0.571213v 1.08715h 0.571213v -0.724767h 0.571213v 0.0905958h 0.571213v
 0.181192h 0.571213v -0.996554h 0.571213v 0.996554h 0.571213v -0.815363h 0.571213v 0.362383h 0.571213v -0.634171h 0.571213v 0.452979h 0.571213v 0.271788h 0.571213v -0.543575h 0.571213v 0.0905958h 0.571213v -0.181192h 0.571213v 0.181192h 0.571213v
 0.271788h 0.571213v -0.996554h 0.571213v 0.815363h 0.571213v 0.181192h 0.571213v -0.0905958h 0.571213v -0.543575h 1.14243v 0.543575h 0.571213v -0.543575h 0.571213v 0.815363h 0.571213v -1.72132h 0.571213v 0.271788h 0.571213v 0.996554h 0.571213v
 -1.17775h 0.571213v 0.0905958h 0.571213v -0.181192h 0.571213v -0.724767h 0.571213v 1.17775h 0.571213v -0.362383h 0.571213v 0.181192h 0.571213v 0.0905958h 0.571213v -0.905958h 0.571213v -1.63073h 0.571213v 1.08715h 0.571213v -0.271788h 0.571213v
 -2.0837h 0.571213v 1.90251h 0.571213v -0.543575h 0.571213v -0.815363h 0.571213v -0.181192h 0.571213v 0.724767h 0.571213v -1.35894h 0.571213v 0.543575h 0.571213v -1.08715h 0.571213v -1.08715h 0.571213v 0.452979h 0.571213v -1.44953h 0.571213v
 -0.634171h 0.571213v 0.271788h 0.571213v -2.53668h 0.571213v 0.0905958h 0.571213v -0.0905958h 0.571213v -2.53668h 0.571213v -2.2649h 0.571213v -1.44953h 0.571213v -0.543575h 0.571213v -1.90251h 0.571213v -0.271788h 0.571213v -6.97588h 0.571213v
 1.81192h 0.571213v -7.42886h 0.571213v -1.35894h 0.571213v -4.3486h 0.571213v -6.5229h 0.571213v -12.5022h 0.571213v -9.05958h 0.571213v -13.4988h 0.571213v -9.69376h 0.571213v -21.5618h 0.571213v -29.8966h 0.571213v -26.7258h 0.571213v -26.5446h
 0.571213v -28.3565h 0.571213v -32.1615h 0.571213v -48.3782h 0.571213v -37.7785h 0.571213v -30.8932h 0.571213v -21.6524h 0.571213v -25.9104h 0.571213v -4.52979h 0.571213v 6.5229h 0.571213v 14.5859h 0.571213v 23.2831h 0.571213v 31.6179h 0.571213v
 33.4299h 0.571213v 45.0261h 0.571213v 45.5697h 0.571213v 38.775h 0.571213v 39.5904h 0.571213v 25.0045h 0.571213v 28.8095h 0.571213v 14.3141h 0.571213v 20.4747h 0.571213v 15.3107h 0.571213v 5.34515h 0.571213v 3.71443h 0.571213v 9.69376h 0.571213v
 -1.99311h 0.571213v 4.3486h 0.571213v 3.26145h 0.571213v -0.543575h 0.571213v 1.90251h 0.571213v -2.0837h 0.571213v 3.80503h 0.571213v 1.26834h 0.571213v 0.905958h 0.571213v 1.26834h 0.571213v -0.271788h 1.14243v 2.2649h 0.571213v 0.0905958h
 0.571213v -1.26834h 0.571213v 0.996554h 0.571213v 0.996554h 0.571213v 0.362383h 0.571213v 0.543575h 0.571213v -0.452979h 0.571213v 1.81192h 0.571213v -0.724767h 0.571213v -0.905958h 0.571213v 2.89907h 0.571213v -0.634171h 0.571213v 1.63073h
 0.571213v 0.634171h 0.571213v -1.72132h 0.571213v 0.996554h 0.571213v 0.452979h 0.571213v 0.815363h 0.571213v -0.0905958h 0.571213v 1.08715h 0.571213v -0.815363h 0.571213v 0.181192h 0.571213v 1.54013h 0.571213v -0.362383h 0.571213v 0.724767h
 0.571213v -0.815363h 0.571213v 0.634171h 0.571213v 0.362383h 0.571213v 0.0905958h 0.571213v 0.181192h 0.571213v 0.634171h 0.571213v -0.815363h 0.571213v 0.634171h 0.571213v -0.452979h 0.571213v 0.815363h 0.571213v 0.0905958h 0.571213v -0.905958h
 0.571213v 0.634171h 0.571213v -0.0905958h 0.571213v 0.362383h 0.571213v -0.0905958h 0.571213v -0.0905958h 1.14243v 0.634171h 0.571213v -0.271788h 0.571213v 0.0905958h 0.571213v -0.181192h 1.14243v 0.181192h 2.28485v -0.0905958h 0.571213v 0.271788h
 0.571213v 0.181192h 0.571213v -0.362383h 0.571213v 0.271788h 0.571213v 0.0905958h 0.571213v -0.181192h 0.571213v 0.181192h 1.71364v -0.271788h 0.571213v 0.271788h 0.571213v -0.181192h 1.14243v 0.271788h 0.571213v -0.271788h 0.571213v 0.271788h
 0.571213v -0.271788h 0.571213v 0.0905958h 1.14243v 0.181192h 0.571213v -0.271788h 1.14243v -0.0905958h 0.571213v 0.0905958h 0.571213v -0.0905958h 0.571213v 0.181192h 1.14243v -0.181192h 0.571213v 0.362383h 0.571213v -0.181192h 0.571213v 0.0905958h
 0.571213v -0.271788h 0.571213v 0.181192h 1.14243v 0.0905958h 1.14243v -0.0905958h 1.14243v 0.0905958h 0.571213v -0.0905958h 1.14243v -0.181192h 0.571213v 0.181192h 0.571213v 0.181192h 0.571213v -0.0905958h 0.571213v -0.0905958h 0.571213v 0.181192h
 0.571213v -0.0905958h 0.571213v 0.0905958h 0.571213v -0.181192h 0.571213v 0.0905958h 0.571213v -0.181192h 0.571213v 0.271788h 1.14243v -0.181192h 0.571213v -0.362383h 0.571213v 0.181192h 0.571213v 0.181192h 1.14243v 0.0905958h 0.571213v -0.181192h
 0.571213v 0.181192h 0.571213v 0.0905958h 0.571213v -0.181192h 1.14243v 0.181192h 0.571213v -0.452979h 0.571213v 0.271788h 0.571213v -0.0905958h 1.14243v 0.181192h 0.571213v -0.0905958h 0.571213v 0.0905958h 0.571213v -0.181192h 1.14243v 0.181192h
 0.571213v -0.0905958h 0.571213v 0.181192h 0.571213v -0.362383h 0.571213v 0.181192h 0.571213v 0.0905958h 0.571213v -0.181192h 0.571213v 0.181192h 1.14243v -0.271788h 0.571213v 0.271788h 0.571213v -0.0905958h 0.571213v 0.181192h 0.571213v -0.362383h
 0.571213v 0.181192h 1.14243v -0.0905958h 0.571213v -0.0905958h 0.571213v 0.181192h 2.28485v 0.0905958h 0.571213v -0.181192h 0.571213v 0.181192h 0.571213v -0.181192h 0.571213v 0.181192h 0.571213v 0.0905958h 0.571213v -0.181192h 0.571213v 0.181192h
 0.571213v -0.181192h 1.14243v 0.0905958h 0.571213v -0.0905958h 0.571213v -0.181192h 0.571213v 0.271788h 0.571213v -0.181192h 0.571213v 0.181192h 1.14243v -0.181192h 1.71364v 0.181192h 0.571213v -0.0905958h 0.571213v 0.181192h 0.571213v -0.271788h
 0.571213v 0.181192h 0.571213v -0.181192h 0.571213v 0.0905958h 0.571213v 0.0905958h 0.571213v -0.0905958h 0.571213v 0.181192h 0.571213v -0.0905958h 0.571213v 0.0905958h 0.571213v -0.0905958h 0.571213v 0.0905958h 0.571213v -0.181192h 0.571213v
 0.181192h 0.571213v -0.0905958h 1.14243v -0.181192h 0.571213v -0.0905958h 0.571213v 0.181192h 0.571213v -0.0905958h 0.571213v 0.0905958h 1.14243v 0.181192h 0.571213v -0.452979h 0.571213v 0.452979h 0.571213v -0.181192h 0.571213v -0.181192h 0.571213v
 0.181192h 0.571213v 0.0905958h 0.571213v -0.0905958h 1.14243v 0.0905958h 0.571213v -0.271788h 0.571213v 0.181192h 0.571213v 0.0905958h 0.571213v -0.0905958h 0.571213v 0.0905958h 0.571213v 0.0905958h 1.14243v -0.181192h 0.571213v 0.181192h 0.571213v
 -0.181192h 0.571213v 0.0905958h 2.28485v -0.0905958h 0.571213v -0.0905958h 0.571213v 0.271788h 0.571213v -0.181192h 1.14243v 0.0905958h 1.14243v 0.0905958h 0.571213v -0.181192h 0.571213v 0.0905958h 1.14243v -0.0905958h 2.28485v 0.181192h 0.571213v
 -0.0905958h 0.571213v 0.0905958h 0.571213v -0.181192h 0.571213v 0.181192h 1.71364v -0.181192h 0.571213v 0.181192h 0.571213v -0.271788h 0.571213v 0.181192h 0.571213v -0.0905958h 1.71364v 0.181192h 0.571213v -0.0905958h 0.571213v 0.0905958h 0.571213v
 -0.0905958h 0.571213v 0.0905958h 0.571213v -0.0905958h 1.14243v -0.0905958h 0.571213v 0.181192h 0.571213v -0.181192h 0.571213v 0.0905958h 0.571213v -0.0905958h 1.14243v 0.0905958h 0.571213v -0.0905958h 0.571213v 0.181192h 0.571213v -0.0905958h
 1.14243v 0.0905958h 1.14243v -0.181192h 0.571213v -0.271788h 0.571213v 0.362383h 1.14243v -0.0905958h 1.14243v 0.181192h 0.571213v -0.0905958h 0.571213v 0.0905958h 0.571213v -0.0905958h 0.571213v -0.271788h 0.571213v 0.181192h 0.571213v 0.0905958h
 0.571213v 0.0905958h 0.571213v -0.0905958h 1.14243v -0.181192h 0.571213v 0.271788h 0.571213v -0.0905958h 1.71364v 0.0905958h 0.571213v -0.0905958h 0.571213v 0.0905958h 0.571213v -0.181192h 0.571213v 0.181192h 0.571213v -0.0905958h 0.571213v
 0.0905958h 1.71364v -0.181192h 2.28485v 0.181192h 0.571213v -0.0905958h 2.28485v -0.181192h 0.571213v 0.271788h 1.71364v -0.452979h 0.571213v 0.362383h 0.571213v 0.0905958h 1.14243v -0.0905958h 0.571213v 0.0905958h 0.571213v -0.0905958h 0.571213v
 0.0905958h 0.571213v -0.0905958h 0.571213v -0.0905958h 0.571213v 0.0905958h 0.571213v -0.271788h 0.571213v 0.362383h 1.14243v -0.0905958h 0.571213v 0.0905958h 0.571213v -0.181192h 0.571213v 0.181192h 0.571213v -0.271788h 0.571213v 0.271788h
 0.571213v -0.181192h 0.571213v -0.0905958h 0.571213v 0.181192h 0.571213" fill="none" stroke="#ff0000" stroke-width="2"/>
<path d="M59.4606,502.269l 4.53543, 0.0100822l 4.53543, 0.0100822l 4.53543, 0.0100822l 4.53543, 0.0100822l 4.53543, 0.0100822l 4.53543, 0.0100822l 4.53543, 0.0100822l 4.53543, 0.0100822l 4.53543, 0.0100822l 4.53543, 0.0100822l 4.53543, 0.0100822l
 4.53543, 0.0100822l 4.53543, 0.0100822l 4.53543, 0.0100822l 4.53543, 0.0100822l 4.53543, 0.0100822l 4.53543, 0.0100822l 4.53543, 0.0100822l 4.53543, 0.0100822l 4.53543, 0.0100822l 4.53543, 0.0100822l 4.53543, 0.0100822l 4.53543, 0.0100822l 4.53543,
 0.0100822l 4.53543, 0.0100822l 4.53543, 0.0100822l 4.53543, 0.0100822l 4.53543, 0.0100822l 4.53543, 0.0100822l 4.53543, 0.0100822l 4.53543, 0.0100822l 4.53543, 0.0100822l 4.53543, 0.0100822l 4.53543, 0.0100822l 4.53543, 0.0100822l 4.53543,
 0.0100822l 4.53543, 0.0100822l 4.53543, 0.0100822l 4.53543, 0.0100822l 4.53543, 0.0100822l 4.53543, 0.0100822l 4.53543, 0.0100822l 4.53543, 0.0100822l 4.53543, 0.0100822l 4.53543, 0.0100822l 4.53543, 0.0100822l 4.53543, 0.0100822l 4.53543,
 0.0100791l 4.53543, 0.00884898" fill="none" stroke="#0000ff" stroke-width="2"/>
<path d="M281.697,502.761l 4.53543, -0.143757l 4.53543, -5.94399l 4.53543, -69.4684l 4.53543, -218.136l 4.53543, -64.7573l 4.53543, 221.088l 4.53543, 120.889l 4.53543, 15.9293l 4.53543, 0.628256l 4.53543, 0.0174842l 4.53543, 0.0101099l 4.53543,
 0.0100823l 4.53543, 0.0100822l 4.53543, 0.0100822l 4.53543, 0.0100822l 4.53543, 0.0100822l 4.53543, 0.0100822l 4.53543, 0.0100822l 4.53543, 0.0100822l 4.53543, 0.0100822l 4.53543, 0.0100822l 4.53543, 0.0100822l 4.53543, 0.0100822l 4.53543,
 0.0100822l 4.53543, 0.0100822l 4.53543, 0.0100822l 4.53543, 0.0100822l 4.53543, 0.0100822l 4.53543, 0.0100822l 4.53543, 0.0100822l 4.53543, 0.0100822l 4.53543, 0.0100822l 4.53543, 0.0100822l 4.53543, 0.0100822l 4.53543, 0.0100822l 4.53543,
 0.0100822l 4.53543, 0.0100822l 4.53543, 0.0100822l 4.53543, 0.0100822l 4.53543, 0.0100822l 4.53543, 0.0100822l 4.53543, 0.0100822l 4.53543, 0.0100822l 4.53543, 0.0100822l 4.53543, 0.0100822l 4.53543, 0.0100822l 4.53543, 0.0100822l 4.53543,
 0.0100822l 4.53543, 0.0512133" fill="none" stroke="#0000ff" stroke-width="2"/>
<path d="M503.933,503.298h 4.53543" fill="none" stroke="#0000ff" stroke-width="2"/>
<rect x="351.996" y="36.3493" width="204.094" height="156.582" fill="white"/>
<path d="M351.996,192.931h 204.094" fill="none" stroke="black" stroke-width="2"/>
<path d="M556.091,192.931v -156.582" fill="none" stroke="black" stroke-width="2"/>
<path d="M556.091,36.3493h -204.094" fill="none" stroke="black" stroke-width="2"/>
<path d="M351.996,36.3493v 156.582" fill="none" stroke="black" stroke-width="2"/>
<text x="372.918" y="52.779" fill="black" font-size="12.7307" font-family="Helvetica">
 / ndf 
</text>
<text x="368.174" y="49.2208" fill="black" font-size="8.65379" font-family="Helvetica">
2
</text>
<text x="361.65" y="52.779" fill="black" font-size="12.7307" font-family="Times">
&#0967;
</text>
<text x="481.441" y="53.965" fill="black" font-size="12.7307" font-family="Helvetica">
  8874 / 726
</text>
<text x="361.65" y="80.058" fill="black" font-size="12.7307" font-family="Helvetica">
Centroid 
</text>
<text x="525.918" y="80.058" fill="black" font-size="12.7307" font-family="Helvetica">
 0.0
</text>
<text x="518.801" y="80.058" fill="black" font-size="12.7307" font-family="Times">
&#0177;
</text>
<text x="482.034" y="80.058" fill="black" font-size="12.7307" font-family="Helvetica">
  5643 
</text>
<text x="361.65" y="106.744" fill="black" font-size="12.7307" font-family="Helvetica">
FWHM     
</text>
<text x="518.801" y="106.151" fill="black" font-size="12.7307" font-family="Helvetica">
 0.06
</text>
<text x="511.685" y="106.151" fill="black" font-size="12.7307" font-family="Times">
&#0177;
</text>
<text x="474.918" y="106.151" fill="black" font-size="12.7307" font-family="Helvetica">
 17.34 
</text>
<text x="361.65" y="132.244" fill="black" font-size="12.7307" font-family="Helvetica">
Counts   
</text>
<text x="483.813" y="132.244" fill="black" font-size="12.7307" font-family="Helvetica">
 2.795e+02
</text>
<text x="476.697" y="132.244" fill="black" font-size="12.7307" font-family="Times">
&#0177;
</text>
<text x="412.057" y="132.244" fill="black" font-size="12.7307" font-family="Helvetica">
 7.789e+04 
</text>
<text x="361.65" y="157.151" fill="black" font-size="12.7307" font-family="Helvetica">
Intercept 
</text>
<text x="518.801" y="158.337" fill="black" font-size="12.7307" font-family="Helvetica">
 1.97
</text>
<text x="511.685" y="158.337" fill="black" font-size="12.7307" font-family="Times">
&#0177;
</text>
<text x="474.918" y="158.337" fill="black" font-size="12.7307" font-family="Helvetica">
 84.48 
</text>
<text x="361.65" y="183.244" fill="black" font-size="12.7307" font-family="Helvetica">
Slope    
</text>
<text x="498.046" y="184.43" fill="black" font-size="12.7307" font-family="Helvetica">
 0.00034
</text>
<text x="490.929" y="184.43" fill="black" font-size="12.7307" font-family="Times">
&#0177;
</text>
<text x="443.488" y="184.43" fill="black" font-size="12.7307" font-family="Helvetica">
0.01402 
</text>
<text x="436.371" y="184.43" fill="black" font-size="12.7307" font-family="Times">
&#8722;
</text>
<text x="433.406" y="184.43" fill="black" font-size="12.7307" font-family="Helvetica">
 
</text>
<path d="M57.1929,503.298h 453.543" fill="none" stroke="black" stroke-width="2"/>
<text x="435.185" y="541.429" fill="black" font-size="18.4566" font-family="Helvetica">
Channels
</text>
<path d="M164.01,489.877v 13.4213" fill="none" stroke="black" stroke-width="2"/>
<path d="M192.57,496.587v 6.71064" fill="none" stroke="black" stroke-width="2"/>
<path d="M221.131,496.587v 6.71064" fill="none" stroke="black" stroke-width="2"/>
<path d="M249.692,496.587v 6.71064" fill="none" stroke="black" stroke-width="2"/>
<path d="M278.252,489.877v 13.4213" fill="none" stroke="black" stroke-width="2"/>
<path d="M306.813,496.587v 6.71064" fill="none" stroke="black" stroke-width="2"/>
<path d="M335.374,496.587v 6.71064" fill="none" stroke="black" stroke-width="2"/>
<path d="M363.934,496.587v 6.71064" fill="none" stroke="black" stroke-width="2"/>
<path d="M392.495,489.877v 13.4213" fill="none" stroke="black" stroke-width="2"/>
<path d="M421.056,496.587v 6.71064" fill="none" stroke="black" stroke-width="2"/>
<path d="M449.616,496.587v 6.71064" fill="none" stroke="black" stroke-width="2"/>
<path d="M478.177,496.587v 6.71064" fill="none" stroke="black" stroke-width="2"/>
<path d="M506.738,489.877v 13.4213" fill="none" stroke="black" stroke-width="2"/>
<path d="M164.01,489.877v 13.4213" fill="none" stroke="black" stroke-width="2"/>
<path d="M135.449,496.587v 6.71064" fill="none" stroke="black" stroke-width="2"/>
<path d="M106.888,496.587v 6.71064" fill="none" stroke="black" stroke-width="2"/>
<path d="M78.3278,496.587v 6.71064" fill="none" stroke="black" stroke-width="2"/>
<path d="M506.738,489.877v 13.4213" fill="none" stroke="black" stroke-width="2"/>
<text x="143.418" y="521.266" fill="black" font-size="18.4566" font-family="Helvetica">
5400
</text>
<text x="257.872" y="521.266" fill="black" font-size="18.4566" font-family="Helvetica">
5600
</text>
<text x="372.325" y="521.266" fill="black" font-size="18.4566" font-family="Helvetica">
5800
</text>
<text x="486.185" y="521.266" fill="black" font-size="18.4566" font-family="Helvetica">
6000
</text>
<path d="M57.1929,503.298v -447.376" fill="none" stroke="black" stroke-width="2"/>
<path d="M70.7992,503.298h -13.6063" fill="none" stroke="black" stroke-width="2"/>
<path d="M63.9961,494.238h -6.80315" fill="none" stroke="black" stroke-width="2"/>
<path d="M63.9961,485.179h -6.80315" fill="none" stroke="black" stroke-width="2"/>
<path d="M63.9961,476.119h -6.80315" fill="none" stroke="black" stroke-width="2"/>
<path d="M63.9961,467.06h -6.80315" fill="none" stroke="black" stroke-width="2"/>
<path d="M70.7992,458h -13.6063" fill="none" stroke="black" stroke-width="2"/>
<path d="M63.9961,448.94h -6.80315" fill="none" stroke="black" stroke-width="2"/>
<path d="M63.9961,439.881h -6.80315" fill="none" stroke="black" stroke-width="2"/>
<path d="M63.9961,430.821h -6.80315" fill="none" stroke="black" stroke-width="2"/>
<path d="M63.9961,421.762h -6.80315" fill="none" stroke="black" stroke-width="2"/>
<path d="M70.7992,412.702h -13.6063" fill="none" stroke="black" stroke-width="2"/>
<path d="M63.9961,403.642h -6.80315" fill="none" stroke="black" stroke-width="2"/>
<path d="M63.9961,394.583h -6.80315" fill="none" stroke="black" stroke-width="2"/>
<path d="M63.9961,385.523h -6.80315" fill="none" stroke="black" stroke-width="2"/>
<path d="M63.9961,376.464h -6.80315" fill="none" stroke="black" stroke-width="2"/>
<path d="M70.7992,367.404h -13.6063" fill="none" stroke="black" stroke-width="2"/>
<path d="M63.9961,358.345h -6.80315" fill="none" stroke="black" stroke-width="2"/>
<path d="M63.9961,349.285h -6.80315" fill="none" stroke="black" stroke-width="2"/>
<path d="M63.9961,340.225h -6.80315" fill="none" stroke="black" stroke-width="2"/>
<path d="M63.9961,331.166h -6.80315" fill="none" stroke="black" stroke-width="2"/>
<path d="M70.7992,322.106h -13.6063" fill="none" stroke="black" stroke-width="2"/>
<path d="M63.9961,313.047h -6.80315" fill="none" stroke="black" stroke-width="2"/>
<path d="M63.9961,303.987h -6.80315" fill="none" stroke="black" stroke-width="2"/>
<path d="M63.9961,294.927h -6.80315" fill="none" stroke="black" stroke-width="2"/>
<path d="M63.9961,285.868h -6.80315" fill="none" stroke="black" stroke-width="2"/>
<path d="M70.7992,276.808h -13.6063" fill="none" stroke="black" stroke-width="2"/>
<path d="M63.9961,267.749h -6.80315" fill="none" stroke="black" stroke-width="2"/>
<path d="M63.9961,258.689h -6.80315" fill="none" stroke="black" stroke-width="2"/>
<path d="M63.9961,249.629h -6.80315" fill="none" stroke="black" stroke-width="2"/>
<path d="M63.9961,240.57h -6.80315" fill="none" stroke="black" stroke-width="2"/>
<path d="M70.7992,231.51h -13.6063" fill="none" stroke="black" stroke-width="2"/>
<path d="M63.9961,222.451h -6.80315" fill="none" stroke="black" stroke-width="2"/>
<path d="M63.9961,213.391h -6.80315" fill="none" stroke="black" stroke-width="2"/>
<path d="M63.9961,204.332h -6.80315" fill="none" stroke="black" stroke-width="2"/>
<path d="M63.9961,195.272h -6.80315" fill="none" stroke="black" stroke-width="2"/>
<path d="M70.7992,186.212h -13.6063" fill="none" stroke="black" stroke-width="2"/>
<path d="M63.9961,177.153h -6.80315" fill="none" stroke="black" stroke-width="2"/>
<path d="M63.9961,168.093h -6.80315" fill="none" stroke="black" stroke-width="2"/>
<path d="M63.9961,159.034h -6.80315" fill="none" stroke="black" stroke-width="2"/>
<path d="M63.9961,149.974h -6.80315" fill="none" stroke="black" stroke-width="2"/>
<path d="M70.7992,140.914h -13.6063" fill="none" stroke="black" stroke-width="2"/>
<path d="M63.9961,131.855h -6.80315" fill="none" stroke="black" stroke-width="2"/>
<path d="M63.9961,122.795h -6.80315" fill="none" stroke="black" stroke-width="2"/>
<path d="M63.9961,113.736h -6.80315" fill="none" stroke="black" stroke-width="2"/>
<path d="M63.9961,104.676h -6.80315" fill="none" stroke="black" stroke-width="2"/>
<path d="M70.7992,95.6166h -13.6063" fill="none" stroke="black" stroke-width="2"/>
<path d="M70.7992,95.6166h -13.6063" fill="none" stroke="black" stroke-width="2"/>
<path d="M63.9961,86.557h -6.80315" fill="none" stroke="black" stroke-width="2"/>
<path d="M63.9961,77.4974h -6.80315" fill="none" stroke="black" stroke-width="2"/>
<path d="M63.9961,68.4378h -6.80315" fill="none" stroke="black" stroke-width="2"/>
<path d="M63.9961,59.3782h -6.80315" fill="none" stroke="black" stroke-width="2"/>
<text x="44.3836" y="509.406" fill="black" font-size="18.4566" font-family="Helvetica">
0
</text>
<text x="23.6279" y="464.336" fill="black" font-size="18.4566" font-family="Helvetica">
500
</text>
<text x="13.5465" y="418.674" fill="black" font-size="18.4566" font-family="Helvetica">
1000
</text>
<text x="13.5465" y="373.604" fill="black" font-size="18.4566" font-family="Helvetica">
1500
</text>
<text x="13.5465" y="328.534" fill="black" font-size="18.4566" font-family="Helvetica">
2000
</text>
<text x="13.5465" y="282.872" fill="black" font-size="18.4566" font-family="Helvetica">
2500
</text>
<text x="13.5465" y="237.802" fill="black" font-size="18.4566" font-family="Helvetica">
3000
</text>
<text x="13.5465" y="192.732" fill="black" font-size="18.4566" font-family="Helvetica">
3500
</text>
<text x="13.5465" y="147.069" fill="black" font-size="18.4566" font-family="Helvetica">
4000
</text>
<text x="13.5465" y="102" fill="black" font-size="18.4566" font-family="Helvetica">
4500
</text>
<rect x="351.996" y="36.3493" width="204.094" height="156.582" fill="white"/>
<path d="M351.996,192.931h 204.094" fill="none" stroke="black" stroke-width="2"/>
<path d="M556.091,192.931v -156.582" fill="none" stroke="black" stroke-width="2"/>
<path d="M556.091,36.3493h -204.094" fill="none" stroke="black" stroke-width="2"/>
<path d="M351.996,36.3493v 156.582" fill="none" stroke="black" stroke-width="2"/>
<text x="372.918" y="52.779" fill="black" font-size="12.7307" font-family="Helvetica">
 / ndf 
</text>
<text x="368.174" y="49.2208" fill="black" font-size="8.65379" font-family="Helvetica">
2
</text>
<text x="361.65" y="52.779" fill="black" font-size="12.7307" font-family="Times">
&#0967;
</text>
<text x="481.441" y="53.965" fill="black" font-size="12.7307" font-family="Helvetica">
  8874 / 726
</text>
<text x="361.65" y="80.058" fill="black" font-size="12.7307" font-family="Helvetica">
Centroid 
</text>
<text x="525.918" y="80.058" fill="black" font-size="12.7307" font-family="Helvetica">
 0.0
</text>
<text x="518.801" y="80.058" fill="black" font-size="12.7307" font-family="Times">
&#0177;
</text>
<text x="482.034" y="80.058" fill="black" font-size="12.7307" font-family="Helvetica">
  5643 
</text>
<text x="361.65" y="106.744" fill="black" font-size="12.7307" font-family="Helvetica">
FWHM     
</text>
<text x="518.801" y="106.151" fill="black" font-size="12.7307" font-family="Helvetica">
 0.06
</text>
<text x="511.685" y="106.151" fill="black" font-size="12.7307" font-family="Times">
&#0177;
</text>
<text x="474.918" y="106.151" fill="black" font-size="12.7307" font-family="Helvetica">
 17.34 
</text>
<text x="361.65" y="132.244" fill="black" font-size="12.7307" font-family="Helvetica">
Counts   
</text>
<text x="483.813" y="132.244" fill="black" font-size="12.7307" font-family="Helvetica">
 2.795e+02
</text>
<text x="476.697" y="132.244" fill="black" font-size="12.7307" font-family="Times">
&#0177;
</text>
<text x="412.057" y="132.244" fill="black" font-size="12.7307" font-family="Helvetica">
 7.789e+04 
</text>
<text x="361.65" y="157.151" fill="black" font-size="12.7307" font-family="Helvetica">
Intercept 
</text>
<text x="518.801" y="158.337" fill="black" font-size="12.7307" font-family="Helvetica">
 1.97
</text>
<text x="511.685" y="158.337" fill="black" font-size="12.7307" font-family="Times">
&#0177;
</text>
<text x="474.918" y="158.337" fill="black" font-size="12.7307" font-family="Helvetica">
 84.48 
</text>
<text x="361.65" y="183.244" fill="black" font-size="12.7307" font-family="Helvetica">
Slope    
</text>
<text x="498.046" y="184.43" fill="black" font-size="12.7307" font-family="Helvetica">
 0.00034
</text>
<text x="490.929" y="184.43" fill="black" font-size="12.7307" font-family="Times">
&#0177;
</text>
<text x="443.488" y="184.43" fill="black" font-size="12.7307" font-family="Helvetica">
0.01402 
</text>
<text x="436.371" y="184.43" fill="black" font-size="12.7307" font-family="Times">
&#8722;
</text>
<text x="433.406" y="184.43" fill="black" font-size="12.7307" font-family="Helvetica">
 
</text>
<path d="M59.4606,503.298h 222.236" fill="none" stroke="#00ff00" stroke-width="2"/>
<path d="M281.697,503.298l 4.53543, -0.155075l 4.53543, -5.95407l 4.53543, -69.4785l 4.53543, -218.146l 4.53543, -64.7674l 4.53543, 221.078l 4.53543, 120.878l 4.53543, 15.9193l 4.53543, 0.625603h 181.417" fill="none" stroke="#00ff00"
 stroke-width="2"/>
<path d="M503.933,503.298h 4.53543" fill="none" stroke="#00ff00" stroke-width="2"/>
<text x="103.093" y="23.7209" fill="black" font-size="16.3429" font-family="Helvetica">
Labs_Identification/Elevated/Resolution/Cs137.TKA
</text></svg>
