<?xml version="1.0" standalone="no"?>
<svg width="567.429" height="380.476" viewBox="0 0 567.429 380.476" xmlns="http://www.w3.org/2000/svg">
<title>
/home/ADF/jsm576/Labs_Xrays/Spr8Calibration/Ag_lowE.svg
</title>
<desc>
Creator: ROOT Version 6.06/08
CreationDate: Fri Mar  8 12:05:52 2019</desc>
<defs>
</defs>
<rect x="0.5" y="0" width="566.929" height="379.976" fill="white"/>
<rect x="57.1929" y="37.9976" width="453.543" height="303.981" fill="white"/>
<rect x="57.1929" y="37.9976" width="453.543" height="303.981" fill="none" stroke="black"/>
<rect x="57.1929" y="37.9976" width="453.543" height="303.981" fill="white"/>
<rect x="57.1929" y="37.9976" width="453.543" height="303.981" fill="none" stroke="black"/>
<path d="M57.1929,340.439h 1.89767v -0.923954h 1.89767v 1.23194h 1.89767v 0.307985h 1.89767v -0.461977h 1.89767v 0.461977h 1.89767v -0.769962h 1.89767v 0.615969h 1.89767v -0.769962h 1.89767v 0.461977h 3.79534v -0.615969h 1.89767v 0.307985h 1.89767v
 0.153992h 1.89767v -0.307985h 1.89767v 0.153992h 1.89767v -0.307985h 1.89767v -0.769962h 1.89767v 1.23194h 1.89767v -0.923954h 1.89767v 1.07795h 1.89767v -0.307985h 1.89767v -0.153992h 1.89767v -0.615969h 1.89767v 0.307985h 1.89767v 0.307985h
 1.89767v -1.07795h 1.89767v 0.769962h 1.89767v -0.615969h 1.89767v 1.38593h 1.89767v -1.69392h 1.89767v 0.153992h 3.79534v -0.153992h 1.89767v 1.07795h 1.89767v -0.615969h 1.89767v -0.153992h 1.89767v 0.307985h 1.89767v -0.923954h 1.89767v 0.615969h
 1.89767v -1.53992h 1.89767v 2.0019h 1.89767v -1.07795h 1.89767v -0.615969h 1.89767v 0.923954h 1.89767v -1.53992h 1.89767v 1.23194h 1.89767v -1.23194h 1.89767v 1.23194h 1.89767v -0.923954h 1.89767v -0.615969h 1.89767v -1.69392h 1.89767v -0.769962h
 1.89767v 2.15589h 1.89767v -2.77186h 1.89767v -1.38593h 1.89767v -3.69582h 1.89767v -1.53992h 1.89767v -5.23574h 1.89767v -4.15779h 1.89767v -7.54562h 1.89767v -7.69962h 1.89767v -11.7034h 1.89767v -9.70152h 1.89767v -16.0152h 1.89767v -18.1711h
 1.89767v -26.4867h 1.89767v -15.8612h 1.89767v -29.4125h 1.89767v -32.9544h 1.89767v -15.3992h 1.89767v -15.0912h 1.89767v -23.4068h 1.89767v -35.4182h 1.89767v 5.69772h 1.89767v -6.31368h 1.89767v 1.23194h 1.89767v 11.7034h 1.89767v 8.93155h
 1.89767v 12.9354h 1.89767v 19.095h 1.89767v 31.2604h 1.89767v 22.7909h 1.89767v 28.7966h 1.89767v 27.7186h 1.89767v 21.2509h 1.89767v 14.9373h 1.89767v 20.789h 1.89767v 16.6312h 1.89767v 17.5551h 1.89767v 8.77756h 1.89767v 4.92775h 1.89767v 5.38973h
 1.89767v 4.92775h 1.89767v 1.23194h 1.89767v 3.23384h 1.89767v 1.53992h 1.89767v -0.307985h 1.89767v 2.92585h 3.79534v -0.615969h 3.79534v 0.615969h 1.89767v 0.153992h 1.89767v 0.307985h 3.79534v -0.153992h 1.89767v -0.615969h 1.89767v 0.615969h
 1.89767v 0.153992h 1.89767v -1.53992h 1.89767v 1.53992h 1.89767v 0.153992h 3.79534v -0.307985h 1.89767v -0.153992h 1.89767v 0.307985h 1.89767v -0.615969h 1.89767v -0.615969h 3.79534v 0.923954h 1.89767v 0.153992h 1.89767v 0.615969h 1.89767v
 -0.769962h 1.89767v -0.615969h 1.89767v 0.461977h 3.79534v -0.461977h 1.89767v -0.769962h 1.89767v 0.307985h 1.89767v 0.769962h 1.89767v -0.769962h 1.89767v -1.23194h 1.89767v 1.84791h 1.89767v -0.307985h 1.89767v -0.923954h 1.89767v -1.23194h
 1.89767v 0.461977h 1.89767v 0.307985h 1.89767v -0.307985h 1.89767v 0.307985h 1.89767v 1.23194h 1.89767v -1.07795h 1.89767v -0.307985h 1.89767v 0.615969h 1.89767v -0.923954h 1.89767v 1.07795h 1.89767v -1.23194h 1.89767v -0.923954h 3.79534v 0.615969h
 1.89767v -0.307985h 1.89767v -2.46388h 1.89767v -0.461977h 1.89767v -6.0057h 1.89767v -0.923954h 1.89767v -1.53992h 1.89767v -5.54372h 1.89767v -6.31368h 1.89767v -4.15779h 1.89767v -6.62167h 1.89767v -8.93155h 1.89767v -3.69582h 1.89767v -8.16159h
 1.89767v -6.92965h 1.89767v -1.38593h 1.89767v 0.307985h 1.89767v -8.16159h 1.89767v 6.15969h 1.89767v -6.62167h 1.89767v 4.61977h 1.89767v 6.31368h 1.89767v 8.46958h 1.89767v 8.77756h 1.89767v 0.923954h 1.89767v 6.15969h 1.89767v 6.46768h 1.89767v
 6.46768h 1.89767v -3.07985h 1.89767v 4.77376h 1.89767v 4.15779h 1.89767v 2.15589h 1.89767v 0.615969h 1.89767v 2.15589h 1.89767v 0.153992h 1.89767v 1.23194h 1.89767v 0.307985h 1.89767v 2.15589h 1.89767v 2.77186h 1.89767v 0.461977h 1.89767v 2.46388h
 1.89767v 0.769962h 1.89767v 0.923954h 1.89767v 1.38593h 1.89767v 0.461977h 1.89767v -0.153992h 1.89767v 1.23194h 1.89767v 1.23194h 1.89767v 0.615969h 1.89767v -0.461977h 1.89767v 0.769962h 1.89767v -0.307985h 1.89767v 0.769962h 1.89767v -0.615969h
 1.89767v 0.769962h 1.89767v -0.153992h 1.89767v -0.461977h 1.89767v 0.615969h 3.79534v -0.307985h 1.89767v 0.153992h 1.89767v 0.153992h 3.79534v -0.153992h 1.89767v -0.153992h 1.89767v -0.153992h 1.89767v -0.153992h 1.89767v 0.461977h 1.89767v
 -0.153992h 1.89767v -0.153992h 1.89767v 0.153992h 5.69301v -0.153992h 1.89767v 0.153992h 3.79534v 0.153992h 1.89767v 0.153992h 1.89767v -0.153992h 1.89767v -0.461977h 1.89767v 0.307985h 1.89767v 0.153992h 3.79534v -0.461977h 1.89767v 0.615969h
 3.79534v -0.461977h 1.89767v -0.153992h 1.89767v 0.615969h 1.89767" fill="none" stroke="#ff0000" stroke-width="2"/>
<path d="M59.4606,339.798l 4.53543, 0.0199835l 4.53543, 0.0199835l 4.53543, 0.0199835l 4.53543, 0.0199835l 4.53543, 0.0199835l 4.53543, 0.0199835l 4.53543, 0.0199835l 4.53543, 0.0199835l 4.53543, 0.0199835l 4.53543, 0.0199835l 4.53543, 0.0199835l
 4.53543, 0.0199834l 4.53543, 0.0199826l 4.53543, 0.0199766l 4.53543, 0.0199351l 4.53543, 0.0196801l 4.53543, 0.0182985l 4.53543, 0.0117045l 4.53543, -0.0159768l 4.53543, -0.117975l 4.53543, -0.446966l 4.53543, -1.37238l 4.53543, -3.6305l 4.53543,
 -8.37278l 4.53543, -16.8362l 4.53543, -29.3859l 4.53543, -44.1352l 4.53543, -56.1533l 4.53543, -58.6507l 4.53543, -46.5025l 4.53543, -20.24l 4.53543, 12.7398l 4.53543, 41.4647l 4.53543, 57.2467l 4.53543, 57.8862l 4.53543, 47.4872l 4.53543, 32.8297l
 4.53543, 19.4831l 4.53543, 10.0311l 4.53543, 4.51326l 4.53543, 1.78708l 4.53543, 0.630695l 4.53543, 0.205848l 4.53543, 0.0698738l 4.53543, 0.0318088l 4.53543, 0.0224608l 4.53543, 0.0204425l 4.53543, 0.0200587l 4.53543, 0.0199939" fill="none"
 stroke="#0000ff" stroke-width="2"/>
<path d="M281.697,340.778l 4.53543, 0.0199823l 4.53543, 0.0199711l 4.53543, 0.0199268l 4.53543, 0.0197473l 4.53543, 0.0190791l 4.53543, 0.0168006l 4.53543, 0.00969122l 4.53543, -0.0105764l 4.53543, -0.0632798l 4.53543, -0.188009l 4.53543, -0.455868l
 4.53543, -0.975706l 4.53543, -1.88202l 4.53543, -3.28866l 4.53543, -5.20297l 4.53543, -7.42314l 4.53543, -9.47811l 4.53543, -10.6842l 4.53543, -10.3554l 4.53543, -8.1107l 4.53543, -4.13105l 4.53543, 0.802523l 4.53543, 5.55298l 4.53543, 9.05283l
 4.53543, 10.6937l 4.53543, 10.4856l 4.53543, 8.93759l 4.53543, 6.7655l 4.53543, 4.60253l 4.53543, 2.8356l 4.53543, 1.59179l 4.53543, 0.819732l 4.53543, 0.391701l 4.53543, 0.178073l 4.53543, 0.0815835l 4.53543, 0.0419962l 4.53543, 0.0272032l 4.53543,
 0.0221582l 4.53543, 0.0205854l 4.53543, 0.0201366l 4.53543, 0.0200193l 4.53543, 0.0199912l 4.53543, 0.019985l 4.53543, 0.0199837l 4.53543, 0.0199835l 4.53543, 0.0199835l 4.53543, 0.0199835l 4.53543, 0.0199835l 4.53543, 0.0199835" fill="none"
 stroke="#0000ff" stroke-width="2"/>
<path d="M503.933,341.757l 4.53543, 0.0199835" fill="none" stroke="#0000ff" stroke-width="2"/>
<rect x="351.996" y="24.6984" width="204.094" height="151.99" fill="white"/>
<path d="M351.996,176.689h 204.094" fill="none" stroke="black" stroke-width="2"/>
<path d="M556.091,176.689v -151.99" fill="none" stroke="black" stroke-width="2"/>
<path d="M556.091,24.6984h -204.094" fill="none" stroke="black" stroke-width="2"/>
<path d="M351.996,24.6984v 151.99" fill="none" stroke="black" stroke-width="2"/>
<text x="373.192" y="36.4194" fill="black" font-size="11.9106" font-family="Helvetica">
 / ndf 
</text>
<text x="368.336" y="32.7775" fill="black" font-size="8.10709" font-family="Helvetica">
2
</text>
<text x="361.052" y="36.4194" fill="black" font-size="11.9106" font-family="Times">
&#0967;
</text>
<text x="482.45" y="37.6334" fill="black" font-size="11.9106" font-family="Helvetica">
 919.4 / 222
</text>
<text x="361.052" y="54.6291" fill="black" font-size="11.9106" font-family="Helvetica">
1-Centroid 
</text>
<text x="526.154" y="54.6291" fill="black" font-size="11.9106" font-family="Helvetica">
 0.0
</text>
<text x="518.87" y="54.6291" fill="black" font-size="11.9106" font-family="Times">
&#0177;
</text>
<text x="483.664" y="54.6291" fill="black" font-size="11.9106" font-family="Helvetica">
 719.6 
</text>
<text x="361.052" y="72.8389" fill="black" font-size="11.9106" font-family="Helvetica">
1-FWHM   
</text>
<text x="518.87" y="71.6249" fill="black" font-size="11.9106" font-family="Helvetica">
 0.07
</text>
<text x="511.586" y="71.6249" fill="black" font-size="11.9106" font-family="Times">
&#0177;
</text>
<text x="476.381" y="71.6249" fill="black" font-size="11.9106" font-family="Helvetica">
 16.29 
</text>
<text x="361.052" y="88.6206" fill="black" font-size="11.9106" font-family="Helvetica">
1-Counts 
</text>
<text x="484.878" y="88.6206" fill="black" font-size="11.9106" font-family="Helvetica">
 1.816e+02
</text>
<text x="477.595" y="88.6206" fill="black" font-size="11.9106" font-family="Times">
&#0177;
</text>
<text x="414.468" y="88.6206" fill="black" font-size="11.9106" font-family="Helvetica">
 3.231e+04 
</text>
<text x="361.052" y="104.402" fill="black" font-size="11.9106" font-family="Helvetica">
2-Centroid 
</text>
<text x="527.368" y="104.402" fill="black" font-size="11.9106" font-family="Helvetica">
 0.1
</text>
<text x="520.084" y="104.402" fill="black" font-size="11.9106" font-family="Times">
&#0177;
</text>
<text x="484.878" y="104.402" fill="black" font-size="11.9106" font-family="Helvetica">
 813.3 
</text>
<text x="361.052" y="122.612" fill="black" font-size="11.9106" font-family="Helvetica">
2-FWHM   
</text>
<text x="526.154" y="121.398" fill="black" font-size="11.9106" font-family="Helvetica">
 0.2
</text>
<text x="518.87" y="121.398" fill="black" font-size="11.9106" font-family="Times">
&#0177;
</text>
<text x="487.306" y="121.398" fill="black" font-size="11.9106" font-family="Helvetica">
  19.7 
</text>
<text x="361.052" y="138.394" fill="black" font-size="11.9106" font-family="Helvetica">
2-Counts 
</text>
<text x="518.87" y="138.394" fill="black" font-size="11.9106" font-family="Helvetica">
 94.5
</text>
<text x="511.586" y="138.394" fill="black" font-size="11.9106" font-family="Times">
&#0177;
</text>
<text x="476.381" y="138.394" fill="black" font-size="11.9106" font-family="Helvetica">
  8577 
</text>
<text x="361.052" y="154.176" fill="black" font-size="11.9106" font-family="Helvetica">
Intercept 
</text>
<text x="518.87" y="155.39" fill="black" font-size="11.9106" font-family="Helvetica">
 2.13
</text>
<text x="511.586" y="155.39" fill="black" font-size="11.9106" font-family="Times">
&#0177;
</text>
<text x="476.381" y="155.39" fill="black" font-size="11.9106" font-family="Helvetica">
 49.19 
</text>
<text x="361.052" y="171.171" fill="black" font-size="11.9106" font-family="Helvetica">
Slope    
</text>
<text x="505.516" y="172.385" fill="black" font-size="11.9106" font-family="Helvetica">
 0.0026
</text>
<text x="498.232" y="172.385" fill="black" font-size="11.9106" font-family="Times">
&#0177;
</text>
<text x="459.385" y="172.385" fill="black" font-size="11.9106" font-family="Helvetica">
0.0543 
</text>
<text x="452.101" y="172.385" fill="black" font-size="11.9106" font-family="Times">
&#8722;
</text>
<text x="449.673" y="172.385" fill="black" font-size="11.9106" font-family="Helvetica">
 
</text>
<path d="M57.1929,341.978h 453.543" fill="none" stroke="black" stroke-width="2"/>
<text x="460.599" y="367.836" fill="black" font-size="12.7011" font-family="Helvetica">
Channels
</text>
<path d="M68.5789,332.859v 9.11942" fill="none" stroke="black" stroke-width="2"/>
<path d="M87.5556,337.419v 4.55971" fill="none" stroke="black" stroke-width="2"/>
<path d="M106.532,337.419v 4.55971" fill="none" stroke="black" stroke-width="2"/>
<path d="M125.509,337.419v 4.55971" fill="none" stroke="black" stroke-width="2"/>
<path d="M144.486,337.419v 4.55971" fill="none" stroke="black" stroke-width="2"/>
<path d="M163.462,332.859v 9.11942" fill="none" stroke="black" stroke-width="2"/>
<path d="M182.439,337.419v 4.55971" fill="none" stroke="black" stroke-width="2"/>
<path d="M201.416,337.419v 4.55971" fill="none" stroke="black" stroke-width="2"/>
<path d="M220.393,337.419v 4.55971" fill="none" stroke="black" stroke-width="2"/>
<path d="M239.369,337.419v 4.55971" fill="none" stroke="black" stroke-width="2"/>
<path d="M258.346,332.859v 9.11942" fill="none" stroke="black" stroke-width="2"/>
<path d="M277.323,337.419v 4.55971" fill="none" stroke="black" stroke-width="2"/>
<path d="M296.299,337.419v 4.55971" fill="none" stroke="black" stroke-width="2"/>
<path d="M315.276,337.419v 4.55971" fill="none" stroke="black" stroke-width="2"/>
<path d="M334.253,337.419v 4.55971" fill="none" stroke="black" stroke-width="2"/>
<path d="M353.23,332.859v 9.11942" fill="none" stroke="black" stroke-width="2"/>
<path d="M372.206,337.419v 4.55971" fill="none" stroke="black" stroke-width="2"/>
<path d="M391.183,337.419v 4.55971" fill="none" stroke="black" stroke-width="2"/>
<path d="M410.16,337.419v 4.55971" fill="none" stroke="black" stroke-width="2"/>
<path d="M429.136,337.419v 4.55971" fill="none" stroke="black" stroke-width="2"/>
<path d="M448.113,332.859v 9.11942" fill="none" stroke="black" stroke-width="2"/>
<path d="M68.5789,332.859v 9.11942" fill="none" stroke="black" stroke-width="2"/>
<path d="M448.113,332.859v 9.11942" fill="none" stroke="black" stroke-width="2"/>
<path d="M467.09,337.419v 4.55971" fill="none" stroke="black" stroke-width="2"/>
<path d="M486.066,337.419v 4.55971" fill="none" stroke="black" stroke-width="2"/>
<path d="M505.043,337.419v 4.55971" fill="none" stroke="black" stroke-width="2"/>
<text x="57.5571" y="354.482" fill="black" font-size="12.7011" font-family="Helvetica">
650
</text>
<text x="152.248" y="354.482" fill="black" font-size="12.7011" font-family="Helvetica">
700
</text>
<text x="246.938" y="354.482" fill="black" font-size="12.7011" font-family="Helvetica">
750
</text>
<text x="341.629" y="354.482" fill="black" font-size="12.7011" font-family="Helvetica">
800
</text>
<text x="436.319" y="354.482" fill="black" font-size="12.7011" font-family="Helvetica">
850
</text>
<path d="M57.1929,341.978v -303.981" fill="none" stroke="black" stroke-width="2"/>
<path d="M70.7992,341.978h -13.6063" fill="none" stroke="black" stroke-width="2"/>
<path d="M63.9961,334.279h -6.80315" fill="none" stroke="black" stroke-width="2"/>
<path d="M63.9961,326.579h -6.80315" fill="none" stroke="black" stroke-width="2"/>
<path d="M63.9961,318.88h -6.80315" fill="none" stroke="black" stroke-width="2"/>
<path d="M70.7992,311.18h -13.6063" fill="none" stroke="black" stroke-width="2"/>
<path d="M63.9961,303.48h -6.80315" fill="none" stroke="black" stroke-width="2"/>
<path d="M63.9961,295.781h -6.80315" fill="none" stroke="black" stroke-width="2"/>
<path d="M63.9961,288.081h -6.80315" fill="none" stroke="black" stroke-width="2"/>
<path d="M70.7992,280.382h -13.6063" fill="none" stroke="black" stroke-width="2"/>
<path d="M63.9961,272.682h -6.80315" fill="none" stroke="black" stroke-width="2"/>
<path d="M63.9961,264.982h -6.80315" fill="none" stroke="black" stroke-width="2"/>
<path d="M63.9961,257.283h -6.80315" fill="none" stroke="black" stroke-width="2"/>
<path d="M70.7992,249.583h -13.6063" fill="none" stroke="black" stroke-width="2"/>
<path d="M63.9961,241.883h -6.80315" fill="none" stroke="black" stroke-width="2"/>
<path d="M63.9961,234.184h -6.80315" fill="none" stroke="black" stroke-width="2"/>
<path d="M63.9961,226.484h -6.80315" fill="none" stroke="black" stroke-width="2"/>
<path d="M70.7992,218.785h -13.6063" fill="none" stroke="black" stroke-width="2"/>
<path d="M63.9961,211.085h -6.80315" fill="none" stroke="black" stroke-width="2"/>
<path d="M63.9961,203.385h -6.80315" fill="none" stroke="black" stroke-width="2"/>
<path d="M63.9961,195.686h -6.80315" fill="none" stroke="black" stroke-width="2"/>
<path d="M70.7992,187.986h -13.6063" fill="none" stroke="black" stroke-width="2"/>
<path d="M63.9961,180.287h -6.80315" fill="none" stroke="black" stroke-width="2"/>
<path d="M63.9961,172.587h -6.80315" fill="none" stroke="black" stroke-width="2"/>
<path d="M63.9961,164.887h -6.80315" fill="none" stroke="black" stroke-width="2"/>
<path d="M70.7992,157.188h -13.6063" fill="none" stroke="black" stroke-width="2"/>
<path d="M63.9961,149.488h -6.80315" fill="none" stroke="black" stroke-width="2"/>
<path d="M63.9961,141.788h -6.80315" fill="none" stroke="black" stroke-width="2"/>
<path d="M63.9961,134.089h -6.80315" fill="none" stroke="black" stroke-width="2"/>
<path d="M70.7992,126.389h -13.6063" fill="none" stroke="black" stroke-width="2"/>
<path d="M63.9961,118.69h -6.80315" fill="none" stroke="black" stroke-width="2"/>
<path d="M63.9961,110.99h -6.80315" fill="none" stroke="black" stroke-width="2"/>
<path d="M63.9961,103.29h -6.80315" fill="none" stroke="black" stroke-width="2"/>
<path d="M70.7992,95.5907h -13.6063" fill="none" stroke="black" stroke-width="2"/>
<path d="M63.9961,87.8911h -6.80315" fill="none" stroke="black" stroke-width="2"/>
<path d="M63.9961,80.1915h -6.80315" fill="none" stroke="black" stroke-width="2"/>
<path d="M63.9961,72.4919h -6.80315" fill="none" stroke="black" stroke-width="2"/>
<path d="M70.7992,64.7923h -13.6063" fill="none" stroke="black" stroke-width="2"/>
<path d="M70.7992,64.7923h -13.6063" fill="none" stroke="black" stroke-width="2"/>
<path d="M63.9961,57.0927h -6.80315" fill="none" stroke="black" stroke-width="2"/>
<path d="M63.9961,49.393h -6.80315" fill="none" stroke="black" stroke-width="2"/>
<path d="M63.9961,41.6934h -6.80315" fill="none" stroke="black" stroke-width="2"/>
<text x="46.6313" y="345.985" fill="black" font-size="12.7011" font-family="Helvetica">
0
</text>
<text x="33.2775" y="315.635" fill="black" font-size="12.7011" font-family="Helvetica">
200
</text>
<text x="33.2775" y="284.072" fill="black" font-size="12.7011" font-family="Helvetica">
400
</text>
<text x="33.2775" y="253.722" fill="black" font-size="12.7011" font-family="Helvetica">
600
</text>
<text x="33.2775" y="223.372" fill="black" font-size="12.7011" font-family="Helvetica">
800
</text>
<text x="27.2076" y="191.809" fill="black" font-size="12.7011" font-family="Helvetica">
1000
</text>
<text x="27.2076" y="161.459" fill="black" font-size="12.7011" font-family="Helvetica">
1200
</text>
<text x="27.2076" y="131.11" fill="black" font-size="12.7011" font-family="Helvetica">
1400
</text>
<text x="27.2076" y="99.5464" fill="black" font-size="12.7011" font-family="Helvetica">
1600
</text>
<text x="27.2076" y="69.1969" fill="black" font-size="12.7011" font-family="Helvetica">
1800
</text>
<rect x="351.996" y="24.6984" width="204.094" height="151.99" fill="white"/>
<path d="M351.996,176.689h 204.094" fill="none" stroke="black" stroke-width="2"/>
<path d="M556.091,176.689v -151.99" fill="none" stroke="black" stroke-width="2"/>
<path d="M556.091,24.6984h -204.094" fill="none" stroke="black" stroke-width="2"/>
<path d="M351.996,24.6984v 151.99" fill="none" stroke="black" stroke-width="2"/>
<text x="373.192" y="36.4194" fill="black" font-size="11.9106" font-family="Helvetica">
 / ndf 
</text>
<text x="368.336" y="32.7775" fill="black" font-size="8.10709" font-family="Helvetica">
2
</text>
<text x="361.052" y="36.4194" fill="black" font-size="11.9106" font-family="Times">
&#0967;
</text>
<text x="482.45" y="37.6334" fill="black" font-size="11.9106" font-family="Helvetica">
 919.4 / 222
</text>
<text x="361.052" y="54.6291" fill="black" font-size="11.9106" font-family="Helvetica">
1-Centroid 
</text>
<text x="526.154" y="54.6291" fill="black" font-size="11.9106" font-family="Helvetica">
 0.0
</text>
<text x="518.87" y="54.6291" fill="black" font-size="11.9106" font-family="Times">
&#0177;
</text>
<text x="483.664" y="54.6291" fill="black" font-size="11.9106" font-family="Helvetica">
 719.6 
</text>
<text x="361.052" y="72.8389" fill="black" font-size="11.9106" font-family="Helvetica">
1-FWHM   
</text>
<text x="518.87" y="71.6249" fill="black" font-size="11.9106" font-family="Helvetica">
 0.07
</text>
<text x="511.586" y="71.6249" fill="black" font-size="11.9106" font-family="Times">
&#0177;
</text>
<text x="476.381" y="71.6249" fill="black" font-size="11.9106" font-family="Helvetica">
 16.29 
</text>
<text x="361.052" y="88.6206" fill="black" font-size="11.9106" font-family="Helvetica">
1-Counts 
</text>
<text x="484.878" y="88.6206" fill="black" font-size="11.9106" font-family="Helvetica">
 1.816e+02
</text>
<text x="477.595" y="88.6206" fill="black" font-size="11.9106" font-family="Times">
&#0177;
</text>
<text x="414.468" y="88.6206" fill="black" font-size="11.9106" font-family="Helvetica">
 3.231e+04 
</text>
<text x="361.052" y="104.402" fill="black" font-size="11.9106" font-family="Helvetica">
2-Centroid 
</text>
<text x="527.368" y="104.402" fill="black" font-size="11.9106" font-family="Helvetica">
 0.1
</text>
<text x="520.084" y="104.402" fill="black" font-size="11.9106" font-family="Times">
&#0177;
</text>
<text x="484.878" y="104.402" fill="black" font-size="11.9106" font-family="Helvetica">
 813.3 
</text>
<text x="361.052" y="122.612" fill="black" font-size="11.9106" font-family="Helvetica">
2-FWHM   
</text>
<text x="526.154" y="121.398" fill="black" font-size="11.9106" font-family="Helvetica">
 0.2
</text>
<text x="518.87" y="121.398" fill="black" font-size="11.9106" font-family="Times">
&#0177;
</text>
<text x="487.306" y="121.398" fill="black" font-size="11.9106" font-family="Helvetica">
  19.7 
</text>
<text x="361.052" y="138.394" fill="black" font-size="11.9106" font-family="Helvetica">
2-Counts 
</text>
<text x="518.87" y="138.394" fill="black" font-size="11.9106" font-family="Helvetica">
 94.5
</text>
<text x="511.586" y="138.394" fill="black" font-size="11.9106" font-family="Times">
&#0177;
</text>
<text x="476.381" y="138.394" fill="black" font-size="11.9106" font-family="Helvetica">
  8577 
</text>
<text x="361.052" y="154.176" fill="black" font-size="11.9106" font-family="Helvetica">
Intercept 
</text>
<text x="518.87" y="155.39" fill="black" font-size="11.9106" font-family="Helvetica">
 2.13
</text>
<text x="511.586" y="155.39" fill="black" font-size="11.9106" font-family="Times">
&#0177;
</text>
<text x="476.381" y="155.39" fill="black" font-size="11.9106" font-family="Helvetica">
 49.19 
</text>
<text x="361.052" y="171.171" fill="black" font-size="11.9106" font-family="Helvetica">
Slope    
</text>
<text x="505.516" y="172.385" fill="black" font-size="11.9106" font-family="Helvetica">
 0.0026
</text>
<text x="498.232" y="172.385" fill="black" font-size="11.9106" font-family="Times">
&#0177;
</text>
<text x="459.385" y="172.385" fill="black" font-size="11.9106" font-family="Helvetica">
0.0543 
</text>
<text x="452.101" y="172.385" fill="black" font-size="11.9106" font-family="Times">
&#8722;
</text>
<text x="449.673" y="172.385" fill="black" font-size="11.9106" font-family="Helvetica">
 
</text>
<path d="M59.4606,341.978h 81.6378l 4.53543, -0.0462837l 4.53543, -0.137959l 4.53543, -0.46695l 4.53543, -1.39236l 4.53543, -3.65049l 4.53543, -8.39277l 4.53543, -16.8562l 4.53543, -29.4058l 4.53543, -44.1552l 4.53543, -56.1733l 4.53543, -58.6706l
 4.53543, -46.5225l 4.53543, -20.26l 4.53543, 12.7198l 4.53543, 41.4447l 4.53543, 57.2267l 4.53543, 57.8662l 4.53543, 47.4673l 4.53543, 32.8097l 4.53543, 19.4632l 4.53543, 10.0112l 4.53543, 4.49328l 4.53543, 1.7671l 4.53543, 0.610712l 4.53543,
 0.185864l 4.53543, 0.0647398h 22.6772" fill="none" stroke="#00ff00" stroke-width="2"/>
<path d="M281.697,341.978h 222.236" fill="none" stroke="#00ff00" stroke-width="2"/>
<path d="M503.933,341.978h 4.53543" fill="none" stroke="#00ff00" stroke-width="2"/>
<path d="M59.4606,341.978h 222.236" fill="none" stroke="#00ff00" stroke-width="2"/>
<path d="M281.697,341.978h 31.748l 4.53543, -0.0452479l 4.53543, -0.0832632l 4.53543, -0.207993l 4.53543, -0.475852l 4.53543, -0.99569l 4.53543, -1.902l 4.53543, -3.30865l 4.53543, -5.22296l 4.53543, -7.44313l 4.53543, -9.49809l 4.53543, -10.7042l
 4.53543, -10.3754l 4.53543, -8.13069l 4.53543, -4.15103l 4.53543, 0.78254l 4.53543, 5.53299l 4.53543, 9.03285l 4.53543, 10.6737l 4.53543, 10.4657l 4.53543, 8.9176l 4.53543, 6.74551l 4.53543, 4.58255l 4.53543, 2.81561l 4.53543, 1.57181l 4.53543,
 0.799748l 4.53543, 0.371717l 4.53543, 0.15809l 4.53543, 0.0616l 4.53543, 0.0322077h 58.9606" fill="none" stroke="#00ff00" stroke-width="2"/>
<path d="M503.933,341.978h 4.53543" fill="none" stroke="#00ff00" stroke-width="2"/>
<text x="148.606" y="18.2097" fill="black" font-size="17.3694" font-family="Helvetica">
Labs_Xrays/Spr8Calibration/Ag.Spe
</text></svg>
