<?xml version="1.0" standalone="no"?>
<svg width="567.429" height="326.569" viewBox="0 0 567.429 326.569" xmlns="http://www.w3.org/2000/svg">
<title>
/home/ADF/jsm576/Labs_Xrays/Spr8Calibration/Ba_lowE.svg
</title>
<desc>
Creator: ROOT Version 6.06/08
CreationDate: Fri Mar  8 12:07:27 2019</desc>
<defs>
</defs>
<rect x="0.5" y="0" width="566.929" height="326.069" fill="white"/>
<rect x="57.1929" y="32.6069" width="453.543" height="260.856" fill="white"/>
<rect x="57.1929" y="32.6069" width="453.543" height="260.856" fill="none" stroke="black"/>
<rect x="57.1929" y="32.6069" width="453.543" height="260.856" fill="white"/>
<rect x="57.1929" y="32.6069" width="453.543" height="260.856" fill="none" stroke="black"/>
<path d="M57.1929,290.13h 1.39982v -0.392035h 1.39982v 0.392035h 1.39982v 0.78407h 1.39982v -1.37212h 1.39982v 0.78407h 1.39982v -0.78407h 1.39982v 1.56814h 1.39982v -0.196018h 1.39982v -0.78407h 1.39982v -0.78407h 1.39982v -0.392035h 1.39982v
 -0.196018h 1.39982v 1.76416h 1.39982v -1.17611h 1.39982v 0.196018h 2.79965v 1.76416h 1.39982v -1.17611h 1.39982v -0.78407h 1.39982v -0.196018h 1.39982v 0.980088h 1.39982v 0.196018h 1.39982v -0.196018h 1.39982v -0.392035h 1.39982v 1.17611h 1.39982v
 -0.392035h 2.79965v -0.196018h 1.39982v 0.78407h 1.39982v -1.56814h 1.39982v 0.196018h 1.39982v 0.78407h 1.39982v -0.78407h 1.39982v 1.17611h 1.39982v -0.980088h 1.39982v -0.196018h 1.39982v -0.392035h 1.39982v 1.17611h 1.39982v -0.78407h 2.79965v
 -1.56814h 1.39982v -0.196018h 1.39982v 2.94026h 1.39982v 0.196018h 1.39982v -2.35221h 1.39982v 0.980088h 1.39982v -0.196018h 1.39982v 1.37212h 1.39982v -1.17611h 1.39982v -0.196018h 1.39982v -0.78407h 1.39982v -0.392035h 1.39982v 0.196018h 1.39982v
 1.37212h 1.39982v -1.37212h 1.39982v 1.17611h 1.39982v -1.76416h 1.39982v -0.588053h 1.39982v 1.17611h 1.39982v 0.980088h 1.39982v -2.35221h 1.39982v 0.588053h 1.39982v -0.588053h 1.39982v 0.980088h 1.39982v 0.980088h 1.39982v -1.76416h 1.39982v
 -0.980088h 1.39982v 1.56814h 1.39982v -0.392035h 1.39982v -2.54823h 1.39982v -0.392035h 1.39982v 0.392035h 1.39982v -2.15619h 1.39982v -2.74425h 1.39982v -1.17611h 1.39982v -3.13628h 1.39982v -1.76416h 1.39982v -4.31239h 1.39982v -5.88053h 1.39982v
 -8.23274h 1.39982v -9.21282h 1.39982v -0.980088h 1.39982v -21.7579h 1.39982v 0.78407h 1.39982v -24.6982h 1.39982v 2.74425h 1.39982v -25.0902h 1.39982v -0.196018h 1.39982v -27.4425h 1.39982v -13.9172h 1.39982v -1.37212h 1.39982v -17.6416h 1.39982v
 -13.5252h 1.39982v 0.196018h 1.39982v -10.781h 1.39982v -15.6814h 1.39982v -2.74425h 1.39982v -15.8774h 1.39982v 0.78407h 1.39982v -9.21282h 1.39982v 3.13628h 1.39982v -8.03672h 1.39982v 4.70442h 1.39982v 18.0336h 1.39982v 6.46858h 1.39982v 20.3858h
 2.79965v 11.565h 1.39982v 20.9739h 1.39982v 27.4425h 1.39982v 20.3858h 1.39982v 20.7779h 1.39982v 14.3093h 1.39982v 16.0734h 1.39982v 16.2695h 1.39982v 12.1531h 1.39982v 9.99689h 1.39982v 3.72433h 1.39982v 10.5849h 1.39982v 4.11637h 1.39982v
 0.78407h 1.39982v 2.15619h 1.39982v 1.37212h 1.39982v -0.392035h 1.39982v 2.74425h 2.79965v 2.54823h 1.39982v -1.37212h 1.39982v 0.78407h 1.39982v 0.196018h 1.39982v -1.17611h 1.39982v 1.37212h 1.39982v -0.78407h 1.39982v 0.588053h 1.39982v
 -0.196018h 1.39982v 0.196018h 1.39982v 0.588053h 1.39982v 0.588053h 1.39982v -0.588053h 1.39982v 0.196018h 1.39982v 0.78407h 1.39982v -1.96018h 2.79965v 0.980088h 1.39982v -0.196018h 1.39982v 0.980088h 1.39982v -0.980088h 2.79965v 0.196018h 1.39982v
 -0.588053h 1.39982v 0.78407h 1.39982v -0.980088h 1.39982v 0.980088h 1.39982v -0.196018h 1.39982v -0.588053h 1.39982v 0.980088h 1.39982v -1.17611h 1.39982v 0.392035h 2.79965v 0.588053h 1.39982v 0.392035h 1.39982v -0.392035h 1.39982v 0.196018h
 1.39982v -0.588053h 1.39982v 0.196018h 2.79965v -0.78407h 1.39982v 0.392035h 1.39982v -0.196018h 1.39982v 0.588053h 1.39982v -0.392035h 1.39982v 0.392035h 2.79965v -0.196018h 1.39982v -0.196018h 1.39982v 1.17611h 1.39982v -1.56814h 1.39982v
 0.392035h 1.39982v 0.196018h 1.39982v -1.37212h 1.39982v 2.15619h 1.39982v -1.17611h 1.39982v 0.196018h 2.79965v -0.392035h 1.39982v 0.196018h 1.39982v 0.196018h 1.39982v -0.392035h 1.39982v 0.392035h 1.39982v -0.196018h 2.79965v -0.392035h 1.39982v
 0.392035h 1.39982v 0.980088h 1.39982v -0.588053h 1.39982v 0.392035h 1.39982v -1.17611h 5.5993v -0.196018h 2.79965v 1.17611h 1.39982v -1.56814h 1.39982v 0.392035h 1.39982v 0.78407h 1.39982v 0.392035h 1.39982v -1.17611h 1.39982v -0.392035h 1.39982v
 -0.588053h 1.39982v 0.392035h 1.39982v 0.980088h 1.39982v -1.17611h 1.39982v 0.392035h 1.39982v -0.392035h 1.39982v 0.78407h 1.39982v -1.17611h 1.39982v 0.980088h 1.39982v -0.392035h 1.39982v -0.78407h 1.39982v -0.392035h 1.39982v -2.15619h 1.39982v
 -0.980088h 1.39982v -2.74425h 1.39982v -3.72433h 1.39982v 1.56814h 1.39982v -2.94026h 1.39982v -4.5084h 1.39982v -1.37212h 1.39982v -10.5849h 1.39982v -1.37212h 1.39982v -9.21282h 1.39982v -5.88053h 1.39982v -2.94026h 1.39982v -5.48849h 1.39982v
 -0.78407h 1.39982v -1.96018h 1.39982v -5.29247h 1.39982v -7.25265h 1.39982v 9.40884h 1.39982v -3.13628h 1.39982v 11.9571h 1.39982v -5.48849h 1.39982v 13.1332h 1.39982v 5.68451h 1.39982v 4.5084h 1.39982v 3.72433h 1.39982v 6.27256h 1.39982v 3.13628h
 1.39982v 3.13628h 1.39982v 3.92035h 1.39982v 3.52832h 1.39982v 0.980088h 1.39982v 3.52832h 1.39982v -1.56814h 1.39982v 2.74425h 1.39982v -0.196018h 1.39982v -0.980088h 2.79965v -0.588053h 1.39982v -0.980088h 1.39982v -5.48849h 1.39982v 3.72433h
 1.39982v -2.94026h 1.39982v -0.196018h 2.79965v -6.86061h 1.39982v -0.588053h 1.39982v 6.07654h 1.39982v 1.56814h 1.39982v 1.17611h 1.39982v 0.588053h 1.39982v -2.35221h 1.39982v 3.13628h 1.39982v 0.392035h 1.39982v -0.392035h 1.39982v 4.11637h
 1.39982v 0.78407h 1.39982v 0.78407h 1.39982v 0.392035h 1.39982v 2.74425h 1.39982v -0.392035h 1.39982v 0.196018h 1.39982v -0.196018h 1.39982v 1.37212h 1.39982v -0.392035h 1.39982v 0.392035h 1.39982v 0.980088h 1.39982v -1.17611h 1.39982v 0.78407h
 1.39982v 0.196018h 4.19947v 0.196018h 1.39982v -0.392035h 1.39982v 0.392035h 1.39982v -0.392035h 1.39982v 0.196018h 1.39982v 0.196018h 1.39982v -0.392035h 1.39982v 0.588053h 1.39982v -0.78407h 1.39982v 0.588053h 2.79965v -0.392035h 1.39982v
 0.392035h 1.39982v -0.196018h 1.39982v 0.392035h 1.39982v -0.392035h 1.39982v 0.392035h 1.39982v -0.196018h 1.39982v -0.588053h 1.39982v 0.196018h 1.39982v -0.196018h 1.39982v -0.196018h 1.39982v 0.980088h 2.79965v -0.392035h 1.39982v 0.196018h
 1.39982v -0.196018h 2.79965v -0.392035h 1.39982v 0.392035h 1.39982" fill="none" stroke="#ff0000" stroke-width="2"/>
<path d="M59.4606,290.559l 4.53543, 0.0287146l 4.53543, 0.0287146l 4.53543, 0.0287146l 4.53543, 0.0287146l 4.53543, 0.0287146l 4.53543, 0.0287146l 4.53543, 0.0287146l 4.53543, 0.0287146l 4.53543, 0.0287146l 4.53543, 0.0287146l 4.53543, 0.0287146l
 4.53543, 0.0287144l 4.53543, 0.0287125l 4.53543, 0.0286979l 4.53543, 0.0285979l 4.53543, 0.0279955l 4.53543, 0.0248188l 4.53543, 0.0101823l 4.53543, -0.0486314l 4.53543, -0.254189l 4.53543, -0.87682l 4.53543, -2.50291l 4.53543, -6.13682l 4.53543,
 -13.0023l 4.53543, -23.7382l 4.53543, -37.0438l 4.53543, -48.6614l 4.53543, -52.1784l 4.53543, -42.3142l 4.53543, -19.0367l 4.53543, 10.8894l 4.53543, 36.9853l 4.53543, 50.9353l 4.53543, 50.8191l 4.53543, 40.8081l 4.53543, 27.4176l 4.53543, 15.7059l
 4.53543, 7.75613l 4.53543, 3.32972l 4.53543, 1.25596l 4.53543, 0.426969l 4.53543, 0.141757l 4.53543, 0.0568241l 4.53543, 0.0348454l 4.53543, 0.0298885l 4.53543, 0.0289121l 4.53543, 0.0287438l 4.53543, 0.0287184l 4.53543, 0.028715" fill="none"
 stroke="#0000ff" stroke-width="2"/>
<path d="M281.697,291.966l 4.53543, 0.0287146l 4.53543, 0.0287146l 4.53543, 0.0287146l 4.53543, 0.0287146l 4.53543, 0.0287146l 4.53543, 0.0287146l 4.53543, 0.0287146l 4.53543, 0.0287146l 4.53543, 0.0287146l 4.53543, 0.0287146l 4.53543, 0.028714l
 4.53543, 0.0287065l 4.53543, 0.0286215l 4.53543, 0.0278499l 4.53543, 0.0222281l 4.53543, -0.0105077l 4.53543, -0.161999l 4.53543, -0.714398l 4.53543, -2.27967l 4.53543, -5.64145l 4.53543, -10.8315l 4.53543, -15.7584l 4.53543, -16.3143l 4.53543,
 -9.57493l 4.53543, 2.34975l 4.53543, 12.9513l 4.53543, 16.8357l 4.53543, 13.886l 4.53543, 7.76978l 4.53543, 1.91539l 4.53543, -2.14319l 4.53543, -3.82752l 4.53543, -2.85946l 4.53543, 0.0679042l 4.53543, 3.05485l 4.53543, 4.3492l 4.53543, 3.74602l
 4.53543, 2.30799l 4.53543, 1.07869l 4.53543, 0.400765l 4.53543, 0.131396l 4.53543, 0.050951l 4.53543, 0.0325111l 4.53543, 0.0292272l 4.53543, 0.0287695l 4.53543, 0.0287192l 4.53543, 0.0287149l 4.53543, 0.0287146l 4.53543, 0.0287146" fill="none"
 stroke="#0000ff" stroke-width="2"/>
<path d="M503.933,293.373l 4.53543, 0.0287146" fill="none" stroke="#0000ff" stroke-width="2"/>
<rect x="351.996" y="21.1945" width="204.094" height="169.556" fill="white"/>
<path d="M351.996,190.751h 204.094" fill="none" stroke="black" stroke-width="2"/>
<path d="M556.091,190.751v -169.556" fill="none" stroke="black" stroke-width="2"/>
<path d="M556.091,21.1945h -204.094" fill="none" stroke="black" stroke-width="2"/>
<path d="M351.996,21.1945v 169.556" fill="none" stroke="black" stroke-width="2"/>
<text x="372.583" y="31.2436" fill="black" font-size="12.426" font-family="Helvetica">
 / ndf 
</text>
<text x="368.038" y="27.8352" fill="black" font-size="8.45064" font-family="Helvetica">
2
</text>
<text x="361.79" y="31.2436" fill="black" font-size="12.426" font-family="Times">
&#0967;
</text>
<text x="484.492" y="32.3797" fill="black" font-size="12.426" font-family="Helvetica">
  1093 / 307
</text>
<text x="361.79" y="46.5814" fill="black" font-size="12.426" font-family="Helvetica">
1-Centroid 
</text>
<text x="528.801" y="46.5814" fill="black" font-size="12.426" font-family="Helvetica">
 0.1
</text>
<text x="521.984" y="46.5814" fill="black" font-size="12.426" font-family="Times">
&#0177;
</text>
<text x="486.764" y="46.5814" fill="black" font-size="12.426" font-family="Helvetica">
  1043 
</text>
<text x="361.79" y="61.351" fill="black" font-size="12.426" font-family="Helvetica">
1-FWHM   
</text>
<text x="520.28" y="60.783" fill="black" font-size="12.426" font-family="Helvetica">
 0.10
</text>
<text x="513.463" y="60.783" fill="black" font-size="12.426" font-family="Times">
&#0177;
</text>
<text x="478.243" y="60.783" fill="black" font-size="12.426" font-family="Helvetica">
 21.47 
</text>
<text x="361.79" y="74.9846" fill="black" font-size="12.426" font-family="Helvetica">
1-Counts 
</text>
<text x="493.581" y="74.9846" fill="black" font-size="12.426" font-family="Helvetica">
 1.72e+02
</text>
<text x="486.764" y="74.9846" fill="black" font-size="12.426" font-family="Times">
&#0177;
</text>
<text x="431.662" y="74.9846" fill="black" font-size="12.426" font-family="Helvetica">
 2.88e+04 
</text>
<text x="361.79" y="89.1862" fill="black" font-size="12.426" font-family="Helvetica">
2-Centroid 
</text>
<text x="528.801" y="89.1862" fill="black" font-size="12.426" font-family="Helvetica">
 0.1
</text>
<text x="521.984" y="89.1862" fill="black" font-size="12.426" font-family="Times">
&#0177;
</text>
<text x="486.764" y="89.1862" fill="black" font-size="12.426" font-family="Helvetica">
  1183 
</text>
<text x="361.79" y="103.956" fill="black" font-size="12.426" font-family="Helvetica">
2-FWHM   
</text>
<text x="520.28" y="103.388" fill="black" font-size="12.426" font-family="Helvetica">
 0.22
</text>
<text x="513.463" y="103.388" fill="black" font-size="12.426" font-family="Times">
&#0177;
</text>
<text x="478.243" y="103.388" fill="black" font-size="12.426" font-family="Helvetica">
 16.69 
</text>
<text x="361.79" y="117.021" fill="black" font-size="12.426" font-family="Helvetica">
2-Counts 
</text>
<text x="520.28" y="117.021" fill="black" font-size="12.426" font-family="Helvetica">
 78.0
</text>
<text x="513.463" y="117.021" fill="black" font-size="12.426" font-family="Times">
&#0177;
</text>
<text x="478.243" y="117.021" fill="black" font-size="12.426" font-family="Helvetica">
  5648 
</text>
<text x="361.79" y="131.223" fill="black" font-size="12.426" font-family="Helvetica">
3-Centroid 
</text>
<text x="527.096" y="131.223" fill="black" font-size="12.426" font-family="Helvetica">
 0.2
</text>
<text x="520.28" y="131.223" fill="black" font-size="12.426" font-family="Times">
&#0177;
</text>
<text x="485.06" y="131.223" fill="black" font-size="12.426" font-family="Helvetica">
  1213 
</text>
<text x="361.79" y="145.425" fill="black" font-size="12.426" font-family="Helvetica">
3-FWHM   
</text>
<text x="520.28" y="145.425" fill="black" font-size="12.426" font-family="Helvetica">
 0.49
</text>
<text x="513.463" y="145.425" fill="black" font-size="12.426" font-family="Times">
&#0177;
</text>
<text x="478.243" y="145.425" fill="black" font-size="12.426" font-family="Helvetica">
 16.03 
</text>
<text x="361.79" y="159.626" fill="black" font-size="12.426" font-family="Helvetica">
3-Counts 
</text>
<text x="520.28" y="159.626" fill="black" font-size="12.426" font-family="Helvetica">
 41.6
</text>
<text x="513.463" y="159.626" fill="black" font-size="12.426" font-family="Times">
&#0177;
</text>
<text x="478.243" y="159.626" fill="black" font-size="12.426" font-family="Helvetica">
  1337 
</text>
<text x="361.79" y="172.692" fill="black" font-size="12.426" font-family="Helvetica">
Intercept 
</text>
<text x="521.984" y="173.828" fill="black" font-size="12.426" font-family="Helvetica">
 2.11
</text>
<text x="515.167" y="173.828" fill="black" font-size="12.426" font-family="Times">
&#0177;
</text>
<text x="479.947" y="173.828" fill="black" font-size="12.426" font-family="Helvetica">
 57.57 
</text>
<text x="361.79" y="186.893" fill="black" font-size="12.426" font-family="Helvetica">
Slope    
</text>
<text x="502.102" y="188.03" fill="black" font-size="12.426" font-family="Helvetica">
 0.00181
</text>
<text x="495.285" y="188.03" fill="black" font-size="12.426" font-family="Times">
&#0177;
</text>
<text x="452.112" y="188.03" fill="black" font-size="12.426" font-family="Helvetica">
0.04521 
</text>
<text x="445.295" y="188.03" fill="black" font-size="12.426" font-family="Times">
&#8722;
</text>
<text x="442.455" y="188.03" fill="black" font-size="12.426" font-family="Helvetica">
 
</text>
<path d="M57.1929,293.463h 453.543" fill="none" stroke="black" stroke-width="2"/>
<text x="466.314" y="315.844" fill="black" font-size="10.9701" font-family="Helvetica">
Channels
</text>
<path d="M135.583,285.637v 7.82567" fill="none" stroke="black" stroke-width="2"/>
<path d="M163.58,289.55v 3.91283" fill="none" stroke="black" stroke-width="2"/>
<path d="M191.576,289.55v 3.91283" fill="none" stroke="black" stroke-width="2"/>
<path d="M219.573,289.55v 3.91283" fill="none" stroke="black" stroke-width="2"/>
<path d="M247.569,289.55v 3.91283" fill="none" stroke="black" stroke-width="2"/>
<path d="M275.566,285.637v 7.82567" fill="none" stroke="black" stroke-width="2"/>
<path d="M303.562,289.55v 3.91283" fill="none" stroke="black" stroke-width="2"/>
<path d="M331.559,289.55v 3.91283" fill="none" stroke="black" stroke-width="2"/>
<path d="M359.555,289.55v 3.91283" fill="none" stroke="black" stroke-width="2"/>
<path d="M387.552,289.55v 3.91283" fill="none" stroke="black" stroke-width="2"/>
<path d="M415.548,285.637v 7.82567" fill="none" stroke="black" stroke-width="2"/>
<path d="M135.583,285.637v 7.82567" fill="none" stroke="black" stroke-width="2"/>
<path d="M107.587,289.55v 3.91283" fill="none" stroke="black" stroke-width="2"/>
<path d="M79.5901,289.55v 3.91283" fill="none" stroke="black" stroke-width="2"/>
<path d="M415.548,285.637v 7.82567" fill="none" stroke="black" stroke-width="2"/>
<path d="M443.545,289.55v 3.91283" fill="none" stroke="black" stroke-width="2"/>
<path d="M471.541,289.55v 3.91283" fill="none" stroke="black" stroke-width="2"/>
<path d="M499.538,289.55v 3.91283" fill="none" stroke="black" stroke-width="2"/>
<text x="123.202" y="303.915" fill="black" font-size="10.9701" font-family="Helvetica">
1000
</text>
<text x="263.514" y="303.915" fill="black" font-size="10.9701" font-family="Helvetica">
1100
</text>
<text x="403.258" y="303.915" fill="black" font-size="10.9701" font-family="Helvetica">
1200
</text>
<path d="M57.1929,293.463v -260.856" fill="none" stroke="black" stroke-width="2"/>
<path d="M70.7992,293.463h -13.6063" fill="none" stroke="black" stroke-width="2"/>
<path d="M63.9961,283.662h -6.80315" fill="none" stroke="black" stroke-width="2"/>
<path d="M63.9961,273.861h -6.80315" fill="none" stroke="black" stroke-width="2"/>
<path d="M63.9961,264.06h -6.80315" fill="none" stroke="black" stroke-width="2"/>
<path d="M70.7992,254.259h -13.6063" fill="none" stroke="black" stroke-width="2"/>
<path d="M63.9961,244.458h -6.80315" fill="none" stroke="black" stroke-width="2"/>
<path d="M63.9961,234.657h -6.80315" fill="none" stroke="black" stroke-width="2"/>
<path d="M63.9961,224.856h -6.80315" fill="none" stroke="black" stroke-width="2"/>
<path d="M70.7992,215.055h -13.6063" fill="none" stroke="black" stroke-width="2"/>
<path d="M63.9961,205.255h -6.80315" fill="none" stroke="black" stroke-width="2"/>
<path d="M63.9961,195.454h -6.80315" fill="none" stroke="black" stroke-width="2"/>
<path d="M63.9961,185.653h -6.80315" fill="none" stroke="black" stroke-width="2"/>
<path d="M70.7992,175.852h -13.6063" fill="none" stroke="black" stroke-width="2"/>
<path d="M63.9961,166.051h -6.80315" fill="none" stroke="black" stroke-width="2"/>
<path d="M63.9961,156.25h -6.80315" fill="none" stroke="black" stroke-width="2"/>
<path d="M63.9961,146.449h -6.80315" fill="none" stroke="black" stroke-width="2"/>
<path d="M70.7992,136.648h -13.6063" fill="none" stroke="black" stroke-width="2"/>
<path d="M63.9961,126.848h -6.80315" fill="none" stroke="black" stroke-width="2"/>
<path d="M63.9961,117.047h -6.80315" fill="none" stroke="black" stroke-width="2"/>
<path d="M63.9961,107.246h -6.80315" fill="none" stroke="black" stroke-width="2"/>
<path d="M70.7992,97.445h -13.6063" fill="none" stroke="black" stroke-width="2"/>
<path d="M63.9961,87.6441h -6.80315" fill="none" stroke="black" stroke-width="2"/>
<path d="M63.9961,77.8432h -6.80315" fill="none" stroke="black" stroke-width="2"/>
<path d="M63.9961,68.0424h -6.80315" fill="none" stroke="black" stroke-width="2"/>
<path d="M70.7992,58.2415h -13.6063" fill="none" stroke="black" stroke-width="2"/>
<path d="M70.7992,58.2415h -13.6063" fill="none" stroke="black" stroke-width="2"/>
<path d="M63.9961,48.4406h -6.80315" fill="none" stroke="black" stroke-width="2"/>
<path d="M63.9961,38.6397h -6.80315" fill="none" stroke="black" stroke-width="2"/>
<text x="48.2175" y="297.098" fill="black" font-size="10.9701" font-family="Helvetica">
0
</text>
<text x="36.2881" y="257.902" fill="black" font-size="10.9701" font-family="Helvetica">
200
</text>
<text x="36.2881" y="218.705" fill="black" font-size="10.9701" font-family="Helvetica">
400
</text>
<text x="36.2881" y="179.509" fill="black" font-size="10.9701" font-family="Helvetica">
600
</text>
<text x="36.2881" y="140.312" fill="black" font-size="10.9701" font-family="Helvetica">
800
</text>
<text x="30.0394" y="101.116" fill="black" font-size="10.9701" font-family="Helvetica">
1000
</text>
<text x="30.0394" y="61.9191" fill="black" font-size="10.9701" font-family="Helvetica">
1200
</text>
<rect x="351.996" y="21.1945" width="204.094" height="169.556" fill="white"/>
<path d="M351.996,190.751h 204.094" fill="none" stroke="black" stroke-width="2"/>
<path d="M556.091,190.751v -169.556" fill="none" stroke="black" stroke-width="2"/>
<path d="M556.091,21.1945h -204.094" fill="none" stroke="black" stroke-width="2"/>
<path d="M351.996,21.1945v 169.556" fill="none" stroke="black" stroke-width="2"/>
<text x="372.583" y="31.2436" fill="black" font-size="12.426" font-family="Helvetica">
 / ndf 
</text>
<text x="368.038" y="27.8352" fill="black" font-size="8.45064" font-family="Helvetica">
2
</text>
<text x="361.79" y="31.2436" fill="black" font-size="12.426" font-family="Times">
&#0967;
</text>
<text x="484.492" y="32.3797" fill="black" font-size="12.426" font-family="Helvetica">
  1093 / 307
</text>
<text x="361.79" y="46.5814" fill="black" font-size="12.426" font-family="Helvetica">
1-Centroid 
</text>
<text x="528.801" y="46.5814" fill="black" font-size="12.426" font-family="Helvetica">
 0.1
</text>
<text x="521.984" y="46.5814" fill="black" font-size="12.426" font-family="Times">
&#0177;
</text>
<text x="486.764" y="46.5814" fill="black" font-size="12.426" font-family="Helvetica">
  1043 
</text>
<text x="361.79" y="61.351" fill="black" font-size="12.426" font-family="Helvetica">
1-FWHM   
</text>
<text x="520.28" y="60.783" fill="black" font-size="12.426" font-family="Helvetica">
 0.10
</text>
<text x="513.463" y="60.783" fill="black" font-size="12.426" font-family="Times">
&#0177;
</text>
<text x="478.243" y="60.783" fill="black" font-size="12.426" font-family="Helvetica">
 21.47 
</text>
<text x="361.79" y="74.9846" fill="black" font-size="12.426" font-family="Helvetica">
1-Counts 
</text>
<text x="493.581" y="74.9846" fill="black" font-size="12.426" font-family="Helvetica">
 1.72e+02
</text>
<text x="486.764" y="74.9846" fill="black" font-size="12.426" font-family="Times">
&#0177;
</text>
<text x="431.662" y="74.9846" fill="black" font-size="12.426" font-family="Helvetica">
 2.88e+04 
</text>
<text x="361.79" y="89.1862" fill="black" font-size="12.426" font-family="Helvetica">
2-Centroid 
</text>
<text x="528.801" y="89.1862" fill="black" font-size="12.426" font-family="Helvetica">
 0.1
</text>
<text x="521.984" y="89.1862" fill="black" font-size="12.426" font-family="Times">
&#0177;
</text>
<text x="486.764" y="89.1862" fill="black" font-size="12.426" font-family="Helvetica">
  1183 
</text>
<text x="361.79" y="103.956" fill="black" font-size="12.426" font-family="Helvetica">
2-FWHM   
</text>
<text x="520.28" y="103.388" fill="black" font-size="12.426" font-family="Helvetica">
 0.22
</text>
<text x="513.463" y="103.388" fill="black" font-size="12.426" font-family="Times">
&#0177;
</text>
<text x="478.243" y="103.388" fill="black" font-size="12.426" font-family="Helvetica">
 16.69 
</text>
<text x="361.79" y="117.021" fill="black" font-size="12.426" font-family="Helvetica">
2-Counts 
</text>
<text x="520.28" y="117.021" fill="black" font-size="12.426" font-family="Helvetica">
 78.0
</text>
<text x="513.463" y="117.021" fill="black" font-size="12.426" font-family="Times">
&#0177;
</text>
<text x="478.243" y="117.021" fill="black" font-size="12.426" font-family="Helvetica">
  5648 
</text>
<text x="361.79" y="131.223" fill="black" font-size="12.426" font-family="Helvetica">
3-Centroid 
</text>
<text x="527.096" y="131.223" fill="black" font-size="12.426" font-family="Helvetica">
 0.2
</text>
<text x="520.28" y="131.223" fill="black" font-size="12.426" font-family="Times">
&#0177;
</text>
<text x="485.06" y="131.223" fill="black" font-size="12.426" font-family="Helvetica">
  1213 
</text>
<text x="361.79" y="145.425" fill="black" font-size="12.426" font-family="Helvetica">
3-FWHM   
</text>
<text x="520.28" y="145.425" fill="black" font-size="12.426" font-family="Helvetica">
 0.49
</text>
<text x="513.463" y="145.425" fill="black" font-size="12.426" font-family="Times">
&#0177;
</text>
<text x="478.243" y="145.425" fill="black" font-size="12.426" font-family="Helvetica">
 16.03 
</text>
<text x="361.79" y="159.626" fill="black" font-size="12.426" font-family="Helvetica">
3-Counts 
</text>
<text x="520.28" y="159.626" fill="black" font-size="12.426" font-family="Helvetica">
 41.6
</text>
<text x="513.463" y="159.626" fill="black" font-size="12.426" font-family="Times">
&#0177;
</text>
<text x="478.243" y="159.626" fill="black" font-size="12.426" font-family="Helvetica">
  1337 
</text>
<text x="361.79" y="172.692" fill="black" font-size="12.426" font-family="Helvetica">
Intercept 
</text>
<text x="521.984" y="173.828" fill="black" font-size="12.426" font-family="Helvetica">
 2.11
</text>
<text x="515.167" y="173.828" fill="black" font-size="12.426" font-family="Times">
&#0177;
</text>
<text x="479.947" y="173.828" fill="black" font-size="12.426" font-family="Helvetica">
 57.57 
</text>
<text x="361.79" y="186.893" fill="black" font-size="12.426" font-family="Helvetica">
Slope    
</text>
<text x="502.102" y="188.03" fill="black" font-size="12.426" font-family="Helvetica">
 0.00181
</text>
<text x="495.285" y="188.03" fill="black" font-size="12.426" font-family="Times">
&#0177;
</text>
<text x="452.112" y="188.03" fill="black" font-size="12.426" font-family="Helvetica">
0.04521 
</text>
<text x="445.295" y="188.03" fill="black" font-size="12.426" font-family="Times">
&#8722;
</text>
<text x="442.455" y="188.03" fill="black" font-size="12.426" font-family="Helvetica">
 
</text>
<path d="M59.4606,293.463h 81.6378l 4.53543, -0.100629l 4.53543, -0.282904l 4.53543, -0.905535l 4.53543, -2.53162l 4.53543, -6.16554l 4.53543, -13.031l 4.53543, -23.7669l 4.53543, -37.0725l 4.53543, -48.6901l 4.53543, -52.2071l 4.53543, -42.3429l
 4.53543, -19.0655l 4.53543, 10.8606l 4.53543, 36.9566l 4.53543, 50.9066l 4.53543, 50.7904l 4.53543, 40.7794l 4.53543, 27.3889l 4.53543, 15.6772l 4.53543, 7.72742l 4.53543, 3.30101l 4.53543, 1.22725l 4.53543, 0.398254l 4.53543, 0.113042l 4.53543,
 0.0356452h 27.2126" fill="none" stroke="#00ff00" stroke-width="2"/>
<path d="M281.697,293.463h 222.236" fill="none" stroke="#00ff00" stroke-width="2"/>
<path d="M503.933,293.463h 4.53543" fill="none" stroke="#00ff00" stroke-width="2"/>
<path d="M59.4606,293.463h 222.236" fill="none" stroke="#00ff00" stroke-width="2"/>
<path d="M281.697,293.463h 68.0315l 4.53543, -0.0466752l 4.53543, -0.190714l 4.53543, -0.743112l 4.53543, -2.30838l 4.53543, -5.67017l 4.53543, -10.8603l 4.53543, -15.7871l 4.53543, -16.343l 4.53543, -9.60312l 4.53543, 2.32492l 4.53543, 12.9452l
 4.53543, 16.9113l 4.53543, 14.2342l 4.53543, 8.80159l 4.53543, 4.18197l 4.53543, 1.55894l 4.53543, 0.461143l 4.53543, 0.13324h 72.5669" fill="none" stroke="#00ff00" stroke-width="2"/>
<path d="M503.933,293.463h 4.53543" fill="none" stroke="#00ff00" stroke-width="2"/>
<path d="M59.4606,293.463h 222.236" fill="none" stroke="#00ff00" stroke-width="2"/>
<path d="M281.697,293.463h 113.386l 4.53543, -0.027106l 4.53543, -0.104286l 4.53543, -0.376846l 4.53543, -1.06053l 4.53543, -2.29529l 4.53543, -3.73085l 4.53543, -4.31738l 4.53543, -2.99716l 4.53543, 0.0185197l 4.53543, 3.02298l 4.53543, 4.3201l
 4.53543, 3.71727l 4.53543, 2.27927l 4.53543, 1.04998l 4.53543, 0.372051l 4.53543, 0.102681l 4.53543, 0.0266054h 31.748" fill="none" stroke="#00ff00" stroke-width="2"/>
<path d="M503.933,293.463h 4.53543" fill="none" stroke="#00ff00" stroke-width="2"/>
<text x="158.422" y="15.9058" fill="black" font-size="15.9159" font-family="Helvetica">
Labs_Xrays/Spr8Calibration/Ba.Spe
</text></svg>
