<?xml version="1.0" standalone="no"?>
<svg width="567.429" height="443.187" viewBox="0 0 567.429 443.187" xmlns="http://www.w3.org/2000/svg">
<title>
/home/ADF/jsm576/Labs_Xrays/Spr8Calibration/Mo.svg
</title>
<desc>
Creator: ROOT Version 6.06/08
CreationDate: Fri Mar  8 14:35:54 2019</desc>
<defs>
</defs>
<rect x="0.5" y="0" width="566.929" height="442.687" fill="white"/>
<rect x="57.1929" y="44.2687" width="453.543" height="354.15" fill="white"/>
<rect x="57.1929" y="44.2687" width="453.543" height="354.15" fill="none" stroke="black"/>
<rect x="57.1929" y="44.2687" width="453.543" height="354.15" fill="white"/>
<rect x="57.1929" y="44.2687" width="453.543" height="354.15" fill="none" stroke="black"/>
<path d="M57.1929,397.246h 4.0315v -0.502536h 2.01575v 0.41878h 2.01575v 0.083756h 2.01575v -0.460658h 2.01575v -0.083756h 2.01575v -0.335024h 2.01575v 0.167512h 2.01575v 0.251268h 2.01575v -0.963194h 2.01575v 0.586292h 2.01575v -0.041878h 2.01575v
 0.083756h 2.01575v 0.251268h 2.01575v -0.879438h 2.01575v 0.586292h 2.01575v -0.41878h 2.01575v 0.335024h 2.01575v -0.083756h 2.01575v -0.041878h 2.01575v -0.20939h 2.01575v -0.753804h 2.01575v 0.125634h 2.01575v 0.167512h 2.01575v -0.711926h
 2.01575v 0.502536h 2.01575v -0.544414h 2.01575v -0.335024h 2.01575v 0.41878h 2.01575v -0.251268h 2.01575v -1.67512h 2.01575v 0.125634h 2.01575v 0.376902h 2.01575v -0.167512h 2.01575v -1.3401h 2.01575v -0.586292h 2.01575v -0.502536h 2.01575v
 -1.88451h 2.01575v -1.50761h 2.01575v -2.34517h 2.01575v -1.42385h 2.01575v -6.82612h 2.01575v -7.16114h 2.01575v -8.66875h 2.01575v -13.0241h 2.01575v -16.4162h 2.01575v -16.2905h 2.01575v -23.7867h 2.01575v -27.5557h 2.01575v -28.5608h 2.01575v
 -31.1572h 2.01575v -32.7067h 2.01575v -29.524h 2.01575v -20.1852h 2.01575v -29.8171h 2.01575v -13.4847h 2.01575v -13.0659h 2.01575v -4.31344h 2.01575v 15.4949h 2.01575v 20.1852h 2.01575v 14.2385h 2.01575v 34.0468h 2.01575v 20.0596h 2.01575v 37.774h
 2.01575v 28.1839h 2.01575v 31.241h 2.01575v 25.5456h 2.01575v 26.0481h 2.01575v 22.1116h 2.01575v 14.4479h 2.01575v 13.6104h 2.01575v 8.83626h 2.01575v 7.91494h 2.01575v 6.32358h 2.01575v 2.88958h 2.01575v 1.3401h 2.01575v 2.51268h 2.01575v 1.92639h
 2.01575v 0.335024h 2.01575v -0.460658h 2.01575v 0.879438h 2.01575v -0.125634h 2.01575v 0.41878h 2.01575v -0.167512h 2.01575v 0.335024h 2.01575v -0.125634h 2.01575v -0.251268h 2.01575v 0.335024h 2.01575v -0.335024h 2.01575v 0.20939h 2.01575v
 -0.125634h 2.01575v -0.167512h 2.01575v 0.376902h 2.01575v -0.125634h 2.01575v -0.670048h 2.01575v 0.586292h 2.01575v -0.460658h 2.01575v -0.167512h 2.01575v 0.376902h 2.01575v -0.041878h 2.01575v -0.041878h 2.01575v -0.293146h 2.01575v -0.544414h
 2.01575v 0.41878h 2.01575v 0.335024h 2.01575v -0.586292h 2.01575v -0.41878h 2.01575v -0.125634h 2.01575v -0.251268h 2.01575v -0.251268h 2.01575v -1.92639h 2.01575v -0.83756h 2.01575v -1.80075h 2.01575v -0.879438h 2.01575v -1.63324h 2.01575v
 -5.10912h 2.01575v -2.42892h 2.01575v -4.39719h 2.01575v -6.53297h 2.01575v -4.60658h 2.01575v -9.7157h 2.01575v -6.6586h 2.01575v -6.78424h 2.01575v -4.98348h 2.01575v -2.26141h 2.01575v -9.7157h 2.01575v -1.63324h 2.01575v -0.921316h 2.01575v
 0.711926h 2.01575v 2.8477h 2.01575v 2.63831h 2.01575v 5.44414h 2.01575v 4.48095h 2.01575v 6.78424h 2.01575v 6.2817h 2.01575v 7.41241h 2.01575v 5.48602h 2.01575v 2.17766h 2.01575v 5.56978h 2.01575v 4.52283h 2.01575v 2.34517h 2.01575v 5.5279h 2.01575v
 0.376902h 2.01575v 3.14085h 2.01575v 0.753804h 2.01575v 2.88958h 2.01575v 0.753804h 2.01575v 1.84263h 2.01575v 0.20939h 2.01575v 1.25634h 2.01575v 1.08883h 2.01575v 0.335024h 2.01575v 0.335024h 2.01575v 0.62817h 2.01575v 0.293146h 2.01575v 0.125634h
 4.0315v 0.041878h 4.0315v 0.083756h 2.01575v 0.041878h 2.01575v -0.041878h 4.0315v 0.041878h 4.0315v -0.083756h 2.01575v 0.125634h 6.04724v -0.083756h 2.01575v 0.125634h 2.01575v -0.125634h 2.01575v 0.041878h 8.06299v 0.041878h 4.0315v -0.125634h
 2.01575v 0.083756h 2.01575v -0.041878h 2.01575v 0.125634h 2.01575v -0.083756h 2.01575v -0.041878h 2.01575v 0.041878h 2.01575v 0.041878h 2.01575v 0.041878h 2.01575v -0.083756h 4.0315v -0.083756h 2.01575v 0.125634h 4.0315v -0.083756h 2.01575v
 0.083756h 2.01575v -0.041878h 2.01575v -0.041878h 2.01575v 0.041878h 2.01575v -0.041878h 2.01575v 0.083756h 2.01575v -0.041878h 2.01575v -0.041878h 2.01575v 0.041878h 2.01575v 0.041878h 4.0315v -0.167512h 2.01575v 0.125634h 2.01575v -0.041878h
 2.01575v -0.041878h 2.01575v 0.125634h 2.01575v -0.083756h 2.01575v -0.041878h 2.01575v 0.083756h 2.01575v 0.041878h 6.04724v -0.041878h 2.01575v 0.041878h 2.01575v -0.083756h 2.01575v 0.083756h 2.01575v 0.041878h 2.01575v -0.125634h 4.0315v
 -0.041878h 2.01575v 0.125634h 2.01575" fill="none" stroke="#ff0000" stroke-width="2"/>
<path d="M59.4606,395.768l 4.53543, 0.0342775l 4.53543, 0.0342775l 4.53543, 0.0342775l 4.53543, 0.0342775l 4.53543, 0.0342775l 4.53543, 0.0342775l 4.53543, 0.0342772l 4.53543, 0.0342746l 4.53543, 0.0342549l 4.53543, 0.0341216l 4.53543, 0.0333304l
 4.53543, 0.0292124l 4.53543, 0.0104443l 4.53543, -0.0643158l 4.53543, -0.323913l 4.53543, -1.10696l 4.53543, -3.1486l 4.53543, -7.71645l 4.53543, -16.3856l 4.53543, -30.0656l 4.53543, -47.3077l 4.53543, -62.929l 4.53543, -68.7985l 4.53543, -57.7732l
 4.53543, -28.9821l 4.53543, 9.7171l 4.53543, 45.0429l 4.53543, 65.5968l 4.53543, 67.7539l 4.53543, 56.0393l 4.53543, 38.7368l 4.53543, 22.8359l 4.53543, 11.6141l 4.53543, 5.13784l 4.53543, 1.99488l 4.53543, 0.692797l 4.53543, 0.228079l 4.53543,
 0.0843294l 4.53543, 0.0456137l 4.53543, 0.0364279l 4.53543, 0.0341649l 4.53543, 0.0323151l 4.53543, 0.0269909l 4.53543, 0.0103641l 4.53543, -0.0369779l 4.53543, -0.158522l 4.53543, -0.438891l 4.53543, -1.01741l 4.53543, -2.07844" fill="none"
 stroke="#0000ff" stroke-width="2"/>
<path d="M281.697,393.512l 4.53543, -3.791l 4.53543, -6.18314l 4.53543, -8.98278l 4.53543, -11.5219l 4.53543, -12.8315l 4.53543, -11.9841l 4.53543, -8.57552l 4.53543, -3.07316l 4.53543, 3.23123l 4.53543, 8.71084l 4.53543, 12.0833l 4.53543, 12.8946l
 4.53543, 11.5599l 4.53543, 9.01045l 4.53543, 6.21291l 4.53543, 3.8296l 4.53543, 2.12724l 4.53543, 1.07458l 4.53543, 0.501644l 4.53543, 0.224442l 4.53543, 0.10446l 4.53543, 0.0577991l 4.53543, 0.0414428l 4.53543, 0.0362629l 4.53543, 0.0347782l
 4.53543, 0.0343925l 4.53543, 0.0343016l 4.53543, 0.0453865h 95.2441" fill="none" stroke="#0000ff" stroke-width="2"/>
<path d="M503.933,398.418h 4.53543" fill="none" stroke="#0000ff" stroke-width="2"/>
<rect x="351.996" y="28.7747" width="204.094" height="177.075" fill="white"/>
<path d="M351.996,205.85h 204.094" fill="none" stroke="black" stroke-width="2"/>
<path d="M556.091,205.85v -177.075" fill="none" stroke="black" stroke-width="2"/>
<path d="M556.091,28.7747h -204.094" fill="none" stroke="black" stroke-width="2"/>
<path d="M351.996,28.7747v 177.075" fill="none" stroke="black" stroke-width="2"/>
<text x="373.226" y="42.2181" fill="black" font-size="12.1718" font-family="Helvetica">
 / ndf 
</text>
<text x="368.401" y="38.5994" fill="black" font-size="8.28119" font-family="Helvetica">
2
</text>
<text x="361.163" y="42.2181" fill="black" font-size="12.1718" font-family="Times">
&#0967;
</text>
<text x="482.993" y="43.4244" fill="black" font-size="12.1718" font-family="Helvetica">
  1363 / 213
</text>
<text x="361.163" y="62.7241" fill="black" font-size="12.1718" font-family="Helvetica">
1-Centroid 
</text>
<text x="526.417" y="62.7241" fill="black" font-size="12.1718" font-family="Helvetica">
 0.0
</text>
<text x="519.18" y="62.7241" fill="black" font-size="12.1718" font-family="Times">
&#0177;
</text>
<text x="487.818" y="62.7241" fill="black" font-size="12.1718" font-family="Helvetica">
   568 
</text>
<text x="361.163" y="83.23" fill="black" font-size="12.1718" font-family="Helvetica">
1-FWHM   
</text>
<text x="519.18" y="82.0238" fill="black" font-size="12.1718" font-family="Helvetica">
 0.03
</text>
<text x="511.942" y="82.0238" fill="black" font-size="12.1718" font-family="Times">
&#0177;
</text>
<text x="476.962" y="82.0238" fill="black" font-size="12.1718" font-family="Helvetica">
 15.03 
</text>
<text x="361.163" y="101.324" fill="black" font-size="12.1718" font-family="Helvetica">
1-Counts 
</text>
<text x="485.405" y="101.324" fill="black" font-size="12.1718" font-family="Helvetica">
 3.568e+02
</text>
<text x="478.168" y="101.324" fill="black" font-size="12.1718" font-family="Times">
&#0177;
</text>
<text x="415.444" y="101.324" fill="black" font-size="12.1718" font-family="Helvetica">
 1.249e+05 
</text>
<text x="361.163" y="121.829" fill="black" font-size="12.1718" font-family="Helvetica">
2-Centroid 
</text>
<text x="526.417" y="121.829" fill="black" font-size="12.1718" font-family="Helvetica">
 0.0
</text>
<text x="519.18" y="121.829" fill="black" font-size="12.1718" font-family="Times">
&#0177;
</text>
<text x="484.199" y="121.829" fill="black" font-size="12.1718" font-family="Helvetica">
 639.4 
</text>
<text x="361.163" y="142.335" fill="black" font-size="12.1718" font-family="Helvetica">
2-FWHM   
</text>
<text x="519.18" y="141.129" fill="black" font-size="12.1718" font-family="Helvetica">
 0.09
</text>
<text x="511.942" y="141.129" fill="black" font-size="12.1718" font-family="Times">
&#0177;
</text>
<text x="476.962" y="141.129" fill="black" font-size="12.1718" font-family="Helvetica">
 17.56 
</text>
<text x="361.163" y="160.429" fill="black" font-size="12.1718" font-family="Helvetica">
2-Counts 
</text>
<text x="485.405" y="160.429" fill="black" font-size="12.1718" font-family="Helvetica">
 1.808e+02
</text>
<text x="478.168" y="160.429" fill="black" font-size="12.1718" font-family="Times">
&#0177;
</text>
<text x="415.444" y="160.429" fill="black" font-size="12.1718" font-family="Helvetica">
 3.183e+04 
</text>
<text x="361.163" y="179.729" fill="black" font-size="12.1718" font-family="Helvetica">
Intercept 
</text>
<text x="526.417" y="180.935" fill="black" font-size="12.1718" font-family="Helvetica">
 5.0
</text>
<text x="519.18" y="180.935" fill="black" font-size="12.1718" font-family="Times">
&#0177;
</text>
<text x="484.199" y="180.935" fill="black" font-size="12.1718" font-family="Helvetica">
 249.2 
</text>
<text x="361.163" y="199.028" fill="black" font-size="12.1718" font-family="Helvetica">
Slope    
</text>
<text x="505.911" y="200.235" fill="black" font-size="12.1718" font-family="Helvetica">
 0.0076
</text>
<text x="498.674" y="200.235" fill="black" font-size="12.1718" font-family="Times">
&#0177;
</text>
<text x="460.074" y="200.235" fill="black" font-size="12.1718" font-family="Helvetica">
0.3638 
</text>
<text x="452.837" y="200.235" fill="black" font-size="12.1718" font-family="Times">
&#8722;
</text>
<text x="450.425" y="200.235" fill="black" font-size="12.1718" font-family="Helvetica">
 
</text>
<path d="M57.1929,398.418h 453.543" fill="none" stroke="black" stroke-width="2"/>
<text x="451.631" y="428.212" fill="black" font-size="14.7147" font-family="Helvetica">
Channels
</text>
<path d="M137.823,387.794v 10.6245" fill="none" stroke="black" stroke-width="2"/>
<path d="M157.98,393.106v 5.31225" fill="none" stroke="black" stroke-width="2"/>
<path d="M178.138,393.106v 5.31225" fill="none" stroke="black" stroke-width="2"/>
<path d="M198.295,393.106v 5.31225" fill="none" stroke="black" stroke-width="2"/>
<path d="M218.453,393.106v 5.31225" fill="none" stroke="black" stroke-width="2"/>
<path d="M238.61,387.794v 10.6245" fill="none" stroke="black" stroke-width="2"/>
<path d="M258.768,393.106v 5.31225" fill="none" stroke="black" stroke-width="2"/>
<path d="M278.925,393.106v 5.31225" fill="none" stroke="black" stroke-width="2"/>
<path d="M299.083,393.106v 5.31225" fill="none" stroke="black" stroke-width="2"/>
<path d="M319.24,393.106v 5.31225" fill="none" stroke="black" stroke-width="2"/>
<path d="M339.398,387.794v 10.6245" fill="none" stroke="black" stroke-width="2"/>
<path d="M359.555,393.106v 5.31225" fill="none" stroke="black" stroke-width="2"/>
<path d="M379.713,393.106v 5.31225" fill="none" stroke="black" stroke-width="2"/>
<path d="M399.87,393.106v 5.31225" fill="none" stroke="black" stroke-width="2"/>
<path d="M420.028,393.106v 5.31225" fill="none" stroke="black" stroke-width="2"/>
<path d="M440.185,387.794v 10.6245" fill="none" stroke="black" stroke-width="2"/>
<path d="M137.823,387.794v 10.6245" fill="none" stroke="black" stroke-width="2"/>
<path d="M117.665,393.106v 5.31225" fill="none" stroke="black" stroke-width="2"/>
<path d="M97.5079,393.106v 5.31225" fill="none" stroke="black" stroke-width="2"/>
<path d="M77.3504,393.106v 5.31225" fill="none" stroke="black" stroke-width="2"/>
<path d="M57.1929,393.106v 5.31225" fill="none" stroke="black" stroke-width="2"/>
<path d="M440.185,387.794v 10.6245" fill="none" stroke="black" stroke-width="2"/>
<path d="M460.343,393.106v 5.31225" fill="none" stroke="black" stroke-width="2"/>
<path d="M480.5,393.106v 5.31225" fill="none" stroke="black" stroke-width="2"/>
<path d="M500.657,393.106v 5.31225" fill="none" stroke="black" stroke-width="2"/>
<text x="124.742" y="412.531" fill="black" font-size="14.7147" font-family="Helvetica">
550
</text>
<text x="226.065" y="412.531" fill="black" font-size="14.7147" font-family="Helvetica">
600
</text>
<text x="326.183" y="412.531" fill="black" font-size="14.7147" font-family="Helvetica">
650
</text>
<text x="427.506" y="412.531" fill="black" font-size="14.7147" font-family="Helvetica">
700
</text>
<path d="M57.1929,398.418v -354.15" fill="none" stroke="black" stroke-width="2"/>
<path d="M70.7992,398.418h -13.6063" fill="none" stroke="black" stroke-width="2"/>
<path d="M63.9961,390.043h -6.80315" fill="none" stroke="black" stroke-width="2"/>
<path d="M63.9961,381.667h -6.80315" fill="none" stroke="black" stroke-width="2"/>
<path d="M63.9961,373.292h -6.80315" fill="none" stroke="black" stroke-width="2"/>
<path d="M63.9961,364.916h -6.80315" fill="none" stroke="black" stroke-width="2"/>
<path d="M70.7992,356.54h -13.6063" fill="none" stroke="black" stroke-width="2"/>
<path d="M63.9961,348.165h -6.80315" fill="none" stroke="black" stroke-width="2"/>
<path d="M63.9961,339.789h -6.80315" fill="none" stroke="black" stroke-width="2"/>
<path d="M63.9961,331.414h -6.80315" fill="none" stroke="black" stroke-width="2"/>
<path d="M63.9961,323.038h -6.80315" fill="none" stroke="black" stroke-width="2"/>
<path d="M70.7992,314.662h -13.6063" fill="none" stroke="black" stroke-width="2"/>
<path d="M63.9961,306.287h -6.80315" fill="none" stroke="black" stroke-width="2"/>
<path d="M63.9961,297.911h -6.80315" fill="none" stroke="black" stroke-width="2"/>
<path d="M63.9961,289.536h -6.80315" fill="none" stroke="black" stroke-width="2"/>
<path d="M63.9961,281.16h -6.80315" fill="none" stroke="black" stroke-width="2"/>
<path d="M70.7992,272.784h -13.6063" fill="none" stroke="black" stroke-width="2"/>
<path d="M63.9961,264.409h -6.80315" fill="none" stroke="black" stroke-width="2"/>
<path d="M63.9961,256.033h -6.80315" fill="none" stroke="black" stroke-width="2"/>
<path d="M63.9961,247.658h -6.80315" fill="none" stroke="black" stroke-width="2"/>
<path d="M63.9961,239.282h -6.80315" fill="none" stroke="black" stroke-width="2"/>
<path d="M70.7992,230.906h -13.6063" fill="none" stroke="black" stroke-width="2"/>
<path d="M63.9961,222.531h -6.80315" fill="none" stroke="black" stroke-width="2"/>
<path d="M63.9961,214.155h -6.80315" fill="none" stroke="black" stroke-width="2"/>
<path d="M63.9961,205.78h -6.80315" fill="none" stroke="black" stroke-width="2"/>
<path d="M63.9961,197.404h -6.80315" fill="none" stroke="black" stroke-width="2"/>
<path d="M70.7992,189.028h -13.6063" fill="none" stroke="black" stroke-width="2"/>
<path d="M63.9961,180.653h -6.80315" fill="none" stroke="black" stroke-width="2"/>
<path d="M63.9961,172.277h -6.80315" fill="none" stroke="black" stroke-width="2"/>
<path d="M63.9961,163.902h -6.80315" fill="none" stroke="black" stroke-width="2"/>
<path d="M63.9961,155.526h -6.80315" fill="none" stroke="black" stroke-width="2"/>
<path d="M70.7992,147.15h -13.6063" fill="none" stroke="black" stroke-width="2"/>
<path d="M63.9961,138.775h -6.80315" fill="none" stroke="black" stroke-width="2"/>
<path d="M63.9961,130.399h -6.80315" fill="none" stroke="black" stroke-width="2"/>
<path d="M63.9961,122.024h -6.80315" fill="none" stroke="black" stroke-width="2"/>
<path d="M63.9961,113.648h -6.80315" fill="none" stroke="black" stroke-width="2"/>
<path d="M70.7992,105.272h -13.6063" fill="none" stroke="black" stroke-width="2"/>
<path d="M63.9961,96.8968h -6.80315" fill="none" stroke="black" stroke-width="2"/>
<path d="M63.9961,88.5212h -6.80315" fill="none" stroke="black" stroke-width="2"/>
<path d="M63.9961,80.1456h -6.80315" fill="none" stroke="black" stroke-width="2"/>
<path d="M63.9961,71.77h -6.80315" fill="none" stroke="black" stroke-width="2"/>
<path d="M70.7992,63.3944h -13.6063" fill="none" stroke="black" stroke-width="2"/>
<path d="M70.7992,63.3944h -13.6063" fill="none" stroke="black" stroke-width="2"/>
<path d="M63.9961,55.0188h -6.80315" fill="none" stroke="black" stroke-width="2"/>
<path d="M63.9961,46.6432h -6.80315" fill="none" stroke="black" stroke-width="2"/>
<text x="45.1306" y="404.088" fill="black" font-size="14.7147" font-family="Helvetica">
0
</text>
<text x="21.0059" y="361.87" fill="black" font-size="14.7147" font-family="Helvetica">
1000
</text>
<text x="21.0059" y="319.652" fill="black" font-size="14.7147" font-family="Helvetica">
2000
</text>
<text x="21.0059" y="278.64" fill="black" font-size="14.7147" font-family="Helvetica">
3000
</text>
<text x="21.0059" y="236.422" fill="black" font-size="14.7147" font-family="Helvetica">
4000
</text>
<text x="21.0059" y="194.203" fill="black" font-size="14.7147" font-family="Helvetica">
5000
</text>
<text x="21.0059" y="151.985" fill="black" font-size="14.7147" font-family="Helvetica">
6000
</text>
<text x="21.0059" y="110.973" fill="black" font-size="14.7147" font-family="Helvetica">
7000
</text>
<text x="21.0059" y="68.7552" fill="black" font-size="14.7147" font-family="Helvetica">
8000
</text>
<rect x="351.996" y="28.7747" width="204.094" height="177.075" fill="white"/>
<path d="M351.996,205.85h 204.094" fill="none" stroke="black" stroke-width="2"/>
<path d="M556.091,205.85v -177.075" fill="none" stroke="black" stroke-width="2"/>
<path d="M556.091,28.7747h -204.094" fill="none" stroke="black" stroke-width="2"/>
<path d="M351.996,28.7747v 177.075" fill="none" stroke="black" stroke-width="2"/>
<text x="373.226" y="42.2181" fill="black" font-size="12.1718" font-family="Helvetica">
 / ndf 
</text>
<text x="368.401" y="38.5994" fill="black" font-size="8.28119" font-family="Helvetica">
2
</text>
<text x="361.163" y="42.2181" fill="black" font-size="12.1718" font-family="Times">
&#0967;
</text>
<text x="482.993" y="43.4244" fill="black" font-size="12.1718" font-family="Helvetica">
  1363 / 213
</text>
<text x="361.163" y="62.7241" fill="black" font-size="12.1718" font-family="Helvetica">
1-Centroid 
</text>
<text x="526.417" y="62.7241" fill="black" font-size="12.1718" font-family="Helvetica">
 0.0
</text>
<text x="519.18" y="62.7241" fill="black" font-size="12.1718" font-family="Times">
&#0177;
</text>
<text x="487.818" y="62.7241" fill="black" font-size="12.1718" font-family="Helvetica">
   568 
</text>
<text x="361.163" y="83.23" fill="black" font-size="12.1718" font-family="Helvetica">
1-FWHM   
</text>
<text x="519.18" y="82.0238" fill="black" font-size="12.1718" font-family="Helvetica">
 0.03
</text>
<text x="511.942" y="82.0238" fill="black" font-size="12.1718" font-family="Times">
&#0177;
</text>
<text x="476.962" y="82.0238" fill="black" font-size="12.1718" font-family="Helvetica">
 15.03 
</text>
<text x="361.163" y="101.324" fill="black" font-size="12.1718" font-family="Helvetica">
1-Counts 
</text>
<text x="485.405" y="101.324" fill="black" font-size="12.1718" font-family="Helvetica">
 3.568e+02
</text>
<text x="478.168" y="101.324" fill="black" font-size="12.1718" font-family="Times">
&#0177;
</text>
<text x="415.444" y="101.324" fill="black" font-size="12.1718" font-family="Helvetica">
 1.249e+05 
</text>
<text x="361.163" y="121.829" fill="black" font-size="12.1718" font-family="Helvetica">
2-Centroid 
</text>
<text x="526.417" y="121.829" fill="black" font-size="12.1718" font-family="Helvetica">
 0.0
</text>
<text x="519.18" y="121.829" fill="black" font-size="12.1718" font-family="Times">
&#0177;
</text>
<text x="484.199" y="121.829" fill="black" font-size="12.1718" font-family="Helvetica">
 639.4 
</text>
<text x="361.163" y="142.335" fill="black" font-size="12.1718" font-family="Helvetica">
2-FWHM   
</text>
<text x="519.18" y="141.129" fill="black" font-size="12.1718" font-family="Helvetica">
 0.09
</text>
<text x="511.942" y="141.129" fill="black" font-size="12.1718" font-family="Times">
&#0177;
</text>
<text x="476.962" y="141.129" fill="black" font-size="12.1718" font-family="Helvetica">
 17.56 
</text>
<text x="361.163" y="160.429" fill="black" font-size="12.1718" font-family="Helvetica">
2-Counts 
</text>
<text x="485.405" y="160.429" fill="black" font-size="12.1718" font-family="Helvetica">
 1.808e+02
</text>
<text x="478.168" y="160.429" fill="black" font-size="12.1718" font-family="Times">
&#0177;
</text>
<text x="415.444" y="160.429" fill="black" font-size="12.1718" font-family="Helvetica">
 3.183e+04 
</text>
<text x="361.163" y="179.729" fill="black" font-size="12.1718" font-family="Helvetica">
Intercept 
</text>
<text x="526.417" y="180.935" fill="black" font-size="12.1718" font-family="Helvetica">
 5.0
</text>
<text x="519.18" y="180.935" fill="black" font-size="12.1718" font-family="Times">
&#0177;
</text>
<text x="484.199" y="180.935" fill="black" font-size="12.1718" font-family="Helvetica">
 249.2 
</text>
<text x="361.163" y="199.028" fill="black" font-size="12.1718" font-family="Helvetica">
Slope    
</text>
<text x="505.911" y="200.235" fill="black" font-size="12.1718" font-family="Helvetica">
 0.0076
</text>
<text x="498.674" y="200.235" fill="black" font-size="12.1718" font-family="Times">
&#0177;
</text>
<text x="460.074" y="200.235" fill="black" font-size="12.1718" font-family="Helvetica">
0.3638 
</text>
<text x="452.837" y="200.235" fill="black" font-size="12.1718" font-family="Times">
&#8722;
</text>
<text x="450.425" y="200.235" fill="black" font-size="12.1718" font-family="Helvetica">
 
</text>
<path d="M59.4606,398.418h 58.9606l 4.53543, -0.128621l 4.53543, -0.358191l 4.53543, -1.14124l 4.53543, -3.18288l 4.53543, -7.75073l 4.53543, -16.4199l 4.53543, -30.0999l 4.53543, -47.342l 4.53543, -62.9632l 4.53543, -68.8328l 4.53543, -57.8075l
 4.53543, -29.0164l 4.53543, 9.68282l 4.53543, 45.0087l 4.53543, 65.5625l 4.53543, 67.7197l 4.53543, 56.005l 4.53543, 38.7025l 4.53543, 22.8016l 4.53543, 11.5798l 4.53543, 5.10356l 4.53543, 1.9606l 4.53543, 0.65852l 4.53543, 0.193802l 4.53543,
 0.0641549h 49.8898" fill="none" stroke="#00ff00" stroke-width="2"/>
<path d="M281.697,398.418h 222.236" fill="none" stroke="#00ff00" stroke-width="2"/>
<path d="M503.933,398.418h 4.53543" fill="none" stroke="#00ff00" stroke-width="2"/>
<path d="M59.4606,398.418h 199.559l 4.53543, -0.105148l 4.53543, -0.192799l 4.53543, -0.473168l 4.53543, -1.05169l 4.53543, -2.11272" fill="none" stroke="#00ff00" stroke-width="2"/>
<path d="M281.697,394.483l 4.53543, -3.82528l 4.53543, -6.21742l 4.53543, -9.01706l 4.53543, -11.5562l 4.53543, -12.8657l 4.53543, -12.0184l 4.53543, -8.6098l 4.53543, -3.10744l 4.53543, 3.19696l 4.53543, 8.67656l 4.53543, 12.049l 4.53543, 12.8603l
 4.53543, 11.5256l 4.53543, 8.97617l 4.53543, 6.17864l 4.53543, 3.79532l 4.53543, 2.09296l 4.53543, 1.04031l 4.53543, 0.467367l 4.53543, 0.190164l 4.53543, 0.1035h 126.992" fill="none" stroke="#00ff00" stroke-width="2"/>
<path d="M503.933,398.418h 4.53543" fill="none" stroke="#00ff00" stroke-width="2"/>
<text x="148.867" y="19.2997" fill="black" font-size="16.9918" font-family="Helvetica">
Labs_Xrays/Spr8Calibration/Mo.Spe
</text></svg>
