<?xml version="1.0" standalone="no"?>
<svg width="567.429" height="364.625" viewBox="0 0 567.429 364.625" xmlns="http://www.w3.org/2000/svg">
<title>
/home/ADF/jsm576/Labs_Xrays/Spr8Calibration/Rb_lowE.svg
</title>
<desc>
Creator: ROOT Version 6.06/08
CreationDate: Fri Mar  8 12:03:36 2019</desc>
<defs>
</defs>
<rect x="0.5" y="0" width="566.929" height="364.125" fill="white"/>
<rect x="57.1929" y="36.4125" width="453.543" height="291.3" fill="white"/>
<rect x="57.1929" y="36.4125" width="453.543" height="291.3" fill="none" stroke="black"/>
<rect x="57.1929" y="36.4125" width="453.543" height="291.3" fill="white"/>
<rect x="57.1929" y="36.4125" width="453.543" height="291.3" fill="none" stroke="black"/>
<path d="M57.1929,325.744h 2.83465v 0.437585h 2.83465v -1.75034h 2.83465v 2.18792h 2.83465v 0.437585h 2.83465v -1.31275h 2.83465v -0.437585h 2.83465v 0.87517h 2.83465v -1.09396h 2.83465v 1.09396h 2.83465v -0.656377h 2.83465v 0.656377h 2.83465v
 -1.31275h 2.83465v 1.31275h 5.66929v 0.218792h 2.83465v -1.96913h 2.83465v 1.31275h 5.66929v 0.87517h 2.83465v -1.53155h 2.83465v 1.53155h 2.83465v -1.75034h 2.83465v 1.96913h 2.83465v -2.18792h 2.83465v -0.218792h 2.83465v 0.218792h 2.83465v
 -0.656377h 2.83465v -0.656377h 2.83465v 1.75034h 2.83465v -0.656377h 2.83465v -2.8443h 2.83465v -0.437585h 2.83465v -0.656377h 2.83465v -4.81343h 2.83465v 1.75034h 2.83465v -10.502h 2.83465v -5.25102h 2.83465v -6.78256h 2.83465v -17.7222h 2.83465v
 -15.7531h 2.83465v -26.2551h 2.83465v -18.8161h 2.83465v -14.4403h 2.83465v -26.2551h 2.83465v -28.2242h 2.83465v -30.8497h 2.83465v -26.6927h 2.83465v -15.3155h 2.83465v -10.502h 2.83465v -13.7839h 2.83465v 18.1598h 2.83465v -6.78256h 2.83465v
 15.9718h 2.83465v 28.8806h 2.83465v 32.8189h 2.83465v 10.9396h 2.83465v 40.4766h 2.83465v 20.7853h 2.83465v 26.4739h 2.83465v 17.941h 2.83465v 24.0672h 2.83465v 10.0644h 2.83465v 9.18928h 2.83465v 9.18928h 2.83465v 6.56377h 2.83465v 1.09396h
 2.83465v 5.03222h 2.83465v 2.8443h 2.83465v 1.31275h 2.83465v -0.437585h 2.83465v 1.96913h 5.66929v -1.31275h 2.83465v 0.218792h 2.83465v -0.656377h 2.83465v 1.09396h 2.83465v -1.09396h 2.83465v 0.437585h 2.83465v 0.437585h 2.83465v -1.09396h
 2.83465v 0.656377h 2.83465v 0.87517h 2.83465v -0.656377h 2.83465v -1.75034h 2.83465v -0.437585h 2.83465v 0.656377h 2.83465v -3.06309h 2.83465v -0.218792h 2.83465v -2.18792h 2.83465v -3.50068h 2.83465v -3.06309h 2.83465v -3.28189h 2.83465v -2.40672h
 2.83465v -3.28189h 2.83465v -8.75169h 2.83465v -4.59464h 2.83465v -8.5329h 2.83465v -4.37585h 2.83465v -6.34498h 2.83465v -5.46981h 2.83465v 0.218792h 2.83465v -6.34498h 2.83465v 11.596h 2.83465v -5.6886h 2.83465v 4.37585h 2.83465v 4.37585h 2.83465v
 6.56377h 2.83465v 4.59464h 2.83465v 10.9396h 2.83465v 4.81343h 2.83465v 4.15706h 2.83465v 6.34498h 2.83465v 4.37585h 2.83465v 0.656377h 2.83465v 2.40672h 2.83465v 0.218792h 2.83465v 2.18792h 2.83465v 2.18792h 2.83465v 1.09396h 2.83465v 0.656377h
 2.83465v 0.218792h 2.83465v 0.87517h 5.66929v 1.09396h 5.66929v 0.218792h 2.83465v 0.437585h 2.83465v -0.87517h 5.66929v 0.437585h 5.66929v -0.218792h 2.83465v -0.218792h 2.83465v 0.437585h 2.83465v 0.218792h 5.66929v -0.87517h 2.83465v -0.437585h
 2.83465v 1.09396h 2.83465v 0.218792h 8.50394v -0.437585h 17.0079v -0.218792h 2.83465v 0.437585h 8.50394v 0.218792h 2.83465v -0.218792h 2.83465v 0.437585h 2.83465v -0.437585h 2.83465v -0.218792h 5.66929v 0.437585h 2.83465" fill="none"
 stroke="#ff0000" stroke-width="2"/>
<path d="M59.4606,325.741l 4.53543, 0.0168511l 4.53543, 0.0168511l 4.53543, 0.0168511l 4.53543, 0.0168511l 4.53543, 0.0168511l 4.53543, 0.016851l 4.53543, 0.0168509l 4.53543, 0.01685l 4.53543, 0.0168457l 4.53543, 0.0168263l 4.53543, 0.016745l
 4.53543, 0.0164294l 4.53543, 0.0152934l 4.53543, 0.0115065l 4.53543, -0.000174126l 4.53543, -0.0334826l 4.53543, -0.121188l 4.53543, -0.334124l 4.53543, -0.809888l 4.53543, -1.78573l 4.53543, -3.61701l 4.53543, -6.74634l 4.53543, -11.5816l 4.53543,
 -18.2624l 4.53543, -26.3571l 4.53543, -34.6247l 4.53543, -41.0333l 4.53543, -43.1892l 4.53543, -39.145l 4.53543, -28.303l 4.53543, -11.9673l 4.53543, 6.82316l 4.53543, 24.2104l 4.53543, 36.8076l 4.53543, 42.7726l 4.53543, 42.1998l 4.53543, 36.7431l
 4.53543, 28.7642l 4.53543, 20.4584l 4.53543, 13.3062l 4.53543, 7.94918l 4.53543, 4.37672l 4.53543, 2.22806l 4.53543, 1.0531l 4.53543, 0.465439l 4.53543, 0.194385l 4.53543, 0.0755126l 4.53543, 0.0178068l 4.53543, -0.0296987" fill="none"
 stroke="#0000ff" stroke-width="2"/>
<path d="M281.697,326.474l 4.53543, -0.103521l 4.53543, -0.243102l 4.53543, -0.501127l 4.53543, -0.946036l 4.53543, -1.65348l 4.53543, -2.68301l 4.53543, -4.04021l 4.53543, -5.63286l 4.53543, -7.24023l 4.53543, -8.52019l 4.53543, -9.07178l 4.53543,
 -8.54957l 4.53543, -6.79615l 4.53543, -3.938l 4.53543, -0.39373l 4.53543, 3.22354l 4.53543, 6.27947l 4.53543, 8.30031l 4.53543, 9.09157l 4.53543, 8.75344l 4.53543, 7.60063l 4.53543, 6.03299l 4.53543, 4.41326l 4.53543, 2.99152l 4.53543, 1.88686l
 4.53543, 1.11176l 4.53543, 0.61503l 4.53543, 0.322198l 4.53543, 0.162641l 4.53543, 0.0820134l 4.53543, 0.0441342l 4.53543, 0.0275579l 4.53543, 0.020791l 4.53543, 0.0182111l 4.53543, 0.0172916l 4.53543, 0.016985l 4.53543, 0.0168893l 4.53543,
 0.0168613l 4.53543, 0.0168537l 4.53543, 0.0168517l 4.53543, 0.0168512l 4.53543, 0.0168511l 4.53543, 0.0168511l 4.53543, 0.0168511l 4.53543, 0.0168511l 4.53543, 0.0168511l 4.53543, 0.0168511l 4.53543, 0.0168511l 4.53543, 0.0168511" fill="none"
 stroke="#0000ff" stroke-width="2"/>
<path d="M503.933,327.392l 4.53543, 0.0168511" fill="none" stroke="#0000ff" stroke-width="2"/>
<rect x="351.996" y="23.6681" width="204.094" height="145.65" fill="white"/>
<path d="M351.996,169.318h 204.094" fill="none" stroke="black" stroke-width="2"/>
<path d="M556.091,169.318v -145.65" fill="none" stroke="black" stroke-width="2"/>
<path d="M556.091,23.6681h -204.094" fill="none" stroke="black" stroke-width="2"/>
<path d="M351.996,23.6681v 145.65" fill="none" stroke="black" stroke-width="2"/>
<text x="372.691" y="34.5689" fill="black" font-size="11.9698" font-family="Helvetica">
 / ndf 
</text>
<text x="368.082" y="31.112" fill="black" font-size="8.14656" font-family="Helvetica">
2
</text>
<text x="361.168" y="34.5689" fill="black" font-size="11.9698" font-family="Times">
&#0967;
</text>
<text x="485.616" y="35.7211" fill="black" font-size="11.9698" font-family="Helvetica">
 189.9 / 150
</text>
<text x="361.168" y="51.8533" fill="black" font-size="11.9698" font-family="Helvetica">
1-Centroid 
</text>
<text x="527.099" y="51.8533" fill="black" font-size="11.9698" font-family="Helvetica">
 0.0
</text>
<text x="520.185" y="51.8533" fill="black" font-size="11.9698" font-family="Times">
&#0177;
</text>
<text x="486.768" y="51.8533" fill="black" font-size="11.9698" font-family="Helvetica">
 435.6 
</text>
<text x="361.168" y="69.1377" fill="black" font-size="11.9698" font-family="Helvetica">
1-FWHM   
</text>
<text x="520.185" y="67.9854" fill="black" font-size="11.9698" font-family="Helvetica">
 0.08
</text>
<text x="513.271" y="67.9854" fill="black" font-size="11.9698" font-family="Times">
&#0177;
</text>
<text x="479.855" y="67.9854" fill="black" font-size="11.9698" font-family="Helvetica">
 14.07 
</text>
<text x="361.168" y="84.1175" fill="black" font-size="11.9698" font-family="Helvetica">
1-Counts 
</text>
<text x="487.921" y="84.1175" fill="black" font-size="11.9698" font-family="Helvetica">
 1.374e+02
</text>
<text x="481.007" y="84.1175" fill="black" font-size="11.9698" font-family="Times">
&#0177;
</text>
<text x="421.088" y="84.1175" fill="black" font-size="11.9698" font-family="Helvetica">
 1.841e+04 
</text>
<text x="361.168" y="100.25" fill="black" font-size="11.9698" font-family="Helvetica">
2-Centroid 
</text>
<text x="528.251" y="100.25" fill="black" font-size="11.9698" font-family="Helvetica">
 0.1
</text>
<text x="521.337" y="100.25" fill="black" font-size="11.9698" font-family="Times">
&#0177;
</text>
<text x="487.921" y="100.25" fill="black" font-size="11.9698" font-family="Helvetica">
 487.6 
</text>
<text x="361.168" y="117.534" fill="black" font-size="11.9698" font-family="Helvetica">
2-FWHM   
</text>
<text x="522.49" y="116.382" fill="black" font-size="11.9698" font-family="Helvetica">
 0.21
</text>
<text x="515.576" y="116.382" fill="black" font-size="11.9698" font-family="Times">
&#0177;
</text>
<text x="483.312" y="116.382" fill="black" font-size="11.9698" font-family="Helvetica">
 15.21 
</text>
<text x="361.168" y="132.514" fill="black" font-size="11.9698" font-family="Helvetica">
2-Counts 
</text>
<text x="520.185" y="132.514" fill="black" font-size="11.9698" font-family="Helvetica">
 69.0
</text>
<text x="513.271" y="132.514" fill="black" font-size="11.9698" font-family="Times">
&#0177;
</text>
<text x="479.855" y="132.514" fill="black" font-size="11.9698" font-family="Helvetica">
  4519 
</text>
<text x="361.168" y="147.494" fill="black" font-size="11.9698" font-family="Helvetica">
Intercept 
</text>
<text x="520.185" y="148.646" fill="black" font-size="11.9698" font-family="Helvetica">
 2.12
</text>
<text x="513.271" y="148.646" fill="black" font-size="11.9698" font-family="Times">
&#0177;
</text>
<text x="479.855" y="148.646" fill="black" font-size="11.9698" font-family="Helvetica">
 27.58 
</text>
<text x="361.168" y="163.626" fill="black" font-size="11.9698" font-family="Helvetica">
Slope    
</text>
<text x="502.901" y="164.778" fill="black" font-size="11.9698" font-family="Helvetica">
 0.00421
</text>
<text x="495.987" y="164.778" fill="black" font-size="11.9698" font-family="Times">
&#0177;
</text>
<text x="452.2" y="164.778" fill="black" font-size="11.9698" font-family="Helvetica">
0.04814 
</text>
<text x="445.286" y="164.778" fill="black" font-size="11.9698" font-family="Times">
&#8722;
</text>
<text x="442.981" y="164.778" fill="black" font-size="11.9698" font-family="Helvetica">
 
</text>
<path d="M57.1929,327.713h 453.543" fill="none" stroke="black" stroke-width="2"/>
<text x="462.57" y="352.602" fill="black" font-size="12.1921" font-family="Helvetica">
Channels
</text>
<path d="M99.7126,318.974v 8.73901" fill="none" stroke="black" stroke-width="2"/>
<path d="M128.059,323.343v 4.3695" fill="none" stroke="black" stroke-width="2"/>
<path d="M156.406,323.343v 4.3695" fill="none" stroke="black" stroke-width="2"/>
<path d="M184.752,323.343v 4.3695" fill="none" stroke="black" stroke-width="2"/>
<path d="M213.098,323.343v 4.3695" fill="none" stroke="black" stroke-width="2"/>
<path d="M241.445,318.974v 8.73901" fill="none" stroke="black" stroke-width="2"/>
<path d="M269.791,323.343v 4.3695" fill="none" stroke="black" stroke-width="2"/>
<path d="M298.138,323.343v 4.3695" fill="none" stroke="black" stroke-width="2"/>
<path d="M326.484,323.343v 4.3695" fill="none" stroke="black" stroke-width="2"/>
<path d="M354.831,323.343v 4.3695" fill="none" stroke="black" stroke-width="2"/>
<path d="M383.177,318.974v 8.73901" fill="none" stroke="black" stroke-width="2"/>
<path d="M99.7126,318.974v 8.73901" fill="none" stroke="black" stroke-width="2"/>
<path d="M71.3661,323.343v 4.3695" fill="none" stroke="black" stroke-width="2"/>
<path d="M383.177,318.974v 8.73901" fill="none" stroke="black" stroke-width="2"/>
<path d="M411.524,323.343v 4.3695" fill="none" stroke="black" stroke-width="2"/>
<path d="M439.87,323.343v 4.3695" fill="none" stroke="black" stroke-width="2"/>
<path d="M468.217,323.343v 4.3695" fill="none" stroke="black" stroke-width="2"/>
<path d="M496.563,323.343v 4.3695" fill="none" stroke="black" stroke-width="2"/>
<text x="89.2267" y="338.775" fill="black" font-size="12.1921" font-family="Helvetica">
400
</text>
<text x="230.959" y="338.775" fill="black" font-size="12.1921" font-family="Helvetica">
450
</text>
<text x="372.691" y="338.775" fill="black" font-size="12.1921" font-family="Helvetica">
500
</text>
<path d="M57.1929,327.713v -291.3" fill="none" stroke="black" stroke-width="2"/>
<path d="M70.7992,327.713h -13.6063" fill="none" stroke="black" stroke-width="2"/>
<path d="M63.9961,316.773h -6.80315" fill="none" stroke="black" stroke-width="2"/>
<path d="M63.9961,305.833h -6.80315" fill="none" stroke="black" stroke-width="2"/>
<path d="M63.9961,294.894h -6.80315" fill="none" stroke="black" stroke-width="2"/>
<path d="M70.7992,283.954h -13.6063" fill="none" stroke="black" stroke-width="2"/>
<path d="M63.9961,273.015h -6.80315" fill="none" stroke="black" stroke-width="2"/>
<path d="M63.9961,262.075h -6.80315" fill="none" stroke="black" stroke-width="2"/>
<path d="M63.9961,251.135h -6.80315" fill="none" stroke="black" stroke-width="2"/>
<path d="M70.7992,240.196h -13.6063" fill="none" stroke="black" stroke-width="2"/>
<path d="M63.9961,229.256h -6.80315" fill="none" stroke="black" stroke-width="2"/>
<path d="M63.9961,218.317h -6.80315" fill="none" stroke="black" stroke-width="2"/>
<path d="M63.9961,207.377h -6.80315" fill="none" stroke="black" stroke-width="2"/>
<path d="M70.7992,196.437h -13.6063" fill="none" stroke="black" stroke-width="2"/>
<path d="M63.9961,185.498h -6.80315" fill="none" stroke="black" stroke-width="2"/>
<path d="M63.9961,174.558h -6.80315" fill="none" stroke="black" stroke-width="2"/>
<path d="M63.9961,163.618h -6.80315" fill="none" stroke="black" stroke-width="2"/>
<path d="M70.7992,152.679h -13.6063" fill="none" stroke="black" stroke-width="2"/>
<path d="M63.9961,141.739h -6.80315" fill="none" stroke="black" stroke-width="2"/>
<path d="M63.9961,130.8h -6.80315" fill="none" stroke="black" stroke-width="2"/>
<path d="M63.9961,119.86h -6.80315" fill="none" stroke="black" stroke-width="2"/>
<path d="M70.7992,108.92h -13.6063" fill="none" stroke="black" stroke-width="2"/>
<path d="M63.9961,97.9807h -6.80315" fill="none" stroke="black" stroke-width="2"/>
<path d="M63.9961,87.0411h -6.80315" fill="none" stroke="black" stroke-width="2"/>
<path d="M63.9961,76.1015h -6.80315" fill="none" stroke="black" stroke-width="2"/>
<path d="M70.7992,65.1618h -13.6063" fill="none" stroke="black" stroke-width="2"/>
<path d="M70.7992,65.1618h -13.6063" fill="none" stroke="black" stroke-width="2"/>
<path d="M63.9961,54.2222h -6.80315" fill="none" stroke="black" stroke-width="2"/>
<path d="M63.9961,43.2826h -6.80315" fill="none" stroke="black" stroke-width="2"/>
<text x="46.5918" y="331.861" fill="black" font-size="12.1921" font-family="Helvetica">
0
</text>
<text x="33.9166" y="288.074" fill="black" font-size="12.1921" font-family="Helvetica">
200
</text>
<text x="33.9166" y="244.287" fill="black" font-size="12.1921" font-family="Helvetica">
400
</text>
<text x="33.9166" y="200.499" fill="black" font-size="12.1921" font-family="Helvetica">
600
</text>
<text x="33.9166" y="156.712" fill="black" font-size="12.1921" font-family="Helvetica">
800
</text>
<text x="28.1551" y="112.925" fill="black" font-size="12.1921" font-family="Helvetica">
1000
</text>
<text x="28.1551" y="69.1377" fill="black" font-size="12.1921" font-family="Helvetica">
1200
</text>
<rect x="351.996" y="23.6681" width="204.094" height="145.65" fill="white"/>
<path d="M351.996,169.318h 204.094" fill="none" stroke="black" stroke-width="2"/>
<path d="M556.091,169.318v -145.65" fill="none" stroke="black" stroke-width="2"/>
<path d="M556.091,23.6681h -204.094" fill="none" stroke="black" stroke-width="2"/>
<path d="M351.996,23.6681v 145.65" fill="none" stroke="black" stroke-width="2"/>
<text x="372.691" y="34.5689" fill="black" font-size="11.9698" font-family="Helvetica">
 / ndf 
</text>
<text x="368.082" y="31.112" fill="black" font-size="8.14656" font-family="Helvetica">
2
</text>
<text x="361.168" y="34.5689" fill="black" font-size="11.9698" font-family="Times">
&#0967;
</text>
<text x="485.616" y="35.7211" fill="black" font-size="11.9698" font-family="Helvetica">
 189.9 / 150
</text>
<text x="361.168" y="51.8533" fill="black" font-size="11.9698" font-family="Helvetica">
1-Centroid 
</text>
<text x="527.099" y="51.8533" fill="black" font-size="11.9698" font-family="Helvetica">
 0.0
</text>
<text x="520.185" y="51.8533" fill="black" font-size="11.9698" font-family="Times">
&#0177;
</text>
<text x="486.768" y="51.8533" fill="black" font-size="11.9698" font-family="Helvetica">
 435.6 
</text>
<text x="361.168" y="69.1377" fill="black" font-size="11.9698" font-family="Helvetica">
1-FWHM   
</text>
<text x="520.185" y="67.9854" fill="black" font-size="11.9698" font-family="Helvetica">
 0.08
</text>
<text x="513.271" y="67.9854" fill="black" font-size="11.9698" font-family="Times">
&#0177;
</text>
<text x="479.855" y="67.9854" fill="black" font-size="11.9698" font-family="Helvetica">
 14.07 
</text>
<text x="361.168" y="84.1175" fill="black" font-size="11.9698" font-family="Helvetica">
1-Counts 
</text>
<text x="487.921" y="84.1175" fill="black" font-size="11.9698" font-family="Helvetica">
 1.374e+02
</text>
<text x="481.007" y="84.1175" fill="black" font-size="11.9698" font-family="Times">
&#0177;
</text>
<text x="421.088" y="84.1175" fill="black" font-size="11.9698" font-family="Helvetica">
 1.841e+04 
</text>
<text x="361.168" y="100.25" fill="black" font-size="11.9698" font-family="Helvetica">
2-Centroid 
</text>
<text x="528.251" y="100.25" fill="black" font-size="11.9698" font-family="Helvetica">
 0.1
</text>
<text x="521.337" y="100.25" fill="black" font-size="11.9698" font-family="Times">
&#0177;
</text>
<text x="487.921" y="100.25" fill="black" font-size="11.9698" font-family="Helvetica">
 487.6 
</text>
<text x="361.168" y="117.534" fill="black" font-size="11.9698" font-family="Helvetica">
2-FWHM   
</text>
<text x="522.49" y="116.382" fill="black" font-size="11.9698" font-family="Helvetica">
 0.21
</text>
<text x="515.576" y="116.382" fill="black" font-size="11.9698" font-family="Times">
&#0177;
</text>
<text x="483.312" y="116.382" fill="black" font-size="11.9698" font-family="Helvetica">
 15.21 
</text>
<text x="361.168" y="132.514" fill="black" font-size="11.9698" font-family="Helvetica">
2-Counts 
</text>
<text x="520.185" y="132.514" fill="black" font-size="11.9698" font-family="Helvetica">
 69.0
</text>
<text x="513.271" y="132.514" fill="black" font-size="11.9698" font-family="Times">
&#0177;
</text>
<text x="479.855" y="132.514" fill="black" font-size="11.9698" font-family="Helvetica">
  4519 
</text>
<text x="361.168" y="147.494" fill="black" font-size="11.9698" font-family="Helvetica">
Intercept 
</text>
<text x="520.185" y="148.646" fill="black" font-size="11.9698" font-family="Helvetica">
 2.12
</text>
<text x="513.271" y="148.646" fill="black" font-size="11.9698" font-family="Times">
&#0177;
</text>
<text x="479.855" y="148.646" fill="black" font-size="11.9698" font-family="Helvetica">
 27.58 
</text>
<text x="361.168" y="163.626" fill="black" font-size="11.9698" font-family="Helvetica">
Slope    
</text>
<text x="502.901" y="164.778" fill="black" font-size="11.9698" font-family="Helvetica">
 0.00421
</text>
<text x="495.987" y="164.778" fill="black" font-size="11.9698" font-family="Times">
&#0177;
</text>
<text x="452.2" y="164.778" fill="black" font-size="11.9698" font-family="Helvetica">
0.04814 
</text>
<text x="445.286" y="164.778" fill="black" font-size="11.9698" font-family="Times">
&#8722;
</text>
<text x="442.981" y="164.778" fill="black" font-size="11.9698" font-family="Helvetica">
 
</text>
<path d="M59.4606,327.713h 68.0315l 4.53543, -0.0748203l 4.53543, -0.138039l 4.53543, -0.350975l 4.53543, -0.826739l 4.53543, -1.80259l 4.53543, -3.63386l 4.53543, -6.76319l 4.53543, -11.5985l 4.53543, -18.2792l 4.53543, -26.374l 4.53543, -34.6415l
 4.53543, -41.0501l 4.53543, -43.206l 4.53543, -39.1618l 4.53543, -28.3199l 4.53543, -11.9842l 4.53543, 6.80631l 4.53543, 24.1936l 4.53543, 36.7908l 4.53543, 42.7558l 4.53543, 42.1829l 4.53543, 36.7263l 4.53543, 28.7474l 4.53543, 20.4416l 4.53543,
 13.2894l 4.53543, 7.93233l 4.53543, 4.3599l 4.53543, 2.21131l 4.53543, 1.03659l 4.53543, 0.449652l 4.53543, 0.180661l 4.53543, 0.0672824l 4.53543, 0.033725h 4.53543" fill="none" stroke="#00ff00" stroke-width="2"/>
<path d="M281.697,327.713h 222.236" fill="none" stroke="#00ff00" stroke-width="2"/>
<path d="M503.933,327.713h 4.53543" fill="none" stroke="#00ff00" stroke-width="2"/>
<path d="M59.4606,327.713h 213.165l 4.53543, -0.0355785l 4.53543, -0.0539994" fill="none" stroke="#00ff00" stroke-width="2"/>
<path d="M281.697,327.623l 4.53543, -0.122588l 4.53543, -0.260565l 4.53543, -0.518135l 4.53543, -0.962925l 4.53543, -1.67034l 4.53543, -2.69986l 4.53543, -4.05707l 4.53543, -5.64971l 4.53543, -7.25708l 4.53543, -8.53704l 4.53543, -9.08863l 4.53543,
 -8.56642l 4.53543, -6.813l 4.53543, -3.95485l 4.53543, -0.410581l 4.53543, 3.20668l 4.53543, 6.26262l 4.53543, 8.28346l 4.53543, 9.07472l 4.53543, 8.73659l 4.53543, 7.58377l 4.53543, 6.01614l 4.53543, 4.39641l 4.53543, 2.97467l 4.53543, 1.87001l
 4.53543, 1.09491l 4.53543, 0.598179l 4.53543, 0.305347l 4.53543, 0.14579l 4.53543, 0.0651624l 4.53543, 0.0439163h 81.6378" fill="none" stroke="#00ff00" stroke-width="2"/>
<path d="M503.933,327.713h 4.53543" fill="none" stroke="#00ff00" stroke-width="2"/>
<text x="146.841" y="18.4367" fill="black" font-size="17.4923" font-family="Helvetica">
Labs_Xrays/Spr8Calibration/Rb.Spe
</text></svg>
