<?xml version="1.0" standalone="no"?>
<svg width="567.429" height="334.476" viewBox="0 0 567.429 334.476" xmlns="http://www.w3.org/2000/svg">
<title>
/home/ADF/jsm576/unnamed.svg
</title>
<desc>
Creator: ROOT Version 6.06/08
CreationDate: Fri Nov 16 12:46:41 2018</desc>
<defs>
</defs>
<rect x="0.5" y="0" width="566.929" height="333.976" fill="white"/>
<rect x="57.1929" y="33.3976" width="453.543" height="267.18" fill="white"/>
<rect x="57.1929" y="33.3976" width="453.543" height="267.18" fill="none" stroke="black"/>
<rect x="57.1929" y="33.3976" width="453.543" height="267.18" fill="white"/>
<rect x="57.1929" y="33.3976" width="453.543" height="267.18" fill="none" stroke="black"/>
<path d="M57.1929,291.112h 1.98054v -0.871857h 1.98054v 2.74012h 1.98054v -1.49461h 1.98054v 1.49461h 1.98054v -1.74371h 1.98054v -0.747306h 1.98054v -1.74371h 1.98054v 3.36287h 1.98054v -2.24192h 1.98054v 3.36287h 1.98054v -1.74371h 1.98054v
 0.498204h 1.98054v -1.86826h 1.98054v -1.37006h 1.98054v 2.61557h 1.98054v 2.98922h 1.98054v -3.86108h 1.98054v 1.61916h 1.98054v -1.37006h 1.98054v 1.99281h 1.98054v -1.86826h 1.98054v 1.49461h 3.96108v -1.49461h 3.96108v -0.249102h 1.98054v
 1.74371h 1.98054v -0.747306h 1.98054v -1.49461h 3.96108v 0.747306h 1.98054v 0.622755h 1.98054v 0.249102h 1.98054v -1.61916h 1.98054v 1.99281h 1.98054v -0.996407h 3.96108v 0.249102h 1.98054v 1.86826h 1.98054v -1.37006h 1.98054v -1.61916h 1.98054v
 3.86108h 1.98054v -1.74371h 1.98054v -1.24551h 1.98054v 0.124551h 1.98054v 1.24551h 1.98054v -2.86467h 1.98054v 0.871857h 1.98054v 0.747306h 1.98054v 0.124551h 1.98054v -0.373653h 1.98054v -1.49461h 1.98054v 1.37006h 1.98054v -0.747306h 1.98054v
 0.747306h 1.98054v -0.871857h 1.98054v -0.498204h 1.98054v -0.871857h 1.98054v -2.86467h 1.98054v 0.871857h 1.98054v -2.36647h 1.98054v 2.86467h 1.98054v -5.23114h 1.98054v -0.124551h 1.98054v -0.498204h 1.98054v 1.99281h 1.98054v -6.6012h 1.98054v
 1.24551h 1.98054v -5.48024h 1.98054v -2.49102h 3.96108v -6.47665h 1.98054v -2.11737h 1.98054v -0.996407h 1.98054v -0.124551h 1.98054v -6.8503h 1.98054v -4.48383h 1.98054v -0.249102h 1.98054v -6.6012h 1.98054v -6.22755h 1.98054v -9.34132h 1.98054v
 1.74371h 1.98054v -4.23473h 1.98054v -3.61198h 1.98054v -16.5653h 1.98054v -0.747306h 1.98054v -5.23114h 1.98054v -4.85749h 1.98054v -2.86467h 1.98054v -9.96407h 1.98054v -8.22036h 1.98054v -10.8359h 1.98054v -0.124551h 1.98054v -14.5725h 1.98054v
 -1.99281h 1.98054v -2.86467h 1.98054v -18.8072h 1.98054v 8.34491h 1.98054v -1.12096h 1.98054v -23.9138h 1.98054v -9.09222h 1.98054v -1.86826h 1.98054v -4.35928h 1.98054v -8.09581h 1.98054v -3.86108h 1.98054v 2.61557h 1.98054v -14.9461h 1.98054v
 2.74012h 1.98054v -1.99281h 1.98054v -3.11377h 1.98054v 7.22395h 1.98054v -15.9425h 1.98054v -9.21677h 1.98054v 16.1916h 1.98054v 8.84312h 1.98054v -1.37006h 1.98054v -0.871857h 1.98054v 5.85389h 1.98054v 4.23473h 1.98054v -0.373653h 1.98054v
 10.3377h 1.98054v -6.72575h 1.98054v 16.6898h 1.98054v -1.74371h 1.98054v 1.24551h 1.98054v 18.4335h 1.98054v 6.8503h 1.98054v 11.8323h 1.98054v 7.59761h 1.98054v -0.871857h 1.98054v 10.8359h 1.98054v 4.85749h 1.98054v 21.0491h 1.98054v -2.24192h
 1.98054v 14.1988h 1.98054v 2.24192h 1.98054v 7.47306h 1.98054v 7.84671h 1.98054v 6.8503h 1.98054v 7.72216h 1.98054v 4.60838h 1.98054v 7.84671h 1.98054v 11.3341h 1.98054v 4.11018h 1.98054v -0.124551h 1.98054v 5.10659h 1.98054v 0.622755h 1.98054v
 11.7078h 1.98054v -3.48743h 1.98054v 6.97485h 1.98054v -0.996407h 1.98054v 7.72216h 1.98054v 1.74371h 1.98054v 2.11737h 1.98054v 1.49461h 1.98054v 1.12096h 1.98054v 2.24192h 1.98054v -0.249102h 1.98054v -0.373653h 1.98054v 2.61557h 1.98054v
 0.871857h 1.98054v 1.99281h 1.98054v -1.37006h 1.98054v 2.49102h 1.98054v -1.61916h 1.98054v 1.24551h 1.98054v -1.49461h 1.98054v 1.61916h 1.98054v 0.622755h 3.96108v -1.12096h 1.98054v 1.74371h 1.98054v -0.747306h 1.98054v 0.498204h 1.98054v
 1.12096h 1.98054v -1.61916h 1.98054v 1.61916h 1.98054v -0.498204h 1.98054v -1.37006h 1.98054v 0.622755h 1.98054v -0.622755h 1.98054v 1.99281h 1.98054v 0.124551h 1.98054v -1.37006h 1.98054v 2.98922h 1.98054v -2.49102h 1.98054v 1.49461h 1.98054v
 -0.871857h 1.98054v -0.124551h 1.98054v 1.86826h 1.98054v -2.61557h 1.98054v 1.74371h 1.98054v -1.12096h 1.98054v 0.373653h 1.98054v -0.498204h 1.98054v -1.12096h 1.98054v 0.996407h 1.98054v 0.249102h 1.98054v -0.498204h 1.98054v -0.249102h 1.98054v
 -0.871857h 1.98054v 0.373653h 1.98054v 1.24551h 1.98054v 0.871857h 1.98054v -2.61557h 1.98054v 0.373653h 1.98054v 1.86826h 1.98054v 1.24551h 1.98054v -0.996407h 1.98054v -0.498204h 1.98054v -0.498204h 1.98054v 0.747306h 1.98054v -0.124551h 1.98054v
 -2.36647h 1.98054v 1.49461h 1.98054v 1.49461h 1.98054v -2.11737h 1.98054v 0.871857h 1.98054v 0.373653h 1.98054v -0.249102h 1.98054v 0.124551h 1.98054v 0.249102h 1.98054v -0.124551h 1.98054v 0.249102h 1.98054v -0.498204h 1.98054v 0.373653h 1.98054v
 -0.373653h 1.98054v 1.24551h 1.98054" fill="none" stroke="#ff0000" stroke-width="2"/>
<path d="M59.4606,291.062l 4.53543, 0.0463586l 4.53543, 0.0463556l 4.53543, 0.0463496l 4.53543, 0.0463379l 4.53543, 0.0463153l 4.53543, 0.0462727l 4.53543, 0.0461933l 4.53543, 0.0460481l 4.53543, 0.0457869l 4.53543, 0.0453249l 4.53543, 0.0445215l
 4.53543, 0.0431484l 4.53543, 0.0408414l 4.53543, 0.0370322l 4.53543, 0.0308516l 4.53543, 0.0209978l 4.53543, 0.00556414l 4.53543, -0.0181805l 4.53543, -0.0540574l 4.53543, -0.107284l 4.53543, -0.184804l 4.53543, -0.295607l 4.53543, -0.450994l
 4.53543, -0.664716l 4.53543, -0.952913l 4.53543, -1.33374l 4.53543, -1.82658l 4.53543, -2.45082l 4.53543, -3.22404l 4.53543, -4.15966l 4.53543, -5.26424l 4.53543, -6.53443l 4.53543, -7.95398l 4.53543, -9.4912l 4.53543, -11.0973l 4.53543, -12.7058l
 4.53543, -14.2342l 4.53543, -15.5869l 4.53543, -16.6611l 4.53543, -17.3535l 4.53543, -17.5691l 4.53543, -17.2304l 4.53543, -16.2864l 4.53543, -14.7196l 4.53543, -12.5513l 4.53543, -9.84295l 4.53543, -6.69449l 4.53543, -3.2382l 4.53543, 0.370327"
 fill="none" stroke="#0000ff" stroke-width="2"/>
<path d="M281.697,61.3785l 4.53543, 3.96377l 4.53543, 7.376l 4.53543, 10.4548l 4.53543, 13.0729l 4.53543, 15.1373l 4.53543, 16.5933l 4.53543, 17.4269l 4.53543, 17.662l 4.53543, 17.355l 4.53543, 16.5872l 4.53543, 15.4556l 4.53543, 14.064l 4.53543,
 12.5147l 4.53543, 10.901l 4.53543, 9.30283l 4.53543, 7.78354l 4.53543, 6.3888l 4.53543, 5.1474l 4.53543, 4.07305l 4.53543, 3.16714l 4.53543, 2.42166l 4.53543, 1.82224l 4.53543, 1.35083l 4.53543, 0.987943l 4.53543, 0.714321l 4.53543, 0.51213l
 4.53543, 0.365639l 4.53543, 0.261537l 4.53543, 0.18895l 4.53543, 0.139275l 4.53543, 0.105902l 4.53543, 0.0838856l 4.53543, 0.0696213l 4.53543, 0.060543l 4.53543, 0.0548667l 4.53543, 0.0513792l 4.53543, 0.0492736l 4.53543, 0.0480242l 4.53543,
 0.0472955l 4.53543, 0.0468777l 4.53543, 0.0466421l 4.53543, 0.0465116l 4.53543, 0.0464405l 4.53543, 0.0464024l 4.53543, 0.0463823l 4.53543, 0.0463719l 4.53543, 0.0463666l 4.53543, 0.046364l 4.53543, 0.0463626" fill="none" stroke="#0000ff"
 stroke-width="2"/>
<path d="M503.933,295.606l 4.53543, 0.046362" fill="none" stroke="#0000ff" stroke-width="2"/>
<rect x="351.996" y="21.7084" width="204.094" height="93.5131" fill="white"/>
<path d="M351.996,115.222h 204.094" fill="none" stroke="black" stroke-width="2"/>
<path d="M556.091,115.222v -93.5131" fill="none" stroke="black" stroke-width="2"/>
<path d="M556.091,21.7084h -204.094" fill="none" stroke="black" stroke-width="2"/>
<path d="M351.996,21.7084v 93.5131" fill="none" stroke="black" stroke-width="2"/>
<text x="372.924" y="33.1714" fill="black" font-size="12.2087" font-family="Helvetica">
 / ndf 
</text>
<text x="368.401" y="29.4019" fill="black" font-size="8.30579" font-family="Helvetica">
2
</text>
<text x="361.616" y="33.1714" fill="black" font-size="12.2087" font-family="Times">
&#0967;
</text>
<text x="482.993" y="33.9253" fill="black" font-size="12.2087" font-family="Helvetica">
 448.6 / 224
</text>
<text x="361.616" y="49.0032" fill="black" font-size="12.2087" font-family="Helvetica">
Centroid 
</text>
<text x="528.227" y="49.0032" fill="black" font-size="12.2087" font-family="Helvetica">
 0.1
</text>
<text x="521.442" y="49.0032" fill="black" font-size="12.2087" font-family="Times">
&#0177;
</text>
<text x="489.778" y="49.0032" fill="black" font-size="12.2087" font-family="Helvetica">
   605 
</text>
<text x="361.616" y="65.5889" fill="black" font-size="12.2087" font-family="Helvetica">
FWHM     
</text>
<text x="519.934" y="64.835" fill="black" font-size="12.2087" font-family="Helvetica">
 0.13
</text>
<text x="513.149" y="64.835" fill="black" font-size="12.2087" font-family="Times">
&#0177;
</text>
<text x="477.716" y="64.835" fill="black" font-size="12.2087" font-family="Helvetica">
 43.04 
</text>
<text x="361.616" y="80.6668" fill="black" font-size="12.2087" font-family="Helvetica">
Counts   
</text>
<text x="486.008" y="80.6668" fill="black" font-size="12.2087" font-family="Helvetica">
 3.144e+02
</text>
<text x="479.223" y="80.6668" fill="black" font-size="12.2087" font-family="Times">
&#0177;
</text>
<text x="416.65" y="80.6668" fill="black" font-size="12.2087" font-family="Helvetica">
 8.572e+04 
</text>
<text x="361.616" y="94.9908" fill="black" font-size="12.2087" font-family="Helvetica">
Intercept 
</text>
<text x="528.227" y="95.7447" fill="black" font-size="12.2087" font-family="Helvetica">
 5.1
</text>
<text x="521.442" y="95.7447" fill="black" font-size="12.2087" font-family="Times">
&#0177;
</text>
<text x="486.008" y="95.7447" fill="black" font-size="12.2087" font-family="Helvetica">
 156.7 
</text>
<text x="361.616" y="110.823" fill="black" font-size="12.2087" font-family="Helvetica">
Slope    
</text>
<text x="507.871" y="111.576" fill="black" font-size="12.2087" font-family="Helvetica">
 0.0081
</text>
<text x="501.086" y="111.576" fill="black" font-size="12.2087" font-family="Times">
&#0177;
</text>
<text x="461.884" y="111.576" fill="black" font-size="12.2087" font-family="Helvetica">
0.1625 
</text>
<text x="455.099" y="111.576" fill="black" font-size="12.2087" font-family="Times">
&#8722;
</text>
<text x="452.083" y="111.576" fill="black" font-size="12.2087" font-family="Helvetica">
 
</text>
<path d="M57.1929,300.578h 453.543" fill="none" stroke="black" stroke-width="2"/>
<text x="467.161" y="323.421" fill="black" font-size="11.224" font-family="Helvetica">
Channels
</text>
<path d="M71.0567,292.563v 8.01541" fill="none" stroke="black" stroke-width="2"/>
<path d="M90.8621,296.57v 4.00771" fill="none" stroke="black" stroke-width="2"/>
<path d="M110.667,296.57v 4.00771" fill="none" stroke="black" stroke-width="2"/>
<path d="M130.473,296.57v 4.00771" fill="none" stroke="black" stroke-width="2"/>
<path d="M150.278,296.57v 4.00771" fill="none" stroke="black" stroke-width="2"/>
<path d="M170.084,292.563v 8.01541" fill="none" stroke="black" stroke-width="2"/>
<path d="M189.889,296.57v 4.00771" fill="none" stroke="black" stroke-width="2"/>
<path d="M209.694,296.57v 4.00771" fill="none" stroke="black" stroke-width="2"/>
<path d="M229.5,296.57v 4.00771" fill="none" stroke="black" stroke-width="2"/>
<path d="M249.305,296.57v 4.00771" fill="none" stroke="black" stroke-width="2"/>
<path d="M269.111,292.563v 8.01541" fill="none" stroke="black" stroke-width="2"/>
<path d="M288.916,296.57v 4.00771" fill="none" stroke="black" stroke-width="2"/>
<path d="M308.721,296.57v 4.00771" fill="none" stroke="black" stroke-width="2"/>
<path d="M328.527,296.57v 4.00771" fill="none" stroke="black" stroke-width="2"/>
<path d="M348.332,296.57v 4.00771" fill="none" stroke="black" stroke-width="2"/>
<path d="M368.137,292.563v 8.01541" fill="none" stroke="black" stroke-width="2"/>
<path d="M387.943,296.57v 4.00771" fill="none" stroke="black" stroke-width="2"/>
<path d="M407.748,296.57v 4.00771" fill="none" stroke="black" stroke-width="2"/>
<path d="M427.554,296.57v 4.00771" fill="none" stroke="black" stroke-width="2"/>
<path d="M447.359,296.57v 4.00771" fill="none" stroke="black" stroke-width="2"/>
<path d="M467.164,292.563v 8.01541" fill="none" stroke="black" stroke-width="2"/>
<path d="M71.0567,292.563v 8.01541" fill="none" stroke="black" stroke-width="2"/>
<path d="M467.164,292.563v 8.01541" fill="none" stroke="black" stroke-width="2"/>
<path d="M486.97,296.57v 4.00771" fill="none" stroke="black" stroke-width="2"/>
<path d="M506.775,296.57v 4.00771" fill="none" stroke="black" stroke-width="2"/>
<text x="61.5655" y="311.359" fill="black" font-size="11.224" font-family="Helvetica">
500
</text>
<text x="160.326" y="311.359" fill="black" font-size="11.224" font-family="Helvetica">
550
</text>
<text x="259.84" y="311.359" fill="black" font-size="11.224" font-family="Helvetica">
600
</text>
<text x="358.6" y="311.359" fill="black" font-size="11.224" font-family="Helvetica">
650
</text>
<text x="458.114" y="311.359" fill="black" font-size="11.224" font-family="Helvetica">
700
</text>
<path d="M57.1929,300.578v -267.18" fill="none" stroke="black" stroke-width="2"/>
<path d="M70.7992,300.578h -13.6063" fill="none" stroke="black" stroke-width="2"/>
<path d="M63.9961,294.35h -6.80315" fill="none" stroke="black" stroke-width="2"/>
<path d="M63.9961,288.123h -6.80315" fill="none" stroke="black" stroke-width="2"/>
<path d="M63.9961,281.895h -6.80315" fill="none" stroke="black" stroke-width="2"/>
<path d="M70.7992,275.668h -13.6063" fill="none" stroke="black" stroke-width="2"/>
<path d="M63.9961,269.44h -6.80315" fill="none" stroke="black" stroke-width="2"/>
<path d="M63.9961,263.213h -6.80315" fill="none" stroke="black" stroke-width="2"/>
<path d="M63.9961,256.985h -6.80315" fill="none" stroke="black" stroke-width="2"/>
<path d="M70.7992,250.758h -13.6063" fill="none" stroke="black" stroke-width="2"/>
<path d="M63.9961,244.53h -6.80315" fill="none" stroke="black" stroke-width="2"/>
<path d="M63.9961,238.303h -6.80315" fill="none" stroke="black" stroke-width="2"/>
<path d="M63.9961,232.075h -6.80315" fill="none" stroke="black" stroke-width="2"/>
<path d="M70.7992,225.847h -13.6063" fill="none" stroke="black" stroke-width="2"/>
<path d="M63.9961,219.62h -6.80315" fill="none" stroke="black" stroke-width="2"/>
<path d="M63.9961,213.392h -6.80315" fill="none" stroke="black" stroke-width="2"/>
<path d="M63.9961,207.165h -6.80315" fill="none" stroke="black" stroke-width="2"/>
<path d="M70.7992,200.937h -13.6063" fill="none" stroke="black" stroke-width="2"/>
<path d="M63.9961,194.71h -6.80315" fill="none" stroke="black" stroke-width="2"/>
<path d="M63.9961,188.482h -6.80315" fill="none" stroke="black" stroke-width="2"/>
<path d="M63.9961,182.255h -6.80315" fill="none" stroke="black" stroke-width="2"/>
<path d="M70.7992,176.027h -13.6063" fill="none" stroke="black" stroke-width="2"/>
<path d="M63.9961,169.799h -6.80315" fill="none" stroke="black" stroke-width="2"/>
<path d="M63.9961,163.572h -6.80315" fill="none" stroke="black" stroke-width="2"/>
<path d="M63.9961,157.344h -6.80315" fill="none" stroke="black" stroke-width="2"/>
<path d="M70.7992,151.117h -13.6063" fill="none" stroke="black" stroke-width="2"/>
<path d="M63.9961,144.889h -6.80315" fill="none" stroke="black" stroke-width="2"/>
<path d="M63.9961,138.662h -6.80315" fill="none" stroke="black" stroke-width="2"/>
<path d="M63.9961,132.434h -6.80315" fill="none" stroke="black" stroke-width="2"/>
<path d="M70.7992,126.207h -13.6063" fill="none" stroke="black" stroke-width="2"/>
<path d="M63.9961,119.979h -6.80315" fill="none" stroke="black" stroke-width="2"/>
<path d="M63.9961,113.752h -6.80315" fill="none" stroke="black" stroke-width="2"/>
<path d="M63.9961,107.524h -6.80315" fill="none" stroke="black" stroke-width="2"/>
<path d="M70.7992,101.296h -13.6063" fill="none" stroke="black" stroke-width="2"/>
<path d="M63.9961,95.0689h -6.80315" fill="none" stroke="black" stroke-width="2"/>
<path d="M63.9961,88.8414h -6.80315" fill="none" stroke="black" stroke-width="2"/>
<path d="M63.9961,82.6139h -6.80315" fill="none" stroke="black" stroke-width="2"/>
<path d="M70.7992,76.3863h -13.6063" fill="none" stroke="black" stroke-width="2"/>
<path d="M63.9961,70.1588h -6.80315" fill="none" stroke="black" stroke-width="2"/>
<path d="M63.9961,63.9312h -6.80315" fill="none" stroke="black" stroke-width="2"/>
<path d="M63.9961,57.7037h -6.80315" fill="none" stroke="black" stroke-width="2"/>
<path d="M70.7992,51.4761h -13.6063" fill="none" stroke="black" stroke-width="2"/>
<path d="M70.7992,51.4761h -13.6063" fill="none" stroke="black" stroke-width="2"/>
<path d="M63.9961,45.2486h -6.80315" fill="none" stroke="black" stroke-width="2"/>
<path d="M63.9961,39.021h -6.80315" fill="none" stroke="black" stroke-width="2"/>
<text x="47.9954" y="303.82" fill="black" font-size="11.224" font-family="Helvetica">
0
</text>
<text x="36.687" y="278.941" fill="black" font-size="11.224" font-family="Helvetica">
200
</text>
<text x="36.687" y="254.063" fill="black" font-size="11.224" font-family="Helvetica">
400
</text>
<text x="36.687" y="229.184" fill="black" font-size="11.224" font-family="Helvetica">
600
</text>
<text x="36.687" y="204.306" fill="black" font-size="11.224" font-family="Helvetica">
800
</text>
<text x="30.6558" y="179.427" fill="black" font-size="11.224" font-family="Helvetica">
1000
</text>
<text x="30.6558" y="154.548" fill="black" font-size="11.224" font-family="Helvetica">
1200
</text>
<text x="30.6558" y="129.67" fill="black" font-size="11.224" font-family="Helvetica">
1400
</text>
<text x="30.6558" y="104.791" fill="black" font-size="11.224" font-family="Helvetica">
1600
</text>
<text x="30.6558" y="79.9129" fill="black" font-size="11.224" font-family="Helvetica">
1800
</text>
<text x="30.6558" y="55.0343" fill="black" font-size="11.224" font-family="Helvetica">
2000
</text>
<rect x="351.996" y="21.7084" width="204.094" height="93.5131" fill="white"/>
<path d="M351.996,115.222h 204.094" fill="none" stroke="black" stroke-width="2"/>
<path d="M556.091,115.222v -93.5131" fill="none" stroke="black" stroke-width="2"/>
<path d="M556.091,21.7084h -204.094" fill="none" stroke="black" stroke-width="2"/>
<path d="M351.996,21.7084v 93.5131" fill="none" stroke="black" stroke-width="2"/>
<text x="372.924" y="33.1714" fill="black" font-size="12.2087" font-family="Helvetica">
 / ndf 
</text>
<text x="368.401" y="29.4019" fill="black" font-size="8.30579" font-family="Helvetica">
2
</text>
<text x="361.616" y="33.1714" fill="black" font-size="12.2087" font-family="Times">
&#0967;
</text>
<text x="482.993" y="33.9253" fill="black" font-size="12.2087" font-family="Helvetica">
 448.6 / 224
</text>
<text x="361.616" y="49.0032" fill="black" font-size="12.2087" font-family="Helvetica">
Centroid 
</text>
<text x="528.227" y="49.0032" fill="black" font-size="12.2087" font-family="Helvetica">
 0.1
</text>
<text x="521.442" y="49.0032" fill="black" font-size="12.2087" font-family="Times">
&#0177;
</text>
<text x="489.778" y="49.0032" fill="black" font-size="12.2087" font-family="Helvetica">
   605 
</text>
<text x="361.616" y="65.5889" fill="black" font-size="12.2087" font-family="Helvetica">
FWHM     
</text>
<text x="519.934" y="64.835" fill="black" font-size="12.2087" font-family="Helvetica">
 0.13
</text>
<text x="513.149" y="64.835" fill="black" font-size="12.2087" font-family="Times">
&#0177;
</text>
<text x="477.716" y="64.835" fill="black" font-size="12.2087" font-family="Helvetica">
 43.04 
</text>
<text x="361.616" y="80.6668" fill="black" font-size="12.2087" font-family="Helvetica">
Counts   
</text>
<text x="486.008" y="80.6668" fill="black" font-size="12.2087" font-family="Helvetica">
 3.144e+02
</text>
<text x="479.223" y="80.6668" fill="black" font-size="12.2087" font-family="Times">
&#0177;
</text>
<text x="416.65" y="80.6668" fill="black" font-size="12.2087" font-family="Helvetica">
 8.572e+04 
</text>
<text x="361.616" y="94.9908" fill="black" font-size="12.2087" font-family="Helvetica">
Intercept 
</text>
<text x="528.227" y="95.7447" fill="black" font-size="12.2087" font-family="Helvetica">
 5.1
</text>
<text x="521.442" y="95.7447" fill="black" font-size="12.2087" font-family="Times">
&#0177;
</text>
<text x="486.008" y="95.7447" fill="black" font-size="12.2087" font-family="Helvetica">
 156.7 
</text>
<text x="361.616" y="110.823" fill="black" font-size="12.2087" font-family="Helvetica">
Slope    
</text>
<text x="507.871" y="111.576" fill="black" font-size="12.2087" font-family="Helvetica">
 0.0081
</text>
<text x="501.086" y="111.576" fill="black" font-size="12.2087" font-family="Times">
&#0177;
</text>
<text x="461.884" y="111.576" fill="black" font-size="12.2087" font-family="Helvetica">
0.1625 
</text>
<text x="455.099" y="111.576" fill="black" font-size="12.2087" font-family="Times">
&#8722;
</text>
<text x="452.083" y="111.576" fill="black" font-size="12.2087" font-family="Helvetica">
 
</text>
<path d="M59.4606,300.578h 63.4961l 4.53543, -0.0376863l 4.53543, -0.0253637l 4.53543, -0.0407973l 4.53543, -0.0645419l 4.53543, -0.100419l 4.53543, -0.153646l 4.53543, -0.231166l 4.53543, -0.341969l 4.53543, -0.497355l 4.53543, -0.711078l 4.53543,
 -0.999274l 4.53543, -1.3801l 4.53543, -1.87294l 4.53543, -2.49719l 4.53543, -3.2704l 4.53543, -4.20602l 4.53543, -5.3106l 4.53543, -6.58079l 4.53543, -8.00034l 4.53543, -9.53757l 4.53543, -11.1436l 4.53543, -12.7521l 4.53543, -14.2805l 4.53543,
 -15.6333l 4.53543, -16.7075l 4.53543, -17.3998l 4.53543, -17.6154l 4.53543, -17.2768l 4.53543, -16.3327l 4.53543, -14.766l 4.53543, -12.5976l 4.53543, -9.88931l 4.53543, -6.74085l 4.53543, -3.28456l 4.53543, 0.323966" fill="none" stroke="#00ff00"
 stroke-width="2"/>
<path d="M281.697,68.6225l 4.53543, 3.91741l 4.53543, 7.32964l 4.53543, 10.4084l 4.53543, 13.0266l 4.53543, 15.0909l 4.53543, 16.5469l 4.53543, 17.3805l 4.53543, 17.6156l 4.53543, 17.3087l 4.53543, 16.5408l 4.53543, 15.4092l 4.53543, 14.0177l
 4.53543, 12.4683l 4.53543, 10.8546l 4.53543, 9.25647l 4.53543, 7.73717l 4.53543, 6.34244l 4.53543, 5.10103l 4.53543, 4.02669l 4.53543, 3.12078l 4.53543, 2.3753l 4.53543, 1.77588l 4.53543, 1.30447l 4.53543, 0.941581l 4.53543, 0.66796l 4.53543,
 0.465768l 4.53543, 0.319277l 4.53543, 0.215175l 4.53543, 0.142588l 4.53543, 0.0929134l 4.53543, 0.0595403l 4.53543, 0.0375242l 4.53543, 0.0232599l 4.53543, 0.0343219h 68.0315" fill="none" stroke="#00ff00" stroke-width="2"/>
<path d="M503.933,300.578h 4.53543" fill="none" stroke="#00ff00" stroke-width="2"/>
<text x="215.36" y="16.5857" fill="black" font-size="14.6534" font-family="Helvetica">
22Na_spectrum2.Spe
</text></svg>
