<?xml version="1.0" standalone="no"?>
<svg width="567.429" height="365.489" viewBox="0 0 567.429 365.489" xmlns="http://www.w3.org/2000/svg">
<title>
/home/ADF/hyw543/Coincidence/c1.svg
</title>
<desc>
Creator: ROOT Version 6.06/08
CreationDate: Tue Jan  8 18:13:08 2019</desc>
<defs>
</defs>
<rect x="0.5" y="0" width="566.929" height="364.989" fill="white"/>
<rect x="57.1929" y="36.4989" width="453.543" height="291.991" fill="white"/>
<rect x="57.1929" y="36.4989" width="453.543" height="291.991" fill="none" stroke="black"/>
<rect x="57.1929" y="36.4989" width="453.543" height="291.991" fill="white"/>
<rect x="57.1929" y="36.4989" width="453.543" height="291.991" fill="none" stroke="black"/>
<path d="M57.1929,285.004h 18.8976v -5.01478h 18.8976v -7.76654h 18.8976v -10.8795h 18.8976v -12.2926h 18.8976v -14.6087h 18.8976v -19.836h 18.8976v -25.9664h 18.8976v -28.6225h 18.8976v -29.3343h 18.8976v -29.3875h 18.8976v -25.212h 18.8976v
 -19.1773h 18.8976v -6.50222h 18.8976v 1.33869h 18.8976v 16.9674h 18.8976v 26.572h 18.8976v 34.381h 18.8976v 36.0172h 18.8976v 37.2815h 18.8976v 31.1724h 18.8976v 25.7326h 18.8976v 19.1773h 18.8976v 14.8531h 18.8976" fill="none" stroke="#ff0000"
 stroke-width="2"/>
<path d="M59.4606,281.559l 4.53543, -0.263618l 4.53543, -0.350847l 4.53543, -0.447315l 4.53543, -0.553618l 4.53543, -0.670325l 4.53543, -0.797978l 4.53543, -0.937072l 4.53543, -1.08805l 4.53543, -1.25127l 4.53543, -1.42703l 4.53543, -1.61549l
 4.53543, -1.81673l 4.53543, -2.03067l 4.53543, -2.25709l 4.53543, -2.49561l 4.53543, -2.74566l 4.53543, -3.0065l 4.53543, -3.27716l 4.53543, -3.55649l 4.53543, -3.84308l 4.53543, -4.13534l 4.53543, -4.43143l 4.53543, -4.72929l 4.53543, -5.02665l
 4.53543, -5.32106l 4.53543, -5.60984l 4.53543, -5.89018l 4.53543, -6.1591l 4.53543, -6.41352l 4.53543, -6.65026l 4.53543, -6.86613l 4.53543, -7.05788l 4.53543, -7.22235l 4.53543, -7.35642l 4.53543, -7.45711l 4.53543, -7.52164l 4.53543, -7.54742l
 4.53543, -7.53216l 4.53543, -7.47386l 4.53543, -7.37091l 4.53543, -7.22207l 4.53543, -7.02654l 4.53543, -6.78401l 4.53543, -6.49462l 4.53543, -6.15903l 4.53543, -5.7784l 4.53543, -5.35443l 4.53543, -4.88929l 4.53543, -4.38565" fill="none"
 stroke="#0000ff" stroke-width="2"/>
<path d="M281.697,65.2608l 4.53543, -3.84667l 4.53543, -3.27592l 4.53543, -2.67737l 4.53543, -2.05534l 4.53543, -1.41447l 4.53543, -0.759624l 4.53543, -0.0958411l 4.53543, 0.571711l 4.53543, 1.23782l 4.53543, 1.89729l 4.53543, 2.54502l 4.53543,
 3.17604l 4.53543, 3.78563l 4.53543, 4.3693l 4.53543, 4.92294l 4.53543, 5.44277l 4.53543, 5.92546l 4.53543, 6.36811l 4.53543, 6.76833l 4.53543, 7.1242l 4.53543, 7.43433l 4.53543, 7.69784l 4.53543, 7.91434l 4.53543, 8.08396l 4.53543, 8.20727l 4.53543,
 8.28533l 4.53543, 8.31959l 4.53543, 8.31186l 4.53543, 8.26433l 4.53543, 8.17945l 4.53543, 8.05992l 4.53543, 7.90865l 4.53543, 7.72869l 4.53543, 7.5232l 4.53543, 7.29538l 4.53543, 7.04845l 4.53543, 6.78562l 4.53543, 6.51001l 4.53543, 6.22464l
 4.53543, 5.9324l 4.53543, 5.63604l 4.53543, 5.33811l 4.53543, 5.04097l 4.53543, 4.74676l 4.53543, 4.45742l 4.53543, 4.17467l 4.53543, 3.89998l 4.53543, 3.63462l 4.53543, 3.37965" fill="none" stroke="#0000ff" stroke-width="2"/>
<path d="M503.933,297.294l 4.53543, 3.1359" fill="none" stroke="#0000ff" stroke-width="2"/>
<rect x="351.996" y="23.7243" width="204.094" height="102.197" fill="white"/>
<path d="M351.996,125.921h 204.094" fill="none" stroke="black" stroke-width="2"/>
<path d="M556.091,125.921v -102.197" fill="none" stroke="black" stroke-width="2"/>
<path d="M556.091,23.7243h -204.094" fill="none" stroke="black" stroke-width="2"/>
<path d="M351.996,23.7243v 102.197" fill="none" stroke="black" stroke-width="2"/>
<text x="372.968" y="35.9005" fill="black" font-size="12.1753" font-family="Helvetica">
 / ndf 
</text>
<text x="368.48" y="31.413" fill="black" font-size="8.28356" font-family="Helvetica">
2
</text>
<text x="361.001" y="35.9005" fill="black" font-size="12.1753" font-family="Times">
&#0967;
</text>
<text x="489.645" y="35.9005" fill="black" font-size="12.1753" font-family="Helvetica">
 189.3 / 19
</text>
<text x="361.001" y="52.3549" fill="black" font-size="12.1753" font-family="Helvetica">
Centroid 
</text>
<text x="519.562" y="52.3549" fill="black" font-size="12.1753" font-family="Helvetica">
 0.02
</text>
<text x="512.083" y="52.3549" fill="black" font-size="12.1753" font-family="Times">
&#0177;
</text>
<text x="477.678" y="52.3549" fill="black" font-size="12.1753" font-family="Helvetica">
 99.61 
</text>
<text x="361.001" y="71.8011" fill="black" font-size="12.1753" font-family="Helvetica">
FWHM     
</text>
<text x="518.066" y="70.3052" fill="black" font-size="12.1753" font-family="Helvetica">
 0.05
</text>
<text x="510.587" y="70.3052" fill="black" font-size="12.1753" font-family="Times">
&#0177;
</text>
<text x="474.686" y="70.3052" fill="black" font-size="12.1753" font-family="Helvetica">
 11.05 
</text>
<text x="361.001" y="86.7596" fill="black" font-size="12.1753" font-family="Helvetica">
Counts   
</text>
<text x="485.157" y="86.7596" fill="black" font-size="12.1753" font-family="Helvetica">
 1.850e+03
</text>
<text x="477.678" y="86.7596" fill="black" font-size="12.1753" font-family="Times">
&#0177;
</text>
<text x="414.852" y="86.7596" fill="black" font-size="12.1753" font-family="Helvetica">
 2.842e+05 
</text>
<text x="361.001" y="104.71" fill="black" font-size="12.1753" font-family="Helvetica">
Intercept 
</text>
<text x="485.157" y="104.71" fill="black" font-size="12.1753" font-family="Helvetica">
 3.576e+02
</text>
<text x="477.678" y="104.71" fill="black" font-size="12.1753" font-family="Times">
&#0177;
</text>
<text x="414.852" y="104.71" fill="black" font-size="12.1753" font-family="Helvetica">
 1.709e+04 
</text>
<text x="361.001" y="121.164" fill="black" font-size="12.1753" font-family="Helvetica">
Slope    
</text>
<text x="525.545" y="121.164" fill="black" font-size="12.1753" font-family="Helvetica">
 4.0
</text>
<text x="518.066" y="121.164" fill="black" font-size="12.1753" font-family="Times">
&#0177;
</text>
<text x="485.157" y="121.164" fill="black" font-size="12.1753" font-family="Helvetica">
151.7 
</text>
<text x="477.678" y="121.164" fill="black" font-size="12.1753" font-family="Times">
&#8722;
</text>
<text x="474.686" y="121.164" fill="black" font-size="12.1753" font-family="Helvetica">
 
</text>
<path d="M57.1929,328.49h 453.543" fill="none" stroke="black" stroke-width="2"/>
<text x="461.223" y="353.022" fill="black" font-size="12.2198" font-family="Helvetica">
Channels
</text>
<path d="M132.783,319.73v 8.75973" fill="none" stroke="black" stroke-width="2"/>
<path d="M151.681,324.11v 4.37986" fill="none" stroke="black" stroke-width="2"/>
<path d="M170.579,324.11v 4.37986" fill="none" stroke="black" stroke-width="2"/>
<path d="M189.476,324.11v 4.37986" fill="none" stroke="black" stroke-width="2"/>
<path d="M208.374,324.11v 4.37986" fill="none" stroke="black" stroke-width="2"/>
<path d="M227.272,319.73v 8.75973" fill="none" stroke="black" stroke-width="2"/>
<path d="M246.169,324.11v 4.37986" fill="none" stroke="black" stroke-width="2"/>
<path d="M265.067,324.11v 4.37986" fill="none" stroke="black" stroke-width="2"/>
<path d="M283.965,324.11v 4.37986" fill="none" stroke="black" stroke-width="2"/>
<path d="M302.862,324.11v 4.37986" fill="none" stroke="black" stroke-width="2"/>
<path d="M321.76,319.73v 8.75973" fill="none" stroke="black" stroke-width="2"/>
<path d="M340.657,324.11v 4.37986" fill="none" stroke="black" stroke-width="2"/>
<path d="M359.555,324.11v 4.37986" fill="none" stroke="black" stroke-width="2"/>
<path d="M378.453,324.11v 4.37986" fill="none" stroke="black" stroke-width="2"/>
<path d="M397.35,324.11v 4.37986" fill="none" stroke="black" stroke-width="2"/>
<path d="M416.248,319.73v 8.75973" fill="none" stroke="black" stroke-width="2"/>
<path d="M435.146,324.11v 4.37986" fill="none" stroke="black" stroke-width="2"/>
<path d="M454.043,324.11v 4.37986" fill="none" stroke="black" stroke-width="2"/>
<path d="M472.941,324.11v 4.37986" fill="none" stroke="black" stroke-width="2"/>
<path d="M491.839,324.11v 4.37986" fill="none" stroke="black" stroke-width="2"/>
<path d="M510.736,319.73v 8.75973" fill="none" stroke="black" stroke-width="2"/>
<path d="M132.783,319.73v 8.75973" fill="none" stroke="black" stroke-width="2"/>
<path d="M113.886,324.11v 4.37986" fill="none" stroke="black" stroke-width="2"/>
<path d="M94.9882,324.11v 4.37986" fill="none" stroke="black" stroke-width="2"/>
<path d="M76.0906,324.11v 4.37986" fill="none" stroke="black" stroke-width="2"/>
<path d="M57.1929,324.11v 4.37986" fill="none" stroke="black" stroke-width="2"/>
<text x="124.656" y="339.559" fill="black" font-size="12.2198" font-family="Helvetica">
90
</text>
<text x="218.895" y="339.559" fill="black" font-size="12.2198" font-family="Helvetica">
95
</text>
<text x="310.142" y="339.559" fill="black" font-size="12.2198" font-family="Helvetica">
100
</text>
<text x="404.381" y="339.559" fill="black" font-size="12.2198" font-family="Helvetica">
105
</text>
<text x="500.116" y="339.559" fill="black" font-size="12.2198" font-family="Helvetica">
110
</text>
<path d="M57.1929,328.49v -291.991" fill="none" stroke="black" stroke-width="2"/>
<path d="M70.7992,328.49h -13.6063" fill="none" stroke="black" stroke-width="2"/>
<path d="M63.9961,317.865h -6.80315" fill="none" stroke="black" stroke-width="2"/>
<path d="M63.9961,307.241h -6.80315" fill="none" stroke="black" stroke-width="2"/>
<path d="M63.9961,296.616h -6.80315" fill="none" stroke="black" stroke-width="2"/>
<path d="M63.9961,285.992h -6.80315" fill="none" stroke="black" stroke-width="2"/>
<path d="M70.7992,275.367h -13.6063" fill="none" stroke="black" stroke-width="2"/>
<path d="M63.9961,264.743h -6.80315" fill="none" stroke="black" stroke-width="2"/>
<path d="M63.9961,254.118h -6.80315" fill="none" stroke="black" stroke-width="2"/>
<path d="M63.9961,243.494h -6.80315" fill="none" stroke="black" stroke-width="2"/>
<path d="M63.9961,232.869h -6.80315" fill="none" stroke="black" stroke-width="2"/>
<path d="M70.7992,222.244h -13.6063" fill="none" stroke="black" stroke-width="2"/>
<path d="M63.9961,211.62h -6.80315" fill="none" stroke="black" stroke-width="2"/>
<path d="M63.9961,200.995h -6.80315" fill="none" stroke="black" stroke-width="2"/>
<path d="M63.9961,190.371h -6.80315" fill="none" stroke="black" stroke-width="2"/>
<path d="M63.9961,179.746h -6.80315" fill="none" stroke="black" stroke-width="2"/>
<path d="M70.7992,169.122h -13.6063" fill="none" stroke="black" stroke-width="2"/>
<path d="M63.9961,158.497h -6.80315" fill="none" stroke="black" stroke-width="2"/>
<path d="M63.9961,147.873h -6.80315" fill="none" stroke="black" stroke-width="2"/>
<path d="M63.9961,137.248h -6.80315" fill="none" stroke="black" stroke-width="2"/>
<path d="M63.9961,126.624h -6.80315" fill="none" stroke="black" stroke-width="2"/>
<path d="M70.7992,115.999h -13.6063" fill="none" stroke="black" stroke-width="2"/>
<path d="M63.9961,105.375h -6.80315" fill="none" stroke="black" stroke-width="2"/>
<path d="M63.9961,94.75h -6.80315" fill="none" stroke="black" stroke-width="2"/>
<path d="M63.9961,84.1255h -6.80315" fill="none" stroke="black" stroke-width="2"/>
<path d="M63.9961,73.5009h -6.80315" fill="none" stroke="black" stroke-width="2"/>
<path d="M70.7992,62.8764h -13.6063" fill="none" stroke="black" stroke-width="2"/>
<path d="M70.7992,62.8764h -13.6063" fill="none" stroke="black" stroke-width="2"/>
<path d="M63.9961,52.2519h -6.80315" fill="none" stroke="black" stroke-width="2"/>
<path d="M63.9961,41.6273h -6.80315" fill="none" stroke="black" stroke-width="2"/>
<text x="46.8715" y="332.08" fill="black" font-size="12.2198" font-family="Helvetica">
0
</text>
<text x="27.4254" y="279.725" fill="black" font-size="12.2198" font-family="Helvetica">
5000
</text>
<text x="21.442" y="225.874" fill="black" font-size="12.2198" font-family="Helvetica">
10000
</text>
<text x="21.442" y="173.519" fill="black" font-size="12.2198" font-family="Helvetica">
15000
</text>
<text x="21.442" y="119.668" fill="black" font-size="12.2198" font-family="Helvetica">
20000
</text>
<text x="21.442" y="67.3135" fill="black" font-size="12.2198" font-family="Helvetica">
25000
</text>
<rect x="351.996" y="23.7243" width="204.094" height="102.197" fill="white"/>
<path d="M351.996,125.921h 204.094" fill="none" stroke="black" stroke-width="2"/>
<path d="M556.091,125.921v -102.197" fill="none" stroke="black" stroke-width="2"/>
<path d="M556.091,23.7243h -204.094" fill="none" stroke="black" stroke-width="2"/>
<path d="M351.996,23.7243v 102.197" fill="none" stroke="black" stroke-width="2"/>
<text x="372.968" y="35.9005" fill="black" font-size="12.1753" font-family="Helvetica">
 / ndf 
</text>
<text x="368.48" y="31.413" fill="black" font-size="8.28356" font-family="Helvetica">
2
</text>
<text x="361.001" y="35.9005" fill="black" font-size="12.1753" font-family="Times">
&#0967;
</text>
<text x="489.645" y="35.9005" fill="black" font-size="12.1753" font-family="Helvetica">
 189.3 / 19
</text>
<text x="361.001" y="52.3549" fill="black" font-size="12.1753" font-family="Helvetica">
Centroid 
</text>
<text x="519.562" y="52.3549" fill="black" font-size="12.1753" font-family="Helvetica">
 0.02
</text>
<text x="512.083" y="52.3549" fill="black" font-size="12.1753" font-family="Times">
&#0177;
</text>
<text x="477.678" y="52.3549" fill="black" font-size="12.1753" font-family="Helvetica">
 99.61 
</text>
<text x="361.001" y="71.8011" fill="black" font-size="12.1753" font-family="Helvetica">
FWHM     
</text>
<text x="518.066" y="70.3052" fill="black" font-size="12.1753" font-family="Helvetica">
 0.05
</text>
<text x="510.587" y="70.3052" fill="black" font-size="12.1753" font-family="Times">
&#0177;
</text>
<text x="474.686" y="70.3052" fill="black" font-size="12.1753" font-family="Helvetica">
 11.05 
</text>
<text x="361.001" y="86.7596" fill="black" font-size="12.1753" font-family="Helvetica">
Counts   
</text>
<text x="485.157" y="86.7596" fill="black" font-size="12.1753" font-family="Helvetica">
 1.850e+03
</text>
<text x="477.678" y="86.7596" fill="black" font-size="12.1753" font-family="Times">
&#0177;
</text>
<text x="414.852" y="86.7596" fill="black" font-size="12.1753" font-family="Helvetica">
 2.842e+05 
</text>
<text x="361.001" y="104.71" fill="black" font-size="12.1753" font-family="Helvetica">
Intercept 
</text>
<text x="485.157" y="104.71" fill="black" font-size="12.1753" font-family="Helvetica">
 3.576e+02
</text>
<text x="477.678" y="104.71" fill="black" font-size="12.1753" font-family="Times">
&#0177;
</text>
<text x="414.852" y="104.71" fill="black" font-size="12.1753" font-family="Helvetica">
 1.709e+04 
</text>
<text x="361.001" y="121.164" fill="black" font-size="12.1753" font-family="Helvetica">
Slope    
</text>
<text x="525.545" y="121.164" fill="black" font-size="12.1753" font-family="Helvetica">
 4.0
</text>
<text x="518.066" y="121.164" fill="black" font-size="12.1753" font-family="Times">
&#0177;
</text>
<text x="485.157" y="121.164" fill="black" font-size="12.1753" font-family="Helvetica">
151.7 
</text>
<text x="477.678" y="121.164" fill="black" font-size="12.1753" font-family="Times">
&#8722;
</text>
<text x="474.686" y="121.164" fill="black" font-size="12.1753" font-family="Helvetica">
 
</text>
<path d="M59.4606,324.329l 4.53543, -0.650507l 4.53543, -0.737736l 4.53543, -0.834205l 4.53543, -0.940507l 4.53543, -1.05721l 4.53543, -1.18487l 4.53543, -1.32396l 4.53543, -1.47494l 4.53543, -1.63816l 4.53543, -1.81392l 4.53543, -2.00238l 4.53543,
 -2.20362l 4.53543, -2.41755l 4.53543, -2.64398l 4.53543, -2.88249l 4.53543, -3.13255l 4.53543, -3.39339l 4.53543, -3.66405l 4.53543, -3.94338l 4.53543, -4.22997l 4.53543, -4.52223l 4.53543, -4.81832l 4.53543, -5.11618l 4.53543, -5.41354l 4.53543,
 -5.70795l 4.53543, -5.99673l 4.53543, -6.27707l 4.53543, -6.54599l 4.53543, -6.80041l 4.53543, -7.03715l 4.53543, -7.25302l 4.53543, -7.44477l 4.53543, -7.60924l 4.53543, -7.7433l 4.53543, -7.844l 4.53543, -7.90853l 4.53543, -7.93431l 4.53543,
 -7.91905l 4.53543, -7.86075l 4.53543, -7.7578l 4.53543, -7.60895l 4.53543, -7.41343l 4.53543, -7.1709l 4.53543, -6.88151l 4.53543, -6.54591l 4.53543, -6.16529l 4.53543, -5.74132l 4.53543, -5.27618l 4.53543, -4.77254" fill="none" stroke="#00ff00"
 stroke-width="2"/>
<path d="M281.697,89.0738l 4.53543, -4.23356l 4.53543, -3.66281l 4.53543, -3.06426l 4.53543, -2.44223l 4.53543, -1.80136l 4.53543, -1.14651l 4.53543, -0.48273l 4.53543, 0.184822l 4.53543, 0.85093l 4.53543, 1.5104l 4.53543, 2.15813l 4.53543, 2.78915l
 4.53543, 3.39874l 4.53543, 3.98242l 4.53543, 4.53605l 4.53543, 5.05588l 4.53543, 5.53857l 4.53543, 5.98122l 4.53543, 6.38144l 4.53543, 6.73731l 4.53543, 7.04745l 4.53543, 7.31095l 4.53543, 7.52745l 4.53543, 7.69707l 4.53543, 7.82038l 4.53543,
 7.89844l 4.53543, 7.9327l 4.53543, 7.92497l 4.53543, 7.87744l 4.53543, 7.79256l 4.53543, 7.67303l 4.53543, 7.52177l 4.53543, 7.34181l 4.53543, 7.13631l 4.53543, 6.90849l 4.53543, 6.66157l 4.53543, 6.39873l 4.53543, 6.12312l 4.53543, 5.83775l
 4.53543, 5.54552l 4.53543, 5.24915l 4.53543, 4.95122l 4.53543, 4.65408l 4.53543, 4.35987l 4.53543, 4.07054l 4.53543, 3.78778l 4.53543, 3.51309l 4.53543, 3.24774l 4.53543, 2.99276" fill="none" stroke="#00ff00" stroke-width="2"/>
<path d="M503.933,302.149l 4.53543, 2.74901" fill="none" stroke="#00ff00" stroke-width="2"/>
<text x="156.069" y="17.9503" fill="black" font-size="18.4239" font-family="Helvetica">
Wk1/Ascii/133Ba_spectrum.Spe
</text></svg>
