<?xml version="1.0" standalone="no"?>
<svg width="567.429" height="416.822" viewBox="0 0 567.429 416.822" xmlns="http://www.w3.org/2000/svg">
<title>
/home/ADF/hyw543/Coincidence/c1.svg
</title>
<desc>
Creator: ROOT Version 6.06/08
CreationDate: Tue Jan  8 18:19:18 2019</desc>
<defs>
</defs>
<rect x="0.5" y="0" width="566.929" height="416.322" fill="white"/>
<rect x="86.5613" y="41.9772" width="453.974" height="332.367" fill="white"/>
<rect x="86.5613" y="41.9772" width="453.974" height="332.367" fill="none" stroke="black"/>
<rect x="86.5613" y="41.9772" width="453.974" height="332.367" fill="white"/>
<rect x="86.5613" y="41.9772" width="453.974" height="332.367" fill="none" stroke="black"/>
<path d="M86.5613,353.359h 2.26987v 0.540402h 2.26987v -0.90067h 2.26987v -0.225167h 2.26987v 0.315234h 2.26987v -1.84637h 2.26987v -0.315234h 2.26987v -0.945703h 2.26987v -0.945703h 2.26987v -1.03577h 2.26987v -3.33248h 2.26987v -0.540402h 2.26987v
 -1.93644h 2.26987v -1.03577h 2.26987v -4.05301h 2.26987v 0.495368h 2.26987v -5.22388h 2.26987v -3.01724h 2.26987v -2.25167h 2.26987v -7.70073h 2.26987v 3.42254h 2.26987v -2.11657h 2.26987v -1.12584h 2.26987v -4.09805h 2.26987v -6.03449h 2.26987v
 2.34174h 2.26987v -0.225167h 2.26987v -3.51261h 2.26987v -2.56691h 2.26987v 0.090067h 2.26987v -0.765569h 2.26987v 1.4861h 2.26987v 0.945703h 2.26987v -3.01724h 2.26987v -3.69275h 2.26987v 1.0808h 2.26987v -1.30597h 2.26987v 0.270201h 2.26987v
 -1.75631h 2.26987v -4.23315h 2.26987v 3.33248h 2.26987v -4.68348h 2.26987v 0.810603h 2.26987v -0.495368h 2.26987v -5.85435h 2.26987v -2.92718h 2.26987v -3.73778h 2.26987v -0.585435h 2.26987v -4.72852h 2.26987v -4.27818h 2.26987v -2.38677h 2.26987v
 -4.27818h 2.26987v 0.090067h 2.26987v 0.360268h 2.26987v -1.80134h 2.26987v -9.77227h 2.26987v -0.450335h 2.26987v -0.0450335h 2.26987v -2.16161h 2.26987v -3.24241h 2.26987v 1.57617h 2.26987v -0.180134h 2.26987v -5.04375h 2.26987v 1.71127h 2.26987v
 0.810603h 2.26987v 4.90865h 2.26987v -2.74704h 2.26987v 6.43979h 2.26987v 0.495368h 2.26987v 2.43181h 2.26987v 5.76429h 2.26987v 5.89939h 2.26987v 2.97221h 2.26987v 2.47684h 2.26987v 4.72852h 2.26987v 5.58415h 2.26987v 9.32193h 2.26987v 1.17087h
 2.26987v 4.05301h 2.26987v 6.80006h 2.26987v 6.57489h 2.26987v -1.0808h 2.26987v 7.07026h 2.26987v 4.68348h 2.26987v 2.47684h 2.26987v 0.450335h 2.26987v 1.12584h 2.26987v 2.02651h 2.26987v 0.090067h 2.26987v 2.25167h 2.26987v -3.69275h 2.26987v
 -3.42254h 2.26987v -2.52188h 2.26987v -1.2159h 2.26987v -3.55765h 2.26987v -5.58415h 2.26987v -5.80932h 2.26987v -5.04375h 2.26987v -7.29542h 2.26987v -10.5829h 2.26987v -7.16032h 2.26987v -12.7445h 2.26987v -5.26892h 2.26987v -9.86233h 2.26987v
 -15.2664h 2.26987v -8.8716h 2.26987v -13.5551h 2.26987v -10.0425h 2.26987v -6.21462h 2.26987v -16.5273h 2.26987v -10.8981h 2.26987v -11.9339h 2.26987v -10.2676h 2.26987v -6.03449h 2.26987v -8.8716h 2.26987v -14.5458h 2.26987v -6.21462h 2.26987v
 -7.20536h 2.26987v -13.0147h 2.26987v -7.70073h 2.26987v -1.62121h 2.26987v -3.33248h 2.26987v -0.540402h 2.26987v -5.08878h 2.26987v -6.80006h 2.26987v 0.810603h 2.26987v 3.55765h 2.26987v -10.8531h 2.26987v 3.96295h 2.26987v 12.3842h 2.26987v
 4.99872h 2.26987v 6.66496h 2.26987v 7.16032h 2.26987v 5.62919h 2.26987v 9.1418h 2.26987v 5.35898h 2.26987v 11.0332h 2.26987v 15.7167h 2.26987v 8.6014h 2.26987v 12.0239h 2.26987v 13.8253h 2.26987v 2.52188h 2.26987v 13.9153h 2.26987v 11.5736h 2.26987v
 11.3935h 2.26987v 9.6822h 2.26987v 6.70999h 2.26987v 7.52059h 2.26987v 7.83583h 2.26987v 8.4663h 2.26987v 8.06099h 2.26987v 5.53912h 2.26987v 2.74704h 2.26987v 6.66496h 2.26987v 5.44905h 2.26987v -0.405301h 2.26987v 13.3299h 2.26987v -2.92718h
 2.26987v 1.12584h 2.26987v 4.14308h 2.26987v 2.02651h 2.26987v 2.83711h 2.26987v -0.405301h 2.26987v 2.34174h 2.26987v 3.96295h 2.26987v 0.495368h 2.26987v 0.720536h 2.26987v 4.72852h 2.26987v -2.52188h 2.26987v 4.14308h 2.26987v 1.89141h 2.26987v
 2.74704h 2.26987v 1.93644h 2.26987v 0.585435h 2.26987v 3.33248h 2.26987v 1.44107h 2.26987v 2.56691h 2.26987v 3.42254h 2.26987v 0.0450335h 2.26987v 2.97221h 2.26987v 1.53114h 2.26987v 4.00798h 2.26987v -0.180134h 2.26987v 4.32321h 2.26987v 1.75631h
 2.26987v 0.315234h 2.26987v 1.89141h 2.26987v 3.60268h 2.26987v 0.405301h 2.26987v 2.16161h 2.26987v -0.720536h 2.26987v 1.84637h 2.26987v 0.945703h 2.26987v 1.26094h 2.26987v 0.675502h 2.26987v -0.810603h 2.26987v 2.70201h 2.26987v 1.26094h
 2.26987v -0.495368h 2.26987v -1.0808h 2.26987" fill="none" stroke="#ff0000" stroke-width="2"/>
<path d="M88.8312,355.467l 4.53974, -1.47823l 4.53974, -1.88062l 4.53974, -2.32701l 4.53974, -2.8008l 4.53974, -3.27808l 4.53974, -3.72846l 4.53974, -4.11712l 4.53974, -4.40813l 4.53974, -4.56887l 4.53974, -4.57519l 4.53974, -4.4165l 4.53974,
 -4.10026l 4.53974, -3.65458l 4.53974, -3.1285l 4.53974, -2.58896l 4.53974, -2.1146l 4.53974, -1.78633l 4.53974, -1.67572l 4.53974, -1.83256l 4.53974, -2.27339l 4.53974, -2.97311l 4.53974, -3.86166l 4.53974, -4.82723l 4.53974, -5.72658l 4.53974,
 -6.40187l 4.53974, -6.70219l 4.53974, -6.50646l 4.53974, -5.74414l 4.53974, -4.4098l 4.53974, -2.56858l 4.53974, -0.350978l 4.53974, 2.0624l 4.53974, 4.46383l 4.53974, 6.64509l 4.53974, 8.42307l 4.53974, 9.66001l 4.53974, 10.2753l 4.53974, 10.2475l
 4.53974, 9.60735l 4.53974, 8.4242l 4.53974, 6.78921l 4.53974, 4.79891l 4.53974, 2.54221l 4.53974, 0.0926698l 4.53974, -2.49321l 4.53974, -5.17235l 4.53974, -7.90759l 4.53974, -10.6583l 4.53974, -13.3715" fill="none" stroke="#0000ff"
 stroke-width="2"/>
<path d="M311.278,289.089l 4.53974, -15.9747l 4.53974, -18.3732l 4.53974, -20.4512l 4.53974, -22.0779l 4.53974, -23.118l 4.53974, -23.4451l 4.53974, -22.9564l 4.53974, -21.5878l 4.53974, -19.3257l 4.53974, -16.2154l 4.53974, -12.3634l 4.53974,
 -7.93398l 4.53974, -3.13881l 4.53974, 1.77842l 4.53974, 6.56133l 4.53974, 10.9619l 4.53974, 14.7607l 4.53974, 17.7847l 4.53974, 19.9202l 4.53974, 21.1193l 4.53974, 21.4011l 4.53974, 20.846l 4.53974, 19.5852l 4.53974, 17.7863l 4.53974, 15.637l
 4.53974, 13.328l 4.53974, 11.0372l 4.53974, 8.91687l 4.53974, 7.08345l 4.53974, 5.61201l 4.53974, 4.5348l 4.53974, 3.844l 4.53974, 3.49785l 4.53974, 3.42951l 4.53974, 3.55736l 4.53974, 3.79547l 4.53974, 4.06323l 4.53974, 4.29298l 4.53974, 4.43505l
 4.53974, 4.45999l 4.53974, 4.35802l 4.53974, 4.1363l 4.53974, 3.81471l 4.53974, 3.42095l 4.53974, 2.98568l 4.53974, 2.53843l 4.53974, 2.10457l 4.53974, 1.70352l 4.53974, 1.34807" fill="none" stroke="#0000ff" stroke-width="2"/>
<path d="M533.725,362.567l 4.53974, 1.04476" fill="none" stroke="#0000ff" stroke-width="2"/>
<rect x="30.6215" y="15.0607" width="201.168" height="231.29" fill="white"/>
<path d="M30.6215,246.351h 201.168" fill="none" stroke="black" stroke-width="2"/>
<path d="M231.79,246.351v -231.29" fill="none" stroke="black" stroke-width="2"/>
<path d="M231.79,15.0607h -201.168" fill="none" stroke="black" stroke-width="2"/>
<path d="M30.6215,15.0607v 231.29" fill="none" stroke="black" stroke-width="2"/>
<text x="51.061" y="26.8942" fill="black" font-size="11.9831" font-family="Helvetica">
 / ndf 
</text>
<text x="46.758" y="22.5911" fill="black" font-size="8.15538" font-family="Helvetica">
2
</text>
<text x="40.3034" y="26.8942" fill="black" font-size="11.9831" font-family="Times">
&#0967;
</text>
<text x="159.714" y="27.9699" fill="black" font-size="11.9831" font-family="Helvetica">
 276.1 / 186
</text>
<text x="40.3034" y="43.0307" fill="black" font-size="11.9831" font-family="Helvetica">
1-Centroid 
</text>
<text x="201.668" y="41.9549" fill="black" font-size="11.9831" font-family="Helvetica">
 0.7
</text>
<text x="195.214" y="41.9549" fill="black" font-size="11.9831" font-family="Times">
&#0177;
</text>
<text x="160.789" y="41.9549" fill="black" font-size="11.9831" font-family="Helvetica">
 332.4 
</text>
<text x="40.3034" y="58.0914" fill="black" font-size="11.9831" font-family="Helvetica">
1-FWHM   
</text>
<text x="195.214" y="57.0156" fill="black" font-size="11.9831" font-family="Helvetica">
 1.46
</text>
<text x="188.759" y="57.0156" fill="black" font-size="11.9831" font-family="Times">
&#0177;
</text>
<text x="154.335" y="57.0156" fill="black" font-size="11.9831" font-family="Helvetica">
 32.89 
</text>
<text x="40.3034" y="74.2279" fill="black" font-size="11.9831" font-family="Helvetica">
1-Counts 
</text>
<text x="162.941" y="73.1521" fill="black" font-size="11.9831" font-family="Helvetica">
 2.876e+03
</text>
<text x="156.486" y="73.1521" fill="black" font-size="11.9831" font-family="Times">
&#0177;
</text>
<text x="95.1675" y="73.1521" fill="black" font-size="11.9831" font-family="Helvetica">
 4.089e+04 
</text>
<text x="40.3034" y="89.2887" fill="black" font-size="11.9831" font-family="Helvetica">
2-Centroid 
</text>
<text x="201.668" y="88.2129" fill="black" font-size="11.9831" font-family="Helvetica">
 0.3
</text>
<text x="195.214" y="88.2129" fill="black" font-size="11.9831" font-family="Times">
&#0177;
</text>
<text x="160.789" y="88.2129" fill="black" font-size="11.9831" font-family="Helvetica">
 363.5 
</text>
<text x="40.3034" y="104.349" fill="black" font-size="11.9831" font-family="Helvetica">
2-FWHM   
</text>
<text x="195.214" y="103.274" fill="black" font-size="11.9831" font-family="Helvetica">
 0.42
</text>
<text x="188.759" y="103.274" fill="black" font-size="11.9831" font-family="Times">
&#0177;
</text>
<text x="154.335" y="103.274" fill="black" font-size="11.9831" font-family="Helvetica">
 29.58 
</text>
<text x="40.3034" y="120.486" fill="black" font-size="11.9831" font-family="Helvetica">
2-Counts 
</text>
<text x="162.941" y="119.41" fill="black" font-size="11.9831" font-family="Helvetica">
 1.849e+03
</text>
<text x="156.486" y="119.41" fill="black" font-size="11.9831" font-family="Times">
&#0177;
</text>
<text x="95.1675" y="119.41" fill="black" font-size="11.9831" font-family="Helvetica">
 7.861e+04 
</text>
<text x="40.3034" y="135.547" fill="black" font-size="11.9831" font-family="Helvetica">
3-Centroid 
</text>
<text x="203.82" y="134.471" fill="black" font-size="11.9831" font-family="Helvetica">
 0.1
</text>
<text x="197.365" y="134.471" fill="black" font-size="11.9831" font-family="Times">
&#0177;
</text>
<text x="162.941" y="134.471" fill="black" font-size="11.9831" font-family="Helvetica">
 425.2 
</text>
<text x="40.3034" y="150.607" fill="black" font-size="11.9831" font-family="Helvetica">
3-FWHM   
</text>
<text x="195.214" y="149.532" fill="black" font-size="11.9831" font-family="Helvetica">
 0.18
</text>
<text x="188.759" y="149.532" fill="black" font-size="11.9831" font-family="Times">
&#0177;
</text>
<text x="154.335" y="149.532" fill="black" font-size="11.9831" font-family="Helvetica">
 36.33 
</text>
<text x="40.3034" y="166.744" fill="black" font-size="11.9831" font-family="Helvetica">
3-Counts 
</text>
<text x="169.395" y="165.668" fill="black" font-size="11.9831" font-family="Helvetica">
 1.32e+03
</text>
<text x="162.941" y="165.668" fill="black" font-size="11.9831" font-family="Times">
&#0177;
</text>
<text x="109.152" y="165.668" fill="black" font-size="11.9831" font-family="Helvetica">
 2.59e+05 
</text>
<text x="40.3034" y="181.805" fill="black" font-size="11.9831" font-family="Helvetica">
4-Centroid 
</text>
<text x="201.668" y="180.729" fill="black" font-size="11.9831" font-family="Helvetica">
 0.4
</text>
<text x="195.214" y="180.729" fill="black" font-size="11.9831" font-family="Times">
&#0177;
</text>
<text x="160.789" y="180.729" fill="black" font-size="11.9831" font-family="Helvetica">
 465.6 
</text>
<text x="40.3034" y="196.865" fill="black" font-size="11.9831" font-family="Helvetica">
4-FWHM   
</text>
<text x="201.668" y="195.79" fill="black" font-size="11.9831" font-family="Helvetica">
 0.9
</text>
<text x="195.214" y="195.79" fill="black" font-size="11.9831" font-family="Times">
&#0177;
</text>
<text x="164.017" y="195.79" fill="black" font-size="11.9831" font-family="Helvetica">
  32.3 
</text>
<text x="40.3034" y="213.002" fill="black" font-size="11.9831" font-family="Helvetica">
4-Counts 
</text>
<text x="162.941" y="211.926" fill="black" font-size="11.9831" font-family="Helvetica">
 1.423e+03
</text>
<text x="156.486" y="211.926" fill="black" font-size="11.9831" font-family="Times">
&#0177;
</text>
<text x="95.1675" y="211.926" fill="black" font-size="11.9831" font-family="Helvetica">
 3.511e+04 
</text>
<text x="40.3034" y="226.987" fill="black" font-size="11.9831" font-family="Helvetica">
Intercept 
</text>
<text x="195.214" y="226.987" fill="black" font-size="11.9831" font-family="Helvetica">
 62.8
</text>
<text x="188.759" y="226.987" fill="black" font-size="11.9831" font-family="Times">
&#0177;
</text>
<text x="154.335" y="226.987" fill="black" font-size="11.9831" font-family="Helvetica">
 537.9 
</text>
<text x="40.3034" y="242.048" fill="black" font-size="11.9831" font-family="Helvetica">
Slope    
</text>
<text x="182.305" y="242.048" fill="black" font-size="11.9831" font-family="Helvetica">
 0.1386
</text>
<text x="175.85" y="242.048" fill="black" font-size="11.9831" font-family="Times">
&#0177;
</text>
<text x="138.198" y="242.048" fill="black" font-size="11.9831" font-family="Helvetica">
0.7068 
</text>
<text x="131.744" y="242.048" fill="black" font-size="11.9831" font-family="Times">
&#8722;
</text>
<text x="129.592" y="242.048" fill="black" font-size="11.9831" font-family="Helvetica">
 
</text>
<path d="M86.5613,374.345h 453.974" fill="none" stroke="black" stroke-width="2"/>
<text x="483.519" y="402.337" fill="black" font-size="13.8681" font-family="Helvetica">
Channels
</text>
<path d="M86.5613,364.343v 10.0012" fill="none" stroke="black" stroke-width="2"/>
<path d="M109.26,369.344v 5.0006" fill="none" stroke="black" stroke-width="2"/>
<path d="M131.959,369.344v 5.0006" fill="none" stroke="black" stroke-width="2"/>
<path d="M154.657,369.344v 5.0006" fill="none" stroke="black" stroke-width="2"/>
<path d="M177.356,369.344v 5.0006" fill="none" stroke="black" stroke-width="2"/>
<path d="M200.055,364.343v 10.0012" fill="none" stroke="black" stroke-width="2"/>
<path d="M222.753,369.344v 5.0006" fill="none" stroke="black" stroke-width="2"/>
<path d="M245.452,369.344v 5.0006" fill="none" stroke="black" stroke-width="2"/>
<path d="M268.151,369.344v 5.0006" fill="none" stroke="black" stroke-width="2"/>
<path d="M290.849,369.344v 5.0006" fill="none" stroke="black" stroke-width="2"/>
<path d="M313.548,364.343v 10.0012" fill="none" stroke="black" stroke-width="2"/>
<path d="M336.247,369.344v 5.0006" fill="none" stroke="black" stroke-width="2"/>
<path d="M358.946,369.344v 5.0006" fill="none" stroke="black" stroke-width="2"/>
<path d="M381.644,369.344v 5.0006" fill="none" stroke="black" stroke-width="2"/>
<path d="M404.343,369.344v 5.0006" fill="none" stroke="black" stroke-width="2"/>
<path d="M427.042,364.343v 10.0012" fill="none" stroke="black" stroke-width="2"/>
<path d="M449.74,369.344v 5.0006" fill="none" stroke="black" stroke-width="2"/>
<path d="M472.439,369.344v 5.0006" fill="none" stroke="black" stroke-width="2"/>
<path d="M495.138,369.344v 5.0006" fill="none" stroke="black" stroke-width="2"/>
<path d="M517.836,369.344v 5.0006" fill="none" stroke="black" stroke-width="2"/>
<path d="M540.535,364.343v 10.0012" fill="none" stroke="black" stroke-width="2"/>
<text x="74.7279" y="387.276" fill="black" font-size="13.8681" font-family="Helvetica">
300
</text>
<text x="187.683" y="387.276" fill="black" font-size="13.8681" font-family="Helvetica">
350
</text>
<text x="301.715" y="387.276" fill="black" font-size="13.8681" font-family="Helvetica">
400
</text>
<text x="414.67" y="387.276" fill="black" font-size="13.8681" font-family="Helvetica">
450
</text>
<text x="528.702" y="387.276" fill="black" font-size="13.8681" font-family="Helvetica">
500
</text>
<path d="M86.5613,374.345v -332.367" fill="none" stroke="black" stroke-width="2"/>
<path d="M100.139,374.345h -13.5781" fill="none" stroke="black" stroke-width="2"/>
<path d="M93.3504,365.338h -6.78905" fill="none" stroke="black" stroke-width="2"/>
<path d="M93.3504,356.331h -6.78905" fill="none" stroke="black" stroke-width="2"/>
<path d="M93.3504,347.324h -6.78905" fill="none" stroke="black" stroke-width="2"/>
<path d="M93.3504,338.318h -6.78905" fill="none" stroke="black" stroke-width="2"/>
<path d="M100.139,329.311h -13.5781" fill="none" stroke="black" stroke-width="2"/>
<path d="M93.3504,320.304h -6.78905" fill="none" stroke="black" stroke-width="2"/>
<path d="M93.3504,311.298h -6.78905" fill="none" stroke="black" stroke-width="2"/>
<path d="M93.3504,302.291h -6.78905" fill="none" stroke="black" stroke-width="2"/>
<path d="M93.3504,293.284h -6.78905" fill="none" stroke="black" stroke-width="2"/>
<path d="M100.139,284.278h -13.5781" fill="none" stroke="black" stroke-width="2"/>
<path d="M93.3504,275.271h -6.78905" fill="none" stroke="black" stroke-width="2"/>
<path d="M93.3504,266.264h -6.78905" fill="none" stroke="black" stroke-width="2"/>
<path d="M93.3504,257.258h -6.78905" fill="none" stroke="black" stroke-width="2"/>
<path d="M93.3504,248.251h -6.78905" fill="none" stroke="black" stroke-width="2"/>
<path d="M100.139,239.244h -13.5781" fill="none" stroke="black" stroke-width="2"/>
<path d="M93.3504,230.237h -6.78905" fill="none" stroke="black" stroke-width="2"/>
<path d="M93.3504,221.231h -6.78905" fill="none" stroke="black" stroke-width="2"/>
<path d="M93.3504,212.224h -6.78905" fill="none" stroke="black" stroke-width="2"/>
<path d="M93.3504,203.217h -6.78905" fill="none" stroke="black" stroke-width="2"/>
<path d="M100.139,194.211h -13.5781" fill="none" stroke="black" stroke-width="2"/>
<path d="M93.3504,185.204h -6.78905" fill="none" stroke="black" stroke-width="2"/>
<path d="M93.3504,176.197h -6.78905" fill="none" stroke="black" stroke-width="2"/>
<path d="M93.3504,167.191h -6.78905" fill="none" stroke="black" stroke-width="2"/>
<path d="M93.3504,158.184h -6.78905" fill="none" stroke="black" stroke-width="2"/>
<path d="M100.139,149.177h -13.5781" fill="none" stroke="black" stroke-width="2"/>
<path d="M93.3504,140.17h -6.78905" fill="none" stroke="black" stroke-width="2"/>
<path d="M93.3504,131.164h -6.78905" fill="none" stroke="black" stroke-width="2"/>
<path d="M93.3504,122.157h -6.78905" fill="none" stroke="black" stroke-width="2"/>
<path d="M93.3504,113.15h -6.78905" fill="none" stroke="black" stroke-width="2"/>
<path d="M100.139,104.144h -13.5781" fill="none" stroke="black" stroke-width="2"/>
<path d="M93.3504,95.137h -6.78905" fill="none" stroke="black" stroke-width="2"/>
<path d="M93.3504,86.1303h -6.78905" fill="none" stroke="black" stroke-width="2"/>
<path d="M93.3504,77.1236h -6.78905" fill="none" stroke="black" stroke-width="2"/>
<path d="M93.3504,68.1169h -6.78905" fill="none" stroke="black" stroke-width="2"/>
<path d="M100.139,59.1102h -13.5781" fill="none" stroke="black" stroke-width="2"/>
<path d="M100.139,59.1102h -13.5781" fill="none" stroke="black" stroke-width="2"/>
<path d="M93.3504,50.1035h -6.78905" fill="none" stroke="black" stroke-width="2"/>
<text x="75.8037" y="378.67" fill="black" font-size="13.8681" font-family="Helvetica">
0
</text>
<text x="52.1368" y="334.563" fill="black" font-size="13.8681" font-family="Helvetica">
1000
</text>
<text x="52.1368" y="289.381" fill="black" font-size="13.8681" font-family="Helvetica">
2000
</text>
<text x="52.1368" y="244.199" fill="black" font-size="13.8681" font-family="Helvetica">
3000
</text>
<text x="52.1368" y="199.017" fill="black" font-size="13.8681" font-family="Helvetica">
4000
</text>
<text x="52.1368" y="153.835" fill="black" font-size="13.8681" font-family="Helvetica">
5000
</text>
<text x="52.1368" y="108.652" fill="black" font-size="13.8681" font-family="Helvetica">
6000
</text>
<text x="52.1368" y="63.4702" fill="black" font-size="13.8681" font-family="Helvetica">
7000
</text>
<rect x="30.6215" y="15.0607" width="201.168" height="231.29" fill="white"/>
<path d="M30.6215,246.351h 201.168" fill="none" stroke="black" stroke-width="2"/>
<path d="M231.79,246.351v -231.29" fill="none" stroke="black" stroke-width="2"/>
<path d="M231.79,15.0607h -201.168" fill="none" stroke="black" stroke-width="2"/>
<path d="M30.6215,15.0607v 231.29" fill="none" stroke="black" stroke-width="2"/>
<text x="51.061" y="26.8942" fill="black" font-size="11.9831" font-family="Helvetica">
 / ndf 
</text>
<text x="46.758" y="22.5911" fill="black" font-size="8.15538" font-family="Helvetica">
2
</text>
<text x="40.3034" y="26.8942" fill="black" font-size="11.9831" font-family="Times">
&#0967;
</text>
<text x="159.714" y="27.9699" fill="black" font-size="11.9831" font-family="Helvetica">
 276.1 / 186
</text>
<text x="40.3034" y="43.0307" fill="black" font-size="11.9831" font-family="Helvetica">
1-Centroid 
</text>
<text x="201.668" y="41.9549" fill="black" font-size="11.9831" font-family="Helvetica">
 0.7
</text>
<text x="195.214" y="41.9549" fill="black" font-size="11.9831" font-family="Times">
&#0177;
</text>
<text x="160.789" y="41.9549" fill="black" font-size="11.9831" font-family="Helvetica">
 332.4 
</text>
<text x="40.3034" y="58.0914" fill="black" font-size="11.9831" font-family="Helvetica">
1-FWHM   
</text>
<text x="195.214" y="57.0156" fill="black" font-size="11.9831" font-family="Helvetica">
 1.46
</text>
<text x="188.759" y="57.0156" fill="black" font-size="11.9831" font-family="Times">
&#0177;
</text>
<text x="154.335" y="57.0156" fill="black" font-size="11.9831" font-family="Helvetica">
 32.89 
</text>
<text x="40.3034" y="74.2279" fill="black" font-size="11.9831" font-family="Helvetica">
1-Counts 
</text>
<text x="162.941" y="73.1521" fill="black" font-size="11.9831" font-family="Helvetica">
 2.876e+03
</text>
<text x="156.486" y="73.1521" fill="black" font-size="11.9831" font-family="Times">
&#0177;
</text>
<text x="95.1675" y="73.1521" fill="black" font-size="11.9831" font-family="Helvetica">
 4.089e+04 
</text>
<text x="40.3034" y="89.2887" fill="black" font-size="11.9831" font-family="Helvetica">
2-Centroid 
</text>
<text x="201.668" y="88.2129" fill="black" font-size="11.9831" font-family="Helvetica">
 0.3
</text>
<text x="195.214" y="88.2129" fill="black" font-size="11.9831" font-family="Times">
&#0177;
</text>
<text x="160.789" y="88.2129" fill="black" font-size="11.9831" font-family="Helvetica">
 363.5 
</text>
<text x="40.3034" y="104.349" fill="black" font-size="11.9831" font-family="Helvetica">
2-FWHM   
</text>
<text x="195.214" y="103.274" fill="black" font-size="11.9831" font-family="Helvetica">
 0.42
</text>
<text x="188.759" y="103.274" fill="black" font-size="11.9831" font-family="Times">
&#0177;
</text>
<text x="154.335" y="103.274" fill="black" font-size="11.9831" font-family="Helvetica">
 29.58 
</text>
<text x="40.3034" y="120.486" fill="black" font-size="11.9831" font-family="Helvetica">
2-Counts 
</text>
<text x="162.941" y="119.41" fill="black" font-size="11.9831" font-family="Helvetica">
 1.849e+03
</text>
<text x="156.486" y="119.41" fill="black" font-size="11.9831" font-family="Times">
&#0177;
</text>
<text x="95.1675" y="119.41" fill="black" font-size="11.9831" font-family="Helvetica">
 7.861e+04 
</text>
<text x="40.3034" y="135.547" fill="black" font-size="11.9831" font-family="Helvetica">
3-Centroid 
</text>
<text x="203.82" y="134.471" fill="black" font-size="11.9831" font-family="Helvetica">
 0.1
</text>
<text x="197.365" y="134.471" fill="black" font-size="11.9831" font-family="Times">
&#0177;
</text>
<text x="162.941" y="134.471" fill="black" font-size="11.9831" font-family="Helvetica">
 425.2 
</text>
<text x="40.3034" y="150.607" fill="black" font-size="11.9831" font-family="Helvetica">
3-FWHM   
</text>
<text x="195.214" y="149.532" fill="black" font-size="11.9831" font-family="Helvetica">
 0.18
</text>
<text x="188.759" y="149.532" fill="black" font-size="11.9831" font-family="Times">
&#0177;
</text>
<text x="154.335" y="149.532" fill="black" font-size="11.9831" font-family="Helvetica">
 36.33 
</text>
<text x="40.3034" y="166.744" fill="black" font-size="11.9831" font-family="Helvetica">
3-Counts 
</text>
<text x="169.395" y="165.668" fill="black" font-size="11.9831" font-family="Helvetica">
 1.32e+03
</text>
<text x="162.941" y="165.668" fill="black" font-size="11.9831" font-family="Times">
&#0177;
</text>
<text x="109.152" y="165.668" fill="black" font-size="11.9831" font-family="Helvetica">
 2.59e+05 
</text>
<text x="40.3034" y="181.805" fill="black" font-size="11.9831" font-family="Helvetica">
4-Centroid 
</text>
<text x="201.668" y="180.729" fill="black" font-size="11.9831" font-family="Helvetica">
 0.4
</text>
<text x="195.214" y="180.729" fill="black" font-size="11.9831" font-family="Times">
&#0177;
</text>
<text x="160.789" y="180.729" fill="black" font-size="11.9831" font-family="Helvetica">
 465.6 
</text>
<text x="40.3034" y="196.865" fill="black" font-size="11.9831" font-family="Helvetica">
4-FWHM   
</text>
<text x="201.668" y="195.79" fill="black" font-size="11.9831" font-family="Helvetica">
 0.9
</text>
<text x="195.214" y="195.79" fill="black" font-size="11.9831" font-family="Times">
&#0177;
</text>
<text x="164.017" y="195.79" fill="black" font-size="11.9831" font-family="Helvetica">
  32.3 
</text>
<text x="40.3034" y="213.002" fill="black" font-size="11.9831" font-family="Helvetica">
4-Counts 
</text>
<text x="162.941" y="211.926" fill="black" font-size="11.9831" font-family="Helvetica">
 1.423e+03
</text>
<text x="156.486" y="211.926" fill="black" font-size="11.9831" font-family="Times">
&#0177;
</text>
<text x="95.1675" y="211.926" fill="black" font-size="11.9831" font-family="Helvetica">
 3.511e+04 
</text>
<text x="40.3034" y="226.987" fill="black" font-size="11.9831" font-family="Helvetica">
Intercept 
</text>
<text x="195.214" y="226.987" fill="black" font-size="11.9831" font-family="Helvetica">
 62.8
</text>
<text x="188.759" y="226.987" fill="black" font-size="11.9831" font-family="Times">
&#0177;
</text>
<text x="154.335" y="226.987" fill="black" font-size="11.9831" font-family="Helvetica">
 537.9 
</text>
<text x="40.3034" y="242.048" fill="black" font-size="11.9831" font-family="Helvetica">
Slope    
</text>
<text x="182.305" y="242.048" fill="black" font-size="11.9831" font-family="Helvetica">
 0.1386
</text>
<text x="175.85" y="242.048" fill="black" font-size="11.9831" font-family="Times">
&#0177;
</text>
<text x="138.198" y="242.048" fill="black" font-size="11.9831" font-family="Helvetica">
0.7068 
</text>
<text x="131.744" y="242.048" fill="black" font-size="11.9831" font-family="Times">
&#8722;
</text>
<text x="129.592" y="242.048" fill="black" font-size="11.9831" font-family="Helvetica">
 
</text>
<path d="M88.8312,370.11l 4.53974, -1.54131l 4.53974, -1.94306l 4.53974, -2.38821l 4.53974, -2.85962l 4.53974, -3.33248l 4.53974, -3.77486l 4.53974, -4.14944l 4.53974, -4.41641l 4.53974, -4.53727l 4.53974, -4.47937l 4.53974, -4.22037l 4.53974,
 -3.75222l 4.53974, -3.08366l 4.53974, -2.24107l 4.53974, -1.26705l 4.53974, -0.216968l 4.53974, 0.846267l 4.53974, 1.85842l 4.53974, 2.76034l 4.53974, 3.50374l 4.53974, 4.05535l 4.53974, 4.39924l 4.53974, 4.53685l 4.53974, 4.48515l 4.53974, 4.27311l
 4.53974, 3.93741l 4.53974, 3.51785l 4.53974, 3.05316l 4.53974, 2.57775l 4.53974, 2.11943l 4.53974, 1.69847l 4.53974, 1.32757l 4.53974, 1.01265l 4.53974, 0.754172l 4.53974, 0.5486l 4.53974, 0.389905l 4.53974, 0.270832l 4.53974, 0.183901l 4.53974,
 0.122096l 4.53974, 0.0792741l 4.53974, 0.0503433l 4.53974, 0.0312747l 4.53974, 0.0451104h 27.2384" fill="none" stroke="#00ff00" stroke-width="2"/>
<path d="M311.278,374.345h 222.447" fill="none" stroke="#00ff00" stroke-width="2"/>
<path d="M533.725,374.345h 4.53974" fill="none" stroke="#00ff00" stroke-width="2"/>
<path d="M88.8312,374.345h 22.6987l 4.53974, -0.0361351l 4.53974, -0.0313412l 4.53974, -0.0553836l 4.53974, -0.0952655l 4.53974, -0.159481l 4.53974, -0.259791l 4.53974, -0.411705l 4.53974, -0.63459l 4.53974, -0.951091l 4.53974, -1.38557l 4.53974,
 -1.96129l 4.53974, -2.69625l 4.53974, -3.59778l 4.53974, -4.65654l 4.53974, -5.84073l 4.53974, -7.09201l 4.53974, -8.32435l 4.53974, -9.42734l 4.53974, -10.2746l 4.53974, -10.7372l 4.53974, -10.7007l 4.53974, -10.0835l 4.53974, -8.85309l 4.53974,
 -7.03768l 4.53974, -4.72884l 4.53974, -2.07527l 4.53974, 0.732776l 4.53974, 3.48606l 4.53974, 5.98209l 4.53974, 8.04976l 4.53974, 9.56865l 4.53974, 10.48l 4.53974, 10.788l 4.53974, 10.5525l 4.53974, 9.87437l 4.53974, 8.87793l 4.53974, 7.69271l
 4.53974, 6.43816l 4.53974, 5.21273l 4.53974, 4.08818l 4.53974, 3.10869l 4.53974, 2.29374l 4.53974, 1.64324l 4.53974, 1.1436" fill="none" stroke="#00ff00" stroke-width="2"/>
<path d="M311.278,372.25l 4.53974, 0.773473l 4.53974, 0.508595l 4.53974, 0.325227l 4.53974, 0.202303l 4.53974, 0.122438l 4.53974, 0.0721127l 4.53974, 0.0413394l 4.53974, 0.0489326h 186.129" fill="none" stroke="#00ff00" stroke-width="2"/>
<path d="M533.725,374.345h 4.53974" fill="none" stroke="#00ff00" stroke-width="2"/>
<path d="M88.8312,374.345h 131.652l 4.53974, -0.054295l 4.53974, -0.0378345l 4.53974, -0.0616045l 4.53974, -0.0985407l 4.53974, -0.154833l 4.53974, -0.23896l 4.53974, -0.362207l 4.53974, -0.53916l 4.53974, -0.788055l 4.53974, -1.13089l 4.53974,
 -1.59311l 4.53974, -2.20273l 4.53974, -2.98874l 4.53974, -3.97862l 4.53974, -5.19502l 4.53974, -6.65162l 4.53974, -8.34842l 4.53974, -10.267l 4.53974, -12.3663l 4.53974, -14.5792" fill="none" stroke="#00ff00" stroke-width="2"/>
<path d="M311.278,302.707l 4.53974, -16.8118l 4.53974, -18.9449l 4.53974, -20.8388l 4.53974, -22.3414l 4.53974, -23.2997l 4.53974, -23.5732l 4.53974, -23.0483l 4.53974, -21.6525l 4.53974, -19.3657l 4.53974, -16.2275l 4.53974, -12.3394l 4.53974,
 -7.85981l 4.53974, -2.99448l 4.53974, 2.01964l 4.53974, 6.9333l 4.53974, 11.5055l 4.53974, 15.5233l 4.53974, 18.8177l 4.53974, 21.2757l 4.53974, 22.8457l 4.53974, 23.5364l 4.53974, 23.4109l 4.53974, 22.5759l 4.53974, 21.1677l 4.53974, 19.338l
 4.53974, 17.2401l 4.53974, 15.0168l 4.53974, 12.7919l 4.53974, 10.6643l 4.53974, 8.70646l 4.53974, 6.96425l 4.53974, 5.46026l 4.53974, 4.19769l 4.53974, 3.16515l 4.53974, 2.34141l 4.53974, 1.69962l 4.53974, 1.21089l 4.53974, 0.846847l 4.53974,
 0.581458l 4.53974, 0.392013l 4.53974, 0.259538l 4.53974, 0.168758l 4.53974, 0.107779l 4.53974, 0.0676148l 4.53974, 0.0416699l 4.53974, 0.0252293l 4.53974, 0.0350485h 9.07947" fill="none" stroke="#00ff00" stroke-width="2"/>
<path d="M533.725,374.345h 4.53974" fill="none" stroke="#00ff00" stroke-width="2"/>
<path d="M88.8312,374.345h 222.447" fill="none" stroke="#00ff00" stroke-width="2"/>
<path d="M311.278,374.345h 31.7782l 4.53974, -0.0524832l 4.53974, -0.0362402l 4.53974, -0.0581216l 4.53974, -0.0911037l 4.53974, -0.139546l 4.53974, -0.208834l 4.53974, -0.30528l 4.53974, -0.435818l 4.53974, -0.607436l 4.53974, -0.826305l 4.53974,
 -1.09662l 4.53974, -1.41921l 4.53974, -1.79006l 4.53974, -2.19897l 4.53974, -2.62862l 4.53974, -3.05437l 4.53974, -3.44501l 4.53974, -3.76467l 4.53974, -3.97583l 4.53974, -4.04331l 4.53974, -3.93868l 4.53974, -3.64456l 4.53974, -3.15812l 4.53974,
 -2.49311l 4.53974, -1.67993l 4.53974, -0.763508l 4.53974, 0.200696l 4.53974, 1.15229l 4.53974, 2.03218l 4.53974, 2.78868l 4.53974, 3.38247l 4.53974, 3.78993l 4.53974, 4.00432l 4.53974, 4.03482l 4.53974, 3.90388l 4.53974, 3.64327l 4.53974, 3.28967l
 4.53974, 2.88035l 4.53974, 2.44954l 4.53974, 2.0259l 4.53974, 1.63108l 4.53974, 1.27937" fill="none" stroke="#00ff00" stroke-width="2"/>
<path d="M533.725,370.977l 4.53974, 0.978252" fill="none" stroke="#00ff00" stroke-width="2"/>
<text x="160.789" y="20.4396" fill="black" font-size="17.2568" font-family="Helvetica">
Wk1/Ascii/133Ba_spectrum.Spe
</text></svg>
