<?xml version="1.0" standalone="no"?>
<svg width="567.429" height="356.479" viewBox="0 0 567.429 356.479" xmlns="http://www.w3.org/2000/svg">
<title>
/home/ADF/hyw543/Coincidence/c1.svg
</title>
<desc>
Creator: ROOT Version 6.06/08
CreationDate: Tue Jan  8 17:10:17 2019</desc>
<defs>
</defs>
<rect x="0.5" y="0" width="566.929" height="355.979" fill="white"/>
<rect x="57.1929" y="35.5979" width="453.543" height="284.783" fill="white"/>
<rect x="57.1929" y="35.5979" width="453.543" height="284.783" fill="none" stroke="black"/>
<rect x="57.1929" y="35.5979" width="453.543" height="284.783" fill="white"/>
<rect x="57.1929" y="35.5979" width="453.543" height="284.783" fill="none" stroke="black"/>
<path d="M57.1929,313.506h 1.32615v 2.43944h 1.32615v 0.221768h 1.32615v -0.887071h 1.32615v 1.99591h 1.32615v -2.88298h 1.32615v -0.443535h 1.32615v 2.43944h 1.32615v 0.665303h 1.32615v -2.66121h 1.32615v 1.55237h 1.32615v -1.55237h 1.32615v
 1.55237h 1.32615v 1.77414h 1.32615v -0.665303h 1.32615v -0.665303h 1.32615v -1.10884h 2.6523v -0.221768h 1.32615v 1.77414h 1.32615v -0.443535h 1.32615v 0.443535h 1.32615v -0.887071h 1.32615v 1.55237h 1.32615v -0.665303h 2.6523v -0.887071h 1.32615v
 0.443535h 1.32615v -0.221768h 1.32615v 0.887071h 1.32615v -0.443535h 1.32615v -0.221768h 1.32615v 1.10884h 1.32615v -1.33061h 1.32615v 1.99591h 1.32615v -3.10475h 1.32615v 0.221768h 1.32615v 0.665303h 1.32615v 1.99591h 1.32615v 0.221768h 1.32615v
 -1.33061h 1.32615v 0.665303h 1.32615v -0.665303h 1.32615v -0.887071h 1.32615v -1.33061h 1.32615v 2.43944h 1.32615v -0.665303h 1.32615v -1.10884h 1.32615v 0.221768h 2.6523v 1.55237h 1.32615v -1.10884h 1.32615v 0.221768h 1.32615v 1.10884h 1.32615v
 -1.99591h 1.32615v 1.55237h 1.32615v 0.221768h 2.6523v 0.665303h 1.32615v -2.21768h 1.32615v 1.77414h 1.32615v -1.33061h 1.32615v -0.665303h 1.32615v 0.443535h 1.32615v -0.665303h 1.32615v -0.221768h 1.32615v 1.99591h 1.32615v -2.21768h 2.6523v
 1.10884h 1.32615v -4.21359h 1.32615v 1.77414h 1.32615v -2.66121h 1.32615v -0.221768h 1.32615v 1.55237h 1.32615v -3.32652h 1.32615v 1.55237h 1.32615v -2.43944h 1.32615v 0.443535h 1.32615v -2.88298h 1.32615v -0.665303h 1.32615v -2.43944h 1.32615v
 -1.99591h 1.32615v 2.21768h 1.32615v -3.32652h 1.32615v -0.443535h 1.32615v -3.77005h 1.32615v 2.88298h 1.32615v -6.65303h 1.32615v -4.87889h 1.32615v -1.77414h 1.32615v -3.77005h 1.32615v -1.77414h 1.32615v -5.10066h 1.32615v -5.54419h 1.32615v
 -1.55237h 1.32615v -9.31424h 1.32615v -4.65712h 1.32615v -1.99591h 1.32615v -1.77414h 1.32615v -5.76596h 1.32615v -3.99182h 1.32615v -2.21768h 1.32615v -6.65303h 1.32615v -9.75778h 1.32615v -10.6448h 1.32615v 0.221768h 1.32615v -1.55237h 1.32615v
 -7.98364h 1.32615v -6.43126h 1.32615v -18.4067h 1.32615v 2.66121h 1.32615v -5.76596h 1.32615v -8.42717h 1.32615v -11.7537h 1.32615v -3.54828h 1.32615v -4.65712h 1.32615v -3.77005h 1.32615v -19.7373h 1.32615v -4.21359h 1.32615v 6.8748h 1.32615v
 -19.2938h 1.32615v 5.10066h 1.32615v -13.7496h 1.32615v -9.97955h 1.32615v -3.10475h 1.32615v -9.53601h 1.32615v -2.88298h 1.32615v -7.31833h 1.32615v 15.302h 1.32615v -21.7332h 1.32615v 5.32242h 1.32615v -12.419h 1.32615v 21.0679h 1.32615v -15.302h
 1.32615v -1.77414h 1.32615v -3.10475h 1.32615v 4.43535h 1.32615v -3.99182h 1.32615v 1.33061h 1.32615v 16.4108h 1.32615v -3.54828h 1.32615v -4.43535h 1.32615v 9.53601h 1.32615v 3.54828h 1.32615v 8.87071h 1.32615v 0.665303h 1.32615v 4.87889h 1.32615v
 4.21359h 1.32615v 7.5401h 1.32615v 13.7496h 1.32615v 14.8584h 1.32615v -5.98773h 1.32615v 11.7537h 1.32615v 5.54419h 1.32615v 14.4149h 1.32615v 0.887071h 1.32615v 5.32242h 1.32615v 8.87071h 1.32615v 16.8543h 1.32615v 8.64894h 1.32615v 6.8748h
 1.32615v 3.77005h 1.32615v 14.1931h 1.32615v -0.665303h 1.32615v 14.8584h 1.32615v 1.55237h 1.32615v 4.87889h 1.32615v 9.53601h 1.32615v -0.443535h 1.32615v 5.76596h 1.32615v 11.9755h 1.32615v -3.77005h 1.32615v 5.76596h 1.32615v 4.65712h 1.32615v
 4.65712h 1.32615v 7.31833h 1.32615v 0.443535h 1.32615v 0.443535h 1.32615v 4.65712h 1.32615v 5.32242h 1.32615v 0.887071h 1.32615v 2.43944h 1.32615v 5.76596h 1.32615v 0.221768h 1.32615v 0.665303h 1.32615v 1.77414h 1.32615v 1.10884h 1.32615v 2.66121h
 1.32615v -2.66121h 1.32615v 4.21359h 1.32615v 1.10884h 1.32615v 0.221768h 1.32615v 1.77414h 1.32615v -0.665303h 2.6523v 0.887071h 1.32615v 1.99591h 1.32615v -1.55237h 2.6523v 0.665303h 1.32615v 0.665303h 1.32615v 0.443535h 1.32615v 0.443535h 2.6523v
 -0.221768h 1.32615v 0.221768h 1.32615v -0.221768h 2.6523v -0.221768h 1.32615v 0.443535h 1.32615v 0.443535h 5.3046v -0.221768h 2.6523v -0.443535h 1.32615v 1.10884h 1.32615v -0.443535h 1.32615v 0.221768h 1.32615v -0.221768h 1.32615v 0.443535h 1.32615v
 -0.221768h 1.32615v 0.443535h 1.32615v -0.443535h 1.32615v 0.221768h 1.32615v -0.887071h 2.6523v 0.887071h 1.32615v -0.443535h 1.32615v 0.443535h 1.32615v -0.221768h 1.32615v -0.443535h 1.32615v -0.221768h 1.32615v 0.665303h 1.32615v 0.221768h
 1.32615v -0.665303h 1.32615v 0.443535h 2.6523v -0.221768h 1.32615v 0.443535h 1.32615v -0.221768h 1.32615v -0.665303h 1.32615v 0.443535h 1.32615v 0.221768h 2.6523v 0.221768h 1.32615v -0.443535h 5.3046v 0.221768h 1.32615v 0.221768h 1.32615v -0.665303h
 1.32615v 0.665303h 1.32615v -0.221768h 2.6523v -0.221768h 1.32615v -0.443535h 1.32615v 0.443535h 1.32615v -0.221768h 1.32615v 0.665303h 2.6523v -0.221768h 1.32615v -0.221768h 1.32615v -0.443535h 1.32615v 0.665303h 1.32615v 0.221768h 2.6523v
 -0.443535h 1.32615v 0.443535h 2.6523v 0.221768h 1.32615v -0.887071h 1.32615v 0.887071h 1.32615v -0.443535h 1.32615v 0.221768h 1.32615v -0.443535h 1.32615v 0.221768h 2.6523v -0.443535h 1.32615v 0.221768h 1.32615v 0.221768h 1.32615v 0.221768h 1.32615v
 -0.665303h 1.32615v 0.443535h 2.6523v 0.443535h 1.32615v -0.665303h 1.32615v -0.443535h 1.32615v 0.443535h 2.6523v 0.443535h 1.32615v -0.443535h 1.32615v 0.221768h 2.6523v -0.443535h 2.6523v 0.665303h 2.6523v 0.221768h 1.32615v -0.221768h 1.32615v
 -0.221768h 1.32615v 0.443535h 1.32615v -0.665303h 1.32615v -0.221768h 2.6523v 0.443535h 1.32615v 0.443535h 1.32615v -0.221768h 1.32615v -0.443535h 1.32615v 0.221768h 2.6523v 0.221768h 2.6523v -0.221768h 1.32615v 0.221768h 1.32615v 0.221768h 1.32615v
 -0.443535h 5.3046v 0.221768h 1.32615v -0.665303h 1.32615v 0.221768h 1.32615v 0.221768h 1.32615v 0.221768h 1.32615v -0.443535h 1.32615v 0.443535h 1.32615v -0.221768h 2.6523v 0.443535h 1.32615v -0.221768h 1.32615v 0.221768h 1.32615v -0.443535h 2.6523v
 -0.221768h 1.32615v -0.221768h 1.32615v 0.221768h 1.32615v 0.665303h 2.6523" fill="none" stroke="#ff0000" stroke-width="2"/>
<path d="M59.4606,316.058l 4.53543, 0.0578997l 4.53543, 0.0578978l 4.53543, 0.057893l 4.53543, 0.0578814l 4.53543, 0.0578538l 4.53543, 0.05779l 4.53543, 0.0576468l 4.53543, 0.0573343l 4.53543, 0.0566711l 4.53543, 0.0553033l 4.53543, 0.0525621l
 4.53543, 0.0472251l 4.53543, 0.0371324l 4.53543, 0.0185991l 4.53543, -0.014438l 4.53543, -0.0715856l 4.53543, -0.167475l 4.53543, -0.323468l 4.53543, -0.569374l 4.53543, -0.944741l 4.53543, -1.49914l 4.53543, -2.29058l 4.53543, -3.38129l 4.53543,
 -4.83l 4.53543, -6.68064l 4.53543, -8.94786l 4.53543, -11.6009l 4.53543, -14.5488l 4.53543, -17.6305l 4.53543, -20.6134l 4.53543, -23.2051l 4.53543, -25.0783l 4.53543, -25.9088l 4.53543, -25.4228l 4.53543, -23.4446l 4.53543, -19.9371l 4.53543,
 -15.0254l 4.53543, -8.99705l 4.53543, -2.27594l 4.53543, 4.62634l 4.53543, 11.175l 4.53543, 16.8804l 4.53543, 21.3588l 4.53543, 24.3739l 4.53543, 25.8547l 4.53543, 25.887l 4.53543, 24.6834l 4.53543, 22.5396l 4.53543, 19.7856" fill="none"
 stroke="#0000ff" stroke-width="2"/>
<path d="M281.697,250.543l 4.53543, 16.7409l 4.53543, 13.6806l 4.53543, 10.8146l 4.53543, 8.28038l 4.53543, 6.14797l 4.53543, 4.43157l 4.53543, 3.10526l 4.53543, 2.11882l 4.53543, 1.41132l 4.53543, 0.921246l 4.53543, 0.593005l 4.53543, 0.380232l
 4.53543, 0.246642l 4.53543, 0.165353l 4.53543, 0.117386l 4.53543, 0.0899284l 4.53543, 0.0746735l 4.53543, 0.0664455l 4.53543, 0.0621358l 4.53543, 0.0599431l 4.53543, 0.0588591l 4.53543, 0.0583384l 4.53543, 0.0580953l 4.53543, 0.0579849l 4.53543,
 0.0579362l 4.53543, 0.0383531h 104.315" fill="none" stroke="#0000ff" stroke-width="2"/>
<path d="M503.933,320.381h 4.53543" fill="none" stroke="#0000ff" stroke-width="2"/>
<rect x="351.996" y="23.1386" width="204.094" height="99.674" fill="white"/>
<path d="M351.996,122.813h 204.094" fill="none" stroke="black" stroke-width="2"/>
<path d="M556.091,122.813v -99.674" fill="none" stroke="black" stroke-width="2"/>
<path d="M556.091,23.1386h -204.094" fill="none" stroke="black" stroke-width="2"/>
<path d="M351.996,23.1386v 99.674" fill="none" stroke="black" stroke-width="2"/>
<text x="373.259" y="34.7589" fill="black" font-size="12.1974" font-family="Helvetica">
 / ndf 
</text>
<text x="368.465" y="31.1631" fill="black" font-size="8.2983" font-family="Helvetica">
2
</text>
<text x="361.273" y="34.7589" fill="black" font-size="12.1974" font-family="Times">
&#0967;
</text>
<text x="487.124" y="35.9575" fill="black" font-size="12.1974" font-family="Helvetica">
   515 / 325
</text>
<text x="361.273" y="52.7376" fill="black" font-size="12.1974" font-family="Helvetica">
Centroid 
</text>
<text x="527.876" y="52.7376" fill="black" font-size="12.1974" font-family="Helvetica">
 0.1
</text>
<text x="520.684" y="52.7376" fill="black" font-size="12.1974" font-family="Times">
&#0177;
</text>
<text x="485.926" y="52.7376" fill="black" font-size="12.1974" font-family="Helvetica">
 778.5 
</text>
<text x="361.273" y="69.5177" fill="black" font-size="12.1974" font-family="Helvetica">
FWHM     
</text>
<text x="519.486" y="68.3192" fill="black" font-size="12.1974" font-family="Helvetica">
 0.16
</text>
<text x="512.294" y="68.3192" fill="black" font-size="12.1974" font-family="Times">
&#0177;
</text>
<text x="478.734" y="68.3192" fill="black" font-size="12.1974" font-family="Helvetica">
 49.61 
</text>
<text x="361.273" y="85.0993" fill="black" font-size="12.1974" font-family="Helvetica">
Counts   
</text>
<text x="485.926" y="85.0993" fill="black" font-size="12.1974" font-family="Helvetica">
 2.568e+02
</text>
<text x="478.734" y="85.0993" fill="black" font-size="12.1974" font-family="Times">
&#0177;
</text>
<text x="416.408" y="85.0993" fill="black" font-size="12.1974" font-family="Helvetica">
 6.324e+04 
</text>
<text x="361.273" y="100.681" fill="black" font-size="12.1974" font-family="Helvetica">
Intercept 
</text>
<text x="519.486" y="101.879" fill="black" font-size="12.1974" font-family="Helvetica">
 2.28
</text>
<text x="512.294" y="101.879" fill="black" font-size="12.1974" font-family="Times">
&#0177;
</text>
<text x="477.536" y="101.879" fill="black" font-size="12.1974" font-family="Helvetica">
 68.79 
</text>
<text x="361.273" y="117.461" fill="black" font-size="12.1974" font-family="Helvetica">
Slope    
</text>
<text x="500.309" y="118.66" fill="black" font-size="12.1974" font-family="Helvetica">
 0.00268
</text>
<text x="493.117" y="118.66" fill="black" font-size="12.1974" font-family="Times">
&#0177;
</text>
<text x="447.571" y="118.66" fill="black" font-size="12.1974" font-family="Helvetica">
0.07634 
</text>
<text x="440.379" y="118.66" fill="black" font-size="12.1974" font-family="Times">
&#8722;
</text>
<text x="437.982" y="118.66" fill="black" font-size="12.1974" font-family="Helvetica">
 
</text>
<path d="M57.1929,320.381h 453.543" fill="none" stroke="black" stroke-width="2"/>
<text x="460.755" y="343.993" fill="black" font-size="11.9305" font-family="Helvetica">
Channels
</text>
<path d="M131.457,311.837v 8.54349" fill="none" stroke="black" stroke-width="2"/>
<path d="M157.98,316.109v 4.27175" fill="none" stroke="black" stroke-width="2"/>
<path d="M184.503,316.109v 4.27175" fill="none" stroke="black" stroke-width="2"/>
<path d="M211.026,316.109v 4.27175" fill="none" stroke="black" stroke-width="2"/>
<path d="M237.549,316.109v 4.27175" fill="none" stroke="black" stroke-width="2"/>
<path d="M264.072,311.837v 8.54349" fill="none" stroke="black" stroke-width="2"/>
<path d="M290.595,316.109v 4.27175" fill="none" stroke="black" stroke-width="2"/>
<path d="M317.118,316.109v 4.27175" fill="none" stroke="black" stroke-width="2"/>
<path d="M343.641,316.109v 4.27175" fill="none" stroke="black" stroke-width="2"/>
<path d="M370.164,316.109v 4.27175" fill="none" stroke="black" stroke-width="2"/>
<path d="M396.687,311.837v 8.54349" fill="none" stroke="black" stroke-width="2"/>
<path d="M131.457,311.837v 8.54349" fill="none" stroke="black" stroke-width="2"/>
<path d="M104.934,316.109v 4.27175" fill="none" stroke="black" stroke-width="2"/>
<path d="M78.4113,316.109v 4.27175" fill="none" stroke="black" stroke-width="2"/>
<path d="M396.687,311.837v 8.54349" fill="none" stroke="black" stroke-width="2"/>
<path d="M423.21,316.109v 4.27175" fill="none" stroke="black" stroke-width="2"/>
<path d="M449.733,316.109v 4.27175" fill="none" stroke="black" stroke-width="2"/>
<path d="M476.256,316.109v 4.27175" fill="none" stroke="black" stroke-width="2"/>
<path d="M502.779,316.109v 4.27175" fill="none" stroke="black" stroke-width="2"/>
<text x="120.358" y="332.007" fill="black" font-size="11.9305" font-family="Helvetica">
700
</text>
<text x="252.202" y="332.007" fill="black" font-size="11.9305" font-family="Helvetica">
800
</text>
<text x="385.245" y="332.007" fill="black" font-size="11.9305" font-family="Helvetica">
900
</text>
<path d="M57.1929,320.381v -284.783" fill="none" stroke="black" stroke-width="2"/>
<path d="M70.7992,320.381h -13.6063" fill="none" stroke="black" stroke-width="2"/>
<path d="M63.9961,309.293h -6.80315" fill="none" stroke="black" stroke-width="2"/>
<path d="M63.9961,298.204h -6.80315" fill="none" stroke="black" stroke-width="2"/>
<path d="M63.9961,287.116h -6.80315" fill="none" stroke="black" stroke-width="2"/>
<path d="M70.7992,276.027h -13.6063" fill="none" stroke="black" stroke-width="2"/>
<path d="M63.9961,264.939h -6.80315" fill="none" stroke="black" stroke-width="2"/>
<path d="M63.9961,253.851h -6.80315" fill="none" stroke="black" stroke-width="2"/>
<path d="M63.9961,242.762h -6.80315" fill="none" stroke="black" stroke-width="2"/>
<path d="M70.7992,231.674h -13.6063" fill="none" stroke="black" stroke-width="2"/>
<path d="M63.9961,220.585h -6.80315" fill="none" stroke="black" stroke-width="2"/>
<path d="M63.9961,209.497h -6.80315" fill="none" stroke="black" stroke-width="2"/>
<path d="M63.9961,198.409h -6.80315" fill="none" stroke="black" stroke-width="2"/>
<path d="M70.7992,187.32h -13.6063" fill="none" stroke="black" stroke-width="2"/>
<path d="M63.9961,176.232h -6.80315" fill="none" stroke="black" stroke-width="2"/>
<path d="M63.9961,165.143h -6.80315" fill="none" stroke="black" stroke-width="2"/>
<path d="M63.9961,154.055h -6.80315" fill="none" stroke="black" stroke-width="2"/>
<path d="M70.7992,142.967h -13.6063" fill="none" stroke="black" stroke-width="2"/>
<path d="M63.9961,131.878h -6.80315" fill="none" stroke="black" stroke-width="2"/>
<path d="M63.9961,120.79h -6.80315" fill="none" stroke="black" stroke-width="2"/>
<path d="M63.9961,109.702h -6.80315" fill="none" stroke="black" stroke-width="2"/>
<path d="M70.7992,98.6132h -13.6063" fill="none" stroke="black" stroke-width="2"/>
<path d="M63.9961,87.5248h -6.80315" fill="none" stroke="black" stroke-width="2"/>
<path d="M63.9961,76.4364h -6.80315" fill="none" stroke="black" stroke-width="2"/>
<path d="M63.9961,65.348h -6.80315" fill="none" stroke="black" stroke-width="2"/>
<path d="M70.7992,54.2596h -13.6063" fill="none" stroke="black" stroke-width="2"/>
<path d="M70.7992,54.2596h -13.6063" fill="none" stroke="black" stroke-width="2"/>
<path d="M63.9961,43.1712h -6.80315" fill="none" stroke="black" stroke-width="2"/>
<text x="46.0461" y="324.816" fill="black" font-size="11.9305" font-family="Helvetica">
0
</text>
<text x="32.8617" y="280.468" fill="black" font-size="11.9305" font-family="Helvetica">
200
</text>
<text x="32.8617" y="236.121" fill="black" font-size="11.9305" font-family="Helvetica">
400
</text>
<text x="32.8617" y="191.773" fill="black" font-size="11.9305" font-family="Helvetica">
600
</text>
<text x="32.8617" y="147.426" fill="black" font-size="11.9305" font-family="Helvetica">
800
</text>
<text x="26.8688" y="103.078" fill="black" font-size="11.9305" font-family="Helvetica">
1000
</text>
<text x="26.8688" y="58.7305" fill="black" font-size="11.9305" font-family="Helvetica">
1200
</text>
<rect x="351.996" y="23.1386" width="204.094" height="99.674" fill="white"/>
<path d="M351.996,122.813h 204.094" fill="none" stroke="black" stroke-width="2"/>
<path d="M556.091,122.813v -99.674" fill="none" stroke="black" stroke-width="2"/>
<path d="M556.091,23.1386h -204.094" fill="none" stroke="black" stroke-width="2"/>
<path d="M351.996,23.1386v 99.674" fill="none" stroke="black" stroke-width="2"/>
<text x="373.259" y="34.7589" fill="black" font-size="12.1974" font-family="Helvetica">
 / ndf 
</text>
<text x="368.465" y="31.1631" fill="black" font-size="8.2983" font-family="Helvetica">
2
</text>
<text x="361.273" y="34.7589" fill="black" font-size="12.1974" font-family="Times">
&#0967;
</text>
<text x="487.124" y="35.9575" fill="black" font-size="12.1974" font-family="Helvetica">
   515 / 325
</text>
<text x="361.273" y="52.7376" fill="black" font-size="12.1974" font-family="Helvetica">
Centroid 
</text>
<text x="527.876" y="52.7376" fill="black" font-size="12.1974" font-family="Helvetica">
 0.1
</text>
<text x="520.684" y="52.7376" fill="black" font-size="12.1974" font-family="Times">
&#0177;
</text>
<text x="485.926" y="52.7376" fill="black" font-size="12.1974" font-family="Helvetica">
 778.5 
</text>
<text x="361.273" y="69.5177" fill="black" font-size="12.1974" font-family="Helvetica">
FWHM     
</text>
<text x="519.486" y="68.3192" fill="black" font-size="12.1974" font-family="Helvetica">
 0.16
</text>
<text x="512.294" y="68.3192" fill="black" font-size="12.1974" font-family="Times">
&#0177;
</text>
<text x="478.734" y="68.3192" fill="black" font-size="12.1974" font-family="Helvetica">
 49.61 
</text>
<text x="361.273" y="85.0993" fill="black" font-size="12.1974" font-family="Helvetica">
Counts   
</text>
<text x="485.926" y="85.0993" fill="black" font-size="12.1974" font-family="Helvetica">
 2.568e+02
</text>
<text x="478.734" y="85.0993" fill="black" font-size="12.1974" font-family="Times">
&#0177;
</text>
<text x="416.408" y="85.0993" fill="black" font-size="12.1974" font-family="Helvetica">
 6.324e+04 
</text>
<text x="361.273" y="100.681" fill="black" font-size="12.1974" font-family="Helvetica">
Intercept 
</text>
<text x="519.486" y="101.879" fill="black" font-size="12.1974" font-family="Helvetica">
 2.28
</text>
<text x="512.294" y="101.879" fill="black" font-size="12.1974" font-family="Times">
&#0177;
</text>
<text x="477.536" y="101.879" fill="black" font-size="12.1974" font-family="Helvetica">
 68.79 
</text>
<text x="361.273" y="117.461" fill="black" font-size="12.1974" font-family="Helvetica">
Slope    
</text>
<text x="500.309" y="118.66" fill="black" font-size="12.1974" font-family="Helvetica">
 0.00268
</text>
<text x="493.117" y="118.66" fill="black" font-size="12.1974" font-family="Times">
&#0177;
</text>
<text x="447.571" y="118.66" fill="black" font-size="12.1974" font-family="Helvetica">
0.07634 
</text>
<text x="440.379" y="118.66" fill="black" font-size="12.1974" font-family="Times">
&#8722;
</text>
<text x="437.982" y="118.66" fill="black" font-size="12.1974" font-family="Helvetica">
 
</text>
<path d="M59.4606,320.381h 54.4252l 4.53543, -0.0416206l 4.53543, -0.0393018l 4.53543, -0.0723388l 4.53543, -0.129486l 4.53543, -0.225375l 4.53543, -0.381369l 4.53543, -0.627274l 4.53543, -1.00264l 4.53543, -1.55704l 4.53543, -2.34848l 4.53543,
 -3.43919l 4.53543, -4.8879l 4.53543, -6.73854l 4.53543, -9.00576l 4.53543, -11.6588l 4.53543, -14.6067l 4.53543, -17.6884l 4.53543, -20.6713l 4.53543, -23.263l 4.53543, -25.1362l 4.53543, -25.9667l 4.53543, -25.4807l 4.53543, -23.5025l 4.53543,
 -19.995l 4.53543, -15.0833l 4.53543, -9.05495l 4.53543, -2.33384l 4.53543, 4.56844l 4.53543, 11.1171l 4.53543, 16.8225l 4.53543, 21.3009l 4.53543, 24.316l 4.53543, 25.7968l 4.53543, 25.8291l 4.53543, 24.6255l 4.53543, 22.4817l 4.53543, 19.7277"
 fill="none" stroke="#00ff00" stroke-width="2"/>
<path d="M281.697,252.029l 4.53543, 16.683l 4.53543, 13.6227l 4.53543, 10.7567l 4.53543, 8.22248l 4.53543, 6.09007l 4.53543, 4.37367l 4.53543, 3.04735l 4.53543, 2.06092l 4.53543, 1.35342l 4.53543, 0.863345l 4.53543, 0.535105l 4.53543, 0.322331l
 4.53543, 0.188742l 4.53543, 0.107452l 4.53543, 0.0594857l 4.53543, 0.0320275l 4.53543, 0.0333283h 145.134" fill="none" stroke="#00ff00" stroke-width="2"/>
<path d="M503.933,320.381h 4.53543" fill="none" stroke="#00ff00" stroke-width="2"/>
<text x="164.706" y="16.7801" fill="black" font-size="17.33" font-family="Helvetica">
Wk1/Ascii/137Cs_spectrum.Spe
</text></svg>
