<?xml version="1.0" standalone="no"?>
<svg width="567.429" height="364.643" viewBox="0 0 567.429 364.643" xmlns="http://www.w3.org/2000/svg">
<title>
/home/ADF/hyw543/Coincidence/c1.svg
</title>
<desc>
Creator: ROOT Version 6.06/08
CreationDate: Tue Jan  8 17:01:26 2019</desc>
<defs>
</defs>
<rect x="0.5" y="0" width="566.929" height="364.143" fill="white"/>
<rect x="57.1929" y="36.4143" width="453.543" height="291.314" fill="white"/>
<rect x="57.1929" y="36.4143" width="453.543" height="291.314" fill="none" stroke="black"/>
<rect x="57.1929" y="36.4143" width="453.543" height="291.314" fill="white"/>
<rect x="57.1929" y="36.4143" width="453.543" height="291.314" fill="none" stroke="black"/>
<path d="M57.1929,318.766h 2.314v -1.62962h 4.62799v -0.271603h 2.314v 1.90122h 2.314v -0.814808h 2.314v -1.62962h 4.62799v 0.814808h 2.314v 0.679007h 2.314v 0.271603h 2.314v -1.76542h 2.314v 2.17282h 2.314v -1.08641h 4.62799v 0.271603h 2.314v
 2.03702h 2.314v -1.49382h 2.314v -1.76542h 2.314v 4.20984h 2.314v -1.90122h 2.314v -1.35801h 2.314v 0.135801h 2.314v 1.35801h 2.314v -3.12343h 2.314v 0.95061h 2.314v 0.814808h 2.314v 0.135801h 2.314v -0.407404h 2.314v -1.62962h 2.314v 1.49382h
 2.314v -0.814808h 2.314v 0.814808h 2.314v -0.95061h 2.314v -0.543206h 2.314v -0.95061h 2.314v -3.12343h 2.314v 0.95061h 2.314v -2.58023h 2.314v 3.12343h 2.314v -5.70366h 2.314v -0.135801h 2.314v -0.543206h 2.314v 2.17282h 2.314v -7.19747h 2.314v
 1.35801h 2.314v -5.97526h 2.314v -2.71603h 4.62799v -7.06167h 2.314v -2.30862h 2.314v -1.08641h 2.314v -0.135801h 2.314v -7.46908h 2.314v -4.88885h 2.314v -0.271603h 2.314v -7.19747h 2.314v -6.79007h 2.314v -10.1851h 2.314v 1.90122h 2.314v -4.61725h
 2.314v -3.93824h 2.314v -18.0616h 2.314v -0.814808h 2.314v -5.70366h 2.314v -5.29625h 2.314v -3.12343h 2.314v -10.8641h 2.314v -8.96289h 2.314v -11.8147h 2.314v -0.135801h 2.314v -15.8888h 2.314v -2.17282h 2.314v -3.12343h 2.314v -20.506h 2.314v
 9.09869h 2.314v -1.22221h 2.314v -26.0739h 2.314v -9.9135h 2.314v -2.03702h 2.314v -4.75305h 2.314v -8.82709h 2.314v -4.20984h 2.314v 2.85183h 2.314v -16.2962h 2.314v 2.98763h 2.314v -2.17282h 2.314v -3.39503h 2.314v 7.87648h 2.314v -17.3826h 2.314v
 -10.0493h 2.314v 17.6542h 2.314v 9.6419h 2.314v -1.49382h 2.314v -0.95061h 2.314v 6.38267h 2.314v 4.61725h 2.314v -0.407404h 2.314v 11.2715h 2.314v -7.33328h 2.314v 18.1974h 2.314v -1.90122h 2.314v 1.35801h 2.314v 20.0986h 2.314v 7.46908h 2.314v
 12.9011h 2.314v 8.28389h 2.314v -0.95061h 2.314v 11.8147h 2.314v 5.29625h 2.314v 22.9504h 2.314v -2.44443h 2.314v 15.4814h 2.314v 2.44443h 2.314v 8.14808h 2.314v 8.55549h 2.314v 7.46908h 2.314v 8.41969h 2.314v 5.02465h 2.314v 8.55549h 2.314v
 12.3579h 2.314v 4.48145h 2.314v -0.135801h 2.314v 5.56786h 2.314v 0.679007h 2.314v 12.7653h 2.314v -3.80244h 2.314v 7.60488h 2.314v -1.08641h 2.314v 8.41969h 2.314v 1.90122h 2.314v 2.30862h 2.314v 1.62962h 2.314v 1.22221h 2.314v 2.44443h 2.314v
 -0.271603h 2.314v -0.407404h 2.314v 2.85183h 2.314v 0.95061h 2.314v 2.17282h 2.314v -1.49382h 2.314v 2.71603h 2.314v -1.76542h 2.314v 1.35801h 2.314v -1.62962h 2.314v 1.76542h 2.314v 0.679007h 4.62799v -1.22221h 2.314v 1.90122h 2.314v -0.814808h
 2.314v 0.543206h 2.314v 1.22221h 2.314v -1.76542h 2.314v 1.76542h 2.314v -0.543206h 2.314v -1.49382h 2.314v 0.679007h 2.314v -0.679007h 2.314v 2.17282h 2.314v 0.135801h 2.314v -1.49382h 2.314v 3.25923h 2.314v -2.71603h 2.314v 1.62962h 2.314v
 -0.95061h 2.314v -0.135801h 2.314v 2.03702h 2.314v -2.85183h 2.314v 1.90122h 2.314v -1.22221h 2.314v 0.407404h 2.314v -0.543206h 2.314v -1.22221h 2.314v 1.08641h 2.314v 0.271603h 2.314v -0.543206h 2.314v -0.271603h 2.314v -0.95061h 2.314v 0.407404h
 2.314v 1.35801h 2.314v 0.95061h 2.314v -2.85183h 2.314v 0.407404h 2.314v 2.03702h 2.314v 1.35801h 2.314v -1.08641h 2.314v -0.543206h 2.314v -0.543206h 2.314v 0.814808h 2.314v -0.135801h 2.314v -2.58023h 2.314v 1.62962h 2.314v 1.62962h 2.314v
 -2.30862h 2.314v 0.95061h 2.314" fill="none" stroke="#ff0000" stroke-width="2"/>
<path d="M59.4606,317.493l 4.53543, 0.0475229l 4.53543, 0.0465507l 4.53543, 0.0450273l 4.53543, 0.0426703l 4.53543, 0.0390698l 4.53543, 0.0336402l 4.53543, 0.0255573l 4.53543, 0.0136805l 4.53543, -0.00354343l 4.53543, -0.0281935l 4.53543, -0.0630032l
 4.53543, -0.111501l 4.53543, -0.178154l 4.53543, -0.2685l 4.53543, -0.389261l 4.53543, -0.548394l 4.53543, -0.755082l 4.53543, -1.0196l 4.53543, -1.35308l 4.53543, -1.76703l 4.53543, -2.27277l 4.53543, -2.88059l 4.53543, -3.59872l 4.53543, -4.43216l
 4.53543, -5.38141l 4.53543, -6.44111l 4.53543, -7.59884l 4.53543, -8.83411l 4.53543, -10.1177l 4.53543, -11.4114l 4.53543, -12.6687l 4.53543, -13.8361l 4.53543, -14.8547l 4.53543, -15.6631l 4.53543, -16.2011l 4.53543, -16.413l 4.53543, -16.2519l
 4.53543, -15.6835l 4.53543, -14.6896l 4.53543, -13.2703l 4.53543, -11.4462l 4.53543, -9.25775l 4.53543, -6.76494l 4.53543, -4.04407l 4.53543, -1.18416l 4.53543, 1.71795l 4.53543, 4.56299l 4.53543, 7.25497l 4.53543, 9.70647" fill="none"
 stroke="#0000ff" stroke-width="2"/>
<path d="M281.697,89.3463l 4.53543, 11.8434l 4.53543, 13.6088l 4.53543, 14.9648l 4.53543, 15.8942l 4.53543, 16.3997l 4.53543, 16.5021l 4.53543, 16.2378l 4.53543, 15.6554l 4.53543, 14.8115l 4.53543, 13.7666l 4.53543, 12.5821l 4.53543, 11.3159l
 4.53543, 10.021l 4.53543, 8.74247l 4.53543, 7.51722l 4.53543, 6.37314l 4.53543, 5.32946l 4.53543, 4.39745l 4.53543, 3.58153l 4.53543, 2.88042l 4.53543, 2.28855l 4.53543, 1.79732l 4.53543, 1.39622l 4.53543, 1.07386l 4.53543, 0.818732l 4.53543,
 0.619835l 4.53543, 0.467035l 4.53543, 0.35133l 4.53543, 0.26495l 4.53543, 0.201356l 4.53543, 0.15518l 4.53543, 0.122104l 4.53543, 0.0987286l 4.53543, 0.0824281l 4.53543, 0.0712103l 4.53543, 0.063591l 4.53543, 0.0584827l 4.53543, 0.0551019l 4.53543,
 0.0528929l 4.53543, 0.0514679l 4.53543, 0.0505603l 4.53543, 0.0499894l 4.53543, 0.0496348l 4.53543, 0.0494174l 4.53543, 0.0492856l 4.53543, 0.0492068l 4.53543, 0.0491602l 4.53543, 0.049133l 4.53543, 0.0491174" fill="none" stroke="#0000ff"
 stroke-width="2"/>
<path d="M503.933,322.307l 4.53543, 0.0491084" fill="none" stroke="#0000ff" stroke-width="2"/>
<rect x="351.996" y="23.6693" width="204.094" height="101.96" fill="white"/>
<path d="M351.996,125.629h 204.094" fill="none" stroke="black" stroke-width="2"/>
<path d="M556.091,125.629v -101.96" fill="none" stroke="black" stroke-width="2"/>
<path d="M556.091,23.6693h -204.094" fill="none" stroke="black" stroke-width="2"/>
<path d="M351.996,23.6693v 101.96" fill="none" stroke="black" stroke-width="2"/>
<text x="373.365" y="35.9782" fill="black" font-size="12.7546" font-family="Helvetica">
 / ndf 
</text>
<text x="367.914" y="31.6172" fill="black" font-size="8.66974" font-family="Helvetica">
2
</text>
<text x="361.372" y="35.9782" fill="black" font-size="12.7546" font-family="Times">
&#0967;
</text>
<text x="485.661" y="37.0684" fill="black" font-size="12.7546" font-family="Helvetica">
 398.3 / 191
</text>
<text x="361.372" y="54.5124" fill="black" font-size="12.7546" font-family="Helvetica">
Centroid 
</text>
<text x="528.18" y="53.4222" fill="black" font-size="12.7546" font-family="Helvetica">
 0.1
</text>
<text x="521.639" y="53.4222" fill="black" font-size="12.7546" font-family="Times">
&#0177;
</text>
<text x="490.022" y="53.4222" fill="black" font-size="12.7546" font-family="Helvetica">
   605 
</text>
<text x="361.372" y="70.8661" fill="black" font-size="12.7546" font-family="Helvetica">
FWHM     
</text>
<text x="519.458" y="69.7759" fill="black" font-size="12.7546" font-family="Helvetica">
 0.14
</text>
<text x="512.917" y="69.7759" fill="black" font-size="12.7546" font-family="Times">
&#0177;
</text>
<text x="478.029" y="69.7759" fill="black" font-size="12.7546" font-family="Helvetica">
 42.99 
</text>
<text x="361.372" y="88.3101" fill="black" font-size="12.7546" font-family="Helvetica">
Counts   
</text>
<text x="486.751" y="87.2199" fill="black" font-size="12.7546" font-family="Helvetica">
 3.199e+02
</text>
<text x="480.209" y="87.2199" fill="black" font-size="12.7546" font-family="Times">
&#0177;
</text>
<text x="418.065" y="87.2199" fill="black" font-size="12.7546" font-family="Helvetica">
 8.564e+04 
</text>
<text x="361.372" y="103.574" fill="black" font-size="12.7546" font-family="Helvetica">
Intercept 
</text>
<text x="528.18" y="103.574" fill="black" font-size="12.7546" font-family="Helvetica">
 7.1
</text>
<text x="521.639" y="103.574" fill="black" font-size="12.7546" font-family="Times">
&#0177;
</text>
<text x="486.751" y="103.574" fill="black" font-size="12.7546" font-family="Helvetica">
 170.7 
</text>
<text x="361.372" y="121.018" fill="black" font-size="12.7546" font-family="Helvetica">
Slope    
</text>
<text x="506.375" y="121.018" fill="black" font-size="12.7546" font-family="Helvetica">
 0.0110
</text>
<text x="499.834" y="121.018" fill="black" font-size="12.7546" font-family="Times">
&#0177;
</text>
<text x="461.675" y="121.018" fill="black" font-size="12.7546" font-family="Helvetica">
0.1845 
</text>
<text x="454.043" y="121.018" fill="black" font-size="12.7546" font-family="Times">
&#8722;
</text>
<text x="451.863" y="121.018" fill="black" font-size="12.7546" font-family="Helvetica">
 
</text>
<path d="M57.1929,327.729h 453.543" fill="none" stroke="black" stroke-width="2"/>
<text x="461.675" y="353.24" fill="black" font-size="12.1927" font-family="Helvetica">
Channels
</text>
<path d="M135.869,318.989v 8.73943" fill="none" stroke="black" stroke-width="2"/>
<path d="M159.009,323.359v 4.36972" fill="none" stroke="black" stroke-width="2"/>
<path d="M182.149,323.359v 4.36972" fill="none" stroke="black" stroke-width="2"/>
<path d="M205.289,323.359v 4.36972" fill="none" stroke="black" stroke-width="2"/>
<path d="M228.429,323.359v 4.36972" fill="none" stroke="black" stroke-width="2"/>
<path d="M251.569,318.989v 8.73943" fill="none" stroke="black" stroke-width="2"/>
<path d="M274.709,323.359v 4.36972" fill="none" stroke="black" stroke-width="2"/>
<path d="M297.849,323.359v 4.36972" fill="none" stroke="black" stroke-width="2"/>
<path d="M320.988,323.359v 4.36972" fill="none" stroke="black" stroke-width="2"/>
<path d="M344.128,323.359v 4.36972" fill="none" stroke="black" stroke-width="2"/>
<path d="M367.268,318.989v 8.73943" fill="none" stroke="black" stroke-width="2"/>
<path d="M390.408,323.359v 4.36972" fill="none" stroke="black" stroke-width="2"/>
<path d="M413.548,323.359v 4.36972" fill="none" stroke="black" stroke-width="2"/>
<path d="M436.688,323.359v 4.36972" fill="none" stroke="black" stroke-width="2"/>
<path d="M459.828,323.359v 4.36972" fill="none" stroke="black" stroke-width="2"/>
<path d="M482.968,318.989v 8.73943" fill="none" stroke="black" stroke-width="2"/>
<path d="M135.869,318.989v 8.73943" fill="none" stroke="black" stroke-width="2"/>
<path d="M112.729,323.359v 4.36972" fill="none" stroke="black" stroke-width="2"/>
<path d="M89.5889,323.359v 4.36972" fill="none" stroke="black" stroke-width="2"/>
<path d="M66.4489,323.359v 4.36972" fill="none" stroke="black" stroke-width="2"/>
<path d="M482.968,318.989v 8.73943" fill="none" stroke="black" stroke-width="2"/>
<path d="M506.108,323.359v 4.36972" fill="none" stroke="black" stroke-width="2"/>
<text x="125.879" y="339.067" fill="black" font-size="12.1927" font-family="Helvetica">
550
</text>
<text x="241.445" y="339.067" fill="black" font-size="12.1927" font-family="Helvetica">
600
</text>
<text x="357.011" y="339.067" fill="black" font-size="12.1927" font-family="Helvetica">
650
</text>
<text x="472.578" y="339.067" fill="black" font-size="12.1927" font-family="Helvetica">
700
</text>
<path d="M57.1929,327.729v -291.314" fill="none" stroke="black" stroke-width="2"/>
<path d="M70.7992,327.729h -13.6063" fill="none" stroke="black" stroke-width="2"/>
<path d="M63.9961,320.939h -6.80315" fill="none" stroke="black" stroke-width="2"/>
<path d="M63.9961,314.149h -6.80315" fill="none" stroke="black" stroke-width="2"/>
<path d="M63.9961,307.358h -6.80315" fill="none" stroke="black" stroke-width="2"/>
<path d="M70.7992,300.568h -13.6063" fill="none" stroke="black" stroke-width="2"/>
<path d="M63.9961,293.778h -6.80315" fill="none" stroke="black" stroke-width="2"/>
<path d="M63.9961,286.988h -6.80315" fill="none" stroke="black" stroke-width="2"/>
<path d="M63.9961,280.198h -6.80315" fill="none" stroke="black" stroke-width="2"/>
<path d="M70.7992,273.408h -13.6063" fill="none" stroke="black" stroke-width="2"/>
<path d="M63.9961,266.618h -6.80315" fill="none" stroke="black" stroke-width="2"/>
<path d="M63.9961,259.828h -6.80315" fill="none" stroke="black" stroke-width="2"/>
<path d="M63.9961,253.038h -6.80315" fill="none" stroke="black" stroke-width="2"/>
<path d="M70.7992,246.248h -13.6063" fill="none" stroke="black" stroke-width="2"/>
<path d="M63.9961,239.458h -6.80315" fill="none" stroke="black" stroke-width="2"/>
<path d="M63.9961,232.668h -6.80315" fill="none" stroke="black" stroke-width="2"/>
<path d="M63.9961,225.878h -6.80315" fill="none" stroke="black" stroke-width="2"/>
<path d="M70.7992,219.088h -13.6063" fill="none" stroke="black" stroke-width="2"/>
<path d="M63.9961,212.297h -6.80315" fill="none" stroke="black" stroke-width="2"/>
<path d="M63.9961,205.507h -6.80315" fill="none" stroke="black" stroke-width="2"/>
<path d="M63.9961,198.717h -6.80315" fill="none" stroke="black" stroke-width="2"/>
<path d="M70.7992,191.927h -13.6063" fill="none" stroke="black" stroke-width="2"/>
<path d="M63.9961,185.137h -6.80315" fill="none" stroke="black" stroke-width="2"/>
<path d="M63.9961,178.347h -6.80315" fill="none" stroke="black" stroke-width="2"/>
<path d="M63.9961,171.557h -6.80315" fill="none" stroke="black" stroke-width="2"/>
<path d="M70.7992,164.767h -13.6063" fill="none" stroke="black" stroke-width="2"/>
<path d="M63.9961,157.977h -6.80315" fill="none" stroke="black" stroke-width="2"/>
<path d="M63.9961,151.187h -6.80315" fill="none" stroke="black" stroke-width="2"/>
<path d="M63.9961,144.397h -6.80315" fill="none" stroke="black" stroke-width="2"/>
<path d="M70.7992,137.607h -13.6063" fill="none" stroke="black" stroke-width="2"/>
<path d="M63.9961,130.817h -6.80315" fill="none" stroke="black" stroke-width="2"/>
<path d="M63.9961,124.027h -6.80315" fill="none" stroke="black" stroke-width="2"/>
<path d="M63.9961,117.236h -6.80315" fill="none" stroke="black" stroke-width="2"/>
<path d="M70.7992,110.446h -13.6063" fill="none" stroke="black" stroke-width="2"/>
<path d="M63.9961,103.656h -6.80315" fill="none" stroke="black" stroke-width="2"/>
<path d="M63.9961,96.8663h -6.80315" fill="none" stroke="black" stroke-width="2"/>
<path d="M63.9961,90.0762h -6.80315" fill="none" stroke="black" stroke-width="2"/>
<path d="M70.7992,83.2861h -13.6063" fill="none" stroke="black" stroke-width="2"/>
<path d="M63.9961,76.4961h -6.80315" fill="none" stroke="black" stroke-width="2"/>
<path d="M63.9961,69.706h -6.80315" fill="none" stroke="black" stroke-width="2"/>
<path d="M63.9961,62.9159h -6.80315" fill="none" stroke="black" stroke-width="2"/>
<path d="M70.7992,56.1259h -13.6063" fill="none" stroke="black" stroke-width="2"/>
<path d="M70.7992,56.1259h -13.6063" fill="none" stroke="black" stroke-width="2"/>
<path d="M63.9961,49.3358h -6.80315" fill="none" stroke="black" stroke-width="2"/>
<path d="M63.9961,42.5457h -6.80315" fill="none" stroke="black" stroke-width="2"/>
<text x="47.3807" y="331.436" fill="black" font-size="12.1927" font-family="Helvetica">
0
</text>
<text x="34.2977" y="304.179" fill="black" font-size="12.1927" font-family="Helvetica">
200
</text>
<text x="34.2977" y="276.923" fill="black" font-size="12.1927" font-family="Helvetica">
400
</text>
<text x="34.2977" y="249.667" fill="black" font-size="12.1927" font-family="Helvetica">
600
</text>
<text x="34.2977" y="222.411" fill="black" font-size="12.1927" font-family="Helvetica">
800
</text>
<text x="27.7562" y="196.245" fill="black" font-size="12.1927" font-family="Helvetica">
1000
</text>
<text x="27.7562" y="168.988" fill="black" font-size="12.1927" font-family="Helvetica">
1200
</text>
<text x="27.7562" y="141.732" fill="black" font-size="12.1927" font-family="Helvetica">
1400
</text>
<text x="27.7562" y="114.476" fill="black" font-size="12.1927" font-family="Helvetica">
1600
</text>
<text x="27.7562" y="87.2199" fill="black" font-size="12.1927" font-family="Helvetica">
1800
</text>
<text x="27.7562" y="59.9637" fill="black" font-size="12.1927" font-family="Helvetica">
2000
</text>
<rect x="351.996" y="23.6693" width="204.094" height="101.96" fill="white"/>
<path d="M351.996,125.629h 204.094" fill="none" stroke="black" stroke-width="2"/>
<path d="M556.091,125.629v -101.96" fill="none" stroke="black" stroke-width="2"/>
<path d="M556.091,23.6693h -204.094" fill="none" stroke="black" stroke-width="2"/>
<path d="M351.996,23.6693v 101.96" fill="none" stroke="black" stroke-width="2"/>
<text x="373.365" y="35.9782" fill="black" font-size="12.7546" font-family="Helvetica">
 / ndf 
</text>
<text x="367.914" y="31.6172" fill="black" font-size="8.66974" font-family="Helvetica">
2
</text>
<text x="361.372" y="35.9782" fill="black" font-size="12.7546" font-family="Times">
&#0967;
</text>
<text x="485.661" y="37.0684" fill="black" font-size="12.7546" font-family="Helvetica">
 398.3 / 191
</text>
<text x="361.372" y="54.5124" fill="black" font-size="12.7546" font-family="Helvetica">
Centroid 
</text>
<text x="528.18" y="53.4222" fill="black" font-size="12.7546" font-family="Helvetica">
 0.1
</text>
<text x="521.639" y="53.4222" fill="black" font-size="12.7546" font-family="Times">
&#0177;
</text>
<text x="490.022" y="53.4222" fill="black" font-size="12.7546" font-family="Helvetica">
   605 
</text>
<text x="361.372" y="70.8661" fill="black" font-size="12.7546" font-family="Helvetica">
FWHM     
</text>
<text x="519.458" y="69.7759" fill="black" font-size="12.7546" font-family="Helvetica">
 0.14
</text>
<text x="512.917" y="69.7759" fill="black" font-size="12.7546" font-family="Times">
&#0177;
</text>
<text x="478.029" y="69.7759" fill="black" font-size="12.7546" font-family="Helvetica">
 42.99 
</text>
<text x="361.372" y="88.3101" fill="black" font-size="12.7546" font-family="Helvetica">
Counts   
</text>
<text x="486.751" y="87.2199" fill="black" font-size="12.7546" font-family="Helvetica">
 3.199e+02
</text>
<text x="480.209" y="87.2199" fill="black" font-size="12.7546" font-family="Times">
&#0177;
</text>
<text x="418.065" y="87.2199" fill="black" font-size="12.7546" font-family="Helvetica">
 8.564e+04 
</text>
<text x="361.372" y="103.574" fill="black" font-size="12.7546" font-family="Helvetica">
Intercept 
</text>
<text x="528.18" y="103.574" fill="black" font-size="12.7546" font-family="Helvetica">
 7.1
</text>
<text x="521.639" y="103.574" fill="black" font-size="12.7546" font-family="Times">
&#0177;
</text>
<text x="486.751" y="103.574" fill="black" font-size="12.7546" font-family="Helvetica">
 170.7 
</text>
<text x="361.372" y="121.018" fill="black" font-size="12.7546" font-family="Helvetica">
Slope    
</text>
<text x="506.375" y="121.018" fill="black" font-size="12.7546" font-family="Helvetica">
 0.0110
</text>
<text x="499.834" y="121.018" fill="black" font-size="12.7546" font-family="Times">
&#0177;
</text>
<text x="461.675" y="121.018" fill="black" font-size="12.7546" font-family="Helvetica">
0.1845 
</text>
<text x="454.043" y="121.018" fill="black" font-size="12.7546" font-family="Times">
&#8722;
</text>
<text x="451.863" y="121.018" fill="black" font-size="12.7546" font-family="Helvetica">
 
</text>
<path d="M59.4606,327.729h 22.6772l 4.53543, -0.04247l 4.53543, -0.02354l 4.53543, -0.0354168l 4.53543, -0.0526408l 4.53543, -0.0772908l 4.53543, -0.112101l 4.53543, -0.160598l 4.53543, -0.227251l 4.53543, -0.317598l 4.53543, -0.438358l 4.53543,
 -0.597492l 4.53543, -0.804179l 4.53543, -1.0687l 4.53543, -1.40218l 4.53543, -1.81613l 4.53543, -2.32187l 4.53543, -2.92969l 4.53543, -3.64781l 4.53543, -4.48126l 4.53543, -5.4305l 4.53543, -6.49021l 4.53543, -7.64794l 4.53543, -8.8832l 4.53543,
 -10.1668l 4.53543, -11.4605l 4.53543, -12.7178l 4.53543, -13.8852l 4.53543, -14.9038l 4.53543, -15.7122l 4.53543, -16.2502l 4.53543, -16.4621l 4.53543, -16.301l 4.53543, -15.7326l 4.53543, -14.7387l 4.53543, -13.3194l 4.53543, -11.4953l 4.53543,
 -9.30685l 4.53543, -6.81404l 4.53543, -4.09317l 4.53543, -1.23326l 4.53543, 1.66885l 4.53543, 4.5139l 4.53543, 7.20587l 4.53543, 9.65737" fill="none" stroke="#00ff00" stroke-width="2"/>
<path d="M281.697,97.1735l 4.53543, 11.7943l 4.53543, 13.5597l 4.53543, 14.9157l 4.53543, 15.8451l 4.53543, 16.3506l 4.53543, 16.453l 4.53543, 16.1887l 4.53543, 15.6063l 4.53543, 14.7624l 4.53543, 13.7175l 4.53543, 12.533l 4.53543, 11.2668l 4.53543,
 9.97187l 4.53543, 8.69337l 4.53543, 7.46812l 4.53543, 6.32404l 4.53543, 5.28036l 4.53543, 4.34836l 4.53543, 3.53243l 4.53543, 2.83132l 4.53543, 2.23945l 4.53543, 1.74822l 4.53543, 1.34712l 4.53543, 1.02476l 4.53543, 0.769635l 4.53543, 0.570737l
 4.53543, 0.417938l 4.53543, 0.302233l 4.53543, 0.215852l 4.53543, 0.152259l 4.53543, 0.106082l 4.53543, 0.0730064l 4.53543, 0.0496312l 4.53543, 0.0333307l 4.53543, 0.022113l 4.53543, 0.0397029h 58.9606" fill="none" stroke="#00ff00"
 stroke-width="2"/>
<path d="M503.933,327.729h 4.53543" fill="none" stroke="#00ff00" stroke-width="2"/>
<text x="159.676" y="17.444" fill="black" font-size="17.1848" font-family="Helvetica">
Wk1/Ascii/22Na_spectrum2.Spe
</text></svg>
