<?xml version="1.0" standalone="no"?>
<svg width="567.429" height="367.086" viewBox="0 0 567.429 367.086" xmlns="http://www.w3.org/2000/svg">
<title>
/home/ADF/hyw543/Coincidence/c1.svg
</title>
<desc>
Creator: ROOT Version 6.06/08
CreationDate: Tue Jan  8 16:58:16 2019</desc>
<defs>
</defs>
<rect x="0.5" y="0" width="566.929" height="366.586" fill="white"/>
<rect x="57.1929" y="36.6586" width="453.543" height="293.269" fill="white"/>
<rect x="57.1929" y="36.6586" width="453.543" height="293.269" fill="none" stroke="black"/>
<rect x="57.1929" y="36.6586" width="453.543" height="293.269" fill="white"/>
<rect x="57.1929" y="36.6586" width="453.543" height="293.269" fill="none" stroke="black"/>
<path d="M57.1929,309.238h 0.985964v 1.1494h 0.985964v 3.44819h 0.985964v -6.89638h 0.985964v 5.74698h 0.985964v -1.1494h 0.985964v -2.29879h 0.985964v 2.29879h 0.985964v -14.9422h 0.985964v 17.241h 0.985964v -3.44819h 0.985964v -12.6434h 0.985964v
 21.8385h 0.985964v -2.29879h 0.985964v -3.44819h 0.985964v -2.29879h 0.985964v 10.3446h 0.985964v -10.3446h 0.985964v 2.29879h 0.985964v -10.3446h 0.985964v 17.241h 0.985964v -6.89638h 0.985964v -3.44819h 0.985964v 10.3446h 0.985964v -12.6434h
 0.985964v 5.74698h 0.985964v -8.04578h 0.985964v 9.19518h 0.985964v -4.59759h 0.985964v 10.3446h 0.985964v -11.494h 0.985964v 4.59759h 1.97193v -9.19518h 0.985964v 10.3446h 1.97193v -1.1494h 0.985964v 8.04578h 0.985964v -5.74698h 0.985964v -3.44819h
 0.985964v 5.74698h 0.985964v -4.59759h 0.985964v 8.04578h 0.985964v -11.494h 0.985964v 1.1494h 0.985964v 11.494h 0.985964v -4.59759h 0.985964v 1.1494h 0.985964v -3.44819h 1.97193v 1.1494h 0.985964v -1.1494h 0.985964v 4.59759h 0.985964v -6.89638h
 0.985964v 3.44819h 0.985964v 3.44819h 0.985964v -10.3446h 0.985964v -2.29879h 0.985964v 2.29879h 0.985964v 8.04578h 0.985964v -1.1494h 0.985964v -9.19518h 0.985964v 8.04578h 0.985964v 8.04578h 0.985964v -21.8385h 0.985964v 20.6891h 0.985964v
 -4.59759h 0.985964v -2.29879h 0.985964v 2.29879h 0.985964v -5.74698h 0.985964v 4.59759h 0.985964v 5.74698h 0.985964v -5.74698h 0.985964v 3.44819h 0.985964v -6.89638h 0.985964v 9.19518h 0.985964v -8.04578h 0.985964v 4.59759h 0.985964v 1.1494h
 0.985964v 1.1494h 0.985964v -6.89638h 0.985964v 3.44819h 0.985964v 3.44819h 0.985964v -3.44819h 0.985964v -4.59759h 0.985964v 6.89638h 0.985964v 1.1494h 0.985964v 3.44819h 0.985964v -3.44819h 2.95789v 4.59759h 0.985964v -10.3446h 0.985964v 3.44819h
 0.985964v -2.29879h 0.985964v -3.44819h 0.985964v 5.74698h 0.985964v -1.1494h 0.985964v 3.44819h 0.985964v -8.04578h 0.985964v 6.89638h 0.985964v -4.59759h 0.985964v -1.1494h 0.985964v 5.74698h 1.97193v 4.59759h 0.985964v -12.6434h 0.985964v
 9.19518h 0.985964v 2.29879h 0.985964v -8.04578h 1.97193v 2.29879h 0.985964v -2.29879h 0.985964v 5.74698h 0.985964v -3.44819h 0.985964v -6.89638h 0.985964v 5.74698h 0.985964v -2.29879h 0.985964v 5.74698h 0.985964v -4.59759h 0.985964v -1.1494h
 1.97193v 2.29879h 0.985964v -3.44819h 0.985964v 5.74698h 0.985964v -6.89638h 0.985964v -3.44819h 0.985964v 6.89638h 0.985964v -2.29879h 0.985964v -5.74698h 0.985964v 11.494h 0.985964v -4.59759h 0.985964v -4.59759h 0.985964v 2.29879h 0.985964v
 -3.44819h 0.985964v -4.59759h 0.985964v -16.0916h 0.985964v 16.0916h 1.97193v 3.44819h 0.985964v -9.19518h 0.985964v -4.59759h 0.985964v 5.74698h 0.985964v -8.04578h 0.985964v -1.1494h 0.985964v -14.9422h 0.985964v 20.6891h 1.97193v -17.241h
 0.985964v 12.6434h 0.985964v 2.29879h 0.985964v -6.89638h 0.985964v -16.0916h 0.985964v -1.1494h 0.985964v 1.1494h 0.985964v -9.19518h 0.985964v -12.6434h 0.985964v 9.19518h 0.985964v -3.44819h 0.985964v 17.241h 0.985964v -50.5735h 0.985964v
 13.7928h 0.985964v 33.3325h 0.985964v -48.2747h 0.985964v -5.74698h 0.985964v 29.8843h 0.985964v -28.7349h 0.985964v -1.1494h 0.985964v 6.89638h 0.985964v -2.29879h 0.985964v -19.5397h 0.985964v -2.29879h 0.985964v -13.7928h 0.985964v 9.19518h
 0.985964v -1.1494h 0.985964v 6.89638h 0.985964v -16.0916h 0.985964v -2.29879h 0.985964v 13.7928h 0.985964v -32.1831h 0.985964v -18.3904h 0.985964v -4.59759h 0.985964v 4.59759h 0.985964v 1.1494h 0.985964v -16.0916h 0.985964v -25.2867h 0.985964v
 41.3783h 0.985964v -25.2867h 0.985964v 3.44819h 0.985964v -27.5855h 0.985964v 4.59759h 0.985964v 39.0795h 0.985964v -31.0337h 0.985964v -8.04578h 0.985964v 16.0916h 0.985964v -8.04578h 0.985964v -33.3325h 0.985964v 17.241h 0.985964v 4.59759h
 0.985964v -22.9879h 0.985964v 18.3904h 0.985964v -6.89638h 0.985964v 4.59759h 0.985964v 33.3325h 0.985964v -34.4819h 0.985964v -14.9422h 0.985964v 13.7928h 0.985964v -14.9422h 0.985964v 5.74698h 0.985964v 39.0795h 0.985964v -28.7349h 0.985964v
 -13.7928h 0.985964v -17.241h 0.985964v -6.89638h 0.985964v 35.6313h 0.985964v -6.89638h 0.985964v 10.3446h 0.985964v 21.8385h 0.985964v -17.241h 0.985964v 5.74698h 0.985964v -14.9422h 0.985964v 27.5855h 0.985964v -17.241h 0.985964v -1.1494h
 0.985964v 17.241h 0.985964v 13.7928h 0.985964v 11.494h 0.985964v 6.89638h 0.985964v -12.6434h 0.985964v 11.494h 0.985964v 1.1494h 0.985964v -6.89638h 0.985964v 16.0916h 0.985964v -1.1494h 0.985964v 19.5397h 0.985964v -3.44819h 0.985964v 12.6434h
 0.985964v -16.0916h 0.985964v 11.494h 0.985964v 31.0337h 0.985964v -24.1373h 0.985964v 9.19518h 0.985964v 19.5397h 0.985964v 12.6434h 0.985964v -16.0916h 0.985964v -14.9422h 0.985964v 27.5855h 1.97193v 4.59759h 0.985964v 8.04578h 0.985964v -3.44819h
 0.985964v 5.74698h 0.985964v 4.59759h 0.985964v 9.19518h 0.985964v -1.1494h 0.985964v 5.74698h 0.985964v -4.59759h 0.985964v -3.44819h 0.985964v 20.6891h 0.985964v -6.89638h 0.985964v 13.7928h 0.985964v 12.6434h 0.985964v -5.74698h 0.985964v 11.494h
 0.985964v -2.29879h 0.985964v -21.8385h 0.985964v 20.6891h 0.985964v -1.1494h 0.985964v -5.74698h 0.985964v 17.241h 0.985964v -10.3446h 0.985964v 6.89638h 0.985964v 8.04578h 0.985964v 2.29879h 0.985964v -10.3446h 0.985964v -4.59759h 0.985964v
 17.241h 1.97193v 4.59759h 0.985964v -5.74698h 0.985964v 3.44819h 0.985964v -5.74698h 0.985964v 9.19518h 0.985964v -2.29879h 0.985964v 9.19518h 0.985964v -9.19518h 0.985964v 8.04578h 0.985964v 1.1494h 1.97193v -6.89638h 0.985964v 5.74698h 0.985964v
 -2.29879h 0.985964v -3.44819h 1.97193v 6.89638h 0.985964v 1.1494h 0.985964v -2.29879h 0.985964v 1.1494h 0.985964v 6.89638h 0.985964v -11.494h 1.97193v 8.04578h 0.985964v -1.1494h 0.985964v -1.1494h 0.985964v 5.74698h 0.985964v -9.19518h 0.985964v
 5.74698h 0.985964v 2.29879h 0.985964v -1.1494h 1.97193v -4.59759h 0.985964v 5.74698h 0.985964v -8.04578h 0.985964v 2.29879h 0.985964v 1.1494h 0.985964v -3.44819h 1.97193v 4.59759h 0.985964v 1.1494h 0.985964v 1.1494h 0.985964v -3.44819h 0.985964v
 -1.1494h 0.985964v 3.44819h 0.985964v 2.29879h 0.985964v -5.74698h 0.985964v 3.44819h 0.985964v 2.29879h 0.985964v -2.29879h 0.985964v -1.1494h 0.985964v -9.19518h 0.985964v 8.04578h 0.985964v 1.1494h 1.97193v 2.29879h 0.985964v 2.29879h 0.985964v
 -3.44819h 0.985964v 3.44819h 0.985964v -6.89638h 0.985964v 2.29879h 0.985964v -3.44819h 0.985964v 5.74698h 0.985964v 2.29879h 0.985964v -3.44819h 0.985964v -4.59759h 2.95789v 3.44819h 0.985964v -1.1494h 0.985964v 2.29879h 2.95789v -4.59759h
 0.985964v 4.59759h 0.985964v 1.1494h 0.985964v -2.29879h 1.97193v -2.29879h 0.985964v -1.1494h 0.985964v 1.1494h 0.985964v 1.1494h 0.985964v 2.29879h 0.985964v -3.44819h 0.985964v 5.74698h 0.985964v -9.19518h 0.985964v 9.19518h 0.985964v -8.04578h
 0.985964v 2.29879h 0.985964v 1.1494h 0.985964v 3.44819h 0.985964v -1.1494h 0.985964v 1.1494h 0.985964v -2.29879h 1.97193v -1.1494h 1.97193v -4.59759h 0.985964v -3.44819h 0.985964v 10.3446h 0.985964v -1.1494h 1.97193v 1.1494h 0.985964v 1.1494h
 0.985964v -3.44819h 0.985964v 1.1494h 0.985964v -1.1494h 0.985964v 4.59759h 1.97193v -8.04578h 0.985964v -2.29879h 0.985964v 10.3446h 0.985964v -3.44819h 0.985964v -1.1494h 0.985964v 2.29879h 0.985964v -1.1494h 0.985964v 2.29879h 0.985964v -3.44819h
 1.97193v -2.29879h 0.985964v -1.1494h 0.985964v 2.29879h 0.985964v -3.44819h 0.985964v 1.1494h 0.985964v 1.1494h 0.985964v 2.29879h 0.985964v -3.44819h 0.985964v -2.29879h 0.985964v 5.74698h 0.985964v 1.1494h 0.985964v 1.1494h 1.97193v -6.89638h
 0.985964v 2.29879h 0.985964v 1.1494h 0.985964v -1.1494h 0.985964v -6.89638h 0.985964v 11.494h 0.985964v -3.44819h 0.985964v -5.74698h 0.985964v 5.74698h 0.985964v 2.29879h 0.985964v -3.44819h 0.985964v 2.29879h 0.985964v -2.29879h 0.985964v
 -3.44819h 0.985964v -3.44819h 0.985964v 10.3446h 2.95789v -4.59759h 0.985964v 3.44819h 0.985964v -4.59759h 0.985964v 8.04578h 0.985964v -2.29879h 0.985964v 1.1494h 1.97193v -2.29879h 0.985964v 3.44819h 0.985964v -3.44819h 0.985964v 2.29879h
 0.985964v -4.59759h 0.985964v 2.29879h 0.985964v -3.44819h 0.985964v 5.74698h 0.985964v -2.29879h 0.985964v -5.74698h 0.985964v 2.29879h 0.985964v 3.44819h 1.97193v 1.1494h 0.985964v -1.1494h 1.97193v 4.59759h 0.985964v -8.04578h 0.985964v -2.29879h
 0.985964v 2.29879h 0.985964v 3.44819h 0.985964v 3.44819h 0.985964v -2.29879h 0.985964v 2.29879h 1.97193" fill="none" stroke="#ff0000" stroke-width="2"/>
<path d="M59.4606,317.858l 4.53543, 0.067441l 4.53543, 0.067441l 4.53543, 0.0674409l 4.53543, 0.0674407l 4.53543, 0.0674403l 4.53543, 0.0674391l 4.53543, 0.0674363l 4.53543, 0.0674294l 4.53543, 0.0674135l 4.53543, 0.0673773l 4.53543, 0.0672973l
 4.53543, 0.0671248l 4.53543, 0.0667627l 4.53543, 0.0660223l 4.53543, 0.0645484l 4.53543, 0.0616913l 4.53543, 0.0563005l 4.53543, 0.0464016l 4.53543, 0.0287161l 4.53543, -0.00201803l 4.53543, -0.0539529l 4.53543, -0.139257l 4.53543, -0.275391l
 4.53543, -0.486363l 4.53543, -0.803671l 4.53543, -1.2665l 4.53543, -1.92059l 4.53543, -2.81528l 4.53543, -3.99806l 4.53543, -5.50654l 4.53543, -7.35805l 4.53543, -9.5379l 4.53543, -11.9879l 4.53543, -14.5976l 4.53543, -17.2014l 4.53543, -19.5832l
 4.53543, -21.4912l 4.53543, -22.6626l 4.53543, -22.8554l 4.53543, -21.8852l 4.53543, -19.6579l 4.53543, -16.1956l 4.53543, -11.6471l 4.53543, -6.28088l 4.53543, -0.459843l 4.53543, 5.39934l 4.53543, 10.8754l 4.53543, 15.5925l 4.53543, 19.2631"
 fill="none" stroke="#0000ff" stroke-width="2"/>
<path d="M281.697,129.518l 4.53543, 21.7159l 4.53543, 22.9066l 4.53543, 22.9098l 4.53543, 21.8964l 4.53543, 20.1007l 4.53543, 17.7843l 4.53543, 15.2029l 4.53543, 12.5806l 4.53543, 10.0924l 4.53543, 7.8587l 4.53543, 5.94644l 4.53543, 4.37729l 4.53543,
 3.13875l 4.53543, 2.19599l 4.53543, 1.50263l 4.53543, 1.0092l 4.53543, 0.669018l 4.53543, 0.441613l 4.53543, 0.294096l 4.53543, 0.201179l 4.53543, 0.144319l 4.53543, 0.110501l 4.53543, 0.0909433l 4.53543, 0.0799428l 4.53543, 0.0739228l 4.53543,
 0.0707169l 4.53543, 0.0690549l 4.53543, 0.0682162l 4.53543, 0.067804l 4.53543, 0.0676068l 4.53543, 0.0675148l 4.53543, 0.0674731l 4.53543, 0.0674546l 4.53543, 0.0674466l 4.53543, 0.0674433l 4.53543, 0.0674419l 4.53543, 0.0674414l 4.53543, 0.0674412l
 4.53543, 0.0674411l 4.53543, 0.067441l 4.53543, 0.067441l 4.53543, 0.067441l 4.53543, 0.067441l 4.53543, 0.067441l 4.53543, 0.067441l 4.53543, 0.067441l 4.53543, 0.067441l 4.53543, 0.067441l 4.53543, 0.067441" fill="none" stroke="#0000ff"
 stroke-width="2"/>
<path d="M503.933,324.467l 4.53543, 0.067441" fill="none" stroke="#0000ff" stroke-width="2"/>
<rect x="351.996" y="23.8281" width="204.094" height="102.644" fill="white"/>
<path d="M351.996,126.472h 204.094" fill="none" stroke="black" stroke-width="2"/>
<path d="M556.091,126.472v -102.644" fill="none" stroke="black" stroke-width="2"/>
<path d="M556.091,23.8281h -204.094" fill="none" stroke="black" stroke-width="2"/>
<path d="M351.996,23.8281v 102.644" fill="none" stroke="black" stroke-width="2"/>
<text x="374.545" y="36.2323" fill="black" font-size="13.155" font-family="Helvetica">
 / ndf 
</text>
<text x="369.217" y="31.9697" fill="black" font-size="8.93666" font-family="Helvetica">
2
</text>
<text x="361.757" y="36.2323" fill="black" font-size="13.155" font-family="Times">
&#0967;
</text>
<text x="478.98" y="37.298" fill="black" font-size="13.155" font-family="Helvetica">
 639.3 / 455
</text>
<text x="361.757" y="54.3485" fill="black" font-size="13.155" font-family="Helvetica">
Centroid 
</text>
<text x="524.803" y="54.3485" fill="black" font-size="13.155" font-family="Helvetica">
 0.3
</text>
<text x="517.343" y="54.3485" fill="black" font-size="13.155" font-family="Times">
&#0177;
</text>
<text x="478.98" y="54.3485" fill="black" font-size="13.155" font-family="Helvetica">
  1472 
</text>
<text x="361.757" y="71.399" fill="black" font-size="13.155" font-family="Helvetica">
FWHM     
</text>
<text x="517.343" y="71.399" fill="black" font-size="13.155" font-family="Helvetica">
 0.50
</text>
<text x="509.884" y="71.399" fill="black" font-size="13.155" font-family="Times">
&#0177;
</text>
<text x="471.52" y="71.399" fill="black" font-size="13.155" font-family="Helvetica">
 69.19 
</text>
<text x="361.757" y="88.4495" fill="black" font-size="13.155" font-family="Helvetica">
Counts   
</text>
<text x="488.571" y="88.4495" fill="black" font-size="13.155" font-family="Helvetica">
 1.34e+02
</text>
<text x="481.111" y="88.4495" fill="black" font-size="13.155" font-family="Times">
&#0177;
</text>
<text x="421.434" y="88.4495" fill="black" font-size="13.155" font-family="Helvetica">
 1.56e+04 
</text>
<text x="361.757" y="104.434" fill="black" font-size="13.155" font-family="Helvetica">
Intercept 
</text>
<text x="517.343" y="105.5" fill="black" font-size="13.155" font-family="Helvetica">
 1.67
</text>
<text x="509.884" y="105.5" fill="black" font-size="13.155" font-family="Times">
&#0177;
</text>
<text x="471.52" y="105.5" fill="black" font-size="13.155" font-family="Helvetica">
 26.67 
</text>
<text x="361.757" y="121.485" fill="black" font-size="13.155" font-family="Helvetica">
Slope    
</text>
<text x="496.03" y="122.55" fill="black" font-size="13.155" font-family="Helvetica">
 0.00107
</text>
<text x="488.571" y="122.55" fill="black" font-size="13.155" font-family="Times">
&#0177;
</text>
<text x="439.55" y="122.55" fill="black" font-size="13.155" font-family="Helvetica">
0.01276 
</text>
<text x="432.091" y="122.55" fill="black" font-size="13.155" font-family="Times">
&#8722;
</text>
<text x="428.894" y="122.55" fill="black" font-size="13.155" font-family="Helvetica">
 
</text>
<path d="M57.1929,329.927h 453.543" fill="none" stroke="black" stroke-width="2"/>
<text x="461.929" y="354.864" fill="black" font-size="12.2711" font-family="Helvetica">
Channels
</text>
<path d="M91.7016,321.129v 8.79806" fill="none" stroke="black" stroke-width="2"/>
<path d="M111.421,325.528v 4.39903" fill="none" stroke="black" stroke-width="2"/>
<path d="M131.14,325.528v 4.39903" fill="none" stroke="black" stroke-width="2"/>
<path d="M150.859,325.528v 4.39903" fill="none" stroke="black" stroke-width="2"/>
<path d="M170.579,325.528v 4.39903" fill="none" stroke="black" stroke-width="2"/>
<path d="M190.298,321.129v 8.79806" fill="none" stroke="black" stroke-width="2"/>
<path d="M210.017,325.528v 4.39903" fill="none" stroke="black" stroke-width="2"/>
<path d="M229.737,325.528v 4.39903" fill="none" stroke="black" stroke-width="2"/>
<path d="M249.456,325.528v 4.39903" fill="none" stroke="black" stroke-width="2"/>
<path d="M269.175,325.528v 4.39903" fill="none" stroke="black" stroke-width="2"/>
<path d="M288.894,321.129v 8.79806" fill="none" stroke="black" stroke-width="2"/>
<path d="M308.614,325.528v 4.39903" fill="none" stroke="black" stroke-width="2"/>
<path d="M328.333,325.528v 4.39903" fill="none" stroke="black" stroke-width="2"/>
<path d="M348.052,325.528v 4.39903" fill="none" stroke="black" stroke-width="2"/>
<path d="M367.771,325.528v 4.39903" fill="none" stroke="black" stroke-width="2"/>
<path d="M387.491,321.129v 8.79806" fill="none" stroke="black" stroke-width="2"/>
<path d="M407.21,325.528v 4.39903" fill="none" stroke="black" stroke-width="2"/>
<path d="M426.929,325.528v 4.39903" fill="none" stroke="black" stroke-width="2"/>
<path d="M446.649,325.528v 4.39903" fill="none" stroke="black" stroke-width="2"/>
<path d="M466.368,325.528v 4.39903" fill="none" stroke="black" stroke-width="2"/>
<path d="M486.087,321.129v 8.79806" fill="none" stroke="black" stroke-width="2"/>
<path d="M91.7016,321.129v 8.79806" fill="none" stroke="black" stroke-width="2"/>
<path d="M71.9824,325.528v 4.39903" fill="none" stroke="black" stroke-width="2"/>
<path d="M486.087,321.129v 8.79806" fill="none" stroke="black" stroke-width="2"/>
<path d="M505.806,325.528v 4.39903" fill="none" stroke="black" stroke-width="2"/>
<text x="78.2929" y="341.01" fill="black" font-size="12.2711" font-family="Helvetica">
1300
</text>
<text x="177.399" y="341.01" fill="black" font-size="12.2711" font-family="Helvetica">
1400
</text>
<text x="275.439" y="341.01" fill="black" font-size="12.2711" font-family="Helvetica">
1500
</text>
<text x="374.545" y="341.01" fill="black" font-size="12.2711" font-family="Helvetica">
1600
</text>
<text x="472.586" y="341.01" fill="black" font-size="12.2711" font-family="Helvetica">
1700
</text>
<path d="M57.1929,329.927v -293.269" fill="none" stroke="black" stroke-width="2"/>
<path d="M70.7992,329.927h -13.6063" fill="none" stroke="black" stroke-width="2"/>
<path d="M63.9961,318.433h -6.80315" fill="none" stroke="black" stroke-width="2"/>
<path d="M63.9961,306.939h -6.80315" fill="none" stroke="black" stroke-width="2"/>
<path d="M63.9961,295.445h -6.80315" fill="none" stroke="black" stroke-width="2"/>
<path d="M63.9961,283.951h -6.80315" fill="none" stroke="black" stroke-width="2"/>
<path d="M70.7992,272.457h -13.6063" fill="none" stroke="black" stroke-width="2"/>
<path d="M63.9961,260.963h -6.80315" fill="none" stroke="black" stroke-width="2"/>
<path d="M63.9961,249.469h -6.80315" fill="none" stroke="black" stroke-width="2"/>
<path d="M63.9961,237.975h -6.80315" fill="none" stroke="black" stroke-width="2"/>
<path d="M63.9961,226.481h -6.80315" fill="none" stroke="black" stroke-width="2"/>
<path d="M70.7992,214.988h -13.6063" fill="none" stroke="black" stroke-width="2"/>
<path d="M63.9961,203.494h -6.80315" fill="none" stroke="black" stroke-width="2"/>
<path d="M63.9961,192h -6.80315" fill="none" stroke="black" stroke-width="2"/>
<path d="M63.9961,180.506h -6.80315" fill="none" stroke="black" stroke-width="2"/>
<path d="M63.9961,169.012h -6.80315" fill="none" stroke="black" stroke-width="2"/>
<path d="M70.7992,157.518h -13.6063" fill="none" stroke="black" stroke-width="2"/>
<path d="M63.9961,146.024h -6.80315" fill="none" stroke="black" stroke-width="2"/>
<path d="M63.9961,134.53h -6.80315" fill="none" stroke="black" stroke-width="2"/>
<path d="M63.9961,123.036h -6.80315" fill="none" stroke="black" stroke-width="2"/>
<path d="M63.9961,111.542h -6.80315" fill="none" stroke="black" stroke-width="2"/>
<path d="M70.7992,100.048h -13.6063" fill="none" stroke="black" stroke-width="2"/>
<path d="M63.9961,88.5538h -6.80315" fill="none" stroke="black" stroke-width="2"/>
<path d="M63.9961,77.0599h -6.80315" fill="none" stroke="black" stroke-width="2"/>
<path d="M63.9961,65.5659h -6.80315" fill="none" stroke="black" stroke-width="2"/>
<path d="M63.9961,54.0719h -6.80315" fill="none" stroke="black" stroke-width="2"/>
<path d="M70.7992,42.578h -13.6063" fill="none" stroke="black" stroke-width="2"/>
<path d="M70.7992,42.578h -13.6063" fill="none" stroke="black" stroke-width="2"/>
<text x="47.3889" y="333.55" fill="black" font-size="12.2711" font-family="Helvetica">
0
</text>
<text x="40.9949" y="276.005" fill="black" font-size="12.2711" font-family="Helvetica">
50
</text>
<text x="34.601" y="218.46" fill="black" font-size="12.2711" font-family="Helvetica">
100
</text>
<text x="34.601" y="160.914" fill="black" font-size="12.2711" font-family="Helvetica">
150
</text>
<text x="34.601" y="103.369" fill="black" font-size="12.2711" font-family="Helvetica">
200
</text>
<text x="34.601" y="45.8232" fill="black" font-size="12.2711" font-family="Helvetica">
250
</text>
<rect x="351.996" y="23.8281" width="204.094" height="102.644" fill="white"/>
<path d="M351.996,126.472h 204.094" fill="none" stroke="black" stroke-width="2"/>
<path d="M556.091,126.472v -102.644" fill="none" stroke="black" stroke-width="2"/>
<path d="M556.091,23.8281h -204.094" fill="none" stroke="black" stroke-width="2"/>
<path d="M351.996,23.8281v 102.644" fill="none" stroke="black" stroke-width="2"/>
<text x="374.545" y="36.2323" fill="black" font-size="13.155" font-family="Helvetica">
 / ndf 
</text>
<text x="369.217" y="31.9697" fill="black" font-size="8.93666" font-family="Helvetica">
2
</text>
<text x="361.757" y="36.2323" fill="black" font-size="13.155" font-family="Times">
&#0967;
</text>
<text x="478.98" y="37.298" fill="black" font-size="13.155" font-family="Helvetica">
 639.3 / 455
</text>
<text x="361.757" y="54.3485" fill="black" font-size="13.155" font-family="Helvetica">
Centroid 
</text>
<text x="524.803" y="54.3485" fill="black" font-size="13.155" font-family="Helvetica">
 0.3
</text>
<text x="517.343" y="54.3485" fill="black" font-size="13.155" font-family="Times">
&#0177;
</text>
<text x="478.98" y="54.3485" fill="black" font-size="13.155" font-family="Helvetica">
  1472 
</text>
<text x="361.757" y="71.399" fill="black" font-size="13.155" font-family="Helvetica">
FWHM     
</text>
<text x="517.343" y="71.399" fill="black" font-size="13.155" font-family="Helvetica">
 0.50
</text>
<text x="509.884" y="71.399" fill="black" font-size="13.155" font-family="Times">
&#0177;
</text>
<text x="471.52" y="71.399" fill="black" font-size="13.155" font-family="Helvetica">
 69.19 
</text>
<text x="361.757" y="88.4495" fill="black" font-size="13.155" font-family="Helvetica">
Counts   
</text>
<text x="488.571" y="88.4495" fill="black" font-size="13.155" font-family="Helvetica">
 1.34e+02
</text>
<text x="481.111" y="88.4495" fill="black" font-size="13.155" font-family="Times">
&#0177;
</text>
<text x="421.434" y="88.4495" fill="black" font-size="13.155" font-family="Helvetica">
 1.56e+04 
</text>
<text x="361.757" y="104.434" fill="black" font-size="13.155" font-family="Helvetica">
Intercept 
</text>
<text x="517.343" y="105.5" fill="black" font-size="13.155" font-family="Helvetica">
 1.67
</text>
<text x="509.884" y="105.5" fill="black" font-size="13.155" font-family="Times">
&#0177;
</text>
<text x="471.52" y="105.5" fill="black" font-size="13.155" font-family="Helvetica">
 26.67 
</text>
<text x="361.757" y="121.485" fill="black" font-size="13.155" font-family="Helvetica">
Slope    
</text>
<text x="496.03" y="122.55" fill="black" font-size="13.155" font-family="Helvetica">
 0.00107
</text>
<text x="488.571" y="122.55" fill="black" font-size="13.155" font-family="Times">
&#0177;
</text>
<text x="439.55" y="122.55" fill="black" font-size="13.155" font-family="Helvetica">
0.01276 
</text>
<text x="432.091" y="122.55" fill="black" font-size="13.155" font-family="Times">
&#8722;
</text>
<text x="428.894" y="122.55" fill="black" font-size="13.155" font-family="Helvetica">
 
</text>
<path d="M59.4606,329.927h 77.1024l 4.53543, -0.0434902l 4.53543, -0.0387249l 4.53543, -0.0694591l 4.53543, -0.121394l 4.53543, -0.206698l 4.53543, -0.342832l 4.53543, -0.553804l 4.53543, -0.871112l 4.53543, -1.33394l 4.53543, -1.98803l 4.53543,
 -2.88273l 4.53543, -4.0655l 4.53543, -5.57398l 4.53543, -7.42549l 4.53543, -9.60534l 4.53543, -12.0553l 4.53543, -14.6651l 4.53543, -17.2689l 4.53543, -19.6506l 4.53543, -21.5587l 4.53543, -22.73l 4.53543, -22.9229l 4.53543, -21.9526l 4.53543,
 -19.7253l 4.53543, -16.263l 4.53543, -11.7145l 4.53543, -6.34832l 4.53543, -0.527284l 4.53543, 5.3319l 4.53543, 10.8079l 4.53543, 15.5251l 4.53543, 19.1957" fill="none" stroke="#00ff00" stroke-width="2"/>
<path d="M281.697,138.283l 4.53543, 21.6485l 4.53543, 22.8391l 4.53543, 22.8424l 4.53543, 21.829l 4.53543, 20.0332l 4.53543, 17.7168l 4.53543, 15.1355l 4.53543, 12.5131l 4.53543, 10.025l 4.53543, 7.79126l 4.53543, 5.879l 4.53543, 4.30985l 4.53543,
 3.0713l 4.53543, 2.12855l 4.53543, 1.43519l 4.53543, 0.941754l 4.53543, 0.601577l 4.53543, 0.374172l 4.53543, 0.226655l 4.53543, 0.133738l 4.53543, 0.0768778l 4.53543, 0.0430595l 4.53543, 0.0488082h 117.921" fill="none" stroke="#00ff00"
 stroke-width="2"/>
<path d="M503.933,329.927h 4.53543" fill="none" stroke="#00ff00" stroke-width="2"/>
<text x="169.939" y="18.1162" fill="black" font-size="16.6902" font-family="Helvetica">
Wk1/Ascii/22Na_spectrum2.Spe
</text></svg>
