<?xml version="1.0" standalone="no"?>
<svg width="567.429" height="322.435" viewBox="0 0 567.429 322.435" xmlns="http://www.w3.org/2000/svg">
<title>
/home/ADF/hyw543/Coincidence/c1.svg
</title>
<desc>
Creator: ROOT Version 6.06/08
CreationDate: Tue Jan  8 17:24:02 2019</desc>
<defs>
</defs>
<rect x="0.5" y="0" width="566.929" height="321.935" fill="white"/>
<rect x="57.1929" y="32.1935" width="453.543" height="257.548" fill="white"/>
<rect x="57.1929" y="32.1935" width="453.543" height="257.548" fill="none" stroke="black"/>
<rect x="57.1929" y="32.1935" width="453.543" height="257.548" fill="white"/>
<rect x="57.1929" y="32.1935" width="453.543" height="257.548" fill="none" stroke="black"/>
<path d="M57.1929,233.676h 1.98054v 3.50405h 1.98054v -24.5284h 1.98054v 17.5203h 1.98054v 14.0162h 1.98054v -14.0162h 1.98054v 7.0081h 1.98054v 14.0162h 1.98054v -21.0243h 1.98054v -31.5365h 1.98054v 28.0324h 1.98054v -14.0162h 1.98054v 3.50405h
 1.98054v 17.5203h 1.98054v -17.5203h 1.98054v 38.5446h 1.98054v -21.0243h 3.96108v -28.0324h 1.98054v 14.0162h 3.96108v 24.5284h 1.98054v -31.5365h 1.98054v 14.0162h 1.98054v -35.0405h 1.98054v 38.5446h 1.98054v -14.0162h 1.98054v 7.0081h 1.98054v
 -3.50405h 1.98054v -14.0162h 1.98054v 31.5365h 1.98054v -3.50405h 3.96108v -31.5365h 3.96108v 17.5203h 1.98054v -17.5203h 1.98054v 38.5446h 1.98054v -14.0162h 1.98054v 10.5122h 1.98054v -38.5446h 1.98054v 10.5122h 1.98054v -10.5122h 1.98054v
 38.5446h 1.98054v -7.0081h 1.98054v -35.0405h 1.98054v 3.50405h 1.98054v -24.5284h 1.98054v 24.5284h 3.96108v 31.5365h 1.98054v -21.0243h 1.98054v -14.0162h 1.98054v 7.0081h 3.96108v -7.0081h 1.98054v -7.0081h 1.98054v -10.5122h 1.98054v 31.5365h
 1.98054v -7.0081h 1.98054v -17.5203h 3.96108v -24.5284h 1.98054v 24.5284h 1.98054v 14.0162h 1.98054v -38.5446h 1.98054v -14.0162h 1.98054v 21.0243h 1.98054v -42.0486h 1.98054v 42.0486h 1.98054v 10.5122h 1.98054v -59.5689h 1.98054v 63.0729h 1.98054v
 -52.5608h 1.98054v 28.0324h 1.98054v -31.5365h 1.98054v 21.0243h 1.98054v -10.5122h 3.96108v 28.0324h 1.98054v -14.0162h 1.98054v -3.50405h 1.98054v -7.0081h 1.98054v -14.0162h 1.98054v 10.5122h 1.98054v -31.5365h 1.98054v 24.5284h 1.98054v 10.5122h
 1.98054v 3.50405h 1.98054v -63.0729h 1.98054v 7.0081h 1.98054v 45.5527h 1.98054v -17.5203h 5.94162v -21.0243h 1.98054v -31.5365h 1.98054v 59.5689h 1.98054v -28.0324h 1.98054v 21.0243h 1.98054v -24.5284h 3.96108v 35.0405h 1.98054v -24.5284h 1.98054v
 -49.0567h 1.98054v 66.577h 1.98054v -73.5851h 1.98054v 17.5203h 1.98054v 87.6013h 1.98054v -31.5365h 1.98054v -49.0567h 1.98054v 7.0081h 3.96108v 10.5122h 1.98054v 3.50405h 1.98054v -3.50405h 1.98054v -14.0162h 1.98054v 17.5203h 1.98054v 35.0405h
 1.98054v -17.5203h 1.98054v 31.5365h 1.98054v 7.0081h 1.98054v -38.5446h 1.98054v -38.5446h 1.98054v 45.5527h 1.98054v -21.0243h 1.98054v 56.0648h 1.98054v -28.0324h 1.98054v -3.50405h 1.98054v -3.50405h 1.98054v 3.50405h 1.98054v 17.5203h 1.98054v
 10.5122h 1.98054v -31.5365h 1.98054v 31.5365h 1.98054v 17.5203h 1.98054v -42.0486h 1.98054v 10.5122h 1.98054v 59.5689h 1.98054v -24.5284h 1.98054v -17.5203h 1.98054v 21.0243h 3.96108v -45.5527h 1.98054v 24.5284h 1.98054v 31.5365h 1.98054v -7.0081h
 3.96108v 24.5284h 1.98054v 31.5365h 1.98054v -21.0243h 1.98054v 14.0162h 1.98054v -21.0243h 1.98054v 10.5122h 1.98054v -28.0324h 1.98054v 45.5527h 3.96108v -17.5203h 1.98054v -17.5203h 1.98054v 28.0324h 1.98054v -10.5122h 1.98054v 7.0081h 1.98054v
 -10.5122h 1.98054v -7.0081h 3.96108v 17.5203h 3.96108v 21.0243h 3.96108v -14.0162h 1.98054v 21.0243h 1.98054v -3.50405h 1.98054v 14.0162h 1.98054v -24.5284h 1.98054v 17.5203h 1.98054v -7.0081h 1.98054v -14.0162h 1.98054v 21.0243h 1.98054v 7.0081h
 1.98054v 3.50405h 1.98054v -14.0162h 1.98054v -7.0081h 1.98054v 7.0081h 1.98054v 14.0162h 1.98054v -24.5284h 1.98054v 24.5284h 1.98054v -24.5284h 1.98054v -7.0081h 1.98054v 28.0324h 1.98054v -7.0081h 1.98054v 14.0162h 1.98054v 14.0162h 1.98054v
 -3.50405h 1.98054v -3.50405h 1.98054v -17.5203h 3.96108v 7.0081h 1.98054v -3.50405h 1.98054v 21.0243h 1.98054v -24.5284h 1.98054v 10.5122h 1.98054v -10.5122h 1.98054v 7.0081h 1.98054v 10.5122h 1.98054v -14.0162h 3.96108v 10.5122h 1.98054v -14.0162h
 1.98054v 3.50405h 3.96108v 10.5122h 1.98054v -14.0162h 1.98054v 3.50405h 1.98054v 17.5203h 1.98054v -7.0081h 1.98054v -14.0162h 1.98054v 14.0162h 1.98054v -14.0162h 3.96108v 7.0081h 1.98054v -10.5122h 1.98054v 14.0162h 1.98054v 17.5203h 1.98054v
 -21.0243h 1.98054v 10.5122h 1.98054v -31.5365h 1.98054v 17.5203h 1.98054v 7.0081h 1.98054v 3.50405h 1.98054" fill="none" stroke="#ff0000" stroke-width="2"/>
<path d="M59.4606,228.954l 4.53543, 0.262114l 4.53543, 0.224539l 4.53543, 0.179366l 4.53543, 0.125416l 4.53543, 0.0614141l 4.53543, -0.0140003l 4.53543, -0.102252l 4.53543, -0.204805l 4.53543, -0.323132l 4.53543, -0.458667l 4.53543, -0.612763l
 4.53543, -0.786633l 4.53543, -0.981284l 4.53543, -1.19745l 4.53543, -1.43551l 4.53543, -1.69544l 4.53543, -1.97667l 4.53543, -2.2781l 4.53543, -2.59797l 4.53543, -2.9338l 4.53543, -3.28239l 4.53543, -3.63978l 4.53543, -4.00123l 4.53543, -4.36127l
 4.53543, -4.71373l 4.53543, -5.05182l 4.53543, -5.36829l 4.53543, -5.65549l 4.53543, -5.90562l 4.53543, -6.11087l 4.53543, -6.26367l 4.53543, -6.35687l 4.53543, -6.38404l 4.53543, -6.33964l 4.53543, -6.21928l 4.53543, -6.01988l 4.53543, -5.7399l
 4.53543, -5.37941l 4.53543, -4.94021l 4.53543, -4.42587l 4.53543, -3.8417l 4.53543, -3.19466l 4.53543, -2.49328l 4.53543, -1.74744l 4.53543, -0.968139l 4.53543, -0.167245l 4.53543, 0.642816l 4.53543, 1.44938l 4.53543, 2.23988" fill="none"
 stroke="#0000ff" stroke-width="2"/>
<path d="M281.697,97.9691l 4.53543, 3.00216l 4.53543, 3.7248l 4.53543, 4.39736l 4.53543, 5.01072l 4.53543, 5.55717l 4.53543, 6.03064l 4.53543, 6.42679l 4.53543, 6.74302l 4.53543, 6.97849l 4.53543, 7.13404l 4.53543, 7.21207l 4.53543, 7.2164l 4.53543,
 7.15209l 4.53543, 7.0252l 4.53543, 6.84258l 4.53543, 6.61163l 4.53543, 6.3401l 4.53543, 6.03581l 4.53543, 5.7065l 4.53543, 5.35962l 4.53543, 5.00219l 4.53543, 4.64065l 4.53543, 4.2808l 4.53543, 3.92772l 4.53543, 3.58572l 4.53543, 3.25834l 4.53543,
 2.94838l 4.53543, 2.6579l 4.53543, 2.38831l 4.53543, 2.1404l 4.53543, 1.91443l 4.53543, 1.7102l 4.53543, 1.52711l 4.53543, 1.36427l 4.53543, 1.22057l 4.53543, 1.09469l 4.53543, 0.985238l 4.53543, 0.89075l 4.53543, 0.809752l 4.53543, 0.7408l 4.53543,
 0.682501l 4.53543, 0.63354l 4.53543, 0.592694l 4.53543, 0.55884l 4.53543, 0.530963l 4.53543, 0.508155l 4.53543, 0.489611l 4.53543, 0.47463l 4.53543, 0.462602" fill="none" stroke="#0000ff" stroke-width="2"/>
<path d="M503.933,270.498l 4.53543, 0.453005" fill="none" stroke="#0000ff" stroke-width="2"/>
<rect x="351.996" y="20.9258" width="204.094" height="90.1417" fill="white"/>
<path d="M351.996,111.067h 204.094" fill="none" stroke="black" stroke-width="2"/>
<path d="M556.091,111.067v -90.1417" fill="none" stroke="black" stroke-width="2"/>
<path d="M556.091,20.9258h -204.094" fill="none" stroke="black" stroke-width="2"/>
<path d="M351.996,20.9258v 90.1417" fill="none" stroke="black" stroke-width="2"/>
<text x="374.066" y="32.396" fill="black" font-size="13.1805" font-family="Helvetica">
 / ndf 
</text>
<text x="369.004" y="28.3465" fill="black" font-size="8.95366" font-family="Helvetica">
2
</text>
<text x="361.917" y="32.396" fill="black" font-size="13.1805" font-family="Times">
&#0967;
</text>
<text x="477.328" y="33.4083" fill="black" font-size="13.1805" font-family="Helvetica">
 229.2 / 224
</text>
<text x="361.917" y="47.5816" fill="black" font-size="13.1805" font-family="Helvetica">
Centroid 
</text>
<text x="523.897" y="47.5816" fill="black" font-size="13.1805" font-family="Helvetica">
 0.9
</text>
<text x="516.81" y="47.5816" fill="black" font-size="13.1805" font-family="Times">
&#0177;
</text>
<text x="478.34" y="47.5816" fill="black" font-size="13.1805" font-family="Helvetica">
  1677 
</text>
<text x="361.917" y="63.7795" fill="black" font-size="13.1805" font-family="Helvetica">
FWHM     
</text>
<text x="516.81" y="62.7672" fill="black" font-size="13.1805" font-family="Helvetica">
 2.14
</text>
<text x="509.724" y="62.7672" fill="black" font-size="13.1805" font-family="Times">
&#0177;
</text>
<text x="471.254" y="62.7672" fill="black" font-size="13.1805" font-family="Helvetica">
 74.43 
</text>
<text x="361.917" y="77.9528" fill="black" font-size="13.1805" font-family="Helvetica">
Counts   
</text>
<text x="509.724" y="77.9528" fill="black" font-size="13.1805" font-family="Helvetica">
 114.9
</text>
<text x="502.637" y="77.9528" fill="black" font-size="13.1805" font-family="Times">
&#0177;
</text>
<text x="464.167" y="77.9528" fill="black" font-size="13.1805" font-family="Helvetica">
  3517 
</text>
<text x="361.917" y="92.126" fill="black" font-size="13.1805" font-family="Helvetica">
Intercept 
</text>
<text x="523.897" y="93.1384" fill="black" font-size="13.1805" font-family="Helvetica">
 7.7
</text>
<text x="516.81" y="93.1384" fill="black" font-size="13.1805" font-family="Times">
&#0177;
</text>
<text x="482.39" y="93.1384" fill="black" font-size="13.1805" font-family="Helvetica">
  99.3 
</text>
<text x="361.917" y="107.312" fill="black" font-size="13.1805" font-family="Helvetica">
Slope    
</text>
<text x="494.538" y="108.324" fill="black" font-size="13.1805" font-family="Helvetica">
 0.00439
</text>
<text x="487.452" y="108.324" fill="black" font-size="13.1805" font-family="Times">
&#0177;
</text>
<text x="436.833" y="108.324" fill="black" font-size="13.1805" font-family="Helvetica">
0.05227 
</text>
<text x="429.746" y="108.324" fill="black" font-size="13.1805" font-family="Times">
&#8722;
</text>
<text x="426.709" y="108.324" fill="black" font-size="13.1805" font-family="Helvetica">
 
</text>
<path d="M57.1929,289.741h 453.543" fill="none" stroke="black" stroke-width="2"/>
<text x="469.229" y="311.811" fill="black" font-size="10.8374" font-family="Helvetica">
Channels
</text>
<path d="M116.609,282.015v 7.72643" fill="none" stroke="black" stroke-width="2"/>
<path d="M136.414,285.878v 3.86322" fill="none" stroke="black" stroke-width="2"/>
<path d="M156.22,285.878v 3.86322" fill="none" stroke="black" stroke-width="2"/>
<path d="M176.025,285.878v 3.86322" fill="none" stroke="black" stroke-width="2"/>
<path d="M195.831,285.878v 3.86322" fill="none" stroke="black" stroke-width="2"/>
<path d="M215.636,282.015v 7.72643" fill="none" stroke="black" stroke-width="2"/>
<path d="M235.441,285.878v 3.86322" fill="none" stroke="black" stroke-width="2"/>
<path d="M255.247,285.878v 3.86322" fill="none" stroke="black" stroke-width="2"/>
<path d="M275.052,285.878v 3.86322" fill="none" stroke="black" stroke-width="2"/>
<path d="M294.858,285.878v 3.86322" fill="none" stroke="black" stroke-width="2"/>
<path d="M314.663,282.015v 7.72643" fill="none" stroke="black" stroke-width="2"/>
<path d="M334.468,285.878v 3.86322" fill="none" stroke="black" stroke-width="2"/>
<path d="M354.274,285.878v 3.86322" fill="none" stroke="black" stroke-width="2"/>
<path d="M374.079,285.878v 3.86322" fill="none" stroke="black" stroke-width="2"/>
<path d="M393.884,285.878v 3.86322" fill="none" stroke="black" stroke-width="2"/>
<path d="M413.69,282.015v 7.72643" fill="none" stroke="black" stroke-width="2"/>
<path d="M116.609,282.015v 7.72643" fill="none" stroke="black" stroke-width="2"/>
<path d="M96.8037,285.878v 3.86322" fill="none" stroke="black" stroke-width="2"/>
<path d="M76.9983,285.878v 3.86322" fill="none" stroke="black" stroke-width="2"/>
<path d="M57.1929,285.878v 3.86322" fill="none" stroke="black" stroke-width="2"/>
<path d="M413.69,282.015v 7.72643" fill="none" stroke="black" stroke-width="2"/>
<path d="M433.495,285.878v 3.86322" fill="none" stroke="black" stroke-width="2"/>
<path d="M453.301,285.878v 3.86322" fill="none" stroke="black" stroke-width="2"/>
<path d="M473.106,285.878v 3.86322" fill="none" stroke="black" stroke-width="2"/>
<path d="M492.911,285.878v 3.86322" fill="none" stroke="black" stroke-width="2"/>
<text x="104.774" y="299.663" fill="black" font-size="10.8374" font-family="Helvetica">
1600
</text>
<text x="203.987" y="299.663" fill="black" font-size="10.8374" font-family="Helvetica">
1650
</text>
<text x="303.2" y="299.663" fill="black" font-size="10.8374" font-family="Helvetica">
1700
</text>
<text x="402.412" y="299.663" fill="black" font-size="10.8374" font-family="Helvetica">
1750
</text>
<path d="M57.1929,289.741v -257.548" fill="none" stroke="black" stroke-width="2"/>
<path d="M70.7992,289.741h -13.6063" fill="none" stroke="black" stroke-width="2"/>
<path d="M63.9961,282.733h -6.80315" fill="none" stroke="black" stroke-width="2"/>
<path d="M63.9961,275.725h -6.80315" fill="none" stroke="black" stroke-width="2"/>
<path d="M63.9961,268.717h -6.80315" fill="none" stroke="black" stroke-width="2"/>
<path d="M63.9961,261.709h -6.80315" fill="none" stroke="black" stroke-width="2"/>
<path d="M70.7992,254.701h -13.6063" fill="none" stroke="black" stroke-width="2"/>
<path d="M63.9961,247.693h -6.80315" fill="none" stroke="black" stroke-width="2"/>
<path d="M63.9961,240.685h -6.80315" fill="none" stroke="black" stroke-width="2"/>
<path d="M63.9961,233.676h -6.80315" fill="none" stroke="black" stroke-width="2"/>
<path d="M63.9961,226.668h -6.80315" fill="none" stroke="black" stroke-width="2"/>
<path d="M70.7992,219.66h -13.6063" fill="none" stroke="black" stroke-width="2"/>
<path d="M63.9961,212.652h -6.80315" fill="none" stroke="black" stroke-width="2"/>
<path d="M63.9961,205.644h -6.80315" fill="none" stroke="black" stroke-width="2"/>
<path d="M63.9961,198.636h -6.80315" fill="none" stroke="black" stroke-width="2"/>
<path d="M63.9961,191.628h -6.80315" fill="none" stroke="black" stroke-width="2"/>
<path d="M70.7992,184.62h -13.6063" fill="none" stroke="black" stroke-width="2"/>
<path d="M63.9961,177.612h -6.80315" fill="none" stroke="black" stroke-width="2"/>
<path d="M63.9961,170.604h -6.80315" fill="none" stroke="black" stroke-width="2"/>
<path d="M63.9961,163.595h -6.80315" fill="none" stroke="black" stroke-width="2"/>
<path d="M63.9961,156.587h -6.80315" fill="none" stroke="black" stroke-width="2"/>
<path d="M70.7992,149.579h -13.6063" fill="none" stroke="black" stroke-width="2"/>
<path d="M63.9961,142.571h -6.80315" fill="none" stroke="black" stroke-width="2"/>
<path d="M63.9961,135.563h -6.80315" fill="none" stroke="black" stroke-width="2"/>
<path d="M63.9961,128.555h -6.80315" fill="none" stroke="black" stroke-width="2"/>
<path d="M63.9961,121.547h -6.80315" fill="none" stroke="black" stroke-width="2"/>
<path d="M70.7992,114.539h -13.6063" fill="none" stroke="black" stroke-width="2"/>
<path d="M63.9961,107.531h -6.80315" fill="none" stroke="black" stroke-width="2"/>
<path d="M63.9961,100.522h -6.80315" fill="none" stroke="black" stroke-width="2"/>
<path d="M63.9961,93.5144h -6.80315" fill="none" stroke="black" stroke-width="2"/>
<path d="M63.9961,86.5063h -6.80315" fill="none" stroke="black" stroke-width="2"/>
<path d="M70.7992,79.4982h -13.6063" fill="none" stroke="black" stroke-width="2"/>
<path d="M63.9961,72.4901h -6.80315" fill="none" stroke="black" stroke-width="2"/>
<path d="M63.9961,65.482h -6.80315" fill="none" stroke="black" stroke-width="2"/>
<path d="M63.9961,58.4739h -6.80315" fill="none" stroke="black" stroke-width="2"/>
<path d="M63.9961,51.4658h -6.80315" fill="none" stroke="black" stroke-width="2"/>
<path d="M70.7992,44.4577h -13.6063" fill="none" stroke="black" stroke-width="2"/>
<path d="M70.7992,44.4577h -13.6063" fill="none" stroke="black" stroke-width="2"/>
<path d="M63.9961,37.4496h -6.80315" fill="none" stroke="black" stroke-width="2"/>
<text x="48.0816" y="293.588" fill="black" font-size="10.8374" font-family="Helvetica">
0
</text>
<text x="43.0197" y="258.155" fill="black" font-size="10.8374" font-family="Helvetica">
10
</text>
<text x="43.0197" y="222.722" fill="black" font-size="10.8374" font-family="Helvetica">
20
</text>
<text x="43.0197" y="188.301" fill="black" font-size="10.8374" font-family="Helvetica">
30
</text>
<text x="43.0197" y="152.868" fill="black" font-size="10.8374" font-family="Helvetica">
40
</text>
<text x="43.0197" y="118.448" fill="black" font-size="10.8374" font-family="Helvetica">
50
</text>
<text x="43.0197" y="83.0146" fill="black" font-size="10.8374" font-family="Helvetica">
60
</text>
<text x="43.0197" y="47.5816" fill="black" font-size="10.8374" font-family="Helvetica">
70
</text>
<rect x="351.996" y="20.9258" width="204.094" height="90.1417" fill="white"/>
<path d="M351.996,111.067h 204.094" fill="none" stroke="black" stroke-width="2"/>
<path d="M556.091,111.067v -90.1417" fill="none" stroke="black" stroke-width="2"/>
<path d="M556.091,20.9258h -204.094" fill="none" stroke="black" stroke-width="2"/>
<path d="M351.996,20.9258v 90.1417" fill="none" stroke="black" stroke-width="2"/>
<text x="374.066" y="32.396" fill="black" font-size="13.1805" font-family="Helvetica">
 / ndf 
</text>
<text x="369.004" y="28.3465" fill="black" font-size="8.95366" font-family="Helvetica">
2
</text>
<text x="361.917" y="32.396" fill="black" font-size="13.1805" font-family="Times">
&#0967;
</text>
<text x="477.328" y="33.4083" fill="black" font-size="13.1805" font-family="Helvetica">
 229.2 / 224
</text>
<text x="361.917" y="47.5816" fill="black" font-size="13.1805" font-family="Helvetica">
Centroid 
</text>
<text x="523.897" y="47.5816" fill="black" font-size="13.1805" font-family="Helvetica">
 0.9
</text>
<text x="516.81" y="47.5816" fill="black" font-size="13.1805" font-family="Times">
&#0177;
</text>
<text x="478.34" y="47.5816" fill="black" font-size="13.1805" font-family="Helvetica">
  1677 
</text>
<text x="361.917" y="63.7795" fill="black" font-size="13.1805" font-family="Helvetica">
FWHM     
</text>
<text x="516.81" y="62.7672" fill="black" font-size="13.1805" font-family="Helvetica">
 2.14
</text>
<text x="509.724" y="62.7672" fill="black" font-size="13.1805" font-family="Times">
&#0177;
</text>
<text x="471.254" y="62.7672" fill="black" font-size="13.1805" font-family="Helvetica">
 74.43 
</text>
<text x="361.917" y="77.9528" fill="black" font-size="13.1805" font-family="Helvetica">
Counts   
</text>
<text x="509.724" y="77.9528" fill="black" font-size="13.1805" font-family="Helvetica">
 114.9
</text>
<text x="502.637" y="77.9528" fill="black" font-size="13.1805" font-family="Times">
&#0177;
</text>
<text x="464.167" y="77.9528" fill="black" font-size="13.1805" font-family="Helvetica">
  3517 
</text>
<text x="361.917" y="92.126" fill="black" font-size="13.1805" font-family="Helvetica">
Intercept 
</text>
<text x="523.897" y="93.1384" fill="black" font-size="13.1805" font-family="Helvetica">
 7.7
</text>
<text x="516.81" y="93.1384" fill="black" font-size="13.1805" font-family="Times">
&#0177;
</text>
<text x="482.39" y="93.1384" fill="black" font-size="13.1805" font-family="Helvetica">
  99.3 
</text>
<text x="361.917" y="107.312" fill="black" font-size="13.1805" font-family="Helvetica">
Slope    
</text>
<text x="494.538" y="108.324" fill="black" font-size="13.1805" font-family="Helvetica">
 0.00439
</text>
<text x="487.452" y="108.324" fill="black" font-size="13.1805" font-family="Times">
&#0177;
</text>
<text x="436.833" y="108.324" fill="black" font-size="13.1805" font-family="Helvetica">
0.05227 
</text>
<text x="429.746" y="108.324" fill="black" font-size="13.1805" font-family="Times">
&#8722;
</text>
<text x="426.709" y="108.324" fill="black" font-size="13.1805" font-family="Helvetica">
 
</text>
<path d="M59.4606,289.159l 4.53543, -0.157291l 4.53543, -0.194866l 4.53543, -0.240039l 4.53543, -0.293989l 4.53543, -0.357991l 4.53543, -0.433405l 4.53543, -0.521657l 4.53543, -0.62421l 4.53543, -0.742536l 4.53543, -0.878071l 4.53543, -1.03217l
 4.53543, -1.20604l 4.53543, -1.40069l 4.53543, -1.61685l 4.53543, -1.85492l 4.53543, -2.11484l 4.53543, -2.39608l 4.53543, -2.69751l 4.53543, -3.01737l 4.53543, -3.3532l 4.53543, -3.70179l 4.53543, -4.05919l 4.53543, -4.42064l 4.53543, -4.78068l
 4.53543, -5.13313l 4.53543, -5.47123l 4.53543, -5.78769l 4.53543, -6.0749l 4.53543, -6.32503l 4.53543, -6.53028l 4.53543, -6.68307l 4.53543, -6.77628l 4.53543, -6.80345l 4.53543, -6.75905l 4.53543, -6.63868l 4.53543, -6.43929l 4.53543, -6.15931l
 4.53543, -5.79882l 4.53543, -5.35962l 4.53543, -4.84528l 4.53543, -4.2611l 4.53543, -3.61406l 4.53543, -2.91269l 4.53543, -2.16684l 4.53543, -1.38754l 4.53543, -0.58665l 4.53543, 0.223411l 4.53543, 1.02998l 4.53543, 1.82048" fill="none"
 stroke="#00ff00" stroke-width="2"/>
<path d="M281.697,137.623l 4.53543, 2.58276l 4.53543, 3.30539l 4.53543, 3.97796l 4.53543, 4.59131l 4.53543, 5.13776l 4.53543, 5.61123l 4.53543, 6.00738l 4.53543, 6.32361l 4.53543, 6.55908l 4.53543, 6.71463l 4.53543, 6.79266l 4.53543, 6.797l 4.53543,
 6.73269l 4.53543, 6.60579l 4.53543, 6.42317l 4.53543, 6.19223l 4.53543, 5.9207l 4.53543, 5.61641l 4.53543, 5.2871l 4.53543, 4.94022l 4.53543, 4.58278l 4.53543, 4.22124l 4.53543, 3.8614l 4.53543, 3.50832l 4.53543, 3.16632l 4.53543, 2.83894l 4.53543,
 2.52898l 4.53543, 2.2385l 4.53543, 1.96891l 4.53543, 1.721l 4.53543, 1.49503l 4.53543, 1.29079l 4.53543, 1.1077l 4.53543, 0.94487l 4.53543, 0.801163l 4.53543, 0.675286l 4.53543, 0.565834l 4.53543, 0.471345l 4.53543, 0.390347l 4.53543, 0.321395l
 4.53543, 0.263096l 4.53543, 0.214135l 4.53543, 0.173289l 4.53543, 0.139435l 4.53543, 0.111558l 4.53543, 0.0887499l 4.53543, 0.0702066l 4.53543, 0.0552254l 4.53543, 0.0431975" fill="none" stroke="#00ff00" stroke-width="2"/>
<path d="M503.933,289.601l 4.53543, 0.0336004" fill="none" stroke="#00ff00" stroke-width="2"/>
<text x="198.925" y="16.198" fill="black" font-size="15.7205" font-family="Helvetica">
Wk1/Ascii/BrazilNuts.Spe
</text></svg>
