<?xml version="1.0" standalone="no"?>
<svg width="567.429" height="389.348" viewBox="0 0 567.429 389.348" xmlns="http://www.w3.org/2000/svg">
<title>
/home/ADF/hyw543/Coincidence/c1.svg
</title>
<desc>
Creator: ROOT Version 6.06/08
CreationDate: Tue Jan  8 17:33:26 2019</desc>
<defs>
</defs>
<rect x="0.5" y="0" width="566.929" height="388.848" fill="white"/>
<rect x="57.1929" y="38.8848" width="453.543" height="311.078" fill="white"/>
<rect x="57.1929" y="38.8848" width="453.543" height="311.078" fill="none" stroke="black"/>
<rect x="57.1929" y="38.8848" width="453.543" height="311.078" fill="white"/>
<rect x="57.1929" y="38.8848" width="453.543" height="311.078" fill="none" stroke="black"/>
<path d="M57.1929,321.671h 7.9569v -3.18329h 7.9569v 0.173005h 7.9569v -2.80268h 7.9569v -0.807356h 7.9569v -4.56733h 7.9569v -2.97568h 7.9569v -4.68267h 7.9569v -5.9975h 7.9569v -7.46228h 7.9569v -8.01589h 7.9569v -15.8473h 7.9569v -15.3282h 7.9569v
 -20.5184h 7.9569v -28.4881h 7.9569v -26.6543h 7.9569v -34.0243h 7.9569v -31.4177h 7.9569v -26.7235h 7.9569v -20.7145h 7.9569v -7.93516h 7.9569v 0.807356h 7.9569v 11.2223h 7.9569v 19.7572h 7.9569v 28.1075h 7.9569v 18.3847h 7.9569v 13.8981h 7.9569v
 4.71727h 7.9569v -6.18204h 7.9569v -15.8588h 7.9569v -16.7584h 7.9569v -19.365h 7.9569v -17.5888h 7.9569v -3.93298h 7.9569v 5.46696h 7.9569v 18.0732h 7.9569v 26.4236h 7.9569v 33.2746h 7.9569v 38.8108h 7.9569v 32.0405h 7.9569v 31.4869h 7.9569v
 25.6624h 7.9569v 19.3535h 7.9569v 13.01h 7.9569v 10.2996h 7.9569v 5.69763h 7.9569v 4.7288h 7.9569v 2.3298h 7.9569v 0.830424h 7.9569v 1.82232h 7.9569v 0.322943h 7.9569v 0.576683h 7.9569v -0.495947h 7.9569v 0.334476h 7.9569v 0.542082h 7.9569v
 -0.369077h 7.9569v 0.59975h 7.9569" fill="none" stroke="#ff0000" stroke-width="2"/>
<path d="M59.4606,315.297l 4.53543, 0.217281l 4.53543, 0.189133l 4.53543, 0.149113l 4.53543, 0.0930185l 4.53543, 0.0155162l 4.53543, -0.0900155l 4.53543, -0.231605l 4.53543, -0.41874l 4.53543, -0.662316l 4.53543, -0.974443l 4.53543, -1.36807l
 4.53543, -1.8564l 4.53543, -2.45203l 4.53543, -3.16592l 4.53543, -4.00601l 4.53543, -4.9758l 4.53543, -6.07272l 4.53543, -7.2866l 4.53543, -8.5983l 4.53543, -9.97868l 4.53543, -11.3882l 4.53543, -12.7772l 4.53543, -14.0869l 4.53543, -15.2518l
 4.53543, -16.2024l 4.53543, -16.8691l 4.53543, -17.1872l 4.53543, -17.101l 4.53543, -16.5695l 4.53543, -15.5705l 4.53543, -14.104l 4.53543, -12.1951l 4.53543, -9.89499l 4.53543, -7.2797l 4.53543, -4.44822l 4.53543, -1.51829l 4.53543, 1.37907l
 4.53543, 4.10609l 4.53543, 6.52564l 4.53543, 8.50903l 4.53543, 9.94392l 4.53543, 10.742l 4.53543, 10.8461l 4.53543, 10.2364l 4.53543, 8.93509l 4.53543, 7.00914l 4.53543, 4.57079l 4.53543, 1.77457l 4.53543, -1.18919" fill="none" stroke="#0000ff"
 stroke-width="2"/>
<path d="M281.697,144.768l 4.53543, -4.10471l 4.53543, -6.74483l 4.53543, -8.88814l 4.53543, -10.3377l 4.53543, -10.9397l 4.53543, -10.5999l 4.53543, -9.29553l 4.53543, -7.0804l 4.53543, -4.08303l 4.53543, -0.496287l 4.53543, 3.43978l 4.53543,
 7.46041l 4.53543, 11.3011l 4.53543, 14.7218l 4.53543, 17.5281l 4.53543, 19.5857l 4.53543, 20.8282l 4.53543, 21.2567l 4.53543, 20.9319l 4.53543, 19.9622l 4.53543, 18.4867l 4.53543, 16.659l 4.53543, 14.6312l 4.53543, 12.5412l 4.53543, 10.5041l
 4.53543, 8.60672l 4.53543, 6.90737l 4.53543, 5.43746l 4.53543, 4.20581l 4.53543, 3.20388l 4.53543, 2.41124l 4.53543, 1.80062l 4.53543, 1.3421l 4.53543, 1.00618l 4.53543, 0.765929l 4.53543, 0.59808l 4.53543, 0.483475l 4.53543, 0.406971l 4.53543,
 0.35702l 4.53543, 0.325114l 4.53543, 0.305169l 4.53543, 0.292966l 4.53543, 0.285655l 4.53543, 0.281367l 4.53543, 0.278903l 4.53543, 0.277517l 4.53543, 0.276753l 4.53543, 0.27634l 4.53543, 0.276121" fill="none" stroke="#0000ff" stroke-width="2"/>
<path d="M503.933,342.444l 4.53543, 0.276008" fill="none" stroke="#0000ff" stroke-width="2"/>
<rect x="351.996" y="25.2751" width="204.094" height="155.539" fill="white"/>
<path d="M351.996,180.814h 204.094" fill="none" stroke="black" stroke-width="2"/>
<path d="M556.091,180.814v -155.539" fill="none" stroke="black" stroke-width="2"/>
<path d="M556.091,25.2751h -204.094" fill="none" stroke="black" stroke-width="2"/>
<path d="M351.996,25.2751v 155.539" fill="none" stroke="black" stroke-width="2"/>
<text x="372.442" y="38.3213" fill="black" font-size="12.2071" font-family="Helvetica">
 / ndf 
</text>
<text x="367.933" y="33.8129" fill="black" font-size="8.30476" font-family="Helvetica">
2
</text>
<text x="361.171" y="38.3213" fill="black" font-size="12.2071" font-family="Times">
&#0967;
</text>
<text x="487.405" y="39.4483" fill="black" font-size="12.2071" font-family="Helvetica">
 787.4 / 49
</text>
<text x="361.171" y="56.3548" fill="black" font-size="12.2071" font-family="Helvetica">
1-Centroid 
</text>
<text x="517.837" y="55.2277" fill="black" font-size="12.2071" font-family="Helvetica">
 0.02
</text>
<text x="511.074" y="55.2277" fill="black" font-size="12.2071" font-family="Times">
&#0177;
</text>
<text x="475.007" y="55.2277" fill="black" font-size="12.2071" font-family="Helvetica">
 83.75 
</text>
<text x="361.171" y="73.2612" fill="black" font-size="12.2071" font-family="Helvetica">
1-FWHM   
</text>
<text x="517.837" y="72.1341" fill="black" font-size="12.2071" font-family="Helvetica">
 0.05
</text>
<text x="511.074" y="72.1341" fill="black" font-size="12.2071" font-family="Times">
&#0177;
</text>
<text x="475.007" y="72.1341" fill="black" font-size="12.2071" font-family="Helvetica">
 12.19 
</text>
<text x="361.171" y="91.2948" fill="black" font-size="12.2071" font-family="Helvetica">
1-Counts 
</text>
<text x="484.024" y="90.1677" fill="black" font-size="12.2071" font-family="Helvetica">
 1.231e+03
</text>
<text x="477.261" y="90.1677" fill="black" font-size="12.2071" font-family="Times">
&#0177;
</text>
<text x="414.144" y="90.1677" fill="black" font-size="12.2071" font-family="Helvetica">
 2.959e+05 
</text>
<text x="361.171" y="108.201" fill="black" font-size="12.2071" font-family="Helvetica">
2-Centroid 
</text>
<text x="517.837" y="107.074" fill="black" font-size="12.2071" font-family="Helvetica">
 0.02
</text>
<text x="511.074" y="107.074" fill="black" font-size="12.2071" font-family="Times">
&#0177;
</text>
<text x="475.007" y="107.074" fill="black" font-size="12.2071" font-family="Helvetica">
 97.13 
</text>
<text x="361.171" y="125.108" fill="black" font-size="12.2071" font-family="Helvetica">
2-FWHM   
</text>
<text x="511.074" y="123.981" fill="black" font-size="12.2071" font-family="Helvetica">
 0.036
</text>
<text x="504.312" y="123.981" fill="black" font-size="12.2071" font-family="Times">
&#0177;
</text>
<text x="468.245" y="123.981" fill="black" font-size="12.2071" font-family="Helvetica">
 9.793 
</text>
<text x="361.171" y="143.141" fill="black" font-size="12.2071" font-family="Helvetica">
2-Counts 
</text>
<text x="484.024" y="142.014" fill="black" font-size="12.2071" font-family="Helvetica">
 1.058e+03
</text>
<text x="477.261" y="142.014" fill="black" font-size="12.2071" font-family="Times">
&#0177;
</text>
<text x="414.144" y="142.014" fill="black" font-size="12.2071" font-family="Helvetica">
 2.258e+05 
</text>
<text x="361.171" y="158.921" fill="black" font-size="12.2071" font-family="Helvetica">
Intercept 
</text>
<text x="517.837" y="158.921" fill="black" font-size="12.2071" font-family="Helvetica">
 51.8
</text>
<text x="511.074" y="158.921" fill="black" font-size="12.2071" font-family="Times">
&#0177;
</text>
<text x="475.007" y="158.921" fill="black" font-size="12.2071" font-family="Helvetica">
  5652 
</text>
<text x="361.171" y="175.827" fill="black" font-size="12.2071" font-family="Helvetica">
Slope    
</text>
<text x="517.837" y="175.827" fill="black" font-size="12.2071" font-family="Helvetica">
 0.47
</text>
<text x="511.074" y="175.827" fill="black" font-size="12.2071" font-family="Times">
&#0177;
</text>
<text x="478.389" y="175.827" fill="black" font-size="12.2071" font-family="Helvetica">
41.97 
</text>
<text x="471.626" y="175.827" fill="black" font-size="12.2071" font-family="Times">
&#8722;
</text>
<text x="469.372" y="175.827" fill="black" font-size="12.2071" font-family="Helvetica">
 
</text>
<path d="M57.1929,349.963h 453.543" fill="none" stroke="black" stroke-width="2"/>
<text x="459.228" y="376.45" fill="black" font-size="12.9859" font-family="Helvetica">
Channels
</text>
<path d="M192.46,340.631v 9.33235" fill="none" stroke="black" stroke-width="2"/>
<path d="M232.245,345.297v 4.66618" fill="none" stroke="black" stroke-width="2"/>
<path d="M272.029,345.297v 4.66618" fill="none" stroke="black" stroke-width="2"/>
<path d="M311.814,345.297v 4.66618" fill="none" stroke="black" stroke-width="2"/>
<path d="M351.598,340.631v 9.33235" fill="none" stroke="black" stroke-width="2"/>
<path d="M391.383,345.297v 4.66618" fill="none" stroke="black" stroke-width="2"/>
<path d="M431.167,345.297v 4.66618" fill="none" stroke="black" stroke-width="2"/>
<path d="M470.952,345.297v 4.66618" fill="none" stroke="black" stroke-width="2"/>
<path d="M510.736,340.631v 9.33235" fill="none" stroke="black" stroke-width="2"/>
<path d="M192.46,340.631v 9.33235" fill="none" stroke="black" stroke-width="2"/>
<path d="M152.676,345.297v 4.66618" fill="none" stroke="black" stroke-width="2"/>
<path d="M112.891,345.297v 4.66618" fill="none" stroke="black" stroke-width="2"/>
<path d="M73.1067,345.297v 4.66618" fill="none" stroke="black" stroke-width="2"/>
<text x="185.344" y="361.798" fill="black" font-size="12.9859" font-family="Helvetica">
80
</text>
<text x="340.883" y="361.798" fill="black" font-size="12.9859" font-family="Helvetica">
100
</text>
<text x="499.803" y="361.798" fill="black" font-size="12.9859" font-family="Helvetica">
120
</text>
<path d="M57.1929,349.963v -311.078" fill="none" stroke="black" stroke-width="2"/>
<path d="M70.7992,349.963h -13.6063" fill="none" stroke="black" stroke-width="2"/>
<path d="M63.9961,338.43h -6.80315" fill="none" stroke="black" stroke-width="2"/>
<path d="M63.9961,326.896h -6.80315" fill="none" stroke="black" stroke-width="2"/>
<path d="M63.9961,315.362h -6.80315" fill="none" stroke="black" stroke-width="2"/>
<path d="M63.9961,303.829h -6.80315" fill="none" stroke="black" stroke-width="2"/>
<path d="M70.7992,292.295h -13.6063" fill="none" stroke="black" stroke-width="2"/>
<path d="M63.9961,280.761h -6.80315" fill="none" stroke="black" stroke-width="2"/>
<path d="M63.9961,269.228h -6.80315" fill="none" stroke="black" stroke-width="2"/>
<path d="M63.9961,257.694h -6.80315" fill="none" stroke="black" stroke-width="2"/>
<path d="M63.9961,246.16h -6.80315" fill="none" stroke="black" stroke-width="2"/>
<path d="M70.7992,234.627h -13.6063" fill="none" stroke="black" stroke-width="2"/>
<path d="M63.9961,223.093h -6.80315" fill="none" stroke="black" stroke-width="2"/>
<path d="M63.9961,211.559h -6.80315" fill="none" stroke="black" stroke-width="2"/>
<path d="M63.9961,200.026h -6.80315" fill="none" stroke="black" stroke-width="2"/>
<path d="M63.9961,188.492h -6.80315" fill="none" stroke="black" stroke-width="2"/>
<path d="M70.7992,176.958h -13.6063" fill="none" stroke="black" stroke-width="2"/>
<path d="M63.9961,165.425h -6.80315" fill="none" stroke="black" stroke-width="2"/>
<path d="M63.9961,153.891h -6.80315" fill="none" stroke="black" stroke-width="2"/>
<path d="M63.9961,142.357h -6.80315" fill="none" stroke="black" stroke-width="2"/>
<path d="M63.9961,130.824h -6.80315" fill="none" stroke="black" stroke-width="2"/>
<path d="M70.7992,119.29h -13.6063" fill="none" stroke="black" stroke-width="2"/>
<path d="M63.9961,107.756h -6.80315" fill="none" stroke="black" stroke-width="2"/>
<path d="M63.9961,96.2227h -6.80315" fill="none" stroke="black" stroke-width="2"/>
<path d="M63.9961,84.689h -6.80315" fill="none" stroke="black" stroke-width="2"/>
<path d="M63.9961,73.1553h -6.80315" fill="none" stroke="black" stroke-width="2"/>
<path d="M70.7992,61.6217h -13.6063" fill="none" stroke="black" stroke-width="2"/>
<path d="M70.7992,61.6217h -13.6063" fill="none" stroke="black" stroke-width="2"/>
<path d="M63.9961,50.088h -6.80315" fill="none" stroke="black" stroke-width="2"/>
<text x="46.7109" y="353.908" fill="black" font-size="12.9859" font-family="Helvetica">
0
</text>
<text x="26.4232" y="296.426" fill="black" font-size="12.9859" font-family="Helvetica">
5000
</text>
<text x="18.5335" y="238.944" fill="black" font-size="12.9859" font-family="Helvetica">
10000
</text>
<text x="18.5335" y="181.462" fill="black" font-size="12.9859" font-family="Helvetica">
15000
</text>
<text x="18.5335" y="122.853" fill="black" font-size="12.9859" font-family="Helvetica">
20000
</text>
<text x="18.5335" y="65.3716" fill="black" font-size="12.9859" font-family="Helvetica">
25000
</text>
<rect x="351.996" y="25.2751" width="204.094" height="155.539" fill="white"/>
<path d="M351.996,180.814h 204.094" fill="none" stroke="black" stroke-width="2"/>
<path d="M556.091,180.814v -155.539" fill="none" stroke="black" stroke-width="2"/>
<path d="M556.091,25.2751h -204.094" fill="none" stroke="black" stroke-width="2"/>
<path d="M351.996,25.2751v 155.539" fill="none" stroke="black" stroke-width="2"/>
<text x="372.442" y="38.3213" fill="black" font-size="12.2071" font-family="Helvetica">
 / ndf 
</text>
<text x="367.933" y="33.8129" fill="black" font-size="8.30476" font-family="Helvetica">
2
</text>
<text x="361.171" y="38.3213" fill="black" font-size="12.2071" font-family="Times">
&#0967;
</text>
<text x="487.405" y="39.4483" fill="black" font-size="12.2071" font-family="Helvetica">
 787.4 / 49
</text>
<text x="361.171" y="56.3548" fill="black" font-size="12.2071" font-family="Helvetica">
1-Centroid 
</text>
<text x="517.837" y="55.2277" fill="black" font-size="12.2071" font-family="Helvetica">
 0.02
</text>
<text x="511.074" y="55.2277" fill="black" font-size="12.2071" font-family="Times">
&#0177;
</text>
<text x="475.007" y="55.2277" fill="black" font-size="12.2071" font-family="Helvetica">
 83.75 
</text>
<text x="361.171" y="73.2612" fill="black" font-size="12.2071" font-family="Helvetica">
1-FWHM   
</text>
<text x="517.837" y="72.1341" fill="black" font-size="12.2071" font-family="Helvetica">
 0.05
</text>
<text x="511.074" y="72.1341" fill="black" font-size="12.2071" font-family="Times">
&#0177;
</text>
<text x="475.007" y="72.1341" fill="black" font-size="12.2071" font-family="Helvetica">
 12.19 
</text>
<text x="361.171" y="91.2948" fill="black" font-size="12.2071" font-family="Helvetica">
1-Counts 
</text>
<text x="484.024" y="90.1677" fill="black" font-size="12.2071" font-family="Helvetica">
 1.231e+03
</text>
<text x="477.261" y="90.1677" fill="black" font-size="12.2071" font-family="Times">
&#0177;
</text>
<text x="414.144" y="90.1677" fill="black" font-size="12.2071" font-family="Helvetica">
 2.959e+05 
</text>
<text x="361.171" y="108.201" fill="black" font-size="12.2071" font-family="Helvetica">
2-Centroid 
</text>
<text x="517.837" y="107.074" fill="black" font-size="12.2071" font-family="Helvetica">
 0.02
</text>
<text x="511.074" y="107.074" fill="black" font-size="12.2071" font-family="Times">
&#0177;
</text>
<text x="475.007" y="107.074" fill="black" font-size="12.2071" font-family="Helvetica">
 97.13 
</text>
<text x="361.171" y="125.108" fill="black" font-size="12.2071" font-family="Helvetica">
2-FWHM   
</text>
<text x="511.074" y="123.981" fill="black" font-size="12.2071" font-family="Helvetica">
 0.036
</text>
<text x="504.312" y="123.981" fill="black" font-size="12.2071" font-family="Times">
&#0177;
</text>
<text x="468.245" y="123.981" fill="black" font-size="12.2071" font-family="Helvetica">
 9.793 
</text>
<text x="361.171" y="143.141" fill="black" font-size="12.2071" font-family="Helvetica">
2-Counts 
</text>
<text x="484.024" y="142.014" fill="black" font-size="12.2071" font-family="Helvetica">
 1.058e+03
</text>
<text x="477.261" y="142.014" fill="black" font-size="12.2071" font-family="Times">
&#0177;
</text>
<text x="414.144" y="142.014" fill="black" font-size="12.2071" font-family="Helvetica">
 2.258e+05 
</text>
<text x="361.171" y="158.921" fill="black" font-size="12.2071" font-family="Helvetica">
Intercept 
</text>
<text x="517.837" y="158.921" fill="black" font-size="12.2071" font-family="Helvetica">
 51.8
</text>
<text x="511.074" y="158.921" fill="black" font-size="12.2071" font-family="Times">
&#0177;
</text>
<text x="475.007" y="158.921" fill="black" font-size="12.2071" font-family="Helvetica">
  5652 
</text>
<text x="361.171" y="175.827" fill="black" font-size="12.2071" font-family="Helvetica">
Slope    
</text>
<text x="517.837" y="175.827" fill="black" font-size="12.2071" font-family="Helvetica">
 0.47
</text>
<text x="511.074" y="175.827" fill="black" font-size="12.2071" font-family="Times">
&#0177;
</text>
<text x="478.389" y="175.827" fill="black" font-size="12.2071" font-family="Helvetica">
41.97 
</text>
<text x="471.626" y="175.827" fill="black" font-size="12.2071" font-family="Times">
&#8722;
</text>
<text x="469.372" y="175.827" fill="black" font-size="12.2071" font-family="Helvetica">
 
</text>
<path d="M59.4606,349.853l 4.53543, -0.0586139l 4.53543, -0.0867626l 4.53543, -0.126782l 4.53543, -0.182877l 4.53543, -0.260379l 4.53543, -0.365911l 4.53543, -0.5075l 4.53543, -0.694635l 4.53543, -0.938211l 4.53543, -1.25034l 4.53543, -1.64397l
 4.53543, -2.13229l 4.53543, -2.72793l 4.53543, -3.44181l 4.53543, -4.2819l 4.53543, -5.25169l 4.53543, -6.34861l 4.53543, -7.56248l 4.53543, -8.87416l 4.53543, -10.2545l 4.53543, -11.664l 4.53543, -13.0528l 4.53543, -14.3623l 4.53543, -15.5267l
 4.53543, -16.4764l 4.53543, -17.1415l 4.53543, -17.4567l 4.53543, -17.3657l 4.53543, -16.8259l 4.53543, -15.8131l 4.53543, -14.3242l 4.53543, -12.3797l 4.53543, -10.024l 4.53543, -7.3241l 4.53543, -4.3666l 4.53543, -1.25314l 4.53543, 1.90541l
 4.53543, 4.99546l 4.53543, 7.90753l 4.53543, 10.5427l 4.53543, 12.818l 4.53543, 14.671l 4.53543, 16.0622l 4.53543, 16.9761l 4.53543, 17.4202l 4.53543, 17.4231l 4.53543, 17.0305l 4.53543, 16.3008l 4.53543, 15.3009" fill="none" stroke="#00ff00"
 stroke-width="2"/>
<path d="M281.697,256.859l 4.53543, 14.1008l 4.53543, 12.7696l 4.53543, 11.372l 4.53543, 9.96478l 4.53543, 8.59575l 4.53543, 7.30228l 4.53543, 6.11137l 4.53543, 5.04022l 4.53543, 4.0973l 4.53543, 3.28381l 4.53543, 2.59519l 4.53543, 2.02275l 4.53543,
 1.5551l 4.53543, 1.17944l 4.53543, 0.882552l 4.53543, 0.651624l 4.53543, 0.474772l 4.53543, 0.341381l 4.53543, 0.242265l 4.53543, 0.169696l 4.53543, 0.117329l 4.53543, 0.0800784l 4.53543, 0.0539542l 4.53543, 0.0358885l 4.53543, 0.023568l 4.53543,
 0.0410204h 104.315" fill="none" stroke="#00ff00" stroke-width="2"/>
<path d="M503.933,349.963h 4.53543" fill="none" stroke="#00ff00" stroke-width="2"/>
<path d="M59.4606,349.963h 126.992l 4.53543, -0.0444584l 4.53543, -0.0332928l 4.53543, -0.0557041l 4.53543, -0.0913671l 4.53543, -0.1469l 4.53543, -0.231493l 4.53543, -0.357515l 4.53543, -0.541047l 4.53543, -0.802236l 4.53543, -1.16527l 4.53543,
 -1.65779l 4.53543, -2.30952l 4.53543, -3.14994l 4.53543, -4.20484l 4.53543, -5.49192l 4.53543, -7.01551l 4.53543, -8.76104l 4.53543, -10.6899l 4.53543, -12.7356l 4.53543, -14.8021l 4.53543, -16.766" fill="none" stroke="#00ff00" stroke-width="2"/>
<path d="M281.697,258.91l 4.53543, -18.4814l 4.53543, -19.7904l 4.53543, -20.536l 4.53543, -20.5784l 4.53543, -19.8113l 4.53543, -18.1781l 4.53543, -15.6828l 4.53543, -12.3965l 4.53543, -8.45622l 4.53543, -4.05599l 4.53543, 0.5687l 4.53543, 5.16177l
 4.53543, 9.47006l 4.53543, 13.2664l 4.53543, 16.3696l 4.53543, 18.6582l 4.53543, 20.0776l 4.53543, 20.6394l 4.53543, 20.4138l 4.53543, 19.5166l 4.53543, 18.0935l 4.53543, 16.303l 4.53543, 14.3013l 4.53543, 12.2295l 4.53543, 10.2046l 4.53543,
 8.31554l 4.53543, 6.62169l 4.53543, 5.15538l 4.53543, 3.92606l 4.53543, 2.9256l 4.53543, 2.13389l 4.53543, 1.52386l 4.53543, 1.06568l 4.53543, 0.729982l 4.53543, 0.489859l 4.53543, 0.322084l 4.53543, 0.207524l 4.53543, 0.131044l 4.53543, 0.0811077l
 4.53543, 0.0492091l 4.53543, 0.0292688l 4.53543, 0.0386708h 31.748" fill="none" stroke="#00ff00" stroke-width="2"/>
<path d="M503.933,349.963h 4.53543" fill="none" stroke="#00ff00" stroke-width="2"/>
<text x="199.996" y="19.1606" fill="black" font-size="19.4848" font-family="Helvetica">
Wk1/Ascii/44Ti.Spe
</text></svg>
