<?xml version="1.0" standalone="no"?>
<svg width="567.429" height="376.817" viewBox="0 0 567.429 376.817" xmlns="http://www.w3.org/2000/svg">
<title>
/home/ADF/hyw543/Coincidence/c1.svg
</title>
<desc>
Creator: ROOT Version 6.06/08
CreationDate: Tue Jan  8 17:16:33 2019</desc>
<defs>
</defs>
<rect x="0.5" y="0" width="566.929" height="376.317" fill="white"/>
<rect x="57.1929" y="37.6317" width="453.543" height="301.053" fill="white"/>
<rect x="57.1929" y="37.6317" width="453.543" height="301.053" fill="none" stroke="black"/>
<rect x="57.1929" y="37.6317" width="453.543" height="301.053" fill="white"/>
<rect x="57.1929" y="37.6317" width="453.543" height="301.053" fill="none" stroke="black"/>
<path d="M57.1929,253.304h 1.39124v -9.29894h 1.39124v -0.422679h 1.39124v -0.704465h 1.39124v -13.8075h 1.39124v 5.49483h 1.39124v -9.43984h 1.39124v 2.67697h 1.39124v -8.31269h 1.39124v 4.64947h 1.39124v -6.1993h 1.39124v -3.09965h 1.39124v
 -10.7079h 1.39124v -7.89001h 1.39124v 2.39518h 1.39124v -10.7079h 1.39124v -0.563572h 1.39124v -4.50858h 1.39124v -12.1168h 1.39124v -1.9725h 1.39124v 7.18555h 1.39124v -13.8075h 1.39124v -15.2165h 1.39124v 1.9725h 1.39124v 1.12714h 1.39124v
 -18.3161h 1.39124v 11.2714h 1.39124v -17.189h 1.39124v 1.69072h 1.39124v -19.0206h 1.39124v 5.07215h 1.39124v -0.845358h 1.39124v 1.54982h 1.39124v -16.4845h 1.39124v -1.40893h 1.39124v -0.563572h 1.39124v -8.1718h 1.39124v -6.34019h 1.39124v
 13.2439h 1.39124v -13.8075h 1.39124v 4.93126h 1.39124v -10.2852h 1.39124v 0.281786h 1.39124v -9.86251h 1.39124v -1.40893h 1.39124v -3.80411h 1.39124v 3.24054h 1.39124v 9.29894h 1.39124v -7.89001h 1.39124v -1.69072h 1.39124v -3.80411h 1.39124v
 -1.69072h 1.39124v 3.38143h 1.39124v -8.59448h 1.39124v -0.845358h 1.39124v 10.2852h 1.39124v -2.25429h 1.39124v 3.09965h 1.39124v 2.53608h 1.39124v 7.46733h 1.39124v 0.986251h 1.39124v 4.64947h 1.39124v -1.83161h 1.39124v 12.1168h 1.39124v
 -0.704465h 1.39124v -0.845358h 1.39124v 6.34019h 1.39124v -6.90376h 1.39124v 12.9622h 1.39124v 4.93126h 1.39124v 9.86251h 1.39124v -4.50858h 1.39124v 4.0859h 1.39124v 4.64947h 1.39124v 10.8488h 1.39124v 5.35394h 1.39124v 15.0756h 1.39124v -4.22679h
 1.39124v 2.81786h 1.39124v 15.6391h 1.39124v -7.89001h 1.39124v 6.48108h 1.39124v 10.567h 1.39124v 7.18555h 1.39124v 12.6804h 1.39124v 3.24054h 1.39124v -0.140893h 1.39124v 1.69072h 1.39124v 5.77662h 1.39124v 10.9897h 1.39124v 4.93126h 1.39124v
 0.140893h 1.39124v 14.512h 1.39124v -1.83161h 1.39124v 2.81786h 1.39124v 11.835h 1.39124v -0.140893h 1.39124v 3.52233h 1.39124v 4.50858h 1.39124v 8.0309h 1.39124v -1.83161h 1.39124v 7.18555h 1.39124v 0.422679h 1.39124v -1.54982h 1.39124v 15.0756h
 1.39124v -4.79036h 1.39124v 6.1993h 1.39124v 6.62197h 1.39124v -2.25429h 1.39124v 10.0034h 1.39124v -6.0584h 1.39124v 4.22679h 1.39124v 7.32644h 1.39124v -0.563572h 1.39124v 0.140893h 1.39124v -1.26804h 1.39124v 2.81786h 1.39124v 5.49483h 1.39124v
 -1.40893h 1.39124v 3.80411h 1.39124v -1.40893h 1.39124v 2.39518h 1.39124v 2.67697h 1.39124v -0.563572h 1.39124v 3.66322h 1.39124v -0.422679h 1.39124v -0.281786h 1.39124v 3.38143h 1.39124v 0.563572h 1.39124v 0.422679h 1.39124v -0.140893h 1.39124v
 0.986251h 1.39124v 1.40893h 1.39124v -1.9725h 1.39124v 0.704465h 1.39124v -0.140893h 1.39124v 1.40893h 1.39124v -2.95875h 1.39124v 1.54982h 1.39124v 2.67697h 1.39124v -0.845358h 1.39124v -2.25429h 2.78247v 1.40893h 1.39124v -3.38143h 1.39124v
 1.54982h 1.39124v 2.53608h 1.39124v -2.81786h 1.39124v -1.9725h 1.39124v 2.39518h 1.39124v -2.39518h 1.39124v 1.26804h 1.39124v -3.38143h 1.39124v -0.281786h 1.39124v -2.25429h 1.39124v 4.50858h 1.39124v -2.67697h 1.39124v -2.95875h 1.39124v
 -2.1134h 1.39124v 4.22679h 1.39124v -1.9725h 1.39124v -4.0859h 1.39124v -0.986251h 1.39124v -1.26804h 1.39124v 0.140893h 1.39124v -1.9725h 1.39124v -0.422679h 1.39124v 0.845358h 1.39124v -2.67697h 1.39124v -2.95875h 1.39124v -5.63572h 1.39124v
 4.0859h 1.39124v -6.34019h 1.39124v -0.563572h 1.39124v -6.34019h 1.39124v 2.25429h 1.39124v -4.0859h 1.39124v -6.0584h 1.39124v 1.26804h 1.39124v -2.1134h 1.39124v -0.986251h 1.39124v -6.76287h 1.39124v -4.50858h 1.39124v -1.69072h 1.39124v
 -2.81786h 1.39124v -1.12714h 1.39124v -5.91751h 1.39124v -0.986251h 1.39124v -2.67697h 1.39124v 0.422679h 1.39124v -10.8488h 1.39124v -1.40893h 1.39124v -5.91751h 1.39124v -0.986251h 1.39124v -2.53608h 1.39124v -7.32644h 1.39124v 0.281786h 1.39124v
 -7.18555h 1.39124v -7.32644h 1.39124v -1.83161h 1.39124v 0.422679h 1.39124v -13.6666h 1.39124v 4.36769h 1.39124v -4.36769h 1.39124v -8.31269h 1.39124v -1.40893h 1.39124v -6.62197h 1.39124v -2.25429h 1.39124v -12.2577h 1.39124v 3.94501h 1.39124v
 -2.25429h 1.39124v -3.38143h 1.39124v -5.77662h 1.39124v -0.140893h 1.39124v 0.986251h 1.39124v -15.6391h 1.39124v 3.09965h 1.39124v -3.09965h 1.39124v 2.1134h 1.39124v -14.9347h 1.39124v 5.35394h 1.39124v -5.21304h 1.39124v -7.18555h 1.39124v
 -2.25429h 1.39124v 1.26804h 1.39124v 5.35394h 1.39124v -8.31269h 1.39124v 2.25429h 1.39124v 2.39518h 1.39124v -0.140893h 1.39124v -5.77662h 1.39124v 10.9897h 1.39124v -14.0893h 1.39124v 7.46733h 1.39124v -2.95875h 1.39124v -2.25429h 1.39124v
 11.5532h 1.39124v -8.31269h 1.39124v 1.26804h 1.39124v 6.34019h 1.39124v 10.2852h 1.39124v -8.1718h 1.39124v 9.29894h 1.39124v -10.2852h 1.39124v 11.2714h 1.39124v -1.9725h 1.39124v 3.52233h 1.39124v -0.704465h 1.39124v 19.1615h 1.39124v -9.29894h
 1.39124v 13.5257h 1.39124v -10.4261h 1.39124v 12.3986h 1.39124v -1.69072h 1.39124v -2.1134h 1.39124v 7.18555h 1.39124v -1.83161h 1.39124v 6.34019h 1.39124v 7.74912h 1.39124v 11.2714h 1.39124v 5.35394h 1.39124v -1.54982h 1.39124v 3.52233h 1.39124v
 1.83161h 1.39124v 9.43984h 1.39124v 9.58073h 1.39124v 2.25429h 1.39124v 7.32644h 1.39124v -2.1134h 1.39124v 1.69072h 1.39124v 3.09965h 1.39124v 1.9725h 1.39124v 7.89001h 1.39124v 3.66322h 1.39124v 5.21304h 1.39124v 3.38143h 1.39124v -0.422679h
 1.39124v 9.72162h 1.39124v -0.845358h 1.39124v 1.40893h 1.39124v 4.64947h 1.39124v -1.69072h 1.39124v 7.04465h 2.78247v 7.46733h 1.39124v 6.76287h 1.39124v -3.94501h 1.39124v 7.89001h 1.39124v -0.140893h 1.39124v 2.67697h 1.39124v 1.26804h 1.39124v
 -3.80411h 1.39124v 6.90376h 1.39124v 6.90376h 1.39124v 0.986251h 1.39124v 0.281786h 1.39124v 4.93126h 1.39124v 0.845358h 1.39124v 1.9725h 1.39124v -3.38143h 1.39124v 4.64947h 1.39124v -0.845358h 1.39124v 3.09965h 1.39124v 0.563572h 1.39124v 2.1134h
 1.39124v -1.26804h 1.39124v 3.66322h 1.39124v -1.40893h 1.39124v 2.39518h 1.39124v 0.422679h 1.39124v 1.9725h 1.39124v 0.281786h 1.39124v -1.12714h 1.39124v 2.95875h 1.39124v -0.140893h 1.39124v -0.845358h 1.39124v 1.9725h 1.39124v 0.563572h
 1.39124v 1.12714h 1.39124v -1.9725h 1.39124v -1.26804h 1.39124v 3.09965h 1.39124v 1.69072h 1.39124v -1.26804h 1.39124v 1.26804h 1.39124v -2.1134h 1.39124" fill="none" stroke="#ff0000" stroke-width="2"/>
<path d="M59.4606,255.209l 4.53543, -13.4503l 4.53543, -14.7347l 4.53543, -15.8642l 4.53543, -16.771l 4.53543, -17.3881l 4.53543, -17.6532l 4.53543, -17.5133l 4.53543, -16.9291l 4.53543, -15.879l 4.53543, -14.3619l 4.53543, -12.3991l 4.53543,
 -10.0348l 4.53543, -7.33428l 4.53543, -4.38176l 4.53543, -1.27553l 4.53543, 1.87728l 4.53543, 4.96679l 4.53543, 7.88682l 4.53543, 10.5409l 4.53543, 12.8475l 4.53543, 14.7444l 4.53543, 16.1907l 4.53543, 17.1688l 4.53543, 17.6828l 4.53543, 17.7574l
 4.53543, 17.434l 4.53543, 16.7672l 4.53543, 15.8202l 4.53543, 14.6601l 4.53543, 13.3538l 4.53543, 11.9648l 4.53543, 10.5493l 4.53543, 9.15517l 4.53543, 7.82015l 4.53543, 6.57163l 4.53543, 5.42691l 4.53543, 4.39397l 4.53543, 3.47263l 4.53543,
 2.65593l 4.53543, 1.93151l 4.53543, 1.28305l 4.53543, 0.691556l 4.53543, 0.136561l 4.53543, -0.402845l 4.53543, -0.947064l 4.53543, -1.51513l 4.53543, -2.12389l 4.53543, -2.78721l 4.53543, -3.51518" fill="none" stroke="#0000ff" stroke-width="2"/>
<path d="M281.697,313.699l 4.53543, -4.31331l 4.53543, -5.18179l 4.53543, -6.11482l 4.53543, -7.10008l 4.53543, -8.11842l 4.53543, -9.14392l 4.53543, -10.1443l 4.53543, -11.0818l 4.53543, -11.9144l 4.53543, -12.598l 4.53543, -13.0883l 4.53543,
 -13.3434l 4.53543, -13.3267l 4.53543, -13.0097l 4.53543, -12.3741l 4.53543, -11.4139l 4.53543, -10.1372l 4.53543, -8.56628l 4.53543, -6.73739l 4.53543, -4.6997l 4.53543, -2.51298l 4.53543, -0.244738l 4.53543, 2.03321l 4.53543, 4.24856l 4.53543,
 6.33228l 4.53543, 8.22223l 4.53543, 9.86621l 4.53543, 11.2243l 4.53543, 12.2704l 4.53543, 12.9928l 4.53543, 13.3937l 4.53543, 13.4885l 4.53543, 13.3031l 4.53543, 12.8724l 4.53543, 12.2373l 4.53543, 11.4419l 4.53543, 10.531l 4.53543, 9.54776l
 4.53543, 8.53198l 4.53543, 7.51848l 4.53543, 6.53631l 4.53543, 5.60826l 4.53543, 4.75094l 4.53543, 3.97506l 4.53543, 3.28614l 4.53543, 2.68527l 4.53543, 2.16998l 4.53543, 1.73517l 4.53543, 1.37393" fill="none" stroke="#0000ff" stroke-width="2"/>
<path d="M503.933,330.711l 4.53543, 1.07828" fill="none" stroke="#0000ff" stroke-width="2"/>
<rect x="351.996" y="24.4606" width="204.094" height="150.527" fill="white"/>
<path d="M351.996,174.987h 204.094" fill="none" stroke="black" stroke-width="2"/>
<path d="M556.091,174.987v -150.527" fill="none" stroke="black" stroke-width="2"/>
<path d="M556.091,24.4606h -204.094" fill="none" stroke="black" stroke-width="2"/>
<path d="M351.996,24.4606v 150.527" fill="none" stroke="black" stroke-width="2"/>
<text x="372.726" y="36.8136" fill="black" font-size="11.7442" font-family="Helvetica">
 / ndf 
</text>
<text x="368.636" y="32.7232" fill="black" font-size="7.99614" font-family="Helvetica">
2
</text>
<text x="362.091" y="36.8136" fill="black" font-size="11.7442" font-family="Times">
&#0967;
</text>
<text x="486.439" y="37.6317" fill="black" font-size="11.7442" font-family="Helvetica">
 364.5 / 318
</text>
<text x="362.091" y="53.9932" fill="black" font-size="11.7442" font-family="Helvetica">
1-Centroid 
</text>
<text x="528.979" y="53.1752" fill="black" font-size="11.7442" font-family="Helvetica">
 0.1
</text>
<text x="522.435" y="53.1752" fill="black" font-size="11.7442" font-family="Times">
&#0177;
</text>
<text x="488.893" y="53.1752" fill="black" font-size="11.7442" font-family="Helvetica">
  1364 
</text>
<text x="362.091" y="71.1729" fill="black" font-size="11.7442" font-family="Helvetica">
1-FWHM   
</text>
<text x="522.435" y="70.3548" fill="black" font-size="11.7442" font-family="Helvetica">
 0.31
</text>
<text x="515.89" y="70.3548" fill="black" font-size="11.7442" font-family="Times">
&#0177;
</text>
<text x="482.349" y="70.3548" fill="black" font-size="11.7442" font-family="Helvetica">
 70.84 
</text>
<text x="362.091" y="87.5345" fill="black" font-size="11.7442" font-family="Helvetica">
1-Counts 
</text>
<text x="495.438" y="86.7164" fill="black" font-size="11.7442" font-family="Helvetica">
 7.71e+02
</text>
<text x="488.893" y="86.7164" fill="black" font-size="11.7442" font-family="Times">
&#0177;
</text>
<text x="436.536" y="86.7164" fill="black" font-size="11.7442" font-family="Helvetica">
 1.45e+05 
</text>
<text x="362.091" y="103.896" fill="black" font-size="11.7442" font-family="Helvetica">
2-Centroid 
</text>
<text x="528.979" y="103.078" fill="black" font-size="11.7442" font-family="Helvetica">
 0.1
</text>
<text x="522.435" y="103.078" fill="black" font-size="11.7442" font-family="Times">
&#0177;
</text>
<text x="488.893" y="103.078" fill="black" font-size="11.7442" font-family="Helvetica">
  1546 
</text>
<text x="362.091" y="121.076" fill="black" font-size="11.7442" font-family="Helvetica">
2-FWHM   
</text>
<text x="520.799" y="120.258" fill="black" font-size="11.7442" font-family="Helvetica">
 0.30
</text>
<text x="514.254" y="120.258" fill="black" font-size="11.7442" font-family="Times">
&#0177;
</text>
<text x="480.713" y="120.258" fill="black" font-size="11.7442" font-family="Helvetica">
 74.19 
</text>
<text x="362.091" y="137.437" fill="black" font-size="11.7442" font-family="Helvetica">
2-Counts 
</text>
<text x="488.893" y="136.619" fill="black" font-size="11.7442" font-family="Helvetica">
 5.284e+02
</text>
<text x="482.349" y="136.619" fill="black" font-size="11.7442" font-family="Times">
&#0177;
</text>
<text x="423.447" y="136.619" fill="black" font-size="11.7442" font-family="Helvetica">
 1.206e+05 
</text>
<text x="362.091" y="152.981" fill="black" font-size="11.7442" font-family="Helvetica">
Intercept 
</text>
<text x="520.799" y="153.799" fill="black" font-size="11.7442" font-family="Helvetica">
 28.7
</text>
<text x="514.254" y="153.799" fill="black" font-size="11.7442" font-family="Times">
&#0177;
</text>
<text x="480.713" y="153.799" fill="black" font-size="11.7442" font-family="Helvetica">
 243.7 
</text>
<text x="362.091" y="169.342" fill="black" font-size="11.7442" font-family="Helvetica">
Slope    
</text>
<text x="507.709" y="170.161" fill="black" font-size="11.7442" font-family="Helvetica">
 0.0184
</text>
<text x="501.165" y="170.161" fill="black" font-size="11.7442" font-family="Times">
&#0177;
</text>
<text x="464.351" y="170.161" fill="black" font-size="11.7442" font-family="Helvetica">
0.1316 
</text>
<text x="457.806" y="170.161" fill="black" font-size="11.7442" font-family="Times">
&#8722;
</text>
<text x="455.352" y="170.161" fill="black" font-size="11.7442" font-family="Helvetica">
 
</text>
<path d="M57.1929,338.685h 453.543" fill="none" stroke="black" stroke-width="2"/>
<text x="459.443" y="364.045" fill="black" font-size="12.5836" font-family="Helvetica">
Channels
</text>
<path d="M176.839,329.653v 9.0316" fill="none" stroke="black" stroke-width="2"/>
<path d="M204.664,334.169v 4.5158" fill="none" stroke="black" stroke-width="2"/>
<path d="M232.489,334.169v 4.5158" fill="none" stroke="black" stroke-width="2"/>
<path d="M260.314,334.169v 4.5158" fill="none" stroke="black" stroke-width="2"/>
<path d="M288.138,334.169v 4.5158" fill="none" stroke="black" stroke-width="2"/>
<path d="M315.963,329.653v 9.0316" fill="none" stroke="black" stroke-width="2"/>
<path d="M343.788,334.169v 4.5158" fill="none" stroke="black" stroke-width="2"/>
<path d="M371.613,334.169v 4.5158" fill="none" stroke="black" stroke-width="2"/>
<path d="M399.437,334.169v 4.5158" fill="none" stroke="black" stroke-width="2"/>
<path d="M427.262,334.169v 4.5158" fill="none" stroke="black" stroke-width="2"/>
<path d="M455.087,329.653v 9.0316" fill="none" stroke="black" stroke-width="2"/>
<path d="M176.839,329.653v 9.0316" fill="none" stroke="black" stroke-width="2"/>
<path d="M149.015,334.169v 4.5158" fill="none" stroke="black" stroke-width="2"/>
<path d="M121.19,334.169v 4.5158" fill="none" stroke="black" stroke-width="2"/>
<path d="M93.3651,334.169v 4.5158" fill="none" stroke="black" stroke-width="2"/>
<path d="M65.5403,334.169v 4.5158" fill="none" stroke="black" stroke-width="2"/>
<path d="M455.087,329.653v 9.0316" fill="none" stroke="black" stroke-width="2"/>
<path d="M482.911,334.169v 4.5158" fill="none" stroke="black" stroke-width="2"/>
<path d="M510.736,334.169v 4.5158" fill="none" stroke="black" stroke-width="2"/>
<text x="162.48" y="350.956" fill="black" font-size="12.5836" font-family="Helvetica">
1400
</text>
<text x="301.553" y="350.956" fill="black" font-size="12.5836" font-family="Helvetica">
1500
</text>
<text x="440.627" y="350.956" fill="black" font-size="12.5836" font-family="Helvetica">
1600
</text>
<path d="M57.1929,338.685v -301.053" fill="none" stroke="black" stroke-width="2"/>
<path d="M70.7992,338.685h -13.6063" fill="none" stroke="black" stroke-width="2"/>
<path d="M63.9961,331.64h -6.80315" fill="none" stroke="black" stroke-width="2"/>
<path d="M63.9961,324.596h -6.80315" fill="none" stroke="black" stroke-width="2"/>
<path d="M63.9961,317.551h -6.80315" fill="none" stroke="black" stroke-width="2"/>
<path d="M70.7992,310.506h -13.6063" fill="none" stroke="black" stroke-width="2"/>
<path d="M63.9961,303.462h -6.80315" fill="none" stroke="black" stroke-width="2"/>
<path d="M63.9961,296.417h -6.80315" fill="none" stroke="black" stroke-width="2"/>
<path d="M63.9961,289.372h -6.80315" fill="none" stroke="black" stroke-width="2"/>
<path d="M70.7992,282.328h -13.6063" fill="none" stroke="black" stroke-width="2"/>
<path d="M63.9961,275.283h -6.80315" fill="none" stroke="black" stroke-width="2"/>
<path d="M63.9961,268.238h -6.80315" fill="none" stroke="black" stroke-width="2"/>
<path d="M63.9961,261.194h -6.80315" fill="none" stroke="black" stroke-width="2"/>
<path d="M70.7992,254.149h -13.6063" fill="none" stroke="black" stroke-width="2"/>
<path d="M63.9961,247.104h -6.80315" fill="none" stroke="black" stroke-width="2"/>
<path d="M63.9961,240.06h -6.80315" fill="none" stroke="black" stroke-width="2"/>
<path d="M63.9961,233.015h -6.80315" fill="none" stroke="black" stroke-width="2"/>
<path d="M70.7992,225.97h -13.6063" fill="none" stroke="black" stroke-width="2"/>
<path d="M63.9961,218.926h -6.80315" fill="none" stroke="black" stroke-width="2"/>
<path d="M63.9961,211.881h -6.80315" fill="none" stroke="black" stroke-width="2"/>
<path d="M63.9961,204.837h -6.80315" fill="none" stroke="black" stroke-width="2"/>
<path d="M70.7992,197.792h -13.6063" fill="none" stroke="black" stroke-width="2"/>
<path d="M63.9961,190.747h -6.80315" fill="none" stroke="black" stroke-width="2"/>
<path d="M63.9961,183.703h -6.80315" fill="none" stroke="black" stroke-width="2"/>
<path d="M63.9961,176.658h -6.80315" fill="none" stroke="black" stroke-width="2"/>
<path d="M70.7992,169.613h -13.6063" fill="none" stroke="black" stroke-width="2"/>
<path d="M63.9961,162.569h -6.80315" fill="none" stroke="black" stroke-width="2"/>
<path d="M63.9961,155.524h -6.80315" fill="none" stroke="black" stroke-width="2"/>
<path d="M63.9961,148.479h -6.80315" fill="none" stroke="black" stroke-width="2"/>
<path d="M70.7992,141.435h -13.6063" fill="none" stroke="black" stroke-width="2"/>
<path d="M63.9961,134.39h -6.80315" fill="none" stroke="black" stroke-width="2"/>
<path d="M63.9961,127.345h -6.80315" fill="none" stroke="black" stroke-width="2"/>
<path d="M63.9961,120.301h -6.80315" fill="none" stroke="black" stroke-width="2"/>
<path d="M70.7992,113.256h -13.6063" fill="none" stroke="black" stroke-width="2"/>
<path d="M63.9961,106.211h -6.80315" fill="none" stroke="black" stroke-width="2"/>
<path d="M63.9961,99.1667h -6.80315" fill="none" stroke="black" stroke-width="2"/>
<path d="M63.9961,92.1221h -6.80315" fill="none" stroke="black" stroke-width="2"/>
<path d="M70.7992,85.0774h -13.6063" fill="none" stroke="black" stroke-width="2"/>
<path d="M63.9961,78.0327h -6.80315" fill="none" stroke="black" stroke-width="2"/>
<path d="M63.9961,70.9881h -6.80315" fill="none" stroke="black" stroke-width="2"/>
<path d="M63.9961,63.9434h -6.80315" fill="none" stroke="black" stroke-width="2"/>
<path d="M70.7992,56.8988h -13.6063" fill="none" stroke="black" stroke-width="2"/>
<path d="M70.7992,56.8988h -13.6063" fill="none" stroke="black" stroke-width="2"/>
<path d="M63.9961,49.8541h -6.80315" fill="none" stroke="black" stroke-width="2"/>
<path d="M63.9961,42.8095h -6.80315" fill="none" stroke="black" stroke-width="2"/>
<text x="47.1305" y="343.593" fill="black" font-size="12.5836" font-family="Helvetica">
0
</text>
<text x="33.2232" y="314.961" fill="black" font-size="12.5836" font-family="Helvetica">
200
</text>
<text x="33.2232" y="287.146" fill="black" font-size="12.5836" font-family="Helvetica">
400
</text>
<text x="33.2232" y="258.513" fill="black" font-size="12.5836" font-family="Helvetica">
600
</text>
<text x="33.2232" y="230.698" fill="black" font-size="12.5836" font-family="Helvetica">
800
</text>
<text x="26.6785" y="202.066" fill="black" font-size="12.5836" font-family="Helvetica">
1000
</text>
<text x="26.6785" y="174.251" fill="black" font-size="12.5836" font-family="Helvetica">
1200
</text>
<text x="26.6785" y="145.618" fill="black" font-size="12.5836" font-family="Helvetica">
1400
</text>
<text x="26.6785" y="117.803" fill="black" font-size="12.5836" font-family="Helvetica">
1600
</text>
<text x="26.6785" y="89.1707" fill="black" font-size="12.5836" font-family="Helvetica">
1800
</text>
<text x="26.6785" y="61.356" fill="black" font-size="12.5836" font-family="Helvetica">
2000
</text>
<rect x="351.996" y="24.4606" width="204.094" height="150.527" fill="white"/>
<path d="M351.996,174.987h 204.094" fill="none" stroke="black" stroke-width="2"/>
<path d="M556.091,174.987v -150.527" fill="none" stroke="black" stroke-width="2"/>
<path d="M556.091,24.4606h -204.094" fill="none" stroke="black" stroke-width="2"/>
<path d="M351.996,24.4606v 150.527" fill="none" stroke="black" stroke-width="2"/>
<text x="372.726" y="36.8136" fill="black" font-size="11.7442" font-family="Helvetica">
 / ndf 
</text>
<text x="368.636" y="32.7232" fill="black" font-size="7.99614" font-family="Helvetica">
2
</text>
<text x="362.091" y="36.8136" fill="black" font-size="11.7442" font-family="Times">
&#0967;
</text>
<text x="486.439" y="37.6317" fill="black" font-size="11.7442" font-family="Helvetica">
 364.5 / 318
</text>
<text x="362.091" y="53.9932" fill="black" font-size="11.7442" font-family="Helvetica">
1-Centroid 
</text>
<text x="528.979" y="53.1752" fill="black" font-size="11.7442" font-family="Helvetica">
 0.1
</text>
<text x="522.435" y="53.1752" fill="black" font-size="11.7442" font-family="Times">
&#0177;
</text>
<text x="488.893" y="53.1752" fill="black" font-size="11.7442" font-family="Helvetica">
  1364 
</text>
<text x="362.091" y="71.1729" fill="black" font-size="11.7442" font-family="Helvetica">
1-FWHM   
</text>
<text x="522.435" y="70.3548" fill="black" font-size="11.7442" font-family="Helvetica">
 0.31
</text>
<text x="515.89" y="70.3548" fill="black" font-size="11.7442" font-family="Times">
&#0177;
</text>
<text x="482.349" y="70.3548" fill="black" font-size="11.7442" font-family="Helvetica">
 70.84 
</text>
<text x="362.091" y="87.5345" fill="black" font-size="11.7442" font-family="Helvetica">
1-Counts 
</text>
<text x="495.438" y="86.7164" fill="black" font-size="11.7442" font-family="Helvetica">
 7.71e+02
</text>
<text x="488.893" y="86.7164" fill="black" font-size="11.7442" font-family="Times">
&#0177;
</text>
<text x="436.536" y="86.7164" fill="black" font-size="11.7442" font-family="Helvetica">
 1.45e+05 
</text>
<text x="362.091" y="103.896" fill="black" font-size="11.7442" font-family="Helvetica">
2-Centroid 
</text>
<text x="528.979" y="103.078" fill="black" font-size="11.7442" font-family="Helvetica">
 0.1
</text>
<text x="522.435" y="103.078" fill="black" font-size="11.7442" font-family="Times">
&#0177;
</text>
<text x="488.893" y="103.078" fill="black" font-size="11.7442" font-family="Helvetica">
  1546 
</text>
<text x="362.091" y="121.076" fill="black" font-size="11.7442" font-family="Helvetica">
2-FWHM   
</text>
<text x="520.799" y="120.258" fill="black" font-size="11.7442" font-family="Helvetica">
 0.30
</text>
<text x="514.254" y="120.258" fill="black" font-size="11.7442" font-family="Times">
&#0177;
</text>
<text x="480.713" y="120.258" fill="black" font-size="11.7442" font-family="Helvetica">
 74.19 
</text>
<text x="362.091" y="137.437" fill="black" font-size="11.7442" font-family="Helvetica">
2-Counts 
</text>
<text x="488.893" y="136.619" fill="black" font-size="11.7442" font-family="Helvetica">
 5.284e+02
</text>
<text x="482.349" y="136.619" fill="black" font-size="11.7442" font-family="Times">
&#0177;
</text>
<text x="423.447" y="136.619" fill="black" font-size="11.7442" font-family="Helvetica">
 1.206e+05 
</text>
<text x="362.091" y="152.981" fill="black" font-size="11.7442" font-family="Helvetica">
Intercept 
</text>
<text x="520.799" y="153.799" fill="black" font-size="11.7442" font-family="Helvetica">
 28.7
</text>
<text x="514.254" y="153.799" fill="black" font-size="11.7442" font-family="Times">
&#0177;
</text>
<text x="480.713" y="153.799" fill="black" font-size="11.7442" font-family="Helvetica">
 243.7 
</text>
<text x="362.091" y="169.342" fill="black" font-size="11.7442" font-family="Helvetica">
Slope    
</text>
<text x="507.709" y="170.161" fill="black" font-size="11.7442" font-family="Helvetica">
 0.0184
</text>
<text x="501.165" y="170.161" fill="black" font-size="11.7442" font-family="Times">
&#0177;
</text>
<text x="464.351" y="170.161" fill="black" font-size="11.7442" font-family="Helvetica">
0.1316 
</text>
<text x="457.806" y="170.161" fill="black" font-size="11.7442" font-family="Times">
&#8722;
</text>
<text x="455.352" y="170.161" fill="black" font-size="11.7442" font-family="Helvetica">
 
</text>
<path d="M59.4606,265.149l 4.53543, -13.5108l 4.53543, -14.7952l 4.53543, -15.9246l 4.53543, -16.8315l 4.53543, -17.4486l 4.53543, -17.7136l 4.53543, -17.5737l 4.53543, -16.9896l 4.53543, -15.9395l 4.53543, -14.4224l 4.53543, -12.4596l 4.53543,
 -10.0952l 4.53543, -7.39474l 4.53543, -4.44222l 4.53543, -1.33598l 4.53543, 1.81683l 4.53543, 4.90634l 4.53543, 7.82639l 4.53543, 10.4805l 4.53543, 12.7872l 4.53543, 14.6841l 4.53543, 16.1306l 4.53543, 17.1088l 4.53543, 17.6231l 4.53543, 17.6981l
 4.53543, 17.3755l 4.53543, 16.7099l 4.53543, 15.7646l 4.53543, 14.6071l 4.53543, 13.3048l 4.53543, 11.9215l 4.53543, 10.5145l 4.53543, 9.1324l 4.53543, 7.8145l 4.53543, 6.58996l 4.53543, 5.47843l 4.53543, 4.49086l 4.53543, 3.63073l 4.53543, 2.89556l
 4.53543, 2.27832l 4.53543, 1.7689l 4.53543, 1.35536l 4.53543, 1.02499l 4.53543, 0.765128l 4.53543, 0.563826l 4.53543, 0.41019l 4.53543, 0.294637l 4.53543, 0.208968l 4.53543, 0.146349" fill="none" stroke="#00ff00" stroke-width="2"/>
<path d="M281.697,338.381l 4.53543, 0.101213l 4.53543, 0.0691275l 4.53543, 0.0466279l 4.53543, 0.031063l 4.53543, 0.020439l 4.53543, 0.0358536h 195.024" fill="none" stroke="#00ff00" stroke-width="2"/>
<path d="M503.933,338.685h 4.53543" fill="none" stroke="#00ff00" stroke-width="2"/>
<path d="M59.4606,338.685h 131.528l 4.53543, -0.0322623l 4.53543, -0.0172316l 4.53543, -0.0256299l 4.53543, -0.0376927l 4.53543, -0.0548076l 4.53543, -0.0787922l 4.53543, -0.111987l 4.53543, -0.157351l 4.53543, -0.218561l 4.53543, -0.300092l 4.53543,
 -0.407275l 4.53543, -0.546319l 4.53543, -0.724269l 4.53543, -0.948886l 4.53543, -1.22844l 4.53543, -1.57135l 4.53543, -1.98578l 4.53543, -2.47899l 4.53543, -3.05664l 4.53543, -3.72199" fill="none" stroke="#00ff00" stroke-width="2"/>
<path d="M281.697,320.981l 4.53543, -4.47498l 4.53543, -5.31138l 4.53543, -6.22191l 4.53543, -7.1916l 4.53543, -8.19932l 4.53543, -9.21767l 4.53543, -10.2133l 4.53543, -11.1477l 4.53543, -11.9783l 4.53543, -12.6606l 4.53543, -13.15l 4.53543,
 -13.4046l 4.53543, -13.3876l 4.53543, -13.0705l 4.53543, -12.4347l 4.53543, -11.4745l 4.53543, -10.1978l 4.53543, -8.62677l 4.53543, -6.79787l 4.53543, -4.76017l 4.53543, -2.57344l 4.53543, -0.305203l 4.53543, 1.97275l 4.53543, 4.18809l 4.53543,
 6.27182l 4.53543, 8.16177l 4.53543, 9.80575l 4.53543, 11.1638l 4.53543, 12.2099l 4.53543, 12.9323l 4.53543, 13.3333l 4.53543, 13.428l 4.53543, 13.2426l 4.53543, 12.812l 4.53543, 12.1769l 4.53543, 11.3815l 4.53543, 10.4705l 4.53543, 9.48729l 4.53543,
 8.47151l 4.53543, 7.45802l 4.53543, 6.47585l 4.53543, 5.5478l 4.53543, 4.69047l 4.53543, 3.9146l 4.53543, 3.22568l 4.53543, 2.6248l 4.53543, 2.10952l 4.53543, 1.67471l 4.53543, 1.31347" fill="none" stroke="#00ff00" stroke-width="2"/>
<path d="M503.933,334.726l 4.53543, 1.01782" fill="none" stroke="#00ff00" stroke-width="2"/>
<text x="155.117" y="18.8158" fill="black" font-size="18.873" font-family="Helvetica">
Wk1/Ascii/60Co_spectrum.Spe
</text></svg>
