<?xml version="1.0" standalone="no"?>
<svg width="567.429" height="312.808" viewBox="0 0 567.429 312.808" xmlns="http://www.w3.org/2000/svg">
<title>
/home/ADF/hyw543/Coincidence/c1.svg
</title>
<desc>
Creator: ROOT Version 6.06/08
CreationDate: Wed Jan  9 19:08:01 2019</desc>
<defs>
</defs>
<rect x="0.5" y="0" width="566.929" height="312.308" fill="white"/>
<rect x="57.1929" y="31.2308" width="453.543" height="249.847" fill="white"/>
<rect x="57.1929" y="31.2308" width="453.543" height="249.847" fill="none" stroke="black"/>
<rect x="57.1929" y="31.2308" width="453.543" height="249.847" fill="white"/>
<rect x="57.1929" y="31.2308" width="453.543" height="249.847" fill="none" stroke="black"/>
<path d="M57.1929,246.424h 18.8976v -4.26732h 18.8976v -6.39179h 18.8976v -9.68425h 18.8976v -10.4016h 18.8976v -12.7652h 18.8976v -17.1061h 18.8976v -22.6242h 18.8976v -25.0337h 18.8976v -25.4016h 18.8976v -25.466h 18.8976v -21.916h 18.8976v
 -16.6554h 18.8976v -5.58247h 18.8976v 1.10362h 18.8976v 14.7609h 18.8976v 22.7713h 18.8976v 30.0092h 18.8976v 31.2416h 18.8976v 32.1705h 18.8976v 26.8179h 18.8976v 22.3942h 18.8976v 16.6094h 18.8976v 12.7376h 18.8976" fill="none" stroke="#ff0000"
 stroke-width="2"/>
<path d="M59.4606,243.637l 4.53543, -0.230506l 4.53543, -0.305572l 4.53543, -0.388631l 4.53543, -0.480203l 4.53543, -0.580788l 4.53543, -0.690861l 4.53543, -0.810856l 4.53543, -0.941163l 4.53543, -1.08211l 4.53543, -1.23394l 4.53543, -1.39683l
 4.53543, -1.57083l 4.53543, -1.7559l 4.53543, -1.95184l 4.53543, -2.15835l 4.53543, -2.37494l 4.53543, -2.60096l 4.53543, -2.83559l 4.53543, -3.07783l 4.53543, -3.32648l 4.53543, -3.58014l 4.53543, -3.83723l 4.53543, -4.09597l 4.53543, -4.3544l
 4.53543, -4.61036l 4.53543, -4.86155l 4.53543, -5.10551l 4.53543, -5.33966l 4.53543, -5.56132l 4.53543, -5.76771l 4.53543, -5.95604l 4.53543, -6.1235l 4.53543, -6.26732l 4.53543, -6.38477l 4.53543, -6.47327l 4.53543, -6.53036l 4.53543, -6.5538l
 4.53543, -6.54157l 4.53543, -6.49193l 4.53543, -6.40345l 4.53543, -6.27506l 4.53543, -6.10604l 4.53543, -5.89612l 4.53543, -5.6454l 4.53543, -5.35446l 4.53543, -5.02431l 4.53543, -4.65641l 4.53543, -4.25266l 4.53543, -3.81538" fill="none"
 stroke="#0000ff" stroke-width="2"/>
<path d="M281.697,55.9775l 4.53543, -3.34731l 4.53543, -2.85157l 4.53543, -2.33163l 4.53543, -1.79124l 4.53543, -1.23445l 4.53543, -0.665505l 4.53543, -0.088795l 4.53543, 0.491172l 4.53543, 1.06985l 4.53543, 1.64272l 4.53543, 2.20531l 4.53543,
 2.75332l 4.53543, 3.28262l 4.53543, 3.7893l 4.53543, 4.26978l 4.53543, 4.72078l 4.53543, 5.13939l 4.53543, 5.5231l 4.53543, 5.86984l 4.53543, 6.17794l 4.53543, 6.4462l 4.53543, 6.67387l 4.53543, 6.86062l 4.53543, 7.00658l 4.53543, 7.11227l 4.53543,
 7.1786l 4.53543, 7.20687l 4.53543, 7.19868l 4.53543, 7.15592l 4.53543, 7.08076l 4.53543, 6.97556l 4.53543, 6.84285l 4.53543, 6.68531l 4.53543, 6.50569l 4.53543, 6.30679l 4.53543, 6.09142l 4.53543, 5.86236l 4.53543, 5.62233l 4.53543, 5.37396l
 4.53543, 5.11978l 4.53543, 4.86215l 4.53543, 4.60329l 4.53543, 4.34525l 4.53543, 4.08989l 4.53543, 3.83889l 4.53543, 3.59371l 4.53543, 3.35564l 4.53543, 3.12578l 4.53543, 2.90501" fill="none" stroke="#0000ff" stroke-width="2"/>
<path d="M503.933,256.628l 4.53543, 2.69406" fill="none" stroke="#0000ff" stroke-width="2"/>
<rect x="191.347" y="179.461" width="203.945" height="87.3997" fill="white"/>
<path d="M191.347,266.86h 203.945" fill="none" stroke="black" stroke-width="2"/>
<path d="M395.292,266.86v -87.3997" fill="none" stroke="black" stroke-width="2"/>
<path d="M395.292,179.461h -203.945" fill="none" stroke="black" stroke-width="2"/>
<path d="M191.347,179.461v 87.3997" fill="none" stroke="black" stroke-width="2"/>
<text x="213.347" y="189.971" fill="black" font-size="11.9114" font-family="Helvetica">
 / ndf 
</text>
<text x="208.374" y="185.993" fill="black" font-size="8.10757" font-family="Helvetica">
2
</text>
<text x="201.412" y="189.971" fill="black" font-size="11.9114" font-family="Times">
&#0967;
</text>
<text x="329.717" y="190.966" fill="black" font-size="11.9114" font-family="Helvetica">
 187.9 / 19
</text>
<text x="201.412" y="205.885" fill="black" font-size="11.9114" font-family="Helvetica">
Centroid 
</text>
<text x="358.561" y="205.885" fill="black" font-size="11.9114" font-family="Helvetica">
 0.02
</text>
<text x="351.598" y="205.885" fill="black" font-size="11.9114" font-family="Times">
&#0177;
</text>
<text x="317.781" y="205.885" fill="black" font-size="11.9114" font-family="Helvetica">
 99.61 
</text>
<text x="201.412" y="220.804" fill="black" font-size="11.9114" font-family="Helvetica">
FWHM     
</text>
<text x="358.561" y="220.804" fill="black" font-size="11.9114" font-family="Helvetica">
 0.05
</text>
<text x="351.598" y="220.804" fill="black" font-size="11.9114" font-family="Times">
&#0177;
</text>
<text x="315.792" y="220.804" fill="black" font-size="11.9114" font-family="Helvetica">
 11.03 
</text>
<text x="201.412" y="234.729" fill="black" font-size="11.9114" font-family="Helvetica">
Counts   
</text>
<text x="325.738" y="234.729" fill="black" font-size="11.9114" font-family="Helvetica">
 1.789e+03
</text>
<text x="318.776" y="234.729" fill="black" font-size="11.9114" font-family="Times">
&#0177;
</text>
<text x="257.11" y="234.729" fill="black" font-size="11.9114" font-family="Helvetica">
 2.837e+05 
</text>
<text x="201.412" y="248.653" fill="black" font-size="11.9114" font-family="Helvetica">
Intercept 
</text>
<text x="325.738" y="249.648" fill="black" font-size="11.9114" font-family="Helvetica">
 3.451e+02
</text>
<text x="318.776" y="249.648" fill="black" font-size="11.9114" font-family="Times">
&#0177;
</text>
<text x="257.11" y="249.648" fill="black" font-size="11.9114" font-family="Helvetica">
 1.644e+04 
</text>
<text x="201.412" y="262.578" fill="black" font-size="11.9114" font-family="Helvetica">
Slope    
</text>
<text x="365.523" y="263.572" fill="black" font-size="11.9114" font-family="Helvetica">
 3.9
</text>
<text x="358.561" y="263.572" fill="black" font-size="11.9114" font-family="Times">
&#0177;
</text>
<text x="327.728" y="263.572" fill="black" font-size="11.9114" font-family="Helvetica">
148.1 
</text>
<text x="320.765" y="263.572" fill="black" font-size="11.9114" font-family="Times">
&#8722;
</text>
<text x="317.781" y="263.572" fill="black" font-size="11.9114" font-family="Helvetica">
 
</text>
<path d="M57.1929,281.077h 453.543" fill="none" stroke="black" stroke-width="2"/>
<text x="469.957" y="302.362" fill="black" font-size="10.5282" font-family="Helvetica">
Channels
</text>
<path d="M132.783,273.582v 7.4954" fill="none" stroke="black" stroke-width="2"/>
<path d="M151.681,277.33v 3.7477" fill="none" stroke="black" stroke-width="2"/>
<path d="M170.579,277.33v 3.7477" fill="none" stroke="black" stroke-width="2"/>
<path d="M189.476,277.33v 3.7477" fill="none" stroke="black" stroke-width="2"/>
<path d="M208.374,277.33v 3.7477" fill="none" stroke="black" stroke-width="2"/>
<path d="M227.272,273.582v 7.4954" fill="none" stroke="black" stroke-width="2"/>
<path d="M246.169,277.33v 3.7477" fill="none" stroke="black" stroke-width="2"/>
<path d="M265.067,277.33v 3.7477" fill="none" stroke="black" stroke-width="2"/>
<path d="M283.965,277.33v 3.7477" fill="none" stroke="black" stroke-width="2"/>
<path d="M302.862,277.33v 3.7477" fill="none" stroke="black" stroke-width="2"/>
<path d="M321.76,273.582v 7.4954" fill="none" stroke="black" stroke-width="2"/>
<path d="M340.657,277.33v 3.7477" fill="none" stroke="black" stroke-width="2"/>
<path d="M359.555,277.33v 3.7477" fill="none" stroke="black" stroke-width="2"/>
<path d="M378.453,277.33v 3.7477" fill="none" stroke="black" stroke-width="2"/>
<path d="M397.35,277.33v 3.7477" fill="none" stroke="black" stroke-width="2"/>
<path d="M416.248,273.582v 7.4954" fill="none" stroke="black" stroke-width="2"/>
<path d="M435.146,277.33v 3.7477" fill="none" stroke="black" stroke-width="2"/>
<path d="M454.043,277.33v 3.7477" fill="none" stroke="black" stroke-width="2"/>
<path d="M472.941,277.33v 3.7477" fill="none" stroke="black" stroke-width="2"/>
<path d="M491.839,277.33v 3.7477" fill="none" stroke="black" stroke-width="2"/>
<path d="M510.736,273.582v 7.4954" fill="none" stroke="black" stroke-width="2"/>
<path d="M132.783,273.582v 7.4954" fill="none" stroke="black" stroke-width="2"/>
<path d="M113.886,277.33v 3.7477" fill="none" stroke="black" stroke-width="2"/>
<path d="M94.9882,277.33v 3.7477" fill="none" stroke="black" stroke-width="2"/>
<path d="M76.0906,277.33v 3.7477" fill="none" stroke="black" stroke-width="2"/>
<path d="M57.1929,277.33v 3.7477" fill="none" stroke="black" stroke-width="2"/>
<text x="126.816" y="290.427" fill="black" font-size="10.5282" font-family="Helvetica">
90
</text>
<text x="221.304" y="290.427" fill="black" font-size="10.5282" font-family="Helvetica">
95
</text>
<text x="312.808" y="290.427" fill="black" font-size="10.5282" font-family="Helvetica">
100
</text>
<text x="407.297" y="290.427" fill="black" font-size="10.5282" font-family="Helvetica">
105
</text>
<text x="501.785" y="290.427" fill="black" font-size="10.5282" font-family="Helvetica">
110
</text>
<path d="M57.1929,281.077v -249.847" fill="none" stroke="black" stroke-width="2"/>
<path d="M70.7992,281.077h -13.6063" fill="none" stroke="black" stroke-width="2"/>
<path d="M63.9961,271.881h -6.80315" fill="none" stroke="black" stroke-width="2"/>
<path d="M63.9961,262.684h -6.80315" fill="none" stroke="black" stroke-width="2"/>
<path d="M63.9961,253.487h -6.80315" fill="none" stroke="black" stroke-width="2"/>
<path d="M63.9961,244.29h -6.80315" fill="none" stroke="black" stroke-width="2"/>
<path d="M70.7992,235.093h -13.6063" fill="none" stroke="black" stroke-width="2"/>
<path d="M63.9961,225.897h -6.80315" fill="none" stroke="black" stroke-width="2"/>
<path d="M63.9961,216.7h -6.80315" fill="none" stroke="black" stroke-width="2"/>
<path d="M63.9961,207.503h -6.80315" fill="none" stroke="black" stroke-width="2"/>
<path d="M63.9961,198.306h -6.80315" fill="none" stroke="black" stroke-width="2"/>
<path d="M70.7992,189.109h -13.6063" fill="none" stroke="black" stroke-width="2"/>
<path d="M63.9961,179.913h -6.80315" fill="none" stroke="black" stroke-width="2"/>
<path d="M63.9961,170.716h -6.80315" fill="none" stroke="black" stroke-width="2"/>
<path d="M63.9961,161.519h -6.80315" fill="none" stroke="black" stroke-width="2"/>
<path d="M63.9961,152.322h -6.80315" fill="none" stroke="black" stroke-width="2"/>
<path d="M70.7992,143.125h -13.6063" fill="none" stroke="black" stroke-width="2"/>
<path d="M63.9961,133.928h -6.80315" fill="none" stroke="black" stroke-width="2"/>
<path d="M63.9961,124.732h -6.80315" fill="none" stroke="black" stroke-width="2"/>
<path d="M63.9961,115.535h -6.80315" fill="none" stroke="black" stroke-width="2"/>
<path d="M63.9961,106.338h -6.80315" fill="none" stroke="black" stroke-width="2"/>
<path d="M70.7992,97.1412h -13.6063" fill="none" stroke="black" stroke-width="2"/>
<path d="M63.9961,87.9444h -6.80315" fill="none" stroke="black" stroke-width="2"/>
<path d="M63.9961,78.7476h -6.80315" fill="none" stroke="black" stroke-width="2"/>
<path d="M63.9961,69.5507h -6.80315" fill="none" stroke="black" stroke-width="2"/>
<path d="M63.9961,60.3539h -6.80315" fill="none" stroke="black" stroke-width="2"/>
<path d="M70.7992,51.1571h -13.6063" fill="none" stroke="black" stroke-width="2"/>
<path d="M70.7992,51.1571h -13.6063" fill="none" stroke="black" stroke-width="2"/>
<path d="M63.9961,41.9603h -6.80315" fill="none" stroke="black" stroke-width="2"/>
<path d="M63.9961,32.7635h -6.80315" fill="none" stroke="black" stroke-width="2"/>
<text x="48.2414" y="284.459" fill="black" font-size="10.5282" font-family="Helvetica">
0
</text>
<text x="32.3276" y="238.707" fill="black" font-size="10.5282" font-family="Helvetica">
5000
</text>
<text x="26.3599" y="192.955" fill="black" font-size="10.5282" font-family="Helvetica">
10000
</text>
<text x="26.3599" y="146.208" fill="black" font-size="10.5282" font-family="Helvetica">
15000
</text>
<text x="26.3599" y="100.456" fill="black" font-size="10.5282" font-family="Helvetica">
20000
</text>
<text x="26.3599" y="54.7037" fill="black" font-size="10.5282" font-family="Helvetica">
25000
</text>
<rect x="191.347" y="179.461" width="203.945" height="87.3997" fill="white"/>
<path d="M191.347,266.86h 203.945" fill="none" stroke="black" stroke-width="2"/>
<path d="M395.292,266.86v -87.3997" fill="none" stroke="black" stroke-width="2"/>
<path d="M395.292,179.461h -203.945" fill="none" stroke="black" stroke-width="2"/>
<path d="M191.347,179.461v 87.3997" fill="none" stroke="black" stroke-width="2"/>
<text x="213.347" y="189.971" fill="black" font-size="11.9114" font-family="Helvetica">
 / ndf 
</text>
<text x="208.374" y="185.993" fill="black" font-size="8.10757" font-family="Helvetica">
2
</text>
<text x="201.412" y="189.971" fill="black" font-size="11.9114" font-family="Times">
&#0967;
</text>
<text x="329.717" y="190.966" fill="black" font-size="11.9114" font-family="Helvetica">
 187.9 / 19
</text>
<text x="201.412" y="205.885" fill="black" font-size="11.9114" font-family="Helvetica">
Centroid 
</text>
<text x="358.561" y="205.885" fill="black" font-size="11.9114" font-family="Helvetica">
 0.02
</text>
<text x="351.598" y="205.885" fill="black" font-size="11.9114" font-family="Times">
&#0177;
</text>
<text x="317.781" y="205.885" fill="black" font-size="11.9114" font-family="Helvetica">
 99.61 
</text>
<text x="201.412" y="220.804" fill="black" font-size="11.9114" font-family="Helvetica">
FWHM     
</text>
<text x="358.561" y="220.804" fill="black" font-size="11.9114" font-family="Helvetica">
 0.05
</text>
<text x="351.598" y="220.804" fill="black" font-size="11.9114" font-family="Times">
&#0177;
</text>
<text x="315.792" y="220.804" fill="black" font-size="11.9114" font-family="Helvetica">
 11.03 
</text>
<text x="201.412" y="234.729" fill="black" font-size="11.9114" font-family="Helvetica">
Counts   
</text>
<text x="325.738" y="234.729" fill="black" font-size="11.9114" font-family="Helvetica">
 1.789e+03
</text>
<text x="318.776" y="234.729" fill="black" font-size="11.9114" font-family="Times">
&#0177;
</text>
<text x="257.11" y="234.729" fill="black" font-size="11.9114" font-family="Helvetica">
 2.837e+05 
</text>
<text x="201.412" y="248.653" fill="black" font-size="11.9114" font-family="Helvetica">
Intercept 
</text>
<text x="325.738" y="249.648" fill="black" font-size="11.9114" font-family="Helvetica">
 3.451e+02
</text>
<text x="318.776" y="249.648" fill="black" font-size="11.9114" font-family="Times">
&#0177;
</text>
<text x="257.11" y="249.648" fill="black" font-size="11.9114" font-family="Helvetica">
 1.644e+04 
</text>
<text x="201.412" y="262.578" fill="black" font-size="11.9114" font-family="Helvetica">
Slope    
</text>
<text x="365.523" y="263.572" fill="black" font-size="11.9114" font-family="Helvetica">
 3.9
</text>
<text x="358.561" y="263.572" fill="black" font-size="11.9114" font-family="Times">
&#0177;
</text>
<text x="327.728" y="263.572" fill="black" font-size="11.9114" font-family="Helvetica">
148.1 
</text>
<text x="320.765" y="263.572" fill="black" font-size="11.9114" font-family="Times">
&#8722;
</text>
<text x="317.781" y="263.572" fill="black" font-size="11.9114" font-family="Helvetica">
 
</text>
<path d="M59.4606,277.526l 4.53543, -0.557449l 4.53543, -0.632514l 4.53543, -0.715574l 4.53543, -0.807146l 4.53543, -0.907731l 4.53543, -1.0178l 4.53543, -1.1378l 4.53543, -1.26811l 4.53543, -1.40905l 4.53543, -1.56088l 4.53543, -1.72377l 4.53543,
 -1.89777l 4.53543, -2.08284l 4.53543, -2.27879l 4.53543, -2.48529l 4.53543, -2.70188l 4.53543, -2.9279l 4.53543, -3.16253l 4.53543, -3.40477l 4.53543, -3.65342l 4.53543, -3.90708l 4.53543, -4.16417l 4.53543, -4.42292l 4.53543, -4.68134l 4.53543,
 -4.9373l 4.53543, -5.18849l 4.53543, -5.43246l 4.53543, -5.66661l 4.53543, -5.88826l 4.53543, -6.09465l 4.53543, -6.28298l 4.53543, -6.45045l 4.53543, -6.59426l 4.53543, -6.71172l 4.53543, -6.80021l 4.53543, -6.85731l 4.53543, -6.88075l 4.53543,
 -6.86852l 4.53543, -6.81887l 4.53543, -6.73039l 4.53543, -6.602l 4.53543, -6.43299l 4.53543, -6.22306l 4.53543, -5.97234l 4.53543, -5.6814l 4.53543, -5.35126l 4.53543, -4.98335l 4.53543, -4.5796l 4.53543, -4.14232" fill="none" stroke="#00ff00"
 stroke-width="2"/>
<path d="M281.697,73.8455l 4.53543, -3.67425l 4.53543, -3.17851l 4.53543, -2.65857l 4.53543, -2.11818l 4.53543, -1.5614l 4.53543, -0.992447l 4.53543, -0.415738l 4.53543, 0.16423l 4.53543, 0.742909l 4.53543, 1.31577l 4.53543, 1.87837l 4.53543,
 2.42638l 4.53543, 2.95567l 4.53543, 3.46236l 4.53543, 3.94284l 4.53543, 4.39383l 4.53543, 4.81244l 4.53543, 5.19616l 4.53543, 5.5429l 4.53543, 5.851l 4.53543, 6.11926l 4.53543, 6.34693l 4.53543, 6.53368l 4.53543, 6.67964l 4.53543, 6.78532l 4.53543,
 6.85166l 4.53543, 6.87993l 4.53543, 6.87173l 4.53543, 6.82898l 4.53543, 6.75382l 4.53543, 6.64862l 4.53543, 6.51591l 4.53543, 6.35837l 4.53543, 6.17875l 4.53543, 5.97985l 4.53543, 5.76447l 4.53543, 5.53541l 4.53543, 5.29538l 4.53543, 5.04702l
 4.53543, 4.79283l 4.53543, 4.5352l 4.53543, 4.27635l 4.53543, 4.01831l 4.53543, 3.76295l 4.53543, 3.51195l 4.53543, 3.26677l 4.53543, 3.0287l 4.53543, 2.79883l 4.53543, 2.57806" fill="none" stroke="#00ff00" stroke-width="2"/>
<path d="M503.933,258.476l 4.53543, 2.36712" fill="none" stroke="#00ff00" stroke-width="2"/>
<text x="127.81" y="15.9138" fill="black" font-size="15.2653" font-family="Helvetica">
Wk1/Ascii/BG-subtracted-133Ba_spectrum.Spe
</text></svg>
