<?xml version="1.0" standalone="no"?>
<svg width="567.429" height="312.808" viewBox="0 0 567.429 312.808" xmlns="http://www.w3.org/2000/svg">
<title>
/home/ADF/hyw543/Coincidence/c1.svg
</title>
<desc>
Creator: ROOT Version 6.06/08
CreationDate: Wed Jan  9 19:13:45 2019</desc>
<defs>
</defs>
<rect x="0.5" y="0" width="566.929" height="312.308" fill="white"/>
<rect x="57.1929" y="31.2308" width="453.543" height="249.847" fill="white"/>
<rect x="57.1929" y="31.2308" width="453.543" height="249.847" fill="none" stroke="black"/>
<rect x="57.1929" y="31.2308" width="453.543" height="249.847" fill="white"/>
<rect x="57.1929" y="31.2308" width="453.543" height="249.847" fill="none" stroke="black"/>
<path d="M57.1929,267.611h 2.26772v 0.51011h 2.26772v -0.37408h 2.26772v -0.442095h 2.26772v 0.340073h 2.26772v -1.63235h 2.26772v -0.408088h 2.26772v -0.544117h 2.26772v -0.646139h 2.26772v -1.05423h 2.26772v -2.14246h 2.26772v -0.88419h 2.26772v
 -1.29228h 2.26772v -0.918198h 2.26772v -2.85661h 2.26772v -0.102022h 2.26772v -3.57077h 2.26772v -2.55055h 2.26772v -1.42831h 2.26772v -6.25735h 2.26772v 2.75459h 2.26772v -1.80239h 2.26772v -0.476102h 2.26772v -3.19669h 2.26772v -4.89705h 2.26772v
 2.00643h 2.26772v -0.170037h 2.26772v -2.21048h 2.26772v -2.44853h 2.26772v 0.136029h 2.26772v -0.51011h 2.26772v 0.88419h 2.26772v 1.02022h 2.26772v -2.27849h 2.26772v -3.02665h 2.26772v 0.816176h 2.26772v -1.25827h 2.26772v 0.612132h 2.26772v
 -1.32629h 2.26772v -3.33272h 2.26772v 2.3125h 2.26772v -3.46875h 2.26772v 0.646139h 2.26772v -0.136029h 2.26772v -4.79503h 2.26772v -1.53033h 2.26772v -3.16268h 2.26772v -0.680146h 2.26772v -3.40073h 2.26772v -3.50275h 2.26772v -1.3943h 2.26772v
 -3.60478h 2.26772v 0.204044h 4.53543v -1.56434h 2.26772v -7.07352h 2.26772v -0.0340073h 2.26772v -0.272059h 2.26772v -1.3943h 2.26772v -2.61856h 2.26772v 1.12224h 4.53543v -3.97886h 2.26772v 1.63235h 2.26772v 0.0340073h 2.26772v 3.91084h 2.26772v
 -2.27849h 2.26772v 4.55698h 2.26772v 0.782168h 2.26772v 1.76838h 2.26772v 4.25091h 2.26772v 4.79503h 2.26772v 2.04044h 2.26772v 1.90441h 2.26772v 3.50275h 2.26772v 4.14889h 2.26772v 7.17554h 2.26772v 0.918198h 2.26772v 2.92463h 2.26772v 5.44117h
 2.26772v 4.48897h 2.26772v -0.850183h 2.26772v 5.13511h 2.26772v 3.80882h 2.26772v 2.14246h 2.26772v 0.204044h 2.26772v 0.918198h 2.26772v 1.66636h 2.26772v -0.102022h 2.26772v 1.80239h 2.26772v -2.85661h 2.26772v -2.89062h 2.26772v -1.73437h
 2.26772v -0.612132h 2.26772v -2.89062h 2.26772v -4.1829h 2.26772v -4.25091h 2.26772v -4.04687h 2.26772v -5.27113h 2.26772v -8.09374h 2.26772v -5.54319h 2.26772v -9.48804h 2.26772v -4.35294h 2.26772v -7.14154h 2.26772v -11.5285h 2.26772v -6.86948h
 2.26772v -10.2702h 2.26772v -7.27757h 2.26772v -4.79503h 2.26772v -12.7187h 2.26772v -8.09374h 2.26772v -8.8419h 2.26772v -7.75367h 2.26772v -4.93106h 2.26772v -6.56341h 2.26772v -10.9844h 2.26772v -4.79503h 2.26772v -5.37316h 2.26772v -9.79411h
 2.26772v -5.71323h 2.26772v -1.46231h 2.26772v -2.21048h 2.26772v -0.714154h 2.26772v -3.60478h 2.26772v -5.1011h 2.26772v 0.51011h 2.26772v 2.61856h 2.26772v -8.29779h 2.26772v 3.06066h 2.26772v 9.65808h 2.26772v 3.63878h 2.26772v 4.89705h 2.26772v
 5.30514h 2.26772v 4.08088h 2.26772v 6.9715h 2.26772v 4.1829h 2.26772v 8.19576h 2.26772v 11.9026h 2.26772v 6.4954h 2.26772v 9.11396h 2.26772v 10.4062h 2.26772v 1.8364h 2.26772v 10.5423h 2.26772v 8.94392h 2.26772v 8.3658h 2.26772v 7.31157h 2.26772v
 4.93106h 2.26772v 5.91727h 2.26772v 5.84926h 2.26772v 6.32536h 2.26772v 6.12132h 2.26772v 3.84283h 2.26772v 2.48253h 2.26772v 4.79503h 2.26772v 4.08088h 2.26772v -0.272059h 2.26772v 10.2362h 2.26772v -2.3125h 2.26772v 0.952205h 2.26772v 2.99264h
 2.26772v 1.56434h 2.26772v 2.07445h 2.26772v -0.340073h 2.26772v 1.76838h 2.26772v 3.16268h 2.26772v 0.238051h 2.26772v 0.544117h 2.26772v 3.60478h 2.26772v -1.90441h 2.26772v 3.16268h 2.26772v 1.32629h 2.26772v 2.04044h 2.26772v 1.46231h 2.26772v
 0.544117h 2.26772v 2.38051h 2.26772v 1.22426h 2.26772v 1.8704h 2.26772v 2.55055h 2.26772v -0.0340073h 2.26772v 2.17647h 2.26772v 1.3943h 2.26772v 2.82261h 2.26772v 0.0680146h 2.26772v 2.92463h 2.26772v 1.70037h 2.26772v -0.0680146h 2.26772v 1.53033h
 2.26772v 2.82261h 2.26772v 0.340073h 2.26772v 1.80239h 2.26772v -0.680146h 2.26772v 1.36029h 2.26772v 0.578124h 2.26772v 1.02022h 2.26772v 0.544117h 2.26772v -0.782168h 2.26772v 2.24448h 2.26772v 0.850183h 2.26772v -0.136029h 2.26772v -1.02022h
 2.26772" fill="none" stroke="#ff0000" stroke-width="2"/>
<path d="M59.4606,269.261l 4.53543, -1.12719l 4.53543, -1.43669l 4.53543, -1.78138l 4.53543, -2.14843l 4.53543, -2.51908l 4.53543, -2.86937l 4.53543, -3.1717l 4.53543, -3.39756l 4.53543, -3.52106l 4.53543, -3.5231l 4.53543, -3.39548l 4.53543,
 -3.14438l 4.53543, -2.79245l 4.53543, -2.37876l 4.53543, -1.9563l 4.53543, -1.5868l 4.53543, -1.33318l 4.53543, -1.25037l 4.53543, -1.37567l 4.53543, -1.72011l 4.53543, -2.26238l 4.53543, -2.9468l 4.53543, -3.68634l 4.53543, -4.37099l 4.53543,
 -4.8809l 4.53543, -5.10271l 4.53543, -4.94667l 4.53543, -4.36186l 4.53543, -3.34653l 4.53543, -1.95167l 4.53543, -0.276656l 4.53543, 1.54247l 4.53543, 3.35017l 4.53543, 4.99112l 4.53543, 6.32903l 4.53543, 7.26148l 4.53543, 7.72837l 4.53543, 7.7134l
 4.53543, 7.23884l 4.53543, 6.3556l 4.53543, 5.13085l 4.53543, 3.63601l 4.53543, 1.93716l 4.53543, 0.0893638l 4.53543, -1.86467l 4.53543, -3.89189l 4.53543, -5.96347l 4.53543, -8.04782l 4.53543, -10.104" fill="none" stroke="#0000ff"
 stroke-width="2"/>
<path d="M281.697,218.131l 4.53543, -12.0767l 4.53543, -13.8936l 4.53543, -15.4672l 4.53543, -16.6984l 4.53543, -17.485l 4.53543, -17.7318l 4.53543, -17.3614l 4.53543, -16.3254l 4.53543, -14.6142l 4.53543, -12.2622l 4.53543, -9.35025l 4.53543,
 -6.00283l 4.53543, -2.38007l 4.53543, 1.33377l 4.53543, 4.94496l 4.53543, 8.26617l 4.53543, 11.1319l 4.53543, 13.4119l 4.53543, 15.0205l 4.53543, 15.9221l 4.53543, 16.1318l 4.53543, 15.7106l 4.53543, 14.7579l 4.53543, 13.4004l 4.53543, 11.7798l
 4.53543, 10.0397l 4.53543, 8.3141l 4.53543, 6.71729l 4.53543, 5.33662l 4.53543, 4.2283l 4.53543, 3.41637l 4.53543, 2.89488l 4.53543, 2.6325l 4.53543, 2.5792l 4.53543, 2.67386l 4.53543, 2.85218l 4.53543, 3.05379l 4.53543, 3.22787l 4.53543, 3.33702l
 4.53543, 3.35882l 4.53543, 3.28555l 4.53543, 3.12215l 4.53543, 2.88314l 4.53543, 2.58899l 4.53543, 2.26252l 4.53543, 1.92588l 4.53543, 1.5982l 4.53543, 1.29425l 4.53543, 1.02391" fill="none" stroke="#0000ff" stroke-width="2"/>
<path d="M503.933,272.94l 4.53543, 0.792398" fill="none" stroke="#0000ff" stroke-width="2"/>
<rect x="2.48923" y="22.8761" width="166.1" height="175.052" fill="white"/>
<path d="M2.48923,197.928h 166.1" fill="none" stroke="black" stroke-width="2"/>
<path d="M168.59,197.928v -175.052" fill="none" stroke="black" stroke-width="2"/>
<path d="M168.59,22.8761h -166.1" fill="none" stroke="black" stroke-width="2"/>
<path d="M2.48923,22.8761v 175.052" fill="none" stroke="black" stroke-width="2"/>
<text x="19.3976" y="31.8276" fill="black" font-size="9.72755" font-family="Helvetica">
 / ndf 
</text>
<text x="15.4192" y="28.8438" fill="black" font-size="6.6517" font-family="Helvetica">
2
</text>
<text x="10.4461" y="31.8276" fill="black" font-size="9.72755" font-family="Times">
&#0967;
</text>
<text x="112.891" y="31.8276" fill="black" font-size="9.72755" font-family="Helvetica">
 291.2 / 186
</text>
<text x="10.4461" y="43.763" fill="black" font-size="9.72755" font-family="Helvetica">
1-Centroid 
</text>
<text x="144.719" y="43.763" fill="black" font-size="9.72755" font-family="Helvetica">
 0.7
</text>
<text x="139.746" y="43.763" fill="black" font-size="9.72755" font-family="Times">
&#0177;
</text>
<text x="112.891" y="43.763" fill="black" font-size="9.72755" font-family="Helvetica">
 332.2 
</text>
<text x="10.4461" y="55.6983" fill="black" font-size="9.72755" font-family="Helvetica">
1-FWHM   
</text>
<text x="139.746" y="55.6983" fill="black" font-size="9.72755" font-family="Helvetica">
 1.35
</text>
<text x="134.773" y="55.6983" fill="black" font-size="9.72755" font-family="Times">
&#0177;
</text>
<text x="107.918" y="55.6983" fill="black" font-size="9.72755" font-family="Helvetica">
 32.48 
</text>
<text x="10.4461" y="67.6337" fill="black" font-size="9.72755" font-family="Helvetica">
1-Counts 
</text>
<text x="114.88" y="67.6337" fill="black" font-size="9.72755" font-family="Helvetica">
 2.656e+03
</text>
<text x="109.907" y="67.6337" fill="black" font-size="9.72755" font-family="Times">
&#0177;
</text>
<text x="63.1606" y="67.6337" fill="black" font-size="9.72755" font-family="Helvetica">
 4.042e+04 
</text>
<text x="10.4461" y="78.5744" fill="black" font-size="9.72755" font-family="Helvetica">
2-Centroid 
</text>
<text x="144.719" y="78.5744" fill="black" font-size="9.72755" font-family="Helvetica">
 0.3
</text>
<text x="139.746" y="78.5744" fill="black" font-size="9.72755" font-family="Times">
&#0177;
</text>
<text x="112.891" y="78.5744" fill="black" font-size="9.72755" font-family="Helvetica">
 363.4 
</text>
<text x="10.4461" y="90.5097" fill="black" font-size="9.72755" font-family="Helvetica">
2-FWHM   
</text>
<text x="141.735" y="90.5097" fill="black" font-size="9.72755" font-family="Helvetica">
 0.41
</text>
<text x="136.762" y="90.5097" fill="black" font-size="9.72755" font-family="Times">
&#0177;
</text>
<text x="109.907" y="90.5097" fill="black" font-size="9.72755" font-family="Helvetica">
 29.77 
</text>
<text x="10.4461" y="102.445" fill="black" font-size="9.72755" font-family="Helvetica">
2-Counts 
</text>
<text x="114.88" y="102.445" fill="black" font-size="9.72755" font-family="Helvetica">
 1.742e+03
</text>
<text x="109.907" y="102.445" fill="black" font-size="9.72755" font-family="Times">
&#0177;
</text>
<text x="63.1606" y="102.445" fill="black" font-size="9.72755" font-family="Helvetica">
 7.972e+04 
</text>
<text x="10.4461" y="114.38" fill="black" font-size="9.72755" font-family="Helvetica">
3-Centroid 
</text>
<text x="146.708" y="114.38" fill="black" font-size="9.72755" font-family="Helvetica">
 0.1
</text>
<text x="141.735" y="114.38" fill="black" font-size="9.72755" font-family="Times">
&#0177;
</text>
<text x="114.88" y="114.38" fill="black" font-size="9.72755" font-family="Helvetica">
 425.2 
</text>
<text x="10.4461" y="125.321" fill="black" font-size="9.72755" font-family="Helvetica">
3-FWHM   
</text>
<text x="139.746" y="125.321" fill="black" font-size="9.72755" font-family="Helvetica">
 0.17
</text>
<text x="134.773" y="125.321" fill="black" font-size="9.72755" font-family="Times">
&#0177;
</text>
<text x="107.918" y="125.321" fill="black" font-size="9.72755" font-family="Helvetica">
 36.33 
</text>
<text x="10.4461" y="137.257" fill="black" font-size="9.72755" font-family="Helvetica">
3-Counts 
</text>
<text x="114.88" y="137.257" fill="black" font-size="9.72755" font-family="Helvetica">
 1.291e+03
</text>
<text x="109.907" y="137.257" fill="black" font-size="9.72755" font-family="Times">
&#0177;
</text>
<text x="63.1606" y="137.257" fill="black" font-size="9.72755" font-family="Helvetica">
 2.592e+05 
</text>
<text x="10.4461" y="149.192" fill="black" font-size="9.72755" font-family="Helvetica">
4-Centroid 
</text>
<text x="144.719" y="149.192" fill="black" font-size="9.72755" font-family="Helvetica">
 0.4
</text>
<text x="139.746" y="149.192" fill="black" font-size="9.72755" font-family="Times">
&#0177;
</text>
<text x="112.891" y="149.192" fill="black" font-size="9.72755" font-family="Helvetica">
 465.6 
</text>
<text x="10.4461" y="160.133" fill="black" font-size="9.72755" font-family="Helvetica">
4-FWHM   
</text>
<text x="139.746" y="160.133" fill="black" font-size="9.72755" font-family="Helvetica">
 0.90
</text>
<text x="134.773" y="160.133" fill="black" font-size="9.72755" font-family="Times">
&#0177;
</text>
<text x="107.918" y="160.133" fill="black" font-size="9.72755" font-family="Helvetica">
 32.47 
</text>
<text x="10.4461" y="172.068" fill="black" font-size="9.72755" font-family="Helvetica">
4-Counts 
</text>
<text x="119.854" y="172.068" fill="black" font-size="9.72755" font-family="Helvetica">
 1.43e+03
</text>
<text x="114.88" y="172.068" fill="black" font-size="9.72755" font-family="Times">
&#0177;
</text>
<text x="73.1067" y="172.068" fill="black" font-size="9.72755" font-family="Helvetica">
 3.56e+04 
</text>
<text x="10.4461" y="183.009" fill="black" font-size="9.72755" font-family="Helvetica">
Intercept 
</text>
<text x="139.746" y="184.003" fill="black" font-size="9.72755" font-family="Helvetica">
 58.0
</text>
<text x="134.773" y="184.003" fill="black" font-size="9.72755" font-family="Times">
&#0177;
</text>
<text x="107.918" y="184.003" fill="black" font-size="9.72755" font-family="Helvetica">
 399.9 
</text>
<text x="10.4461" y="194.944" fill="black" font-size="9.72755" font-family="Helvetica">
Slope    
</text>
<text x="129.8" y="195.939" fill="black" font-size="9.72755" font-family="Helvetica">
 0.1292
</text>
<text x="124.827" y="195.939" fill="black" font-size="9.72755" font-family="Times">
&#0177;
</text>
<text x="96.9774" y="195.939" fill="black" font-size="9.72755" font-family="Helvetica">
0.4791 
</text>
<text x="91.0097" y="195.939" fill="black" font-size="9.72755" font-family="Times">
&#8722;
</text>
<text x="89.0205" y="195.939" fill="black" font-size="9.72755" font-family="Helvetica">
 
</text>
<path d="M57.1929,281.077h 453.543" fill="none" stroke="black" stroke-width="2"/>
<text x="469.957" y="302.362" fill="black" font-size="10.5282" font-family="Helvetica">
Channels
</text>
<path d="M57.1929,273.582v 7.4954" fill="none" stroke="black" stroke-width="2"/>
<path d="M79.8701,277.33v 3.7477" fill="none" stroke="black" stroke-width="2"/>
<path d="M102.547,277.33v 3.7477" fill="none" stroke="black" stroke-width="2"/>
<path d="M125.224,277.33v 3.7477" fill="none" stroke="black" stroke-width="2"/>
<path d="M147.902,277.33v 3.7477" fill="none" stroke="black" stroke-width="2"/>
<path d="M170.579,273.582v 7.4954" fill="none" stroke="black" stroke-width="2"/>
<path d="M193.256,277.33v 3.7477" fill="none" stroke="black" stroke-width="2"/>
<path d="M215.933,277.33v 3.7477" fill="none" stroke="black" stroke-width="2"/>
<path d="M238.61,277.33v 3.7477" fill="none" stroke="black" stroke-width="2"/>
<path d="M261.287,277.33v 3.7477" fill="none" stroke="black" stroke-width="2"/>
<path d="M283.965,273.582v 7.4954" fill="none" stroke="black" stroke-width="2"/>
<path d="M306.642,277.33v 3.7477" fill="none" stroke="black" stroke-width="2"/>
<path d="M329.319,277.33v 3.7477" fill="none" stroke="black" stroke-width="2"/>
<path d="M351.996,277.33v 3.7477" fill="none" stroke="black" stroke-width="2"/>
<path d="M374.673,277.33v 3.7477" fill="none" stroke="black" stroke-width="2"/>
<path d="M397.35,273.582v 7.4954" fill="none" stroke="black" stroke-width="2"/>
<path d="M420.028,277.33v 3.7477" fill="none" stroke="black" stroke-width="2"/>
<path d="M442.705,277.33v 3.7477" fill="none" stroke="black" stroke-width="2"/>
<path d="M465.382,277.33v 3.7477" fill="none" stroke="black" stroke-width="2"/>
<path d="M488.059,277.33v 3.7477" fill="none" stroke="black" stroke-width="2"/>
<path d="M510.736,273.582v 7.4954" fill="none" stroke="black" stroke-width="2"/>
<text x="48.2414" y="290.427" fill="black" font-size="10.5282" font-family="Helvetica">
300
</text>
<text x="161.627" y="290.427" fill="black" font-size="10.5282" font-family="Helvetica">
350
</text>
<text x="275.013" y="290.427" fill="black" font-size="10.5282" font-family="Helvetica">
400
</text>
<text x="388.399" y="290.427" fill="black" font-size="10.5282" font-family="Helvetica">
450
</text>
<text x="501.785" y="290.427" fill="black" font-size="10.5282" font-family="Helvetica">
500
</text>
<path d="M57.1929,281.077v -249.847" fill="none" stroke="black" stroke-width="2"/>
<path d="M70.7992,281.077h -13.6063" fill="none" stroke="black" stroke-width="2"/>
<path d="M63.9961,274.276h -6.80315" fill="none" stroke="black" stroke-width="2"/>
<path d="M63.9961,267.475h -6.80315" fill="none" stroke="black" stroke-width="2"/>
<path d="M63.9961,260.673h -6.80315" fill="none" stroke="black" stroke-width="2"/>
<path d="M63.9961,253.872h -6.80315" fill="none" stroke="black" stroke-width="2"/>
<path d="M70.7992,247.07h -13.6063" fill="none" stroke="black" stroke-width="2"/>
<path d="M63.9961,240.269h -6.80315" fill="none" stroke="black" stroke-width="2"/>
<path d="M63.9961,233.467h -6.80315" fill="none" stroke="black" stroke-width="2"/>
<path d="M63.9961,226.666h -6.80315" fill="none" stroke="black" stroke-width="2"/>
<path d="M63.9961,219.864h -6.80315" fill="none" stroke="black" stroke-width="2"/>
<path d="M70.7992,213.063h -13.6063" fill="none" stroke="black" stroke-width="2"/>
<path d="M63.9961,206.261h -6.80315" fill="none" stroke="black" stroke-width="2"/>
<path d="M63.9961,199.46h -6.80315" fill="none" stroke="black" stroke-width="2"/>
<path d="M63.9961,192.658h -6.80315" fill="none" stroke="black" stroke-width="2"/>
<path d="M63.9961,185.857h -6.80315" fill="none" stroke="black" stroke-width="2"/>
<path d="M70.7992,179.056h -13.6063" fill="none" stroke="black" stroke-width="2"/>
<path d="M63.9961,172.254h -6.80315" fill="none" stroke="black" stroke-width="2"/>
<path d="M63.9961,165.453h -6.80315" fill="none" stroke="black" stroke-width="2"/>
<path d="M63.9961,158.651h -6.80315" fill="none" stroke="black" stroke-width="2"/>
<path d="M63.9961,151.85h -6.80315" fill="none" stroke="black" stroke-width="2"/>
<path d="M70.7992,145.048h -13.6063" fill="none" stroke="black" stroke-width="2"/>
<path d="M63.9961,138.247h -6.80315" fill="none" stroke="black" stroke-width="2"/>
<path d="M63.9961,131.445h -6.80315" fill="none" stroke="black" stroke-width="2"/>
<path d="M63.9961,124.644h -6.80315" fill="none" stroke="black" stroke-width="2"/>
<path d="M63.9961,117.842h -6.80315" fill="none" stroke="black" stroke-width="2"/>
<path d="M70.7992,111.041h -13.6063" fill="none" stroke="black" stroke-width="2"/>
<path d="M63.9961,104.239h -6.80315" fill="none" stroke="black" stroke-width="2"/>
<path d="M63.9961,97.438h -6.80315" fill="none" stroke="black" stroke-width="2"/>
<path d="M63.9961,90.6365h -6.80315" fill="none" stroke="black" stroke-width="2"/>
<path d="M63.9961,83.8351h -6.80315" fill="none" stroke="black" stroke-width="2"/>
<path d="M70.7992,77.0336h -13.6063" fill="none" stroke="black" stroke-width="2"/>
<path d="M63.9961,70.2321h -6.80315" fill="none" stroke="black" stroke-width="2"/>
<path d="M63.9961,63.4307h -6.80315" fill="none" stroke="black" stroke-width="2"/>
<path d="M63.9961,56.6292h -6.80315" fill="none" stroke="black" stroke-width="2"/>
<path d="M63.9961,49.8277h -6.80315" fill="none" stroke="black" stroke-width="2"/>
<path d="M70.7992,43.0263h -13.6063" fill="none" stroke="black" stroke-width="2"/>
<path d="M70.7992,43.0263h -13.6063" fill="none" stroke="black" stroke-width="2"/>
<path d="M63.9961,36.2248h -6.80315" fill="none" stroke="black" stroke-width="2"/>
<text x="48.2414" y="284.459" fill="black" font-size="10.5282" font-family="Helvetica">
0
</text>
<text x="32.3276" y="250.642" fill="black" font-size="10.5282" font-family="Helvetica">
1000
</text>
<text x="32.3276" y="216.826" fill="black" font-size="10.5282" font-family="Helvetica">
2000
</text>
<text x="32.3276" y="183.009" fill="black" font-size="10.5282" font-family="Helvetica">
3000
</text>
<text x="32.3276" y="148.197" fill="black" font-size="10.5282" font-family="Helvetica">
4000
</text>
<text x="32.3276" y="114.38" fill="black" font-size="10.5282" font-family="Helvetica">
5000
</text>
<text x="32.3276" y="80.5636" fill="black" font-size="10.5282" font-family="Helvetica">
6000
</text>
<text x="32.3276" y="46.7468" fill="black" font-size="10.5282" font-family="Helvetica">
7000
</text>
<rect x="2.48923" y="22.8761" width="166.1" height="175.052" fill="white"/>
<path d="M2.48923,197.928h 166.1" fill="none" stroke="black" stroke-width="2"/>
<path d="M168.59,197.928v -175.052" fill="none" stroke="black" stroke-width="2"/>
<path d="M168.59,22.8761h -166.1" fill="none" stroke="black" stroke-width="2"/>
<path d="M2.48923,22.8761v 175.052" fill="none" stroke="black" stroke-width="2"/>
<text x="19.3976" y="31.8276" fill="black" font-size="9.72755" font-family="Helvetica">
 / ndf 
</text>
<text x="15.4192" y="28.8438" fill="black" font-size="6.6517" font-family="Helvetica">
2
</text>
<text x="10.4461" y="31.8276" fill="black" font-size="9.72755" font-family="Times">
&#0967;
</text>
<text x="112.891" y="31.8276" fill="black" font-size="9.72755" font-family="Helvetica">
 291.2 / 186
</text>
<text x="10.4461" y="43.763" fill="black" font-size="9.72755" font-family="Helvetica">
1-Centroid 
</text>
<text x="144.719" y="43.763" fill="black" font-size="9.72755" font-family="Helvetica">
 0.7
</text>
<text x="139.746" y="43.763" fill="black" font-size="9.72755" font-family="Times">
&#0177;
</text>
<text x="112.891" y="43.763" fill="black" font-size="9.72755" font-family="Helvetica">
 332.2 
</text>
<text x="10.4461" y="55.6983" fill="black" font-size="9.72755" font-family="Helvetica">
1-FWHM   
</text>
<text x="139.746" y="55.6983" fill="black" font-size="9.72755" font-family="Helvetica">
 1.35
</text>
<text x="134.773" y="55.6983" fill="black" font-size="9.72755" font-family="Times">
&#0177;
</text>
<text x="107.918" y="55.6983" fill="black" font-size="9.72755" font-family="Helvetica">
 32.48 
</text>
<text x="10.4461" y="67.6337" fill="black" font-size="9.72755" font-family="Helvetica">
1-Counts 
</text>
<text x="114.88" y="67.6337" fill="black" font-size="9.72755" font-family="Helvetica">
 2.656e+03
</text>
<text x="109.907" y="67.6337" fill="black" font-size="9.72755" font-family="Times">
&#0177;
</text>
<text x="63.1606" y="67.6337" fill="black" font-size="9.72755" font-family="Helvetica">
 4.042e+04 
</text>
<text x="10.4461" y="78.5744" fill="black" font-size="9.72755" font-family="Helvetica">
2-Centroid 
</text>
<text x="144.719" y="78.5744" fill="black" font-size="9.72755" font-family="Helvetica">
 0.3
</text>
<text x="139.746" y="78.5744" fill="black" font-size="9.72755" font-family="Times">
&#0177;
</text>
<text x="112.891" y="78.5744" fill="black" font-size="9.72755" font-family="Helvetica">
 363.4 
</text>
<text x="10.4461" y="90.5097" fill="black" font-size="9.72755" font-family="Helvetica">
2-FWHM   
</text>
<text x="141.735" y="90.5097" fill="black" font-size="9.72755" font-family="Helvetica">
 0.41
</text>
<text x="136.762" y="90.5097" fill="black" font-size="9.72755" font-family="Times">
&#0177;
</text>
<text x="109.907" y="90.5097" fill="black" font-size="9.72755" font-family="Helvetica">
 29.77 
</text>
<text x="10.4461" y="102.445" fill="black" font-size="9.72755" font-family="Helvetica">
2-Counts 
</text>
<text x="114.88" y="102.445" fill="black" font-size="9.72755" font-family="Helvetica">
 1.742e+03
</text>
<text x="109.907" y="102.445" fill="black" font-size="9.72755" font-family="Times">
&#0177;
</text>
<text x="63.1606" y="102.445" fill="black" font-size="9.72755" font-family="Helvetica">
 7.972e+04 
</text>
<text x="10.4461" y="114.38" fill="black" font-size="9.72755" font-family="Helvetica">
3-Centroid 
</text>
<text x="146.708" y="114.38" fill="black" font-size="9.72755" font-family="Helvetica">
 0.1
</text>
<text x="141.735" y="114.38" fill="black" font-size="9.72755" font-family="Times">
&#0177;
</text>
<text x="114.88" y="114.38" fill="black" font-size="9.72755" font-family="Helvetica">
 425.2 
</text>
<text x="10.4461" y="125.321" fill="black" font-size="9.72755" font-family="Helvetica">
3-FWHM   
</text>
<text x="139.746" y="125.321" fill="black" font-size="9.72755" font-family="Helvetica">
 0.17
</text>
<text x="134.773" y="125.321" fill="black" font-size="9.72755" font-family="Times">
&#0177;
</text>
<text x="107.918" y="125.321" fill="black" font-size="9.72755" font-family="Helvetica">
 36.33 
</text>
<text x="10.4461" y="137.257" fill="black" font-size="9.72755" font-family="Helvetica">
3-Counts 
</text>
<text x="114.88" y="137.257" fill="black" font-size="9.72755" font-family="Helvetica">
 1.291e+03
</text>
<text x="109.907" y="137.257" fill="black" font-size="9.72755" font-family="Times">
&#0177;
</text>
<text x="63.1606" y="137.257" fill="black" font-size="9.72755" font-family="Helvetica">
 2.592e+05 
</text>
<text x="10.4461" y="149.192" fill="black" font-size="9.72755" font-family="Helvetica">
4-Centroid 
</text>
<text x="144.719" y="149.192" fill="black" font-size="9.72755" font-family="Helvetica">
 0.4
</text>
<text x="139.746" y="149.192" fill="black" font-size="9.72755" font-family="Times">
&#0177;
</text>
<text x="112.891" y="149.192" fill="black" font-size="9.72755" font-family="Helvetica">
 465.6 
</text>
<text x="10.4461" y="160.133" fill="black" font-size="9.72755" font-family="Helvetica">
4-FWHM   
</text>
<text x="139.746" y="160.133" fill="black" font-size="9.72755" font-family="Helvetica">
 0.90
</text>
<text x="134.773" y="160.133" fill="black" font-size="9.72755" font-family="Times">
&#0177;
</text>
<text x="107.918" y="160.133" fill="black" font-size="9.72755" font-family="Helvetica">
 32.47 
</text>
<text x="10.4461" y="172.068" fill="black" font-size="9.72755" font-family="Helvetica">
4-Counts 
</text>
<text x="119.854" y="172.068" fill="black" font-size="9.72755" font-family="Helvetica">
 1.43e+03
</text>
<text x="114.88" y="172.068" fill="black" font-size="9.72755" font-family="Times">
&#0177;
</text>
<text x="73.1067" y="172.068" fill="black" font-size="9.72755" font-family="Helvetica">
 3.56e+04 
</text>
<text x="10.4461" y="183.009" fill="black" font-size="9.72755" font-family="Helvetica">
Intercept 
</text>
<text x="139.746" y="184.003" fill="black" font-size="9.72755" font-family="Helvetica">
 58.0
</text>
<text x="134.773" y="184.003" fill="black" font-size="9.72755" font-family="Times">
&#0177;
</text>
<text x="107.918" y="184.003" fill="black" font-size="9.72755" font-family="Helvetica">
 399.9 
</text>
<text x="10.4461" y="194.944" fill="black" font-size="9.72755" font-family="Helvetica">
Slope    
</text>
<text x="129.8" y="195.939" fill="black" font-size="9.72755" font-family="Helvetica">
 0.1292
</text>
<text x="124.827" y="195.939" fill="black" font-size="9.72755" font-family="Times">
&#0177;
</text>
<text x="96.9774" y="195.939" fill="black" font-size="9.72755" font-family="Helvetica">
0.4791 
</text>
<text x="91.0097" y="195.939" fill="black" font-size="9.72755" font-family="Times">
&#8722;
</text>
<text x="89.0205" y="195.939" fill="black" font-size="9.72755" font-family="Helvetica">
 
</text>
<path d="M59.4606,277.956l 4.53543, -1.15925l 4.53543, -1.46819l 4.53543, -1.81181l 4.53543, -2.17681l 4.53543, -2.5437l 4.53543, -2.88724l 4.53543, -3.17782l 4.53543, -3.38377l 4.53543, -3.47454l 4.53543, -3.42431l 4.53543, -3.21569l 4.53543,
 -2.84289l 4.53543, -2.31371l 4.53543, -1.65015l 4.53543, -0.887084l 4.53543, -0.0693144l 4.53543, 0.752764l 4.53543, 1.52832l 4.53543, 2.21127l 4.53543, 2.76483l 4.53543, 3.16473l 4.53543, 3.40076l 4.53543, 3.47656l 4.53543, 3.40776l 4.53543,
 3.21903l 4.53543, 2.94039l 4.53543, 2.60356l 4.53543, 2.23868l 4.53543, 1.87184l 4.53543, 1.52355l 4.53543, 1.20814l 4.53543, 0.933989l 4.53543, 0.704322l 4.53543, 0.518325l 4.53543, 0.372392l 4.53543, 0.261278l 4.53543, 0.179074l 4.53543, 0.119919l
 4.53543, 0.0784806l 4.53543, 0.0502029l 4.53543, 0.0313948l 4.53543, 0.0191958l 4.53543, 0.0266374h 27.2126" fill="none" stroke="#00ff00" stroke-width="2"/>
<path d="M281.697,281.077h 222.236" fill="none" stroke="#00ff00" stroke-width="2"/>
<path d="M503.933,281.077h 4.53543" fill="none" stroke="#00ff00" stroke-width="2"/>
<path d="M59.4606,281.077h 22.6772l 4.53543, -0.0311l 4.53543, -0.0264683l 4.53543, -0.0463716l 4.53543, -0.0791048l 4.53543, -0.131374l 4.53543, -0.212368l 4.53543, -0.334082l 4.53543, -0.511324l 4.53543, -0.761193l 4.53543, -1.1018l 4.53543,
 -1.55007l 4.53543, -2.11853l 4.53543, -2.81126l 4.53543, -3.6195l 4.53543, -4.51748l 4.53543, -5.45961l 4.53543, -6.37998l 4.53543, -7.19517l 4.53543, -7.81076l 4.53543, -8.13145l 4.53543, -8.07376l 4.53543, -7.57939l 4.53543, -6.62714l 4.53543,
 -5.2407l 4.53543, -3.49051l 4.53543, -1.48871l 4.53543, 0.622568l 4.53543, 2.68791l 4.53543, 4.55748l 4.53543, 6.10503l 4.53543, 7.2419l 4.53543, 7.92496l 4.53543, 8.15755l 4.53543, 7.98391l 4.53543, 7.47875l 4.53543, 6.73412l 4.53543, 5.8462l
 4.53543, 4.90396l 4.53543, 3.98107l 4.53543, 3.13161l 4.53543, 2.3893l 4.53543, 1.76945l 4.53543, 1.27276l 4.53543, 0.889635" fill="none" stroke="#00ff00" stroke-width="2"/>
<path d="M281.697,279.426l 4.53543, 0.604535l 4.53543, 0.399512l 4.53543, 0.256843l 4.53543, 0.160675l 4.53543, 0.0978288l 4.53543, 0.0579842l 4.53543, 0.0334618l 4.53543, 0.0402115h 185.953" fill="none" stroke="#00ff00" stroke-width="2"/>
<path d="M503.933,281.077h 4.53543" fill="none" stroke="#00ff00" stroke-width="2"/>
<path d="M59.4606,281.077h 131.528l 4.53543, -0.0411458l 4.53543, -0.028665l 4.53543, -0.0466695l 4.53543, -0.0746437l 4.53543, -0.117273l 4.53543, -0.180975l 4.53543, -0.274288l 4.53543, -0.408249l 4.53543, -0.596654l 4.53543, -0.856139l 4.53543,
 -1.20595l 4.53543, -1.66726l 4.53543, -2.26197l 4.53543, -3.01086l 4.53543, -3.931l 4.53543, -5.03269l 4.53543, -6.3159l 4.53543, -7.76664l 4.53543, -9.35371l 4.53543, -11.0264" fill="none" stroke="#00ff00" stroke-width="2"/>
<path d="M281.697,226.88l 4.53543, -12.7136l 4.53543, -14.3252l 4.53543, -15.7555l 4.53543, -16.8896l 4.53543, -17.6118l 4.53543, -17.8161l 4.53543, -17.4166l 4.53543, -16.3588l 4.53543, -14.6277l 4.53543, -12.2534l 4.53543, -9.31262l 4.53543,
 -5.92552l 4.53543, -2.24759l 4.53543, 1.54202l 4.53543, 5.25493l 4.53543, 8.70911l 4.53543, 11.7436l 4.53543, 14.231l 4.53543, 16.0861l 4.53543, 17.2699l 4.53543, 17.7894l 4.53543, 17.6923l 4.53543, 17.0593l 4.53543, 15.9936l 4.53543, 14.6097l
 4.53543, 13.0236l 4.53543, 11.3432l 4.53543, 9.66176l 4.53543, 8.05421l 4.53543, 6.57506l 4.53543, 5.25899l 4.53543, 4.12299l 4.53543, 3.16943l 4.53543, 2.38967l 4.53543, 1.76764l 4.53543, 1.28305l 4.53543, 0.914051l 4.53543, 0.639215l 4.53543,
 0.43887l 4.53543, 0.295866l 4.53543, 0.195872l 4.53543, 0.127355l 4.53543, 0.0813321l 4.53543, 0.051021l 4.53543, 0.0314419l 4.53543, 0.0190358l 4.53543, 0.0264419h 9.07087" fill="none" stroke="#00ff00" stroke-width="2"/>
<path d="M503.933,281.077h 4.53543" fill="none" stroke="#00ff00" stroke-width="2"/>
<path d="M59.4606,281.077h 222.236" fill="none" stroke="#00ff00" stroke-width="2"/>
<path d="M281.697,281.077h 27.2126l 4.53543, -0.0251637l 4.53543, -0.0180229l 4.53543, -0.029395l 4.53543, -0.0468741l 4.53543, -0.0730704l 4.53543, -0.111335l 4.53543, -0.165777l 4.53543, -0.241173l 4.53543, -0.342721l 4.53543, -0.475596l 4.53543,
 -0.644286l 4.53543, -0.851714l 4.53543, -1.0982l 4.53543, -1.38037l 4.53543, -1.69019l 4.53543, -2.01433l 4.53543, -2.33403l 4.53543, -2.62572l 4.53543, -2.86254l 4.53543, -3.01653l 4.53543, -3.06166l 4.53543, -2.97705l 4.53543, -2.75017l 4.53543,
 -2.37934l 4.53543, -1.8752l 4.53543, -1.26069l 4.53543, -0.56951l 4.53543, 0.156939l 4.53543, 0.873632l 4.53543, 1.53655l 4.53543, 2.10715l 4.53543, 2.55607l 4.53543, 2.86556l 4.53543, 3.03037l 4.53543, 3.05709l 4.53543, 2.96221l 4.53543, 2.76922l
 4.53543, 2.50538l 4.53543, 2.1985l 4.53543, 1.87426l 4.53543, 1.55429l 4.53543, 1.25504l 4.53543, 0.987529" fill="none" stroke="#00ff00" stroke-width="2"/>
<path d="M503.933,278.447l 4.53543, 0.757668" fill="none" stroke="#00ff00" stroke-width="2"/>
<text x="127.81" y="15.9138" fill="black" font-size="15.3918" font-family="Helvetica">
Wk1/Ascii/BG-subtracted-133Ba_spectrum.Spe
</text></svg>
