<?xml version="1.0" standalone="no"?>
<svg width="567.429" height="386.15" viewBox="0 0 567.429 386.15" xmlns="http://www.w3.org/2000/svg">
<title>
/home/ADF/hyw543/HPGeEnviro/Elevated/ResolutionVBias/c1.svg
</title>
<desc>
Creator: ROOT Version 6.06/08
CreationDate: Thu Jan 24 19:17:47 2019</desc>
<defs>
</defs>
<rect x="0.5" y="0" width="566.929" height="385.65" fill="white"/>
<rect x="57.1929" y="38.565" width="453.543" height="308.52" fill="white"/>
<rect x="57.1929" y="38.565" width="453.543" height="308.52" fill="none" stroke="black"/>
<rect x="57.1929" y="38.565" width="453.543" height="308.52" fill="white"/>
<rect x="57.1929" y="38.565" width="453.543" height="308.52" fill="none" stroke="black"/>
<path d="M57.1929,345.078h 3.67242v -0.297398h 1.83621v 0.223048h 1.83621v 0.594795h 1.83621v -0.817843h 1.83621v 0.817843h 1.83621v -0.446096h 1.83621v 0.520446h 1.83621v -0.743494h 1.83621v 0.297398h 1.83621v 0.148699h 1.83621v -0.669145h 1.83621v
 0.446096h 1.83621v 0.148699h 1.83621v 0.594795h 1.83621v -1.26394h 1.83621v 0.817843h 1.83621v -0.148699h 1.83621v -0.297398h 1.83621v 0.669145h 1.83621v -0.520446h 1.83621v -0.446096h 1.83621v -0.0743494h 1.83621v 0.446096h 3.67242v -0.223048h
 1.83621v -0.520446h 1.83621v 0.817843h 1.83621v -0.297398h 1.83621v 0.0743494h 1.83621v -0.446096h 1.83621v 0.223048h 1.83621v 0.817843h 1.83621v -1.56134h 1.83621v 0.817843h 1.83621v -0.966542h 1.83621v 0.520446h 1.83621v -0.371747h 1.83621v
 0.297398h 1.83621v -0.669145h 1.83621v 1.33829h 1.83621v -0.520446h 1.83621v -0.0743494h 1.83621v -0.0743494h 1.83621v -0.594795h 1.83621v 0.594795h 1.83621v -0.669145h 1.83621v -0.223048h 1.83621v 0.743494h 1.83621v -1.11524h 1.83621v -0.297398h
 1.83621v 0.817843h 1.83621v 0.148699h 1.83621v -0.297398h 1.83621v 0.371747h 1.83621v -0.148699h 1.83621v 0.594795h 1.83621v -2.89963h 1.83621v 1.78439h 1.83621v 0.223048h 1.83621v -0.817843h 1.83621v -0.743494h 1.83621v 0.817843h 1.83621v
 -0.669145h 1.83621v 0.446096h 1.83621v -1.04089h 1.83621v -0.148699h 1.83621v -0.0743494h 1.83621v -0.520446h 1.83621v -0.817843h 1.83621v -0.743494h 1.83621v 2.08178h 1.83621v -2.15613h 1.83621v -1.26394h 1.83621v -0.148699h 1.83621v -1.71004h
 1.83621v -1.11524h 1.83621v -0.0743494h 1.83621v -2.37918h 1.83621v -1.04089h 1.83621v -2.67658h 1.83621v -3.42007h 1.83621v -3.86617h 1.83621v -1.11524h 1.83621v -1.33829h 1.83621v -8.55018h 1.83621v -3.04833h 1.83621v -6.98884h 1.83621v -7.58364h
 1.83621v -7.95539h 1.83621v -8.25278h 1.83621v -13.0111h 1.83621v -12.1933h 1.83621v -13.6803h 1.83621v -12.7881h 1.83621v -16.9517h 1.83621v -13.6059h 1.83621v -14.6468h 1.83621v -16.3569h 1.83621v -12.8624h 1.83621v -21.0409h 1.83621v -11.8959h
 1.83621v -22.6022h 1.83621v -9.21933h 1.83621v -6.4684h 1.83621v -3.19702h 1.83621v -13.3829h 1.83621v -4.98141h 1.83621v -4.23792h 1.83621v 6.98884h 1.83621v 3.94052h 1.83621v 7.06319h 1.83621v 13.2342h 1.83621v 11.5242h 1.83621v 18.9591h 1.83621v
 2.60223h 1.83621v 21.487h 1.83621v 19.0334h 1.83621v 11.9703h 1.83621v 10.5576h 1.83621v 23.6431h 1.83621v 18.6617h 1.83621v 10.5576h 1.83621v 12.0446h 1.83621v 7.43494h 1.83621v 18.29h 1.83621v 5.8736h 1.83621v 3.94052h 1.83621v 14.5725h 1.83621v
 2.08178h 1.83621v 6.4684h 1.83621v 2.82528h 1.83621v 4.31227h 1.83621v 4.23792h 1.83621v 2.08178h 1.83621v 4.16357h 1.83621v -1.04089h 1.83621v 3.19702h 1.83621v 3.64312h 1.83621v -0.594795h 1.83621v -1.56134h 1.83621v 1.26394h 1.83621v 1.48699h
 1.83621v 2.30483h 1.83621v 0.817843h 1.83621v 0.520446h 1.83621v 1.41264h 1.83621v 0.446096h 1.83621v 0.520446h 1.83621v 1.11524h 1.83621v 1.93308h 1.83621v 0.594795h 1.83621v -1.63569h 1.83621v 2.30483h 1.83621v -1.26394h 1.83621v 1.18959h 1.83621v
 -0.892193h 1.83621v 3.19702h 1.83621v -2.23048h 1.83621v 1.48699h 1.83621v 0.371747h 1.83621v 1.56134h 1.83621v -1.85874h 1.83621v 1.63569h 1.83621v 1.33829h 1.83621v -0.371747h 1.83621v -1.48699h 1.83621v 2.08178h 1.83621v 0.520446h 1.83621v
 -0.966542h 1.83621v -0.148699h 1.83621v 0.520446h 1.83621v 0.966542h 1.83621v 0.371747h 1.83621v -1.41264h 1.83621v 0.817843h 1.83621v 0.669145h 1.83621v 0.743494h 1.83621v -0.669145h 1.83621v 0.371747h 1.83621v 0.520446h 1.83621v 0.223048h 1.83621v
 -0.520446h 1.83621v 0.0743494h 1.83621v -0.0743494h 1.83621v 0.669145h 1.83621v -0.594795h 1.83621v 0.520446h 1.83621v -0.817843h 1.83621v 0.594795h 1.83621v 0.148699h 1.83621v -0.0743494h 1.83621v 0.446096h 1.83621v -0.0743494h 1.83621v -0.446096h
 1.83621v 0.594795h 3.67242v 0.0743494h 1.83621v -0.223048h 1.83621v 0.0743494h 1.83621v -0.0743494h 1.83621v -0.0743494h 1.83621v 0.371747h 1.83621v 0.0743494h 1.83621v -0.297398h 1.83621v 0.148699h 3.67242v 0.594795h 1.83621v -0.223048h 1.83621v
 -0.297398h 3.67242v 0.148699h 1.83621v -0.0743494h 1.83621v -0.223048h 1.83621v 0.223048h 1.83621v 0.446096h 1.83621v -0.297398h 1.83621v -0.148699h 1.83621v 0.297398h 1.83621v -0.0743494h 1.83621v 0.0743494h 1.83621v -0.0743494h 1.83621v -0.148699h
 1.83621v 0.223048h 1.83621v -0.297398h 1.83621v 0.148699h 1.83621v -0.148699h 1.83621v 0.223048h 1.83621v -0.0743494h 1.83621v 0.0743494h 3.67242v 0.0743494h 3.67242v -0.223048h 1.83621v 0.446096h 1.83621v -0.446096h 1.83621v 0.520446h 1.83621v
 -0.223048h 1.83621v -0.371747h 1.83621v 0.371747h 1.83621v -0.0743494h 1.83621v 0.0743494h 1.83621v -0.223048h 1.83621v 0.297398h 1.83621v -0.297398h 1.83621v 0.297398h 1.83621" fill="none" stroke="#ff0000" stroke-width="2"/>
<path d="M59.4606,343.876l 4.53543, 0.0291056l 4.53543, 0.0291056l 4.53543, 0.0291056l 4.53543, 0.0291056l 4.53543, 0.0291056l 4.53543, 0.0291056l 4.53543, 0.0291056l 4.53543, 0.0291056l 4.53543, 0.0291056l 4.53543, 0.0291056l 4.53543, 0.0291056l
 4.53543, 0.0291056l 4.53543, 0.0291055l 4.53543, 0.0291053l 4.53543, 0.0291043l 4.53543, 0.0291011l 4.53543, 0.0290901l 4.53543, 0.0290555l 4.53543, 0.0289507l 4.53543, 0.0286491l 4.53543, 0.0278219l 4.53543, 0.0256615l 4.53543, 0.0202909l 4.53543,
 0.00758847l 4.53543, -0.0209794l 4.53543, -0.0820336l 4.53543, -0.20593l 4.53543, -0.444428l 4.53543, -0.879424l 4.53543, -1.63001l 4.53543, -2.85292l 4.53543, -4.72942l 4.53543, -7.43168l 4.53543, -11.0654l 4.53543, -15.5933l 4.53543, -20.7573l
 4.53543, -26.0278l 4.53543, -30.6137l 4.53543, -33.5592l 4.53543, -33.9286l 4.53543, -31.0439l 4.53543, -24.7112l 4.53543, -15.3571l 4.53543, -4.01293l 4.53543, 7.8674l 4.53543, 18.7131l 4.53543, 27.1775l 4.53543, 32.4126l 4.53543, 34.1985"
 fill="none" stroke="#0000ff" stroke-width="2"/>
<path d="M281.697,199.96l 4.53543, 32.9059l 4.53543, 29.3231l 4.53543, 24.4168l 4.53543, 19.1057l 4.53543, 14.1027l 4.53543, 9.84728l 4.53543, 6.51875l 4.53543, 4.09922l 4.53543, 2.4539l 4.53543, 1.40255l 4.53543, 0.769259l 4.53543, 0.408821l
 4.53543, 0.214641l 4.53543, 0.115483l 4.53543, 0.0674345l 4.53543, 0.0453209l 4.53543, 0.0356475l 4.53543, 0.031623l 4.53543, 0.0300298l 4.53543, 0.0294294l 4.53543, 0.0292138l 4.53543, 0.0291402l 4.53543, 0.0291161l 4.53543, 0.0291087l 4.53543,
 0.0291065l 4.53543, 0.0291059l 4.53543, 0.0291057l 4.53543, 0.0291056l 4.53543, 0.0291056l 4.53543, 0.0291056l 4.53543, 0.0291056l 4.53543, 0.0291056l 4.53543, 0.0291056l 4.53543, 0.0291056l 4.53543, 0.0291056l 4.53543, 0.0291056l 4.53543,
 0.0291056l 4.53543, 0.0291056l 4.53543, 0.0291056l 4.53543, 0.0291056l 4.53543, 0.0291056l 4.53543, 0.0291056l 4.53543, 0.0291056l 4.53543, 0.0291056l 4.53543, 0.0291056l 4.53543, 0.0291056l 4.53543, 0.0291056l 4.53543, 0.0291056l 4.53543,
 0.0291056" fill="none" stroke="#0000ff" stroke-width="2"/>
<path d="M503.933,346.728l 4.53543, 0.0291056" fill="none" stroke="#0000ff" stroke-width="2"/>
<rect x="351.996" y="25.0673" width="204.094" height="107.982" fill="white"/>
<path d="M351.996,133.049h 204.094" fill="none" stroke="black" stroke-width="2"/>
<path d="M556.091,133.049v -107.982" fill="none" stroke="black" stroke-width="2"/>
<path d="M556.091,25.0673h -204.094" fill="none" stroke="black" stroke-width="2"/>
<path d="M351.996,25.0673v 107.982" fill="none" stroke="black" stroke-width="2"/>
<text x="375.759" y="38.1032" fill="black" font-size="13.6779" font-family="Helvetica">
 / ndf 
</text>
<text x="369.985" y="33.4846" fill="black" font-size="9.28526" font-family="Helvetica">
2
</text>
<text x="361.903" y="38.1032" fill="black" font-size="13.6779" font-family="Times">
&#0967;
</text>
<text x="476.212" y="39.2578" fill="black" font-size="13.6779" font-family="Helvetica">
  4425 / 241
</text>
<text x="361.903" y="57.7321" fill="black" font-size="13.6779" font-family="Helvetica">
Centroid 
</text>
<text x="523.553" y="57.7321" fill="black" font-size="13.6779" font-family="Helvetica">
 0.0
</text>
<text x="515.47" y="57.7321" fill="black" font-size="13.6779" font-family="Times">
&#0177;
</text>
<text x="473.903" y="57.7321" fill="black" font-size="13.6779" font-family="Helvetica">
  5613 
</text>
<text x="361.903" y="75.0517" fill="black" font-size="13.6779" font-family="Helvetica">
FWHM     
</text>
<text x="515.47" y="75.0517" fill="black" font-size="13.6779" font-family="Helvetica">
 0.08
</text>
<text x="507.388" y="75.0517" fill="black" font-size="13.6779" font-family="Times">
&#0177;
</text>
<text x="465.821" y="75.0517" fill="black" font-size="13.6779" font-family="Helvetica">
 27.27 
</text>
<text x="361.903" y="93.526" fill="black" font-size="13.6779" font-family="Helvetica">
Counts   
</text>
<text x="484.295" y="93.526" fill="black" font-size="13.6779" font-family="Helvetica">
 3.26e+02
</text>
<text x="476.212" y="93.526" fill="black" font-size="13.6779" font-family="Times">
&#0177;
</text>
<text x="411.552" y="93.526" fill="black" font-size="13.6779" font-family="Helvetica">
 1.04e+05 
</text>
<text x="361.903" y="109.691" fill="black" font-size="13.6779" font-family="Helvetica">
Intercept 
</text>
<text x="515.47" y="110.846" fill="black" font-size="13.6779" font-family="Helvetica">
 21.4
</text>
<text x="507.388" y="110.846" fill="black" font-size="13.6779" font-family="Times">
&#0177;
</text>
<text x="465.821" y="110.846" fill="black" font-size="13.6779" font-family="Helvetica">
 915.5 
</text>
<text x="361.903" y="128.165" fill="black" font-size="13.6779" font-family="Helvetica">
Slope    
</text>
<text x="500.46" y="129.32" fill="black" font-size="13.6779" font-family="Helvetica">
 0.0038
</text>
<text x="492.377" y="129.32" fill="black" font-size="13.6779" font-family="Times">
&#0177;
</text>
<text x="447.346" y="129.32" fill="black" font-size="13.6779" font-family="Helvetica">
0.1585 
</text>
<text x="439.264" y="129.32" fill="black" font-size="13.6779" font-family="Times">
&#8722;
</text>
<text x="435.8" y="129.32" fill="black" font-size="13.6779" font-family="Helvetica">
 
</text>
<path d="M57.1929,347.085h 453.543" fill="none" stroke="black" stroke-width="2"/>
<text x="457.738" y="374.104" fill="black" font-size="12.8833" font-family="Helvetica">
Channels
</text>
<path d="M143.495,337.83v 9.25561" fill="none" stroke="black" stroke-width="2"/>
<path d="M161.857,342.458v 4.6278" fill="none" stroke="black" stroke-width="2"/>
<path d="M180.219,342.458v 4.6278" fill="none" stroke="black" stroke-width="2"/>
<path d="M198.581,342.458v 4.6278" fill="none" stroke="black" stroke-width="2"/>
<path d="M216.943,342.458v 4.6278" fill="none" stroke="black" stroke-width="2"/>
<path d="M235.305,337.83v 9.25561" fill="none" stroke="black" stroke-width="2"/>
<path d="M253.667,342.458v 4.6278" fill="none" stroke="black" stroke-width="2"/>
<path d="M272.029,342.458v 4.6278" fill="none" stroke="black" stroke-width="2"/>
<path d="M290.391,342.458v 4.6278" fill="none" stroke="black" stroke-width="2"/>
<path d="M308.753,342.458v 4.6278" fill="none" stroke="black" stroke-width="2"/>
<path d="M327.115,337.83v 9.25561" fill="none" stroke="black" stroke-width="2"/>
<path d="M345.478,342.458v 4.6278" fill="none" stroke="black" stroke-width="2"/>
<path d="M363.84,342.458v 4.6278" fill="none" stroke="black" stroke-width="2"/>
<path d="M382.202,342.458v 4.6278" fill="none" stroke="black" stroke-width="2"/>
<path d="M400.564,342.458v 4.6278" fill="none" stroke="black" stroke-width="2"/>
<path d="M418.926,337.83v 9.25561" fill="none" stroke="black" stroke-width="2"/>
<path d="M437.288,342.458v 4.6278" fill="none" stroke="black" stroke-width="2"/>
<path d="M455.65,342.458v 4.6278" fill="none" stroke="black" stroke-width="2"/>
<path d="M474.012,342.458v 4.6278" fill="none" stroke="black" stroke-width="2"/>
<path d="M492.374,342.458v 4.6278" fill="none" stroke="black" stroke-width="2"/>
<path d="M510.736,337.83v 9.25561" fill="none" stroke="black" stroke-width="2"/>
<path d="M143.495,337.83v 9.25561" fill="none" stroke="black" stroke-width="2"/>
<path d="M125.133,342.458v 4.6278" fill="none" stroke="black" stroke-width="2"/>
<path d="M106.771,342.458v 4.6278" fill="none" stroke="black" stroke-width="2"/>
<path d="M88.4084,342.458v 4.6278" fill="none" stroke="black" stroke-width="2"/>
<path d="M70.0464,342.458v 4.6278" fill="none" stroke="black" stroke-width="2"/>
<text x="128.665" y="359.094" fill="black" font-size="12.8833" font-family="Helvetica">
5550
</text>
<text x="221.037" y="359.094" fill="black" font-size="12.8833" font-family="Helvetica">
5600
</text>
<text x="312.253" y="359.094" fill="black" font-size="12.8833" font-family="Helvetica">
5650
</text>
<text x="404.625" y="359.094" fill="black" font-size="12.8833" font-family="Helvetica">
5700
</text>
<text x="495.841" y="359.094" fill="black" font-size="12.8833" font-family="Helvetica">
5750
</text>
<path d="M57.1929,347.085v -308.52" fill="none" stroke="black" stroke-width="2"/>
<path d="M70.7992,347.085h -13.6063" fill="none" stroke="black" stroke-width="2"/>
<path d="M63.9961,339.65h -6.80315" fill="none" stroke="black" stroke-width="2"/>
<path d="M63.9961,332.215h -6.80315" fill="none" stroke="black" stroke-width="2"/>
<path d="M63.9961,324.781h -6.80315" fill="none" stroke="black" stroke-width="2"/>
<path d="M63.9961,317.346h -6.80315" fill="none" stroke="black" stroke-width="2"/>
<path d="M70.7992,309.911h -13.6063" fill="none" stroke="black" stroke-width="2"/>
<path d="M63.9961,302.476h -6.80315" fill="none" stroke="black" stroke-width="2"/>
<path d="M63.9961,295.041h -6.80315" fill="none" stroke="black" stroke-width="2"/>
<path d="M63.9961,287.606h -6.80315" fill="none" stroke="black" stroke-width="2"/>
<path d="M63.9961,280.171h -6.80315" fill="none" stroke="black" stroke-width="2"/>
<path d="M70.7992,272.736h -13.6063" fill="none" stroke="black" stroke-width="2"/>
<path d="M63.9961,265.301h -6.80315" fill="none" stroke="black" stroke-width="2"/>
<path d="M63.9961,257.866h -6.80315" fill="none" stroke="black" stroke-width="2"/>
<path d="M63.9961,250.431h -6.80315" fill="none" stroke="black" stroke-width="2"/>
<path d="M63.9961,242.996h -6.80315" fill="none" stroke="black" stroke-width="2"/>
<path d="M70.7992,235.561h -13.6063" fill="none" stroke="black" stroke-width="2"/>
<path d="M63.9961,228.126h -6.80315" fill="none" stroke="black" stroke-width="2"/>
<path d="M63.9961,220.691h -6.80315" fill="none" stroke="black" stroke-width="2"/>
<path d="M63.9961,213.256h -6.80315" fill="none" stroke="black" stroke-width="2"/>
<path d="M63.9961,205.821h -6.80315" fill="none" stroke="black" stroke-width="2"/>
<path d="M70.7992,198.387h -13.6063" fill="none" stroke="black" stroke-width="2"/>
<path d="M63.9961,190.952h -6.80315" fill="none" stroke="black" stroke-width="2"/>
<path d="M63.9961,183.517h -6.80315" fill="none" stroke="black" stroke-width="2"/>
<path d="M63.9961,176.082h -6.80315" fill="none" stroke="black" stroke-width="2"/>
<path d="M63.9961,168.647h -6.80315" fill="none" stroke="black" stroke-width="2"/>
<path d="M70.7992,161.212h -13.6063" fill="none" stroke="black" stroke-width="2"/>
<path d="M63.9961,153.777h -6.80315" fill="none" stroke="black" stroke-width="2"/>
<path d="M63.9961,146.342h -6.80315" fill="none" stroke="black" stroke-width="2"/>
<path d="M63.9961,138.907h -6.80315" fill="none" stroke="black" stroke-width="2"/>
<path d="M63.9961,131.472h -6.80315" fill="none" stroke="black" stroke-width="2"/>
<path d="M70.7992,124.037h -13.6063" fill="none" stroke="black" stroke-width="2"/>
<path d="M63.9961,116.602h -6.80315" fill="none" stroke="black" stroke-width="2"/>
<path d="M63.9961,109.167h -6.80315" fill="none" stroke="black" stroke-width="2"/>
<path d="M63.9961,101.732h -6.80315" fill="none" stroke="black" stroke-width="2"/>
<path d="M63.9961,94.2974h -6.80315" fill="none" stroke="black" stroke-width="2"/>
<path d="M70.7992,86.8624h -13.6063" fill="none" stroke="black" stroke-width="2"/>
<path d="M63.9961,79.4275h -6.80315" fill="none" stroke="black" stroke-width="2"/>
<path d="M63.9961,71.9925h -6.80315" fill="none" stroke="black" stroke-width="2"/>
<path d="M63.9961,64.5576h -6.80315" fill="none" stroke="black" stroke-width="2"/>
<path d="M63.9961,57.1227h -6.80315" fill="none" stroke="black" stroke-width="2"/>
<path d="M70.7992,49.6877h -13.6063" fill="none" stroke="black" stroke-width="2"/>
<path d="M70.7992,49.6877h -13.6063" fill="none" stroke="black" stroke-width="2"/>
<path d="M63.9961,42.2528h -6.80315" fill="none" stroke="black" stroke-width="2"/>
<text x="46.6857" y="351.011" fill="black" font-size="12.8833" font-family="Helvetica">
0
</text>
<text x="32.83" y="314.063" fill="black" font-size="12.8833" font-family="Helvetica">
500
</text>
<text x="25.9021" y="277.114" fill="black" font-size="12.8833" font-family="Helvetica">
1000
</text>
<text x="25.9021" y="240.165" fill="black" font-size="12.8833" font-family="Helvetica">
1500
</text>
<text x="25.9021" y="202.062" fill="black" font-size="12.8833" font-family="Helvetica">
2000
</text>
<text x="25.9021" y="165.114" fill="black" font-size="12.8833" font-family="Helvetica">
2500
</text>
<text x="25.9021" y="128.165" fill="black" font-size="12.8833" font-family="Helvetica">
3000
</text>
<text x="25.9021" y="91.2167" fill="black" font-size="12.8833" font-family="Helvetica">
3500
</text>
<text x="25.9021" y="54.2682" fill="black" font-size="12.8833" font-family="Helvetica">
4000
</text>
<rect x="351.996" y="25.0673" width="204.094" height="107.982" fill="white"/>
<path d="M351.996,133.049h 204.094" fill="none" stroke="black" stroke-width="2"/>
<path d="M556.091,133.049v -107.982" fill="none" stroke="black" stroke-width="2"/>
<path d="M556.091,25.0673h -204.094" fill="none" stroke="black" stroke-width="2"/>
<path d="M351.996,25.0673v 107.982" fill="none" stroke="black" stroke-width="2"/>
<text x="375.759" y="38.1032" fill="black" font-size="13.6779" font-family="Helvetica">
 / ndf 
</text>
<text x="369.985" y="33.4846" fill="black" font-size="9.28526" font-family="Helvetica">
2
</text>
<text x="361.903" y="38.1032" fill="black" font-size="13.6779" font-family="Times">
&#0967;
</text>
<text x="476.212" y="39.2578" fill="black" font-size="13.6779" font-family="Helvetica">
  4425 / 241
</text>
<text x="361.903" y="57.7321" fill="black" font-size="13.6779" font-family="Helvetica">
Centroid 
</text>
<text x="523.553" y="57.7321" fill="black" font-size="13.6779" font-family="Helvetica">
 0.0
</text>
<text x="515.47" y="57.7321" fill="black" font-size="13.6779" font-family="Times">
&#0177;
</text>
<text x="473.903" y="57.7321" fill="black" font-size="13.6779" font-family="Helvetica">
  5613 
</text>
<text x="361.903" y="75.0517" fill="black" font-size="13.6779" font-family="Helvetica">
FWHM     
</text>
<text x="515.47" y="75.0517" fill="black" font-size="13.6779" font-family="Helvetica">
 0.08
</text>
<text x="507.388" y="75.0517" fill="black" font-size="13.6779" font-family="Times">
&#0177;
</text>
<text x="465.821" y="75.0517" fill="black" font-size="13.6779" font-family="Helvetica">
 27.27 
</text>
<text x="361.903" y="93.526" fill="black" font-size="13.6779" font-family="Helvetica">
Counts   
</text>
<text x="484.295" y="93.526" fill="black" font-size="13.6779" font-family="Helvetica">
 3.26e+02
</text>
<text x="476.212" y="93.526" fill="black" font-size="13.6779" font-family="Times">
&#0177;
</text>
<text x="411.552" y="93.526" fill="black" font-size="13.6779" font-family="Helvetica">
 1.04e+05 
</text>
<text x="361.903" y="109.691" fill="black" font-size="13.6779" font-family="Helvetica">
Intercept 
</text>
<text x="515.47" y="110.846" fill="black" font-size="13.6779" font-family="Helvetica">
 21.4
</text>
<text x="507.388" y="110.846" fill="black" font-size="13.6779" font-family="Times">
&#0177;
</text>
<text x="465.821" y="110.846" fill="black" font-size="13.6779" font-family="Helvetica">
 915.5 
</text>
<text x="361.903" y="128.165" fill="black" font-size="13.6779" font-family="Helvetica">
Slope    
</text>
<text x="500.46" y="129.32" fill="black" font-size="13.6779" font-family="Helvetica">
 0.0038
</text>
<text x="492.377" y="129.32" fill="black" font-size="13.6779" font-family="Times">
&#0177;
</text>
<text x="447.346" y="129.32" fill="black" font-size="13.6779" font-family="Helvetica">
0.1585 
</text>
<text x="439.264" y="129.32" fill="black" font-size="13.6779" font-family="Times">
&#8722;
</text>
<text x="435.8" y="129.32" fill="black" font-size="13.6779" font-family="Helvetica">
 
</text>
<path d="M59.4606,347.085h 104.315l 4.53543, -0.0357432l 4.53543, -0.050085l 4.53543, -0.111139l 4.53543, -0.235035l 4.53543, -0.473534l 4.53543, -0.90853l 4.53543, -1.65912l 4.53543, -2.88203l 4.53543, -4.75852l 4.53543, -7.46078l 4.53543, -11.0945l
 4.53543, -15.6224l 4.53543, -20.7864l 4.53543, -26.0569l 4.53543, -30.6428l 4.53543, -33.5883l 4.53543, -33.9577l 4.53543, -31.073l 4.53543, -24.7403l 4.53543, -15.3862l 4.53543, -4.04204l 4.53543, 7.83829l 4.53543, 18.6839l 4.53543, 27.1484l
 4.53543, 32.3835l 4.53543, 34.1694" fill="none" stroke="#00ff00" stroke-width="2"/>
<path d="M281.697,201.744l 4.53543, 32.8768l 4.53543, 29.294l 4.53543, 24.3877l 4.53543, 19.0766l 4.53543, 14.0736l 4.53543, 9.81817l 4.53543, 6.48964l 4.53543, 4.07011l 4.53543, 2.42479l 4.53543, 1.37344l 4.53543, 0.740153l 4.53543, 0.379715l
 4.53543, 0.185536l 4.53543, 0.0863777l 4.53543, 0.0650089h 154.205" fill="none" stroke="#00ff00" stroke-width="2"/>
<path d="M503.933,347.085h 4.53543" fill="none" stroke="#00ff00" stroke-width="2"/>
<text x="241.82" y="18.4743" fill="black" font-size="17.0405" font-family="Helvetica">
1.6kV.TKA
</text></svg>
