<?xml version="1.0" standalone="no"?>
<svg width="567.429" height="402.966" viewBox="0 0 567.429 402.966" xmlns="http://www.w3.org/2000/svg">
<title>
/home/ADF/hyw543/HPGeEnviro/Elevated/ResolutionVBias/c1.svg
</title>
<desc>
Creator: ROOT Version 6.06/08
CreationDate: Thu Jan 24 19:21:33 2019</desc>
<defs>
</defs>
<rect x="0.5" y="0" width="566.929" height="402.466" fill="white"/>
<rect x="57.1929" y="40.2466" width="453.543" height="321.973" fill="white"/>
<rect x="57.1929" y="40.2466" width="453.543" height="321.973" fill="none" stroke="black"/>
<rect x="57.1929" y="40.2466" width="453.543" height="321.973" fill="white"/>
<rect x="57.1929" y="40.2466" width="453.543" height="321.973" fill="none" stroke="black"/>
<path d="M57.1929,361.599h 1.22579v -0.275942h 1.22579v -0.482899h 1.22579v 0.275942h 1.22579v -0.758841h 1.22579v 0.344928h 1.22579v 0.137971h 1.22579v 0.137971h 1.22579v -0.275942h 1.22579v 0.0689856h 1.22579v 0.62087h 1.22579v -1.79363h 1.22579v
 1.17275h 1.22579v -0.413913h 1.22579v 0.344928h 1.22579v -0.0689856h 1.22579v 0.206957h 2.45159v -0.62087h 1.22579v 0.551885h 1.22579v -0.275942h 1.22579v 0.413913h 1.22579v -0.758841h 1.22579v 0.551885h 1.22579v 0.137971h 1.22579v -0.137971h
 1.22579v 0.275942h 1.22579v 0.482899h 1.22579v -0.689856h 1.22579v -0.137971h 2.45159v 0.344928h 1.22579v -0.344928h 1.22579v 0.344928h 1.22579v -0.137971h 1.22579v -0.137971h 1.22579v -0.413913h 1.22579v 0.62087h 1.22579v -0.275942h 1.22579v
 0.0689856h 1.22579v 0.344928h 1.22579v -0.758841h 1.22579v 0.206957h 1.22579v 0.275942h 2.45159v -0.275942h 1.22579v -0.413913h 1.22579v 0.275942h 1.22579v 0.0689856h 1.22579v 0.827827h 1.22579v -1.4487h 1.22579v 0.827827h 1.22579v 0.275942h
 1.22579v -0.896813h 1.22579v 0.0689856h 1.22579v 0.62087h 2.45159v -0.413913h 1.22579v 0.206957h 1.22579v 0.275942h 1.22579v -0.689856h 1.22579v 0.137971h 1.22579v 0.275942h 1.22579v 0.137971h 1.22579v 0.896813h 1.22579v -1.31073h 1.22579v 0.206957h
 1.22579v -0.275942h 1.22579v 0.758841h 1.22579v -0.344928h 1.22579v -0.275942h 1.22579v 0.275942h 1.22579v 0.137971h 1.22579v -0.827827h 1.22579v 1.03478h 1.22579v -0.344928h 1.22579v -0.275942h 1.22579v -0.482899h 1.22579v 0.758841h 1.22579v
 0.206957h 1.22579v 0.137971h 1.22579v -0.344928h 1.22579v -0.965798h 1.22579v 1.03478h 1.22579v -0.0689856h 1.22579v -0.275942h 1.22579v 0.413913h 1.22579v 0.0689856h 1.22579v -0.206957h 2.45159v -0.206957h 2.45159v -0.413913h 1.22579v 0.275942h
 1.22579v 0.344928h 2.45159v -0.206957h 1.22579v -0.413913h 1.22579v 0.551885h 1.22579v -0.0689856h 1.22579v -0.827827h 1.22579v 0.551885h 1.22579v 0.344928h 1.22579v -0.551885h 1.22579v -0.0689856h 1.22579v 0.344928h 1.22579v -0.275942h 1.22579v
 -0.344928h 1.22579v 0.62087h 1.22579v -0.206957h 1.22579v -0.275942h 1.22579v 0.758841h 1.22579v -0.965798h 1.22579v -0.206957h 1.22579v 0.275942h 1.22579v 0.413913h 1.22579v -0.62087h 1.22579v -0.0689856h 1.22579v 0.62087h 1.22579v 0.482899h
 1.22579v -0.965798h 1.22579v 0.206957h 1.22579v -0.206957h 1.22579v -0.137971h 1.22579v -0.275942h 1.22579v 0.275942h 1.22579v 0.689856h 1.22579v -0.0689856h 2.45159v -0.137971h 1.22579v -0.137971h 2.45159v -0.896813h 1.22579v 0.758841h 1.22579v
 -0.0689856h 1.22579v 0.344928h 1.22579v -1.03478h 1.22579v -0.551885h 1.22579v 0.827827h 1.22579v 0.62087h 1.22579v -0.344928h 1.22579v -0.344928h 1.22579v 0.689856h 1.22579v -1.03478h 1.22579v 0.0689856h 1.22579v 0.413913h 1.22579v -0.689856h
 1.22579v 0.896813h 1.22579v -0.137971h 1.22579v -0.206957h 1.22579v -0.689856h 1.22579v 0.965798h 1.22579v -0.896813h 1.22579v -0.206957h 1.22579v 0.965798h 1.22579v -0.206957h 1.22579v -1.37971h 1.22579v 0.413913h 1.22579v 0.758841h 1.22579v
 -1.31073h 1.22579v 0.62087h 1.22579v -0.344928h 1.22579v 0.0689856h 1.22579v 0.482899h 1.22579v 0.0689856h 1.22579v -0.965798h 2.45159v 0.0689856h 1.22579v 0.0689856h 1.22579v -0.758841h 1.22579v -1.72464h 1.22579v 1.58667h 1.22579v -0.275942h
 1.22579v -0.551885h 1.22579v -0.482899h 1.22579v -0.62087h 1.22579v -1.31073h 1.22579v 0.965798h 1.22579v 0.206957h 1.22579v -0.206957h 1.22579v -1.9316h 1.22579v -1.72464h 1.22579v -0.965798h 1.22579v -0.344928h 1.22579v -1.03478h 1.22579v
 -0.137971h 1.22579v -2.62145h 1.22579v -3.03537h 1.22579v -1.37971h 1.22579v -2.82841h 1.22579v -3.44928h 1.22579v -1.9316h 1.22579v -4.13913h 1.22579v -5.93276h 1.22579v -6.62262h 1.22579v -10.8307h 1.22579v -6.76059h 1.22579v -6.55363h 1.22579v
 -9.17508h 1.22579v -14.556h 1.22579v -15.5218h 1.22579v -13.4522h 1.22579v -16.8325h 1.22579v -16.2116h 1.22579v -24.076h 1.22579v -16.4876h 1.22579v -32.9751h 1.22579v -10.9687h 1.22579v -14.28h 1.22579v -17.3154h 1.22579v -13.7281h 1.22579v
 -7.58841h 1.22579v -10.6928h 1.22579v 3.58725h 1.22579v -6.2087h 2.45159v 5.31189h 1.22579v 1.37971h 1.22579v 25.8696h 1.22579v 12.2794h 1.22579v 21.5925h 1.22579v 13.7971h 1.22579v 14.9699h 1.22579v 26.4905h 1.22579v 19.7299h 1.22579v 13.4522h
 1.22579v 26.9044h 1.22579v 15.5218h 1.22579v 15.7287h 1.22579v 8.89914h 1.22579v 10.1409h 1.22579v 11.7275h 1.22579v 6.13972h 1.22579v 8.41624h 1.22579v 3.17334h 1.22579v 5.58783h 1.22579v 5.03595h 1.22579v 1.79363h 1.22579v 4.20812h 1.22579v
 -0.758841h 1.22579v 5.10493h 1.22579v 1.4487h 1.22579v 0.62087h 1.22579v 0.827827h 1.22579v -1.31073h 1.22579v 3.24232h 1.22579v -1.51768h 1.22579v 2.06957h 1.22579v 1.86261h 1.22579v -1.51768h 1.22579v 2.00058h 1.22579v 2.82841h 1.22579v 0.344928h
 1.22579v -0.758841h 1.22579v 0.482899h 1.22579v 2.00058h 1.22579v 0.482899h 1.22579v 1.65565h 1.22579v -0.344928h 1.22579v -0.62087h 1.22579v 0.551885h 1.22579v 0.896813h 1.22579v 0.551885h 1.22579v 0.758841h 1.22579v 1.17275h 1.22579v -0.206957h
 1.22579v -0.965798h 1.22579v 2.13855h 1.22579v -1.4487h 1.22579v 0.482899h 1.22579v 2.00058h 1.22579v -0.758841h 1.22579v 0.758841h 1.22579v -0.206957h 1.22579v 0.965798h 1.22579v -0.275942h 1.22579v 1.37971h 1.22579v -0.344928h 1.22579v -0.137971h
 2.45159v 0.344928h 1.22579v -0.0689856h 1.22579v -0.0689856h 1.22579v 1.03478h 1.22579v 0.413913h 1.22579v -1.10377h 1.22579v 0.896813h 1.22579v -0.275942h 1.22579v 0.137971h 1.22579v 0.206957h 1.22579v -0.413913h 1.22579v 0.206957h 1.22579v
 0.482899h 1.22579v 0.0689856h 1.22579v 0.137971h 1.22579v 0.206957h 1.22579v -0.0689856h 1.22579v 0.344928h 1.22579v -0.344928h 1.22579v 0.413913h 1.22579v -0.551885h 1.22579v 0.275942h 1.22579v -0.758841h 1.22579v 0.275942h 1.22579v 0.413913h
 1.22579v -0.551885h 1.22579v 0.758841h 1.22579v 0.0689856h 1.22579v -0.344928h 1.22579v 0.344928h 1.22579v -0.206957h 1.22579v 0.206957h 1.22579v 0.0689856h 1.22579v -0.0689856h 1.22579v -0.206957h 1.22579v 0.206957h 2.45159v 0.206957h 2.45159v
 0.137971h 1.22579v -0.551885h 1.22579v 0.551885h 1.22579v -0.344928h 2.45159v 0.275942h 1.22579v -0.0689856h 1.22579v 0.206957h 1.22579v -0.275942h 1.22579v 0.137971h 1.22579v -0.206957h 1.22579v 0.0689856h 1.22579v -0.137971h 1.22579v 0.206957h
 1.22579v 0.137971h 2.45159v -0.689856h 1.22579v 0.551885h 1.22579v -0.0689856h 2.45159v 0.206957h 1.22579v 0.0689856h 1.22579v -0.206957h 1.22579v 0.0689856h 1.22579v -0.0689856h 1.22579v -0.0689856h 1.22579v 0.137971h 1.22579v -0.0689856h 1.22579v
 0.137971h 1.22579v -0.344928h 1.22579v 0.482899h 1.22579v -0.275942h 1.22579v 0.0689856h 2.45159v -0.137971h 1.22579v -0.275942h 1.22579v 0.413913h 2.45159v 0.0689856h 2.45159v 0.0689856h 1.22579v -0.206957h 1.22579v 0.137971h 1.22579v 0.0689856h
 2.45159v -0.206957h 1.22579v 0.0689856h 1.22579v 0.0689856h 1.22579v -0.0689856h 1.22579v 0.206957h 1.22579v -0.344928h 1.22579" fill="none" stroke="#ff0000" stroke-width="2"/>
<path d="M59.4606,359.909l 4.53543, 0.0197542l 4.53543, 0.0197542l 4.53543, 0.0197542l 4.53543, 0.0197542l 4.53543, 0.0197542l 4.53543, 0.0197542l 4.53543, 0.0197542l 4.53543, 0.0197542l 4.53543, 0.0197542l 4.53543, 0.0197542l 4.53543, 0.0197542l
 4.53543, 0.0197542l 4.53543, 0.0197542l 4.53543, 0.0197542l 4.53543, 0.0197542l 4.53543, 0.0197542l 4.53543, 0.0197542l 4.53543, 0.0197542l 4.53543, 0.0197542l 4.53543, 0.0197542l 4.53543, 0.0197542l 4.53543, 0.0197542l 4.53543, 0.0197542l 4.53543,
 0.0197542l 4.53543, 0.0197542l 4.53543, 0.0197542l 4.53543, 0.0197542l 4.53543, 0.0197542l 4.53543, 0.0197542l 4.53543, 0.0197542l 4.53543, 0.0197542l 4.53543, 0.0197542l 4.53543, 0.0197542l 4.53543, 0.0197542l 4.53543, 0.0197542l 4.53543,
 0.0197542l 4.53543, 0.0197542l 4.53543, 0.0197542l 4.53543, 0.0197538l 4.53543, 0.0197511l 4.53543, 0.0197311l 4.53543, 0.0196009l 4.53543, 0.0188552l 4.53543, 0.0150964l 4.53543, -0.00155762l 4.53543, -0.0662901l 4.53543, -0.286468l 4.53543,
 -0.939597l 4.53543, -2.62126" fill="none" stroke="#0000ff" stroke-width="2"/>
<path d="M281.697,356.857l 4.53543, -6.35351l 4.53543, -13.416l 4.53543, -24.5995l 4.53543, -38.8826l 4.53543, -52.2885l 4.53543, -58.3306l 4.53543, -50.9235l 4.53543, -28.5908l 4.53543, 3.15949l 4.53543, 33.8437l 4.53543, 53.5586l 4.53543, 58.1117l
 4.53543, 50.1386l 4.53543, 36.1199l 4.53543, 22.2161l 4.53543, 11.8101l 4.53543, 5.46943l 4.53543, 2.22192l 4.53543, 0.800221l 4.53543, 0.262905l 4.53543, 0.0864575l 4.53543, 0.0358876l 4.53543, 0.023198l 4.53543, 0.0204035l 4.53543, 0.0198624l
 4.53543, 0.0197701l 4.53543, 0.0197563l 4.53543, 0.0197544l 4.53543, 0.0197542l 4.53543, 0.0197542l 4.53543, 0.0197542l 4.53543, 0.0197542l 4.53543, 0.0197542l 4.53543, 0.0197542l 4.53543, 0.0197542l 4.53543, 0.0197542l 4.53543, 0.0197542l 4.53543,
 0.0197542l 4.53543, 0.0197542l 4.53543, 0.0197542l 4.53543, 0.0197542l 4.53543, 0.0197542l 4.53543, 0.0197542l 4.53543, 0.0197542l 4.53543, 0.0197542l 4.53543, 0.0197542l 4.53543, 0.0197542l 4.53543, 0.0197542l 4.53543, 0.0197542" fill="none"
 stroke="#0000ff" stroke-width="2"/>
<path d="M503.933,361.845l 4.53543, 0.0197542" fill="none" stroke="#0000ff" stroke-width="2"/>
<rect x="351.996" y="26.1603" width="204.094" height="112.691" fill="white"/>
<path d="M351.996,138.851h 204.094" fill="none" stroke="black" stroke-width="2"/>
<path d="M556.091,138.851v -112.691" fill="none" stroke="black" stroke-width="2"/>
<path d="M556.091,26.1603h -204.094" fill="none" stroke="black" stroke-width="2"/>
<path d="M351.996,26.1603v 112.691" fill="none" stroke="black" stroke-width="2"/>
<text x="373.55" y="40.1129" fill="black" font-size="12.4605" font-family="Helvetica">
 / ndf 
</text>
<text x="368.202" y="36.1016" fill="black" font-size="8.47364" font-family="Helvetica">
2
</text>
<text x="361.516" y="40.1129" fill="black" font-size="12.4605" font-family="Times">
&#0967;
</text>
<text x="481.855" y="40.1129" fill="black" font-size="12.4605" font-family="Helvetica">
  7836 / 365
</text>
<text x="361.516" y="58.8323" fill="black" font-size="12.4605" font-family="Helvetica">
Centroid 
</text>
<text x="524.642" y="58.8323" fill="black" font-size="12.4605" font-family="Helvetica">
 0.0
</text>
<text x="517.957" y="58.8323" fill="black" font-size="12.4605" font-family="Times">
&#0177;
</text>
<text x="481.855" y="58.8323" fill="black" font-size="12.4605" font-family="Helvetica">
  5614 
</text>
<text x="361.516" y="77.5516" fill="black" font-size="12.4605" font-family="Helvetica">
FWHM     
</text>
<text x="517.957" y="77.5516" fill="black" font-size="12.4605" font-family="Helvetica">
 0.08
</text>
<text x="511.271" y="77.5516" fill="black" font-size="12.4605" font-family="Times">
&#0177;
</text>
<text x="475.169" y="77.5516" fill="black" font-size="12.4605" font-family="Helvetica">
 25.08 
</text>
<text x="361.516" y="96.271" fill="black" font-size="12.4605" font-family="Helvetica">
Counts   
</text>
<text x="484.529" y="96.271" fill="black" font-size="12.4605" font-family="Helvetica">
 3.316e+02
</text>
<text x="477.844" y="96.271" fill="black" font-size="12.4605" font-family="Times">
&#0177;
</text>
<text x="415" y="96.271" fill="black" font-size="12.4605" font-family="Helvetica">
 1.087e+05 
</text>
<text x="361.516" y="113.653" fill="black" font-size="12.4605" font-family="Helvetica">
Intercept 
</text>
<text x="524.642" y="114.99" fill="black" font-size="12.4605" font-family="Helvetica">
 9.5
</text>
<text x="517.957" y="114.99" fill="black" font-size="12.4605" font-family="Times">
&#0177;
</text>
<text x="481.855" y="114.99" fill="black" font-size="12.4605" font-family="Helvetica">
 451.6 
</text>
<text x="361.516" y="132.373" fill="black" font-size="12.4605" font-family="Helvetica">
Slope    
</text>
<text x="497.9" y="133.71" fill="black" font-size="12.4605" font-family="Helvetica">
 0.00168
</text>
<text x="491.215" y="133.71" fill="black" font-size="12.4605" font-family="Times">
&#0177;
</text>
<text x="445.753" y="133.71" fill="black" font-size="12.4605" font-family="Helvetica">
0.07739 
</text>
<text x="439.068" y="133.71" fill="black" font-size="12.4605" font-family="Times">
&#8722;
</text>
<text x="436.394" y="133.71" fill="black" font-size="12.4605" font-family="Helvetica">
 
</text>
<path d="M57.1929,362.22h 453.543" fill="none" stroke="black" stroke-width="2"/>
<text x="455.113" y="389.095" fill="black" font-size="13.4232" font-family="Helvetica">
Channels
</text>
<path d="M57.1929,352.56v 9.65919" fill="none" stroke="black" stroke-width="2"/>
<path d="M81.7088,357.39v 4.82959" fill="none" stroke="black" stroke-width="2"/>
<path d="M106.225,357.39v 4.82959" fill="none" stroke="black" stroke-width="2"/>
<path d="M130.74,357.39v 4.82959" fill="none" stroke="black" stroke-width="2"/>
<path d="M155.256,357.39v 4.82959" fill="none" stroke="black" stroke-width="2"/>
<path d="M179.772,352.56v 9.65919" fill="none" stroke="black" stroke-width="2"/>
<path d="M204.288,357.39v 4.82959" fill="none" stroke="black" stroke-width="2"/>
<path d="M228.804,357.39v 4.82959" fill="none" stroke="black" stroke-width="2"/>
<path d="M253.32,357.39v 4.82959" fill="none" stroke="black" stroke-width="2"/>
<path d="M277.836,357.39v 4.82959" fill="none" stroke="black" stroke-width="2"/>
<path d="M302.351,352.56v 9.65919" fill="none" stroke="black" stroke-width="2"/>
<path d="M326.867,357.39v 4.82959" fill="none" stroke="black" stroke-width="2"/>
<path d="M351.383,357.39v 4.82959" fill="none" stroke="black" stroke-width="2"/>
<path d="M375.899,357.39v 4.82959" fill="none" stroke="black" stroke-width="2"/>
<path d="M400.415,357.39v 4.82959" fill="none" stroke="black" stroke-width="2"/>
<path d="M424.931,352.56v 9.65919" fill="none" stroke="black" stroke-width="2"/>
<path d="M424.931,352.56v 9.65919" fill="none" stroke="black" stroke-width="2"/>
<path d="M449.447,357.39v 4.82959" fill="none" stroke="black" stroke-width="2"/>
<path d="M473.962,357.39v 4.82959" fill="none" stroke="black" stroke-width="2"/>
<path d="M498.478,357.39v 4.82959" fill="none" stroke="black" stroke-width="2"/>
<text x="41.95" y="374.387" fill="black" font-size="13.4232" font-family="Helvetica">
5400
</text>
<text x="164.963" y="374.387" fill="black" font-size="13.4232" font-family="Helvetica">
5500
</text>
<text x="286.639" y="374.387" fill="black" font-size="13.4232" font-family="Helvetica">
5600
</text>
<text x="409.652" y="374.387" fill="black" font-size="13.4232" font-family="Helvetica">
5700
</text>
<path d="M57.1929,362.22v -321.973" fill="none" stroke="black" stroke-width="2"/>
<path d="M70.7992,362.22h -13.6063" fill="none" stroke="black" stroke-width="2"/>
<path d="M63.9961,355.321h -6.80315" fill="none" stroke="black" stroke-width="2"/>
<path d="M63.9961,348.422h -6.80315" fill="none" stroke="black" stroke-width="2"/>
<path d="M63.9961,341.524h -6.80315" fill="none" stroke="black" stroke-width="2"/>
<path d="M63.9961,334.625h -6.80315" fill="none" stroke="black" stroke-width="2"/>
<path d="M70.7992,327.727h -13.6063" fill="none" stroke="black" stroke-width="2"/>
<path d="M63.9961,320.828h -6.80315" fill="none" stroke="black" stroke-width="2"/>
<path d="M63.9961,313.93h -6.80315" fill="none" stroke="black" stroke-width="2"/>
<path d="M63.9961,307.031h -6.80315" fill="none" stroke="black" stroke-width="2"/>
<path d="M63.9961,300.133h -6.80315" fill="none" stroke="black" stroke-width="2"/>
<path d="M70.7992,293.234h -13.6063" fill="none" stroke="black" stroke-width="2"/>
<path d="M63.9961,286.335h -6.80315" fill="none" stroke="black" stroke-width="2"/>
<path d="M63.9961,279.437h -6.80315" fill="none" stroke="black" stroke-width="2"/>
<path d="M63.9961,272.538h -6.80315" fill="none" stroke="black" stroke-width="2"/>
<path d="M63.9961,265.64h -6.80315" fill="none" stroke="black" stroke-width="2"/>
<path d="M70.7992,258.741h -13.6063" fill="none" stroke="black" stroke-width="2"/>
<path d="M63.9961,251.843h -6.80315" fill="none" stroke="black" stroke-width="2"/>
<path d="M63.9961,244.944h -6.80315" fill="none" stroke="black" stroke-width="2"/>
<path d="M63.9961,238.046h -6.80315" fill="none" stroke="black" stroke-width="2"/>
<path d="M63.9961,231.147h -6.80315" fill="none" stroke="black" stroke-width="2"/>
<path d="M70.7992,224.248h -13.6063" fill="none" stroke="black" stroke-width="2"/>
<path d="M63.9961,217.35h -6.80315" fill="none" stroke="black" stroke-width="2"/>
<path d="M63.9961,210.451h -6.80315" fill="none" stroke="black" stroke-width="2"/>
<path d="M63.9961,203.553h -6.80315" fill="none" stroke="black" stroke-width="2"/>
<path d="M63.9961,196.654h -6.80315" fill="none" stroke="black" stroke-width="2"/>
<path d="M70.7992,189.756h -13.6063" fill="none" stroke="black" stroke-width="2"/>
<path d="M63.9961,182.857h -6.80315" fill="none" stroke="black" stroke-width="2"/>
<path d="M63.9961,175.959h -6.80315" fill="none" stroke="black" stroke-width="2"/>
<path d="M63.9961,169.06h -6.80315" fill="none" stroke="black" stroke-width="2"/>
<path d="M63.9961,162.161h -6.80315" fill="none" stroke="black" stroke-width="2"/>
<path d="M70.7992,155.263h -13.6063" fill="none" stroke="black" stroke-width="2"/>
<path d="M63.9961,148.364h -6.80315" fill="none" stroke="black" stroke-width="2"/>
<path d="M63.9961,141.466h -6.80315" fill="none" stroke="black" stroke-width="2"/>
<path d="M63.9961,134.567h -6.80315" fill="none" stroke="black" stroke-width="2"/>
<path d="M63.9961,127.669h -6.80315" fill="none" stroke="black" stroke-width="2"/>
<path d="M70.7992,120.77h -13.6063" fill="none" stroke="black" stroke-width="2"/>
<path d="M63.9961,113.871h -6.80315" fill="none" stroke="black" stroke-width="2"/>
<path d="M63.9961,106.973h -6.80315" fill="none" stroke="black" stroke-width="2"/>
<path d="M63.9961,100.074h -6.80315" fill="none" stroke="black" stroke-width="2"/>
<path d="M63.9961,93.1758h -6.80315" fill="none" stroke="black" stroke-width="2"/>
<path d="M70.7992,86.2773h -13.6063" fill="none" stroke="black" stroke-width="2"/>
<path d="M63.9961,79.3787h -6.80315" fill="none" stroke="black" stroke-width="2"/>
<path d="M63.9961,72.4801h -6.80315" fill="none" stroke="black" stroke-width="2"/>
<path d="M63.9961,65.5816h -6.80315" fill="none" stroke="black" stroke-width="2"/>
<path d="M63.9961,58.683h -6.80315" fill="none" stroke="black" stroke-width="2"/>
<path d="M70.7992,51.7845h -13.6063" fill="none" stroke="black" stroke-width="2"/>
<path d="M70.7992,51.7845h -13.6063" fill="none" stroke="black" stroke-width="2"/>
<path d="M63.9961,44.8859h -6.80315" fill="none" stroke="black" stroke-width="2"/>
<text x="45.9613" y="366.365" fill="black" font-size="13.4232" font-family="Helvetica">
0
</text>
<text x="31.2532" y="332.937" fill="black" font-size="13.4232" font-family="Helvetica">
500
</text>
<text x="24.5677" y="298.173" fill="black" font-size="13.4232" font-family="Helvetica">
1000
</text>
<text x="24.5677" y="263.408" fill="black" font-size="13.4232" font-family="Helvetica">
1500
</text>
<text x="24.5677" y="228.644" fill="black" font-size="13.4232" font-family="Helvetica">
2000
</text>
<text x="24.5677" y="193.879" fill="black" font-size="13.4232" font-family="Helvetica">
2500
</text>
<text x="24.5677" y="160.452" fill="black" font-size="13.4232" font-family="Helvetica">
3000
</text>
<text x="24.5677" y="125.687" fill="black" font-size="13.4232" font-family="Helvetica">
3500
</text>
<text x="24.5677" y="90.9226" fill="black" font-size="13.4232" font-family="Helvetica">
4000
</text>
<text x="24.5677" y="56.1581" fill="black" font-size="13.4232" font-family="Helvetica">
4500
</text>
<rect x="351.996" y="26.1603" width="204.094" height="112.691" fill="white"/>
<path d="M351.996,138.851h 204.094" fill="none" stroke="black" stroke-width="2"/>
<path d="M556.091,138.851v -112.691" fill="none" stroke="black" stroke-width="2"/>
<path d="M556.091,26.1603h -204.094" fill="none" stroke="black" stroke-width="2"/>
<path d="M351.996,26.1603v 112.691" fill="none" stroke="black" stroke-width="2"/>
<text x="373.55" y="40.1129" fill="black" font-size="12.4605" font-family="Helvetica">
 / ndf 
</text>
<text x="368.202" y="36.1016" fill="black" font-size="8.47364" font-family="Helvetica">
2
</text>
<text x="361.516" y="40.1129" fill="black" font-size="12.4605" font-family="Times">
&#0967;
</text>
<text x="481.855" y="40.1129" fill="black" font-size="12.4605" font-family="Helvetica">
  7836 / 365
</text>
<text x="361.516" y="58.8323" fill="black" font-size="12.4605" font-family="Helvetica">
Centroid 
</text>
<text x="524.642" y="58.8323" fill="black" font-size="12.4605" font-family="Helvetica">
 0.0
</text>
<text x="517.957" y="58.8323" fill="black" font-size="12.4605" font-family="Times">
&#0177;
</text>
<text x="481.855" y="58.8323" fill="black" font-size="12.4605" font-family="Helvetica">
  5614 
</text>
<text x="361.516" y="77.5516" fill="black" font-size="12.4605" font-family="Helvetica">
FWHM     
</text>
<text x="517.957" y="77.5516" fill="black" font-size="12.4605" font-family="Helvetica">
 0.08
</text>
<text x="511.271" y="77.5516" fill="black" font-size="12.4605" font-family="Times">
&#0177;
</text>
<text x="475.169" y="77.5516" fill="black" font-size="12.4605" font-family="Helvetica">
 25.08 
</text>
<text x="361.516" y="96.271" fill="black" font-size="12.4605" font-family="Helvetica">
Counts   
</text>
<text x="484.529" y="96.271" fill="black" font-size="12.4605" font-family="Helvetica">
 3.316e+02
</text>
<text x="477.844" y="96.271" fill="black" font-size="12.4605" font-family="Times">
&#0177;
</text>
<text x="415" y="96.271" fill="black" font-size="12.4605" font-family="Helvetica">
 1.087e+05 
</text>
<text x="361.516" y="113.653" fill="black" font-size="12.4605" font-family="Helvetica">
Intercept 
</text>
<text x="524.642" y="114.99" fill="black" font-size="12.4605" font-family="Helvetica">
 9.5
</text>
<text x="517.957" y="114.99" fill="black" font-size="12.4605" font-family="Times">
&#0177;
</text>
<text x="481.855" y="114.99" fill="black" font-size="12.4605" font-family="Helvetica">
 451.6 
</text>
<text x="361.516" y="132.373" fill="black" font-size="12.4605" font-family="Helvetica">
Slope    
</text>
<text x="497.9" y="133.71" fill="black" font-size="12.4605" font-family="Helvetica">
 0.00168
</text>
<text x="491.215" y="133.71" fill="black" font-size="12.4605" font-family="Times">
&#0177;
</text>
<text x="445.753" y="133.71" fill="black" font-size="12.4605" font-family="Helvetica">
0.07739 
</text>
<text x="439.068" y="133.71" fill="black" font-size="12.4605" font-family="Times">
&#8722;
</text>
<text x="436.394" y="133.71" fill="black" font-size="12.4605" font-family="Helvetica">
 
</text>
<path d="M59.4606,362.22h 204.094l 4.53543, -0.113093l 4.53543, -0.306222l 4.53543, -0.959351l 4.53543, -2.64102" fill="none" stroke="#00ff00" stroke-width="2"/>
<path d="M281.697,358.2l 4.53543, -6.37327l 4.53543, -13.4357l 4.53543, -24.6192l 4.53543, -38.9023l 4.53543, -52.3082l 4.53543, -58.3503l 4.53543, -50.9433l 4.53543, -28.6106l 4.53543, 3.13974l 4.53543, 33.824l 4.53543, 53.5389l 4.53543, 58.0919l
 4.53543, 50.1189l 4.53543, 36.1002l 4.53543, 22.1964l 4.53543, 11.7903l 4.53543, 5.44968l 4.53543, 2.20217l 4.53543, 0.780467l 4.53543, 0.243151l 4.53543, 0.0870563h 126.992" fill="none" stroke="#00ff00" stroke-width="2"/>
<path d="M503.933,362.22h 4.53543" fill="none" stroke="#00ff00" stroke-width="2"/>
<text x="242.515" y="18.7194" fill="black" font-size="17.7617" font-family="Helvetica">
1.8kV.TKA
</text></svg>
