<?xml version="1.0" standalone="no"?>
<svg width="567.429" height="421.167" viewBox="0 0 567.429 421.167" xmlns="http://www.w3.org/2000/svg">
<title>
/home/ADF/hyw543/HPGeEnviro/Elevated/ResolutionVBias/c1.svg
</title>
<desc>
Creator: ROOT Version 6.06/08
CreationDate: Thu Jan 24 19:22:18 2019</desc>
<defs>
</defs>
<rect x="0.5" y="0" width="566.929" height="420.667" fill="white"/>
<rect x="57.1929" y="42.0667" width="453.543" height="336.533" fill="white"/>
<rect x="57.1929" y="42.0667" width="453.543" height="336.533" fill="none" stroke="black"/>
<rect x="57.1929" y="42.0667" width="453.543" height="336.533" fill="white"/>
<rect x="57.1929" y="42.0667" width="453.543" height="336.533" fill="none" stroke="black"/>
<path d="M57.1929,377.839h 1.07475v -0.142617h 1.07475v -0.095078h 1.07475v -0.095078h 1.07475v 0.047539h 1.07475v -0.190156h 1.07475v 0.570468h 1.07475v -0.427851h 1.07475v -0.142617h 1.07475v 0.380312h 2.14949v -0.142617h 1.07475v 0.237695h
 1.07475v -0.47539h 1.07475v 0.427851h 1.07475v -0.522929h 1.07475v 0.237695h 1.07475v 0.285234h 1.07475v -0.380312h 1.07475v -0.047539h 1.07475v 0.190156h 1.07475v 0.047539h 1.07475v 0.047539h 1.07475v -0.047539h 1.07475v 0.095078h 1.07475v
 -0.047539h 1.07475v 0.047539h 1.07475v -0.095078h 1.07475v -0.237695h 1.07475v 0.237695h 1.07475v 0.095078h 2.14949v -0.190156h 1.07475v 0.190156h 1.07475v -0.808163h 1.07475v 0.618007h 1.07475v -0.142617h 1.07475v 0.142617h 1.07475v -0.427851h
 1.07475v 0.427851h 1.07475v -0.427851h 1.07475v 0.332773h 1.07475v 0.237695h 1.07475v 0.047539h 1.07475v -0.142617h 1.07475v -0.665546h 1.07475v 0.522929h 1.07475v 0.237695h 1.07475v 0.095078h 1.07475v -0.665546h 1.07475v 0.522929h 1.07475v
 -0.427851h 1.07475v 0.237695h 1.07475v -0.522929h 1.07475v 0.522929h 1.07475v -0.618007h 1.07475v 0.427851h 1.07475v 0.142617h 1.07475v 0.427851h 1.07475v -0.285234h 1.07475v -0.47539h 2.14949v -0.095078h 1.07475v 0.380312h 1.07475v -0.285234h
 1.07475v 0.285234h 1.07475v -0.237695h 1.07475v 0.427851h 1.07475v -0.095078h 1.07475v -0.285234h 1.07475v -0.047539h 1.07475v 0.332773h 1.07475v -0.047539h 1.07475v 0.190156h 1.07475v -0.332773h 1.07475v 0.190156h 1.07475v 0.047539h 1.07475v
 -0.285234h 1.07475v 0.237695h 1.07475v -0.142617h 1.07475v -0.237695h 1.07475v 0.285234h 1.07475v 0.285234h 1.07475v -0.427851h 1.07475v 0.047539h 1.07475v -0.190156h 1.07475v 0.047539h 1.07475v 0.237695h 1.07475v -0.47539h 1.07475v -0.047539h
 1.07475v -0.522929h 1.07475v 0.760624h 1.07475v -0.332773h 1.07475v 0.142617h 1.07475v 0.142617h 1.07475v 0.190156h 1.07475v -0.522929h 1.07475v 0.190156h 1.07475v 0.142617h 1.07475v -0.618007h 1.07475v 0.570468h 2.14949v -0.332773h 1.07475v
 0.095078h 1.07475v 0.237695h 1.07475v -0.427851h 1.07475v -0.285234h 1.07475v 0.047539h 1.07475v 0.570468h 1.07475v -0.427851h 1.07475v -0.332773h 1.07475v 0.618007h 1.07475v -0.522929h 1.07475v 0.570468h 1.07475v -0.665546h 1.07475v 0.427851h
 1.07475v -0.998319h 1.07475v 0.618007h 1.07475v 0.332773h 1.07475v -0.760624h 1.07475v 0.618007h 1.07475v 0.190156h 1.07475v -0.190156h 1.07475v -0.190156h 1.07475v -0.332773h 1.07475v -0.190156h 1.07475v 0.047539h 1.07475v 0.380312h 1.07475v
 -0.332773h 2.14949v -0.332773h 1.07475v 0.332773h 1.07475v -0.332773h 2.14949v 0.095078h 1.07475v -0.237695h 1.07475v 0.665546h 1.07475v -0.903241h 1.07475v -0.237695h 1.07475v -0.618007h 1.07475v 1.18847h 1.07475v -1.23601h 1.07475v 0.522929h
 1.07475v 0.237695h 1.07475v -0.427851h 1.07475v 0.190156h 1.07475v -0.095078h 1.07475v -0.190156h 1.07475v -0.665546h 1.07475v -0.522929h 1.07475v 0.47539h 1.07475v -0.570468h 1.07475v 0.380312h 1.07475v -0.47539h 1.07475v -0.47539h 1.07475v
 -0.095078h 1.07475v -1.23601h 1.07475v 0.618007h 1.07475v -1.0934h 1.07475v -0.95078h 1.07475v 1.04586h 1.07475v -2.37695h 1.07475v 1.28355h 1.07475v -2.09172h 1.07475v 1.0934h 1.07475v -2.32941h 1.07475v 0.190156h 1.07475v 0.522929h 1.07475v
 -0.998319h 1.07475v -1.47371h 1.07475v -1.52125h 1.07475v -1.47371h 1.07475v -1.0934h 1.07475v -1.99664h 1.07475v -2.47203h 1.07475v -1.66386h 1.07475v -1.14094h 1.07475v -6.27515h 1.07475v -4.42113h 1.07475v -3.6605h 1.07475v -6.65546h 1.07475v
 -8.31932h 1.07475v -9.2701h 1.07475v -14.3092h 1.07475v -18.1599h 1.07475v -10.8389h 1.07475v -22.9138h 1.07475v -25.9087h 1.07475v -23.722h 1.07475v -26.0038h 1.07475v -25.0055h 1.07475v -32.897h 1.07475v -16.0206h 1.07475v -22.0106h 1.07475v
 -14.642h 1.07475v -2.8048h 1.07475v -1.28355h 1.07475v 7.70132h 1.07475v 12.3126h 1.07475v 21.2975h 1.07475v 27.8578h 1.07475v 28.9988h 1.07475v 29.3791h 1.07475v 31.756h 1.07475v 19.4434h 1.07475v 24.1498h 1.07475v 21.4876h 1.07475v 15.1649h
 1.07475v 16.5911h 1.07475v 9.65041h 1.07475v 9.12749h 1.07475v 5.89483h 1.07475v 4.84898h 1.07475v 3.18511h 1.07475v 5.27683h 1.07475v -2.70972h 1.07475v 2.8048h 1.07475v 2.94742h 1.07475v 2.18679h 1.07475v -1.52125h 1.07475v 1.28355h 1.07475v
 2.09172h 1.07475v 0.095078h 1.07475v 0.760624h 1.07475v 0.427851h 1.07475v 1.99664h 1.07475v -0.760624h 1.07475v 2.47203h 1.07475v 0.998319h 1.07475v -1.42617h 1.07475v 1.14094h 1.07475v -0.427851h 1.07475v 2.28187h 1.07475v -0.190156h 1.07475v
 -0.332773h 1.07475v 1.23601h 1.07475v 0.570468h 2.14949v 1.47371h 1.07475v 0.332773h 1.07475v 0.427851h 1.07475v 0.142617h 1.07475v 1.85402h 1.07475v -0.047539h 1.07475v 0.142617h 1.07475v 0.095078h 1.07475v 0.570468h 1.07475v 0.522929h 1.07475v
 -0.570468h 1.07475v 2.13925h 1.07475v -0.713085h 1.07475v 0.332773h 1.07475v -0.285234h 1.07475v 0.095078h 1.07475v 1.18847h 1.07475v -0.808163h 1.07475v 0.855702h 1.07475v -0.285234h 1.07475v 0.332773h 1.07475v 0.522929h 1.07475v 0.190156h 1.07475v
 0.332773h 1.07475v -0.522929h 1.07475v 0.570468h 1.07475v 0.142617h 1.07475v -0.142617h 1.07475v 0.618007h 1.07475v -0.332773h 1.07475v 0.380312h 1.07475v -0.190156h 1.07475v 0.095078h 1.07475v 0.427851h 2.14949v -0.237695h 1.07475v 0.285234h
 1.07475v -0.047539h 1.07475v -0.332773h 1.07475v 0.332773h 1.07475v 0.142617h 1.07475v -0.142617h 1.07475v 0.047539h 1.07475v 0.095078h 1.07475v 0.047539h 1.07475v -0.047539h 1.07475v 0.142617h 1.07475v -0.285234h 1.07475v 0.047539h 1.07475v
 -0.190156h 1.07475v 0.522929h 1.07475v -0.237695h 1.07475v 0.190156h 1.07475v -0.237695h 1.07475v 0.095078h 1.07475v 0.142617h 2.14949v -0.095078h 1.07475v -0.190156h 1.07475v 0.190156h 1.07475v -0.190156h 1.07475v 0.142617h 1.07475v 0.142617h
 1.07475v -0.190156h 1.07475v 0.285234h 1.07475v -0.190156h 1.07475v 0.095078h 1.07475v 0.047539h 1.07475v -0.047539h 1.07475v -0.047539h 1.07475v 0.047539h 1.07475v -0.047539h 1.07475v -0.190156h 1.07475v 0.142617h 1.07475v 0.095078h 1.07475v
 0.142617h 1.07475v -0.190156h 2.14949v -0.142617h 1.07475v 0.285234h 1.07475v -0.142617h 1.07475v 0.095078h 1.07475v 0.190156h 1.07475v -0.142617h 1.07475v 0.095078h 1.07475v 0.047539h 1.07475v -0.332773h 1.07475v 0.142617h 1.07475v -0.047539h
 1.07475v 0.047539h 1.07475v -0.047539h 1.07475v 0.142617h 1.07475v -0.142617h 1.07475v -0.095078h 1.07475v 0.285234h 1.07475v -0.190156h 1.07475v 0.047539h 2.14949v -0.095078h 1.07475v 0.142617h 1.07475v -0.047539h 1.07475v -0.047539h 1.07475v
 -0.095078h 1.07475v 0.142617h 1.07475v -0.047539h 1.07475v 0.047539h 1.07475v 0.142617h 1.07475v -0.285234h 1.07475v 0.332773h 1.07475v -0.142617h 1.07475v 0.095078h 1.07475v 0.047539h 1.07475v -0.237695h 1.07475v 0.047539h 1.07475v -0.095078h
 1.07475v 0.190156h 2.14949v -0.142617h 1.07475v 0.095078h 1.07475v -0.190156h 1.07475v 0.237695h 1.07475v -0.047539h 1.07475v 0.095078h 1.07475v -0.095078h 1.07475v -0.047539h 2.14949v 0.095078h 1.07475v -0.142617h 1.07475v 0.095078h 2.14949v
 0.047539h 1.07475v -0.142617h 1.07475v 0.142617h 1.07475v -0.095078h 1.07475v -0.095078h 1.07475v 0.190156h 1.07475v -0.142617h 1.07475v 0.095078h 1.07475v 0.095078h 2.14949v -0.047539h 1.07475v -0.095078h 2.14949v 0.047539h 1.07475v -0.047539h
 1.07475v 0.190156h 1.07475v -0.047539h 1.07475v -0.190156h 1.07475v 0.047539h 1.07475v -0.047539h 1.07475v 0.142617h 1.07475v -0.095078h 1.07475v 0.047539h 1.07475v -0.142617h 1.07475v 0.237695h 1.07475v -0.142617h 1.07475v 0.190156h 1.07475v
 -0.047539h 2.14949v -0.142617h 2.14949v 0.142617h 1.07475v -0.190156h 1.07475v -0.142617h 1.07475v 0.142617h 1.07475v 0.047539h 1.07475v -0.095078h 1.07475v 0.190156h 1.07475v 0.047539h 1.07475v -0.142617h 1.07475v 0.142617h 1.07475v -0.047539h
 1.07475v -0.095078h 1.07475v 0.095078h 2.14949v -0.047539h 1.07475v -0.047539h 2.14949v 0.142617h 1.07475v -0.047539h 2.14949v -0.190156h 1.07475v -0.047539h 1.07475v 0.190156h 1.07475" fill="none" stroke="#ff0000" stroke-width="2"/>
<path d="M59.4606,376.779l 4.53543, 0.0192731l 4.53543, 0.0192731l 4.53543, 0.0192731l 4.53543, 0.0192731l 4.53543, 0.0192731l 4.53543, 0.0192731l 4.53543, 0.0192731l 4.53543, 0.0192731l 4.53543, 0.0192731l 4.53543, 0.0192731l 4.53543, 0.0192731l
 4.53543, 0.0192731l 4.53543, 0.0192731l 4.53543, 0.0192731l 4.53543, 0.0192731l 4.53543, 0.0192731l 4.53543, 0.0192731l 4.53543, 0.0192731l 4.53543, 0.0192731l 4.53543, 0.0192731l 4.53543, 0.0192731l 4.53543, 0.0192731l 4.53543, 0.0192731l 4.53543,
 0.0192731l 4.53543, 0.0192731l 4.53543, 0.0192731l 4.53543, 0.0192731l 4.53543, 0.0192731l 4.53543, 0.0192731l 4.53543, 0.0192731l 4.53543, 0.0192731l 4.53543, 0.0192731l 4.53543, 0.0192731l 4.53543, 0.0192714l 4.53543, 0.0192376l 4.53543,
 0.0187076l 4.53543, 0.012432l 4.53543, -0.0435643l 4.53543, -0.41779l 4.53543, -2.2736l 4.53543, -8.9975l 4.53543, -26.2921l 4.53543, -55.9149l 4.53543, -83.3417l 4.53543, -78.4347l 4.53543, -26.2528l 4.53543, 44.2915l 4.53543, 84.5574l 4.53543,
 77.7832" fill="none" stroke="#0000ff" stroke-width="2"/>
<path d="M281.697,302.148l 4.53543, 47.115l 4.53543, 20.2932l 4.53543, 6.41725l 4.53543, 1.52247l 4.53543, 0.284536l 4.53543, 0.0546233l 4.53543, 0.0228434l 4.53543, 0.0195471l 4.53543, 0.0192891l 4.53543, 0.0192739l 4.53543, 0.0192732l 4.53543,
 0.0192731l 4.53543, 0.0192731l 4.53543, 0.0192731l 4.53543, 0.0192731l 4.53543, 0.0192731l 4.53543, 0.0192731l 4.53543, 0.0192731l 4.53543, 0.0192731l 4.53543, 0.0192731l 4.53543, 0.0192731l 4.53543, 0.0192731l 4.53543, 0.0192731l 4.53543,
 0.0192731l 4.53543, 0.0192731l 4.53543, 0.0192731l 4.53543, 0.0192731l 4.53543, 0.0192731l 4.53543, 0.0192731l 4.53543, 0.0192731l 4.53543, 0.0192731l 4.53543, 0.0192731l 4.53543, 0.0192731l 4.53543, 0.0192731l 4.53543, 0.0192731l 4.53543,
 0.0192731l 4.53543, 0.0192731l 4.53543, 0.0192731l 4.53543, 0.0192731l 4.53543, 0.0192731l 4.53543, 0.0192731l 4.53543, 0.0192731l 4.53543, 0.0192731l 4.53543, 0.0473621h 22.6772" fill="none" stroke="#0000ff" stroke-width="2"/>
<path d="M503.933,378.6h 4.53543" fill="none" stroke="#0000ff" stroke-width="2"/>
<rect x="351.996" y="27.3433" width="204.094" height="117.787" fill="white"/>
<path d="M351.996,145.13h 204.094" fill="none" stroke="black" stroke-width="2"/>
<path d="M556.091,145.13v -117.787" fill="none" stroke="black" stroke-width="2"/>
<path d="M556.091,27.3433h -204.094" fill="none" stroke="black" stroke-width="2"/>
<path d="M351.996,27.3433v 117.787" fill="none" stroke="black" stroke-width="2"/>
<text x="374.57" y="40.1251" fill="black" font-size="12.5906" font-family="Helvetica">
 / ndf 
</text>
<text x="369.392" y="36.242" fill="black" font-size="8.56041" font-family="Helvetica">
2
</text>
<text x="361.626" y="40.1251" fill="black" font-size="12.5906" font-family="Times">
&#0967;
</text>
<text x="452.231" y="41.4195" fill="black" font-size="12.5906" font-family="Helvetica">
 1.502e+04 / 411
</text>
<text x="361.626" y="60.8349" fill="black" font-size="12.5906" font-family="Helvetica">
Centroid 
</text>
<text x="524.715" y="60.8349" fill="black" font-size="12.5906" font-family="Helvetica">
 0.0
</text>
<text x="516.949" y="60.8349" fill="black" font-size="12.5906" font-family="Times">
&#0177;
</text>
<text x="479.413" y="60.8349" fill="black" font-size="12.5906" font-family="Helvetica">
  5628 
</text>
<text x="361.626" y="82.839" fill="black" font-size="12.5906" font-family="Helvetica">
FWHM     
</text>
<text x="516.949" y="81.5446" fill="black" font-size="12.5906" font-family="Helvetica">
 0.06
</text>
<text x="509.183" y="81.5446" fill="black" font-size="12.5906" font-family="Times">
&#0177;
</text>
<text x="471.647" y="81.5446" fill="black" font-size="12.5906" font-family="Helvetica">
 19.14 
</text>
<text x="361.626" y="100.96" fill="black" font-size="12.5906" font-family="Helvetica">
Counts   
</text>
<text x="480.707" y="100.96" fill="black" font-size="12.5906" font-family="Helvetica">
 3.500e+02
</text>
<text x="472.941" y="100.96" fill="black" font-size="12.5906" font-family="Times">
&#0177;
</text>
<text x="405.634" y="100.96" fill="black" font-size="12.5906" font-family="Helvetica">
 1.215e+05 
</text>
<text x="361.626" y="119.081" fill="black" font-size="12.5906" font-family="Helvetica">
Intercept 
</text>
<text x="524.715" y="120.375" fill="black" font-size="12.5906" font-family="Helvetica">
 8.8
</text>
<text x="516.949" y="120.375" fill="black" font-size="12.5906" font-family="Times">
&#0177;
</text>
<text x="479.413" y="120.375" fill="black" font-size="12.5906" font-family="Helvetica">
 560.4 
</text>
<text x="361.626" y="138.496" fill="black" font-size="12.5906" font-family="Helvetica">
Slope    
</text>
<text x="496.239" y="139.791" fill="black" font-size="12.5906" font-family="Helvetica">
 0.00153
</text>
<text x="488.473" y="139.791" fill="black" font-size="12.5906" font-family="Times">
&#0177;
</text>
<text x="439.288" y="139.791" fill="black" font-size="12.5906" font-family="Helvetica">
0.09607 
</text>
<text x="431.521" y="139.791" fill="black" font-size="12.5906" font-family="Times">
&#8722;
</text>
<text x="428.933" y="139.791" fill="black" font-size="12.5906" font-family="Helvetica">
 
</text>
<path d="M57.1929,378.6h 453.543" fill="none" stroke="black" stroke-width="2"/>
<text x="452.231" y="407.723" fill="black" font-size="14.0076" font-family="Helvetica">
Channels
</text>
<path d="M130.276,368.504v 10.096" fill="none" stroke="black" stroke-width="2"/>
<path d="M151.771,373.552v 5.048" fill="none" stroke="black" stroke-width="2"/>
<path d="M173.266,373.552v 5.048" fill="none" stroke="black" stroke-width="2"/>
<path d="M194.761,373.552v 5.048" fill="none" stroke="black" stroke-width="2"/>
<path d="M216.255,373.552v 5.048" fill="none" stroke="black" stroke-width="2"/>
<path d="M237.75,368.504v 10.096" fill="none" stroke="black" stroke-width="2"/>
<path d="M259.245,373.552v 5.048" fill="none" stroke="black" stroke-width="2"/>
<path d="M280.74,373.552v 5.048" fill="none" stroke="black" stroke-width="2"/>
<path d="M302.235,373.552v 5.048" fill="none" stroke="black" stroke-width="2"/>
<path d="M323.73,373.552v 5.048" fill="none" stroke="black" stroke-width="2"/>
<path d="M345.225,368.504v 10.096" fill="none" stroke="black" stroke-width="2"/>
<path d="M366.72,373.552v 5.048" fill="none" stroke="black" stroke-width="2"/>
<path d="M388.215,373.552v 5.048" fill="none" stroke="black" stroke-width="2"/>
<path d="M409.71,373.552v 5.048" fill="none" stroke="black" stroke-width="2"/>
<path d="M431.205,373.552v 5.048" fill="none" stroke="black" stroke-width="2"/>
<path d="M452.7,368.504v 10.096" fill="none" stroke="black" stroke-width="2"/>
<path d="M130.276,368.504v 10.096" fill="none" stroke="black" stroke-width="2"/>
<path d="M108.781,373.552v 5.048" fill="none" stroke="black" stroke-width="2"/>
<path d="M87.2858,373.552v 5.048" fill="none" stroke="black" stroke-width="2"/>
<path d="M65.7909,373.552v 5.048" fill="none" stroke="black" stroke-width="2"/>
<path d="M452.7,368.504v 10.096" fill="none" stroke="black" stroke-width="2"/>
<path d="M474.195,373.552v 5.048" fill="none" stroke="black" stroke-width="2"/>
<path d="M495.69,373.552v 5.048" fill="none" stroke="black" stroke-width="2"/>
<text x="114.404" y="392.191" fill="black" font-size="14.0076" font-family="Helvetica">
5500
</text>
<text x="221.835" y="392.191" fill="black" font-size="14.0076" font-family="Helvetica">
5600
</text>
<text x="329.267" y="392.191" fill="black" font-size="14.0076" font-family="Helvetica">
5700
</text>
<text x="436.699" y="392.191" fill="black" font-size="14.0076" font-family="Helvetica">
5800
</text>
<path d="M57.1929,378.6v -336.533" fill="none" stroke="black" stroke-width="2"/>
<path d="M70.7992,378.6h -13.6063" fill="none" stroke="black" stroke-width="2"/>
<path d="M63.9961,369.092h -6.80315" fill="none" stroke="black" stroke-width="2"/>
<path d="M63.9961,359.584h -6.80315" fill="none" stroke="black" stroke-width="2"/>
<path d="M63.9961,350.077h -6.80315" fill="none" stroke="black" stroke-width="2"/>
<path d="M63.9961,340.569h -6.80315" fill="none" stroke="black" stroke-width="2"/>
<path d="M70.7992,331.061h -13.6063" fill="none" stroke="black" stroke-width="2"/>
<path d="M63.9961,321.553h -6.80315" fill="none" stroke="black" stroke-width="2"/>
<path d="M63.9961,312.045h -6.80315" fill="none" stroke="black" stroke-width="2"/>
<path d="M63.9961,302.538h -6.80315" fill="none" stroke="black" stroke-width="2"/>
<path d="M63.9961,293.03h -6.80315" fill="none" stroke="black" stroke-width="2"/>
<path d="M70.7992,283.522h -13.6063" fill="none" stroke="black" stroke-width="2"/>
<path d="M63.9961,274.014h -6.80315" fill="none" stroke="black" stroke-width="2"/>
<path d="M63.9961,264.506h -6.80315" fill="none" stroke="black" stroke-width="2"/>
<path d="M63.9961,254.999h -6.80315" fill="none" stroke="black" stroke-width="2"/>
<path d="M63.9961,245.491h -6.80315" fill="none" stroke="black" stroke-width="2"/>
<path d="M70.7992,235.983h -13.6063" fill="none" stroke="black" stroke-width="2"/>
<path d="M63.9961,226.475h -6.80315" fill="none" stroke="black" stroke-width="2"/>
<path d="M63.9961,216.967h -6.80315" fill="none" stroke="black" stroke-width="2"/>
<path d="M63.9961,207.46h -6.80315" fill="none" stroke="black" stroke-width="2"/>
<path d="M63.9961,197.952h -6.80315" fill="none" stroke="black" stroke-width="2"/>
<path d="M70.7992,188.444h -13.6063" fill="none" stroke="black" stroke-width="2"/>
<path d="M63.9961,178.936h -6.80315" fill="none" stroke="black" stroke-width="2"/>
<path d="M63.9961,169.428h -6.80315" fill="none" stroke="black" stroke-width="2"/>
<path d="M63.9961,159.921h -6.80315" fill="none" stroke="black" stroke-width="2"/>
<path d="M63.9961,150.413h -6.80315" fill="none" stroke="black" stroke-width="2"/>
<path d="M70.7992,140.905h -13.6063" fill="none" stroke="black" stroke-width="2"/>
<path d="M63.9961,131.397h -6.80315" fill="none" stroke="black" stroke-width="2"/>
<path d="M63.9961,121.889h -6.80315" fill="none" stroke="black" stroke-width="2"/>
<path d="M63.9961,112.382h -6.80315" fill="none" stroke="black" stroke-width="2"/>
<path d="M63.9961,102.874h -6.80315" fill="none" stroke="black" stroke-width="2"/>
<path d="M70.7992,93.366h -13.6063" fill="none" stroke="black" stroke-width="2"/>
<path d="M63.9961,83.8582h -6.80315" fill="none" stroke="black" stroke-width="2"/>
<path d="M63.9961,74.3504h -6.80315" fill="none" stroke="black" stroke-width="2"/>
<path d="M63.9961,64.8426h -6.80315" fill="none" stroke="black" stroke-width="2"/>
<path d="M63.9961,55.3348h -6.80315" fill="none" stroke="black" stroke-width="2"/>
<path d="M70.7992,45.827h -13.6063" fill="none" stroke="black" stroke-width="2"/>
<path d="M70.7992,45.827h -13.6063" fill="none" stroke="black" stroke-width="2"/>
<text x="45.8026" y="383.13" fill="black" font-size="14.0076" font-family="Helvetica">
0
</text>
<text x="22.5041" y="335.239" fill="black" font-size="14.0076" font-family="Helvetica">
1000
</text>
<text x="22.5041" y="288.642" fill="black" font-size="14.0076" font-family="Helvetica">
2000
</text>
<text x="22.5041" y="240.751" fill="black" font-size="14.0076" font-family="Helvetica">
3000
</text>
<text x="22.5041" y="192.859" fill="black" font-size="14.0076" font-family="Helvetica">
4000
</text>
<text x="22.5041" y="144.968" fill="black" font-size="14.0076" font-family="Helvetica">
5000
</text>
<text x="22.5041" y="98.3713" fill="black" font-size="14.0076" font-family="Helvetica">
6000
</text>
<text x="22.5041" y="50.48" fill="black" font-size="14.0076" font-family="Helvetica">
7000
</text>
<rect x="351.996" y="27.3433" width="204.094" height="117.787" fill="white"/>
<path d="M351.996,145.13h 204.094" fill="none" stroke="black" stroke-width="2"/>
<path d="M556.091,145.13v -117.787" fill="none" stroke="black" stroke-width="2"/>
<path d="M556.091,27.3433h -204.094" fill="none" stroke="black" stroke-width="2"/>
<path d="M351.996,27.3433v 117.787" fill="none" stroke="black" stroke-width="2"/>
<text x="374.57" y="40.1251" fill="black" font-size="12.5906" font-family="Helvetica">
 / ndf 
</text>
<text x="369.392" y="36.242" fill="black" font-size="8.56041" font-family="Helvetica">
2
</text>
<text x="361.626" y="40.1251" fill="black" font-size="12.5906" font-family="Times">
&#0967;
</text>
<text x="452.231" y="41.4195" fill="black" font-size="12.5906" font-family="Helvetica">
 1.502e+04 / 411
</text>
<text x="361.626" y="60.8349" fill="black" font-size="12.5906" font-family="Helvetica">
Centroid 
</text>
<text x="524.715" y="60.8349" fill="black" font-size="12.5906" font-family="Helvetica">
 0.0
</text>
<text x="516.949" y="60.8349" fill="black" font-size="12.5906" font-family="Times">
&#0177;
</text>
<text x="479.413" y="60.8349" fill="black" font-size="12.5906" font-family="Helvetica">
  5628 
</text>
<text x="361.626" y="82.839" fill="black" font-size="12.5906" font-family="Helvetica">
FWHM     
</text>
<text x="516.949" y="81.5446" fill="black" font-size="12.5906" font-family="Helvetica">
 0.06
</text>
<text x="509.183" y="81.5446" fill="black" font-size="12.5906" font-family="Times">
&#0177;
</text>
<text x="471.647" y="81.5446" fill="black" font-size="12.5906" font-family="Helvetica">
 19.14 
</text>
<text x="361.626" y="100.96" fill="black" font-size="12.5906" font-family="Helvetica">
Counts   
</text>
<text x="480.707" y="100.96" fill="black" font-size="12.5906" font-family="Helvetica">
 3.500e+02
</text>
<text x="472.941" y="100.96" fill="black" font-size="12.5906" font-family="Times">
&#0177;
</text>
<text x="405.634" y="100.96" fill="black" font-size="12.5906" font-family="Helvetica">
 1.215e+05 
</text>
<text x="361.626" y="119.081" fill="black" font-size="12.5906" font-family="Helvetica">
Intercept 
</text>
<text x="524.715" y="120.375" fill="black" font-size="12.5906" font-family="Helvetica">
 8.8
</text>
<text x="516.949" y="120.375" fill="black" font-size="12.5906" font-family="Times">
&#0177;
</text>
<text x="479.413" y="120.375" fill="black" font-size="12.5906" font-family="Helvetica">
 560.4 
</text>
<text x="361.626" y="138.496" fill="black" font-size="12.5906" font-family="Helvetica">
Slope    
</text>
<text x="496.239" y="139.791" fill="black" font-size="12.5906" font-family="Helvetica">
 0.00153
</text>
<text x="488.473" y="139.791" fill="black" font-size="12.5906" font-family="Times">
&#0177;
</text>
<text x="439.288" y="139.791" fill="black" font-size="12.5906" font-family="Helvetica">
0.09607 
</text>
<text x="431.521" y="139.791" fill="black" font-size="12.5906" font-family="Times">
&#8722;
</text>
<text x="428.933" y="139.791" fill="black" font-size="12.5906" font-family="Helvetica">
 
</text>
<path d="M59.4606,378.6h 167.811l 4.53543, -0.0702814l 4.53543, -0.437063l 4.53543, -2.29287l 4.53543, -9.01677l 4.53543, -26.3114l 4.53543, -55.9341l 4.53543, -83.361l 4.53543, -78.454l 4.53543, -26.2721l 4.53543, 44.2722l 4.53543, 84.5381l 4.53543,
 77.7639" fill="none" stroke="#00ff00" stroke-width="2"/>
<path d="M281.697,303.025l 4.53543, 47.0958l 4.53543, 20.2739l 4.53543, 6.39797l 4.53543, 1.50319l 4.53543, 0.265263l 4.53543, 0.0392111h 195.024" fill="none" stroke="#00ff00" stroke-width="2"/>
<path d="M503.933,378.6h 4.53543" fill="none" stroke="#00ff00" stroke-width="2"/>
<text x="239.956" y="20.7097" fill="black" font-size="18.5424" font-family="Helvetica">
2.0kV.TKA
</text></svg>
