<?xml version="1.0" standalone="no"?>
<svg width="567.429" height="388.331" viewBox="0 0 567.429 388.331" xmlns="http://www.w3.org/2000/svg">
<title>
/home/ADF/hyw543/HPGeEnviro/Elevated/ResolutionVBias/c1.svg
</title>
<desc>
Creator: ROOT Version 6.06/08
CreationDate: Thu Jan 24 19:22:59 2019</desc>
<defs>
</defs>
<rect x="0.5" y="0" width="566.929" height="387.831" fill="white"/>
<rect x="57.1929" y="38.7831" width="453.543" height="310.265" fill="white"/>
<rect x="57.1929" y="38.7831" width="453.543" height="310.265" fill="none" stroke="black"/>
<rect x="57.1929" y="38.7831" width="453.543" height="310.265" fill="white"/>
<rect x="57.1929" y="38.7831" width="453.543" height="310.265" fill="none" stroke="black"/>
<path d="M57.1929,347.997h 1.00341v -0.262611h 1.00341v 0.262611h 1.00341v -0.157567h 1.00341v -0.525223h 1.00341v 0.105045h 1.00341v 0.4727h 2.00683v -0.315134h 1.00341v 0.367656h 1.00341v 0.262611h 1.00341v -0.262611h 1.00341v -0.105045h 1.00341v
 0.157567h 1.00341v 0.4727h 1.00341v -0.0525223h 1.00341v -0.315134h 1.00341v 0.105045h 1.00341v -0.210089h 1.00341v -0.105045h 1.00341v -0.157567h 1.00341v -0.105045h 1.00341v 0.262611h 1.00341v 0.105045h 1.00341v 0.210089h 1.00341v -0.367656h
 1.00341v -0.157567h 1.00341v 0.157567h 1.00341v 0.105045h 1.00341v -0.157567h 1.00341v 0.157567h 1.00341v -0.210089h 1.00341v 0.420178h 1.00341v -0.210089h 1.00341v 0.262611h 1.00341v -0.525223h 1.00341v -0.105045h 1.00341v -0.0525223h 1.00341v
 0.105045h 1.00341v 0.4727h 1.00341v -0.367656h 1.00341v 0.367656h 1.00341v -0.367656h 1.00341v 0.210089h 1.00341v -0.157567h 1.00341v 0.315134h 1.00341v -0.367656h 1.00341v 0.262611h 1.00341v -0.105045h 1.00341v 0.315134h 1.00341v -0.420178h
 1.00341v 0.262611h 1.00341v -0.315134h 1.00341v 0.105045h 1.00341v -0.210089h 1.00341v 0.157567h 1.00341v 0.0525223h 1.00341v -0.315134h 1.00341v -0.210089h 1.00341v 0.262611h 1.00341v 0.105045h 1.00341v -0.210089h 1.00341v 0.315134h 1.00341v
 -0.367656h 1.00341v 0.945401h 1.00341v -1.26053h 1.00341v 0.735312h 2.00683v -0.787834h 1.00341v 0.4727h 1.00341v -0.420178h 2.00683v 0.315134h 2.00683v 0.525223h 1.00341v -0.892879h 1.00341v 0.577745h 1.00341v -0.262611h 2.00683v 0.735312h 1.00341v
 -0.420178h 1.00341v -0.525223h 1.00341v 0.420178h 1.00341v 0.210089h 1.00341v -0.367656h 1.00341v -0.105045h 1.00341v -0.105045h 1.00341v 0.315134h 1.00341v 0.210089h 1.00341v -0.367656h 1.00341v -0.262611h 1.00341v 0.420178h 1.00341v -0.367656h
 1.00341v 0.420178h 1.00341v -0.157567h 1.00341v 0.0525223h 1.00341v -0.262611h 1.00341v 0.210089h 1.00341v -0.4727h 1.00341v -0.0525223h 1.00341v 0.157567h 1.00341v 0.262611h 1.00341v -0.157567h 1.00341v 0.420178h 1.00341v -0.945401h 1.00341v
 1.05045h 1.00341v -0.0525223h 1.00341v -0.945401h 1.00341v 0.840356h 1.00341v -0.4727h 1.00341v 0.367656h 1.00341v -0.262611h 1.00341v 0.262611h 2.00683v -0.315134h 1.00341v -0.105045h 2.00683v 0.157567h 1.00341v -0.577745h 1.00341v 0.210089h
 1.00341v 0.577745h 1.00341v 0.157567h 1.00341v -0.892879h 1.00341v 0.525223h 1.00341v -0.157567h 1.00341v -0.157567h 1.00341v -0.157567h 1.00341v 0.315134h 1.00341v -0.367656h 1.00341v 0.315134h 1.00341v 0.210089h 1.00341v -0.157567h 1.00341v
 -0.4727h 1.00341v 0.105045h 1.00341v 0.420178h 1.00341v -0.525223h 1.00341v -0.157567h 1.00341v 0.262611h 1.00341v -0.210089h 1.00341v -0.0525223h 1.00341v -0.420178h 1.00341v 0.367656h 1.00341v 0.840356h 1.00341v -0.262611h 1.00341v 0.0525223h
 1.00341v 0.105045h 1.00341v -0.997923h 1.00341v 0.945401h 1.00341v -0.892879h 1.00341v 0.315134h 1.00341v -0.630267h 1.00341v -0.0525223h 1.00341v 1.10297h 1.00341v -0.735312h 1.00341v -0.105045h 1.00341v -0.0525223h 1.00341v -0.210089h 1.00341v
 0.0525223h 2.00683v -0.157567h 1.00341v -0.787834h 1.00341v 1.10297h 1.00341v -0.735312h 1.00341v 0.630267h 1.00341v -0.105045h 1.00341v 0.105045h 1.00341v -1.47062h 1.00341v 0.945401h 1.00341v -0.157567h 1.00341v 0.105045h 1.00341v 0.0525223h
 1.00341v -0.157567h 1.00341v 0.262611h 1.00341v -1.62819h 1.00341v 1.4181h 1.00341v -1.52315h 1.00341v 0.630267h 1.00341v 0.420178h 1.00341v -0.210089h 1.00341v -0.997923h 1.00341v 0.997923h 1.00341v 0.262611h 1.00341v -0.787834h 1.00341v
 -0.0525223h 1.00341v 0.892879h 1.00341v -1.68071h 1.00341v 1.20801h 1.00341v -1.8908h 1.00341v -0.157567h 1.00341v 1.05045h 1.00341v 0.735312h 1.00341v -0.525223h 1.00341v -1.4181h 1.00341v 0.157567h 1.00341v -0.367656h 1.00341v 0.0525223h 1.00341v
 -0.0525223h 1.00341v -1.10297h 1.00341v 0.525223h 1.00341v 0.367656h 1.00341v -0.577745h 1.00341v -0.787834h 1.00341v -0.315134h 1.00341v -2.31098h 1.00341v 1.26053h 1.00341v -0.367656h 1.00341v -0.315134h 1.00341v -0.577745h 1.00341v -0.315134h
 1.00341v -0.945401h 1.00341v -1.26053h 1.00341v -1.57567h 1.00341v -2.31098h 1.00341v -1.31306h 1.00341v -2.57359h 1.00341v -2.41602h 1.00341v -2.8362h 1.00341v -1.99585h 1.00341v -5.40979h 1.00341v -5.30475h 1.00341v -8.40356h 1.00341v -8.19347h
 1.00341v -10.662h 1.00341v -6.30267h 1.00341v -17.2273h 1.00341v -11.87h 1.00341v -16.0193h 1.00341v -27.9944h 1.00341v -13.1831h 1.00341v -17.3324h 1.00341v -24.9481h 1.00341v -20.9564h 1.00341v -25.946h 1.00341v -17.9626h 1.00341v -14.7588h
 1.00341v -3.93917h 1.00341v -8.77122h 1.00341v -1.47062h 1.00341v 1.73324h 1.00341v 9.50653h 1.00341v 16.2294h 1.00341v 20.7988h 1.00341v 17.1223h 1.00341v 21.2715h 1.00341v 26.3662h 1.00341v 23.8451h 1.00341v 19.0131h 1.00341v 22.322h 1.00341v
 20.2736h 1.00341v 12.4478h 1.00341v 11.5549h 1.00341v 15.4415h 1.00341v 3.46647h 1.00341v 10.1893h 1.00341v 5.61988h 1.00341v 2.15341h 1.00341v 4.41187h 1.00341v 3.62404h 1.00341v 2.10089h 1.00341v 2.10089h 1.00341v 1.83828h 1.00341v 1.26053h
 1.00341v 0.840356h 1.00341v -1.47062h 1.00341v 2.8362h 1.00341v -1.20801h 1.00341v 2.67864h 1.00341v 2.73116h 1.00341v -1.26053h 1.00341v 1.20801h 1.00341v -0.735312h 1.00341v 0.997923h 1.00341v -0.0525223h 1.00341v 0.997923h 1.00341v 0.210089h
 1.00341v 2.41602h 1.00341v -1.05045h 1.00341v 0.997923h 1.00341v 0.787834h 1.00341v 0.262611h 1.00341v -0.577745h 1.00341v 1.47062h 1.00341v 1.15549h 1.00341v 0.735312h 1.00341v -0.105045h 1.00341v 1.26053h 1.00341v -0.997923h 1.00341v 0.945401h
 1.00341v -0.262611h 1.00341v 0.787834h 1.00341v -0.420178h 1.00341v 0.787834h 1.00341v -0.210089h 1.00341v 1.4181h 1.00341v -0.577745h 1.00341v 1.10297h 1.00341v 0.157567h 1.00341v 0.210089h 1.00341v -0.0525223h 1.00341v 0.525223h 1.00341v 0.105045h
 1.00341v -0.262611h 1.00341v 0.315134h 1.00341v -0.105045h 1.00341v 0.157567h 1.00341v -0.420178h 1.00341v 0.997923h 1.00341v -0.0525223h 1.00341v -0.262611h 1.00341v 0.105045h 1.00341v 0.420178h 1.00341v 0.157567h 1.00341v -0.420178h 1.00341v
 0.315134h 1.00341v 0.525223h 1.00341v 0.0525223h 1.00341v -0.210089h 1.00341v -0.0525223h 1.00341v 0.367656h 1.00341v -0.262611h 1.00341v -0.105045h 1.00341v 0.420178h 1.00341v -0.315134h 1.00341v 0.210089h 1.00341v 0.0525223h 1.00341v -0.157567h
 1.00341v 0.157567h 1.00341v -0.210089h 1.00341v 0.157567h 1.00341v 0.105045h 1.00341v -0.0525223h 1.00341v 0.105045h 1.00341v 0.105045h 1.00341v -0.105045h 1.00341v 0.0525223h 1.00341v -0.157567h 1.00341v 0.0525223h 1.00341v -0.262611h 1.00341v
 0.315134h 1.00341v -0.105045h 1.00341v 0.262611h 1.00341v -0.0525223h 1.00341v 0.105045h 1.00341v -0.157567h 1.00341v 0.0525223h 1.00341v 0.0525223h 2.00683v -0.157567h 1.00341v 0.105045h 1.00341v -0.262611h 1.00341v 0.262611h 1.00341v 0.105045h
 1.00341v 0.0525223h 1.00341v -0.157567h 2.00683v 0.105045h 1.00341v 0.105045h 2.00683v -0.4727h 1.00341v 0.262611h 1.00341v 0.105045h 2.00683v 0.0525223h 1.00341v -0.0525223h 1.00341v -0.0525223h 1.00341v 0.0525223h 1.00341v -0.105045h 1.00341v
 0.105045h 1.00341v -0.157567h 1.00341v 0.315134h 1.00341v -0.105045h 1.00341v -0.0525223h 1.00341v 0.0525223h 1.00341v 0.105045h 1.00341v -0.525223h 1.00341v 0.315134h 1.00341v 0.0525223h 1.00341v 0.0525223h 2.00683v -0.210089h 3.01024v 0.157567h
 1.00341v -0.157567h 1.00341v -0.0525223h 1.00341v 0.210089h 1.00341v 0.0525223h 1.00341v -0.157567h 1.00341v 0.0525223h 1.00341v 0.0525223h 1.00341v -0.105045h 1.00341v 0.157567h 2.00683v 0.0525223h 1.00341v -0.262611h 2.00683v 0.0525223h 1.00341v
 0.105045h 1.00341v 0.105045h 1.00341v -0.105045h 2.00683v 0.0525223h 1.00341v -0.0525223h 2.00683v 0.105045h 1.00341v -0.105045h 1.00341v 0.0525223h 2.00683v -0.105045h 1.00341v 0.0525223h 1.00341v -0.105045h 1.00341v 0.262611h 2.00683v -0.157567h
 1.00341v 0.0525223h 1.00341v 0.105045h 2.00683v -0.262611h 1.00341v 0.210089h 1.00341v -0.105045h 1.00341v 0.157567h 1.00341v -0.0525223h 1.00341v 0.0525223h 1.00341v -0.262611h 1.00341v 0.157567h 2.00683v 0.105045h 1.00341v -0.0525223h 1.00341v
 -0.0525223h 1.00341v 0.0525223h 1.00341v -0.105045h 2.00683v 0.0525223h 2.00683v 0.157567h 1.00341v -0.210089h 2.00683v 0.0525223h 1.00341v -0.105045h 2.00683v 0.210089h 1.00341v -0.315134h 1.00341v 0.157567h 1.00341v 0.0525223h 1.00341v 0.105045h
 1.00341v -0.105045h 1.00341v 0.0525223h 2.00683v 0.0525223h 1.00341v -0.0525223h 1.00341v -0.157567h 1.00341v 0.0525223h 1.00341" fill="none" stroke="#ff0000" stroke-width="2"/>
<path d="M59.4606,347.043l 4.53543, 0.0199717l 4.53543, 0.0199717l 4.53543, 0.0199717l 4.53543, 0.0199717l 4.53543, 0.0199717l 4.53543, 0.0199717l 4.53543, 0.0199717l 4.53543, 0.0199717l 4.53543, 0.0199717l 4.53543, 0.0199717l 4.53543, 0.0199717l
 4.53543, 0.0199717l 4.53543, 0.0199717l 4.53543, 0.0199717l 4.53543, 0.0199717l 4.53543, 0.0199717l 4.53543, 0.0199717l 4.53543, 0.0199717l 4.53543, 0.0199717l 4.53543, 0.0199717l 4.53543, 0.0199717l 4.53543, 0.0199717l 4.53543, 0.0199717l 4.53543,
 0.0199717l 4.53543, 0.0199717l 4.53543, 0.0199717l 4.53543, 0.0199717l 4.53543, 0.0199717l 4.53543, 0.0199717l 4.53543, 0.0199717l 4.53543, 0.0199717l 4.53543, 0.0199717l 4.53543, 0.0199717l 4.53543, 0.0199717l 4.53543, 0.0199717l 4.53543,
 0.0199717l 4.53543, 0.0199717l 4.53543, 0.0199717l 4.53543, 0.0199714l 4.53543, 0.0199644l 4.53543, 0.0198545l 4.53543, 0.0185074l 4.53543, 0.00572398l 4.53543, -0.0878438l 4.53543, -0.61285l 4.53543, -2.84972l 4.53543, -9.97347l 4.53543, -26.4419l
 4.53543, -52.3228" fill="none" stroke="#0000ff" stroke-width="2"/>
<path d="M281.697,255.597l 4.53543, -74.5459l 4.53543, -69.3958l 4.53543, -25.8079l 4.53543, 34.3342l 4.53543, 72.7232l 4.53543, 72.4123l 4.53543, 48.2151l 4.53543, 23.3044l 4.53543, 8.45238l 4.53543, 2.34627l 4.53543, 0.51335l 4.53543, 0.100872l
 4.53543, 0.0302659l 4.53543, 0.0209908l 4.53543, 0.0200504l 4.53543, 0.0199765l 4.53543, 0.019972l 4.53543, 0.0199718l 4.53543, 0.0199717l 4.53543, 0.0199717l 4.53543, 0.0199717l 4.53543, 0.0199717l 4.53543, 0.0199717l 4.53543, 0.0199717l 4.53543,
 0.0199717l 4.53543, 0.0199717l 4.53543, 0.0199717l 4.53543, 0.0199717l 4.53543, 0.0199717l 4.53543, 0.0199717l 4.53543, 0.0199717l 4.53543, 0.0199717l 4.53543, 0.0199717l 4.53543, 0.0199717l 4.53543, 0.0199717l 4.53543, 0.0199717l 4.53543,
 0.0199717l 4.53543, 0.0199717l 4.53543, 0.0199717l 4.53543, 0.0199717l 4.53543, 0.0199717l 4.53543, 0.0199717l 4.53543, 0.0199717l 4.53543, 0.0199717l 4.53543, 0.0199717l 4.53543, 0.0199717l 4.53543, 0.0199717l 4.53543, 0.0199717l 4.53543,
 0.0199717" fill="none" stroke="#0000ff" stroke-width="2"/>
<path d="M503.933,349l 4.53543, 0.0481127" fill="none" stroke="#0000ff" stroke-width="2"/>
<rect x="351.996" y="25.209" width="204.094" height="108.593" fill="white"/>
<path d="M351.996,133.802h 204.094" fill="none" stroke="black" stroke-width="2"/>
<path d="M556.091,133.802v -108.593" fill="none" stroke="black" stroke-width="2"/>
<path d="M556.091,25.209h -204.094" fill="none" stroke="black" stroke-width="2"/>
<path d="M351.996,25.209v 108.593" fill="none" stroke="black" stroke-width="2"/>
<text x="372.869" y="38.6543" fill="black" font-size="12.4258" font-family="Helvetica">
 / ndf 
</text>
<text x="367.715" y="34.7888" fill="black" font-size="8.45054" font-family="Helvetica">
2
</text>
<text x="361.273" y="38.6543" fill="black" font-size="12.4258" font-family="Times">
&#0967;
</text>
<text x="459.197" y="38.6543" fill="black" font-size="12.4258" font-family="Helvetica">
 1.285e+04 / 446
</text>
<text x="361.273" y="56.6929" fill="black" font-size="12.4258" font-family="Helvetica">
Centroid 
</text>
<text x="526.198" y="56.6929" fill="black" font-size="12.4258" font-family="Helvetica">
 0.0
</text>
<text x="519.756" y="56.6929" fill="black" font-size="12.4258" font-family="Times">
&#0177;
</text>
<text x="484.967" y="56.6929" fill="black" font-size="12.4258" font-family="Helvetica">
  5596 
</text>
<text x="361.273" y="74.7316" fill="black" font-size="12.4258" font-family="Helvetica">
FWHM     
</text>
<text x="519.756" y="74.7316" fill="black" font-size="12.4258" font-family="Helvetica">
 0.07
</text>
<text x="513.313" y="74.7316" fill="black" font-size="12.4258" font-family="Times">
&#0177;
</text>
<text x="481.101" y="74.7316" fill="black" font-size="12.4258" font-family="Helvetica">
 21.51 
</text>
<text x="361.273" y="92.7702" fill="black" font-size="12.4258" font-family="Helvetica">
Counts   
</text>
<text x="487.544" y="92.7702" fill="black" font-size="12.4258" font-family="Helvetica">
 3.401e+02
</text>
<text x="481.101" y="92.7702" fill="black" font-size="12.4258" font-family="Times">
&#0177;
</text>
<text x="420.543" y="92.7702" fill="black" font-size="12.4258" font-family="Helvetica">
 1.146e+05 
</text>
<text x="361.273" y="109.52" fill="black" font-size="12.4258" font-family="Helvetica">
Intercept 
</text>
<text x="526.198" y="110.809" fill="black" font-size="12.4258" font-family="Helvetica">
 7.2
</text>
<text x="519.756" y="110.809" fill="black" font-size="12.4258" font-family="Times">
&#0177;
</text>
<text x="484.967" y="110.809" fill="black" font-size="12.4258" font-family="Helvetica">
 489.2 
</text>
<text x="361.273" y="127.559" fill="black" font-size="12.4258" font-family="Helvetica">
Slope    
</text>
<text x="500.428" y="128.848" fill="black" font-size="12.4258" font-family="Helvetica">
 0.00126
</text>
<text x="493.986" y="128.848" fill="black" font-size="12.4258" font-family="Times">
&#0177;
</text>
<text x="450.178" y="128.848" fill="black" font-size="12.4258" font-family="Helvetica">
0.08413 
</text>
<text x="442.447" y="128.848" fill="black" font-size="12.4258" font-family="Times">
&#8722;
</text>
<text x="439.87" y="128.848" fill="black" font-size="12.4258" font-family="Helvetica">
 
</text>
<path d="M57.1929,349.048h 453.543" fill="none" stroke="black" stroke-width="2"/>
<text x="457.909" y="374.946" fill="black" font-size="12.9533" font-family="Helvetica">
Channels
</text>
<path d="M98.3329,339.74v 9.30795" fill="none" stroke="black" stroke-width="2"/>
<path d="M118.401,344.394v 4.65397" fill="none" stroke="black" stroke-width="2"/>
<path d="M138.469,344.394v 4.65397" fill="none" stroke="black" stroke-width="2"/>
<path d="M158.538,344.394v 4.65397" fill="none" stroke="black" stroke-width="2"/>
<path d="M178.606,344.394v 4.65397" fill="none" stroke="black" stroke-width="2"/>
<path d="M198.674,339.74v 9.30795" fill="none" stroke="black" stroke-width="2"/>
<path d="M218.743,344.394v 4.65397" fill="none" stroke="black" stroke-width="2"/>
<path d="M238.811,344.394v 4.65397" fill="none" stroke="black" stroke-width="2"/>
<path d="M258.879,344.394v 4.65397" fill="none" stroke="black" stroke-width="2"/>
<path d="M278.948,344.394v 4.65397" fill="none" stroke="black" stroke-width="2"/>
<path d="M299.016,339.74v 9.30795" fill="none" stroke="black" stroke-width="2"/>
<path d="M319.084,344.394v 4.65397" fill="none" stroke="black" stroke-width="2"/>
<path d="M339.152,344.394v 4.65397" fill="none" stroke="black" stroke-width="2"/>
<path d="M359.221,344.394v 4.65397" fill="none" stroke="black" stroke-width="2"/>
<path d="M379.289,344.394v 4.65397" fill="none" stroke="black" stroke-width="2"/>
<path d="M399.357,339.74v 9.30795" fill="none" stroke="black" stroke-width="2"/>
<path d="M419.426,344.394v 4.65397" fill="none" stroke="black" stroke-width="2"/>
<path d="M439.494,344.394v 4.65397" fill="none" stroke="black" stroke-width="2"/>
<path d="M459.562,344.394v 4.65397" fill="none" stroke="black" stroke-width="2"/>
<path d="M479.63,344.394v 4.65397" fill="none" stroke="black" stroke-width="2"/>
<path d="M499.699,339.74v 9.30795" fill="none" stroke="black" stroke-width="2"/>
<path d="M98.3329,339.74v 9.30795" fill="none" stroke="black" stroke-width="2"/>
<path d="M78.2646,344.394v 4.65397" fill="none" stroke="black" stroke-width="2"/>
<path d="M58.1963,344.394v 4.65397" fill="none" stroke="black" stroke-width="2"/>
<path d="M499.699,339.74v 9.30795" fill="none" stroke="black" stroke-width="2"/>
<text x="82.9624" y="360.773" fill="black" font-size="12.9533" font-family="Helvetica">
5400
</text>
<text x="183.463" y="360.773" fill="black" font-size="12.9533" font-family="Helvetica">
5500
</text>
<text x="283.965" y="360.773" fill="black" font-size="12.9533" font-family="Helvetica">
5600
</text>
<text x="384.466" y="360.773" fill="black" font-size="12.9533" font-family="Helvetica">
5700
</text>
<text x="484.967" y="360.773" fill="black" font-size="12.9533" font-family="Helvetica">
5800
</text>
<path d="M57.1929,349.048v -310.265" fill="none" stroke="black" stroke-width="2"/>
<path d="M70.7992,349.048h -13.6063" fill="none" stroke="black" stroke-width="2"/>
<path d="M63.9961,338.543h -6.80315" fill="none" stroke="black" stroke-width="2"/>
<path d="M63.9961,328.039h -6.80315" fill="none" stroke="black" stroke-width="2"/>
<path d="M63.9961,317.535h -6.80315" fill="none" stroke="black" stroke-width="2"/>
<path d="M63.9961,307.03h -6.80315" fill="none" stroke="black" stroke-width="2"/>
<path d="M70.7992,296.526h -13.6063" fill="none" stroke="black" stroke-width="2"/>
<path d="M63.9961,286.021h -6.80315" fill="none" stroke="black" stroke-width="2"/>
<path d="M63.9961,275.517h -6.80315" fill="none" stroke="black" stroke-width="2"/>
<path d="M63.9961,265.012h -6.80315" fill="none" stroke="black" stroke-width="2"/>
<path d="M63.9961,254.508h -6.80315" fill="none" stroke="black" stroke-width="2"/>
<path d="M70.7992,244.003h -13.6063" fill="none" stroke="black" stroke-width="2"/>
<path d="M63.9961,233.499h -6.80315" fill="none" stroke="black" stroke-width="2"/>
<path d="M63.9961,222.994h -6.80315" fill="none" stroke="black" stroke-width="2"/>
<path d="M63.9961,212.49h -6.80315" fill="none" stroke="black" stroke-width="2"/>
<path d="M63.9961,201.986h -6.80315" fill="none" stroke="black" stroke-width="2"/>
<path d="M70.7992,191.481h -13.6063" fill="none" stroke="black" stroke-width="2"/>
<path d="M63.9961,180.977h -6.80315" fill="none" stroke="black" stroke-width="2"/>
<path d="M63.9961,170.472h -6.80315" fill="none" stroke="black" stroke-width="2"/>
<path d="M63.9961,159.968h -6.80315" fill="none" stroke="black" stroke-width="2"/>
<path d="M63.9961,149.463h -6.80315" fill="none" stroke="black" stroke-width="2"/>
<path d="M70.7992,138.959h -13.6063" fill="none" stroke="black" stroke-width="2"/>
<path d="M63.9961,128.454h -6.80315" fill="none" stroke="black" stroke-width="2"/>
<path d="M63.9961,117.95h -6.80315" fill="none" stroke="black" stroke-width="2"/>
<path d="M63.9961,107.445h -6.80315" fill="none" stroke="black" stroke-width="2"/>
<path d="M63.9961,96.941h -6.80315" fill="none" stroke="black" stroke-width="2"/>
<path d="M70.7992,86.4366h -13.6063" fill="none" stroke="black" stroke-width="2"/>
<path d="M70.7992,86.4366h -13.6063" fill="none" stroke="black" stroke-width="2"/>
<path d="M63.9961,75.9321h -6.80315" fill="none" stroke="black" stroke-width="2"/>
<path d="M63.9961,65.4277h -6.80315" fill="none" stroke="black" stroke-width="2"/>
<path d="M63.9961,54.9232h -6.80315" fill="none" stroke="black" stroke-width="2"/>
<path d="M63.9961,44.4187h -6.80315" fill="none" stroke="black" stroke-width="2"/>
<text x="45.5966" y="353.042" fill="black" font-size="12.9533" font-family="Helvetica">
0
</text>
<text x="24.981" y="301.503" fill="black" font-size="12.9533" font-family="Helvetica">
1000
</text>
<text x="24.981" y="248.676" fill="black" font-size="12.9533" font-family="Helvetica">
2000
</text>
<text x="24.981" y="195.848" fill="black" font-size="12.9533" font-family="Helvetica">
3000
</text>
<text x="24.981" y="143.021" fill="black" font-size="12.9533" font-family="Helvetica">
4000
</text>
<text x="24.981" y="91.4817" fill="black" font-size="12.9533" font-family="Helvetica">
5000
</text>
<rect x="351.996" y="25.209" width="204.094" height="108.593" fill="white"/>
<path d="M351.996,133.802h 204.094" fill="none" stroke="black" stroke-width="2"/>
<path d="M556.091,133.802v -108.593" fill="none" stroke="black" stroke-width="2"/>
<path d="M556.091,25.209h -204.094" fill="none" stroke="black" stroke-width="2"/>
<path d="M351.996,25.209v 108.593" fill="none" stroke="black" stroke-width="2"/>
<text x="372.869" y="38.6543" fill="black" font-size="12.4258" font-family="Helvetica">
 / ndf 
</text>
<text x="367.715" y="34.7888" fill="black" font-size="8.45054" font-family="Helvetica">
2
</text>
<text x="361.273" y="38.6543" fill="black" font-size="12.4258" font-family="Times">
&#0967;
</text>
<text x="459.197" y="38.6543" fill="black" font-size="12.4258" font-family="Helvetica">
 1.285e+04 / 446
</text>
<text x="361.273" y="56.6929" fill="black" font-size="12.4258" font-family="Helvetica">
Centroid 
</text>
<text x="526.198" y="56.6929" fill="black" font-size="12.4258" font-family="Helvetica">
 0.0
</text>
<text x="519.756" y="56.6929" fill="black" font-size="12.4258" font-family="Times">
&#0177;
</text>
<text x="484.967" y="56.6929" fill="black" font-size="12.4258" font-family="Helvetica">
  5596 
</text>
<text x="361.273" y="74.7316" fill="black" font-size="12.4258" font-family="Helvetica">
FWHM     
</text>
<text x="519.756" y="74.7316" fill="black" font-size="12.4258" font-family="Helvetica">
 0.07
</text>
<text x="513.313" y="74.7316" fill="black" font-size="12.4258" font-family="Times">
&#0177;
</text>
<text x="481.101" y="74.7316" fill="black" font-size="12.4258" font-family="Helvetica">
 21.51 
</text>
<text x="361.273" y="92.7702" fill="black" font-size="12.4258" font-family="Helvetica">
Counts   
</text>
<text x="487.544" y="92.7702" fill="black" font-size="12.4258" font-family="Helvetica">
 3.401e+02
</text>
<text x="481.101" y="92.7702" fill="black" font-size="12.4258" font-family="Times">
&#0177;
</text>
<text x="420.543" y="92.7702" fill="black" font-size="12.4258" font-family="Helvetica">
 1.146e+05 
</text>
<text x="361.273" y="109.52" fill="black" font-size="12.4258" font-family="Helvetica">
Intercept 
</text>
<text x="526.198" y="110.809" fill="black" font-size="12.4258" font-family="Helvetica">
 7.2
</text>
<text x="519.756" y="110.809" fill="black" font-size="12.4258" font-family="Times">
&#0177;
</text>
<text x="484.967" y="110.809" fill="black" font-size="12.4258" font-family="Helvetica">
 489.2 
</text>
<text x="361.273" y="127.559" fill="black" font-size="12.4258" font-family="Helvetica">
Slope    
</text>
<text x="500.428" y="128.848" fill="black" font-size="12.4258" font-family="Helvetica">
 0.00126
</text>
<text x="493.986" y="128.848" fill="black" font-size="12.4258" font-family="Times">
&#0177;
</text>
<text x="450.178" y="128.848" fill="black" font-size="12.4258" font-family="Helvetica">
0.08413 
</text>
<text x="442.447" y="128.848" fill="black" font-size="12.4258" font-family="Times">
&#8722;
</text>
<text x="439.87" y="128.848" fill="black" font-size="12.4258" font-family="Helvetica">
 
</text>
<path d="M59.4606,349.048h 195.024l 4.53543, -0.123653l 4.53543, -0.632822l 4.53543, -2.8697l 4.53543, -9.99344l 4.53543, -26.4619l 4.53543, -52.3428" fill="none" stroke="#00ff00" stroke-width="2"/>
<path d="M281.697,256.624l 4.53543, -74.5658l 4.53543, -69.4158l 4.53543, -25.8278l 4.53543, 34.3142l 4.53543, 72.7032l 4.53543, 72.3924l 4.53543, 48.1952l 4.53543, 23.2844l 4.53543, 8.43241l 4.53543, 2.3263l 4.53543, 0.493379l 4.53543, 0.0922974h
 167.811" fill="none" stroke="#00ff00" stroke-width="2"/>
<path d="M503.933,349.048h 4.53543" fill="none" stroke="#00ff00" stroke-width="2"/>
<text x="244.022" y="19.3271" fill="black" font-size="17.134" font-family="Helvetica">
2.2kV.TKA
</text></svg>
