<?xml version="1.0" standalone="no"?>
<svg width="567.429" height="331.118" viewBox="0 0 567.429 331.118" xmlns="http://www.w3.org/2000/svg">
<title>
/home/ADF/hyw543/HPGeEnviro/Elevated/ResolutionVBias/c1.svg
</title>
<desc>
Creator: ROOT Version 6.06/08
CreationDate: Thu Jan 24 19:23:40 2019</desc>
<defs>
</defs>
<rect x="0.5" y="0" width="566.929" height="330.618" fill="white"/>
<rect x="57.1929" y="33.0618" width="453.543" height="264.495" fill="white"/>
<rect x="57.1929" y="33.0618" width="453.543" height="264.495" fill="none" stroke="black"/>
<rect x="57.1929" y="33.0618" width="453.543" height="264.495" fill="white"/>
<rect x="57.1929" y="33.0618" width="453.543" height="264.495" fill="none" stroke="black"/>
<path d="M57.1929,296.733h 0.735078v -0.0823471h 0.735078v 0.247041h 0.735078v -0.329388h 1.47016v -0.0823471h 0.735078v 0.329388h 0.735078v -0.576429h 0.735078v 0.576429h 0.735078v -0.535256h 0.735078v 0.288215h 0.735078v 0.329388h 0.735078v
 0.205868h 0.735078v -0.205868h 1.47016v 0.0411735h 0.735078v -0.0411735h 0.735078v 0.0411735h 0.735078v 0.0411735h 0.735078v -0.205868h 0.735078v 0.123521h 0.735078v -0.205868h 0.735078v 0.205868h 0.735078v -0.123521h 0.735078v 0.205868h 0.735078v
 0.0411735h 0.735078v -0.205868h 0.735078v -0.123521h 0.735078v 0.0823471h 0.735078v -0.123521h 0.735078v 0.452909h 0.735078v -0.329388h 0.735078v 0.288215h 0.735078v -0.0823471h 0.735078v -0.0411735h 0.735078v -0.0823471h 1.47016v 0.329388h
 0.735078v -0.576429h 0.735078v 0.329388h 0.735078v -0.123521h 0.735078v 0.123521h 0.735078v -0.247041h 0.735078v -0.0411735h 0.735078v 0.411735h 0.735078v 0.0411735h 0.735078v -0.535256h 0.735078v 0.0823471h 1.47016v 0.123521h 0.735078v 0.288215h
 0.735078v -0.452909h 0.735078v 0.288215h 0.735078v 0.205868h 0.735078v -0.0823471h 0.735078v -0.452909h 0.735078v 0.329388h 0.735078v 0.0411735h 0.735078v -0.164694h 0.735078v 0.0411735h 0.735078v -0.0411735h 0.735078v 0.288215h 0.735078v -0.164694h
 0.735078v -0.164694h 0.735078v 0.123521h 1.47016v -0.164694h 0.735078v 0.0411735h 0.735078v 0.288215h 1.47016v -0.576429h 0.735078v 0.576429h 0.735078v -0.0823471h 0.735078v -0.123521h 0.735078v 0.164694h 0.735078v -0.164694h 0.735078v -0.0411735h
 0.735078v -0.123521h 0.735078v 0.494082h 0.735078v -0.164694h 0.735078v -0.205868h 0.735078v -0.164694h 0.735078v 0.370562h 0.735078v -0.0411735h 0.735078v 0.0411735h 0.735078v -0.247041h 1.47016v -0.0823471h 0.735078v -0.247041h 0.735078v 0.370562h
 0.735078v 0.247041h 0.735078v -0.0823471h 0.735078v 0.0411735h 0.735078v -0.0411735h 1.47016v -0.0823471h 0.735078v -0.0823471h 0.735078v 0.0823471h 0.735078v 0.0823471h 0.735078v -0.0823471h 1.47016v 0.0823471h 0.735078v 0.123521h 0.735078v
 -0.0411735h 0.735078v -0.576429h 0.735078v 0.576429h 0.735078v -0.123521h 0.735078v 0.247041h 0.735078v -0.329388h 0.735078v -0.0823471h 0.735078v 0.123521h 0.735078v -0.123521h 0.735078v 0.0823471h 0.735078v -0.0411735h 0.735078v 0.205868h
 0.735078v -0.288215h 0.735078v 0.123521h 0.735078v 0.0411735h 1.47016v 0.288215h 0.735078v -0.288215h 0.735078v 0.0411735h 1.47016v 0.164694h 0.735078v -0.123521h 0.735078v -0.494082h 0.735078v 0.452909h 0.735078v -0.123521h 0.735078v -0.0411735h
 0.735078v -0.0823471h 0.735078v 0.0823471h 1.47016v 0.164694h 0.735078v -0.164694h 0.735078v 0.0823471h 0.735078v 0.247041h 0.735078v -0.329388h 0.735078v 0.164694h 0.735078v -0.0823471h 0.735078v 0.0411735h 1.47016v 0.247041h 0.735078v -0.452909h
 0.735078v -0.0411735h 0.735078v 0.0823471h 0.735078v 0.123521h 0.735078v 0.0411735h 0.735078v 0.0823471h 0.735078v -0.411735h 0.735078v 0.411735h 0.735078v 0.0411735h 0.735078v -0.0823471h 0.735078v 0.0823471h 0.735078v 0.0823471h 0.735078v
 -0.164694h 0.735078v -0.411735h 0.735078v 0.370562h 0.735078v 0.0823471h 0.735078v -0.452909h 0.735078v 0.247041h 0.735078v -0.0823471h 0.735078v 0.164694h 0.735078v 0.0823471h 0.735078v -0.164694h 0.735078v -0.205868h 0.735078v 0.0411735h 0.735078v
 -0.0823471h 0.735078v 0.0823471h 0.735078v 0.164694h 0.735078v 0.0823471h 0.735078v 0.205868h 0.735078v -0.411735h 1.47016v -0.205868h 0.735078v 0.288215h 0.735078v 0.0411735h 0.735078v 0.205868h 0.735078v -0.329388h 0.735078v 0.0823471h 0.735078v
 -0.0411735h 0.735078v -0.288215h 0.735078v 0.164694h 0.735078v 0.370562h 0.735078v -0.0823471h 0.735078v -0.247041h 0.735078v 0.123521h 0.735078v 0.123521h 0.735078v -0.494082h 0.735078v 0.452909h 0.735078v -0.247041h 0.735078v 0.288215h 0.735078v
 0.0411735h 0.735078v -0.123521h 0.735078v -0.411735h 0.735078v 0.164694h 1.47016v -0.0823471h 0.735078v 0.123521h 0.735078v 0.370562h 0.735078v -0.205868h 0.735078v 0.411735h 0.735078v -0.164694h 0.735078v -0.0823471h 0.735078v -0.0823471h 0.735078v
 -0.164694h 0.735078v 0.164694h 0.735078v -0.205868h 0.735078v -0.123521h 0.735078v 0.123521h 0.735078v -0.329388h 0.735078v 0.329388h 0.735078v -0.411735h 0.735078v 0.535256h 1.47016v -0.452909h 0.735078v 0.329388h 0.735078v 0.123521h 0.735078v
 -0.329388h 0.735078v 0.0411735h 0.735078v 0.164694h 0.735078v -0.576429h 0.735078v 0.658777h 0.735078v -0.411735h 0.735078v 0.247041h 0.735078v 0.0411735h 0.735078v -0.329388h 0.735078v 0.329388h 0.735078v -0.247041h 0.735078v 0.205868h 0.735078v
 0.452909h 0.735078v -1.11169h 0.735078v 0.247041h 0.735078v 0.452909h 0.735078v -0.0411735h 0.735078v -0.411735h 0.735078v 0.411735h 0.735078v -0.370562h 0.735078v 0.452909h 0.735078v -0.205868h 0.735078v 0.0411735h 0.735078v -0.164694h 0.735078v
 -0.205868h 0.735078v 0.535256h 0.735078v -0.205868h 0.735078v 0.123521h 0.735078v -0.0823471h 0.735078v -0.123521h 0.735078v 0.0823471h 0.735078v 0.123521h 0.735078v -0.617603h 0.735078v 0.411735h 0.735078v 0.205868h 0.735078v -0.370562h 0.735078v
 -0.0411735h 0.735078v 0.0411735h 0.735078v -0.0823471h 0.735078v 0.452909h 0.735078v -0.0411735h 0.735078v -0.452909h 0.735078v -0.0411735h 0.735078v 0.164694h 0.735078v -0.164694h 0.735078v 0.494082h 0.735078v 0.0823471h 0.735078v -0.411735h
 0.735078v 0.288215h 0.735078v -0.823471h 0.735078v 0.617603h 0.735078v 0.0823471h 0.735078v -0.535256h 0.735078v -0.247041h 0.735078v 0.658777h 0.735078v -0.535256h 0.735078v 0.247041h 0.735078v -0.0411735h 1.47016v -0.329388h 0.735078v 0.576429h
 0.735078v -0.617603h 0.735078v 0.452909h 0.735078v -0.205868h 0.735078v 0.411735h 0.735078v -0.0823471h 0.735078v -0.205868h 0.735078v -0.370562h 0.735078v 0.329388h 0.735078v -0.247041h 0.735078v 0.411735h 0.735078v -0.452909h 0.735078v -0.247041h
 1.47016v 0.0823471h 0.735078v -0.205868h 0.735078v 0.329388h 0.735078v 0.823471h 0.735078v -0.864644h 0.735078v -0.288215h 0.735078v 0.494082h 0.735078v -0.69995h 0.735078v 0.823471h 1.47016v -0.452909h 0.735078v -0.0411735h 0.735078v -0.0823471h
 0.735078v -0.0411735h 0.735078v -0.0823471h 0.735078v -0.370562h 0.735078v 0.164694h 0.735078v 0.205868h 0.735078v -0.205868h 0.735078v 0.329388h 0.735078v -0.0823471h 0.735078v -0.164694h 0.735078v 0.123521h 0.735078v -0.247041h 0.735078v
 -0.329388h 0.735078v -0.205868h 0.735078v -0.164694h 0.735078v 0.576429h 0.735078v -0.288215h 0.735078v -0.0411735h 0.735078v -0.123521h 0.735078v -0.452909h 0.735078v 0.0823471h 0.735078v -0.0823471h 0.735078v 0.288215h 0.735078v -0.576429h
 0.735078v 0.164694h 0.735078v 0.123521h 0.735078v 0.0411735h 0.735078v -0.69995h 0.735078v -0.123521h 0.735078v 0.0823471h 0.735078v -0.205868h 0.735078v -0.205868h 0.735078v 0.452909h 0.735078v -0.370562h 0.735078v -0.370562h 0.735078v -0.329388h
 0.735078v 0.0823471h 0.735078v -0.617603h 0.735078v 0.69995h 0.735078v -0.0411735h 0.735078v -1.35873h 0.735078v -0.329388h 0.735078v -0.946991h 0.735078v 0.370562h 0.735078v -0.329388h 0.735078v -0.823471h 0.735078v -0.782297h 1.47016v -0.905818h
 0.735078v 0.658777h 0.735078v -0.988165h 0.735078v 0.576429h 0.735078v -1.52342h 0.735078v -1.93516h 0.735078v -0.617603h 0.735078v -2.1822h 0.735078v 0.329388h 0.735078v -3.95266h 0.735078v -0.0823471h 0.735078v -1.93516h 0.735078v -4.8173h
 0.735078v -6.05251h 0.735078v -2.55276h 0.735078v -5.84664h 0.735078v -6.54659h 0.735078v -11.158h 0.735078v -7.53476h 0.735078v -15.1519h 0.735078v -14.5343h 0.735078v -12.2285h 0.735078v -19.4339h 0.735078v -18.4869h 0.735078v -20.2574h 0.735078v
 -19.4751h 0.735078v -15.6871h 0.735078v -27.051h 0.735078v -1.35873h 0.735078v -16.3459h 0.735078v -0.741124h 0.735078v -4.48792h 0.735078v 0.946991h 0.735078v 11.6521h 0.735078v 20.9162h 0.735078v 10.6639h 0.735078v 23.5513h 0.735078v 17.5811h
 0.735078v 20.6279h 0.735078v 23.7983h 0.735078v 12.3521h 0.735078v 24.1689h 0.735078v 11.9403h 0.735078v 12.9697h 0.735078v 9.22287h 0.735078v 8.81114h 0.735078v 5.14669h 0.735078v 5.64077h 0.735078v 3.82914h 0.735078v 2.42924h 0.735078v 3.00567h
 0.735078v 0.988165h 0.735078v 2.92332h 0.735078v -1.93516h 0.735078v 0.123521h 0.735078v 2.22337h 0.735078v 2.71745h 0.735078v 0.164694h 0.735078v 1.11169h 0.735078v 0.782297h 0.735078v -0.247041h 0.735078v 1.85281h 0.735078v -1.31755h 0.735078v
 1.02934h 0.735078v 1.56459h 0.735078v -1.89398h 0.735078v 1.97633h 0.735078v -0.0823471h 0.735078v 0.69995h 0.735078v 0.988165h 0.735078v 1.3999h 0.735078v 0.164694h 0.735078v -1.81164h 0.735078v 2.51159h 0.735078v 0.288215h 0.735078v -0.864644h
 0.735078v 1.07051h 0.735078v 0.288215h 0.735078v 0.0411735h 0.735078v 0.905818h 0.735078v 0.0411735h 0.735078v -0.658777h 0.735078v 1.52342h 0.735078v -0.411735h 0.735078v 0.411735h 0.735078v -0.288215h 0.735078v 0.741124h 0.735078v 0.0823471h
 0.735078v 0.452909h 0.735078v 0.247041h 0.735078v -0.0823471h 0.735078v 0.123521h 0.735078v 0.535256h 0.735078v -0.123521h 0.735078v 0.0823471h 0.735078v 0.0823471h 0.735078v 0.370562h 0.735078v 0.205868h 0.735078v -0.0411735h 0.735078v 0.494082h
 0.735078v -0.247041h 0.735078v 0.69995h 0.735078v -0.370562h 0.735078v 0.164694h 0.735078v -0.0823471h 0.735078v -0.494082h 0.735078v 0.823471h 0.735078v 0.123521h 0.735078v -0.494082h 0.735078v 0.288215h 0.735078v 0.411735h 0.735078v -0.288215h
 0.735078v 0.0411735h 0.735078v 0.0411735h 0.735078v 0.0411735h 0.735078v 0.0823471h 0.735078v -0.164694h 0.735078v -0.164694h 0.735078v 0.247041h 0.735078v 0.164694h 0.735078v -0.0411735h 0.735078v 0.205868h 0.735078v -0.247041h 0.735078v 0.288215h
 0.735078v -0.247041h 0.735078v -0.123521h 0.735078v 0.370562h 0.735078v -0.123521h 0.735078v 0.0411735h 0.735078v 0.0411735h 0.735078v -0.0411735h 0.735078v -0.205868h 0.735078v 0.0823471h 0.735078v 0.0823471h 0.735078v -0.0823471h 0.735078v
 0.0823471h 0.735078v 0.0411735h 1.47016v 0.0411735h 0.735078v -0.0823471h 0.735078v 0.0823471h 0.735078v 0.0411735h 0.735078v -0.247041h 0.735078v 0.0411735h 1.47016v 0.0823471h 0.735078v 0.0823471h 0.735078v -0.247041h 0.735078v 0.411735h 0.735078v
 -0.0411735h 0.735078v -0.0411735h 0.735078v -0.0411735h 1.47016v 0.0411735h 1.47016v -0.0411735h 0.735078v -0.0823471h 0.735078v -0.164694h 0.735078v 0.370562h 0.735078v -0.0823471h 1.47016v 0.0411735h 0.735078v -0.0823471h 1.47016v -0.123521h
 0.735078v 0.247041h 0.735078v -0.205868h 0.735078v 0.164694h 0.735078v 0.0411735h 0.735078v -0.164694h 0.735078v -0.0411735h 0.735078v 0.0411735h 0.735078v 0.0823471h 2.20523v -0.123521h 0.735078v 0.164694h 0.735078v -0.0823471h 0.735078v
 -0.0411735h 0.735078v 0.0823471h 0.735078v 0.0411735h 0.735078v -0.205868h 0.735078v 0.164694h 2.20523v -0.123521h 0.735078v 0.164694h 0.735078v 0.0823471h 0.735078v -0.0823471h 0.735078v 0.0411735h 0.735078v -0.370562h 0.735078v 0.329388h 0.735078v
 -0.0823471h 0.735078v 0.0411735h 1.47016v -0.247041h 0.735078v 0.205868h 0.735078v -0.123521h 0.735078v 0.123521h 0.735078v 0.0823471h 0.735078v -0.0411735h 0.735078v -0.0823471h 0.735078v 0.123521h 1.47016v -0.0823471h 0.735078v 0.0823471h
 0.735078v -0.205868h 0.735078v 0.164694h 0.735078v -0.164694h 0.735078v 0.0823471h 2.20523v 0.0823471h 0.735078v 0.0823471h 0.735078v -0.288215h 0.735078v 0.123521h 0.735078v 0.0823471h 0.735078v -0.0411735h 0.735078v -0.0411735h 0.735078v 0.123521h
 0.735078v -0.0411735h 0.735078v 0.0823471h 0.735078v -0.164694h 0.735078v 0.0411735h 1.47016v 0.0411735h 0.735078v -0.0823471h 0.735078v 0.0823471h 0.735078v -0.0411735h 0.735078v -0.123521h 0.735078v 0.0411735h 0.735078v 0.164694h 1.47016v
 -0.0823471h 0.735078v 0.0411735h 0.735078v 0.0411735h 0.735078v -0.0823471h 0.735078v 0.0411735h 0.735078v 0.0411735h 0.735078v -0.123521h 0.735078v -0.0411735h 0.735078v 0.164694h 0.735078v -0.205868h 0.735078v 0.205868h 1.47016v -0.0411735h
 0.735078v 0.0411735h 1.47016v 0.0411735h 0.735078v -0.0823471h 0.735078v -0.123521h 1.47016v 0.0823471h 0.735078v 0.0823471h 1.47016v -0.205868h 0.735078v 0.0411735h 0.735078v 0.164694h 1.47016v -0.123521h 0.735078v -0.0411735h 0.735078v 0.0411735h
 0.735078v 0.0823471h 0.735078v -0.123521h 0.735078v 0.0823471h 0.735078v 0.0823471h 0.735078" fill="none" stroke="#ff0000" stroke-width="2"/>
<path d="M59.4606,296.492l 4.53543, 0.00962065l 4.53543, 0.00962065l 4.53543, 0.00962065l 4.53543, 0.00962065l 4.53543, 0.00962065l 4.53543, 0.00962065l 4.53543, 0.00962065l 4.53543, 0.00962065l 4.53543, 0.00962065l 4.53543, 0.00962065l 4.53543,
 0.00962065l 4.53543, 0.00962065l 4.53543, 0.00962065l 4.53543, 0.00962065l 4.53543, 0.00962065l 4.53543, 0.00962065l 4.53543, 0.00962065l 4.53543, 0.00962065l 4.53543, 0.00962065l 4.53543, 0.00962065l 4.53543, 0.00962065l 4.53543, 0.00962065l
 4.53543, 0.00962065l 4.53543, 0.00962065l 4.53543, 0.00962065l 4.53543, 0.00962065l 4.53543, 0.00962065l 4.53543, 0.00962065l 4.53543, 0.00962065l 4.53543, 0.00962065l 4.53543, 0.00962065l 4.53543, 0.00962065l 4.53543, 0.00962065l 4.53543,
 0.00962065l 4.53543, 0.00962065l 4.53543, 0.00962065l 4.53543, 0.00962065l 4.53543, 0.00962065l 4.53543, 0.00962065l 4.53543, 0.00962065l 4.53543, 0.00962065l 4.53543, 0.00962065l 4.53543, 0.00962065l 4.53543, 0.00962065l 4.53543, 0.00962065l
 4.53543, 0.00962065l 4.53543, 0.00962065l 4.53543, 0.00962065l 4.53543, 0.00962065" fill="none" stroke="#0000ff" stroke-width="2"/>
<path d="M281.697,296.963l 4.53543, 0.00962065l 4.53543, 0.00962065l 4.53543, 0.00962059l 4.53543, 0.00961555l 4.53543, 0.00935938l 4.53543, 0.00155663l 4.53543, -0.139986l 4.53543, -1.64818l 4.53543, -10.8329l 4.53543, -40.8442l 4.53543, -83.6558l
 4.53543, -76.0525l 4.53543, 12.2442l 4.53543, 86.12l 4.53543, 75.0802l 4.53543, 31.4634l 4.53543, 7.31322l 4.53543, 0.994019l 4.53543, 0.0882107l 4.53543, 0.0133752l 4.53543, 0.00972858l 4.53543, 0.00962253l 4.53543, 0.00962067l 4.53543, 0.00962065l
 4.53543, 0.00962065l 4.53543, 0.00962065l 4.53543, 0.00962065l 4.53543, 0.00962065l 4.53543, 0.00962065l 4.53543, 0.00962065l 4.53543, 0.00962065l 4.53543, 0.00962065l 4.53543, 0.00962065l 4.53543, 0.00962065l 4.53543, 0.00962065l 4.53543,
 0.00962065l 4.53543, 0.00962065l 4.53543, 0.00962065l 4.53543, 0.00962065l 4.53543, 0.00962065l 4.53543, 0.00962065l 4.53543, 0.00962065l 4.53543, 0.00962065l 4.53543, 0.00962065l 4.53543, 0.00962065l 4.53543, 0.00962065l 4.53543, 0.00962065l
 4.53543, 0.00962065l 4.53543, 0.00962065" fill="none" stroke="#0000ff" stroke-width="2"/>
<path d="M503.933,297.435l 4.53543, 0.00962065" fill="none" stroke="#0000ff" stroke-width="2"/>
<rect x="351.996" y="21.4902" width="204.094" height="92.5731" fill="white"/>
<path d="M351.996,114.063h 204.094" fill="none" stroke="black" stroke-width="2"/>
<path d="M556.091,114.063v -92.5731" fill="none" stroke="black" stroke-width="2"/>
<path d="M556.091,21.4902h -204.094" fill="none" stroke="black" stroke-width="2"/>
<path d="M351.996,21.4902v 92.5731" fill="none" stroke="black" stroke-width="2"/>
<text x="372.31" y="32.5198" fill="black" font-size="12.4054" font-family="Helvetica">
 / ndf 
</text>
<text x="367.974" y="28.1839" fill="black" font-size="8.43693" font-family="Helvetica">
2
</text>
<text x="361.47" y="32.5198" fill="black" font-size="12.4054" font-family="Times">
&#0967;
</text>
<text x="459.03" y="33.6038" fill="black" font-size="12.4054" font-family="Helvetica">
 1.637e+04 / 611
</text>
<text x="361.47" y="49.8637" fill="black" font-size="12.4054" font-family="Helvetica">
Centroid 
</text>
<text x="526.237" y="48.7798" fill="black" font-size="12.4054" font-family="Helvetica">
 0.0
</text>
<text x="519.733" y="48.7798" fill="black" font-size="12.4054" font-family="Times">
&#0177;
</text>
<text x="485.046" y="48.7798" fill="black" font-size="12.4054" font-family="Helvetica">
  5597 
</text>
<text x="361.47" y="65.0397" fill="black" font-size="12.4054" font-family="Helvetica">
FWHM     
</text>
<text x="528.405" y="63.9557" fill="black" font-size="12.4054" font-family="Helvetica">
 0.1
</text>
<text x="521.901" y="63.9557" fill="black" font-size="12.4054" font-family="Times">
&#0177;
</text>
<text x="490.466" y="63.9557" fill="black" font-size="12.4054" font-family="Helvetica">
  20.5 
</text>
<text x="361.47" y="80.2156" fill="black" font-size="12.4054" font-family="Helvetica">
Counts   
</text>
<text x="487.214" y="79.1316" fill="black" font-size="12.4054" font-family="Helvetica">
 3.436e+02
</text>
<text x="480.71" y="79.1316" fill="black" font-size="12.4054" font-family="Times">
&#0177;
</text>
<text x="420.006" y="79.1316" fill="black" font-size="12.4054" font-family="Helvetica">
 1.175e+05 
</text>
<text x="361.47" y="94.3075" fill="black" font-size="12.4054" font-family="Helvetica">
Intercept 
</text>
<text x="526.237" y="94.3075" fill="black" font-size="12.4054" font-family="Helvetica">
 3.9
</text>
<text x="519.733" y="94.3075" fill="black" font-size="12.4054" font-family="Times">
&#0177;
</text>
<text x="485.046" y="94.3075" fill="black" font-size="12.4054" font-family="Helvetica">
 223.5 
</text>
<text x="361.47" y="110.567" fill="black" font-size="12.4054" font-family="Helvetica">
Slope    
</text>
<text x="500.221" y="110.567" fill="black" font-size="12.4054" font-family="Helvetica">
 0.00068
</text>
<text x="493.717" y="110.567" fill="black" font-size="12.4054" font-family="Times">
&#0177;
</text>
<text x="448.19" y="110.567" fill="black" font-size="12.4054" font-family="Helvetica">
0.03787 
</text>
<text x="441.686" y="110.567" fill="black" font-size="12.4054" font-family="Times">
&#8722;
</text>
<text x="439.518" y="110.567" fill="black" font-size="12.4054" font-family="Helvetica">
 
</text>
<path d="M57.1929,297.556h 453.543" fill="none" stroke="black" stroke-width="2"/>
<text x="465.534" y="319.778" fill="black" font-size="11.1162" font-family="Helvetica">
Channels
</text>
<path d="M193.182,289.622v 7.93484" fill="none" stroke="black" stroke-width="2"/>
<path d="M229.936,293.589v 3.96742" fill="none" stroke="black" stroke-width="2"/>
<path d="M266.69,293.589v 3.96742" fill="none" stroke="black" stroke-width="2"/>
<path d="M303.444,293.589v 3.96742" fill="none" stroke="black" stroke-width="2"/>
<path d="M340.198,289.622v 7.93484" fill="none" stroke="black" stroke-width="2"/>
<path d="M376.952,293.589v 3.96742" fill="none" stroke="black" stroke-width="2"/>
<path d="M413.706,293.589v 3.96742" fill="none" stroke="black" stroke-width="2"/>
<path d="M450.46,293.589v 3.96742" fill="none" stroke="black" stroke-width="2"/>
<path d="M487.214,289.622v 7.93484" fill="none" stroke="black" stroke-width="2"/>
<path d="M193.182,289.622v 7.93484" fill="none" stroke="black" stroke-width="2"/>
<path d="M156.428,293.589v 3.96742" fill="none" stroke="black" stroke-width="2"/>
<path d="M119.675,293.589v 3.96742" fill="none" stroke="black" stroke-width="2"/>
<path d="M82.9207,293.589v 3.96742" fill="none" stroke="black" stroke-width="2"/>
<path d="M487.214,289.622v 7.93484" fill="none" stroke="black" stroke-width="2"/>
<text x="180.443" y="307.854" fill="black" font-size="11.1162" font-family="Helvetica">
5400
</text>
<text x="327.866" y="307.854" fill="black" font-size="11.1162" font-family="Helvetica">
5600
</text>
<text x="475.29" y="307.854" fill="black" font-size="11.1162" font-family="Helvetica">
5800
</text>
<path d="M57.1929,297.556v -264.495" fill="none" stroke="black" stroke-width="2"/>
<path d="M70.7992,297.556h -13.6063" fill="none" stroke="black" stroke-width="2"/>
<path d="M63.9961,289.322h -6.80315" fill="none" stroke="black" stroke-width="2"/>
<path d="M63.9961,281.087h -6.80315" fill="none" stroke="black" stroke-width="2"/>
<path d="M63.9961,272.852h -6.80315" fill="none" stroke="black" stroke-width="2"/>
<path d="M63.9961,264.618h -6.80315" fill="none" stroke="black" stroke-width="2"/>
<path d="M70.7992,256.383h -13.6063" fill="none" stroke="black" stroke-width="2"/>
<path d="M63.9961,248.148h -6.80315" fill="none" stroke="black" stroke-width="2"/>
<path d="M63.9961,239.914h -6.80315" fill="none" stroke="black" stroke-width="2"/>
<path d="M63.9961,231.679h -6.80315" fill="none" stroke="black" stroke-width="2"/>
<path d="M63.9961,223.444h -6.80315" fill="none" stroke="black" stroke-width="2"/>
<path d="M70.7992,215.209h -13.6063" fill="none" stroke="black" stroke-width="2"/>
<path d="M63.9961,206.975h -6.80315" fill="none" stroke="black" stroke-width="2"/>
<path d="M63.9961,198.74h -6.80315" fill="none" stroke="black" stroke-width="2"/>
<path d="M63.9961,190.505h -6.80315" fill="none" stroke="black" stroke-width="2"/>
<path d="M63.9961,182.271h -6.80315" fill="none" stroke="black" stroke-width="2"/>
<path d="M70.7992,174.036h -13.6063" fill="none" stroke="black" stroke-width="2"/>
<path d="M63.9961,165.801h -6.80315" fill="none" stroke="black" stroke-width="2"/>
<path d="M63.9961,157.566h -6.80315" fill="none" stroke="black" stroke-width="2"/>
<path d="M63.9961,149.332h -6.80315" fill="none" stroke="black" stroke-width="2"/>
<path d="M63.9961,141.097h -6.80315" fill="none" stroke="black" stroke-width="2"/>
<path d="M70.7992,132.862h -13.6063" fill="none" stroke="black" stroke-width="2"/>
<path d="M63.9961,124.628h -6.80315" fill="none" stroke="black" stroke-width="2"/>
<path d="M63.9961,116.393h -6.80315" fill="none" stroke="black" stroke-width="2"/>
<path d="M63.9961,108.158h -6.80315" fill="none" stroke="black" stroke-width="2"/>
<path d="M63.9961,99.9235h -6.80315" fill="none" stroke="black" stroke-width="2"/>
<path d="M70.7992,91.6888h -13.6063" fill="none" stroke="black" stroke-width="2"/>
<path d="M63.9961,83.4541h -6.80315" fill="none" stroke="black" stroke-width="2"/>
<path d="M63.9961,75.2194h -6.80315" fill="none" stroke="black" stroke-width="2"/>
<path d="M63.9961,66.9847h -6.80315" fill="none" stroke="black" stroke-width="2"/>
<path d="M63.9961,58.75h -6.80315" fill="none" stroke="black" stroke-width="2"/>
<path d="M70.7992,50.5153h -13.6063" fill="none" stroke="black" stroke-width="2"/>
<path d="M70.7992,50.5153h -13.6063" fill="none" stroke="black" stroke-width="2"/>
<path d="M63.9961,42.2806h -6.80315" fill="none" stroke="black" stroke-width="2"/>
<path d="M63.9961,34.0459h -6.80315" fill="none" stroke="black" stroke-width="2"/>
<text x="47.1118" y="301.35" fill="black" font-size="11.1162" font-family="Helvetica">
0
</text>
<text x="29.7679" y="260.159" fill="black" font-size="11.1162" font-family="Helvetica">
1000
</text>
<text x="29.7679" y="218.967" fill="black" font-size="11.1162" font-family="Helvetica">
2000
</text>
<text x="29.7679" y="177.775" fill="black" font-size="11.1162" font-family="Helvetica">
3000
</text>
<text x="29.7679" y="136.583" fill="black" font-size="11.1162" font-family="Helvetica">
4000
</text>
<text x="29.7679" y="95.3915" fill="black" font-size="11.1162" font-family="Helvetica">
5000
</text>
<text x="29.7679" y="54.1997" fill="black" font-size="11.1162" font-family="Helvetica">
6000
</text>
<rect x="351.996" y="21.4902" width="204.094" height="92.5731" fill="white"/>
<path d="M351.996,114.063h 204.094" fill="none" stroke="black" stroke-width="2"/>
<path d="M556.091,114.063v -92.5731" fill="none" stroke="black" stroke-width="2"/>
<path d="M556.091,21.4902h -204.094" fill="none" stroke="black" stroke-width="2"/>
<path d="M351.996,21.4902v 92.5731" fill="none" stroke="black" stroke-width="2"/>
<text x="372.31" y="32.5198" fill="black" font-size="12.4054" font-family="Helvetica">
 / ndf 
</text>
<text x="367.974" y="28.1839" fill="black" font-size="8.43693" font-family="Helvetica">
2
</text>
<text x="361.47" y="32.5198" fill="black" font-size="12.4054" font-family="Times">
&#0967;
</text>
<text x="459.03" y="33.6038" fill="black" font-size="12.4054" font-family="Helvetica">
 1.637e+04 / 611
</text>
<text x="361.47" y="49.8637" fill="black" font-size="12.4054" font-family="Helvetica">
Centroid 
</text>
<text x="526.237" y="48.7798" fill="black" font-size="12.4054" font-family="Helvetica">
 0.0
</text>
<text x="519.733" y="48.7798" fill="black" font-size="12.4054" font-family="Times">
&#0177;
</text>
<text x="485.046" y="48.7798" fill="black" font-size="12.4054" font-family="Helvetica">
  5597 
</text>
<text x="361.47" y="65.0397" fill="black" font-size="12.4054" font-family="Helvetica">
FWHM     
</text>
<text x="528.405" y="63.9557" fill="black" font-size="12.4054" font-family="Helvetica">
 0.1
</text>
<text x="521.901" y="63.9557" fill="black" font-size="12.4054" font-family="Times">
&#0177;
</text>
<text x="490.466" y="63.9557" fill="black" font-size="12.4054" font-family="Helvetica">
  20.5 
</text>
<text x="361.47" y="80.2156" fill="black" font-size="12.4054" font-family="Helvetica">
Counts   
</text>
<text x="487.214" y="79.1316" fill="black" font-size="12.4054" font-family="Helvetica">
 3.436e+02
</text>
<text x="480.71" y="79.1316" fill="black" font-size="12.4054" font-family="Times">
&#0177;
</text>
<text x="420.006" y="79.1316" fill="black" font-size="12.4054" font-family="Helvetica">
 1.175e+05 
</text>
<text x="361.47" y="94.3075" fill="black" font-size="12.4054" font-family="Helvetica">
Intercept 
</text>
<text x="526.237" y="94.3075" fill="black" font-size="12.4054" font-family="Helvetica">
 3.9
</text>
<text x="519.733" y="94.3075" fill="black" font-size="12.4054" font-family="Times">
&#0177;
</text>
<text x="485.046" y="94.3075" fill="black" font-size="12.4054" font-family="Helvetica">
 223.5 
</text>
<text x="361.47" y="110.567" fill="black" font-size="12.4054" font-family="Helvetica">
Slope    
</text>
<text x="500.221" y="110.567" fill="black" font-size="12.4054" font-family="Helvetica">
 0.00068
</text>
<text x="493.717" y="110.567" fill="black" font-size="12.4054" font-family="Times">
&#0177;
</text>
<text x="448.19" y="110.567" fill="black" font-size="12.4054" font-family="Helvetica">
0.03787 
</text>
<text x="441.686" y="110.567" fill="black" font-size="12.4054" font-family="Times">
&#8722;
</text>
<text x="439.518" y="110.567" fill="black" font-size="12.4054" font-family="Helvetica">
 
</text>
<path d="M59.4606,297.556h 222.236" fill="none" stroke="#00ff00" stroke-width="2"/>
<path d="M281.697,297.556h 27.2126l 4.53543, -0.157937l 4.53543, -1.6578l 4.53543, -10.8426l 4.53543, -40.8538l 4.53543, -83.6655l 4.53543, -76.0622l 4.53543, 12.2346l 4.53543, 86.1104l 4.53543, 75.0706l 4.53543, 31.4538l 4.53543, 7.3036l 4.53543,
 0.984398l 4.53543, 0.0824544h 136.063" fill="none" stroke="#00ff00" stroke-width="2"/>
<path d="M503.933,297.556h 4.53543" fill="none" stroke="#00ff00" stroke-width="2"/>
<text x="249.819" y="16.2599" fill="black" font-size="14.6802" font-family="Helvetica">
2.4kV.TKA
</text></svg>
