<?xml version="1.0" standalone="no"?>
<svg width="567.429" height="289.97" viewBox="0 0 567.429 289.97" xmlns="http://www.w3.org/2000/svg">
<title>
/home/ADF/hyw543/HPGeEnviro/Elevated/ResolutionVBias/c1.svg
</title>
<desc>
Creator: ROOT Version 6.06/08
CreationDate: Thu Jan 24 19:24:21 2019</desc>
<defs>
</defs>
<rect x="0.5" y="0" width="566.929" height="289.47" fill="white"/>
<rect x="57.1929" y="28.947" width="453.543" height="231.576" fill="white"/>
<rect x="57.1929" y="28.947" width="453.543" height="231.576" fill="none" stroke="black"/>
<rect x="57.1929" y="28.947" width="453.543" height="231.576" fill="white"/>
<rect x="57.1929" y="28.947" width="453.543" height="231.576" fill="none" stroke="black"/>
<path d="M57.1929,259.881h 1.424v 0.0337799h 0.711999v -0.0675597h 0.711999v 0.0675597h 0.711999v 0.135119h 0.711999v -0.0337799h 0.711999v -0.0675597h 0.711999v -0.0337799h 0.711999v -0.574258h 0.711999v 0.709377h 0.711999v -0.10134h 0.711999v
 0.0337799h 0.711999v 0.0337799h 0.711999v -0.0675597h 0.711999v -0.439138h 0.711999v 0.439138h 0.711999v -0.337799h 0.711999v 0.439138h 0.711999v -0.236459h 0.711999v 0.10134h 0.711999v -0.236459h 0.711999v 0.10134h 1.424v -0.168899h 0.711999v
 0.337799h 0.711999v 0.135119h 0.711999v -0.371578h 0.711999v 0.337799h 0.711999v 0.0675597h 0.711999v -0.439138h 0.711999v 0.608037h 0.711999v -0.270239h 1.424v -0.168899h 0.711999v 0.270239h 0.711999v -0.405358h 0.711999v 0.168899h 0.711999v
 0.0337799h 0.711999v -0.10134h 0.711999v -0.304019h 0.711999v 0.337799h 0.711999v 0.0337799h 0.711999v 0.0337799h 0.711999v -0.10134h 0.711999v 0.337799h 0.711999v -0.168899h 0.711999v -0.168899h 0.711999v 0.202679h 0.711999v -0.10134h 0.711999v
 0.168899h 0.711999v -0.304019h 0.711999v 0.304019h 0.711999v -0.0337799h 0.711999v -0.0675597h 0.711999v -0.10134h 0.711999v 0.135119h 0.711999v 0.10134h 0.711999v -0.304019h 0.711999v -0.135119h 0.711999v 0.168899h 0.711999v -0.135119h 0.711999v
 0.405358h 0.711999v -0.304019h 0.711999v 0.337799h 0.711999v -0.439138h 1.424v 0.304019h 0.711999v -0.371578h 0.711999v 0.337799h 0.711999v -0.641817h 0.711999v 0.439138h 0.711999v 0.168899h 0.711999v -0.236459h 0.711999v -0.0337799h 0.711999v
 0.270239h 0.711999v -0.304019h 0.711999v 0.0675597h 0.711999v 0.202679h 0.711999v 0.168899h 0.711999v -0.168899h 0.711999v -0.0337799h 0.711999v 0.168899h 0.711999v -0.337799h 1.424v 0.135119h 0.711999v -0.304019h 0.711999v 0.337799h 0.711999v
 0.0337799h 0.711999v -0.337799h 0.711999v 0.202679h 0.711999v -0.168899h 0.711999v 0.304019h 0.711999v 0.0675597h 0.711999v 0.0337799h 0.711999v -0.202679h 0.711999v 0.10134h 0.711999v -0.472918h 0.711999v 0.304019h 0.711999v -0.135119h 0.711999v
 0.10134h 0.711999v 0.236459h 0.711999v -0.168899h 0.711999v 0.135119h 0.711999v -0.0337799h 0.711999v -0.0337799h 0.711999v -0.0337799h 0.711999v -0.202679h 0.711999v -0.10134h 0.711999v 0.439138h 0.711999v -0.506698h 0.711999v 0.0337799h 0.711999v
 -0.135119h 0.711999v 0.304019h 0.711999v 0.270239h 0.711999v -0.304019h 1.424v 0.202679h 0.711999v -0.641817h 0.711999v 0.776937h 0.711999v -0.168899h 0.711999v -0.202679h 0.711999v -0.168899h 0.711999v 0.337799h 2.136v -0.202679h 0.711999v
 -0.0337799h 0.711999v 0.0675597h 0.711999v -0.202679h 0.711999v -0.135119h 0.711999v 0.270239h 0.711999v 0.135119h 0.711999v -0.0675597h 0.711999v 0.0337799h 0.711999v -0.236459h 2.136v -0.0337799h 0.711999v -0.0675597h 0.711999v 0.371578h 0.711999v
 0.337799h 0.711999v -0.608037h 0.711999v 0.236459h 0.711999v 0.0675597h 0.711999v -0.202679h 0.711999v -0.10134h 0.711999v 0.0337799h 0.711999v -0.0337799h 0.711999v -0.168899h 0.711999v -0.168899h 0.711999v 0.540478h 0.711999v -0.506698h 0.711999v
 0.540478h 0.711999v -0.844496h 0.711999v 0.641817h 0.711999v 0.337799h 0.711999v -0.472918h 0.711999v -0.135119h 1.424v 0.0675597h 0.711999v -0.0675597h 0.711999v 0.10134h 0.711999v -0.0675597h 0.711999v 0.304019h 0.711999v -0.337799h 0.711999v
 0.506698h 0.711999v -0.270239h 0.711999v -0.0337799h 0.711999v -0.270239h 1.424v -0.135119h 0.711999v 0.10134h 0.711999v 0.0337799h 0.711999v 0.0337799h 0.711999v -0.371578h 0.711999v -0.371578h 0.711999v 0.506698h 0.711999v 0.0675597h 0.711999v
 -0.0337799h 0.711999v 0.135119h 0.711999v -0.439138h 0.711999v 0.0675597h 0.711999v 0.0337799h 0.711999v -0.202679h 0.711999v -0.405358h 0.711999v 0.743157h 0.711999v -0.608037h 0.711999v 0.10134h 0.711999v -0.236459h 0.711999v 0.10134h 0.711999v
 -0.135119h 0.711999v 0.540478h 0.711999v -0.506698h 0.711999v 0.641817h 0.711999v -0.506698h 0.711999v 0.0337799h 0.711999v 0.304019h 0.711999v -0.202679h 0.711999v -0.135119h 0.711999v -0.0675597h 0.711999v -0.0675597h 0.711999v -0.135119h
 0.711999v -0.371578h 0.711999v -0.439138h 0.711999v 0.135119h 0.711999v -0.0337799h 0.711999v -0.0337799h 0.711999v 0.337799h 0.711999v -1.0134h 0.711999v 0.844496h 0.711999v -1.0134h 0.711999v -0.0337799h 0.711999v 0.439138h 0.711999v -0.540478h
 0.711999v 0.371578h 0.711999v -0.0337799h 0.711999v -0.304019h 0.711999v 0.0675597h 0.711999v -0.743157h 0.711999v -0.405358h 0.711999v 0.0337799h 0.711999v 0.0337799h 0.711999v -1.08096h 0.711999v 0.776937h 0.711999v -0.810717h 0.711999v -0.844496h
 0.711999v 0.912056h 0.711999v -0.709377h 0.711999v -0.304019h 0.711999v -1.1823h 0.711999v -1.68899h 0.711999v 1.08096h 0.711999v -1.28363h 0.711999v -0.844496h 0.711999v -0.945836h 0.711999v 0.0337799h 0.711999v -3.10775h 0.711999v -0.574258h
 0.711999v -2.26325h 0.711999v -0.641817h 0.711999v -1.68899h 0.711999v -5.81014h 0.711999v -5.94526h 0.711999v -4.99942h 0.711999v -5.5399h 0.711999v -7.39779h 0.711999v -7.83693h 0.711999v -11.5189h 0.711999v -12.8026h 0.711999v -14.0862h 0.711999v
 -18.2073h 0.711999v -14.6605h 0.711999v -24.8958h 0.711999v -17.9709h 0.711999v -15.7414h 0.711999v -9.3908h 0.711999v -11.9918h 0.711999v -11.3163h 0.711999v 1.48631h 0.711999v 5.64124h 0.711999v -1.58765h 0.711999v 16.8561h 0.711999v 9.76238h
 0.711999v 19.491h 0.711999v 22.7001h 0.711999v 22.2271h 0.711999v 16.9237h 0.711999v 16.3157h 0.711999v 13.6471h 0.711999v 12.3634h 0.711999v 12.2959h 0.711999v 8.34363h 0.711999v 6.01281h 0.711999v 6.11415h 0.711999v 5.50612h 0.711999v 1.41875h
 0.711999v 3.74956h 0.711999v 2.22947h 0.711999v -0.675597h 0.711999v 2.83751h 0.711999v 0.236459h 0.711999v 1.21607h 0.711999v 1.0134h 0.711999v 1.0134h 0.711999v 0.337799h 0.711999v -0.270239h 0.711999v 1.48631h 0.711999v 0.472918h 0.711999v
 -0.506698h 0.711999v 1.14852h 0.711999v -0.168899h 0.711999v 0.878276h 0.711999v -0.337799h 0.711999v 0.776937h 0.711999v 0.844496h 0.711999v 0.371578h 0.711999v -0.236459h 0.711999v 1.58765h 0.711999v 0.168899h 0.711999v -0.439138h 0.711999v
 0.337799h 0.711999v 1.04718h 0.711999v 0.0675597h 0.711999v 0.506698h 0.711999v -0.168899h 0.711999v 0.304019h 0.711999v 0.945836h 0.711999v -0.979616h 0.711999v 0.912056h 0.711999v 0.743157h 0.711999v 0.270239h 0.711999v 0.304019h 0.711999v
 -0.540478h 0.711999v 0.912056h 0.711999v 0.135119h 0.711999v -0.135119h 1.424v 0.641817h 0.711999v -0.776937h 0.711999v 0.405358h 0.711999v 0.641817h 0.711999v -0.304019h 0.711999v 0.371578h 0.711999v 0.371578h 0.711999v -0.270239h 0.711999v
 -0.405358h 0.711999v 0.776937h 0.711999v 0.10134h 0.711999v 0.270239h 0.711999v 0.0675597h 0.711999v -0.236459h 0.711999v 0.0337799h 0.711999v 0.371578h 0.711999v -0.168899h 0.711999v 0.0337799h 0.711999v 0.10134h 0.711999v -0.0675597h 0.711999v
 0.405358h 0.711999v -0.270239h 0.711999v 0.10134h 0.711999v 0.0675597h 0.711999v 0.0675597h 0.711999v -0.236459h 0.711999v 0.168899h 0.711999v 0.135119h 0.711999v -0.135119h 0.711999v 0.168899h 0.711999v -0.135119h 0.711999v -0.10134h 0.711999v
 0.135119h 0.711999v -0.135119h 0.711999v 0.202679h 1.424v 0.10134h 0.711999v -0.270239h 0.711999v 0.0337799h 0.711999v 0.0337799h 0.711999v 0.270239h 0.711999v -0.270239h 0.711999v 0.202679h 1.424v -0.371578h 0.711999v 0.135119h 0.711999v 0.168899h
 0.711999v -0.0337799h 1.424v 0.202679h 0.711999v -0.0675597h 0.711999v -0.0337799h 0.711999v -0.0337799h 1.424v 0.0337799h 0.711999v -0.0675597h 1.424v -0.0675597h 0.711999v 0.0337799h 0.711999v 0.135119h 0.711999v -0.0337799h 1.424v -0.0337799h
 0.711999v 0.0675597h 0.711999v -0.0675597h 0.711999v -0.0337799h 1.424v 0.0675597h 0.711999v -0.0337799h 2.136v 0.0337799h 0.711999v 0.0675597h 0.711999v -0.135119h 0.711999v 0.10134h 0.711999v -0.0337799h 0.711999v -0.0337799h 0.711999v 0.0675597h
 0.711999v 0.0675597h 0.711999v -0.0337799h 1.424v -0.168899h 0.711999v 0.168899h 0.711999v -0.10134h 0.711999v 0.0337799h 0.711999v -0.0337799h 1.424v 0.0337799h 0.711999v -0.0337799h 0.711999v 0.10134h 2.136v 0.0337799h 0.711999v -0.0337799h
 0.711999v -0.10134h 0.711999v -0.0675597h 0.711999v 0.168899h 0.711999v -0.10134h 0.711999v -0.0337799h 1.424v 0.10134h 0.711999v -0.10134h 0.711999v -0.0337799h 0.711999v 0.135119h 1.424v 0.0337799h 0.711999v -0.202679h 0.711999v 0.236459h
 0.711999v -0.0675597h 0.711999v 0.0337799h 0.711999v -0.0337799h 0.711999v -0.0675597h 0.711999v 0.10134h 0.711999v 0.0337799h 0.711999v -0.135119h 0.711999v -0.0337799h 0.711999v 0.10134h 0.711999v -0.202679h 0.711999v 0.0675597h 1.424v 0.0675597h
 0.711999v -0.0675597h 0.711999v 0.10134h 0.711999v 0.0337799h 1.424v 0.0675597h 0.711999v -0.135119h 0.711999v -0.0337799h 0.711999v -0.10134h 0.711999v 0.168899h 0.711999v 0.10134h 0.711999v -0.135119h 0.711999v 0.0675597h 0.711999v 0.0337799h
 1.424v -0.168899h 0.711999v 0.168899h 0.711999v -0.0675597h 0.711999v 0.10134h 0.711999v -0.0675597h 1.424v -0.0675597h 0.711999v 0.0337799h 0.711999v 0.10134h 1.424v -0.135119h 0.711999v 0.10134h 0.711999v -0.135119h 0.711999v 0.0337799h 0.711999v
 0.0337799h 2.136v 0.0337799h 0.711999v -0.236459h 0.711999v 0.337799h 0.711999v -0.10134h 0.711999v -0.0337799h 0.711999v 0.0675597h 0.711999v -0.0675597h 0.711999v 0.0337799h 0.711999v -0.0337799h 1.424v 0.10134h 0.711999v -0.0337799h 1.424v
 0.0337799h 1.424v -0.0675597h 0.711999v -0.0675597h 0.711999v 0.10134h 1.424v -0.135119h 0.711999v 0.0675597h 0.711999v 0.0337799h 0.711999v -0.0675597h 1.424v 0.0337799h 0.711999v 0.0337799h 0.711999v 0.0337799h 0.711999v -0.0337799h 1.424v
 0.0337799h 1.424v -0.0337799h 0.711999v -0.0337799h 1.424v -0.0337799h 0.711999v 0.0675597h 2.848v 0.0337799h 0.711999v -0.168899h 0.711999v 0.135119h 0.711999v 0.0337799h 0.711999v -0.0337799h 0.711999v -0.0337799h 0.711999v 0.0675597h 0.711999v
 -0.135119h 0.711999v 0.0337799h 0.711999v 0.10134h 0.711999v 0.0337799h 0.711999v -0.0337799h 0.711999v -0.135119h 0.711999v 0.135119h 0.711999v -0.0675597h 0.711999v -0.0675597h 0.711999v 0.0675597h 0.711999v -0.0337799h 0.711999v 0.10134h
 0.711999v 0.0337799h 0.711999v -0.10134h 0.711999v 0.10134h 1.424v -0.0337799h 0.711999v 0.0337799h 0.711999v -0.135119h 0.711999v 0.135119h 1.424v -0.0675597h 0.711999v -0.0675597h 0.711999v 0.0337799h 0.711999v -0.0337799h 0.711999v 0.0675597h
 0.711999v -0.0337799h 1.424v 0.0337799h 1.424v 0.0675597h 1.424v -0.0675597h 1.424v 0.0337799h 0.711999v -0.0337799h 0.711999v 0.10134h 0.711999v -0.10134h 0.711999v 0.0337799h 1.424v -0.0675597h 0.711999v 0.0675597h 0.711999v 0.0675597h 0.711999v
 -0.10134h 0.711999v -0.0337799h 0.711999v 0.0675597h 1.424v -0.0675597h 0.711999v 0.0675597h 0.711999v 0.0337799h 0.711999v -0.0337799h 0.711999v 0.0337799h 0.711999v -0.0675597h 0.711999v -0.10134h 0.711999v 0.0337799h 0.711999v 0.135119h 1.424v
 -0.0337799h 0.711999v 0.0337799h 0.711999v -0.0675597h 0.711999v 0.0675597h 0.711999v -0.0675597h 0.711999v -0.10134h 0.711999v 0.168899h 0.711999v -0.10134h 0.711999v 0.0675597h 0.711999v -0.0337799h 2.136v -0.0675597h 0.711999v 0.0675597h 2.136v
 -0.10134h 0.711999v 0.135119h 2.136v 0.0337799h 0.711999v -0.0675597h 1.424v 0.0337799h 0.711999v -0.0337799h 0.711999v -0.0675597h 0.711999v 0.168899h 0.711999v -0.135119h 0.711999v -0.0675597h 0.711999v 0.0675597h 0.711999v -0.0337799h 0.711999v
 -0.0675597h 0.711999v 0.202679h 0.711999v -0.0337799h 1.424v -0.0337799h 0.711999v 0.0337799h 2.136v -0.0337799h 0.711999v 0.0675597h 0.711999v -0.0675597h 0.711999v -0.0337799h 0.711999v 0.0675597h 0.711999v -0.10134h 0.711999v 0.0337799h 0.711999v
 0.0675597h 0.711999v 0.0337799h 0.711999v -0.0337799h 0.711999v 0.0337799h 0.711999v -0.0337799h 0.711999v -0.10134h 0.711999v 0.135119h 1.424v -0.0675597h 0.711999v -0.0337799h 1.424v 0.0675597h 0.711999v 0.0337799h 0.711999v -0.168899h 0.711999v
 0.135119h 1.424v -0.0337799h 0.711999v 0.0675597h 0.711999" fill="none" stroke="#ff0000" stroke-width="2"/>
<path d="M59.4606,259.55l 4.53543, 0.0120615l 4.53543, 0.0120615l 4.53543, 0.0120615l 4.53543, 0.0120615l 4.53543, 0.0120615l 4.53543, 0.0120615l 4.53543, 0.0120615l 4.53543, 0.0120615l 4.53543, 0.0120615l 4.53543, 0.0120615l 4.53543, 0.0120615l
 4.53543, 0.0120615l 4.53543, 0.0120615l 4.53543, 0.0120615l 4.53543, 0.0120615l 4.53543, 0.0120615l 4.53543, 0.0120615l 4.53543, 0.0120615l 4.53543, 0.0120615l 4.53543, 0.0120615l 4.53543, 0.0120615l 4.53543, 0.0120615l 4.53543, 0.0120615l 4.53543,
 0.0120615l 4.53543, 0.0120615l 4.53543, 0.0120615l 4.53543, 0.0120615l 4.53543, 0.0120615l 4.53543, 0.0120615l 4.53543, 0.0120615l 4.53543, 0.0120615l 4.53543, 0.012061l 4.53543, 0.0120114l 4.53543, 0.00957184l 4.53543, -0.056428l 4.53543, -1.02456l
 4.53543, -8.51381l 4.53543, -37.0831l 4.53543, -79.6743l 4.53543, -64.3084l 4.53543, 30.2451l 4.53543, 85.1878l 4.53543, 55.6221l 4.53543, 16.8505l 4.53543, 2.65602l 4.53543, 0.235765l 4.53543, 0.0224333l 4.53543, 0.0123272l 4.53543, 0.0120653"
 fill="none" stroke="#0000ff" stroke-width="2"/>
<path d="M281.697,260.141l 4.53543, 0.0120616l 4.53543, 0.0120615l 4.53543, 0.0120615l 4.53543, 0.0120615l 4.53543, 0.0120615l 4.53543, 0.0120615l 4.53543, 0.0120615l 4.53543, 0.0120615l 4.53543, 0.0120615l 4.53543, 0.0120615l 4.53543, 0.0120615l
 4.53543, 0.0120615l 4.53543, 0.0120615l 4.53543, 0.0120615l 4.53543, 0.0120615l 4.53543, 0.0120615l 4.53543, 0.0120615l 4.53543, 0.0120615l 4.53543, 0.0120615l 4.53543, 0.0120615l 4.53543, 0.0120615l 4.53543, 0.0120615l 4.53543, 0.0120615l 4.53543,
 0.0120615l 4.53543, 0.0120615l 4.53543, 0.0120615l 4.53543, 0.0120615l 4.53543, 0.0120615l 4.53543, 0.0120615l 4.53543, 0.0324424h 86.1732" fill="none" stroke="#0000ff" stroke-width="2"/>
<path d="M503.933,260.523h 4.53543" fill="none" stroke="#0000ff" stroke-width="2"/>
<rect x="351.996" y="18.8156" width="204.094" height="81.0516" fill="white"/>
<path d="M351.996,99.8672h 204.094" fill="none" stroke="black" stroke-width="2"/>
<path d="M556.091,99.8672v -81.0516" fill="none" stroke="black" stroke-width="2"/>
<path d="M556.091,18.8156h -204.094" fill="none" stroke="black" stroke-width="2"/>
<path d="M351.996,18.8156v 81.0516" fill="none" stroke="black" stroke-width="2"/>
<text x="374.049" y="28.8269" fill="black" font-size="11.802" font-family="Helvetica">
 / ndf 
</text>
<text x="369.244" y="25.2235" fill="black" font-size="8.03464" font-family="Helvetica">
2
</text>
<text x="362.037" y="28.8269" fill="black" font-size="11.802" font-family="Times">
&#0967;
</text>
<text x="456.926" y="30.028" fill="black" font-size="11.802" font-family="Helvetica">
 1.628e+04 / 628
</text>
<text x="362.037" y="43.2404" fill="black" font-size="11.802" font-family="Helvetica">
Centroid 
</text>
<text x="526.591" y="43.2404" fill="black" font-size="11.802" font-family="Helvetica">
 0.0
</text>
<text x="519.384" y="43.2404" fill="black" font-size="11.802" font-family="Times">
&#0177;
</text>
<text x="484.552" y="43.2404" fill="black" font-size="11.802" font-family="Helvetica">
  5597 
</text>
<text x="362.037" y="57.6538" fill="black" font-size="11.802" font-family="Helvetica">
FWHM     
</text>
<text x="519.384" y="56.4527" fill="black" font-size="11.802" font-family="Helvetica">
 0.06
</text>
<text x="512.178" y="56.4527" fill="black" font-size="11.802" font-family="Times">
&#0177;
</text>
<text x="477.345" y="56.4527" fill="black" font-size="11.802" font-family="Helvetica">
 19.59 
</text>
<text x="362.037" y="70.8661" fill="black" font-size="11.802" font-family="Helvetica">
Counts   
</text>
<text x="485.753" y="70.8661" fill="black" font-size="11.802" font-family="Helvetica">
 3.467e+02
</text>
<text x="478.546" y="70.8661" fill="black" font-size="11.802" font-family="Times">
&#0177;
</text>
<text x="416.088" y="70.8661" fill="black" font-size="11.802" font-family="Helvetica">
 1.194e+05 
</text>
<text x="362.037" y="82.8773" fill="black" font-size="11.802" font-family="Helvetica">
Intercept 
</text>
<text x="526.591" y="84.0785" fill="black" font-size="11.802" font-family="Helvetica">
 5.4
</text>
<text x="519.384" y="84.0785" fill="black" font-size="11.802" font-family="Times">
&#0177;
</text>
<text x="484.552" y="84.0785" fill="black" font-size="11.802" font-family="Helvetica">
 328.2 
</text>
<text x="362.037" y="96.0897" fill="black" font-size="11.802" font-family="Helvetica">
Slope    
</text>
<text x="500.166" y="97.2908" fill="black" font-size="11.802" font-family="Helvetica">
 0.00095
</text>
<text x="492.96" y="97.2908" fill="black" font-size="11.802" font-family="Times">
&#0177;
</text>
<text x="447.317" y="97.2908" fill="black" font-size="11.802" font-family="Helvetica">
0.05605 
</text>
<text x="440.11" y="97.2908" fill="black" font-size="11.802" font-family="Times">
&#8722;
</text>
<text x="437.708" y="97.2908" fill="black" font-size="11.802" font-family="Helvetica">
 
</text>
<path d="M57.1929,260.523h 453.543" fill="none" stroke="black" stroke-width="2"/>
<text x="470.138" y="279.861" fill="black" font-size="9.79491" font-family="Helvetica">
Channels
</text>
<path d="M101.337,253.576v 6.94728" fill="none" stroke="black" stroke-width="2"/>
<path d="M136.937,257.049v 3.47364" fill="none" stroke="black" stroke-width="2"/>
<path d="M172.537,257.049v 3.47364" fill="none" stroke="black" stroke-width="2"/>
<path d="M208.137,257.049v 3.47364" fill="none" stroke="black" stroke-width="2"/>
<path d="M243.737,253.576v 6.94728" fill="none" stroke="black" stroke-width="2"/>
<path d="M279.337,257.049v 3.47364" fill="none" stroke="black" stroke-width="2"/>
<path d="M314.937,257.049v 3.47364" fill="none" stroke="black" stroke-width="2"/>
<path d="M350.536,257.049v 3.47364" fill="none" stroke="black" stroke-width="2"/>
<path d="M386.136,253.576v 6.94728" fill="none" stroke="black" stroke-width="2"/>
<path d="M101.337,253.576v 6.94728" fill="none" stroke="black" stroke-width="2"/>
<path d="M65.7369,257.049v 3.47364" fill="none" stroke="black" stroke-width="2"/>
<path d="M386.136,253.576v 6.94728" fill="none" stroke="black" stroke-width="2"/>
<path d="M421.736,257.049v 3.47364" fill="none" stroke="black" stroke-width="2"/>
<path d="M457.336,257.049v 3.47364" fill="none" stroke="black" stroke-width="2"/>
<path d="M492.936,257.049v 3.47364" fill="none" stroke="black" stroke-width="2"/>
<text x="89.383" y="269.051" fill="black" font-size="9.79491" font-family="Helvetica">
5400
</text>
<text x="232.316" y="269.051" fill="black" font-size="9.79491" font-family="Helvetica">
5600
</text>
<text x="375.25" y="269.051" fill="black" font-size="9.79491" font-family="Helvetica">
5800
</text>
<path d="M57.1929,260.523v -231.576" fill="none" stroke="black" stroke-width="2"/>
<path d="M70.7992,260.523h -13.6063" fill="none" stroke="black" stroke-width="2"/>
<path d="M63.9961,253.767h -6.80315" fill="none" stroke="black" stroke-width="2"/>
<path d="M63.9961,247.011h -6.80315" fill="none" stroke="black" stroke-width="2"/>
<path d="M63.9961,240.255h -6.80315" fill="none" stroke="black" stroke-width="2"/>
<path d="M63.9961,233.499h -6.80315" fill="none" stroke="black" stroke-width="2"/>
<path d="M70.7992,226.743h -13.6063" fill="none" stroke="black" stroke-width="2"/>
<path d="M63.9961,219.987h -6.80315" fill="none" stroke="black" stroke-width="2"/>
<path d="M63.9961,213.231h -6.80315" fill="none" stroke="black" stroke-width="2"/>
<path d="M63.9961,206.475h -6.80315" fill="none" stroke="black" stroke-width="2"/>
<path d="M63.9961,199.719h -6.80315" fill="none" stroke="black" stroke-width="2"/>
<path d="M70.7992,192.963h -13.6063" fill="none" stroke="black" stroke-width="2"/>
<path d="M63.9961,186.207h -6.80315" fill="none" stroke="black" stroke-width="2"/>
<path d="M63.9961,179.451h -6.80315" fill="none" stroke="black" stroke-width="2"/>
<path d="M63.9961,172.696h -6.80315" fill="none" stroke="black" stroke-width="2"/>
<path d="M63.9961,165.94h -6.80315" fill="none" stroke="black" stroke-width="2"/>
<path d="M70.7992,159.184h -13.6063" fill="none" stroke="black" stroke-width="2"/>
<path d="M63.9961,152.428h -6.80315" fill="none" stroke="black" stroke-width="2"/>
<path d="M63.9961,145.672h -6.80315" fill="none" stroke="black" stroke-width="2"/>
<path d="M63.9961,138.916h -6.80315" fill="none" stroke="black" stroke-width="2"/>
<path d="M63.9961,132.16h -6.80315" fill="none" stroke="black" stroke-width="2"/>
<path d="M70.7992,125.404h -13.6063" fill="none" stroke="black" stroke-width="2"/>
<path d="M63.9961,118.648h -6.80315" fill="none" stroke="black" stroke-width="2"/>
<path d="M63.9961,111.892h -6.80315" fill="none" stroke="black" stroke-width="2"/>
<path d="M63.9961,105.136h -6.80315" fill="none" stroke="black" stroke-width="2"/>
<path d="M63.9961,98.3798h -6.80315" fill="none" stroke="black" stroke-width="2"/>
<path d="M70.7992,91.6239h -13.6063" fill="none" stroke="black" stroke-width="2"/>
<path d="M63.9961,84.8679h -6.80315" fill="none" stroke="black" stroke-width="2"/>
<path d="M63.9961,78.1119h -6.80315" fill="none" stroke="black" stroke-width="2"/>
<path d="M63.9961,71.3559h -6.80315" fill="none" stroke="black" stroke-width="2"/>
<path d="M63.9961,64.6h -6.80315" fill="none" stroke="black" stroke-width="2"/>
<path d="M70.7992,57.844h -13.6063" fill="none" stroke="black" stroke-width="2"/>
<path d="M70.7992,57.844h -13.6063" fill="none" stroke="black" stroke-width="2"/>
<path d="M63.9961,51.088h -6.80315" fill="none" stroke="black" stroke-width="2"/>
<path d="M63.9961,44.3321h -6.80315" fill="none" stroke="black" stroke-width="2"/>
<path d="M63.9961,37.5761h -6.80315" fill="none" stroke="black" stroke-width="2"/>
<path d="M63.9961,30.8201h -6.80315" fill="none" stroke="black" stroke-width="2"/>
<text x="47.3437" y="263.046" fill="black" font-size="9.79491" font-family="Helvetica">
0
</text>
<text x="31.7291" y="229.414" fill="black" font-size="9.79491" font-family="Helvetica">
1000
</text>
<text x="31.7291" y="195.783" fill="black" font-size="9.79491" font-family="Helvetica">
2000
</text>
<text x="31.7291" y="162.151" fill="black" font-size="9.79491" font-family="Helvetica">
3000
</text>
<text x="31.7291" y="128.52" fill="black" font-size="9.79491" font-family="Helvetica">
4000
</text>
<text x="31.7291" y="94.8886" fill="black" font-size="9.79491" font-family="Helvetica">
5000
</text>
<text x="31.7291" y="61.2572" fill="black" font-size="9.79491" font-family="Helvetica">
6000
</text>
<rect x="351.996" y="18.8156" width="204.094" height="81.0516" fill="white"/>
<path d="M351.996,99.8672h 204.094" fill="none" stroke="black" stroke-width="2"/>
<path d="M556.091,99.8672v -81.0516" fill="none" stroke="black" stroke-width="2"/>
<path d="M556.091,18.8156h -204.094" fill="none" stroke="black" stroke-width="2"/>
<path d="M351.996,18.8156v 81.0516" fill="none" stroke="black" stroke-width="2"/>
<text x="374.049" y="28.8269" fill="black" font-size="11.802" font-family="Helvetica">
 / ndf 
</text>
<text x="369.244" y="25.2235" fill="black" font-size="8.03464" font-family="Helvetica">
2
</text>
<text x="362.037" y="28.8269" fill="black" font-size="11.802" font-family="Times">
&#0967;
</text>
<text x="456.926" y="30.028" fill="black" font-size="11.802" font-family="Helvetica">
 1.628e+04 / 628
</text>
<text x="362.037" y="43.2404" fill="black" font-size="11.802" font-family="Helvetica">
Centroid 
</text>
<text x="526.591" y="43.2404" fill="black" font-size="11.802" font-family="Helvetica">
 0.0
</text>
<text x="519.384" y="43.2404" fill="black" font-size="11.802" font-family="Times">
&#0177;
</text>
<text x="484.552" y="43.2404" fill="black" font-size="11.802" font-family="Helvetica">
  5597 
</text>
<text x="362.037" y="57.6538" fill="black" font-size="11.802" font-family="Helvetica">
FWHM     
</text>
<text x="519.384" y="56.4527" fill="black" font-size="11.802" font-family="Helvetica">
 0.06
</text>
<text x="512.178" y="56.4527" fill="black" font-size="11.802" font-family="Times">
&#0177;
</text>
<text x="477.345" y="56.4527" fill="black" font-size="11.802" font-family="Helvetica">
 19.59 
</text>
<text x="362.037" y="70.8661" fill="black" font-size="11.802" font-family="Helvetica">
Counts   
</text>
<text x="485.753" y="70.8661" fill="black" font-size="11.802" font-family="Helvetica">
 3.467e+02
</text>
<text x="478.546" y="70.8661" fill="black" font-size="11.802" font-family="Times">
&#0177;
</text>
<text x="416.088" y="70.8661" fill="black" font-size="11.802" font-family="Helvetica">
 1.194e+05 
</text>
<text x="362.037" y="82.8773" fill="black" font-size="11.802" font-family="Helvetica">
Intercept 
</text>
<text x="526.591" y="84.0785" fill="black" font-size="11.802" font-family="Helvetica">
 5.4
</text>
<text x="519.384" y="84.0785" fill="black" font-size="11.802" font-family="Times">
&#0177;
</text>
<text x="484.552" y="84.0785" fill="black" font-size="11.802" font-family="Helvetica">
 328.2 
</text>
<text x="362.037" y="96.0897" fill="black" font-size="11.802" font-family="Helvetica">
Slope    
</text>
<text x="500.166" y="97.2908" fill="black" font-size="11.802" font-family="Helvetica">
 0.00095
</text>
<text x="492.96" y="97.2908" fill="black" font-size="11.802" font-family="Times">
&#0177;
</text>
<text x="447.317" y="97.2908" fill="black" font-size="11.802" font-family="Helvetica">
0.05605 
</text>
<text x="440.11" y="97.2908" fill="black" font-size="11.802" font-family="Times">
&#8722;
</text>
<text x="437.708" y="97.2908" fill="black" font-size="11.802" font-family="Helvetica">
 
</text>
<path d="M59.4606,260.523h 154.205l 4.53543, -0.0710299l 4.53543, -1.03663l 4.53543, -8.52587l 4.53543, -37.0951l 4.53543, -79.6864l 4.53543, -64.3205l 4.53543, 30.2331l 4.53543, 85.1757l 4.53543, 55.6101l 4.53543, 16.8384l 4.53543, 2.64396l 4.53543,
 0.234345h 13.6063" fill="none" stroke="#00ff00" stroke-width="2"/>
<path d="M281.697,260.523h 222.236" fill="none" stroke="#00ff00" stroke-width="2"/>
<path d="M503.933,260.523h 4.53543" fill="none" stroke="#00ff00" stroke-width="2"/>
<text x="252.735" y="14.4135" fill="black" font-size="12.9153" font-family="Helvetica">
2.6kV.TKA
</text></svg>
