<?xml version="1.0" standalone="no"?>
<svg width="567.429" height="372.295" viewBox="0 0 567.429 372.295" xmlns="http://www.w3.org/2000/svg">
<title>
/home/ADF/hyw543/HPGeEnviro/Elevated/ResolutionVBias/c1.svg
</title>
<desc>
Creator: ROOT Version 6.06/08
CreationDate: Thu Jan 24 19:25:32 2019</desc>
<defs>
</defs>
<rect x="0.5" y="0" width="566.929" height="371.795" fill="white"/>
<rect x="57.1929" y="37.1795" width="453.543" height="297.436" fill="white"/>
<rect x="57.1929" y="37.1795" width="453.543" height="297.436" fill="none" stroke="black"/>
<rect x="57.1929" y="37.1795" width="453.543" height="297.436" fill="white"/>
<rect x="57.1929" y="37.1795" width="453.543" height="297.436" fill="none" stroke="black"/>
<path d="M57.1929,333.754h 1.04987v 0.328051h 1.04987v -0.287045h 2.09974v -0.205032h 1.04987v 0.0410064h 1.04987v 0.164026h 1.04987v 0.164026h 1.04987v 0.0820128h 1.04987v -0.246038h 1.04987v 0.123019h 1.04987v -0.0410064h 1.04987v -0.0410064h
 1.04987v -0.246038h 1.04987v 0.533083h 1.04987v -0.246038h 1.04987v -0.205032h 1.04987v 0.123019h 1.04987v -0.123019h 1.04987v 0.287045h 1.04987v -0.369057h 1.04987v 0.369057h 1.04987v -0.205032h 2.09974v -0.246038h 1.04987v 0.205032h 1.04987v
 -0.287045h 1.04987v 0.328051h 1.04987v -0.287045h 1.04987v 0.205032h 1.04987v -0.0820128h 1.04987v 0.328051h 1.04987v -0.287045h 1.04987v 0.0820128h 1.04987v -0.246038h 1.04987v 0.0410064h 1.04987v 0.123019h 1.04987v 0.0820128h 1.04987v 0.205032h
 1.04987v -0.246038h 1.04987v 0.0410064h 1.04987v 0.164026h 1.04987v -0.410064h 1.04987v 0.246038h 1.04987v 0.0410064h 1.04987v 0.0410064h 1.04987v -0.287045h 1.04987v 0.287045h 1.04987v -0.574089h 1.04987v 0.492077h 1.04987v -0.574089h 1.04987v
 0.656102h 1.04987v -0.574089h 1.04987v 0.246038h 1.04987v 0.328051h 1.04987v -0.697109h 1.04987v 0.205032h 1.04987v 0.205032h 1.04987v -0.205032h 1.04987v 0.492077h 1.04987v -0.492077h 1.04987v -0.205032h 1.04987v 0.369057h 1.04987v 0.328051h
 1.04987v -0.287045h 1.04987v -0.0410064h 1.04987v -0.164026h 1.04987v 0.287045h 1.04987v -0.287045h 1.04987v 0.369057h 1.04987v -0.246038h 1.04987v -0.164026h 1.04987v 0.45107h 1.04987v -0.738115h 1.04987v 0.164026h 2.09974v -0.0410064h 1.04987v
 0.287045h 1.04987v 0.0820128h 1.04987v 0.0410064h 1.04987v -0.287045h 1.04987v 0.164026h 1.04987v -0.615096h 1.04987v 0.861134h 1.04987v -0.779121h 1.04987v 0.533083h 1.04987v -0.287045h 1.04987v 0.574089h 1.04987v -0.984153h 1.04987v 0.656102h
 1.04987v -0.369057h 1.04987v -0.369057h 1.04987v -0.0820128h 1.04987v 0.779121h 1.04987v -0.533083h 1.04987v 0.287045h 1.04987v -0.287045h 1.04987v -0.410064h 1.04987v 0.328051h 1.04987v 0.410064h 1.04987v -0.328051h 1.04987v -0.820128h 1.04987v
 1.10717h 1.04987v -0.492077h 1.04987v 0.123019h 1.04987v 0.0410064h 1.04987v -0.0820128h 1.04987v -0.492077h 1.04987v 0.328051h 1.04987v -0.0820128h 2.09974v -0.123019h 1.04987v -0.656102h 1.04987v 0.410064h 1.04987v 0.328051h 1.04987v -0.45107h
 1.04987v 0.615096h 1.04987v -0.656102h 1.04987v -0.205032h 1.04987v 0.369057h 1.04987v -0.0820128h 1.04987v -0.205032h 1.04987v -0.574089h 1.04987v 0.738115h 1.04987v -0.123019h 1.04987v -0.45107h 1.04987v 0.328051h 1.04987v -0.205032h 1.04987v
 0.123019h 1.04987v -0.205032h 1.04987v -0.574089h 1.04987v -0.492077h 1.04987v 0.533083h 1.04987v -0.656102h 1.04987v 0.246038h 1.04987v -0.0820128h 1.04987v -0.820128h 1.04987v 0.287045h 1.04987v -0.533083h 1.04987v -0.0820128h 1.04987v -0.0820128h
 1.04987v -0.533083h 1.04987v -0.164026h 1.04987v 0.656102h 1.04987v -1.47623h 1.04987v -0.656102h 1.04987v 0.738115h 1.04987v -1.72227h 1.04987v -0.0410064h 1.04987v -1.14818h 1.04987v -0.902141h 1.04987v 0.0410064h 1.04987v -2.50139h 1.04987v
 0.369057h 1.04987v -2.82944h 1.04987v -0.738115h 1.04987v -1.10717h 1.04987v -2.09133h 1.04987v -1.9273h 1.04987v -2.5424h 1.04987v -2.62441h 1.04987v -2.66542h 1.04987v -7.79121h 1.04987v -8.3653h 1.04987v -5.20781h 1.04987v -11.1947h 1.04987v
 -11.6458h 1.04987v -9.39046h 1.04987v -19.068h 1.04987v -18.986h 1.04987v -21.5284h 1.04987v -19.355h 1.04987v -28.0484h 1.04987v -27.3103h 1.04987v -22.0614h 1.04987v -19.068h 1.04987v -11.5228h 1.04987v -6.19196h 1.04987v -7.17612h 1.04987v
 7.17612h 1.04987v 10.9897h 1.04987v 15.7465h 1.04987v 16.1155h 1.04987v 16.4846h 1.04987v 35.5525h 1.04987v 28.4174h 1.04987v 23.0456h 1.04987v 21.3233h 1.04987v 18.4939h 1.04987v 16.6486h 1.04987v 12.753h 1.04987v 12.3429h 1.04987v 6.23297h
 1.04987v 6.60203h 1.04987v 4.01863h 1.04987v 5.00278h 1.04987v 0.410064h 1.04987v 2.13233h 1.04987v 1.9273h 1.04987v 2.17334h 1.04987v -1.14818h 1.04987v 2.17334h 1.04987v -0.45107h 1.04987v 1.76327h 1.04987v 1.55824h 1.04987v 0.533083h 1.04987v
 -0.779121h 1.04987v 1.2712h 1.04987v -0.287045h 1.04987v 2.41938h 1.04987v -1.23019h 1.04987v 1.35321h 1.04987v 0.656102h 1.04987v 0.410064h 1.04987v 0.779121h 1.04987v -0.738115h 1.04987v 0.984153h 1.04987v 1.84529h 1.04987v -1.10717h 1.04987v
 0.328051h 1.04987v 2.00931h 1.04987v -0.533083h 1.04987v 0.984153h 1.04987v 0.615096h 1.04987v 0.0820128h 1.04987v 0.861134h 1.04987v 0.0410064h 1.04987v -0.246038h 1.04987v 0.0820128h 1.04987v 0.0820128h 1.04987v 1.23019h 1.04987v 0.287045h
 1.04987v -0.533083h 1.04987v 1.06617h 1.04987v 0.287045h 1.04987v -0.164026h 1.04987v 0.615096h 2.09974v 0.123019h 1.04987v -0.123019h 1.04987v 0.205032h 1.04987v 0.287045h 2.09974v 0.820128h 1.04987v -0.205032h 1.04987v -0.246038h 1.04987v 0.45107h
 1.04987v -0.123019h 1.04987v 0.0820128h 1.04987v 0.123019h 1.04987v 0.123019h 1.04987v 0.328051h 1.04987v -0.0820128h 1.04987v -0.246038h 1.04987v 0.328051h 1.04987v -0.205032h 1.04987v 0.45107h 1.04987v -0.164026h 1.04987v 0.0410064h 3.14961v
 0.205032h 1.04987v -0.123019h 1.04987v 0.287045h 1.04987v -0.287045h 1.04987v 0.287045h 1.04987v 0.0820128h 1.04987v -0.287045h 1.04987v 0.0820128h 1.04987v 0.0820128h 1.04987v -0.0410064h 1.04987v -0.0410064h 1.04987v -0.0410064h 1.04987v 0.123019h
 2.09974v 0.0820128h 2.09974v -0.205032h 1.04987v 0.164026h 1.04987v 0.0410064h 2.09974v -0.123019h 1.04987v -0.0820128h 1.04987v 0.287045h 1.04987v -0.0410064h 1.04987v -0.123019h 1.04987v 0.0820128h 1.04987v 0.0820128h 2.09974v -0.123019h 1.04987v
 0.123019h 2.09974v -0.123019h 1.04987v 0.123019h 1.04987v -0.0410064h 2.09974v -0.0820128h 2.09974v -0.0410064h 1.04987v 0.246038h 1.04987v -0.0820128h 1.04987v -0.0820128h 2.09974v -0.0820128h 1.04987v 0.123019h 1.04987v 0.0410064h 2.09974v
 -0.123019h 1.04987v 0.123019h 1.04987v -0.205032h 1.04987v 0.328051h 1.04987v -0.205032h 1.04987v 0.205032h 1.04987v -0.123019h 2.09974v 0.0410064h 1.04987v 0.0820128h 1.04987v -0.123019h 1.04987v 0.0820128h 1.04987v -0.0820128h 1.04987v -0.0410064h
 1.04987v 0.0410064h 1.04987v -0.0410064h 2.09974v 0.0410064h 1.04987v -0.205032h 1.04987v 0.164026h 2.09974v -0.0410064h 1.04987v 0.0820128h 1.04987v -0.0410064h 1.04987v -0.164026h 1.04987v 0.246038h 1.04987v -0.164026h 2.09974v 0.0410064h 1.04987v
 -0.164026h 1.04987v 0.205032h 1.04987v -0.0410064h 1.04987v 0.0820128h 1.04987v 0.0820128h 1.04987v -0.205032h 1.04987v 0.0820128h 1.04987v 0.0820128h 1.04987v 0.0820128h 1.04987v -0.123019h 1.04987v -0.0410064h 2.09974v 0.0410064h 1.04987v
 0.123019h 1.04987v -0.205032h 1.04987v 0.0820128h 2.09974v 0.0820128h 1.04987v -0.0820128h 1.04987v 0.0410064h 1.04987v -0.205032h 1.04987v 0.246038h 1.04987v -0.164026h 1.04987v -0.0410064h 1.04987v 0.0410064h 1.04987v 0.0410064h 1.04987v
 0.0410064h 1.04987v -0.0410064h 1.04987v -0.0820128h 1.04987v 0.123019h 2.09974v -0.0820128h 1.04987v 0.0410064h 1.04987v 0.0410064h 1.04987v 0.0820128h 2.09974v -0.0410064h 1.04987v 0.0410064h 1.04987v -0.0410064h 1.04987v -0.246038h 1.04987v
 0.246038h 1.04987v -0.0820128h 1.04987v 0.0820128h 1.04987v -0.164026h 1.04987v 0.0820128h 1.04987v 0.0410064h 1.04987v 0.0410064h 2.09974v -0.0820128h 1.04987v 0.0410064h 3.14961v -0.0410064h 2.09974v 0.0410064h 2.09974v -0.123019h 1.04987v
 0.164026h 1.04987v -0.0820128h 2.09974v 0.123019h 1.04987v -0.0820128h 1.04987v -0.164026h 1.04987v 0.123019h 1.04987v -0.123019h 1.04987v 0.205032h 1.04987v 0.0410064h 1.04987v -0.328051h 1.04987v 0.246038h 1.04987v 0.0820128h 1.04987v -0.123019h
 1.04987v -0.0820128h 2.09974v 0.0410064h 2.09974v 0.0410064h 1.04987v -0.0820128h 1.04987v -0.0410064h 1.04987v -0.0820128h 1.04987v 0.246038h 1.04987v 0.0820128h 1.04987v -0.205032h 1.04987v 0.205032h 1.04987v -0.0820128h 2.09974v 0.0820128h
 3.14961v -0.164026h 1.04987v 0.0820128h 1.04987v -0.123019h 1.04987v 0.0820128h 1.04987v 0.123019h 1.04987v -0.123019h 3.14961" fill="none" stroke="#ff0000" stroke-width="2"/>
<path d="M59.4606,333.107l 4.53543, 0.0171481l 4.53543, 0.0171481l 4.53543, 0.0171481l 4.53543, 0.0171481l 4.53543, 0.0171481l 4.53543, 0.0171481l 4.53543, 0.0171481l 4.53543, 0.0171481l 4.53543, 0.0171481l 4.53543, 0.0171481l 4.53543, 0.0171481l
 4.53543, 0.0171481l 4.53543, 0.0171481l 4.53543, 0.0171481l 4.53543, 0.0171481l 4.53543, 0.0171481l 4.53543, 0.0171481l 4.53543, 0.0171481l 4.53543, 0.0171481l 4.53543, 0.0171481l 4.53543, 0.0171481l 4.53543, 0.0171481l 4.53543, 0.0171481l 4.53543,
 0.0171481l 4.53543, 0.0171481l 4.53543, 0.0171481l 4.53543, 0.0171481l 4.53543, 0.0171481l 4.53543, 0.0171477l 4.53543, 0.0171368l 4.53543, 0.0169253l 4.53543, 0.0138825l 4.53543, -0.0183426l 4.53543, -0.268024l 4.53543, -1.67001l 4.53543, -7.28508l
 4.53543, -22.8551l 4.53543, -50.8069l 4.53543, -76.7485l 4.53543, -69.7198l 4.53543, -16.5174l 4.53543, 49.2096l 4.53543, 79.3309l 4.53543, 65.1801l 4.53543, 34.976l 4.53543, 13.1128l 4.53543, 3.53962l 4.53543, 0.707237l 4.53543, 0.116425"
 fill="none" stroke="#0000ff" stroke-width="2"/>
<path d="M281.697,333.936l 4.53543, 0.027689l 4.53543, 0.0179768l 4.53543, 0.0171964l 4.53543, 0.0171502l 4.53543, 0.0171482l 4.53543, 0.0171481l 4.53543, 0.0171481l 4.53543, 0.0171481l 4.53543, 0.0171481l 4.53543, 0.0171481l 4.53543, 0.0171481l
 4.53543, 0.0171481l 4.53543, 0.0171481l 4.53543, 0.0171481l 4.53543, 0.0171481l 4.53543, 0.0171481l 4.53543, 0.0171481l 4.53543, 0.0171481l 4.53543, 0.0171481l 4.53543, 0.0171481l 4.53543, 0.0171481l 4.53543, 0.0171481l 4.53543, 0.0171481l 4.53543,
 0.0171481l 4.53543, 0.0171481l 4.53543, 0.0171481l 4.53543, 0.0171481l 4.53543, 0.0171481l 4.53543, 0.0171481l 4.53543, 0.0171481l 4.53543, 0.0171481l 4.53543, 0.0171481l 4.53543, 0.0171481l 4.53543, 0.0171481l 4.53543, 0.0171481l 4.53543,
 0.0171481l 4.53543, 0.0171481l 4.53543, 0.0336613h 49.8898" fill="none" stroke="#0000ff" stroke-width="2"/>
<path d="M503.933,334.615h 4.53543" fill="none" stroke="#0000ff" stroke-width="2"/>
<rect x="351.996" y="24.1667" width="204.094" height="104.103" fill="white"/>
<path d="M351.996,128.269h 204.094" fill="none" stroke="black" stroke-width="2"/>
<path d="M556.091,128.269v -104.103" fill="none" stroke="black" stroke-width="2"/>
<path d="M556.091,24.1667h -204.094" fill="none" stroke="black" stroke-width="2"/>
<path d="M351.996,24.1667v 104.103" fill="none" stroke="black" stroke-width="2"/>
<text x="373.449" y="35.7939" fill="black" font-size="12.372" font-family="Helvetica">
 / ndf 
</text>
<text x="368.831" y="32.33" fill="black" font-size="8.4147" font-family="Helvetica">
2
</text>
<text x="361.903" y="35.7939" fill="black" font-size="12.372" font-family="Times">
&#0967;
</text>
<text x="460.047" y="36.9485" fill="black" font-size="12.372" font-family="Helvetica">
 1.485e+04 / 422
</text>
<text x="361.903" y="54.2682" fill="black" font-size="12.372" font-family="Helvetica">
Centroid 
</text>
<text x="527.017" y="54.2682" fill="black" font-size="12.372" font-family="Helvetica">
 0.0
</text>
<text x="520.089" y="54.2682" fill="black" font-size="12.372" font-family="Times">
&#0177;
</text>
<text x="486.604" y="54.2682" fill="black" font-size="12.372" font-family="Helvetica">
  5598 
</text>
<text x="361.903" y="72.7424" fill="black" font-size="12.372" font-family="Helvetica">
FWHM     
</text>
<text x="520.089" y="71.5878" fill="black" font-size="12.372" font-family="Helvetica">
 0.06
</text>
<text x="513.161" y="71.5878" fill="black" font-size="12.372" font-family="Times">
&#0177;
</text>
<text x="479.676" y="71.5878" fill="black" font-size="12.372" font-family="Helvetica">
 18.77 
</text>
<text x="361.903" y="88.9074" fill="black" font-size="12.372" font-family="Helvetica">
Counts   
</text>
<text x="487.759" y="88.9074" fill="black" font-size="12.372" font-family="Helvetica">
 3.498e+02
</text>
<text x="480.831" y="88.9074" fill="black" font-size="12.372" font-family="Times">
&#0177;
</text>
<text x="420.79" y="88.9074" fill="black" font-size="12.372" font-family="Helvetica">
 1.213e+05 
</text>
<text x="361.903" y="105.072" fill="black" font-size="12.372" font-family="Helvetica">
Intercept 
</text>
<text x="527.017" y="106.227" fill="black" font-size="12.372" font-family="Helvetica">
 9.5
</text>
<text x="520.089" y="106.227" fill="black" font-size="12.372" font-family="Times">
&#0177;
</text>
<text x="486.604" y="106.227" fill="black" font-size="12.372" font-family="Helvetica">
 561.7 
</text>
<text x="361.903" y="122.392" fill="black" font-size="12.372" font-family="Helvetica">
Slope    
</text>
<text x="507.388" y="123.547" fill="black" font-size="12.372" font-family="Helvetica">
 0.0017
</text>
<text x="500.46" y="123.547" fill="black" font-size="12.372" font-family="Times">
&#0177;
</text>
<text x="463.511" y="123.547" fill="black" font-size="12.372" font-family="Helvetica">
0.0968 
</text>
<text x="456.584" y="123.547" fill="black" font-size="12.372" font-family="Times">
&#8722;
</text>
<text x="454.274" y="123.547" fill="black" font-size="12.372" font-family="Helvetica">
 
</text>
<path d="M57.1929,334.615h 453.543" fill="none" stroke="black" stroke-width="2"/>
<text x="457.738" y="360.248" fill="black" font-size="12.4384" font-family="Helvetica">
Channels
</text>
<path d="M141.182,325.692v 8.92307" fill="none" stroke="black" stroke-width="2"/>
<path d="M162.18,330.154v 4.46154" fill="none" stroke="black" stroke-width="2"/>
<path d="M183.177,330.154v 4.46154" fill="none" stroke="black" stroke-width="2"/>
<path d="M204.175,330.154v 4.46154" fill="none" stroke="black" stroke-width="2"/>
<path d="M225.172,330.154v 4.46154" fill="none" stroke="black" stroke-width="2"/>
<path d="M246.169,325.692v 8.92307" fill="none" stroke="black" stroke-width="2"/>
<path d="M267.167,330.154v 4.46154" fill="none" stroke="black" stroke-width="2"/>
<path d="M288.164,330.154v 4.46154" fill="none" stroke="black" stroke-width="2"/>
<path d="M309.161,330.154v 4.46154" fill="none" stroke="black" stroke-width="2"/>
<path d="M330.159,330.154v 4.46154" fill="none" stroke="black" stroke-width="2"/>
<path d="M351.156,325.692v 8.92307" fill="none" stroke="black" stroke-width="2"/>
<path d="M372.154,330.154v 4.46154" fill="none" stroke="black" stroke-width="2"/>
<path d="M393.151,330.154v 4.46154" fill="none" stroke="black" stroke-width="2"/>
<path d="M414.148,330.154v 4.46154" fill="none" stroke="black" stroke-width="2"/>
<path d="M435.146,330.154v 4.46154" fill="none" stroke="black" stroke-width="2"/>
<path d="M456.143,325.692v 8.92307" fill="none" stroke="black" stroke-width="2"/>
<path d="M141.182,325.692v 8.92307" fill="none" stroke="black" stroke-width="2"/>
<path d="M120.185,330.154v 4.46154" fill="none" stroke="black" stroke-width="2"/>
<path d="M99.1877,330.154v 4.46154" fill="none" stroke="black" stroke-width="2"/>
<path d="M78.1903,330.154v 4.46154" fill="none" stroke="black" stroke-width="2"/>
<path d="M57.1929,330.154v 4.46154" fill="none" stroke="black" stroke-width="2"/>
<path d="M456.143,325.692v 8.92307" fill="none" stroke="black" stroke-width="2"/>
<path d="M477.14,330.154v 4.46154" fill="none" stroke="black" stroke-width="2"/>
<path d="M498.138,330.154v 4.46154" fill="none" stroke="black" stroke-width="2"/>
<text x="126.356" y="346.393" fill="black" font-size="12.4384" font-family="Helvetica">
5500
</text>
<text x="231.428" y="346.393" fill="black" font-size="12.4384" font-family="Helvetica">
5600
</text>
<text x="336.501" y="346.393" fill="black" font-size="12.4384" font-family="Helvetica">
5700
</text>
<text x="441.573" y="346.393" fill="black" font-size="12.4384" font-family="Helvetica">
5800
</text>
<path d="M57.1929,334.615v -297.436" fill="none" stroke="black" stroke-width="2"/>
<path d="M70.7992,334.615h -13.6063" fill="none" stroke="black" stroke-width="2"/>
<path d="M63.9961,326.414h -6.80315" fill="none" stroke="black" stroke-width="2"/>
<path d="M63.9961,318.213h -6.80315" fill="none" stroke="black" stroke-width="2"/>
<path d="M63.9961,310.011h -6.80315" fill="none" stroke="black" stroke-width="2"/>
<path d="M63.9961,301.81h -6.80315" fill="none" stroke="black" stroke-width="2"/>
<path d="M70.7992,293.609h -13.6063" fill="none" stroke="black" stroke-width="2"/>
<path d="M63.9961,285.408h -6.80315" fill="none" stroke="black" stroke-width="2"/>
<path d="M63.9961,277.206h -6.80315" fill="none" stroke="black" stroke-width="2"/>
<path d="M63.9961,269.005h -6.80315" fill="none" stroke="black" stroke-width="2"/>
<path d="M63.9961,260.804h -6.80315" fill="none" stroke="black" stroke-width="2"/>
<path d="M70.7992,252.602h -13.6063" fill="none" stroke="black" stroke-width="2"/>
<path d="M63.9961,244.401h -6.80315" fill="none" stroke="black" stroke-width="2"/>
<path d="M63.9961,236.2h -6.80315" fill="none" stroke="black" stroke-width="2"/>
<path d="M63.9961,227.999h -6.80315" fill="none" stroke="black" stroke-width="2"/>
<path d="M63.9961,219.797h -6.80315" fill="none" stroke="black" stroke-width="2"/>
<path d="M70.7992,211.596h -13.6063" fill="none" stroke="black" stroke-width="2"/>
<path d="M63.9961,203.395h -6.80315" fill="none" stroke="black" stroke-width="2"/>
<path d="M63.9961,195.193h -6.80315" fill="none" stroke="black" stroke-width="2"/>
<path d="M63.9961,186.992h -6.80315" fill="none" stroke="black" stroke-width="2"/>
<path d="M63.9961,178.791h -6.80315" fill="none" stroke="black" stroke-width="2"/>
<path d="M70.7992,170.59h -13.6063" fill="none" stroke="black" stroke-width="2"/>
<path d="M63.9961,162.388h -6.80315" fill="none" stroke="black" stroke-width="2"/>
<path d="M63.9961,154.187h -6.80315" fill="none" stroke="black" stroke-width="2"/>
<path d="M63.9961,145.986h -6.80315" fill="none" stroke="black" stroke-width="2"/>
<path d="M63.9961,137.785h -6.80315" fill="none" stroke="black" stroke-width="2"/>
<path d="M70.7992,129.583h -13.6063" fill="none" stroke="black" stroke-width="2"/>
<path d="M63.9961,121.382h -6.80315" fill="none" stroke="black" stroke-width="2"/>
<path d="M63.9961,113.181h -6.80315" fill="none" stroke="black" stroke-width="2"/>
<path d="M63.9961,104.979h -6.80315" fill="none" stroke="black" stroke-width="2"/>
<path d="M63.9961,96.7782h -6.80315" fill="none" stroke="black" stroke-width="2"/>
<path d="M70.7992,88.5769h -13.6063" fill="none" stroke="black" stroke-width="2"/>
<path d="M63.9961,80.3756h -6.80315" fill="none" stroke="black" stroke-width="2"/>
<path d="M63.9961,72.1743h -6.80315" fill="none" stroke="black" stroke-width="2"/>
<path d="M63.9961,63.973h -6.80315" fill="none" stroke="black" stroke-width="2"/>
<path d="M63.9961,55.7718h -6.80315" fill="none" stroke="black" stroke-width="2"/>
<path d="M70.7992,47.5705h -13.6063" fill="none" stroke="black" stroke-width="2"/>
<path d="M70.7992,47.5705h -13.6063" fill="none" stroke="black" stroke-width="2"/>
<path d="M63.9961,39.3692h -6.80315" fill="none" stroke="black" stroke-width="2"/>
<text x="46.6857" y="338.31" fill="black" font-size="12.4384" font-family="Helvetica">
0
</text>
<text x="25.9021" y="297.898" fill="black" font-size="12.4384" font-family="Helvetica">
1000
</text>
<text x="25.9021" y="256.33" fill="black" font-size="12.4384" font-family="Helvetica">
2000
</text>
<text x="25.9021" y="215.918" fill="black" font-size="12.4384" font-family="Helvetica">
3000
</text>
<text x="25.9021" y="174.351" fill="black" font-size="12.4384" font-family="Helvetica">
4000
</text>
<text x="25.9021" y="133.938" fill="black" font-size="12.4384" font-family="Helvetica">
5000
</text>
<text x="25.9021" y="92.3713" fill="black" font-size="12.4384" font-family="Helvetica">
6000
</text>
<text x="25.9021" y="51.9589" fill="black" font-size="12.4384" font-family="Helvetica">
7000
</text>
<rect x="351.996" y="24.1667" width="204.094" height="104.103" fill="white"/>
<path d="M351.996,128.269h 204.094" fill="none" stroke="black" stroke-width="2"/>
<path d="M556.091,128.269v -104.103" fill="none" stroke="black" stroke-width="2"/>
<path d="M556.091,24.1667h -204.094" fill="none" stroke="black" stroke-width="2"/>
<path d="M351.996,24.1667v 104.103" fill="none" stroke="black" stroke-width="2"/>
<text x="373.449" y="35.7939" fill="black" font-size="12.372" font-family="Helvetica">
 / ndf 
</text>
<text x="368.831" y="32.33" fill="black" font-size="8.4147" font-family="Helvetica">
2
</text>
<text x="361.903" y="35.7939" fill="black" font-size="12.372" font-family="Times">
&#0967;
</text>
<text x="460.047" y="36.9485" fill="black" font-size="12.372" font-family="Helvetica">
 1.485e+04 / 422
</text>
<text x="361.903" y="54.2682" fill="black" font-size="12.372" font-family="Helvetica">
Centroid 
</text>
<text x="527.017" y="54.2682" fill="black" font-size="12.372" font-family="Helvetica">
 0.0
</text>
<text x="520.089" y="54.2682" fill="black" font-size="12.372" font-family="Times">
&#0177;
</text>
<text x="486.604" y="54.2682" fill="black" font-size="12.372" font-family="Helvetica">
  5598 
</text>
<text x="361.903" y="72.7424" fill="black" font-size="12.372" font-family="Helvetica">
FWHM     
</text>
<text x="520.089" y="71.5878" fill="black" font-size="12.372" font-family="Helvetica">
 0.06
</text>
<text x="513.161" y="71.5878" fill="black" font-size="12.372" font-family="Times">
&#0177;
</text>
<text x="479.676" y="71.5878" fill="black" font-size="12.372" font-family="Helvetica">
 18.77 
</text>
<text x="361.903" y="88.9074" fill="black" font-size="12.372" font-family="Helvetica">
Counts   
</text>
<text x="487.759" y="88.9074" fill="black" font-size="12.372" font-family="Helvetica">
 3.498e+02
</text>
<text x="480.831" y="88.9074" fill="black" font-size="12.372" font-family="Times">
&#0177;
</text>
<text x="420.79" y="88.9074" fill="black" font-size="12.372" font-family="Helvetica">
 1.213e+05 
</text>
<text x="361.903" y="105.072" fill="black" font-size="12.372" font-family="Helvetica">
Intercept 
</text>
<text x="527.017" y="106.227" fill="black" font-size="12.372" font-family="Helvetica">
 9.5
</text>
<text x="520.089" y="106.227" fill="black" font-size="12.372" font-family="Times">
&#0177;
</text>
<text x="486.604" y="106.227" fill="black" font-size="12.372" font-family="Helvetica">
 561.7 
</text>
<text x="361.903" y="122.392" fill="black" font-size="12.372" font-family="Helvetica">
Slope    
</text>
<text x="507.388" y="123.547" fill="black" font-size="12.372" font-family="Helvetica">
 0.0017
</text>
<text x="500.46" y="123.547" fill="black" font-size="12.372" font-family="Times">
&#0177;
</text>
<text x="463.511" y="123.547" fill="black" font-size="12.372" font-family="Helvetica">
0.0968 
</text>
<text x="456.584" y="123.547" fill="black" font-size="12.372" font-family="Times">
&#8722;
</text>
<text x="454.274" y="123.547" fill="black" font-size="12.372" font-family="Helvetica">
 
</text>
<path d="M59.4606,334.615h 145.134l 4.53543, -0.0389907l 4.53543, -0.285173l 4.53543, -1.68716l 4.53543, -7.30223l 4.53543, -22.8723l 4.53543, -50.824l 4.53543, -76.7656l 4.53543, -69.737l 4.53543, -16.5345l 4.53543, 49.1924l 4.53543, 79.3138l
 4.53543, 65.163l 4.53543, 34.9589l 4.53543, 13.0957l 4.53543, 3.52247l 4.53543, 0.690089l 4.53543, 0.110698" fill="none" stroke="#00ff00" stroke-width="2"/>
<path d="M281.697,334.615h 222.236" fill="none" stroke="#00ff00" stroke-width="2"/>
<path d="M503.933,334.615h 4.53543" fill="none" stroke="#00ff00" stroke-width="2"/>
<text x="244.129" y="18.4743" fill="black" font-size="16.4462" font-family="Helvetica">
2.8kV.TKA
</text></svg>
