<?xml version="1.0" standalone="no"?>
<svg width="567.429" height="336.559" viewBox="0 0 567.429 336.559" xmlns="http://www.w3.org/2000/svg">
<title>
/home/ADF/hyw543/HPGeEnviro/Elevated/ResolutionVBias/c1.svg
</title>
<desc>
Creator: ROOT Version 6.06/08
CreationDate: Thu Jan 24 19:30:45 2019</desc>
<defs>
</defs>
<rect x="0.5" y="0" width="566.929" height="336.059" fill="white"/>
<rect x="57.1929" y="33.6059" width="453.543" height="268.847" fill="white"/>
<rect x="57.1929" y="33.6059" width="453.543" height="268.847" fill="none" stroke="black"/>
<rect x="57.1929" y="33.6059" width="453.543" height="268.847" fill="white"/>
<rect x="57.1929" y="33.6059" width="453.543" height="268.847" fill="none" stroke="black"/>
<path d="M57.1929,302.129h 1.22249v -0.360779h 2.44498v -0.0360779h 1.22249v 0.0721559h 1.22249v -0.18039h 1.22249v -0.0721559h 1.22249v 0.432935h 1.22249v -0.288623h 1.22249v 0.324701h 1.22249v -0.396857h 1.22249v 0.324701h 1.22249v -0.324701h
 1.22249v 0.216468h 1.22249v -0.216468h 1.22249v 0.18039h 2.44498v 0.0721559h 1.22249v -0.108234h 1.22249v 0.108234h 1.22249v -0.216468h 1.22249v 0.0360779h 1.22249v 0.108234h 1.22249v -0.108234h 1.22249v 0.0721559h 1.22249v 0.18039h 1.22249v
 -0.144312h 1.22249v -0.432935h 1.22249v 0.252546h 1.22249v 0.396857h 1.22249v -0.216468h 1.22249v 0.0360779h 1.22249v -0.144312h 1.22249v 0.18039h 1.22249v -0.288623h 1.22249v 0.216468h 1.22249v 0.108234h 1.22249v -0.18039h 1.22249v 0.0721559h
 1.22249v -0.252546h 1.22249v 0.216468h 1.22249v -0.108234h 1.22249v 0.0721559h 1.22249v -0.396857h 1.22249v 0.252546h 1.22249v 0.288623h 1.22249v -0.0721559h 1.22249v -0.108234h 1.22249v -0.0721559h 1.22249v -0.252546h 1.22249v 0.360779h 1.22249v
 -0.216468h 1.22249v -0.144312h 1.22249v 0.216468h 1.22249v 0.216468h 1.22249v -0.288623h 1.22249v -0.396857h 1.22249v 0.541169h 1.22249v 0.0360779h 1.22249v -0.324701h 1.22249v 0.432935h 1.22249v -0.360779h 2.44498v 0.216468h 1.22249v -0.288623h
 1.22249v 0.144312h 1.22249v -0.396857h 1.22249v 0.469013h 1.22249v -0.144312h 1.22249v -0.144312h 1.22249v 0.216468h 1.22249v -0.0360779h 1.22249v -0.108234h 1.22249v -0.0360779h 1.22249v -0.108234h 1.22249v 0.541169h 1.22249v -0.144312h 1.22249v
 -0.469013h 1.22249v -0.108234h 1.22249v 0.324701h 1.22249v -0.0721559h 2.44498v 0.0721559h 1.22249v -0.252546h 1.22249v -0.0360779h 1.22249v 0.18039h 1.22249v -0.0721559h 1.22249v 0.216468h 1.22249v -0.144312h 1.22249v -0.0360779h 1.22249v -0.18039h
 1.22249v 0.288623h 1.22249v -0.216468h 1.22249v 0.324701h 1.22249v -0.432935h 1.22249v 0.0360779h 1.22249v 0.144312h 1.22249v -0.252546h 1.22249v 0.144312h 1.22249v -0.0721559h 1.22249v -0.216468h 2.44498v 0.252546h 1.22249v -0.18039h 1.22249v
 -0.108234h 1.22249v -0.0360779h 1.22249v -0.144312h 1.22249v 0.18039h 1.22249v 0.252546h 1.22249v -0.541169h 1.22249v 0.0721559h 2.44498v -0.18039h 1.22249v 0.0721559h 1.22249v 0.252546h 1.22249v -0.18039h 1.22249v -0.0360779h 1.22249v -0.0721559h
 1.22249v -0.108234h 1.22249v 0.396857h 1.22249v -0.757637h 1.22249v 0.216468h 1.22249v -0.0360779h 1.22249v 0.505091h 1.22249v -0.288623h 1.22249v -0.613325h 1.22249v 0.216468h 1.22249v 0.144312h 1.22249v 0.252546h 1.22249v -0.613325h 1.22249v
 0.0721559h 1.22249v -0.216468h 1.22249v -0.252546h 1.22249v -0.396857h 1.22249v 0.216468h 1.22249v 0.0721559h 1.22249v -1.4792h 1.22249v 0.505091h 2.44498v -0.721559h 1.22249v 0.324701h 1.22249v -0.288623h 1.22249v 0.108234h 1.22249v -0.252546h
 1.22249v -1.01018h 1.22249v 0.216468h 1.22249v -0.505091h 1.22249v 0.18039h 1.22249v -1.69566h 1.22249v 0.432935h 1.22249v -1.15449h 1.22249v -2.63369h 1.22249v 1.08234h 1.22249v -0.252546h 1.22249v -0.793715h 1.22249v -3.4274h 1.22249v 0.144312h
 1.22249v -3.39133h 1.22249v -1.4792h 1.22249v -0.829792h 1.22249v -3.57172h 1.22249v -3.35525h 1.22249v -8.6587h 1.22249v -3.13878h 1.22249v -5.12307h 1.22249v -9.70496h 1.22249v -6.92696h 1.22249v -14.2869h 1.22249v -17.2813h 1.22249v -21.1417h
 1.22249v -16.9927h 1.22249v -20.817h 1.22249v -17.6421h 1.22249v -24.3165h 1.22249v -22.5487h 1.22249v -15.3331h 1.22249v -9.70496h 1.22249v -13.9261h 1.22249v -1.40704h 1.22249v 9.59673h 1.22249v 7.72068h 1.22249v 20.4562h 1.22249v 12.9159h
 1.22249v 23.631h 1.22249v 18.1111h 1.22249v 25.8679h 1.22249v 23.5228h 1.22249v 20.4562h 1.22249v 17.3896h 1.22249v 9.95751h 1.22249v 15.4053h 1.22249v 7.97322h 1.22249v 5.91678h 1.22249v 5.33953h 1.22249v 4.69013h 1.22249v 3.31917h 1.22249v
 0.18039h 1.22249v 4.61798h 1.22249v -1.04626h 1.22249v 2.20075h 1.22249v 1.15449h 1.22249v -0.541169h 1.22249v 2.20075h 1.22249v -0.86587h 1.22249v 1.19057h 1.22249v -0.360779h 1.22249v 2.23683h 1.22249v 0.685481h 1.22249v -0.288623h 1.22249v
 0.721559h 1.22249v 0.541169h 1.22249v -0.541169h 1.22249v 0.685481h 1.22249v 1.40704h 1.22249v -0.0360779h 1.22249v 0.757637h 1.22249v -0.324701h 1.22249v 1.58743h 1.22249v -0.288623h 1.22249v 0.829792h 1.22249v 0.216468h 1.22249v -0.829792h
 1.22249v 0.757637h 1.22249v 1.87605h 1.22249v -0.288623h 1.22249v 0.108234h 1.22249v 0.757637h 1.22249v -0.108234h 1.22249v 0.505091h 1.22249v 0.0721559h 1.22249v 0.577247h 1.22249v 0.396857h 1.22249v 0.288623h 1.22249v -0.324701h 1.22249v 0.18039h
 1.22249v -0.252546h 1.22249v 0.613325h 1.22249v -0.541169h 1.22249v 0.685481h 1.22249v 0.469013h 1.22249v -0.0721559h 1.22249v 0.396857h 1.22249v -0.396857h 1.22249v 0.505091h 1.22249v 0.144312h 1.22249v 0.0721559h 1.22249v -0.0721559h 1.22249v
 -0.0360779h 1.22249v 0.252546h 1.22249v 0.0360779h 1.22249v 0.0360779h 1.22249v -0.360779h 1.22249v 0.252546h 1.22249v 0.649403h 1.22249v -0.324701h 1.22249v 0.396857h 1.22249v 0.0360779h 1.22249v -0.108234h 2.44498v -0.144312h 1.22249v 0.108234h
 1.22249v 0.108234h 1.22249v -0.0721559h 1.22249v 0.108234h 3.66747v -0.0721559h 1.22249v 0.108234h 1.22249v 0.108234h 2.44498v -0.0721559h 1.22249v 0.0721559h 1.22249v -0.0360779h 1.22249v 0.0360779h 1.22249v -0.144312h 1.22249v 0.18039h 2.44498v
 0.0360779h 2.44498v -0.144312h 1.22249v 0.18039h 2.44498v 0.0360779h 1.22249v -0.144312h 2.44498v 0.0360779h 1.22249v -0.0721559h 1.22249v 0.252546h 1.22249v -0.0360779h 1.22249v -0.0721559h 1.22249v -0.0360779h 2.44498v 0.0360779h 1.22249v
 -0.0360779h 1.22249v 0.144312h 1.22249v -0.108234h 1.22249v 0.108234h 1.22249v -0.0721559h 2.44498v -0.0360779h 1.22249v 0.0721559h 1.22249v -0.108234h 1.22249v -0.0360779h 1.22249v 0.144312h 1.22249v -0.0360779h 1.22249v -0.0721559h 1.22249v
 0.108234h 2.44498v -0.108234h 1.22249v -0.0360779h 1.22249v 0.0360779h 1.22249v -0.0721559h 1.22249v 0.18039h 1.22249v -0.0721559h 1.22249v -0.0360779h 1.22249v 0.0360779h 2.44498v -0.18039h 1.22249v 0.252546h 1.22249v -0.108234h 2.44498v
 -0.0360779h 1.22249v 0.0360779h 1.22249v 0.0721559h 2.44498v -0.0360779h 1.22249v -0.0360779h 1.22249v 0.0360779h 1.22249v -0.108234h 1.22249v 0.108234h 1.22249v 0.0360779h 1.22249v 0.0360779h 1.22249v -0.0360779h 1.22249v -0.108234h 1.22249v
 0.144312h 1.22249v -0.216468h 1.22249v 0.216468h 1.22249v -0.0721559h 1.22249v 0.0721559h 1.22249v -0.0721559h 1.22249v -0.108234h 1.22249v 0.0721559h 1.22249v 0.144312h 1.22249v -0.0360779h 1.22249v -0.0360779h 1.22249v -0.0360779h 1.22249v
 -0.144312h 3.66747v 0.252546h 1.22249v -0.18039h 1.22249v 0.0360779h 2.44498v 0.0360779h 1.22249v -0.0360779h 1.22249v 0.18039h 1.22249v -0.144312h 1.22249v 0.0721559h 1.22249v 0.0360779h 1.22249v -0.0360779h 1.22249v -0.18039h 1.22249v 0.216468h
 1.22249v -0.18039h 1.22249v 0.0721559h 1.22249v -0.0721559h 1.22249v 0.18039h 1.22249v -0.108234h 2.44498v 0.108234h 1.22249v -0.0721559h 1.22249v -0.108234h 1.22249" fill="none" stroke="#ff0000" stroke-width="2"/>
<path d="M59.4606,301.235l 4.53543, 0.0120046l 4.53543, 0.0120046l 4.53543, 0.0120046l 4.53543, 0.0120046l 4.53543, 0.0120046l 4.53543, 0.0120046l 4.53543, 0.0120046l 4.53543, 0.0120046l 4.53543, 0.0120046l 4.53543, 0.0120046l 4.53543, 0.0120046l
 4.53543, 0.0120046l 4.53543, 0.0120046l 4.53543, 0.0120046l 4.53543, 0.0120046l 4.53543, 0.0120046l 4.53543, 0.0120046l 4.53543, 0.0120046l 4.53543, 0.0120046l 4.53543, 0.0120046l 4.53543, 0.0120046l 4.53543, 0.0120046l 4.53543, 0.0120046l 4.53543,
 0.0120046l 4.53543, 0.0120046l 4.53543, 0.0120046l 4.53543, 0.0120046l 4.53543, 0.0120046l 4.53543, 0.0120046l 4.53543, 0.0120046l 4.53543, 0.0120046l 4.53543, 0.0120046l 4.53543, 0.0120046l 4.53543, 0.0120041l 4.53543, 0.0119968l 4.53543,
 0.0118989l 4.53543, 0.0108508l 4.53543, 0.00193656l 4.53543, -0.0580863l 4.53543, -0.376416l 4.53543, -1.69596l 4.53543, -5.91896l 4.53543, -16.132l 4.53543, -34.0047l 4.53543, -54.1771l 4.53543, -61.8771l 4.53543, -42.7663l 4.53543, -0.0718854l
 4.53543, 42.6721" fill="none" stroke="#0000ff" stroke-width="2"/>
<path d="M281.697,127.274l 4.53543, 61.8859l 4.53543, 54.2608l 4.53543, 34.102l 4.53543, 16.206l 4.53543, 5.96653l 4.53543, 1.7282l 4.53543, 0.402619l 4.53543, 0.0825484l 4.53543, 0.0221458l 4.53543, 0.0131677l 4.53543, 0.0121112l 4.53543, 0.0120124l
 4.53543, 0.012005l 4.53543, 0.0120046l 4.53543, 0.0120046l 4.53543, 0.0120046l 4.53543, 0.0120046l 4.53543, 0.0120046l 4.53543, 0.0120046l 4.53543, 0.0120046l 4.53543, 0.0120046l 4.53543, 0.0120046l 4.53543, 0.0120046l 4.53543, 0.0120046l 4.53543,
 0.0120046l 4.53543, 0.0120046l 4.53543, 0.0120046l 4.53543, 0.0120046l 4.53543, 0.0120046l 4.53543, 0.0120046l 4.53543, 0.0120046l 4.53543, 0.0120046l 4.53543, 0.0120046l 4.53543, 0.0120046l 4.53543, 0.0120046l 4.53543, 0.0120046l 4.53543,
 0.0120046l 4.53543, 0.0120046l 4.53543, 0.0120046l 4.53543, 0.0120046l 4.53543, 0.0120046l 4.53543, 0.0120046l 4.53543, 0.0120046l 4.53543, 0.0120046l 4.53543, 0.0120046l 4.53543, 0.0120046l 4.53543, 0.0120046l 4.53543, 0.0120046l 4.53543,
 0.0120046" fill="none" stroke="#0000ff" stroke-width="2"/>
<path d="M503.933,302.412l 4.53543, 0.0120046" fill="none" stroke="#0000ff" stroke-width="2"/>
<rect x="351.996" y="21.8438" width="204.094" height="94.0966" fill="white"/>
<path d="M351.996,115.94h 204.094" fill="none" stroke="black" stroke-width="2"/>
<path d="M556.091,115.94v -94.0966" fill="none" stroke="black" stroke-width="2"/>
<path d="M556.091,21.8438h -204.094" fill="none" stroke="black" stroke-width="2"/>
<path d="M351.996,21.8438v 94.0966" fill="none" stroke="black" stroke-width="2"/>
<text x="373.444" y="34.1524" fill="black" font-size="12.1791" font-family="Helvetica">
 / ndf 
</text>
<text x="367.979" y="30.0541" fill="black" font-size="8.28607" font-family="Helvetica">
2
</text>
<text x="361.149" y="34.1524" fill="black" font-size="12.1791" font-family="Times">
&#0967;
</text>
<text x="454.043" y="34.1524" fill="black" font-size="12.1791" font-family="Helvetica">
 1.448e+04 / 365
</text>
<text x="361.149" y="50.5455" fill="black" font-size="12.1791" font-family="Helvetica">
Centroid 
</text>
<text x="525.08" y="50.5455" fill="black" font-size="12.1791" font-family="Helvetica">
 0.0
</text>
<text x="518.25" y="50.5455" fill="black" font-size="12.1791" font-family="Times">
&#0177;
</text>
<text x="481.365" y="50.5455" fill="black" font-size="12.1791" font-family="Helvetica">
  5598 
</text>
<text x="361.149" y="65.5725" fill="black" font-size="12.1791" font-family="Helvetica">
FWHM     
</text>
<text x="518.25" y="65.5725" fill="black" font-size="12.1791" font-family="Helvetica">
 0.06
</text>
<text x="511.419" y="65.5725" fill="black" font-size="12.1791" font-family="Times">
&#0177;
</text>
<text x="474.535" y="65.5725" fill="black" font-size="12.1791" font-family="Helvetica">
 18.63 
</text>
<text x="361.149" y="81.9657" fill="black" font-size="12.1791" font-family="Helvetica">
Counts   
</text>
<text x="484.097" y="81.9657" fill="black" font-size="12.1791" font-family="Helvetica">
 3.519e+02
</text>
<text x="477.267" y="81.9657" fill="black" font-size="12.1791" font-family="Times">
&#0177;
</text>
<text x="413.06" y="81.9657" fill="black" font-size="12.1791" font-family="Helvetica">
 1.229e+05 
</text>
<text x="361.149" y="95.6266" fill="black" font-size="12.1791" font-family="Helvetica">
Intercept 
</text>
<text x="525.08" y="96.9927" fill="black" font-size="12.1791" font-family="Helvetica">
 9.5
</text>
<text x="518.25" y="96.9927" fill="black" font-size="12.1791" font-family="Times">
&#0177;
</text>
<text x="485.463" y="96.9927" fill="black" font-size="12.1791" font-family="Helvetica">
   520 
</text>
<text x="361.149" y="112.02" fill="black" font-size="12.1791" font-family="Helvetica">
Slope    
</text>
<text x="497.758" y="113.386" fill="black" font-size="12.1791" font-family="Helvetica">
 0.00166
</text>
<text x="490.928" y="113.386" fill="black" font-size="12.1791" font-family="Times">
&#0177;
</text>
<text x="444.481" y="113.386" fill="black" font-size="12.1791" font-family="Helvetica">
0.08969 
</text>
<text x="437.65" y="113.386" fill="black" font-size="12.1791" font-family="Times">
&#8722;
</text>
<text x="434.918" y="113.386" fill="black" font-size="12.1791" font-family="Helvetica">
 
</text>
<path d="M57.1929,302.453h 453.543" fill="none" stroke="black" stroke-width="2"/>
<text x="464.972" y="325.13" fill="black" font-size="11.2909" font-family="Helvetica">
Channels
</text>
<path d="M154.992,294.388v 8.06542" fill="none" stroke="black" stroke-width="2"/>
<path d="M179.442,298.421v 4.03271" fill="none" stroke="black" stroke-width="2"/>
<path d="M203.892,298.421v 4.03271" fill="none" stroke="black" stroke-width="2"/>
<path d="M228.341,298.421v 4.03271" fill="none" stroke="black" stroke-width="2"/>
<path d="M252.791,298.421v 4.03271" fill="none" stroke="black" stroke-width="2"/>
<path d="M277.241,294.388v 8.06542" fill="none" stroke="black" stroke-width="2"/>
<path d="M301.691,298.421v 4.03271" fill="none" stroke="black" stroke-width="2"/>
<path d="M326.14,298.421v 4.03271" fill="none" stroke="black" stroke-width="2"/>
<path d="M350.59,298.421v 4.03271" fill="none" stroke="black" stroke-width="2"/>
<path d="M375.04,298.421v 4.03271" fill="none" stroke="black" stroke-width="2"/>
<path d="M399.49,294.388v 8.06542" fill="none" stroke="black" stroke-width="2"/>
<path d="M154.992,294.388v 8.06542" fill="none" stroke="black" stroke-width="2"/>
<path d="M130.542,298.421v 4.03271" fill="none" stroke="black" stroke-width="2"/>
<path d="M106.092,298.421v 4.03271" fill="none" stroke="black" stroke-width="2"/>
<path d="M81.6427,298.421v 4.03271" fill="none" stroke="black" stroke-width="2"/>
<path d="M57.1929,298.421v 4.03271" fill="none" stroke="black" stroke-width="2"/>
<path d="M399.49,294.388v 8.06542" fill="none" stroke="black" stroke-width="2"/>
<path d="M423.94,298.421v 4.03271" fill="none" stroke="black" stroke-width="2"/>
<path d="M448.389,298.421v 4.03271" fill="none" stroke="black" stroke-width="2"/>
<path d="M472.839,298.421v 4.03271" fill="none" stroke="black" stroke-width="2"/>
<path d="M497.289,298.421v 4.03271" fill="none" stroke="black" stroke-width="2"/>
<text x="142.574" y="312.836" fill="black" font-size="11.2909" font-family="Helvetica">
5500
</text>
<text x="264.156" y="312.836" fill="black" font-size="11.2909" font-family="Helvetica">
5600
</text>
<text x="387.105" y="312.836" fill="black" font-size="11.2909" font-family="Helvetica">
5700
</text>
<path d="M57.1929,302.453v -268.847" fill="none" stroke="black" stroke-width="2"/>
<path d="M70.7992,302.453h -13.6063" fill="none" stroke="black" stroke-width="2"/>
<path d="M63.9961,295.238h -6.80315" fill="none" stroke="black" stroke-width="2"/>
<path d="M63.9961,288.022h -6.80315" fill="none" stroke="black" stroke-width="2"/>
<path d="M63.9961,280.807h -6.80315" fill="none" stroke="black" stroke-width="2"/>
<path d="M63.9961,273.591h -6.80315" fill="none" stroke="black" stroke-width="2"/>
<path d="M70.7992,266.375h -13.6063" fill="none" stroke="black" stroke-width="2"/>
<path d="M63.9961,259.16h -6.80315" fill="none" stroke="black" stroke-width="2"/>
<path d="M63.9961,251.944h -6.80315" fill="none" stroke="black" stroke-width="2"/>
<path d="M63.9961,244.729h -6.80315" fill="none" stroke="black" stroke-width="2"/>
<path d="M63.9961,237.513h -6.80315" fill="none" stroke="black" stroke-width="2"/>
<path d="M70.7992,230.297h -13.6063" fill="none" stroke="black" stroke-width="2"/>
<path d="M63.9961,223.082h -6.80315" fill="none" stroke="black" stroke-width="2"/>
<path d="M63.9961,215.866h -6.80315" fill="none" stroke="black" stroke-width="2"/>
<path d="M63.9961,208.651h -6.80315" fill="none" stroke="black" stroke-width="2"/>
<path d="M63.9961,201.435h -6.80315" fill="none" stroke="black" stroke-width="2"/>
<path d="M70.7992,194.219h -13.6063" fill="none" stroke="black" stroke-width="2"/>
<path d="M63.9961,187.004h -6.80315" fill="none" stroke="black" stroke-width="2"/>
<path d="M63.9961,179.788h -6.80315" fill="none" stroke="black" stroke-width="2"/>
<path d="M63.9961,172.573h -6.80315" fill="none" stroke="black" stroke-width="2"/>
<path d="M63.9961,165.357h -6.80315" fill="none" stroke="black" stroke-width="2"/>
<path d="M70.7992,158.142h -13.6063" fill="none" stroke="black" stroke-width="2"/>
<path d="M63.9961,150.926h -6.80315" fill="none" stroke="black" stroke-width="2"/>
<path d="M63.9961,143.71h -6.80315" fill="none" stroke="black" stroke-width="2"/>
<path d="M63.9961,136.495h -6.80315" fill="none" stroke="black" stroke-width="2"/>
<path d="M63.9961,129.279h -6.80315" fill="none" stroke="black" stroke-width="2"/>
<path d="M70.7992,122.064h -13.6063" fill="none" stroke="black" stroke-width="2"/>
<path d="M63.9961,114.848h -6.80315" fill="none" stroke="black" stroke-width="2"/>
<path d="M63.9961,107.632h -6.80315" fill="none" stroke="black" stroke-width="2"/>
<path d="M63.9961,100.417h -6.80315" fill="none" stroke="black" stroke-width="2"/>
<path d="M63.9961,93.2013h -6.80315" fill="none" stroke="black" stroke-width="2"/>
<path d="M70.7992,85.9857h -13.6063" fill="none" stroke="black" stroke-width="2"/>
<path d="M63.9961,78.7701h -6.80315" fill="none" stroke="black" stroke-width="2"/>
<path d="M63.9961,71.5545h -6.80315" fill="none" stroke="black" stroke-width="2"/>
<path d="M63.9961,64.3389h -6.80315" fill="none" stroke="black" stroke-width="2"/>
<path d="M63.9961,57.1233h -6.80315" fill="none" stroke="black" stroke-width="2"/>
<path d="M70.7992,49.9077h -13.6063" fill="none" stroke="black" stroke-width="2"/>
<path d="M70.7992,49.9077h -13.6063" fill="none" stroke="black" stroke-width="2"/>
<path d="M63.9961,42.6922h -6.80315" fill="none" stroke="black" stroke-width="2"/>
<path d="M63.9961,35.4766h -6.80315" fill="none" stroke="black" stroke-width="2"/>
<text x="46.9472" y="306.005" fill="black" font-size="11.2909" font-family="Helvetica">
0
</text>
<text x="29.188" y="269.121" fill="black" font-size="11.2909" font-family="Helvetica">
1000
</text>
<text x="29.188" y="233.602" fill="black" font-size="11.2909" font-family="Helvetica">
2000
</text>
<text x="29.188" y="198.084" fill="black" font-size="11.2909" font-family="Helvetica">
3000
</text>
<text x="29.188" y="161.199" fill="black" font-size="11.2909" font-family="Helvetica">
4000
</text>
<text x="29.188" y="125.681" fill="black" font-size="11.2909" font-family="Helvetica">
5000
</text>
<text x="29.188" y="88.7961" fill="black" font-size="11.2909" font-family="Helvetica">
6000
</text>
<text x="29.188" y="53.2777" fill="black" font-size="11.2909" font-family="Helvetica">
7000
</text>
<rect x="351.996" y="21.8438" width="204.094" height="94.0966" fill="white"/>
<path d="M351.996,115.94h 204.094" fill="none" stroke="black" stroke-width="2"/>
<path d="M556.091,115.94v -94.0966" fill="none" stroke="black" stroke-width="2"/>
<path d="M556.091,21.8438h -204.094" fill="none" stroke="black" stroke-width="2"/>
<path d="M351.996,21.8438v 94.0966" fill="none" stroke="black" stroke-width="2"/>
<text x="373.444" y="34.1524" fill="black" font-size="12.1791" font-family="Helvetica">
 / ndf 
</text>
<text x="367.979" y="30.0541" fill="black" font-size="8.28607" font-family="Helvetica">
2
</text>
<text x="361.149" y="34.1524" fill="black" font-size="12.1791" font-family="Times">
&#0967;
</text>
<text x="454.043" y="34.1524" fill="black" font-size="12.1791" font-family="Helvetica">
 1.448e+04 / 365
</text>
<text x="361.149" y="50.5455" fill="black" font-size="12.1791" font-family="Helvetica">
Centroid 
</text>
<text x="525.08" y="50.5455" fill="black" font-size="12.1791" font-family="Helvetica">
 0.0
</text>
<text x="518.25" y="50.5455" fill="black" font-size="12.1791" font-family="Times">
&#0177;
</text>
<text x="481.365" y="50.5455" fill="black" font-size="12.1791" font-family="Helvetica">
  5598 
</text>
<text x="361.149" y="65.5725" fill="black" font-size="12.1791" font-family="Helvetica">
FWHM     
</text>
<text x="518.25" y="65.5725" fill="black" font-size="12.1791" font-family="Helvetica">
 0.06
</text>
<text x="511.419" y="65.5725" fill="black" font-size="12.1791" font-family="Times">
&#0177;
</text>
<text x="474.535" y="65.5725" fill="black" font-size="12.1791" font-family="Helvetica">
 18.63 
</text>
<text x="361.149" y="81.9657" fill="black" font-size="12.1791" font-family="Helvetica">
Counts   
</text>
<text x="484.097" y="81.9657" fill="black" font-size="12.1791" font-family="Helvetica">
 3.519e+02
</text>
<text x="477.267" y="81.9657" fill="black" font-size="12.1791" font-family="Times">
&#0177;
</text>
<text x="413.06" y="81.9657" fill="black" font-size="12.1791" font-family="Helvetica">
 1.229e+05 
</text>
<text x="361.149" y="95.6266" fill="black" font-size="12.1791" font-family="Helvetica">
Intercept 
</text>
<text x="525.08" y="96.9927" fill="black" font-size="12.1791" font-family="Helvetica">
 9.5
</text>
<text x="518.25" y="96.9927" fill="black" font-size="12.1791" font-family="Times">
&#0177;
</text>
<text x="485.463" y="96.9927" fill="black" font-size="12.1791" font-family="Helvetica">
   520 
</text>
<text x="361.149" y="112.02" fill="black" font-size="12.1791" font-family="Helvetica">
Slope    
</text>
<text x="497.758" y="113.386" fill="black" font-size="12.1791" font-family="Helvetica">
 0.00166
</text>
<text x="490.928" y="113.386" fill="black" font-size="12.1791" font-family="Times">
&#0177;
</text>
<text x="444.481" y="113.386" fill="black" font-size="12.1791" font-family="Helvetica">
0.08969 
</text>
<text x="437.65" y="113.386" fill="black" font-size="12.1791" font-family="Times">
&#8722;
</text>
<text x="434.918" y="113.386" fill="black" font-size="12.1791" font-family="Helvetica">
 
</text>
<path d="M59.4606,302.453h 172.346l 4.53543, -0.0814266l 4.53543, -0.388421l 4.53543, -1.70796l 4.53543, -5.93096l 4.53543, -16.144l 4.53543, -34.0167l 4.53543, -54.1891l 4.53543, -61.8891l 4.53543, -42.7783l 4.53543, -0.08389l 4.53543, 42.6601"
 fill="none" stroke="#00ff00" stroke-width="2"/>
<path d="M281.697,127.903l 4.53543, 61.8739l 4.53543, 54.2488l 4.53543, 34.09l 4.53543, 16.194l 4.53543, 5.95453l 4.53543, 1.7162l 4.53543, 0.390615l 4.53543, 0.081963h 185.953" fill="none" stroke="#00ff00" stroke-width="2"/>
<path d="M503.933,302.453h 4.53543" fill="none" stroke="#00ff00" stroke-width="2"/>
<text x="247.763" y="16.3931" fill="black" font-size="14.9135" font-family="Helvetica">
3.0kV.TKA
</text></svg>
