<?xml version="1.0" standalone="no"?>
<svg width="567.429" height="326.569" viewBox="0 0 567.429 326.569" xmlns="http://www.w3.org/2000/svg">
<title>
/home/ADF/hyw543/Coincidence/c1.svg
</title>
<desc>
Creator: ROOT Version 6.06/08
CreationDate: Mon Jan  7 20:54:15 2019</desc>
<defs>
</defs>
<rect x="0.5" y="0" width="566.929" height="326.069" fill="white"/>
<rect x="57.1929" y="32.6069" width="453.543" height="260.856" fill="white"/>
<rect x="57.1929" y="32.6069" width="453.543" height="260.856" fill="none" stroke="black"/>
<rect x="57.1929" y="32.6069" width="453.543" height="260.856" fill="white"/>
<rect x="57.1929" y="32.6069" width="453.543" height="260.856" fill="none" stroke="black"/>
<path d="M57.1929,293.463h 30.2693v -7.30688h 0.496218v 7.30688h 90.8079v -7.30688h 0.496218v 7.30688h 1.48865v -7.30688h 0.496218v 7.30688h 0.496218v -14.6138h 0.496218v 14.6138h 0.992436v -14.6138h 0.496218v 14.6138h 0.992436v -7.30688h 1.48865v
 7.30688h 0.496218v -7.30688h 0.496218v 7.30688h 0.496218v -14.6138h 0.496218v 14.6138h 0.496218v -7.30688h 0.496218v -7.30688h 0.496218v 7.30688h 0.496218v -7.30688h 0.496218v 14.6138h 0.496218v -14.6138h 1.48865v -7.30688h 0.496218v 14.6138h
 0.496218v -21.9206h 0.496218v -29.2275h 0.496218v 21.9206h 0.496218v -7.30688h 0.496218v 29.2275h 0.496218v -29.2275h 0.496218v 21.9206h 0.496218v -21.9206h 0.496218v 14.6138h 0.496218v -21.9206h 0.496218v -43.8413h 0.496218v 43.8413h 0.496218v
 -7.30688h 0.992436v 21.9206h 0.496218v -43.8413h 0.496218v -29.2275h 0.496218v 29.2275h 0.496218v 21.9206h 0.496218v -14.6138h 0.992436v 21.9206h 0.496218v -87.6825h 0.496218v 21.9206h 0.496218v 21.9206h 0.496218v -73.0688h 0.496218v 80.3757h
 0.496218v -36.5344h 0.496218v 14.6138h 0.496218v 14.6138h 0.496218v -43.8413h 0.496218v -14.6138h 0.496218v 14.6138h 0.496218v 65.7619h 0.496218v -73.0688h 0.496218v 21.9206h 0.496218v -14.6138h 0.496218v -7.30688h 0.496218v -7.30688h 0.496218v
 -29.2275h 0.496218v 7.30688h 0.496218v -51.1482h 0.496218v 43.8413h 0.496218v -36.5344h 0.496218v 43.8413h 0.496218v -73.0688h 0.496218v 80.3757h 0.496218v 7.30688h 0.496218v 43.8413h 0.496218v -36.5344h 0.496218v -21.9206h 0.496218v -51.1482h
 0.496218v 21.9206h 0.496218v 29.2275h 0.496218v -73.0688h 0.496218v 14.6138h 0.496218v 21.9206h 0.496218v 43.8413h 0.496218v 29.2275h 0.496218v 14.6138h 0.496218v 14.6138h 0.496218v -51.1482h 0.496218v 21.9206h 0.496218v 21.9206h 0.496218v -65.7619h
 0.496218v 58.455h 0.992436v 36.5344h 0.496218v -21.9206h 0.496218v -29.2275h 0.496218v 29.2275h 0.496218v 14.6138h 0.496218v 7.30688h 0.992436v 36.5344h 0.496218v 7.30688h 0.496218v -36.5344h 0.496218v 7.30688h 0.496218v 7.30688h 0.496218v 21.9206h
 0.992436v -43.8413h 0.496218v -29.2275h 0.496218v 80.3757h 0.496218v 7.30688h 0.496218v -21.9206h 0.496218v 21.9206h 0.496218v -7.30688h 0.496218v -21.9206h 0.496218v 43.8413h 0.496218v 7.30688h 0.496218v -43.8413h 0.496218v 36.5344h 0.496218v
 7.30688h 0.496218v 7.30688h 0.496218v -21.9206h 0.496218v 14.6138h 0.496218v -14.6138h 0.992436v 21.9206h 0.992436v -7.30688h 0.496218v 7.30688h 0.496218v -7.30688h 0.496218v 7.30688h 0.496218v -7.30688h 0.496218v -14.6138h 0.496218v 7.30688h
 0.496218v 7.30688h 0.496218v 7.30688h 0.496218v -7.30688h 1.48865v 7.30688h 0.992436v -14.6138h 0.496218v 14.6138h 0.496218v -7.30688h 0.496218v 7.30688h 200.968v -7.30688h 0.496218v 7.30688h 57.0651" fill="none" stroke="#ff0000" stroke-width="2"/>
<rect x="351.996" y="21.1945" width="204.094" height="91.2994" fill="white"/>
<path d="M351.996,112.494h 204.094" fill="none" stroke="black" stroke-width="2"/>
<path d="M556.091,112.494v -91.2994" fill="none" stroke="black" stroke-width="2"/>
<path d="M556.091,21.1945h -204.094" fill="none" stroke="black" stroke-width="2"/>
<path d="M351.996,21.1945v 91.2994" fill="none" stroke="black" stroke-width="2"/>
<text x="373.151" y="32.3797" fill="black" font-size="12.7242" font-family="Helvetica">
 / ndf 
</text>
<text x="368.606" y="28.4033" fill="black" font-size="8.64946" font-family="Helvetica">
2
</text>
<text x="361.79" y="32.3797" fill="black" font-size="12.7242" font-family="Times">
&#0967;
</text>
<text x="485.06" y="33.5159" fill="black" font-size="12.7242" font-family="Helvetica">
   124 / 124
</text>
<text x="361.79" y="48.8536" fill="black" font-size="12.7242" font-family="Helvetica">
Centroid 
</text>
<text x="525.96" y="48.2855" fill="black" font-size="12.7242" font-family="Helvetica">
 0.6
</text>
<text x="519.144" y="48.2855" fill="black" font-size="12.7242" font-family="Times">
&#0177;
</text>
<text x="482.787" y="48.2855" fill="black" font-size="12.7242" font-family="Helvetica">
 570.8 
</text>
<text x="361.79" y="64.1914" fill="black" font-size="12.7242" font-family="Helvetica">
FWHM     
</text>
<text x="519.144" y="63.6233" fill="black" font-size="12.7242" font-family="Helvetica">
 1.29
</text>
<text x="512.327" y="63.6233" fill="black" font-size="12.7242" font-family="Times">
&#0177;
</text>
<text x="475.971" y="63.6233" fill="black" font-size="12.7242" font-family="Helvetica">
 51.49 
</text>
<text x="361.79" y="79.5291" fill="black" font-size="12.7242" font-family="Helvetica">
Counts   
</text>
<text x="519.144" y="78.9611" fill="black" font-size="12.7242" font-family="Helvetica">
 36.2
</text>
<text x="512.327" y="78.9611" fill="black" font-size="12.7242" font-family="Times">
&#0177;
</text>
<text x="475.971" y="78.9611" fill="black" font-size="12.7242" font-family="Helvetica">
  1296 
</text>
<text x="361.79" y="93.1627" fill="black" font-size="12.7242" font-family="Helvetica">
Intercept 
</text>
<text x="532.209" y="93.7308" fill="black" font-size="12.7242" font-family="Helvetica">
14
</text>
<text x="525.392" y="93.7308" fill="black" font-size="12.7242" font-family="Times">
&#8722;
</text>
<text x="485.06" y="93.7308" fill="black" font-size="12.7242" font-family="Helvetica">
 3.465e
</text>
<text x="478.243" y="93.7308" fill="black" font-size="12.7242" font-family="Times">
&#0177;
</text>
<text x="461.769" y="93.7308" fill="black" font-size="12.7242" font-family="Helvetica">
14 
</text>
<text x="454.952" y="93.7308" fill="black" font-size="12.7242" font-family="Times">
&#8722;
</text>
<text x="414.62" y="93.7308" fill="black" font-size="12.7242" font-family="Helvetica">
 6.241e
</text>
<text x="361.79" y="108.5" fill="black" font-size="12.7242" font-family="Helvetica">
Slope    
</text>
<text x="532.209" y="109.069" fill="black" font-size="12.7242" font-family="Helvetica">
17
</text>
<text x="525.392" y="109.069" fill="black" font-size="12.7242" font-family="Times">
&#8722;
</text>
<text x="485.06" y="109.069" fill="black" font-size="12.7242" font-family="Helvetica">
 6.066e
</text>
<text x="478.243" y="109.069" fill="black" font-size="12.7242" font-family="Times">
&#0177;
</text>
<text x="461.769" y="109.069" fill="black" font-size="12.7242" font-family="Helvetica">
16 
</text>
<text x="454.952" y="109.069" fill="black" font-size="12.7242" font-family="Times">
&#8722;
</text>
<text x="414.62" y="109.069" fill="black" font-size="12.7242" font-family="Helvetica">
 1.093e
</text>
<path d="M59.4606,293.463h 108.85l 4.53543, -0.0477896l 4.53543, -0.189208l 4.53543, -0.750628l 4.53543, -2.47081l 4.53543, -6.71822l 4.53543, -14.9867l 4.53543, -27.121l 4.53543, -39.0036l 4.53543, -42.6469l 4.53543, -31.1899l 4.53543, -5.9435l
 4.53543, 22.1441l 4.53543, 39.9811l 4.53543, 41.9743l 4.53543, 32.3761l 4.53543, 19.5774l 4.53543, 9.53856l 4.53543, 3.79814l 4.53543, 1.24628l 4.53543, 0.338765l 4.53543, 0.0935667h 18.1417" fill="none" stroke="#0000ff" stroke-width="2"/>
<path d="M281.697,293.463h 222.236" fill="none" stroke="#0000ff" stroke-width="2"/>
<path d="M503.933,293.463h 4.53543" fill="none" stroke="#0000ff" stroke-width="2"/>
<path d="M57.1929,293.463h 453.543" fill="none" stroke="black" stroke-width="2"/>
<text x="466.314" y="315.844" fill="black" font-size="10.9701" font-family="Helvetica">
Channels
</text>
<path d="M132.122,285.637v 7.82567" fill="none" stroke="black" stroke-width="2"/>
<path d="M156.933,289.55v 3.91283" fill="none" stroke="black" stroke-width="2"/>
<path d="M181.744,289.55v 3.91283" fill="none" stroke="black" stroke-width="2"/>
<path d="M206.555,289.55v 3.91283" fill="none" stroke="black" stroke-width="2"/>
<path d="M231.365,285.637v 7.82567" fill="none" stroke="black" stroke-width="2"/>
<path d="M256.176,289.55v 3.91283" fill="none" stroke="black" stroke-width="2"/>
<path d="M280.987,289.55v 3.91283" fill="none" stroke="black" stroke-width="2"/>
<path d="M305.798,289.55v 3.91283" fill="none" stroke="black" stroke-width="2"/>
<path d="M330.609,285.637v 7.82567" fill="none" stroke="black" stroke-width="2"/>
<path d="M355.42,289.55v 3.91283" fill="none" stroke="black" stroke-width="2"/>
<path d="M380.231,289.55v 3.91283" fill="none" stroke="black" stroke-width="2"/>
<path d="M405.042,289.55v 3.91283" fill="none" stroke="black" stroke-width="2"/>
<path d="M429.853,285.637v 7.82567" fill="none" stroke="black" stroke-width="2"/>
<path d="M132.122,285.637v 7.82567" fill="none" stroke="black" stroke-width="2"/>
<path d="M107.311,289.55v 3.91283" fill="none" stroke="black" stroke-width="2"/>
<path d="M82.5,289.55v 3.91283" fill="none" stroke="black" stroke-width="2"/>
<path d="M57.6891,289.55v 3.91283" fill="none" stroke="black" stroke-width="2"/>
<path d="M429.853,285.637v 7.82567" fill="none" stroke="black" stroke-width="2"/>
<path d="M454.664,289.55v 3.91283" fill="none" stroke="black" stroke-width="2"/>
<path d="M479.474,289.55v 3.91283" fill="none" stroke="black" stroke-width="2"/>
<path d="M504.285,289.55v 3.91283" fill="none" stroke="black" stroke-width="2"/>
<text x="122.634" y="303.915" fill="black" font-size="10.9701" font-family="Helvetica">
400
</text>
<text x="222.045" y="303.915" fill="black" font-size="10.9701" font-family="Helvetica">
600
</text>
<text x="321.457" y="303.915" fill="black" font-size="10.9701" font-family="Helvetica">
800
</text>
<text x="417.46" y="303.915" fill="black" font-size="10.9701" font-family="Helvetica">
1000
</text>
<path d="M57.1929,293.463v -260.856" fill="none" stroke="black" stroke-width="2"/>
<path d="M70.7992,293.463h -13.6063" fill="none" stroke="black" stroke-width="2"/>
<path d="M63.9961,286.156h -6.80315" fill="none" stroke="black" stroke-width="2"/>
<path d="M63.9961,278.849h -6.80315" fill="none" stroke="black" stroke-width="2"/>
<path d="M63.9961,271.542h -6.80315" fill="none" stroke="black" stroke-width="2"/>
<path d="M63.9961,264.235h -6.80315" fill="none" stroke="black" stroke-width="2"/>
<path d="M70.7992,256.928h -13.6063" fill="none" stroke="black" stroke-width="2"/>
<path d="M63.9961,249.621h -6.80315" fill="none" stroke="black" stroke-width="2"/>
<path d="M63.9961,242.314h -6.80315" fill="none" stroke="black" stroke-width="2"/>
<path d="M63.9961,235.007h -6.80315" fill="none" stroke="black" stroke-width="2"/>
<path d="M63.9961,227.701h -6.80315" fill="none" stroke="black" stroke-width="2"/>
<path d="M70.7992,220.394h -13.6063" fill="none" stroke="black" stroke-width="2"/>
<path d="M63.9961,213.087h -6.80315" fill="none" stroke="black" stroke-width="2"/>
<path d="M63.9961,205.78h -6.80315" fill="none" stroke="black" stroke-width="2"/>
<path d="M63.9961,198.473h -6.80315" fill="none" stroke="black" stroke-width="2"/>
<path d="M63.9961,191.166h -6.80315" fill="none" stroke="black" stroke-width="2"/>
<path d="M70.7992,183.859h -13.6063" fill="none" stroke="black" stroke-width="2"/>
<path d="M63.9961,176.552h -6.80315" fill="none" stroke="black" stroke-width="2"/>
<path d="M63.9961,169.246h -6.80315" fill="none" stroke="black" stroke-width="2"/>
<path d="M63.9961,161.939h -6.80315" fill="none" stroke="black" stroke-width="2"/>
<path d="M63.9961,154.632h -6.80315" fill="none" stroke="black" stroke-width="2"/>
<path d="M70.7992,147.325h -13.6063" fill="none" stroke="black" stroke-width="2"/>
<path d="M63.9961,140.018h -6.80315" fill="none" stroke="black" stroke-width="2"/>
<path d="M63.9961,132.711h -6.80315" fill="none" stroke="black" stroke-width="2"/>
<path d="M63.9961,125.404h -6.80315" fill="none" stroke="black" stroke-width="2"/>
<path d="M63.9961,118.097h -6.80315" fill="none" stroke="black" stroke-width="2"/>
<path d="M70.7992,110.791h -13.6063" fill="none" stroke="black" stroke-width="2"/>
<path d="M63.9961,103.484h -6.80315" fill="none" stroke="black" stroke-width="2"/>
<path d="M63.9961,96.1768h -6.80315" fill="none" stroke="black" stroke-width="2"/>
<path d="M63.9961,88.8699h -6.80315" fill="none" stroke="black" stroke-width="2"/>
<path d="M63.9961,81.563h -6.80315" fill="none" stroke="black" stroke-width="2"/>
<path d="M70.7992,74.2562h -13.6063" fill="none" stroke="black" stroke-width="2"/>
<path d="M63.9961,66.9493h -6.80315" fill="none" stroke="black" stroke-width="2"/>
<path d="M63.9961,59.6424h -6.80315" fill="none" stroke="black" stroke-width="2"/>
<path d="M63.9961,52.3355h -6.80315" fill="none" stroke="black" stroke-width="2"/>
<path d="M63.9961,45.0286h -6.80315" fill="none" stroke="black" stroke-width="2"/>
<path d="M70.7992,37.7218h -13.6063" fill="none" stroke="black" stroke-width="2"/>
<path d="M70.7992,37.7218h -13.6063" fill="none" stroke="black" stroke-width="2"/>
<text x="48.2175" y="297.098" fill="black" font-size="10.9701" font-family="Helvetica">
0
</text>
<text x="48.2175" y="260.742" fill="black" font-size="10.9701" font-family="Helvetica">
5
</text>
<text x="41.9688" y="223.818" fill="black" font-size="10.9701" font-family="Helvetica">
10
</text>
<text x="41.9688" y="187.462" fill="black" font-size="10.9701" font-family="Helvetica">
15
</text>
<text x="41.9688" y="151.105" fill="black" font-size="10.9701" font-family="Helvetica">
20
</text>
<text x="41.9688" y="114.749" fill="black" font-size="10.9701" font-family="Helvetica">
25
</text>
<text x="41.9688" y="77.8249" fill="black" font-size="10.9701" font-family="Helvetica">
30
</text>
<text x="41.9688" y="41.4688" fill="black" font-size="10.9701" font-family="Helvetica">
35
</text>
<rect x="351.996" y="21.1945" width="204.094" height="91.2994" fill="white"/>
<path d="M351.996,112.494h 204.094" fill="none" stroke="black" stroke-width="2"/>
<path d="M556.091,112.494v -91.2994" fill="none" stroke="black" stroke-width="2"/>
<path d="M556.091,21.1945h -204.094" fill="none" stroke="black" stroke-width="2"/>
<path d="M351.996,21.1945v 91.2994" fill="none" stroke="black" stroke-width="2"/>
<text x="373.151" y="32.3797" fill="black" font-size="12.7242" font-family="Helvetica">
 / ndf 
</text>
<text x="368.606" y="28.4033" fill="black" font-size="8.64946" font-family="Helvetica">
2
</text>
<text x="361.79" y="32.3797" fill="black" font-size="12.7242" font-family="Times">
&#0967;
</text>
<text x="485.06" y="33.5159" fill="black" font-size="12.7242" font-family="Helvetica">
   124 / 124
</text>
<text x="361.79" y="48.8536" fill="black" font-size="12.7242" font-family="Helvetica">
Centroid 
</text>
<text x="525.96" y="48.2855" fill="black" font-size="12.7242" font-family="Helvetica">
 0.6
</text>
<text x="519.144" y="48.2855" fill="black" font-size="12.7242" font-family="Times">
&#0177;
</text>
<text x="482.787" y="48.2855" fill="black" font-size="12.7242" font-family="Helvetica">
 570.8 
</text>
<text x="361.79" y="64.1914" fill="black" font-size="12.7242" font-family="Helvetica">
FWHM     
</text>
<text x="519.144" y="63.6233" fill="black" font-size="12.7242" font-family="Helvetica">
 1.29
</text>
<text x="512.327" y="63.6233" fill="black" font-size="12.7242" font-family="Times">
&#0177;
</text>
<text x="475.971" y="63.6233" fill="black" font-size="12.7242" font-family="Helvetica">
 51.49 
</text>
<text x="361.79" y="79.5291" fill="black" font-size="12.7242" font-family="Helvetica">
Counts   
</text>
<text x="519.144" y="78.9611" fill="black" font-size="12.7242" font-family="Helvetica">
 36.2
</text>
<text x="512.327" y="78.9611" fill="black" font-size="12.7242" font-family="Times">
&#0177;
</text>
<text x="475.971" y="78.9611" fill="black" font-size="12.7242" font-family="Helvetica">
  1296 
</text>
<text x="361.79" y="93.1627" fill="black" font-size="12.7242" font-family="Helvetica">
Intercept 
</text>
<text x="532.209" y="93.7308" fill="black" font-size="12.7242" font-family="Helvetica">
14
</text>
<text x="525.392" y="93.7308" fill="black" font-size="12.7242" font-family="Times">
&#8722;
</text>
<text x="485.06" y="93.7308" fill="black" font-size="12.7242" font-family="Helvetica">
 3.465e
</text>
<text x="478.243" y="93.7308" fill="black" font-size="12.7242" font-family="Times">
&#0177;
</text>
<text x="461.769" y="93.7308" fill="black" font-size="12.7242" font-family="Helvetica">
14 
</text>
<text x="454.952" y="93.7308" fill="black" font-size="12.7242" font-family="Times">
&#8722;
</text>
<text x="414.62" y="93.7308" fill="black" font-size="12.7242" font-family="Helvetica">
 6.241e
</text>
<text x="361.79" y="108.5" fill="black" font-size="12.7242" font-family="Helvetica">
Slope    
</text>
<text x="532.209" y="109.069" fill="black" font-size="12.7242" font-family="Helvetica">
17
</text>
<text x="525.392" y="109.069" fill="black" font-size="12.7242" font-family="Times">
&#8722;
</text>
<text x="485.06" y="109.069" fill="black" font-size="12.7242" font-family="Helvetica">
 6.066e
</text>
<text x="478.243" y="109.069" fill="black" font-size="12.7242" font-family="Times">
&#0177;
</text>
<text x="461.769" y="109.069" fill="black" font-size="12.7242" font-family="Helvetica">
16 
</text>
<text x="454.952" y="109.069" fill="black" font-size="12.7242" font-family="Times">
&#8722;
</text>
<text x="414.62" y="109.069" fill="black" font-size="12.7242" font-family="Helvetica">
 1.093e
</text>
<path d="M59.4606,293.463h 108.85l 4.53543, -0.0477896l 4.53543, -0.189208l 4.53543, -0.750628l 4.53543, -2.47081l 4.53543, -6.71822l 4.53543, -14.9867l 4.53543, -27.121l 4.53543, -39.0036l 4.53543, -42.6469l 4.53543, -31.1899l 4.53543, -5.9435l
 4.53543, 22.1441l 4.53543, 39.9811l 4.53543, 41.9743l 4.53543, 32.3761l 4.53543, 19.5774l 4.53543, 9.53856l 4.53543, 3.79814l 4.53543, 1.24628l 4.53543, 0.338765l 4.53543, 0.0935667h 18.1417" fill="none" stroke="#00ff00" stroke-width="2"/>
<path d="M281.697,293.463h 222.236" fill="none" stroke="#00ff00" stroke-width="2"/>
<path d="M503.933,293.463h 4.53543" fill="none" stroke="#00ff00" stroke-width="2"/>
<text x="106.16" y="14.7697" fill="black" font-size="11.8364" font-family="Helvetica">
Wk3/22Na-Coin-511Window-fullrange0_5us10V_10degrees_20cm.Spe
</text></svg>
