<?xml version="1.0" standalone="no"?>
<svg width="567.429" height="326.569" viewBox="0 0 567.429 326.569" xmlns="http://www.w3.org/2000/svg">
<title>
/home/ADF/hyw543/Coincidence/c1.svg
</title>
<desc>
Creator: ROOT Version 6.06/08
CreationDate: Mon Jan  7 20:40:25 2019</desc>
<defs>
</defs>
<rect x="0.5" y="0" width="566.929" height="326.069" fill="white"/>
<rect x="57.1929" y="32.6069" width="453.543" height="260.856" fill="white"/>
<rect x="57.1929" y="32.6069" width="453.543" height="260.856" fill="none" stroke="black"/>
<rect x="57.1929" y="32.6069" width="453.543" height="260.856" fill="white"/>
<rect x="57.1929" y="32.6069" width="453.543" height="260.856" fill="none" stroke="black"/>
<path d="M57.1929,293.463h 9.9075v -0.351392h 1.10083v 0.351392h 6.605v -0.351392h 1.10083v 0.351392h 1.10083v -0.351392h 1.10083v 0.351392h 24.2183v -0.351392h 1.10083v 0.351392h 9.9075v -0.351392h 1.10083v 0.351392h 2.20167v -0.351392h 1.10083v
 0.351392h 3.3025v -0.351392h 4.40333v 0.351392h 5.50417v -0.351392h 1.10083v 0.351392h 2.20167v -0.351392h 2.20167v 0.351392h 1.10083v -0.351392h 2.20167v 0.351392h 1.10083v -0.351392h 1.10083v -1.05417h 1.10083v 1.40557h 1.10083v -1.05417h 1.10083v
 -0.351392h 1.10083v 0.351392h 1.10083v -0.351392h 1.10083v 0.351392h 1.10083v -0.351392h 1.10083v 0.702783h 1.10083v -0.702783h 1.10083v -1.75696h 1.10083v 1.05417h 1.10083v 1.05417h 1.10083v -2.81113h 1.10083v 0.702783h 1.10083v 1.75696h 1.10083v
 -1.05417h 1.10083v -1.05417h 1.10083v -1.75696h 2.20167v -2.10835h 1.10083v -2.45974h 1.10083v 2.10835h 1.10083v 0.702783h 1.10083v -2.81113h 1.10083v 2.45974h 1.10083v -4.56809h 1.10083v 2.45974h 1.10083v -1.40557h 1.10083v -2.45974h 1.10083v
 -0.702783h 1.10083v -0.351392h 1.10083v -8.08201h 2.20167v 4.56809h 1.10083v -1.40557h 1.10083v -15.8126h 1.10083v 1.75696h 2.20167v 2.45974h 1.10083v -5.97366h 1.10083v -8.78479h 1.10083v -3.86531h 1.10083v 5.27087h 1.10083v -10.8931h 1.10083v
 5.97366h 1.10083v -10.8931h 1.10083v -6.67644h 1.10083v 1.05417h 1.10083v -4.2167h 1.10083v -9.83897h 1.10083v 1.75696h 1.10083v -10.1904h 1.10083v -12.6501h 1.10083v 9.13618h 1.10083v -18.9751h 1.10083v 7.37922h 1.10083v -5.97366h 1.10083v
 -15.4612h 1.10083v 4.91948h 1.10083v -7.37922h 1.10083v -13.0015h 1.10083v -12.2987h 1.10083v 9.48757h 1.10083v -15.1098h 1.10083v 8.4334h 1.10083v -21.7863h 1.10083v 8.78479h 1.10083v -16.8668h 1.10083v 0.702783h 1.10083v -5.97366h 1.10083v
 0.702783h 1.10083v -7.73062h 1.10083v -9.83897h 1.10083v -7.73062h 1.10083v -15.8126h 1.10083v 11.2445h 1.10083v -8.08201h 1.10083v -9.13618h 1.10083v 14.7584h 1.10083v -11.9473h 1.10083v 1.75696h 1.10083v 11.9473h 1.10083v -15.4612h 1.10083v
 -18.2724h 1.10083v 1.40557h 1.10083v 23.5432h 1.10083v -20.7321h 1.10083v 22.1377h 1.10083v -14.4071h 1.10083v 4.91948h 1.10083v 5.97366h 1.10083v 4.2167h 1.10083v 3.86531h 1.10083v -3.16252h 2.20167v 11.9473h 1.10083v 2.81113h 1.10083v -7.37922h
 1.10083v 4.91948h 1.10083v 3.86531h 1.10083v 12.6501h 1.10083v 16.164h 1.10083v -5.97366h 1.10083v -3.51392h 1.10083v 5.27087h 1.10083v 11.5959h 1.10083v 4.2167h 1.10083v 21.4349h 1.10083v -4.56809h 1.10083v 0.351392h 1.10083v 3.51392h 1.10083v
 20.0293h 1.10083v -2.81113h 1.10083v 13.3529h 1.10083v 4.56809h 1.10083v -1.40557h 1.10083v 8.4334h 1.10083v 6.67644h 1.10083v 10.1904h 1.10083v -1.05417h 1.10083v 9.83897h 1.10083v 11.9473h 1.10083v 3.16252h 1.10083v -4.56809h 1.10083v 4.2167h
 1.10083v 9.83897h 1.10083v -7.73062h 1.10083v 3.51392h 1.10083v 12.2987h 1.10083v 1.40557h 1.10083v 5.27087h 1.10083v -2.45974h 1.10083v -0.351392h 1.10083v 5.62227h 1.10083v 9.13618h 1.10083v 0.351392h 1.10083v 3.86531h 1.10083v 3.51392h 1.10083v
 -3.51392h 1.10083v 5.27087h 1.10083v -0.702783h 1.10083v -3.51392h 1.10083v 7.02783h 1.10083v -1.05417h 1.10083v 6.67644h 1.10083v -1.75696h 1.10083v 1.75696h 1.10083v -1.05417h 1.10083v -1.40557h 1.10083v 3.51392h 1.10083v -0.702783h 1.10083v
 1.40557h 2.20167v 1.05417h 1.10083v -2.10835h 1.10083v 3.16252h 1.10083v 0.702783h 1.10083v -0.351392h 1.10083v 0.702783h 1.10083v -0.702783h 1.10083v 0.702783h 1.10083v -1.75696h 1.10083v 2.10835h 1.10083v 0.351392h 2.20167v -0.351392h 1.10083v
 0.351392h 1.10083v -0.702783h 1.10083v 1.05417h 1.10083v -0.702783h 1.10083v 1.05417h 1.10083v -0.351392h 1.10083v 0.351392h 1.10083v -1.05417h 1.10083v 0.702783h 1.10083v 0.351392h 2.20167v -1.40557h 1.10083v 0.351392h 1.10083v 1.05417h 1.10083v
 -0.351392h 1.10083v 0.351392h 6.605v -0.351392h 1.10083v 0.351392h 6.605v -0.351392h 1.10083v 0.351392h 7.70583v -0.351392h 1.10083v 0.351392h 1.10083v -0.351392h 1.10083v 0.351392h 1.10083v -0.351392h 1.10083v 0.351392h 1.10083v -0.351392h 1.10083v
 -0.351392h 1.10083v 0.351392h 1.10083v 0.351392h 1.10083v -0.351392h 1.10083v 0.351392h 11.0083v -0.351392h 1.10083v 0.351392h 9.9075v -0.351392h 1.10083v 0.351392h 16.5125v -0.351392h 1.10083v 0.351392h 38.5292v -0.351392h 1.10083v 0.351392h
 16.5125v -0.351392h 1.10083v 0.351392h 6.605v -0.351392h 1.10083v 0.351392h 12.1092v -0.351392h 1.10083v 0.351392h 5.50417v -0.702783h 1.10083v 0.702783h 7.70583" fill="none" stroke="#ff0000" stroke-width="2"/>
<path d="M59.4606,293.189l 4.53543, -0.000575405l 4.53543, -0.000575492l 4.53543, -0.000575751l 4.53543, -0.000576493l 4.53543, -0.000578549l 4.53543, -0.000584071l 4.53543, -0.000598433l 4.53543, -0.0006346l 4.53543, -0.000722769l 4.53543,
 -0.000930825l 4.53543, -0.00140597l 4.53543, -0.00245592l 4.53543, -0.00470039l 4.53543, -0.00934077l 4.53543, -0.0186169l 4.53543, -0.0365401l 4.53543, -0.070001l 4.53543, -0.130333l 4.53543, -0.235339l 4.53543, -0.411656l 4.53543, -0.697058l
 4.53543, -1.14202l 4.53543, -1.80949l 4.53543, -2.77149l 4.53543, -4.10129l 4.53543, -5.86025l 4.53543, -8.0795l 4.53543, -10.7382l 4.53543, -13.7425l 4.53543, -16.9098l 4.53543, -19.9661l 4.53543, -22.561l 4.53543, -24.303l 4.53543, -24.814l
 4.53543, -23.7946l 4.53543, -21.0891l 4.53543, -16.7334l 4.53543, -10.9751l 4.53543, -4.2555l 4.53543, 2.84525l 4.53543, 9.69059l 4.53543, 15.6818l 4.53543, 20.3443l 4.53543, 23.3893l 4.53543, 24.7388l 4.53543, 24.5136l 4.53543, 22.989l 4.53543,
 20.5328l 4.53543, 17.5387" fill="none" stroke="#0000ff" stroke-width="2"/>
<path d="M281.697,240.183l 4.53543, 14.3689l 4.53543, 11.3145l 4.53543, 8.57652l 4.53543, 6.26569l 4.53543, 4.41587l 4.53543, 3.00452l 4.53543, 1.9747l 4.53543, 1.2543l 4.53543, 0.770251l 4.53543, 0.457407l 4.53543, 0.262697l 4.53543, 0.145891l
 4.53543, 0.0782997l 4.53543, 0.0405487l 4.53543, 0.020187l 4.53543, 0.00957659l 4.53543, 0.00423267l 4.53543, 0.00163052l 4.53543, 0.000405112l 4.53543, -0.000153111l 4.53543, -0.000399155l 4.53543, -0.000504106l 4.53543, -0.000547437l 4.53543,
 -0.000564756l 4.53543, -0.000571458l 4.53543, -0.00057397l 4.53543, -0.000574881l 4.53543, -0.000575201l 4.53543, -0.00057531l 4.53543, -0.000575346l 4.53543, -0.000575358l 4.53543, -0.000575361l 4.53543, -0.000575363l 4.53543, -0.000575363l
 4.53543, -0.000575363l 4.53543, -0.000575363l 4.53543, -0.000575363l 4.53543, -0.000575363l 4.53543, -0.000575363l 4.53543, -0.000575363l 4.53543, -0.000575363l 4.53543, -0.000575363l 4.53543, -0.000575363l 4.53543, -0.000575363l 4.53543,
 -0.000575363l 4.53543, -0.000575363l 4.53543, -0.000575363l 4.53543, -0.000575363l 4.53543, -0.000575363" fill="none" stroke="#0000ff" stroke-width="2"/>
<path d="M503.933,293.133l 4.53543, -0.000575363" fill="none" stroke="#0000ff" stroke-width="2"/>
<rect x="351.996" y="21.1945" width="204.094" height="91.2994" fill="white"/>
<path d="M351.996,112.494h 204.094" fill="none" stroke="black" stroke-width="2"/>
<path d="M556.091,112.494v -91.2994" fill="none" stroke="black" stroke-width="2"/>
<path d="M556.091,21.1945h -204.094" fill="none" stroke="black" stroke-width="2"/>
<path d="M351.996,21.1945v 91.2994" fill="none" stroke="black" stroke-width="2"/>
<text x="372.583" y="31.8117" fill="black" font-size="12.3712" font-family="Helvetica">
 / ndf 
</text>
<text x="368.038" y="28.4033" fill="black" font-size="8.41413" font-family="Helvetica">
2
</text>
<text x="361.79" y="31.8117" fill="black" font-size="12.3712" font-family="Times">
&#0967;
</text>
<text x="484.492" y="32.9478" fill="black" font-size="12.3712" font-family="Helvetica">
 176.1 / 204
</text>
<text x="361.79" y="48.2855" fill="black" font-size="12.3712" font-family="Helvetica">
Centroid 
</text>
<text x="528.801" y="48.2855" fill="black" font-size="12.3712" font-family="Helvetica">
 0.1
</text>
<text x="521.984" y="48.2855" fill="black" font-size="12.3712" font-family="Times">
&#0177;
</text>
<text x="486.764" y="48.2855" fill="black" font-size="12.3712" font-family="Helvetica">
 573.2 
</text>
<text x="361.79" y="64.1914" fill="black" font-size="12.3712" font-family="Helvetica">
FWHM     
</text>
<text x="521.984" y="63.6233" fill="black" font-size="12.3712" font-family="Helvetica">
 0.21
</text>
<text x="515.167" y="63.6233" fill="black" font-size="12.3712" font-family="Times">
&#0177;
</text>
<text x="482.219" y="63.6233" fill="black" font-size="12.3712" font-family="Helvetica">
 55.51 
</text>
<text x="361.79" y="78.9611" fill="black" font-size="12.3712" font-family="Helvetica">
Counts   
</text>
<text x="486.764" y="78.9611" fill="black" font-size="12.3712" font-family="Helvetica">
 2.013e+02
</text>
<text x="479.947" y="78.9611" fill="black" font-size="12.3712" font-family="Times">
&#0177;
</text>
<text x="418.028" y="78.9611" fill="black" font-size="12.3712" font-family="Helvetica">
 3.964e+04 
</text>
<text x="361.79" y="92.5946" fill="black" font-size="12.3712" font-family="Helvetica">
Intercept 
</text>
<text x="513.463" y="93.7308" fill="black" font-size="12.3712" font-family="Helvetica">
 0.755
</text>
<text x="506.646" y="93.7308" fill="black" font-size="12.3712" font-family="Times">
&#0177;
</text>
<text x="471.426" y="93.7308" fill="black" font-size="12.3712" font-family="Helvetica">
 0.614 
</text>
<text x="361.79" y="107.932" fill="black" font-size="12.3712" font-family="Helvetica">
Slope    
</text>
<text x="486.764" y="109.069" fill="black" font-size="12.3712" font-family="Helvetica">
 0.0012294
</text>
<text x="479.947" y="109.069" fill="black" font-size="12.3712" font-family="Times">
&#0177;
</text>
<text x="418.028" y="109.069" fill="black" font-size="12.3712" font-family="Helvetica">
 0.0003974 
</text>
<path d="M57.1929,293.463h 453.543" fill="none" stroke="black" stroke-width="2"/>
<text x="466.314" y="315.844" fill="black" font-size="10.9701" font-family="Helvetica">
Channels
</text>
<path d="M156.268,285.637v 7.82567" fill="none" stroke="black" stroke-width="2"/>
<path d="M178.285,289.55v 3.91283" fill="none" stroke="black" stroke-width="2"/>
<path d="M200.301,289.55v 3.91283" fill="none" stroke="black" stroke-width="2"/>
<path d="M222.318,289.55v 3.91283" fill="none" stroke="black" stroke-width="2"/>
<path d="M244.335,289.55v 3.91283" fill="none" stroke="black" stroke-width="2"/>
<path d="M266.351,285.637v 7.82567" fill="none" stroke="black" stroke-width="2"/>
<path d="M288.368,289.55v 3.91283" fill="none" stroke="black" stroke-width="2"/>
<path d="M310.385,289.55v 3.91283" fill="none" stroke="black" stroke-width="2"/>
<path d="M332.401,289.55v 3.91283" fill="none" stroke="black" stroke-width="2"/>
<path d="M354.418,289.55v 3.91283" fill="none" stroke="black" stroke-width="2"/>
<path d="M376.435,285.637v 7.82567" fill="none" stroke="black" stroke-width="2"/>
<path d="M398.451,289.55v 3.91283" fill="none" stroke="black" stroke-width="2"/>
<path d="M420.468,289.55v 3.91283" fill="none" stroke="black" stroke-width="2"/>
<path d="M442.485,289.55v 3.91283" fill="none" stroke="black" stroke-width="2"/>
<path d="M464.501,289.55v 3.91283" fill="none" stroke="black" stroke-width="2"/>
<path d="M486.518,285.637v 7.82567" fill="none" stroke="black" stroke-width="2"/>
<path d="M156.268,285.637v 7.82567" fill="none" stroke="black" stroke-width="2"/>
<path d="M134.251,289.55v 3.91283" fill="none" stroke="black" stroke-width="2"/>
<path d="M112.235,289.55v 3.91283" fill="none" stroke="black" stroke-width="2"/>
<path d="M90.2179,289.55v 3.91283" fill="none" stroke="black" stroke-width="2"/>
<path d="M68.2012,289.55v 3.91283" fill="none" stroke="black" stroke-width="2"/>
<path d="M486.518,285.637v 7.82567" fill="none" stroke="black" stroke-width="2"/>
<path d="M508.535,289.55v 3.91283" fill="none" stroke="black" stroke-width="2"/>
<text x="147.061" y="303.915" fill="black" font-size="10.9701" font-family="Helvetica">
500
</text>
<text x="256.697" y="303.915" fill="black" font-size="10.9701" font-family="Helvetica">
600
</text>
<text x="366.902" y="303.915" fill="black" font-size="10.9701" font-family="Helvetica">
700
</text>
<text x="477.107" y="303.915" fill="black" font-size="10.9701" font-family="Helvetica">
800
</text>
<path d="M57.1929,293.463v -260.856" fill="none" stroke="black" stroke-width="2"/>
<path d="M70.7992,293.463h -13.6063" fill="none" stroke="black" stroke-width="2"/>
<path d="M63.9961,286.435h -6.80315" fill="none" stroke="black" stroke-width="2"/>
<path d="M63.9961,279.407h -6.80315" fill="none" stroke="black" stroke-width="2"/>
<path d="M63.9961,272.379h -6.80315" fill="none" stroke="black" stroke-width="2"/>
<path d="M63.9961,265.351h -6.80315" fill="none" stroke="black" stroke-width="2"/>
<path d="M70.7992,258.323h -13.6063" fill="none" stroke="black" stroke-width="2"/>
<path d="M63.9961,251.296h -6.80315" fill="none" stroke="black" stroke-width="2"/>
<path d="M63.9961,244.268h -6.80315" fill="none" stroke="black" stroke-width="2"/>
<path d="M63.9961,237.24h -6.80315" fill="none" stroke="black" stroke-width="2"/>
<path d="M63.9961,230.212h -6.80315" fill="none" stroke="black" stroke-width="2"/>
<path d="M70.7992,223.184h -13.6063" fill="none" stroke="black" stroke-width="2"/>
<path d="M63.9961,216.156h -6.80315" fill="none" stroke="black" stroke-width="2"/>
<path d="M63.9961,209.129h -6.80315" fill="none" stroke="black" stroke-width="2"/>
<path d="M63.9961,202.101h -6.80315" fill="none" stroke="black" stroke-width="2"/>
<path d="M63.9961,195.073h -6.80315" fill="none" stroke="black" stroke-width="2"/>
<path d="M70.7992,188.045h -13.6063" fill="none" stroke="black" stroke-width="2"/>
<path d="M63.9961,181.017h -6.80315" fill="none" stroke="black" stroke-width="2"/>
<path d="M63.9961,173.989h -6.80315" fill="none" stroke="black" stroke-width="2"/>
<path d="M63.9961,166.962h -6.80315" fill="none" stroke="black" stroke-width="2"/>
<path d="M63.9961,159.934h -6.80315" fill="none" stroke="black" stroke-width="2"/>
<path d="M70.7992,152.906h -13.6063" fill="none" stroke="black" stroke-width="2"/>
<path d="M63.9961,145.878h -6.80315" fill="none" stroke="black" stroke-width="2"/>
<path d="M63.9961,138.85h -6.80315" fill="none" stroke="black" stroke-width="2"/>
<path d="M63.9961,131.822h -6.80315" fill="none" stroke="black" stroke-width="2"/>
<path d="M63.9961,124.795h -6.80315" fill="none" stroke="black" stroke-width="2"/>
<path d="M70.7992,117.767h -13.6063" fill="none" stroke="black" stroke-width="2"/>
<path d="M63.9961,110.739h -6.80315" fill="none" stroke="black" stroke-width="2"/>
<path d="M63.9961,103.711h -6.80315" fill="none" stroke="black" stroke-width="2"/>
<path d="M63.9961,96.6832h -6.80315" fill="none" stroke="black" stroke-width="2"/>
<path d="M63.9961,89.6554h -6.80315" fill="none" stroke="black" stroke-width="2"/>
<path d="M70.7992,82.6275h -13.6063" fill="none" stroke="black" stroke-width="2"/>
<path d="M63.9961,75.5997h -6.80315" fill="none" stroke="black" stroke-width="2"/>
<path d="M63.9961,68.5719h -6.80315" fill="none" stroke="black" stroke-width="2"/>
<path d="M63.9961,61.544h -6.80315" fill="none" stroke="black" stroke-width="2"/>
<path d="M63.9961,54.5162h -6.80315" fill="none" stroke="black" stroke-width="2"/>
<path d="M70.7992,47.4884h -13.6063" fill="none" stroke="black" stroke-width="2"/>
<path d="M70.7992,47.4884h -13.6063" fill="none" stroke="black" stroke-width="2"/>
<path d="M63.9961,40.4606h -6.80315" fill="none" stroke="black" stroke-width="2"/>
<path d="M63.9961,33.4327h -6.80315" fill="none" stroke="black" stroke-width="2"/>
<text x="48.2175" y="297.098" fill="black" font-size="10.9701" font-family="Helvetica">
0
</text>
<text x="36.2881" y="261.878" fill="black" font-size="10.9701" font-family="Helvetica">
100
</text>
<text x="36.2881" y="226.658" fill="black" font-size="10.9701" font-family="Helvetica">
200
</text>
<text x="36.2881" y="192.006" fill="black" font-size="10.9701" font-family="Helvetica">
300
</text>
<text x="36.2881" y="156.786" fill="black" font-size="10.9701" font-family="Helvetica">
400
</text>
<text x="36.2881" y="121.566" fill="black" font-size="10.9701" font-family="Helvetica">
500
</text>
<text x="36.2881" y="86.3459" fill="black" font-size="10.9701" font-family="Helvetica">
600
</text>
<text x="36.2881" y="51.1259" fill="black" font-size="10.9701" font-family="Helvetica">
700
</text>
<rect x="351.996" y="21.1945" width="204.094" height="91.2994" fill="white"/>
<path d="M351.996,112.494h 204.094" fill="none" stroke="black" stroke-width="2"/>
<path d="M556.091,112.494v -91.2994" fill="none" stroke="black" stroke-width="2"/>
<path d="M556.091,21.1945h -204.094" fill="none" stroke="black" stroke-width="2"/>
<path d="M351.996,21.1945v 91.2994" fill="none" stroke="black" stroke-width="2"/>
<text x="372.583" y="31.8117" fill="black" font-size="12.3712" font-family="Helvetica">
 / ndf 
</text>
<text x="368.038" y="28.4033" fill="black" font-size="8.41413" font-family="Helvetica">
2
</text>
<text x="361.79" y="31.8117" fill="black" font-size="12.3712" font-family="Times">
&#0967;
</text>
<text x="484.492" y="32.9478" fill="black" font-size="12.3712" font-family="Helvetica">
 176.1 / 204
</text>
<text x="361.79" y="48.2855" fill="black" font-size="12.3712" font-family="Helvetica">
Centroid 
</text>
<text x="528.801" y="48.2855" fill="black" font-size="12.3712" font-family="Helvetica">
 0.1
</text>
<text x="521.984" y="48.2855" fill="black" font-size="12.3712" font-family="Times">
&#0177;
</text>
<text x="486.764" y="48.2855" fill="black" font-size="12.3712" font-family="Helvetica">
 573.2 
</text>
<text x="361.79" y="64.1914" fill="black" font-size="12.3712" font-family="Helvetica">
FWHM     
</text>
<text x="521.984" y="63.6233" fill="black" font-size="12.3712" font-family="Helvetica">
 0.21
</text>
<text x="515.167" y="63.6233" fill="black" font-size="12.3712" font-family="Times">
&#0177;
</text>
<text x="482.219" y="63.6233" fill="black" font-size="12.3712" font-family="Helvetica">
 55.51 
</text>
<text x="361.79" y="78.9611" fill="black" font-size="12.3712" font-family="Helvetica">
Counts   
</text>
<text x="486.764" y="78.9611" fill="black" font-size="12.3712" font-family="Helvetica">
 2.013e+02
</text>
<text x="479.947" y="78.9611" fill="black" font-size="12.3712" font-family="Times">
&#0177;
</text>
<text x="418.028" y="78.9611" fill="black" font-size="12.3712" font-family="Helvetica">
 3.964e+04 
</text>
<text x="361.79" y="92.5946" fill="black" font-size="12.3712" font-family="Helvetica">
Intercept 
</text>
<text x="513.463" y="93.7308" fill="black" font-size="12.3712" font-family="Helvetica">
 0.755
</text>
<text x="506.646" y="93.7308" fill="black" font-size="12.3712" font-family="Times">
&#0177;
</text>
<text x="471.426" y="93.7308" fill="black" font-size="12.3712" font-family="Helvetica">
 0.614 
</text>
<text x="361.79" y="107.932" fill="black" font-size="12.3712" font-family="Helvetica">
Slope    
</text>
<text x="486.764" y="109.069" fill="black" font-size="12.3712" font-family="Helvetica">
 0.0012294
</text>
<text x="479.947" y="109.069" fill="black" font-size="12.3712" font-family="Times">
&#0177;
</text>
<text x="418.028" y="109.069" fill="black" font-size="12.3712" font-family="Helvetica">
 0.0003974 
</text>
<path d="M59.4606,293.463h 63.4961l 4.53543, -0.0342419l 4.53543, -0.0359647l 4.53543, -0.0694256l 4.53543, -0.129757l 4.53543, -0.234764l 4.53543, -0.41108l 4.53543, -0.696482l 4.53543, -1.14145l 4.53543, -1.80892l 4.53543, -2.77091l 4.53543,
 -4.10071l 4.53543, -5.85967l 4.53543, -8.07893l 4.53543, -10.7377l 4.53543, -13.7419l 4.53543, -16.9092l 4.53543, -19.9655l 4.53543, -22.5604l 4.53543, -24.3024l 4.53543, -24.8134l 4.53543, -23.7941l 4.53543, -21.0885l 4.53543, -16.7328l 4.53543,
 -10.9746l 4.53543, -4.25493l 4.53543, 2.84583l 4.53543, 9.69116l 4.53543, 15.6824l 4.53543, 20.3449l 4.53543, 23.3899l 4.53543, 24.7394l 4.53543, 24.5141l 4.53543, 22.9895l 4.53543, 20.5334l 4.53543, 17.5393" fill="none" stroke="#00ff00"
 stroke-width="2"/>
<path d="M281.697,240.485l 4.53543, 14.3695l 4.53543, 11.3151l 4.53543, 8.57709l 4.53543, 6.26627l 4.53543, 4.41644l 4.53543, 3.00509l 4.53543, 1.97528l 4.53543, 1.25488l 4.53543, 0.770827l 4.53543, 0.457982l 4.53543, 0.263272l 4.53543, 0.146466l
 4.53543, 0.078875l 4.53543, 0.041124l 4.53543, 0.039623h 154.205" fill="none" stroke="#00ff00" stroke-width="2"/>
<path d="M503.933,293.463h 4.53543" fill="none" stroke="#00ff00" stroke-width="2"/>
<text x="102.752" y="15.9058" fill="black" font-size="15.9159" font-family="Helvetica">
Wk3/22Na-Coin-511Window-fullrange0.5us10V.Spe
</text></svg>
