<?xml version="1.0" standalone="no"?>
<svg width="567.429" height="326.569" viewBox="0 0 567.429 326.569" xmlns="http://www.w3.org/2000/svg">
<title>
/home/ADF/hyw543/Coincidence/c1.svg
</title>
<desc>
Creator: ROOT Version 6.06/08
CreationDate: Mon Jan  7 21:23:44 2019</desc>
<defs>
</defs>
<rect x="0.5" y="0" width="566.929" height="326.069" fill="white"/>
<rect x="57.1929" y="32.6069" width="453.543" height="260.856" fill="white"/>
<rect x="57.1929" y="32.6069" width="453.543" height="260.856" fill="none" stroke="black"/>
<rect x="57.1929" y="32.6069" width="453.543" height="260.856" fill="white"/>
<rect x="57.1929" y="32.6069" width="453.543" height="260.856" fill="none" stroke="black"/>
<path d="M57.1929,293.463h 94.0392v -11.8302h 1.95915v 11.8302h 12.7345v -11.8302h 0.979575v 11.8302h 3.9183v -11.8302h 0.979575v 11.8302h 5.87745v -23.6604h 0.979575v 23.6604h 1.95915v -11.8302h 0.979575v -23.6604h 0.979575v 35.4906h 1.95915v
 -11.8302h 0.979575v 11.8302h 0.979575v -11.8302h 2.93873v -11.8302h 0.979575v 23.6604h 0.979575v -11.8302h 2.93873v -11.8302h 0.979575v 23.6604h 0.979575v -35.4906h 0.979575v 11.8302h 1.95915v -11.8302h 0.979575v 11.8302h 1.95915v 11.8302h 0.979575v
 -11.8302h 1.95915v -47.3207h 1.95915v -11.8302h 1.95915v 11.8302h 0.979575v -23.6604h 0.979575v 11.8302h 0.979575v -11.8302h 0.979575v -23.6604h 0.979575v 35.4906h 0.979575v -11.8302h 0.979575v 47.3207h 0.979575v -23.6604h 1.95915v 11.8302h
 0.979575v -35.4906h 0.979575v -47.3207h 0.979575v 35.4906h 1.95915v 47.3207h 0.979575v -82.8113h 0.979575v 35.4906h 0.979575v -35.4906h 0.979575v 35.4906h 0.979575v -82.8113h 0.979575v 47.3207h 0.979575v 47.3207h 0.979575v -35.4906h 0.979575v
 -11.8302h 0.979575v -23.6604h 0.979575v 82.8113h 0.979575v -130.132h 0.979575v 59.1509h 0.979575v 23.6604h 0.979575v 23.6604h 0.979575v -23.6604h 0.979575v 47.3207h 0.979575v -118.302h 0.979575v -47.3207h 0.979575v 141.962h 0.979575v -35.4906h
 0.979575v 23.6604h 0.979575v 11.8302h 0.979575v -35.4906h 0.979575v 23.6604h 0.979575v -11.8302h 0.979575v -11.8302h 0.979575v 70.9811h 0.979575v -11.8302h 0.979575v -35.4906h 0.979575v -11.8302h 0.979575v 23.6604h 0.979575v 47.3207h 0.979575v
 -59.1509h 0.979575v -35.4906h 0.979575v 106.472h 0.979575v -59.1509h 0.979575v -11.8302h 1.95915v 35.4906h 0.979575v 47.3207h 0.979575v -94.6415h 0.979575v 47.3207h 0.979575v -23.6604h 0.979575v 59.1509h 0.979575v 11.8302h 1.95915v -11.8302h
 0.979575v 11.8302h 0.979575v -35.4906h 0.979575v 47.3207h 0.979575v -59.1509h 0.979575v 47.3207h 0.979575v -47.3207h 0.979575v 47.3207h 0.979575v 23.6604h 0.979575v -35.4906h 0.979575v 47.3207h 0.979575v -47.3207h 0.979575v 23.6604h 0.979575v
 23.6604h 0.979575v -47.3207h 0.979575v 47.3207h 0.979575v -11.8302h 0.979575v 11.8302h 0.979575v -11.8302h 2.93873v 11.8302h 0.979575v -23.6604h 1.95915v 23.6604h 0.979575v -11.8302h 1.95915v 11.8302h 2.93873v -11.8302h 0.979575v 11.8302h 4.89788v
 -11.8302h 0.979575v 11.8302h 2.93873v -11.8302h 0.979575v 11.8302h 1.95915v -11.8302h 0.979575v 11.8302h 23.5098v -11.8302h 0.979575v 11.8302h 27.4281v -11.8302h 0.979575v 11.8302h 23.5098v -11.8302h 0.979575v 11.8302h 6.85703v -11.8302h 0.979575v
 11.8302h 11.7549v -11.8302h 0.979575v 11.8302h 98.9371" fill="none" stroke="#ff0000" stroke-width="2"/>
<rect x="351.996" y="21.1945" width="204.094" height="91.2994" fill="white"/>
<path d="M351.996,112.494h 204.094" fill="none" stroke="black" stroke-width="2"/>
<path d="M556.091,112.494v -91.2994" fill="none" stroke="black" stroke-width="2"/>
<path d="M556.091,21.1945h -204.094" fill="none" stroke="black" stroke-width="2"/>
<path d="M351.996,21.1945v 91.2994" fill="none" stroke="black" stroke-width="2"/>
<text x="373.151" y="32.3797" fill="black" font-size="12.5291" font-family="Helvetica">
 / ndf 
</text>
<text x="368.606" y="27.8352" fill="black" font-size="8.51939" font-family="Helvetica">
2
</text>
<text x="361.79" y="32.3797" fill="black" font-size="12.5291" font-family="Times">
&#0967;
</text>
<text x="481.651" y="33.5159" fill="black" font-size="12.5291" font-family="Helvetica">
 84.84 / 117
</text>
<text x="361.79" y="48.8536" fill="black" font-size="12.5291" font-family="Helvetica">
Centroid 
</text>
<text x="525.96" y="48.2855" fill="black" font-size="12.5291" font-family="Helvetica">
 1.2
</text>
<text x="519.144" y="48.2855" fill="black" font-size="12.5291" font-family="Times">
&#0177;
</text>
<text x="482.787" y="48.2855" fill="black" font-size="12.5291" font-family="Helvetica">
 570.8 
</text>
<text x="361.79" y="64.1914" fill="black" font-size="12.5291" font-family="Helvetica">
FWHM     
</text>
<text x="525.96" y="63.6233" fill="black" font-size="12.5291" font-family="Helvetica">
 2.8
</text>
<text x="519.144" y="63.6233" fill="black" font-size="12.5291" font-family="Times">
&#0177;
</text>
<text x="490.172" y="63.6233" fill="black" font-size="12.5291" font-family="Helvetica">
    48 
</text>
<text x="361.79" y="79.5291" fill="black" font-size="12.5291" font-family="Helvetica">
Counts   
</text>
<text x="519.144" y="78.9611" fill="black" font-size="12.5291" font-family="Helvetica">
 36.7
</text>
<text x="512.327" y="78.9611" fill="black" font-size="12.5291" font-family="Times">
&#0177;
</text>
<text x="475.971" y="78.9611" fill="black" font-size="12.5291" font-family="Helvetica">
 532.8 
</text>
<text x="361.79" y="93.1627" fill="black" font-size="12.5291" font-family="Helvetica">
Intercept 
</text>
<text x="504.942" y="93.7308" fill="black" font-size="12.5291" font-family="Helvetica">
 1.4523
</text>
<text x="498.125" y="93.7308" fill="black" font-size="12.5291" font-family="Times">
&#0177;
</text>
<text x="454.384" y="93.7308" fill="black" font-size="12.5291" font-family="Helvetica">
 0.4259 
</text>
<text x="361.79" y="108.5" fill="black" font-size="12.5291" font-family="Helvetica">
Slope    
</text>
<text x="484.492" y="109.069" fill="black" font-size="12.5291" font-family="Helvetica">
 0.0023865
</text>
<text x="477.675" y="109.069" fill="black" font-size="12.5291" font-family="Times">
&#0177;
</text>
<text x="415.188" y="109.069" fill="black" font-size="12.5291" font-family="Helvetica">
 0.0007991 
</text>
<path d="M59.4606,284.763l 4.53543, -0.0437671l 4.53543, -0.0437671l 4.53543, -0.0437671l 4.53543, -0.0437671l 4.53543, -0.0437671l 4.53543, -0.0437671l 4.53543, -0.0437671l 4.53543, -0.0437671l 4.53543, -0.0437672l 4.53543, -0.0437672l 4.53543,
 -0.0437672l 4.53543, -0.0437674l 4.53543, -0.0437683l 4.53543, -0.0437714l 4.53543, -0.0437825l 4.53543, -0.043819l 4.53543, -0.0439335l 4.53543, -0.0442737l 4.53543, -0.0452298l 4.53543, -0.0477703l 4.53543, -0.0541512l 4.53543, -0.0692893l
 4.53543, -0.103185l 4.53543, -0.17475l 4.53543, -0.317048l 4.53543, -0.583125l 4.53543, -1.05009l 4.53543, -1.81733l 4.53543, -2.9934l 4.53543, -4.66696l 4.53543, -6.86142l 4.53543, -9.48125l 4.53543, -12.2681l 4.53543, -14.7916l 4.53543, -16.4978l
 4.53543, -16.8213l 4.53543, -15.3421l 4.53543, -11.9393l 4.53543, -6.88374l 4.53543, -0.822038l 4.53543, 5.35658l 4.53543, 10.7341l 4.53543, 14.5873l 4.53543, 16.5461l 4.53543, 16.6392l 4.53543, 15.2257l 4.53543, 12.8502l 4.53543, 10.0824l 4.53543,
 7.39024" fill="none" stroke="#0000ff" stroke-width="2"/>
<path d="M281.697,269.755l 4.53543, 5.07577l 4.53543, 3.27166l 4.53543, 1.97897l 4.53543, 1.12043l 4.53543, 0.589023l 4.53543, 0.281327l 4.53543, 0.1142l 4.53543, 0.0288727l 4.53543, -0.0121422l 4.53543, -0.0307265l 4.53543, -0.0386724l 4.53543,
 -0.0418808l 4.53543, -0.0431051l 4.53543, -0.0435468l 4.53543, -0.0436976l 4.53543, -0.0437463l 4.53543, -0.0437612l 4.53543, -0.0437656l 4.53543, -0.0437667l 4.53543, -0.043767l 4.53543, -0.0437671l 4.53543, -0.0437671l 4.53543, -0.0437671l
 4.53543, -0.0437671l 4.53543, -0.0437671l 4.53543, -0.0437671l 4.53543, -0.0437671l 4.53543, -0.0437671l 4.53543, -0.0437671l 4.53543, -0.0437671l 4.53543, -0.0437671l 4.53543, -0.0437671l 4.53543, -0.0437671l 4.53543, -0.0437671l 4.53543,
 -0.0437671l 4.53543, -0.0437671l 4.53543, -0.0437671l 4.53543, -0.0437671l 4.53543, -0.0437671l 4.53543, -0.0437671l 4.53543, -0.0437671l 4.53543, -0.0437671l 4.53543, -0.0437671l 4.53543, -0.0437671l 4.53543, -0.0437671l 4.53543, -0.0437671l
 4.53543, -0.0437671l 4.53543, -0.0437671l 4.53543, -0.0437671" fill="none" stroke="#0000ff" stroke-width="2"/>
<path d="M503.933,280.474l 4.53543, -0.0437671" fill="none" stroke="#0000ff" stroke-width="2"/>
<path d="M57.1929,293.463h 453.543" fill="none" stroke="black" stroke-width="2"/>
<text x="466.314" y="315.844" fill="black" font-size="10.9701" font-family="Helvetica">
Channels
</text>
<path d="M71.8865,285.637v 7.82567" fill="none" stroke="black" stroke-width="2"/>
<path d="M91.4781,289.55v 3.91283" fill="none" stroke="black" stroke-width="2"/>
<path d="M111.07,289.55v 3.91283" fill="none" stroke="black" stroke-width="2"/>
<path d="M130.661,289.55v 3.91283" fill="none" stroke="black" stroke-width="2"/>
<path d="M150.253,289.55v 3.91283" fill="none" stroke="black" stroke-width="2"/>
<path d="M169.844,285.637v 7.82567" fill="none" stroke="black" stroke-width="2"/>
<path d="M189.436,289.55v 3.91283" fill="none" stroke="black" stroke-width="2"/>
<path d="M209.027,289.55v 3.91283" fill="none" stroke="black" stroke-width="2"/>
<path d="M228.619,289.55v 3.91283" fill="none" stroke="black" stroke-width="2"/>
<path d="M248.21,289.55v 3.91283" fill="none" stroke="black" stroke-width="2"/>
<path d="M267.802,285.637v 7.82567" fill="none" stroke="black" stroke-width="2"/>
<path d="M287.393,289.55v 3.91283" fill="none" stroke="black" stroke-width="2"/>
<path d="M306.985,289.55v 3.91283" fill="none" stroke="black" stroke-width="2"/>
<path d="M326.576,289.55v 3.91283" fill="none" stroke="black" stroke-width="2"/>
<path d="M346.168,289.55v 3.91283" fill="none" stroke="black" stroke-width="2"/>
<path d="M365.759,285.637v 7.82567" fill="none" stroke="black" stroke-width="2"/>
<path d="M385.351,289.55v 3.91283" fill="none" stroke="black" stroke-width="2"/>
<path d="M404.942,289.55v 3.91283" fill="none" stroke="black" stroke-width="2"/>
<path d="M424.534,289.55v 3.91283" fill="none" stroke="black" stroke-width="2"/>
<path d="M444.125,289.55v 3.91283" fill="none" stroke="black" stroke-width="2"/>
<path d="M463.717,285.637v 7.82567" fill="none" stroke="black" stroke-width="2"/>
<path d="M71.8865,285.637v 7.82567" fill="none" stroke="black" stroke-width="2"/>
<path d="M463.717,285.637v 7.82567" fill="none" stroke="black" stroke-width="2"/>
<path d="M483.308,289.55v 3.91283" fill="none" stroke="black" stroke-width="2"/>
<path d="M502.9,289.55v 3.91283" fill="none" stroke="black" stroke-width="2"/>
<text x="62.4191" y="303.915" fill="black" font-size="10.9701" font-family="Helvetica">
400
</text>
<text x="160.694" y="303.915" fill="black" font-size="10.9701" font-family="Helvetica">
500
</text>
<text x="258.402" y="303.915" fill="black" font-size="10.9701" font-family="Helvetica">
600
</text>
<text x="356.109" y="303.915" fill="black" font-size="10.9701" font-family="Helvetica">
700
</text>
<text x="454.384" y="303.915" fill="black" font-size="10.9701" font-family="Helvetica">
800
</text>
<path d="M57.1929,293.463v -260.856" fill="none" stroke="black" stroke-width="2"/>
<path d="M70.7992,293.463h -13.6063" fill="none" stroke="black" stroke-width="2"/>
<path d="M63.9961,287.547h -6.80315" fill="none" stroke="black" stroke-width="2"/>
<path d="M63.9961,281.632h -6.80315" fill="none" stroke="black" stroke-width="2"/>
<path d="M63.9961,275.717h -6.80315" fill="none" stroke="black" stroke-width="2"/>
<path d="M70.7992,269.802h -13.6063" fill="none" stroke="black" stroke-width="2"/>
<path d="M63.9961,263.887h -6.80315" fill="none" stroke="black" stroke-width="2"/>
<path d="M63.9961,257.972h -6.80315" fill="none" stroke="black" stroke-width="2"/>
<path d="M63.9961,252.057h -6.80315" fill="none" stroke="black" stroke-width="2"/>
<path d="M70.7992,246.142h -13.6063" fill="none" stroke="black" stroke-width="2"/>
<path d="M63.9961,240.227h -6.80315" fill="none" stroke="black" stroke-width="2"/>
<path d="M63.9961,234.312h -6.80315" fill="none" stroke="black" stroke-width="2"/>
<path d="M63.9961,228.396h -6.80315" fill="none" stroke="black" stroke-width="2"/>
<path d="M70.7992,222.481h -13.6063" fill="none" stroke="black" stroke-width="2"/>
<path d="M63.9961,216.566h -6.80315" fill="none" stroke="black" stroke-width="2"/>
<path d="M63.9961,210.651h -6.80315" fill="none" stroke="black" stroke-width="2"/>
<path d="M63.9961,204.736h -6.80315" fill="none" stroke="black" stroke-width="2"/>
<path d="M70.7992,198.821h -13.6063" fill="none" stroke="black" stroke-width="2"/>
<path d="M63.9961,192.906h -6.80315" fill="none" stroke="black" stroke-width="2"/>
<path d="M63.9961,186.991h -6.80315" fill="none" stroke="black" stroke-width="2"/>
<path d="M63.9961,181.076h -6.80315" fill="none" stroke="black" stroke-width="2"/>
<path d="M70.7992,175.161h -13.6063" fill="none" stroke="black" stroke-width="2"/>
<path d="M63.9961,169.246h -6.80315" fill="none" stroke="black" stroke-width="2"/>
<path d="M63.9961,163.33h -6.80315" fill="none" stroke="black" stroke-width="2"/>
<path d="M63.9961,157.415h -6.80315" fill="none" stroke="black" stroke-width="2"/>
<path d="M70.7992,151.5h -13.6063" fill="none" stroke="black" stroke-width="2"/>
<path d="M63.9961,145.585h -6.80315" fill="none" stroke="black" stroke-width="2"/>
<path d="M63.9961,139.67h -6.80315" fill="none" stroke="black" stroke-width="2"/>
<path d="M63.9961,133.755h -6.80315" fill="none" stroke="black" stroke-width="2"/>
<path d="M70.7992,127.84h -13.6063" fill="none" stroke="black" stroke-width="2"/>
<path d="M63.9961,121.925h -6.80315" fill="none" stroke="black" stroke-width="2"/>
<path d="M63.9961,116.01h -6.80315" fill="none" stroke="black" stroke-width="2"/>
<path d="M63.9961,110.095h -6.80315" fill="none" stroke="black" stroke-width="2"/>
<path d="M70.7992,104.18h -13.6063" fill="none" stroke="black" stroke-width="2"/>
<path d="M63.9961,98.2645h -6.80315" fill="none" stroke="black" stroke-width="2"/>
<path d="M63.9961,92.3494h -6.80315" fill="none" stroke="black" stroke-width="2"/>
<path d="M63.9961,86.4343h -6.80315" fill="none" stroke="black" stroke-width="2"/>
<path d="M70.7992,80.5192h -13.6063" fill="none" stroke="black" stroke-width="2"/>
<path d="M63.9961,74.6041h -6.80315" fill="none" stroke="black" stroke-width="2"/>
<path d="M63.9961,68.689h -6.80315" fill="none" stroke="black" stroke-width="2"/>
<path d="M63.9961,62.7739h -6.80315" fill="none" stroke="black" stroke-width="2"/>
<path d="M70.7992,56.8588h -13.6063" fill="none" stroke="black" stroke-width="2"/>
<path d="M63.9961,50.9437h -6.80315" fill="none" stroke="black" stroke-width="2"/>
<path d="M63.9961,45.0286h -6.80315" fill="none" stroke="black" stroke-width="2"/>
<path d="M63.9961,39.1135h -6.80315" fill="none" stroke="black" stroke-width="2"/>
<path d="M70.7992,33.1985h -13.6063" fill="none" stroke="black" stroke-width="2"/>
<path d="M70.7992,33.1985h -13.6063" fill="none" stroke="black" stroke-width="2"/>
<text x="48.2175" y="297.098" fill="black" font-size="10.9701" font-family="Helvetica">
0
</text>
<text x="48.2175" y="273.807" fill="black" font-size="10.9701" font-family="Helvetica">
2
</text>
<text x="48.2175" y="250.517" fill="black" font-size="10.9701" font-family="Helvetica">
4
</text>
<text x="48.2175" y="226.09" fill="black" font-size="10.9701" font-family="Helvetica">
6
</text>
<text x="48.2175" y="202.231" fill="black" font-size="10.9701" font-family="Helvetica">
8
</text>
<text x="41.9688" y="178.941" fill="black" font-size="10.9701" font-family="Helvetica">
10
</text>
<text x="41.9688" y="155.65" fill="black" font-size="10.9701" font-family="Helvetica">
12
</text>
<text x="41.9688" y="132.359" fill="black" font-size="10.9701" font-family="Helvetica">
14
</text>
<text x="41.9688" y="107.932" fill="black" font-size="10.9701" font-family="Helvetica">
16
</text>
<text x="41.9688" y="84.0737" fill="black" font-size="10.9701" font-family="Helvetica">
18
</text>
<text x="41.9688" y="60.783" fill="black" font-size="10.9701" font-family="Helvetica">
20
</text>
<text x="41.9688" y="37.4923" fill="black" font-size="10.9701" font-family="Helvetica">
22
</text>
<rect x="351.996" y="21.1945" width="204.094" height="91.2994" fill="white"/>
<path d="M351.996,112.494h 204.094" fill="none" stroke="black" stroke-width="2"/>
<path d="M556.091,112.494v -91.2994" fill="none" stroke="black" stroke-width="2"/>
<path d="M556.091,21.1945h -204.094" fill="none" stroke="black" stroke-width="2"/>
<path d="M351.996,21.1945v 91.2994" fill="none" stroke="black" stroke-width="2"/>
<text x="373.151" y="32.3797" fill="black" font-size="12.5291" font-family="Helvetica">
 / ndf 
</text>
<text x="368.606" y="27.8352" fill="black" font-size="8.51939" font-family="Helvetica">
2
</text>
<text x="361.79" y="32.3797" fill="black" font-size="12.5291" font-family="Times">
&#0967;
</text>
<text x="481.651" y="33.5159" fill="black" font-size="12.5291" font-family="Helvetica">
 84.84 / 117
</text>
<text x="361.79" y="48.8536" fill="black" font-size="12.5291" font-family="Helvetica">
Centroid 
</text>
<text x="525.96" y="48.2855" fill="black" font-size="12.5291" font-family="Helvetica">
 1.2
</text>
<text x="519.144" y="48.2855" fill="black" font-size="12.5291" font-family="Times">
&#0177;
</text>
<text x="482.787" y="48.2855" fill="black" font-size="12.5291" font-family="Helvetica">
 570.8 
</text>
<text x="361.79" y="64.1914" fill="black" font-size="12.5291" font-family="Helvetica">
FWHM     
</text>
<text x="525.96" y="63.6233" fill="black" font-size="12.5291" font-family="Helvetica">
 2.8
</text>
<text x="519.144" y="63.6233" fill="black" font-size="12.5291" font-family="Times">
&#0177;
</text>
<text x="490.172" y="63.6233" fill="black" font-size="12.5291" font-family="Helvetica">
    48 
</text>
<text x="361.79" y="79.5291" fill="black" font-size="12.5291" font-family="Helvetica">
Counts   
</text>
<text x="519.144" y="78.9611" fill="black" font-size="12.5291" font-family="Helvetica">
 36.7
</text>
<text x="512.327" y="78.9611" fill="black" font-size="12.5291" font-family="Times">
&#0177;
</text>
<text x="475.971" y="78.9611" fill="black" font-size="12.5291" font-family="Helvetica">
 532.8 
</text>
<text x="361.79" y="93.1627" fill="black" font-size="12.5291" font-family="Helvetica">
Intercept 
</text>
<text x="504.942" y="93.7308" fill="black" font-size="12.5291" font-family="Helvetica">
 1.4523
</text>
<text x="498.125" y="93.7308" fill="black" font-size="12.5291" font-family="Times">
&#0177;
</text>
<text x="454.384" y="93.7308" fill="black" font-size="12.5291" font-family="Helvetica">
 0.4259 
</text>
<text x="361.79" y="108.5" fill="black" font-size="12.5291" font-family="Helvetica">
Slope    
</text>
<text x="484.492" y="109.069" fill="black" font-size="12.5291" font-family="Helvetica">
 0.0023865
</text>
<text x="477.675" y="109.069" fill="black" font-size="12.5291" font-family="Times">
&#0177;
</text>
<text x="415.188" y="109.069" fill="black" font-size="12.5291" font-family="Helvetica">
 0.0007991 
</text>
<path d="M59.4606,293.463h 95.2441l 4.53543, -0.0421178l 4.53543, -0.0594182l 4.53543, -0.130983l 4.53543, -0.273281l 4.53543, -0.539357l 4.53543, -1.00632l 4.53543, -1.77356l 4.53543, -2.94963l 4.53543, -4.62319l 4.53543, -6.81765l 4.53543,
 -9.43749l 4.53543, -12.2243l 4.53543, -14.7478l 4.53543, -16.454l 4.53543, -16.7775l 4.53543, -15.2983l 4.53543, -11.8955l 4.53543, -6.83997l 4.53543, -0.778271l 4.53543, 5.40035l 4.53543, 10.7779l 4.53543, 14.6311l 4.53543, 16.5898l 4.53543,
 16.683l 4.53543, 15.2694l 4.53543, 12.894l 4.53543, 10.1262l 4.53543, 7.43401" fill="none" stroke="#00ff00" stroke-width="2"/>
<path d="M281.697,280.6l 4.53543, 5.11953l 4.53543, 3.31543l 4.53543, 2.02274l 4.53543, 1.16419l 4.53543, 0.63279l 4.53543, 0.325094l 4.53543, 0.157968l 4.53543, 0.0726399l 4.53543, 0.0526273h 181.417" fill="none" stroke="#00ff00" stroke-width="2"/>
<path d="M503.933,293.463h 4.53543" fill="none" stroke="#00ff00" stroke-width="2"/>
<text x="107.296" y="15.3378" fill="black" font-size="13.0259" font-family="Helvetica">
Wk3/22Na-Coin-511Window-fullrange0_5us10V_70degrees.Spe
</text></svg>
