<?xml version="1.0" standalone="no"?>
<svg width="567.429" height="348.804" viewBox="0 0 567.429 348.804" xmlns="http://www.w3.org/2000/svg">
<title>
/home/ADF/hyw543/Coincidence/c1.svg
</title>
<desc>
Creator: ROOT Version 6.06/08
CreationDate: Mon Jan  7 20:55:37 2019</desc>
<defs>
</defs>
<rect x="0.5" y="0" width="566.929" height="348.304" fill="white"/>
<rect x="57.1929" y="34.8304" width="453.543" height="278.643" fill="white"/>
<rect x="57.1929" y="34.8304" width="453.543" height="278.643" fill="none" stroke="black"/>
<rect x="57.1929" y="34.8304" width="453.543" height="278.643" fill="white"/>
<rect x="57.1929" y="34.8304" width="453.543" height="278.643" fill="none" stroke="black"/>
<path d="M57.1929,312.968h 1.13103v 0.505475h 27.1447v -0.505475h 1.13103v 0.505475h 67.8618v -0.505475h 1.13103v 0.505475h 4.52412v -0.505475h 2.26206v -0.505475h 1.13103v 1.01095h 2.26206v -0.505475h 1.13103v -1.01095h 2.26206v -0.505475h 1.13103v
 0.505475h 1.13103v -3.03285h 1.13103v 3.03285h 1.13103v -1.01095h 2.26206v -1.01095h 1.13103v -1.01095h 1.13103v 3.03285h 1.13103v -3.03285h 1.13103v 0.505475h 1.13103v -1.01095h 2.26206v -3.03285h 1.13103v 1.51643h 1.13103v 1.01095h 1.13103v
 -0.505475h 1.13103v -4.54928h 1.13103v -1.51643h 1.13103v -4.54928h 1.13103v 8.0876h 1.13103v -7.58213h 1.13103v 1.51643h 1.13103v -1.01095h 1.13103v -2.0219h 1.13103v -4.0438h 1.13103v -1.01095h 1.13103v -11.6259h 1.13103v 8.59308h 1.13103v
 -2.52738h 1.13103v 1.51643h 1.13103v -12.6369h 1.13103v 4.0438h 1.13103v -3.03285h 1.13103v -8.59308h 1.13103v 9.60403h 1.13103v -0.505475h 1.13103v -24.7683h 1.13103v 1.01095h 1.13103v -3.53833h 1.13103v -18.7026h 1.13103v 13.1424h 1.13103v
 -12.1314h 1.13103v -1.51643h 1.13103v -6.0657h 1.13103v -6.0657h 1.13103v -4.54928h 2.26206v -12.6369h 1.13103v -17.1862h 1.13103v -3.53833h 1.13103v -5.05475h 1.13103v 1.51643h 1.13103v -2.0219h 1.13103v -26.7902h 1.13103v 1.51643h 1.13103v
 -18.7026h 1.13103v -10.1095h 1.13103v 20.7245h 1.13103v -12.6369h 1.13103v 3.53833h 1.13103v -15.6697h 1.13103v -20.219h 1.13103v -9.60403h 1.13103v 10.1095h 1.13103v 1.51643h 1.13103v -3.53833h 1.13103v -7.07665h 1.13103v 1.01095h 1.13103v
 -5.56023h 1.13103v 3.03285h 1.13103v -21.23h 1.13103v -1.51643h 1.13103v -14.1533h 1.13103v 9.60403h 1.13103v 7.07665h 1.13103v -0.505475h 1.13103v 2.0219h 1.13103v -3.03285h 1.13103v 15.1643h 1.13103v -26.7902h 1.13103v 33.3614h 1.13103v -31.8449h
 1.13103v 15.1643h 1.13103v 3.03285h 1.13103v 6.0657h 1.13103v -9.60403h 1.13103v 3.53833h 1.13103v 24.7683h 1.13103v -2.52738h 1.13103v 15.6697h 1.13103v -17.1862h 1.13103v 1.51643h 1.13103v 20.7245h 1.13103v 8.0876h 1.13103v -17.6916h 1.13103v
 11.6259h 1.13103v 4.54928h 1.13103v 1.51643h 1.13103v 34.3723h 1.13103v -5.56023h 1.13103v 23.7573h 1.13103v -9.60403h 1.13103v 4.54928h 1.13103v 8.59308h 1.13103v -4.54928h 1.13103v 8.0876h 1.13103v 18.1971h 1.13103v 5.05475h 1.13103v 1.01095h
 1.13103v 8.0876h 1.13103v 5.56023h 1.13103v -3.03285h 1.13103v 17.6916h 1.13103v -5.05475h 1.13103v 12.6369h 2.26206v 14.1533h 1.13103v -4.54928h 1.13103v 10.615h 1.13103v -3.03285h 1.13103v 4.0438h 1.13103v 2.0219h 1.13103v 1.51643h 1.13103v
 15.6697h 1.13103v -8.59308h 1.13103v 8.0876h 1.13103v 7.07665h 1.13103v 1.51643h 2.26206v 2.52738h 1.13103v -5.56023h 1.13103v 9.09855h 1.13103v 4.0438h 1.13103v 1.51643h 1.13103v -3.03285h 1.13103v 1.01095h 1.13103v -2.52738h 1.13103v 7.07665h
 1.13103v 1.51643h 1.13103v 2.0219h 1.13103v -5.05475h 1.13103v 3.03285h 1.13103v 2.52738h 1.13103v 2.52738h 1.13103v -1.51643h 1.13103v -1.51643h 1.13103v 2.0219h 1.13103v 1.01095h 1.13103v 0.505475h 1.13103v 0.505475h 1.13103v -3.03285h 1.13103v
 2.0219h 1.13103v 0.505475h 1.13103v 1.01095h 3.39309v -2.0219h 1.13103v 1.51643h 1.13103v 1.01095h 1.13103v -1.01095h 1.13103v 1.01095h 1.13103v -2.52738h 1.13103v 1.01095h 1.13103v 1.51643h 1.13103v -1.51643h 1.13103v 1.51643h 1.13103v -1.51643h
 1.13103v 1.51643h 3.39309v -0.505475h 1.13103v 0.505475h 19.2275v -0.505475h 1.13103v 0.505475h 5.65515v -0.505475h 1.13103v 0.505475h 2.26206v -0.505475h 1.13103v 0.505475h 28.2758v -0.505475h 1.13103v 0.505475h 5.65515v -0.505475h 2.26206v
 0.505475h 40.7171v -0.505475h 1.13103v 0.505475h 2.26206v -0.505475h 1.13103v 0.505475h 15.8344v -0.505475h 1.13103v 0.505475h 3.39309v -0.505475h 1.13103v 0.505475h 3.39309v -0.505475h 1.13103v 0.505475h 7.91721" fill="none" stroke="#ff0000"
 stroke-width="2"/>
<path d="M59.4606,313.197l 4.53543, -0.000975553l 4.53543, -0.000975554l 4.53543, -0.000975557l 4.53543, -0.000975566l 4.53543, -0.000975594l 4.53543, -0.00097568l 4.53543, -0.000975929l 4.53543, -0.000976637l 4.53543, -0.00097858l 4.53543,
 -0.000983753l 4.53543, -0.000997098l 4.53543, -0.00103046l 4.53543, -0.00111126l 4.53543, -0.00130089l 4.53543, -0.0017319l 4.53543, -0.00268068l 4.53543, -0.00470293l 4.53543, -0.00887538l 4.53543, -0.0172069l 4.53543, -0.0333025l 4.53543,
 -0.0633758l 4.53543, -0.117699l 4.53543, -0.212519l 4.53543, -0.372365l 4.53543, -0.632441l 4.53543, -1.04052l 4.53543, -1.65742l 4.53543, -2.55481l 4.53543, -3.80903l 4.53543, -5.48981l 4.53543, -7.64366l 4.53543, -10.2731l 4.53543, -13.3144l
 4.53543, -16.619l 4.53543, -19.945l 4.53543, -22.9627l 4.53543, -25.2824l 4.53543, -26.4997l 4.53543, -26.2581l 4.53543, -24.3157l 4.53543, -20.6038l 4.53543, -15.2635l 4.53543, -8.6471l 4.53543, -1.28324l 4.53543, 6.19294l 4.53543, 13.13l 4.53543,
 18.9541l 4.53543, 23.2468l 4.53543, 25.7936" fill="none" stroke="#0000ff" stroke-width="2"/>
<path d="M281.697,145.57l 4.53543, 26.5945l 4.53543, 25.8379l 4.53543, 23.849l 4.53543, 21.0231l 4.53543, 17.7613l 4.53543, 14.4175l 4.53543, 11.2653l 4.53543, 8.48464l 4.53543, 6.16638l 4.53543, 4.3281l 4.53543, 2.9358l 4.53543, 1.92552l 4.53543,
 1.22163l 4.53543, 0.749946l 4.53543, 0.445537l 4.53543, 0.256138l 4.53543, 0.142432l 4.53543, 0.0765177l 4.53543, 0.0396014l 4.53543, 0.0196159l 4.53543, 0.00915297l 4.53543, 0.00385405l 4.53543, 0.00125715l 4.53543, 2.52445e-05l 4.53543,
 -0.000540546l 4.53543, -0.000792189l 4.53543, -0.000900592l 4.53543, -0.000945831l 4.53543, -0.000964122l 4.53543, -0.000971288l 4.53543, -0.000974009l 4.53543, -0.000975011l 4.53543, -0.000975368l 4.53543, -0.000975492l 4.53543, -0.000975533l
 4.53543, -0.000975547l 4.53543, -0.000975551l 4.53543, -0.000975552l 4.53543, -0.000975552l 4.53543, -0.000975553l 4.53543, -0.000975553l 4.53543, -0.000975553l 4.53543, -0.000975553l 4.53543, -0.000975553l 4.53543, -0.000975553l 4.53543,
 -0.000975553l 4.53543, -0.000975553l 4.53543, -0.000975553l 4.53543, -0.000975553" fill="none" stroke="#0000ff" stroke-width="2"/>
<path d="M503.933,313.101l 4.53543, -0.000975553" fill="none" stroke="#0000ff" stroke-width="2"/>
<rect x="351.996" y="22.6398" width="204.094" height="97.5251" fill="white"/>
<path d="M351.996,120.165h 204.094" fill="none" stroke="black" stroke-width="2"/>
<path d="M556.091,120.165v -97.5251" fill="none" stroke="black" stroke-width="2"/>
<path d="M556.091,22.6398h -204.094" fill="none" stroke="black" stroke-width="2"/>
<path d="M351.996,22.6398v 97.5251" fill="none" stroke="black" stroke-width="2"/>
<text x="373.742" y="34.9135" fill="black" font-size="12.1826" font-family="Helvetica">
 / ndf 
</text>
<text x="368.755" y="31.5884" fill="black" font-size="8.28843" font-family="Helvetica">
2
</text>
<text x="362.104" y="34.9135" fill="black" font-size="12.1826" font-family="Times">
&#0967;
</text>
<text x="485.964" y="35.7448" fill="black" font-size="12.1826" font-family="Helvetica">
 189.3 / 180
</text>
<text x="362.104" y="51.539" fill="black" font-size="12.1826" font-family="Helvetica">
Centroid 
</text>
<text x="529.19" y="50.7077" fill="black" font-size="12.1826" font-family="Helvetica">
 0.1
</text>
<text x="522.54" y="50.7077" fill="black" font-size="12.1826" font-family="Times">
&#0177;
</text>
<text x="490.121" y="50.7077" fill="black" font-size="12.1826" font-family="Helvetica">
 575.1 
</text>
<text x="362.104" y="68.1645" fill="black" font-size="12.1826" font-family="Helvetica">
FWHM     
</text>
<text x="520.878" y="67.3332" fill="black" font-size="12.1826" font-family="Helvetica">
 0.25
</text>
<text x="514.228" y="67.3332" fill="black" font-size="12.1826" font-family="Times">
&#0177;
</text>
<text x="480.145" y="67.3332" fill="black" font-size="12.1826" font-family="Helvetica">
 54.73 
</text>
<text x="362.104" y="83.9587" fill="black" font-size="12.1826" font-family="Helvetica">
Counts   
</text>
<text x="488.458" y="83.1274" fill="black" font-size="12.1826" font-family="Helvetica">
 1.759e+02
</text>
<text x="481.808" y="83.1274" fill="black" font-size="12.1826" font-family="Times">
&#0177;
</text>
<text x="421.956" y="83.1274" fill="black" font-size="12.1826" font-family="Helvetica">
 2.949e+04 
</text>
<text x="362.104" y="98.9217" fill="black" font-size="12.1826" font-family="Helvetica">
Intercept 
</text>
<text x="507.577" y="99.7529" fill="black" font-size="12.1826" font-family="Helvetica">
 1.0464
</text>
<text x="500.927" y="99.7529" fill="black" font-size="12.1826" font-family="Times">
&#0177;
</text>
<text x="460.195" y="99.7529" fill="black" font-size="12.1826" font-family="Helvetica">
 0.3556 
</text>
<text x="362.104" y="114.716" fill="black" font-size="12.1826" font-family="Helvetica">
Slope    
</text>
<text x="488.458" y="115.547" fill="black" font-size="12.1826" font-family="Helvetica">
 0.0016179
</text>
<text x="481.808" y="115.547" fill="black" font-size="12.1826" font-family="Times">
&#0177;
</text>
<text x="421.956" y="115.547" fill="black" font-size="12.1826" font-family="Helvetica">
 0.0004813 
</text>
<path d="M57.1929,313.474h 453.543" fill="none" stroke="black" stroke-width="2"/>
<text x="462.689" y="337.497" fill="black" font-size="11.6841" font-family="Helvetica">
Channels
</text>
<path d="M59.455,305.114v 8.35929" fill="none" stroke="black" stroke-width="2"/>
<path d="M82.0756,309.294v 4.17965" fill="none" stroke="black" stroke-width="2"/>
<path d="M104.696,309.294v 4.17965" fill="none" stroke="black" stroke-width="2"/>
<path d="M127.317,309.294v 4.17965" fill="none" stroke="black" stroke-width="2"/>
<path d="M149.937,309.294v 4.17965" fill="none" stroke="black" stroke-width="2"/>
<path d="M172.558,305.114v 8.35929" fill="none" stroke="black" stroke-width="2"/>
<path d="M195.179,309.294v 4.17965" fill="none" stroke="black" stroke-width="2"/>
<path d="M217.799,309.294v 4.17965" fill="none" stroke="black" stroke-width="2"/>
<path d="M240.42,309.294v 4.17965" fill="none" stroke="black" stroke-width="2"/>
<path d="M263.04,309.294v 4.17965" fill="none" stroke="black" stroke-width="2"/>
<path d="M285.661,305.114v 8.35929" fill="none" stroke="black" stroke-width="2"/>
<path d="M308.282,309.294v 4.17965" fill="none" stroke="black" stroke-width="2"/>
<path d="M330.902,309.294v 4.17965" fill="none" stroke="black" stroke-width="2"/>
<path d="M353.523,309.294v 4.17965" fill="none" stroke="black" stroke-width="2"/>
<path d="M376.144,309.294v 4.17965" fill="none" stroke="black" stroke-width="2"/>
<path d="M398.764,305.114v 8.35929" fill="none" stroke="black" stroke-width="2"/>
<path d="M59.455,305.114v 8.35929" fill="none" stroke="black" stroke-width="2"/>
<path d="M398.764,305.114v 8.35929" fill="none" stroke="black" stroke-width="2"/>
<path d="M421.385,309.294v 4.17965" fill="none" stroke="black" stroke-width="2"/>
<path d="M444.005,309.294v 4.17965" fill="none" stroke="black" stroke-width="2"/>
<path d="M466.626,309.294v 4.17965" fill="none" stroke="black" stroke-width="2"/>
<path d="M489.247,309.294v 4.17965" fill="none" stroke="black" stroke-width="2"/>
<text x="48.7139" y="324.197" fill="black" font-size="11.6841" font-family="Helvetica">
400
</text>
<text x="161.767" y="324.197" fill="black" font-size="11.6841" font-family="Helvetica">
500
</text>
<text x="275.652" y="324.197" fill="black" font-size="11.6841" font-family="Helvetica">
600
</text>
<text x="388.705" y="324.197" fill="black" font-size="11.6841" font-family="Helvetica">
700
</text>
<path d="M57.1929,313.474v -278.643" fill="none" stroke="black" stroke-width="2"/>
<path d="M70.7992,313.474h -13.6063" fill="none" stroke="black" stroke-width="2"/>
<path d="M63.9961,303.364h -6.80315" fill="none" stroke="black" stroke-width="2"/>
<path d="M63.9961,293.255h -6.80315" fill="none" stroke="black" stroke-width="2"/>
<path d="M63.9961,283.145h -6.80315" fill="none" stroke="black" stroke-width="2"/>
<path d="M63.9961,273.036h -6.80315" fill="none" stroke="black" stroke-width="2"/>
<path d="M70.7992,262.926h -13.6063" fill="none" stroke="black" stroke-width="2"/>
<path d="M63.9961,252.817h -6.80315" fill="none" stroke="black" stroke-width="2"/>
<path d="M63.9961,242.707h -6.80315" fill="none" stroke="black" stroke-width="2"/>
<path d="M63.9961,232.598h -6.80315" fill="none" stroke="black" stroke-width="2"/>
<path d="M63.9961,222.488h -6.80315" fill="none" stroke="black" stroke-width="2"/>
<path d="M70.7992,212.379h -13.6063" fill="none" stroke="black" stroke-width="2"/>
<path d="M63.9961,202.269h -6.80315" fill="none" stroke="black" stroke-width="2"/>
<path d="M63.9961,192.16h -6.80315" fill="none" stroke="black" stroke-width="2"/>
<path d="M63.9961,182.05h -6.80315" fill="none" stroke="black" stroke-width="2"/>
<path d="M63.9961,171.941h -6.80315" fill="none" stroke="black" stroke-width="2"/>
<path d="M70.7992,161.831h -13.6063" fill="none" stroke="black" stroke-width="2"/>
<path d="M63.9961,151.722h -6.80315" fill="none" stroke="black" stroke-width="2"/>
<path d="M63.9961,141.612h -6.80315" fill="none" stroke="black" stroke-width="2"/>
<path d="M63.9961,131.503h -6.80315" fill="none" stroke="black" stroke-width="2"/>
<path d="M63.9961,121.393h -6.80315" fill="none" stroke="black" stroke-width="2"/>
<path d="M70.7992,111.284h -13.6063" fill="none" stroke="black" stroke-width="2"/>
<path d="M63.9961,101.174h -6.80315" fill="none" stroke="black" stroke-width="2"/>
<path d="M63.9961,91.0645h -6.80315" fill="none" stroke="black" stroke-width="2"/>
<path d="M63.9961,80.955h -6.80315" fill="none" stroke="black" stroke-width="2"/>
<path d="M63.9961,70.8455h -6.80315" fill="none" stroke="black" stroke-width="2"/>
<path d="M70.7992,60.736h -13.6063" fill="none" stroke="black" stroke-width="2"/>
<path d="M70.7992,60.736h -13.6063" fill="none" stroke="black" stroke-width="2"/>
<path d="M63.9961,50.6265h -6.80315" fill="none" stroke="black" stroke-width="2"/>
<path d="M63.9961,40.517h -6.80315" fill="none" stroke="black" stroke-width="2"/>
<text x="47.0514" y="317.547" fill="black" font-size="11.6841" font-family="Helvetica">
0
</text>
<text x="34.5822" y="266.839" fill="black" font-size="11.6841" font-family="Helvetica">
100
</text>
<text x="34.5822" y="216.131" fill="black" font-size="11.6841" font-family="Helvetica">
200
</text>
<text x="34.5822" y="165.424" fill="black" font-size="11.6841" font-family="Helvetica">
300
</text>
<text x="34.5822" y="114.716" fill="black" font-size="11.6841" font-family="Helvetica">
400
</text>
<text x="34.5822" y="64.8394" fill="black" font-size="11.6841" font-family="Helvetica">
500
</text>
<rect x="351.996" y="22.6398" width="204.094" height="97.5251" fill="white"/>
<path d="M351.996,120.165h 204.094" fill="none" stroke="black" stroke-width="2"/>
<path d="M556.091,120.165v -97.5251" fill="none" stroke="black" stroke-width="2"/>
<path d="M556.091,22.6398h -204.094" fill="none" stroke="black" stroke-width="2"/>
<path d="M351.996,22.6398v 97.5251" fill="none" stroke="black" stroke-width="2"/>
<text x="373.742" y="34.9135" fill="black" font-size="12.1826" font-family="Helvetica">
 / ndf 
</text>
<text x="368.755" y="31.5884" fill="black" font-size="8.28843" font-family="Helvetica">
2
</text>
<text x="362.104" y="34.9135" fill="black" font-size="12.1826" font-family="Times">
&#0967;
</text>
<text x="485.964" y="35.7448" fill="black" font-size="12.1826" font-family="Helvetica">
 189.3 / 180
</text>
<text x="362.104" y="51.539" fill="black" font-size="12.1826" font-family="Helvetica">
Centroid 
</text>
<text x="529.19" y="50.7077" fill="black" font-size="12.1826" font-family="Helvetica">
 0.1
</text>
<text x="522.54" y="50.7077" fill="black" font-size="12.1826" font-family="Times">
&#0177;
</text>
<text x="490.121" y="50.7077" fill="black" font-size="12.1826" font-family="Helvetica">
 575.1 
</text>
<text x="362.104" y="68.1645" fill="black" font-size="12.1826" font-family="Helvetica">
FWHM     
</text>
<text x="520.878" y="67.3332" fill="black" font-size="12.1826" font-family="Helvetica">
 0.25
</text>
<text x="514.228" y="67.3332" fill="black" font-size="12.1826" font-family="Times">
&#0177;
</text>
<text x="480.145" y="67.3332" fill="black" font-size="12.1826" font-family="Helvetica">
 54.73 
</text>
<text x="362.104" y="83.9587" fill="black" font-size="12.1826" font-family="Helvetica">
Counts   
</text>
<text x="488.458" y="83.1274" fill="black" font-size="12.1826" font-family="Helvetica">
 1.759e+02
</text>
<text x="481.808" y="83.1274" fill="black" font-size="12.1826" font-family="Times">
&#0177;
</text>
<text x="421.956" y="83.1274" fill="black" font-size="12.1826" font-family="Helvetica">
 2.949e+04 
</text>
<text x="362.104" y="98.9217" fill="black" font-size="12.1826" font-family="Helvetica">
Intercept 
</text>
<text x="507.577" y="99.7529" fill="black" font-size="12.1826" font-family="Helvetica">
 1.0464
</text>
<text x="500.927" y="99.7529" fill="black" font-size="12.1826" font-family="Times">
&#0177;
</text>
<text x="460.195" y="99.7529" fill="black" font-size="12.1826" font-family="Helvetica">
 0.3556 
</text>
<text x="362.104" y="114.716" fill="black" font-size="12.1826" font-family="Helvetica">
Slope    
</text>
<text x="488.458" y="115.547" fill="black" font-size="12.1826" font-family="Helvetica">
 0.0016179
</text>
<text x="481.808" y="115.547" fill="black" font-size="12.1826" font-family="Times">
&#0177;
</text>
<text x="421.956" y="115.547" fill="black" font-size="12.1826" font-family="Helvetica">
 0.0004813 
</text>
<path d="M59.4606,313.474h 81.6378l 4.53543, -0.0308704l 4.53543, -0.0323269l 4.53543, -0.0624003l 4.53543, -0.116723l 4.53543, -0.211543l 4.53543, -0.37139l 4.53543, -0.631465l 4.53543, -1.03954l 4.53543, -1.65645l 4.53543, -2.55384l 4.53543,
 -3.80806l 4.53543, -5.48883l 4.53543, -7.64269l 4.53543, -10.2721l 4.53543, -13.3134l 4.53543, -16.6181l 4.53543, -19.944l 4.53543, -22.9618l 4.53543, -25.2814l 4.53543, -26.4988l 4.53543, -26.2571l 4.53543, -24.3147l 4.53543, -20.6028l 4.53543,
 -15.2625l 4.53543, -8.64612l 4.53543, -1.28226l 4.53543, 6.19391l 4.53543, 13.131l 4.53543, 18.955l 4.53543, 23.2477l 4.53543, 25.7946" fill="none" stroke="#00ff00" stroke-width="2"/>
<path d="M281.697,145.895l 4.53543, 26.5955l 4.53543, 25.8389l 4.53543, 23.85l 4.53543, 21.0241l 4.53543, 17.7622l 4.53543, 14.4185l 4.53543, 11.2662l 4.53543, 8.48561l 4.53543, 6.16735l 4.53543, 4.32908l 4.53543, 2.93678l 4.53543, 1.9265l 4.53543,
 1.22261l 4.53543, 0.750922l 4.53543, 0.446513l 4.53543, 0.257114l 4.53543, 0.143407l 4.53543, 0.0774932l 4.53543, 0.0405769l 4.53543, 0.0395242h 131.528" fill="none" stroke="#00ff00" stroke-width="2"/>
<path d="M503.933,313.474h 4.53543" fill="none" stroke="#00ff00" stroke-width="2"/>
<text x="96.0966" y="15.7942" fill="black" font-size="13.3009" font-family="Helvetica">
Wk3/22Na-Coin-511Window-fullrange0_5us10V_20degrees.Spe
</text></svg>
