<?xml version="1.0" standalone="no"?>
<svg width="567.429" height="324.744" viewBox="0 0 567.429 324.744" xmlns="http://www.w3.org/2000/svg">
<title>
/home/ADF/hyw543/Coincidence/c1.svg
</title>
<desc>
Creator: ROOT Version 6.06/08
CreationDate: Mon Jan  7 21:08:02 2019</desc>
<defs>
</defs>
<rect x="0.5" y="0" width="566.929" height="324.244" fill="white"/>
<rect x="57.1929" y="32.4244" width="453.543" height="259.395" fill="white"/>
<rect x="57.1929" y="32.4244" width="453.543" height="259.395" fill="none" stroke="black"/>
<rect x="57.1929" y="32.4244" width="453.543" height="259.395" fill="white"/>
<rect x="57.1929" y="32.4244" width="453.543" height="259.395" fill="none" stroke="black"/>
<path d="M57.1929,291.819h 59.3504v -123.521h 0.221457v 123.521h 3.10039v -123.521h 0.221457v 123.521h 1.32874v -247.043h 0.221457v 247.043h 0.221457v -247.043h 0.221457v 247.043h 0.221457v -123.521h 0.442913v 123.521h 1.10728v -123.521h 0.442913v
 123.521h 0.442913v -247.043h 0.221457v 123.521h 0.442913v 123.521h 0.221457v -123.521h 0.442913v 123.521h 0.221457v -247.043h 0.221457v 123.521h 0.221457v 123.521h 0.442913v -123.521h 0.221457v 123.521h 0.442913v -123.521h 0.221457v 123.521h
 1.32874v -123.521h 0.221457v 123.521h 1.5502v -123.521h 0.221457v 123.521h 49.8278v -123.521h 0.221457v 123.521h 52.9282v -123.521h 0.221457v 123.521h 276.156" fill="none" stroke="#ff0000" stroke-width="2"/>
<path d="M59.4606,291.819h 54.4252l 4.53543, -3.46069l 4.53543, -83.6556l 4.53543, 28.9479l 4.53543, 57.1381l 4.53543, 1.03021h 145.134" fill="none" stroke="#0000ff" stroke-width="2"/>
<path d="M281.697,291.819h 222.236" fill="none" stroke="#0000ff" stroke-width="2"/>
<path d="M503.933,291.819h 4.53543" fill="none" stroke="#0000ff" stroke-width="2"/>
<rect x="351.996" y="21.0758" width="204.094" height="90.7882" fill="white"/>
<path d="M351.996,111.864h 204.094" fill="none" stroke="black" stroke-width="2"/>
<path d="M556.091,111.864v -90.7882" fill="none" stroke="black" stroke-width="2"/>
<path d="M556.091,21.0758h -204.094" fill="none" stroke="black" stroke-width="2"/>
<path d="M351.996,21.0758v 90.7882" fill="none" stroke="black" stroke-width="2"/>
<text x="373.48" y="31.8276" fill="black" font-size="12.6997" font-family="Helvetica">
 / ndf 
</text>
<text x="368.507" y="27.8492" fill="black" font-size="8.63314" font-family="Helvetica">
2
</text>
<text x="361.544" y="31.8276" fill="black" font-size="12.6997" font-family="Times">
&#0967;
</text>
<text x="490.844" y="32.8222" fill="black" font-size="12.6997" font-family="Helvetica">
 10.49 / 16
</text>
<text x="361.544" y="48.736" fill="black" font-size="12.6997" font-family="Helvetica">
Centroid 
</text>
<text x="526.65" y="48.736" fill="black" font-size="12.6997" font-family="Helvetica">
 6.8
</text>
<text x="519.688" y="48.736" fill="black" font-size="12.6997" font-family="Times">
&#0177;
</text>
<text x="483.882" y="48.736" fill="black" font-size="12.6997" font-family="Helvetica">
 304.9 
</text>
<text x="361.544" y="63.6552" fill="black" font-size="12.6997" font-family="Helvetica">
FWHM     
</text>
<text x="519.688" y="63.6552" fill="black" font-size="12.6997" font-family="Helvetica">
 9.29
</text>
<text x="512.725" y="63.6552" fill="black" font-size="12.6997" font-family="Times">
&#0177;
</text>
<text x="476.919" y="63.6552" fill="black" font-size="12.6997" font-family="Helvetica">
 25.26 
</text>
<text x="361.544" y="78.5744" fill="black" font-size="12.6997" font-family="Helvetica">
Counts   
</text>
<text x="526.65" y="78.5744" fill="black" font-size="12.6997" font-family="Helvetica">
 3.2
</text>
<text x="519.688" y="78.5744" fill="black" font-size="12.6997" font-family="Times">
&#0177;
</text>
<text x="491.839" y="78.5744" fill="black" font-size="12.6997" font-family="Helvetica">
    25 
</text>
<text x="361.544" y="92.499" fill="black" font-size="12.6997" font-family="Helvetica">
Intercept 
</text>
<text x="534.607" y="93.4936" fill="black" font-size="12.6997" font-family="Helvetica">
11
</text>
<text x="527.645" y="93.4936" fill="black" font-size="12.6997" font-family="Times">
&#8722;
</text>
<text x="488.855" y="93.4936" fill="black" font-size="12.6997" font-family="Helvetica">
 1.665e
</text>
<text x="481.892" y="93.4936" fill="black" font-size="12.6997" font-family="Times">
&#0177;
</text>
<text x="467.968" y="93.4936" fill="black" font-size="12.6997" font-family="Helvetica">
11 
</text>
<text x="461.006" y="93.4936" fill="black" font-size="12.6997" font-family="Times">
&#8722;
</text>
<text x="422.216" y="93.4936" fill="black" font-size="12.6997" font-family="Helvetica">
 2.097e
</text>
<text x="361.544" y="107.418" fill="black" font-size="12.6997" font-family="Helvetica">
Slope    
</text>
<text x="532.618" y="108.413" fill="black" font-size="12.6997" font-family="Helvetica">
13
</text>
<text x="525.655" y="108.413" fill="black" font-size="12.6997" font-family="Times">
&#8722;
</text>
<text x="486.866" y="108.413" fill="black" font-size="12.6997" font-family="Helvetica">
 1.940e
</text>
<text x="479.903" y="108.413" fill="black" font-size="12.6997" font-family="Times">
&#0177;
</text>
<text x="463.989" y="108.413" fill="black" font-size="12.6997" font-family="Helvetica">
14 
</text>
<text x="457.027" y="108.413" fill="black" font-size="12.6997" font-family="Times">
&#8722;
</text>
<text x="418.237" y="108.413" fill="black" font-size="12.6997" font-family="Helvetica">
 2.442e
</text>
<path d="M57.1929,291.819h 453.543" fill="none" stroke="black" stroke-width="2"/>
<text x="465.979" y="314.298" fill="black" font-size="10.9115" font-family="Helvetica">
Channels
</text>
<path d="M57.1929,284.037v 7.78185" fill="none" stroke="black" stroke-width="2"/>
<path d="M79.3386,287.928v 3.89092" fill="none" stroke="black" stroke-width="2"/>
<path d="M101.484,287.928v 3.89092" fill="none" stroke="black" stroke-width="2"/>
<path d="M123.63,287.928v 3.89092" fill="none" stroke="black" stroke-width="2"/>
<path d="M145.776,287.928v 3.89092" fill="none" stroke="black" stroke-width="2"/>
<path d="M167.921,284.037v 7.78185" fill="none" stroke="black" stroke-width="2"/>
<path d="M190.067,287.928v 3.89092" fill="none" stroke="black" stroke-width="2"/>
<path d="M212.213,287.928v 3.89092" fill="none" stroke="black" stroke-width="2"/>
<path d="M234.358,287.928v 3.89092" fill="none" stroke="black" stroke-width="2"/>
<path d="M256.504,287.928v 3.89092" fill="none" stroke="black" stroke-width="2"/>
<path d="M278.65,284.037v 7.78185" fill="none" stroke="black" stroke-width="2"/>
<path d="M300.795,287.928v 3.89092" fill="none" stroke="black" stroke-width="2"/>
<path d="M322.941,287.928v 3.89092" fill="none" stroke="black" stroke-width="2"/>
<path d="M345.087,287.928v 3.89092" fill="none" stroke="black" stroke-width="2"/>
<path d="M367.232,287.928v 3.89092" fill="none" stroke="black" stroke-width="2"/>
<path d="M389.378,284.037v 7.78185" fill="none" stroke="black" stroke-width="2"/>
<path d="M411.524,287.928v 3.89092" fill="none" stroke="black" stroke-width="2"/>
<path d="M433.669,287.928v 3.89092" fill="none" stroke="black" stroke-width="2"/>
<path d="M455.815,287.928v 3.89092" fill="none" stroke="black" stroke-width="2"/>
<path d="M477.961,287.928v 3.89092" fill="none" stroke="black" stroke-width="2"/>
<path d="M500.106,284.037v 7.78185" fill="none" stroke="black" stroke-width="2"/>
<path d="M500.106,284.037v 7.78185" fill="none" stroke="black" stroke-width="2"/>
<text x="54.2091" y="302.362" fill="black" font-size="10.9115" font-family="Helvetica">
0
</text>
<text x="158.643" y="302.362" fill="black" font-size="10.9115" font-family="Helvetica">
500
</text>
<text x="266.062" y="302.362" fill="black" font-size="10.9115" font-family="Helvetica">
1000
</text>
<text x="376.464" y="302.362" fill="black" font-size="10.9115" font-family="Helvetica">
1500
</text>
<text x="487.86" y="302.362" fill="black" font-size="10.9115" font-family="Helvetica">
2000
</text>
<path d="M57.1929,291.819v -259.395" fill="none" stroke="black" stroke-width="2"/>
<path d="M70.7992,291.819h -13.6063" fill="none" stroke="black" stroke-width="2"/>
<path d="M63.9961,285.643h -6.80315" fill="none" stroke="black" stroke-width="2"/>
<path d="M63.9961,279.467h -6.80315" fill="none" stroke="black" stroke-width="2"/>
<path d="M63.9961,273.291h -6.80315" fill="none" stroke="black" stroke-width="2"/>
<path d="M70.7992,267.115h -13.6063" fill="none" stroke="black" stroke-width="2"/>
<path d="M63.9961,260.939h -6.80315" fill="none" stroke="black" stroke-width="2"/>
<path d="M63.9961,254.763h -6.80315" fill="none" stroke="black" stroke-width="2"/>
<path d="M63.9961,248.587h -6.80315" fill="none" stroke="black" stroke-width="2"/>
<path d="M70.7992,242.411h -13.6063" fill="none" stroke="black" stroke-width="2"/>
<path d="M63.9961,236.235h -6.80315" fill="none" stroke="black" stroke-width="2"/>
<path d="M63.9961,230.059h -6.80315" fill="none" stroke="black" stroke-width="2"/>
<path d="M63.9961,223.883h -6.80315" fill="none" stroke="black" stroke-width="2"/>
<path d="M70.7992,217.706h -13.6063" fill="none" stroke="black" stroke-width="2"/>
<path d="M63.9961,211.53h -6.80315" fill="none" stroke="black" stroke-width="2"/>
<path d="M63.9961,205.354h -6.80315" fill="none" stroke="black" stroke-width="2"/>
<path d="M63.9961,199.178h -6.80315" fill="none" stroke="black" stroke-width="2"/>
<path d="M70.7992,193.002h -13.6063" fill="none" stroke="black" stroke-width="2"/>
<path d="M63.9961,186.826h -6.80315" fill="none" stroke="black" stroke-width="2"/>
<path d="M63.9961,180.65h -6.80315" fill="none" stroke="black" stroke-width="2"/>
<path d="M63.9961,174.474h -6.80315" fill="none" stroke="black" stroke-width="2"/>
<path d="M70.7992,168.298h -13.6063" fill="none" stroke="black" stroke-width="2"/>
<path d="M63.9961,162.122h -6.80315" fill="none" stroke="black" stroke-width="2"/>
<path d="M63.9961,155.946h -6.80315" fill="none" stroke="black" stroke-width="2"/>
<path d="M63.9961,149.77h -6.80315" fill="none" stroke="black" stroke-width="2"/>
<path d="M70.7992,143.594h -13.6063" fill="none" stroke="black" stroke-width="2"/>
<path d="M63.9961,137.418h -6.80315" fill="none" stroke="black" stroke-width="2"/>
<path d="M63.9961,131.241h -6.80315" fill="none" stroke="black" stroke-width="2"/>
<path d="M63.9961,125.065h -6.80315" fill="none" stroke="black" stroke-width="2"/>
<path d="M70.7992,118.889h -13.6063" fill="none" stroke="black" stroke-width="2"/>
<path d="M63.9961,112.713h -6.80315" fill="none" stroke="black" stroke-width="2"/>
<path d="M63.9961,106.537h -6.80315" fill="none" stroke="black" stroke-width="2"/>
<path d="M63.9961,100.361h -6.80315" fill="none" stroke="black" stroke-width="2"/>
<path d="M70.7992,94.1851h -13.6063" fill="none" stroke="black" stroke-width="2"/>
<path d="M63.9961,88.009h -6.80315" fill="none" stroke="black" stroke-width="2"/>
<path d="M63.9961,81.8329h -6.80315" fill="none" stroke="black" stroke-width="2"/>
<path d="M63.9961,75.6569h -6.80315" fill="none" stroke="black" stroke-width="2"/>
<path d="M70.7992,69.4808h -13.6063" fill="none" stroke="black" stroke-width="2"/>
<path d="M63.9961,63.3047h -6.80315" fill="none" stroke="black" stroke-width="2"/>
<path d="M63.9961,57.1287h -6.80315" fill="none" stroke="black" stroke-width="2"/>
<path d="M63.9961,50.9526h -6.80315" fill="none" stroke="black" stroke-width="2"/>
<path d="M70.7992,44.7765h -13.6063" fill="none" stroke="black" stroke-width="2"/>
<path d="M70.7992,44.7765h -13.6063" fill="none" stroke="black" stroke-width="2"/>
<path d="M63.9961,38.6004h -6.80315" fill="none" stroke="black" stroke-width="2"/>
<path d="M63.9961,32.4244h -6.80315" fill="none" stroke="black" stroke-width="2"/>
<text x="48.2414" y="295.4" fill="black" font-size="10.9115" font-family="Helvetica">
0
</text>
<text x="39.2899" y="270.535" fill="black" font-size="10.9115" font-family="Helvetica">
0.2
</text>
<text x="39.2899" y="245.669" fill="black" font-size="10.9115" font-family="Helvetica">
0.4
</text>
<text x="39.2899" y="220.804" fill="black" font-size="10.9115" font-family="Helvetica">
0.6
</text>
<text x="39.2899" y="196.933" fill="black" font-size="10.9115" font-family="Helvetica">
0.8
</text>
<text x="50.2306" y="173.063" fill="black" font-size="10.9115" font-family="Helvetica">
1
</text>
<text x="39.2899" y="148.197" fill="black" font-size="10.9115" font-family="Helvetica">
1.2
</text>
<text x="39.2899" y="123.332" fill="black" font-size="10.9115" font-family="Helvetica">
1.4
</text>
<text x="39.2899" y="97.472" fill="black" font-size="10.9115" font-family="Helvetica">
1.6
</text>
<text x="39.2899" y="72.6067" fill="black" font-size="10.9115" font-family="Helvetica">
1.8
</text>
<text x="48.2414" y="49.7306" fill="black" font-size="10.9115" font-family="Helvetica">
2
</text>
<rect x="351.996" y="21.0758" width="204.094" height="90.7882" fill="white"/>
<path d="M351.996,111.864h 204.094" fill="none" stroke="black" stroke-width="2"/>
<path d="M556.091,111.864v -90.7882" fill="none" stroke="black" stroke-width="2"/>
<path d="M556.091,21.0758h -204.094" fill="none" stroke="black" stroke-width="2"/>
<path d="M351.996,21.0758v 90.7882" fill="none" stroke="black" stroke-width="2"/>
<text x="373.48" y="31.8276" fill="black" font-size="12.6997" font-family="Helvetica">
 / ndf 
</text>
<text x="368.507" y="27.8492" fill="black" font-size="8.63314" font-family="Helvetica">
2
</text>
<text x="361.544" y="31.8276" fill="black" font-size="12.6997" font-family="Times">
&#0967;
</text>
<text x="490.844" y="32.8222" fill="black" font-size="12.6997" font-family="Helvetica">
 10.49 / 16
</text>
<text x="361.544" y="48.736" fill="black" font-size="12.6997" font-family="Helvetica">
Centroid 
</text>
<text x="526.65" y="48.736" fill="black" font-size="12.6997" font-family="Helvetica">
 6.8
</text>
<text x="519.688" y="48.736" fill="black" font-size="12.6997" font-family="Times">
&#0177;
</text>
<text x="483.882" y="48.736" fill="black" font-size="12.6997" font-family="Helvetica">
 304.9 
</text>
<text x="361.544" y="63.6552" fill="black" font-size="12.6997" font-family="Helvetica">
FWHM     
</text>
<text x="519.688" y="63.6552" fill="black" font-size="12.6997" font-family="Helvetica">
 9.29
</text>
<text x="512.725" y="63.6552" fill="black" font-size="12.6997" font-family="Times">
&#0177;
</text>
<text x="476.919" y="63.6552" fill="black" font-size="12.6997" font-family="Helvetica">
 25.26 
</text>
<text x="361.544" y="78.5744" fill="black" font-size="12.6997" font-family="Helvetica">
Counts   
</text>
<text x="526.65" y="78.5744" fill="black" font-size="12.6997" font-family="Helvetica">
 3.2
</text>
<text x="519.688" y="78.5744" fill="black" font-size="12.6997" font-family="Times">
&#0177;
</text>
<text x="491.839" y="78.5744" fill="black" font-size="12.6997" font-family="Helvetica">
    25 
</text>
<text x="361.544" y="92.499" fill="black" font-size="12.6997" font-family="Helvetica">
Intercept 
</text>
<text x="534.607" y="93.4936" fill="black" font-size="12.6997" font-family="Helvetica">
11
</text>
<text x="527.645" y="93.4936" fill="black" font-size="12.6997" font-family="Times">
&#8722;
</text>
<text x="488.855" y="93.4936" fill="black" font-size="12.6997" font-family="Helvetica">
 1.665e
</text>
<text x="481.892" y="93.4936" fill="black" font-size="12.6997" font-family="Times">
&#0177;
</text>
<text x="467.968" y="93.4936" fill="black" font-size="12.6997" font-family="Helvetica">
11 
</text>
<text x="461.006" y="93.4936" fill="black" font-size="12.6997" font-family="Times">
&#8722;
</text>
<text x="422.216" y="93.4936" fill="black" font-size="12.6997" font-family="Helvetica">
 2.097e
</text>
<text x="361.544" y="107.418" fill="black" font-size="12.6997" font-family="Helvetica">
Slope    
</text>
<text x="532.618" y="108.413" fill="black" font-size="12.6997" font-family="Helvetica">
13
</text>
<text x="525.655" y="108.413" fill="black" font-size="12.6997" font-family="Times">
&#8722;
</text>
<text x="486.866" y="108.413" fill="black" font-size="12.6997" font-family="Helvetica">
 1.940e
</text>
<text x="479.903" y="108.413" fill="black" font-size="12.6997" font-family="Times">
&#0177;
</text>
<text x="463.989" y="108.413" fill="black" font-size="12.6997" font-family="Helvetica">
14 
</text>
<text x="457.027" y="108.413" fill="black" font-size="12.6997" font-family="Times">
&#8722;
</text>
<text x="418.237" y="108.413" fill="black" font-size="12.6997" font-family="Helvetica">
 2.442e
</text>
<path d="M59.4606,291.819h 54.4252l 4.53543, -3.46069l 4.53543, -83.6556l 4.53543, 28.9479l 4.53543, 57.1381l 4.53543, 1.03021h 145.134" fill="none" stroke="#00ff00" stroke-width="2"/>
<path d="M281.697,291.819h 222.236" fill="none" stroke="#00ff00" stroke-width="2"/>
<path d="M503.933,291.819h 4.53543" fill="none" stroke="#00ff00" stroke-width="2"/>
<text x="96.9774" y="14.9192" fill="black" font-size="11.7544" font-family="Helvetica">
Wk3/22Na-Coin-511Window-fullrange0_5us10V_40degrees_20cm.Spe
</text></svg>
