<?xml version="1.0" standalone="no"?>
<svg width="567.429" height="351.74" viewBox="0 0 567.429 351.74" xmlns="http://www.w3.org/2000/svg">
<title>
/home/ADF/hyw543/Coincidence/c1.svg
</title>
<desc>
Creator: ROOT Version 6.06/08
CreationDate: Mon Jan  7 20:48:05 2019</desc>
<defs>
</defs>
<rect x="0.5" y="0" width="566.929" height="351.24" fill="white"/>
<rect x="57.1929" y="35.124" width="453.543" height="280.992" fill="white"/>
<rect x="57.1929" y="35.124" width="453.543" height="280.992" fill="none" stroke="black"/>
<rect x="57.1929" y="35.124" width="453.543" height="280.992" fill="white"/>
<rect x="57.1929" y="35.124" width="453.543" height="280.992" fill="none" stroke="black"/>
<path d="M57.1929,316.116h 14.4844v -0.383398h 0.905276v 0.383398h 15.3897v -0.383398h 0.905276v 0.383398h 12.6739v -0.383398h 0.905276v 0.383398h 5.43166v -0.383398h 0.905276v 0.383398h 10.8633v -0.383398h 0.905276v 0.383398h 1.81055v -0.383398h
 0.905276v 0.383398h 3.6211v -0.383398h 0.905276v 0.383398h 4.52638v -0.383398h 1.81055v 0.383398h 11.7686v -0.383398h 2.71583v 0.383398h 1.81055v -0.383398h 0.905276v -0.766796h 0.905276v 1.15019h 0.905276v -0.383398h 0.905276v 0.383398h 0.905276v
 -1.15019h 0.905276v 1.15019h 0.905276v -0.383398h 2.71583v 0.383398h 1.81055v -0.766796h 0.905276v 0.766796h 0.905276v -0.383398h 0.905276v -1.15019h 0.905276v 1.53359h 0.905276v -0.383398h 0.905276v -1.15019h 0.905276v 0.383398h 1.81055v -0.383398h
 0.905276v -0.766796h 2.71583v 0.766796h 0.905276v -1.91699h 0.905276v 2.68378h 0.905276v -0.383398h 0.905276v -1.15019h 0.905276v -1.15019h 0.905276v -1.53359h 0.905276v 0.383398h 0.905276v -1.91699h 0.905276v 1.15019h 1.81055v 0.383398h 0.905276v
 -3.06718h 1.81055v -3.45058h 1.81055v -1.53359h 0.905276v -7.66796h 0.905276v 3.83398h 0.905276v 0.766796h 0.905276v -2.30039h 0.905276v -8.43475h 0.905276v 1.91699h 0.905276v -3.06718h 0.905276v -5.36757h 0.905276v -1.53359h 0.905276v 1.15019h
 0.905276v -0.766796h 0.905276v -7.28456h 0.905276v 1.15019h 0.905276v -6.13437h 0.905276v -6.51776h 0.905276v -1.53359h 0.905276v -10.7351h 0.905276v -3.83398h 0.905276v 3.83398h 0.905276v -13.8023h 0.905276v -4.60077h 0.905276v -0.766796h 0.905276v
 3.06718h 0.905276v -6.51776h 0.905276v -15.7193h 0.905276v -15.3359h 0.905276v 3.45058h 0.905276v -10.3517h 0.905276v -7.28456h 0.905276v 7.28456h 0.905276v -19.5533h 0.905276v 3.45058h 0.905276v -1.15019h 0.905276v -8.81815h 0.905276v -6.90116h
 0.905276v -4.21738h 0.905276v -15.7193h 0.905276v -5.75097h 0.905276v -24.5375h 1.81055v -6.90116h 0.905276v 18.0197h 0.905276v -23.7707h 0.905276v 21.8537h 0.905276v -23.3873h 0.905276v -17.2529h 0.905276v 13.8023h 0.905276v -6.51776h 0.905276v
 -19.5533h 0.905276v 14.9525h 0.905276v -14.1857h 0.905276v -15.3359h 0.905276v 11.1185h 0.905276v -11.1185h 0.905276v 14.9525h 0.905276v 1.91699h 0.905276v -7.66796h 0.905276v 7.28456h 0.905276v 5.36757h 0.905276v -12.6521h 0.905276v -1.53359h
 0.905276v 9.96834h 0.905276v 13.0355h 0.905276v -6.13437h 0.905276v 0.383398h 0.905276v 9.58494h 0.905276v 8.81815h 0.905276v 6.90116h 0.905276v -2.30039h 0.905276v -2.30039h 0.905276v 4.21738h 0.905276v 31.4386h 0.905276v -8.81815h 0.905276v
 -18.0197h 0.905276v 31.822h 0.905276v 0.383398h 0.905276v 2.68378h 0.905276v 1.15019h 0.905276v 13.8023h 0.905276v 10.7351h 0.905276v 23.7707h 0.905276v -15.3359h 0.905276v 3.45058h 1.81055v -1.53359h 0.905276v 23.0039h 0.905276v 7.66796h 0.905276v
 8.81815h 0.905276v 7.66796h 0.905276v 6.13437h 0.905276v 4.98417h 0.905276v -5.36757h 0.905276v 2.68378h 0.905276v 10.7351h 0.905276v 6.90116h 0.905276v 7.28456h 0.905276v -4.21738h 0.905276v 11.5019h 0.905276v 0.383398h 0.905276v 4.60077h 0.905276v
 7.66796h 0.905276v 4.98417h 0.905276v 7.28456h 0.905276v -5.36757h 0.905276v 3.83398h 0.905276v 2.68378h 0.905276v 5.36757h 0.905276v -8.43475h 0.905276v 9.20155h 0.905276v 2.30039h 0.905276v -1.15019h 0.905276v 4.60077h 0.905276v -0.383398h
 0.905276v 5.36757h 1.81055v -1.91699h 0.905276v 6.51776h 0.905276v -1.53359h 0.905276v 0.766796h 0.905276v 0.766796h 1.81055v 1.91699h 0.905276v -1.91699h 0.905276v 3.06718h 0.905276v 0.383398h 0.905276v -1.53359h 0.905276v 1.53359h 0.905276v
 1.91699h 0.905276v -3.06718h 0.905276v 1.91699h 0.905276v 1.91699h 0.905276v -0.766796h 0.905276v -1.15019h 0.905276v 0.766796h 0.905276v 1.15019h 0.905276v 0.383398h 0.905276v 0.383398h 0.905276v -0.766796h 0.905276v 0.383398h 0.905276v -1.15019h
 0.905276v 1.15019h 2.71583v 0.383398h 2.71583v -0.383398h 0.905276v -0.383398h 0.905276v 0.766796h 4.52638v -0.383398h 0.905276v 0.383398h 9.95804v -0.383398h 0.905276v 0.383398h 0.905276v -0.766796h 0.905276v 0.766796h 5.43166v -0.383398h 0.905276v
 0.383398h 1.81055v -0.383398h 0.905276v 0.383398h 8.14748v -0.383398h 0.905276v 0.383398h 9.05276v -0.383398h 0.905276v 0.383398h 1.81055v -0.383398h 0.905276v 0.383398h 8.14748v -0.383398h 0.905276v 0.383398h 1.81055v -0.383398h 0.905276v 0.383398h
 8.14748v -0.383398h 0.905276v 0.383398h 8.14748v -0.383398h 0.905276v 0.383398h 45.2638v -0.383398h 0.905276v 0.383398h 3.6211v -0.383398h 0.905276v 0.383398h 22.6319v -0.383398h 0.905276v 0.383398h 35.3058" fill="none" stroke="#ff0000"
 stroke-width="2"/>
<path d="M59.4606,315.859l 4.53543, -0.000439354l 4.53543, -0.000439355l 4.53543, -0.000439355l 4.53543, -0.000439355l 4.53543, -0.000439355l 4.53543, -0.000439355l 4.53543, -0.000439358l 4.53543, -0.00043937l 4.53543, -0.000439418l 4.53543,
 -0.000439608l 4.53543, -0.000440323l 4.53543, -0.000442875l 4.53543, -0.000451565l 4.53543, -0.000479734l 4.53543, -0.000566672l 4.53543, -0.000822055l 4.53543, -0.00153587l 4.53543, -0.00343367l 4.53543, -0.00823095l 4.53543, -0.0197554l 4.53543,
 -0.0460512l 4.53543, -0.103001l 4.53543, -0.21998l 4.53543, -0.447643l 4.53543, -0.866939l 4.53543, -1.59661l 4.53543, -2.79404l 4.53543, -4.64217l 4.53543, -7.3152l 4.53543, -10.9192l 4.53543, -15.4134l 4.53543, -20.5293l 4.53543, -25.72l 4.53543,
 -30.1739l 4.53543, -32.9203l 4.53543, -33.0246l 4.53543, -29.8363l 4.53543, -23.2182l 4.53543, -13.6733l 4.53543, -2.30959l 4.53543, 9.36794l 4.53543, 19.7842l 4.53543, 27.6427l 4.53543, 32.1899l 4.53543, 33.3197l 4.53543, 31.5052l 4.53543, 27.6002l
 4.53543, 22.5889l 4.53543, 17.3628" fill="none" stroke="#0000ff" stroke-width="2"/>
<path d="M281.697,281.411l 4.53543, 12.5788l 4.53543, 8.61089l 4.53543, 5.5802l 4.53543, 3.42805l 4.53543, 1.9985l 4.53543, 1.10655l 4.53543, 0.582248l 4.53543, 0.291248l 4.53543, 0.138489l 4.53543, 0.062544l 4.53543, 0.0267477l 4.53543, 0.0107375l
 4.53543, 0.00393796l 4.53543, 0.00119411l 4.53543, 0.000141555l 4.53543, -0.000242444l 4.53543, -0.000375726l 4.53543, -0.000419752l 4.53543, -0.000433596l 4.53543, -0.000437741l 4.53543, -0.000438924l 4.53543, -0.000439245l 4.53543, -0.000439328l
 4.53543, -0.000439348l 4.53543, -0.000439353l 4.53543, -0.000439354l 4.53543, -0.000439354l 4.53543, -0.000439354l 4.53543, -0.000439354l 4.53543, -0.000439354l 4.53543, -0.000439354l 4.53543, -0.000439354l 4.53543, -0.000439354l 4.53543,
 -0.000439354l 4.53543, -0.000439354l 4.53543, -0.000439354l 4.53543, -0.000439354l 4.53543, -0.000439354l 4.53543, -0.000439354l 4.53543, -0.000439354l 4.53543, -0.000439354l 4.53543, -0.000439354l 4.53543, -0.000439354l 4.53543, -0.000439354l
 4.53543, -0.000439354l 4.53543, -0.000439354l 4.53543, -0.000439354l 4.53543, -0.000439354l 4.53543, -0.000439354" fill="none" stroke="#0000ff" stroke-width="2"/>
<path d="M503.933,315.816l 4.53543, -0.000439354" fill="none" stroke="#0000ff" stroke-width="2"/>
<rect x="351.996" y="22.8306" width="204.094" height="98.3473" fill="white"/>
<path d="M351.996,121.178h 204.094" fill="none" stroke="black" stroke-width="2"/>
<path d="M556.091,121.178v -98.3473" fill="none" stroke="black" stroke-width="2"/>
<path d="M556.091,22.8306h -204.094" fill="none" stroke="black" stroke-width="2"/>
<path d="M351.996,22.8306v 98.3473" fill="none" stroke="black" stroke-width="2"/>
<text x="373.053" y="34.9535" fill="black" font-size="12.0124" font-family="Helvetica">
 / ndf 
</text>
<text x="368.791" y="30.6909" fill="black" font-size="8.17494" font-family="Helvetica">
2
</text>
<text x="361.971" y="34.9535" fill="black" font-size="12.0124" font-family="Times">
&#0967;
</text>
<text x="485.587" y="35.8061" fill="black" font-size="12.0124" font-family="Helvetica">
 189.6 / 201
</text>
<text x="361.971" y="52.004" fill="black" font-size="12.0124" font-family="Helvetica">
Centroid 
</text>
<text x="528.213" y="51.1515" fill="black" font-size="12.0124" font-family="Helvetica">
 0.1
</text>
<text x="521.393" y="51.1515" fill="black" font-size="12.0124" font-family="Times">
&#0177;
</text>
<text x="486.439" y="51.1515" fill="black" font-size="12.0124" font-family="Helvetica">
 576.4 
</text>
<text x="361.971" y="68.202" fill="black" font-size="12.0124" font-family="Helvetica">
FWHM     
</text>
<text x="521.393" y="67.3495" fill="black" font-size="12.0124" font-family="Helvetica">
 0.21
</text>
<text x="514.573" y="67.3495" fill="black" font-size="12.0124" font-family="Times">
&#0177;
</text>
<text x="479.619" y="67.3495" fill="black" font-size="12.0124" font-family="Helvetica">
 54.67 
</text>
<text x="361.971" y="85.2525" fill="black" font-size="12.0124" font-family="Helvetica">
Counts   
</text>
<text x="486.439" y="84.4" fill="black" font-size="12.0124" font-family="Helvetica">
 1.995e+02
</text>
<text x="479.619" y="84.4" fill="black" font-size="12.0124" font-family="Times">
&#0177;
</text>
<text x="418.237" y="84.4" fill="black" font-size="12.0124" font-family="Helvetica">
 3.899e+04 
</text>
<text x="361.971" y="99.7454" fill="black" font-size="12.0124" font-family="Helvetica">
Intercept 
</text>
<text x="506.047" y="100.598" fill="black" font-size="12.0124" font-family="Helvetica">
 0.6942
</text>
<text x="499.227" y="100.598" fill="black" font-size="12.0124" font-family="Times">
&#0177;
</text>
<text x="457.453" y="100.598" fill="black" font-size="12.0124" font-family="Helvetica">
 0.5839 
</text>
<text x="361.971" y="115.943" fill="black" font-size="12.0124" font-family="Helvetica">
Slope    
</text>
<text x="486.439" y="116.796" fill="black" font-size="12.0124" font-family="Helvetica">
 0.0011515
</text>
<text x="479.619" y="116.796" fill="black" font-size="12.0124" font-family="Times">
&#0177;
</text>
<text x="418.237" y="116.796" fill="black" font-size="12.0124" font-family="Helvetica">
 0.0002287 
</text>
<path d="M57.1929,316.116h 453.543" fill="none" stroke="black" stroke-width="2"/>
<text x="465.126" y="339.305" fill="black" font-size="11.7784" font-family="Helvetica">
Channels
</text>
<path d="M79.8248,307.687v 8.42977" fill="none" stroke="black" stroke-width="2"/>
<path d="M125.089,311.901v 4.21488" fill="none" stroke="black" stroke-width="2"/>
<path d="M170.352,311.901v 4.21488" fill="none" stroke="black" stroke-width="2"/>
<path d="M215.616,311.901v 4.21488" fill="none" stroke="black" stroke-width="2"/>
<path d="M260.88,307.687v 8.42977" fill="none" stroke="black" stroke-width="2"/>
<path d="M306.144,311.901v 4.21488" fill="none" stroke="black" stroke-width="2"/>
<path d="M351.408,311.901v 4.21488" fill="none" stroke="black" stroke-width="2"/>
<path d="M396.671,311.901v 4.21488" fill="none" stroke="black" stroke-width="2"/>
<path d="M441.935,307.687v 8.42977" fill="none" stroke="black" stroke-width="2"/>
<path d="M79.8248,307.687v 8.42977" fill="none" stroke="black" stroke-width="2"/>
<path d="M441.935,307.687v 8.42977" fill="none" stroke="black" stroke-width="2"/>
<path d="M487.199,311.901v 4.21488" fill="none" stroke="black" stroke-width="2"/>
<text x="70.4071" y="327.37" fill="black" font-size="11.7784" font-family="Helvetica">
400
</text>
<text x="251.142" y="327.37" fill="black" font-size="11.7784" font-family="Helvetica">
600
</text>
<text x="431.878" y="327.37" fill="black" font-size="11.7784" font-family="Helvetica">
800
</text>
<path d="M57.1929,316.116v -280.992" fill="none" stroke="black" stroke-width="2"/>
<path d="M70.7992,316.116h -13.6063" fill="none" stroke="black" stroke-width="2"/>
<path d="M63.9961,308.448h -6.80315" fill="none" stroke="black" stroke-width="2"/>
<path d="M63.9961,300.78h -6.80315" fill="none" stroke="black" stroke-width="2"/>
<path d="M63.9961,293.112h -6.80315" fill="none" stroke="black" stroke-width="2"/>
<path d="M63.9961,285.444h -6.80315" fill="none" stroke="black" stroke-width="2"/>
<path d="M70.7992,277.776h -13.6063" fill="none" stroke="black" stroke-width="2"/>
<path d="M63.9961,270.109h -6.80315" fill="none" stroke="black" stroke-width="2"/>
<path d="M63.9961,262.441h -6.80315" fill="none" stroke="black" stroke-width="2"/>
<path d="M63.9961,254.773h -6.80315" fill="none" stroke="black" stroke-width="2"/>
<path d="M63.9961,247.105h -6.80315" fill="none" stroke="black" stroke-width="2"/>
<path d="M70.7992,239.437h -13.6063" fill="none" stroke="black" stroke-width="2"/>
<path d="M63.9961,231.769h -6.80315" fill="none" stroke="black" stroke-width="2"/>
<path d="M63.9961,224.101h -6.80315" fill="none" stroke="black" stroke-width="2"/>
<path d="M63.9961,216.433h -6.80315" fill="none" stroke="black" stroke-width="2"/>
<path d="M63.9961,208.765h -6.80315" fill="none" stroke="black" stroke-width="2"/>
<path d="M70.7992,201.097h -13.6063" fill="none" stroke="black" stroke-width="2"/>
<path d="M63.9961,193.429h -6.80315" fill="none" stroke="black" stroke-width="2"/>
<path d="M63.9961,185.761h -6.80315" fill="none" stroke="black" stroke-width="2"/>
<path d="M63.9961,178.093h -6.80315" fill="none" stroke="black" stroke-width="2"/>
<path d="M63.9961,170.425h -6.80315" fill="none" stroke="black" stroke-width="2"/>
<path d="M70.7992,162.757h -13.6063" fill="none" stroke="black" stroke-width="2"/>
<path d="M63.9961,155.089h -6.80315" fill="none" stroke="black" stroke-width="2"/>
<path d="M63.9961,147.421h -6.80315" fill="none" stroke="black" stroke-width="2"/>
<path d="M63.9961,139.753h -6.80315" fill="none" stroke="black" stroke-width="2"/>
<path d="M63.9961,132.085h -6.80315" fill="none" stroke="black" stroke-width="2"/>
<path d="M70.7992,124.417h -13.6063" fill="none" stroke="black" stroke-width="2"/>
<path d="M63.9961,116.749h -6.80315" fill="none" stroke="black" stroke-width="2"/>
<path d="M63.9961,109.081h -6.80315" fill="none" stroke="black" stroke-width="2"/>
<path d="M63.9961,101.414h -6.80315" fill="none" stroke="black" stroke-width="2"/>
<path d="M63.9961,93.7456h -6.80315" fill="none" stroke="black" stroke-width="2"/>
<path d="M70.7992,86.0776h -13.6063" fill="none" stroke="black" stroke-width="2"/>
<path d="M63.9961,78.4096h -6.80315" fill="none" stroke="black" stroke-width="2"/>
<path d="M63.9961,70.7417h -6.80315" fill="none" stroke="black" stroke-width="2"/>
<path d="M63.9961,63.0737h -6.80315" fill="none" stroke="black" stroke-width="2"/>
<path d="M63.9961,55.4058h -6.80315" fill="none" stroke="black" stroke-width="2"/>
<path d="M70.7992,47.7378h -13.6063" fill="none" stroke="black" stroke-width="2"/>
<path d="M70.7992,47.7378h -13.6063" fill="none" stroke="black" stroke-width="2"/>
<path d="M63.9961,40.0699h -6.80315" fill="none" stroke="black" stroke-width="2"/>
<text x="48.2414" y="319.697" fill="black" font-size="11.7784" font-family="Helvetica">
0
</text>
<text x="35.4535" y="281.333" fill="black" font-size="11.7784" font-family="Helvetica">
100
</text>
<text x="35.4535" y="242.97" fill="black" font-size="11.7784" font-family="Helvetica">
200
</text>
<text x="35.4535" y="204.606" fill="black" font-size="11.7784" font-family="Helvetica">
300
</text>
<text x="35.4535" y="166.242" fill="black" font-size="11.7784" font-family="Helvetica">
400
</text>
<text x="35.4535" y="127.879" fill="black" font-size="11.7784" font-family="Helvetica">
500
</text>
<text x="35.4535" y="89.5151" fill="black" font-size="11.7784" font-family="Helvetica">
600
</text>
<text x="35.4535" y="51.1515" fill="black" font-size="11.7784" font-family="Helvetica">
700
</text>
<rect x="351.996" y="22.8306" width="204.094" height="98.3473" fill="white"/>
<path d="M351.996,121.178h 204.094" fill="none" stroke="black" stroke-width="2"/>
<path d="M556.091,121.178v -98.3473" fill="none" stroke="black" stroke-width="2"/>
<path d="M556.091,22.8306h -204.094" fill="none" stroke="black" stroke-width="2"/>
<path d="M351.996,22.8306v 98.3473" fill="none" stroke="black" stroke-width="2"/>
<text x="373.053" y="34.9535" fill="black" font-size="12.0124" font-family="Helvetica">
 / ndf 
</text>
<text x="368.791" y="30.6909" fill="black" font-size="8.17494" font-family="Helvetica">
2
</text>
<text x="361.971" y="34.9535" fill="black" font-size="12.0124" font-family="Times">
&#0967;
</text>
<text x="485.587" y="35.8061" fill="black" font-size="12.0124" font-family="Helvetica">
 189.6 / 201
</text>
<text x="361.971" y="52.004" fill="black" font-size="12.0124" font-family="Helvetica">
Centroid 
</text>
<text x="528.213" y="51.1515" fill="black" font-size="12.0124" font-family="Helvetica">
 0.1
</text>
<text x="521.393" y="51.1515" fill="black" font-size="12.0124" font-family="Times">
&#0177;
</text>
<text x="486.439" y="51.1515" fill="black" font-size="12.0124" font-family="Helvetica">
 576.4 
</text>
<text x="361.971" y="68.202" fill="black" font-size="12.0124" font-family="Helvetica">
FWHM     
</text>
<text x="521.393" y="67.3495" fill="black" font-size="12.0124" font-family="Helvetica">
 0.21
</text>
<text x="514.573" y="67.3495" fill="black" font-size="12.0124" font-family="Times">
&#0177;
</text>
<text x="479.619" y="67.3495" fill="black" font-size="12.0124" font-family="Helvetica">
 54.67 
</text>
<text x="361.971" y="85.2525" fill="black" font-size="12.0124" font-family="Helvetica">
Counts   
</text>
<text x="486.439" y="84.4" fill="black" font-size="12.0124" font-family="Helvetica">
 1.995e+02
</text>
<text x="479.619" y="84.4" fill="black" font-size="12.0124" font-family="Times">
&#0177;
</text>
<text x="418.237" y="84.4" fill="black" font-size="12.0124" font-family="Helvetica">
 3.899e+04 
</text>
<text x="361.971" y="99.7454" fill="black" font-size="12.0124" font-family="Helvetica">
Intercept 
</text>
<text x="506.047" y="100.598" fill="black" font-size="12.0124" font-family="Helvetica">
 0.6942
</text>
<text x="499.227" y="100.598" fill="black" font-size="12.0124" font-family="Times">
&#0177;
</text>
<text x="457.453" y="100.598" fill="black" font-size="12.0124" font-family="Helvetica">
 0.5839 
</text>
<text x="361.971" y="115.943" fill="black" font-size="12.0124" font-family="Helvetica">
Slope    
</text>
<text x="486.439" y="116.796" fill="black" font-size="12.0124" font-family="Helvetica">
 0.0011515
</text>
<text x="479.619" y="116.796" fill="black" font-size="12.0124" font-family="Times">
&#0177;
</text>
<text x="418.237" y="116.796" fill="black" font-size="12.0124" font-family="Helvetica">
 0.0002287 
</text>
<path d="M59.4606,316.116h 86.1732l 4.53543, -0.031766l 4.53543, -0.0456118l 4.53543, -0.102562l 4.53543, -0.219541l 4.53543, -0.447203l 4.53543, -0.866499l 4.53543, -1.59617l 4.53543, -2.7936l 4.53543, -4.64173l 4.53543, -7.31476l 4.53543, -10.9188l
 4.53543, -15.413l 4.53543, -20.5288l 4.53543, -25.7195l 4.53543, -30.1735l 4.53543, -32.9199l 4.53543, -33.0241l 4.53543, -29.8358l 4.53543, -23.2178l 4.53543, -13.6729l 4.53543, -2.30915l 4.53543, 9.36838l 4.53543, 19.7846l 4.53543, 27.6432l
 4.53543, 32.1904l 4.53543, 33.3202l 4.53543, 31.5057l 4.53543, 27.6007l 4.53543, 22.5893l 4.53543, 17.3632" fill="none" stroke="#00ff00" stroke-width="2"/>
<path d="M281.697,281.689l 4.53543, 12.5792l 4.53543, 8.61133l 4.53543, 5.58064l 4.53543, 3.42849l 4.53543, 1.99894l 4.53543, 1.10699l 4.53543, 0.582687l 4.53543, 0.291687l 4.53543, 0.138929l 4.53543, 0.0629833l 4.53543, 0.0452437h 172.346"
 fill="none" stroke="#00ff00" stroke-width="2"/>
<path d="M503.933,316.116h 4.53543" fill="none" stroke="#00ff00" stroke-width="2"/>
<text x="102.803" y="16.198" fill="black" font-size="13.087" font-family="Helvetica">
Wk3/22Na-Coin-511Window-fullrange0_5us10V_10degrees.Spe
</text></svg>
