<?xml version="1.0" standalone="no"?>
<svg width="567.429" height="304.328" viewBox="0 0 567.429 304.328" xmlns="http://www.w3.org/2000/svg">
<title>
/home/ADF/hyw543/Coincidence/c1.svg
</title>
<desc>
Creator: ROOT Version 6.06/08
CreationDate: Mon Jan  7 20:44:05 2019</desc>
<defs>
</defs>
<rect x="0.5" y="0" width="566.929" height="303.828" fill="white"/>
<rect x="57.1929" y="30.3828" width="453.543" height="243.063" fill="white"/>
<rect x="57.1929" y="30.3828" width="453.543" height="243.063" fill="none" stroke="black"/>
<rect x="57.1929" y="30.3828" width="453.543" height="243.063" fill="white"/>
<rect x="57.1929" y="30.3828" width="453.543" height="243.063" fill="none" stroke="black"/>
<path d="M57.1929,273.446h 26.621v -1.42894h 0.985964v 1.42894h 104.512v -1.42894h 0.985964v 1.42894h 1.97193v -1.42894h 0.985964v 1.42894h 0.985964v -1.42894h 0.985964v 1.42894h 1.97193v -2.85788h 0.985964v 2.85788h 4.92982v -1.42894h 0.985964v
 1.42894h 2.95789v -1.42894h 0.985964v -4.28682h 0.985964v 1.42894h 0.985964v 2.85788h 0.985964v 1.42894h 0.985964v -5.71576h 1.97193v 2.85788h 0.985964v -1.42894h 0.985964v 1.42894h 0.985964v -2.85788h 0.985964v 1.42894h 1.97193v -4.28682h 0.985964v
 -1.42894h 0.985964v -4.28682h 0.985964v -7.1447h 0.985964v 7.1447h 1.97193v -2.85788h 0.985964v 4.28682h 0.985964v 1.42894h 0.985964v -4.28682h 0.985964v -14.2894h 0.985964v 11.4315h 0.985964v -27.1499h 0.985964v 11.4315h 0.985964v 1.42894h
 0.985964v -1.42894h 0.985964v 1.42894h 0.985964v 4.28682h 0.985964v -7.1447h 1.97193v -15.7183h 0.985964v -4.28682h 0.985964v 8.57364h 0.985964v -10.0026h 0.985964v -35.7235h 0.985964v 11.4315h 0.985964v -10.0026h 0.985964v 12.8605h 0.985964v
 -31.4367h 0.985964v 24.292h 0.985964v -11.4315h 0.985964v -14.2894h 0.985964v -1.42894h 0.985964v 15.7183h 0.985964v -30.0077h 0.985964v 18.5762h 0.985964v -70.0181h 0.985964v 30.0077h 0.985964v 17.1473h 0.985964v -20.0052h 0.985964v -7.1447h
 0.985964v -1.42894h 0.985964v -12.8605h 0.985964v 22.863h 0.985964v -24.292h 0.985964v 4.28682h 0.985964v 11.4315h 0.985964v -18.5762h 0.985964v 15.7183h 0.985964v -34.2946h 0.985964v 37.1524h 0.985964v -22.863h 0.985964v -41.4393h 0.985964v
 44.2971h 0.985964v -40.0103h 0.985964v 58.5865h 0.985964v -7.1447h 0.985964v -64.3023h 0.985964v 50.0129h 0.985964v -25.7209h 0.985964v -22.863h 0.985964v 45.7261h 0.985964v 20.0052h 0.985964v 1.42894h 0.985964v -17.1473h 0.985964v -18.5762h
 0.985964v 11.4315h 0.985964v -22.863h 0.985964v 17.1473h 0.985964v -4.28682h 0.985964v 18.5762h 0.985964v 22.863h 0.985964v -12.8605h 0.985964v 7.1447h 0.985964v 14.2894h 0.985964v -4.28682h 0.985964v -7.1447h 0.985964v 22.863h 1.97193v -10.0026h
 0.985964v 25.7209h 0.985964v -20.0052h 0.985964v 22.863h 0.985964v -11.4315h 0.985964v 17.1473h 0.985964v 11.4315h 0.985964v 12.8605h 0.985964v 4.28682h 0.985964v -10.0026h 0.985964v 18.5762h 0.985964v -12.8605h 0.985964v 20.0052h 0.985964v 11.4315h
 0.985964v -14.2894h 0.985964v 8.57364h 2.95789v 15.7183h 0.985964v -10.0026h 0.985964v 20.0052h 0.985964v -7.1447h 0.985964v 11.4315h 0.985964v 2.85788h 0.985964v -4.28682h 1.97193v 5.71576h 0.985964v 5.71576h 0.985964v -1.42894h 0.985964v -4.28682h
 0.985964v -2.85788h 0.985964v 18.5762h 0.985964v -2.85788h 0.985964v -2.85788h 0.985964v 10.0026h 0.985964v -1.42894h 0.985964v -10.0026h 0.985964v 7.1447h 0.985964v 7.1447h 0.985964v -1.42894h 0.985964v -2.85788h 0.985964v 2.85788h 0.985964v
 2.85788h 1.97193v -4.28682h 0.985964v 2.85788h 3.94385v 4.28682h 1.97193v -1.42894h 0.985964v -1.42894h 0.985964v 2.85788h 0.985964v -1.42894h 1.97193v -2.85788h 0.985964v 4.28682h 2.95789v -1.42894h 0.985964v 1.42894h 1.97193v -1.42894h 0.985964v
 1.42894h 2.95789v -1.42894h 0.985964v 1.42894h 145.923" fill="none" stroke="#ff0000" stroke-width="2"/>
<rect x="351.996" y="19.7488" width="204.094" height="85.0719" fill="white"/>
<path d="M351.996,104.821h 204.094" fill="none" stroke="black" stroke-width="2"/>
<path d="M556.091,104.821v -85.0719" fill="none" stroke="black" stroke-width="2"/>
<path d="M556.091,19.7488h -204.094" fill="none" stroke="black" stroke-width="2"/>
<path d="M351.996,19.7488v 85.0719" fill="none" stroke="black" stroke-width="2"/>
<text x="373.565" y="30.1385" fill="black" font-size="12.0666" font-family="Helvetica">
 / ndf 
</text>
<text x="368.678" y="26.8803" fill="black" font-size="8.21105" font-family="Helvetica">
2
</text>
<text x="362.162" y="30.1385" fill="black" font-size="12.0666" font-family="Times">
&#0967;
</text>
<text x="486.788" y="30.953" fill="black" font-size="12.0666" font-family="Helvetica">
 157.5 / 149
</text>
<text x="362.162" y="45.615" fill="black" font-size="12.0666" font-family="Helvetica">
Centroid 
</text>
<text x="527.516" y="44.8004" fill="black" font-size="12.0666" font-family="Helvetica">
 0.3
</text>
<text x="521" y="44.8004" fill="black" font-size="12.0666" font-family="Times">
&#0177;
</text>
<text x="487.603" y="44.8004" fill="black" font-size="12.0666" font-family="Helvetica">
 570.7 
</text>
<text x="362.162" y="59.4624" fill="black" font-size="12.0666" font-family="Helvetica">
FWHM     
</text>
<text x="521" y="58.6478" fill="black" font-size="12.0666" font-family="Helvetica">
 0.55
</text>
<text x="514.483" y="58.6478" fill="black" font-size="12.0666" font-family="Times">
&#0177;
</text>
<text x="481.086" y="58.6478" fill="black" font-size="12.0666" font-family="Helvetica">
 53.65 
</text>
<text x="362.162" y="74.1244" fill="black" font-size="12.0666" font-family="Helvetica">
Counts   
</text>
<text x="521" y="73.3098" fill="black" font-size="12.0666" font-family="Helvetica">
 97.6
</text>
<text x="514.483" y="73.3098" fill="black" font-size="12.0666" font-family="Times">
&#0177;
</text>
<text x="481.086" y="73.3098" fill="black" font-size="12.0666" font-family="Helvetica">
  7955 
</text>
<text x="362.162" y="86.3427" fill="black" font-size="12.0666" font-family="Helvetica">
Intercept 
</text>
<text x="510.41" y="87.1572" fill="black" font-size="12.0666" font-family="Helvetica">
 1.5081
</text>
<text x="503.894" y="87.1572" fill="black" font-size="12.0666" font-family="Times">
&#0177;
</text>
<text x="463.981" y="87.1572" fill="black" font-size="12.0666" font-family="Helvetica">
 0.6604 
</text>
<text x="362.162" y="100.19" fill="black" font-size="12.0666" font-family="Helvetica">
Slope    
</text>
<text x="489.232" y="101.005" fill="black" font-size="12.0666" font-family="Helvetica">
 0.0026575
</text>
<text x="482.716" y="101.005" fill="black" font-size="12.0666" font-family="Times">
&#0177;
</text>
<text x="426.511" y="101.005" fill="black" font-size="12.0666" font-family="Helvetica">
0.0002435 
</text>
<text x="419.995" y="101.005" fill="black" font-size="12.0666" font-family="Times">
&#8722;
</text>
<text x="417.551" y="101.005" fill="black" font-size="12.0666" font-family="Helvetica">
 
</text>
<path d="M59.4606,272.623l 4.53543, 0.00160041l 4.53543, 0.00160041l 4.53543, 0.00160041l 4.53543, 0.00160041l 4.53543, 0.00160041l 4.53543, 0.00160041l 4.53543, 0.00160041l 4.53543, 0.00160041l 4.53543, 0.00160041l 4.53543, 0.00160041l 4.53543,
 0.00160041l 4.53543, 0.00160041l 4.53543, 0.00160041l 4.53543, 0.0016004l 4.53543, 0.00160038l 4.53543, 0.00160029l 4.53543, 0.0016l 4.53543, 0.00159902l 4.53543, 0.00159586l 4.53543, 0.00158612l 4.53543, 0.00155736l 4.53543, 0.00147598l 4.53543,
 0.00125553l 4.53543, 0.000683806l 4.53543, -0.000735213l 4.53543, -0.00410477l 4.53543, -0.0117566l 4.53543, -0.0283668l 4.53543, -0.0628143l 4.53543, -0.131023l 4.53543, -0.259873l 4.53543, -0.491868l 4.53543, -0.889537l 4.53543, -1.53753l 4.53543,
 -2.53936l 4.53543, -4.00525l 4.53543, -6.02824l 4.53543, -8.64837l 4.53543, -11.8096l 4.53543, -15.3197l 4.53543, -18.8289l 4.53543, -21.843l 4.53543, -23.7821l 4.53543, -24.0837l 4.53543, -22.3326l 4.53543, -18.384l 4.53543, -12.4433l 4.53543,
 -5.06983l 4.53543, 2.90575" fill="none" stroke="#0000ff" stroke-width="2"/>
<path d="M281.697,77.0306l 4.53543, 10.5353l 4.53543, 16.9383l 4.53543, 21.4695l 4.53543, 23.8228l 4.53543, 24.0523l 4.53543, 22.5102l 4.53543, 19.7318l 4.53543, 16.3042l 4.53543, 12.7528l 4.53543, 9.47022l 4.53543, 6.69097l 4.53543, 4.50492l
 4.53543, 2.89397l 4.53543, 1.77563l 4.53543, 1.04148l 4.53543, 0.584487l 4.53543, 0.314198l 4.53543, 0.162061l 4.53543, 0.0804653l 4.53543, 0.0387252l 4.53543, 0.0183429l 4.53543, 0.00883554l 4.53543, 0.00459699l 4.53543, 0.0027901l 4.53543,
 0.00205323l 4.53543, 0.00176567l 4.53543, 0.00165825l 4.53543, 0.00161982l 4.53543, 0.00160666l 4.53543, 0.00160234l 4.53543, 0.00160098l 4.53543, 0.00160057l 4.53543, 0.00160045l 4.53543, 0.00160042l 4.53543, 0.00160041l 4.53543, 0.00160041l
 4.53543, 0.00160041l 4.53543, 0.00160041l 4.53543, 0.00160041l 4.53543, 0.00160041l 4.53543, 0.00160041l 4.53543, 0.00160041l 4.53543, 0.00160041l 4.53543, 0.00160041l 4.53543, 0.00160041l 4.53543, 0.00160041l 4.53543, 0.00160041l 4.53543,
 0.00160041l 4.53543, 0.00160041" fill="none" stroke="#0000ff" stroke-width="2"/>
<path d="M503.933,272.78l 4.53543, 0.00160041" fill="none" stroke="#0000ff" stroke-width="2"/>
<path d="M57.1929,273.446h 453.543" fill="none" stroke="black" stroke-width="2"/>
<text x="470.497" y="294.054" fill="black" font-size="10.256" font-family="Helvetica">
Channels
</text>
<path d="M109.449,266.154v 7.29188" fill="none" stroke="black" stroke-width="2"/>
<path d="M129.168,269.8v 3.64594" fill="none" stroke="black" stroke-width="2"/>
<path d="M148.888,269.8v 3.64594" fill="none" stroke="black" stroke-width="2"/>
<path d="M168.607,269.8v 3.64594" fill="none" stroke="black" stroke-width="2"/>
<path d="M188.326,269.8v 3.64594" fill="none" stroke="black" stroke-width="2"/>
<path d="M208.045,266.154v 7.29188" fill="none" stroke="black" stroke-width="2"/>
<path d="M227.765,269.8v 3.64594" fill="none" stroke="black" stroke-width="2"/>
<path d="M247.484,269.8v 3.64594" fill="none" stroke="black" stroke-width="2"/>
<path d="M267.203,269.8v 3.64594" fill="none" stroke="black" stroke-width="2"/>
<path d="M286.922,269.8v 3.64594" fill="none" stroke="black" stroke-width="2"/>
<path d="M306.642,266.154v 7.29188" fill="none" stroke="black" stroke-width="2"/>
<path d="M326.361,269.8v 3.64594" fill="none" stroke="black" stroke-width="2"/>
<path d="M346.08,269.8v 3.64594" fill="none" stroke="black" stroke-width="2"/>
<path d="M365.8,269.8v 3.64594" fill="none" stroke="black" stroke-width="2"/>
<path d="M385.519,269.8v 3.64594" fill="none" stroke="black" stroke-width="2"/>
<path d="M405.238,266.154v 7.29188" fill="none" stroke="black" stroke-width="2"/>
<path d="M424.957,269.8v 3.64594" fill="none" stroke="black" stroke-width="2"/>
<path d="M444.677,269.8v 3.64594" fill="none" stroke="black" stroke-width="2"/>
<path d="M464.396,269.8v 3.64594" fill="none" stroke="black" stroke-width="2"/>
<path d="M484.115,269.8v 3.64594" fill="none" stroke="black" stroke-width="2"/>
<path d="M503.834,266.154v 7.29188" fill="none" stroke="black" stroke-width="2"/>
<path d="M109.449,266.154v 7.29188" fill="none" stroke="black" stroke-width="2"/>
<path d="M89.7297,269.8v 3.64594" fill="none" stroke="black" stroke-width="2"/>
<path d="M70.0104,269.8v 3.64594" fill="none" stroke="black" stroke-width="2"/>
<path d="M503.834,266.154v 7.29188" fill="none" stroke="black" stroke-width="2"/>
<text x="100.69" y="283.465" fill="black" font-size="10.256" font-family="Helvetica">
400
</text>
<text x="199.251" y="283.465" fill="black" font-size="10.256" font-family="Helvetica">
500
</text>
<text x="297.812" y="283.465" fill="black" font-size="10.256" font-family="Helvetica">
600
</text>
<text x="396.373" y="283.465" fill="black" font-size="10.256" font-family="Helvetica">
700
</text>
<text x="494.934" y="283.465" fill="black" font-size="10.256" font-family="Helvetica">
800
</text>
<path d="M57.1929,273.446v -243.063" fill="none" stroke="black" stroke-width="2"/>
<path d="M70.7992,273.446h -13.6063" fill="none" stroke="black" stroke-width="2"/>
<path d="M63.9961,266.301h -6.80315" fill="none" stroke="black" stroke-width="2"/>
<path d="M63.9961,259.156h -6.80315" fill="none" stroke="black" stroke-width="2"/>
<path d="M63.9961,252.011h -6.80315" fill="none" stroke="black" stroke-width="2"/>
<path d="M70.7992,244.867h -13.6063" fill="none" stroke="black" stroke-width="2"/>
<path d="M63.9961,237.722h -6.80315" fill="none" stroke="black" stroke-width="2"/>
<path d="M63.9961,230.577h -6.80315" fill="none" stroke="black" stroke-width="2"/>
<path d="M63.9961,223.433h -6.80315" fill="none" stroke="black" stroke-width="2"/>
<path d="M70.7992,216.288h -13.6063" fill="none" stroke="black" stroke-width="2"/>
<path d="M63.9961,209.143h -6.80315" fill="none" stroke="black" stroke-width="2"/>
<path d="M63.9961,201.999h -6.80315" fill="none" stroke="black" stroke-width="2"/>
<path d="M63.9961,194.854h -6.80315" fill="none" stroke="black" stroke-width="2"/>
<path d="M70.7992,187.709h -13.6063" fill="none" stroke="black" stroke-width="2"/>
<path d="M63.9961,180.564h -6.80315" fill="none" stroke="black" stroke-width="2"/>
<path d="M63.9961,173.42h -6.80315" fill="none" stroke="black" stroke-width="2"/>
<path d="M63.9961,166.275h -6.80315" fill="none" stroke="black" stroke-width="2"/>
<path d="M70.7992,159.13h -13.6063" fill="none" stroke="black" stroke-width="2"/>
<path d="M63.9961,151.986h -6.80315" fill="none" stroke="black" stroke-width="2"/>
<path d="M63.9961,144.841h -6.80315" fill="none" stroke="black" stroke-width="2"/>
<path d="M63.9961,137.696h -6.80315" fill="none" stroke="black" stroke-width="2"/>
<path d="M70.7992,130.552h -13.6063" fill="none" stroke="black" stroke-width="2"/>
<path d="M63.9961,123.407h -6.80315" fill="none" stroke="black" stroke-width="2"/>
<path d="M63.9961,116.262h -6.80315" fill="none" stroke="black" stroke-width="2"/>
<path d="M63.9961,109.117h -6.80315" fill="none" stroke="black" stroke-width="2"/>
<path d="M70.7992,101.973h -13.6063" fill="none" stroke="black" stroke-width="2"/>
<path d="M63.9961,94.828h -6.80315" fill="none" stroke="black" stroke-width="2"/>
<path d="M63.9961,87.6833h -6.80315" fill="none" stroke="black" stroke-width="2"/>
<path d="M63.9961,80.5386h -6.80315" fill="none" stroke="black" stroke-width="2"/>
<path d="M70.7992,73.3939h -13.6063" fill="none" stroke="black" stroke-width="2"/>
<path d="M63.9961,66.2492h -6.80315" fill="none" stroke="black" stroke-width="2"/>
<path d="M63.9961,59.1045h -6.80315" fill="none" stroke="black" stroke-width="2"/>
<path d="M63.9961,51.9598h -6.80315" fill="none" stroke="black" stroke-width="2"/>
<path d="M70.7992,44.8151h -13.6063" fill="none" stroke="black" stroke-width="2"/>
<path d="M70.7992,44.8151h -13.6063" fill="none" stroke="black" stroke-width="2"/>
<path d="M63.9961,37.6704h -6.80315" fill="none" stroke="black" stroke-width="2"/>
<path d="M63.9961,30.5257h -6.80315" fill="none" stroke="black" stroke-width="2"/>
<text x="48.5586" y="276.948" fill="black" font-size="10.256" font-family="Helvetica">
0
</text>
<text x="43.6713" y="248.439" fill="black" font-size="10.256" font-family="Helvetica">
20
</text>
<text x="43.6713" y="219.929" fill="black" font-size="10.256" font-family="Helvetica">
40
</text>
<text x="43.6713" y="191.42" fill="black" font-size="10.256" font-family="Helvetica">
60
</text>
<text x="43.6713" y="162.911" fill="black" font-size="10.256" font-family="Helvetica">
80
</text>
<text x="37.9695" y="134.401" fill="black" font-size="10.256" font-family="Helvetica">
100
</text>
<text x="37.9695" y="105.892" fill="black" font-size="10.256" font-family="Helvetica">
120
</text>
<text x="37.9695" y="77.3826" fill="black" font-size="10.256" font-family="Helvetica">
140
</text>
<text x="37.9695" y="48.8732" fill="black" font-size="10.256" font-family="Helvetica">
160
</text>
<rect x="351.996" y="19.7488" width="204.094" height="85.0719" fill="white"/>
<path d="M351.996,104.821h 204.094" fill="none" stroke="black" stroke-width="2"/>
<path d="M556.091,104.821v -85.0719" fill="none" stroke="black" stroke-width="2"/>
<path d="M556.091,19.7488h -204.094" fill="none" stroke="black" stroke-width="2"/>
<path d="M351.996,19.7488v 85.0719" fill="none" stroke="black" stroke-width="2"/>
<text x="373.565" y="30.1385" fill="black" font-size="12.0666" font-family="Helvetica">
 / ndf 
</text>
<text x="368.678" y="26.8803" fill="black" font-size="8.21105" font-family="Helvetica">
2
</text>
<text x="362.162" y="30.1385" fill="black" font-size="12.0666" font-family="Times">
&#0967;
</text>
<text x="486.788" y="30.953" fill="black" font-size="12.0666" font-family="Helvetica">
 157.5 / 149
</text>
<text x="362.162" y="45.615" fill="black" font-size="12.0666" font-family="Helvetica">
Centroid 
</text>
<text x="527.516" y="44.8004" fill="black" font-size="12.0666" font-family="Helvetica">
 0.3
</text>
<text x="521" y="44.8004" fill="black" font-size="12.0666" font-family="Times">
&#0177;
</text>
<text x="487.603" y="44.8004" fill="black" font-size="12.0666" font-family="Helvetica">
 570.7 
</text>
<text x="362.162" y="59.4624" fill="black" font-size="12.0666" font-family="Helvetica">
FWHM     
</text>
<text x="521" y="58.6478" fill="black" font-size="12.0666" font-family="Helvetica">
 0.55
</text>
<text x="514.483" y="58.6478" fill="black" font-size="12.0666" font-family="Times">
&#0177;
</text>
<text x="481.086" y="58.6478" fill="black" font-size="12.0666" font-family="Helvetica">
 53.65 
</text>
<text x="362.162" y="74.1244" fill="black" font-size="12.0666" font-family="Helvetica">
Counts   
</text>
<text x="521" y="73.3098" fill="black" font-size="12.0666" font-family="Helvetica">
 97.6
</text>
<text x="514.483" y="73.3098" fill="black" font-size="12.0666" font-family="Times">
&#0177;
</text>
<text x="481.086" y="73.3098" fill="black" font-size="12.0666" font-family="Helvetica">
  7955 
</text>
<text x="362.162" y="86.3427" fill="black" font-size="12.0666" font-family="Helvetica">
Intercept 
</text>
<text x="510.41" y="87.1572" fill="black" font-size="12.0666" font-family="Helvetica">
 1.5081
</text>
<text x="503.894" y="87.1572" fill="black" font-size="12.0666" font-family="Times">
&#0177;
</text>
<text x="463.981" y="87.1572" fill="black" font-size="12.0666" font-family="Helvetica">
 0.6604 
</text>
<text x="362.162" y="100.19" fill="black" font-size="12.0666" font-family="Helvetica">
Slope    
</text>
<text x="489.232" y="101.005" fill="black" font-size="12.0666" font-family="Helvetica">
 0.0026575
</text>
<text x="482.716" y="101.005" fill="black" font-size="12.0666" font-family="Times">
&#0177;
</text>
<text x="426.511" y="101.005" fill="black" font-size="12.0666" font-family="Helvetica">
0.0002435 
</text>
<text x="419.995" y="101.005" fill="black" font-size="12.0666" font-family="Times">
&#8722;
</text>
<text x="417.551" y="101.005" fill="black" font-size="12.0666" font-family="Helvetica">
 
</text>
<path d="M59.4606,273.446h 122.457l 4.53543, -0.0528148l 4.53543, -0.0644147l 4.53543, -0.132623l 4.53543, -0.261473l 4.53543, -0.493469l 4.53543, -0.891137l 4.53543, -1.53913l 4.53543, -2.54096l 4.53543, -4.00685l 4.53543, -6.02984l 4.53543,
 -8.64997l 4.53543, -11.8112l 4.53543, -15.3213l 4.53543, -18.8305l 4.53543, -21.8446l 4.53543, -23.7837l 4.53543, -24.0853l 4.53543, -22.3342l 4.53543, -18.3856l 4.53543, -12.4449l 4.53543, -5.07143l 4.53543, 2.90415" fill="none" stroke="#00ff00"
 stroke-width="2"/>
<path d="M281.697,77.7743l 4.53543, 10.5337l 4.53543, 16.9367l 4.53543, 21.4679l 4.53543, 23.8212l 4.53543, 24.0507l 4.53543, 22.5086l 4.53543, 19.7302l 4.53543, 16.3026l 4.53543, 12.7512l 4.53543, 9.46862l 4.53543, 6.68937l 4.53543, 4.50332l
 4.53543, 2.89237l 4.53543, 1.77403l 4.53543, 1.03988l 4.53543, 0.582886l 4.53543, 0.312597l 4.53543, 0.16046l 4.53543, 0.0788649l 4.53543, 0.0371248l 4.53543, 0.0288682h 126.992" fill="none" stroke="#00ff00" stroke-width="2"/>
<path d="M503.933,273.446h 4.53543" fill="none" stroke="#00ff00" stroke-width="2"/>
<text x="135.716" y="15.4765" fill="black" font-size="15.7449" font-family="Helvetica">
Wk3/22Na-Coin-511Window-fullrange0.Spe
</text></svg>
