<?xml version="1.0" standalone="no"?>
<svg width="567.429" height="316.156" viewBox="0 0 567.429 316.156" xmlns="http://www.w3.org/2000/svg">
<title>
/home/ADF/hyw543/Coincidence/c1.svg
</title>
<desc>
Creator: ROOT Version 6.06/08
CreationDate: Mon Jan  7 21:09:26 2019</desc>
<defs>
</defs>
<rect x="0.5" y="0" width="566.929" height="315.656" fill="white"/>
<rect x="57.1929" y="31.5656" width="453.543" height="252.525" fill="white"/>
<rect x="57.1929" y="31.5656" width="453.543" height="252.525" fill="none" stroke="black"/>
<rect x="57.1929" y="31.5656" width="453.543" height="252.525" fill="white"/>
<rect x="57.1929" y="31.5656" width="453.543" height="252.525" fill="none" stroke="black"/>
<path d="M57.1929,284.091h 13.8176v -1.53185h 0.812802v 1.53185h 25.1968v -1.53185h 0.812802v 1.53185h 17.8816v -1.53185h 1.6256v 1.53185h 4.06401v -1.53185h 0.812802v 1.53185h 9.75362v -3.06369h 0.812802v 3.06369h 4.06401v -3.06369h 0.812802v
 1.53185h 0.812802v 1.53185h 0.812802v -3.06369h 2.4384v 1.53185h 0.812802v -1.53185h 0.812802v 1.53185h 1.6256v -4.59554h 0.812802v 4.59554h 2.4384v -1.53185h 0.812802v 1.53185h 0.812802v -3.06369h 0.812802v -4.59554h 0.812802v 6.12739h 0.812802v
 -1.53185h 0.812802v -4.59554h 0.812802v -6.12739h 0.812802v 10.7229h 0.812802v -12.2548h 0.812802v 12.2548h 0.812802v -7.65923h 0.812802v -1.53185h 0.812802v -6.12739h 1.6256v 6.12739h 0.812802v -15.3185h 0.812802v 7.65923h 0.812802v -3.06369h
 0.812802v -9.19108h 0.812802v 1.53185h 0.812802v 10.7229h 0.812802v -1.53185h 0.812802v -16.8503h 0.812802v -4.59554h 0.812802v 6.12739h 0.812802v 3.06369h 0.812802v -39.828h 0.812802v 32.1688h 0.812802v -13.7866h 0.812802v -1.53185h 0.812802v
 -12.2548h 1.6256v -6.12739h 0.812802v -7.65923h 0.812802v -4.59554h 0.812802v 15.3185h 0.812802v -13.7866h 0.812802v -16.8503h 0.812802v -3.06369h 0.812802v 1.53185h 0.812802v -45.9554h 0.812802v 33.7006h 0.812802v 6.12739h 0.812802v -35.2325h
 0.812802v 12.2548h 0.812802v -1.53185h 0.812802v -12.2548h 0.812802v 7.65923h 0.812802v -27.5732h 0.812802v 4.59554h 0.812802v -19.914h 0.812802v -16.8503h 0.812802v 56.6783h 0.812802v -27.5732h 0.812802v -24.5095h 0.812802v 7.65923h 0.812802v
 -7.65923h 0.812802v 16.8503h 0.812802v -35.2325h 0.812802v 27.5732h 0.812802v -53.6146h 0.812802v 18.3822h 0.812802v -6.12739h 0.812802v -7.65923h 0.812802v 22.9777h 0.812802v -7.65923h 0.812802v 16.8503h 0.812802v -18.3822h 0.812802v 12.2548h
 0.812802v -10.7229h 0.812802v 7.65923h 0.812802v -6.12739h 0.812802v 21.4459h 0.812802v -1.53185h 0.812802v 12.2548h 0.812802v 10.7229h 0.812802v -10.7229h 0.812802v 15.3185h 0.812802v -53.6146h 0.812802v 42.8917h 0.812802v 15.3185h 0.812802v
 13.7866h 0.812802v -19.914h 0.812802v -12.2548h 0.812802v 41.3599h 0.812802v -13.7866h 0.812802v 27.5732h 0.812802v -1.53185h 0.812802v -1.53185h 0.812802v 6.12739h 0.812802v 6.12739h 0.812802v -1.53185h 0.812802v -12.2548h 0.812802v 1.53185h
 0.812802v 21.4459h 0.812802v 6.12739h 0.812802v -3.06369h 0.812802v 44.4235h 0.812802v -26.0414h 0.812802v 16.8503h 0.812802v -10.7229h 0.812802v 16.8503h 0.812802v 7.65923h 0.812802v -4.59554h 0.812802v 1.53185h 0.812802v -3.06369h 0.812802v
 24.5095h 0.812802v -12.2548h 0.812802v 16.8503h 0.812802v 9.19108h 0.812802v -6.12739h 0.812802v -4.59554h 0.812802v 4.59554h 0.812802v 7.65923h 0.812802v -3.06369h 0.812802v 7.65923h 0.812802v 4.59554h 0.812802v -13.7866h 0.812802v 10.7229h
 0.812802v 3.06369h 0.812802v 1.53185h 0.812802v 4.59554h 0.812802v -3.06369h 0.812802v 3.06369h 0.812802v 4.59554h 0.812802v -1.53185h 1.6256v -1.53185h 0.812802v 1.53185h 0.812802v 1.53185h 1.6256v 4.59554h 0.812802v -4.59554h 0.812802v 3.06369h
 0.812802v 3.06369h 0.812802v -1.53185h 0.812802v -1.53185h 0.812802v 1.53185h 0.812802v 1.53185h 0.812802v -3.06369h 1.6256v 3.06369h 0.812802v -4.59554h 0.812802v 4.59554h 4.06401v -1.53185h 0.812802v 1.53185h 36.5761v -1.53185h 0.812802v 1.53185h
 4.87681v -1.53185h 0.812802v 1.53185h 6.50241v -1.53185h 0.812802v 1.53185h 26.8225v -1.53185h 0.812802v 1.53185h 13.8176v -1.53185h 0.812802v 1.53185h 13.0048v -1.53185h 0.812802v 1.53185h 20.32v -1.53185h 0.812802v 1.53185h 69.0881v -1.53185h
 0.812802v 1.53185h 10.5664v -1.53185h 0.812802v 1.53185h 31.6993" fill="none" stroke="#ff0000" stroke-width="2"/>
<path d="M59.4606,283.399l 4.53543, -0.00813633l 4.53543, -0.00813633l 4.53543, -0.00813634l 4.53543, -0.00813635l 4.53543, -0.00813643l 4.53543, -0.00813678l 4.53543, -0.00813835l 4.53543, -0.00814475l 4.53543, -0.00816946l 4.53543, -0.00825886l
 4.53543, -0.00856241l 4.53543, -0.00952905l 4.53543, -0.0124144l 4.53543, -0.0204829l 4.53543, -0.0416031l 4.53543, -0.0933085l 4.53543, -0.211563l 4.53543, -0.463879l 4.53543, -0.965234l 4.53543, -1.89081l 4.53543, -3.47346l 4.53543, -5.96903l
 4.53543, -9.57463l 4.53543, -14.3001l 4.53543, -19.8219l 4.53543, -25.3829l 4.53543, -29.8181l 4.53543, -31.7653l 4.53543, -30.0455l 4.53543, -24.1056l 4.53543, -14.3433l 4.53543, -2.14512l 4.53543, 10.4259l 4.53543, 21.2002l 4.53543, 28.5142l
 4.53543, 31.6263l 4.53543, 30.7964l 4.53543, 27.0416l 4.53543, 21.7114l 4.53543, 16.0699l 4.53543, 11.0218l 4.53543, 7.02923l 4.53543, 4.17812l 4.53543, 2.31792l 4.53543, 1.20078l 4.53543, 0.580196l 4.53543, 0.260192l 4.53543, 0.106633l 4.53543,
 0.0379254" fill="none" stroke="#0000ff" stroke-width="2"/>
<path d="M281.697,282.974l 4.53543, 0.00921813l 4.53543, -0.00199581l 4.53543, -0.00609524l 4.53543, -0.00749879l 4.53543, -0.00794916l 4.53543, -0.00808467l 4.53543, -0.00812293l 4.53543, -0.00813306l 4.53543, -0.00813558l 4.53543, -0.00813617l
 4.53543, -0.0081363l 4.53543, -0.00813633l 4.53543, -0.00813633l 4.53543, -0.00813633l 4.53543, -0.00813633l 4.53543, -0.00813633l 4.53543, -0.00813633l 4.53543, -0.00813633l 4.53543, -0.00813633l 4.53543, -0.00813633l 4.53543, -0.00813633l 4.53543,
 -0.00813633l 4.53543, -0.00813633l 4.53543, -0.00813633l 4.53543, -0.00813633l 4.53543, -0.00813633l 4.53543, -0.00813633l 4.53543, -0.00813633l 4.53543, -0.00813633l 4.53543, -0.00813633l 4.53543, -0.00813633l 4.53543, -0.00813633l 4.53543,
 -0.00813633l 4.53543, -0.00813633l 4.53543, -0.00813633l 4.53543, -0.00813633l 4.53543, -0.00813633l 4.53543, -0.00813633l 4.53543, -0.00813633l 4.53543, -0.00813633l 4.53543, -0.00813633l 4.53543, -0.00813633l 4.53543, -0.00813633l 4.53543,
 -0.00813633l 4.53543, -0.00813633l 4.53543, -0.00813633l 4.53543, -0.00813633l 4.53543, -0.00813633l 4.53543, -0.00813633" fill="none" stroke="#0000ff" stroke-width="2"/>
<path d="M503.933,282.602l 4.53543, -0.00813633" fill="none" stroke="#0000ff" stroke-width="2"/>
<rect x="351.996" y="20.5176" width="204.094" height="88.3837" fill="white"/>
<path d="M351.996,108.901h 204.094" fill="none" stroke="black" stroke-width="2"/>
<path d="M556.091,108.901v -88.3837" fill="none" stroke="black" stroke-width="2"/>
<path d="M556.091,20.5176h -204.094" fill="none" stroke="black" stroke-width="2"/>
<path d="M351.996,20.5176v 88.3837" fill="none" stroke="black" stroke-width="2"/>
<text x="373.386" y="32.1916" fill="black" font-size="12.4446" font-family="Helvetica">
 / ndf 
</text>
<text x="368.915" y="27.7205" fill="black" font-size="8.46308" font-family="Helvetica">
2
</text>
<text x="361.761" y="32.1916" fill="black" font-size="12.4446" font-family="Times">
&#0967;
</text>
<text x="480.691" y="33.0858" fill="black" font-size="12.4446" font-family="Helvetica">
 137.5 / 165
</text>
<text x="361.761" y="47.3931" fill="black" font-size="12.4446" font-family="Helvetica">
Centroid 
</text>
<text x="525.401" y="46.4989" fill="black" font-size="12.4446" font-family="Helvetica">
 0.3
</text>
<text x="518.248" y="46.4989" fill="black" font-size="12.4446" font-family="Times">
&#0177;
</text>
<text x="481.585" y="46.4989" fill="black" font-size="12.4446" font-family="Helvetica">
 577.5 
</text>
<text x="361.761" y="62.5947" fill="black" font-size="12.4446" font-family="Helvetica">
FWHM     
</text>
<text x="520.036" y="61.7005" fill="black" font-size="12.4446" font-family="Helvetica">
 0.51
</text>
<text x="512.882" y="61.7005" fill="black" font-size="12.4446" font-family="Times">
&#0177;
</text>
<text x="476.22" y="61.7005" fill="black" font-size="12.4446" font-family="Helvetica">
 53.56 
</text>
<text x="361.761" y="76.9021" fill="black" font-size="12.4446" font-family="Helvetica">
Counts   
</text>
<text x="518.248" y="76.0079" fill="black" font-size="12.4446" font-family="Helvetica">
 95.0
</text>
<text x="511.094" y="76.0079" fill="black" font-size="12.4446" font-family="Times">
&#0177;
</text>
<text x="474.431" y="76.0079" fill="black" font-size="12.4446" font-family="Helvetica">
  8018 
</text>
<text x="361.761" y="90.3152" fill="black" font-size="12.4446" font-family="Helvetica">
Intercept 
</text>
<text x="497.681" y="91.2094" fill="black" font-size="12.4446" font-family="Helvetica">
 0.81893
</text>
<text x="490.527" y="91.2094" fill="black" font-size="12.4446" font-family="Times">
&#0177;
</text>
<text x="439.557" y="91.2094" fill="black" font-size="12.4446" font-family="Helvetica">
 0.06975 
</text>
<text x="361.761" y="104.623" fill="black" font-size="12.4446" font-family="Helvetica">
Slope    
</text>
<text x="483.373" y="105.517" fill="black" font-size="12.4446" font-family="Helvetica">
 0.0013008
</text>
<text x="476.22" y="105.517" fill="black" font-size="12.4446" font-family="Times">
&#0177;
</text>
<text x="411.837" y="105.517" fill="black" font-size="12.4446" font-family="Helvetica">
 0.0009519 
</text>
<path d="M57.1929,284.091h 453.543" fill="none" stroke="black" stroke-width="2"/>
<text x="466.383" y="305.82" fill="black" font-size="10.6357" font-family="Helvetica">
Channels
</text>
<path d="M58.8185,276.515v 7.57575" fill="none" stroke="black" stroke-width="2"/>
<path d="M99.4586,280.303v 3.78787" fill="none" stroke="black" stroke-width="2"/>
<path d="M140.099,280.303v 3.78787" fill="none" stroke="black" stroke-width="2"/>
<path d="M180.739,280.303v 3.78787" fill="none" stroke="black" stroke-width="2"/>
<path d="M221.379,276.515v 7.57575" fill="none" stroke="black" stroke-width="2"/>
<path d="M262.019,280.303v 3.78787" fill="none" stroke="black" stroke-width="2"/>
<path d="M302.659,280.303v 3.78787" fill="none" stroke="black" stroke-width="2"/>
<path d="M343.299,280.303v 3.78787" fill="none" stroke="black" stroke-width="2"/>
<path d="M383.939,276.515v 7.57575" fill="none" stroke="black" stroke-width="2"/>
<path d="M58.8185,276.515v 7.57575" fill="none" stroke="black" stroke-width="2"/>
<path d="M383.939,276.515v 7.57575" fill="none" stroke="black" stroke-width="2"/>
<path d="M424.579,280.303v 3.78787" fill="none" stroke="black" stroke-width="2"/>
<path d="M465.219,280.303v 3.78787" fill="none" stroke="black" stroke-width="2"/>
<path d="M505.859,280.303v 3.78787" fill="none" stroke="black" stroke-width="2"/>
<text x="49.6815" y="294.195" fill="black" font-size="10.6357" font-family="Helvetica">
400
</text>
<text x="212.428" y="294.195" fill="black" font-size="10.6357" font-family="Helvetica">
600
</text>
<text x="374.28" y="294.195" fill="black" font-size="10.6357" font-family="Helvetica">
800
</text>
<path d="M57.1929,284.091v -252.525" fill="none" stroke="black" stroke-width="2"/>
<path d="M70.7992,284.091h -13.6063" fill="none" stroke="black" stroke-width="2"/>
<path d="M63.9961,276.431h -6.80315" fill="none" stroke="black" stroke-width="2"/>
<path d="M63.9961,268.772h -6.80315" fill="none" stroke="black" stroke-width="2"/>
<path d="M63.9961,261.113h -6.80315" fill="none" stroke="black" stroke-width="2"/>
<path d="M70.7992,253.454h -13.6063" fill="none" stroke="black" stroke-width="2"/>
<path d="M63.9961,245.794h -6.80315" fill="none" stroke="black" stroke-width="2"/>
<path d="M63.9961,238.135h -6.80315" fill="none" stroke="black" stroke-width="2"/>
<path d="M63.9961,230.476h -6.80315" fill="none" stroke="black" stroke-width="2"/>
<path d="M70.7992,222.817h -13.6063" fill="none" stroke="black" stroke-width="2"/>
<path d="M63.9961,215.157h -6.80315" fill="none" stroke="black" stroke-width="2"/>
<path d="M63.9961,207.498h -6.80315" fill="none" stroke="black" stroke-width="2"/>
<path d="M63.9961,199.839h -6.80315" fill="none" stroke="black" stroke-width="2"/>
<path d="M70.7992,192.18h -13.6063" fill="none" stroke="black" stroke-width="2"/>
<path d="M63.9961,184.52h -6.80315" fill="none" stroke="black" stroke-width="2"/>
<path d="M63.9961,176.861h -6.80315" fill="none" stroke="black" stroke-width="2"/>
<path d="M63.9961,169.202h -6.80315" fill="none" stroke="black" stroke-width="2"/>
<path d="M70.7992,161.543h -13.6063" fill="none" stroke="black" stroke-width="2"/>
<path d="M63.9961,153.884h -6.80315" fill="none" stroke="black" stroke-width="2"/>
<path d="M63.9961,146.224h -6.80315" fill="none" stroke="black" stroke-width="2"/>
<path d="M63.9961,138.565h -6.80315" fill="none" stroke="black" stroke-width="2"/>
<path d="M70.7992,130.906h -13.6063" fill="none" stroke="black" stroke-width="2"/>
<path d="M63.9961,123.247h -6.80315" fill="none" stroke="black" stroke-width="2"/>
<path d="M63.9961,115.587h -6.80315" fill="none" stroke="black" stroke-width="2"/>
<path d="M63.9961,107.928h -6.80315" fill="none" stroke="black" stroke-width="2"/>
<path d="M70.7992,100.269h -13.6063" fill="none" stroke="black" stroke-width="2"/>
<path d="M63.9961,92.6097h -6.80315" fill="none" stroke="black" stroke-width="2"/>
<path d="M63.9961,84.9505h -6.80315" fill="none" stroke="black" stroke-width="2"/>
<path d="M63.9961,77.2912h -6.80315" fill="none" stroke="black" stroke-width="2"/>
<path d="M70.7992,69.632h -13.6063" fill="none" stroke="black" stroke-width="2"/>
<path d="M63.9961,61.9728h -6.80315" fill="none" stroke="black" stroke-width="2"/>
<path d="M63.9961,54.3135h -6.80315" fill="none" stroke="black" stroke-width="2"/>
<path d="M63.9961,46.6543h -6.80315" fill="none" stroke="black" stroke-width="2"/>
<path d="M70.7992,38.9951h -13.6063" fill="none" stroke="black" stroke-width="2"/>
<path d="M70.7992,38.9951h -13.6063" fill="none" stroke="black" stroke-width="2"/>
<text x="47.8931" y="287.936" fill="black" font-size="10.6357" font-family="Helvetica">
0
</text>
<text x="42.5279" y="257.532" fill="black" font-size="10.6357" font-family="Helvetica">
20
</text>
<text x="42.5279" y="227.129" fill="black" font-size="10.6357" font-family="Helvetica">
40
</text>
<text x="42.5279" y="195.832" fill="black" font-size="10.6357" font-family="Helvetica">
60
</text>
<text x="42.5279" y="165.429" fill="black" font-size="10.6357" font-family="Helvetica">
80
</text>
<text x="36.2684" y="135.026" fill="black" font-size="10.6357" font-family="Helvetica">
100
</text>
<text x="36.2684" y="104.623" fill="black" font-size="10.6357" font-family="Helvetica">
120
</text>
<text x="36.2684" y="73.3252" fill="black" font-size="10.6357" font-family="Helvetica">
140
</text>
<text x="36.2684" y="42.9221" fill="black" font-size="10.6357" font-family="Helvetica">
160
</text>
<rect x="351.996" y="20.5176" width="204.094" height="88.3837" fill="white"/>
<path d="M351.996,108.901h 204.094" fill="none" stroke="black" stroke-width="2"/>
<path d="M556.091,108.901v -88.3837" fill="none" stroke="black" stroke-width="2"/>
<path d="M556.091,20.5176h -204.094" fill="none" stroke="black" stroke-width="2"/>
<path d="M351.996,20.5176v 88.3837" fill="none" stroke="black" stroke-width="2"/>
<text x="373.386" y="32.1916" fill="black" font-size="12.4446" font-family="Helvetica">
 / ndf 
</text>
<text x="368.915" y="27.7205" fill="black" font-size="8.46308" font-family="Helvetica">
2
</text>
<text x="361.761" y="32.1916" fill="black" font-size="12.4446" font-family="Times">
&#0967;
</text>
<text x="480.691" y="33.0858" fill="black" font-size="12.4446" font-family="Helvetica">
 137.5 / 165
</text>
<text x="361.761" y="47.3931" fill="black" font-size="12.4446" font-family="Helvetica">
Centroid 
</text>
<text x="525.401" y="46.4989" fill="black" font-size="12.4446" font-family="Helvetica">
 0.3
</text>
<text x="518.248" y="46.4989" fill="black" font-size="12.4446" font-family="Times">
&#0177;
</text>
<text x="481.585" y="46.4989" fill="black" font-size="12.4446" font-family="Helvetica">
 577.5 
</text>
<text x="361.761" y="62.5947" fill="black" font-size="12.4446" font-family="Helvetica">
FWHM     
</text>
<text x="520.036" y="61.7005" fill="black" font-size="12.4446" font-family="Helvetica">
 0.51
</text>
<text x="512.882" y="61.7005" fill="black" font-size="12.4446" font-family="Times">
&#0177;
</text>
<text x="476.22" y="61.7005" fill="black" font-size="12.4446" font-family="Helvetica">
 53.56 
</text>
<text x="361.761" y="76.9021" fill="black" font-size="12.4446" font-family="Helvetica">
Counts   
</text>
<text x="518.248" y="76.0079" fill="black" font-size="12.4446" font-family="Helvetica">
 95.0
</text>
<text x="511.094" y="76.0079" fill="black" font-size="12.4446" font-family="Times">
&#0177;
</text>
<text x="474.431" y="76.0079" fill="black" font-size="12.4446" font-family="Helvetica">
  8018 
</text>
<text x="361.761" y="90.3152" fill="black" font-size="12.4446" font-family="Helvetica">
Intercept 
</text>
<text x="497.681" y="91.2094" fill="black" font-size="12.4446" font-family="Helvetica">
 0.81893
</text>
<text x="490.527" y="91.2094" fill="black" font-size="12.4446" font-family="Times">
&#0177;
</text>
<text x="439.557" y="91.2094" fill="black" font-size="12.4446" font-family="Helvetica">
 0.06975 
</text>
<text x="361.761" y="104.623" fill="black" font-size="12.4446" font-family="Helvetica">
Slope    
</text>
<text x="483.373" y="105.517" fill="black" font-size="12.4446" font-family="Helvetica">
 0.0013008
</text>
<text x="476.22" y="105.517" fill="black" font-size="12.4446" font-family="Times">
&#0177;
</text>
<text x="411.837" y="105.517" fill="black" font-size="12.4446" font-family="Helvetica">
 0.0009519 
</text>
<path d="M59.4606,284.091h 63.4961l 4.53543, -0.0520769l 4.53543, -0.0851722l 4.53543, -0.203427l 4.53543, -0.455743l 4.53543, -0.957098l 4.53543, -1.88267l 4.53543, -3.46532l 4.53543, -5.96089l 4.53543, -9.56649l 4.53543, -14.292l 4.53543, -19.8138l
 4.53543, -25.3747l 4.53543, -29.81l 4.53543, -31.7572l 4.53543, -30.0373l 4.53543, -24.0975l 4.53543, -14.3352l 4.53543, -2.13699l 4.53543, 10.434l 4.53543, 21.2084l 4.53543, 28.5224l 4.53543, 31.6344l 4.53543, 30.8046l 4.53543, 27.0497l 4.53543,
 21.7196l 4.53543, 16.078l 4.53543, 11.03l 4.53543, 7.03737l 4.53543, 4.18626l 4.53543, 2.32606l 4.53543, 1.20892l 4.53543, 0.588333l 4.53543, 0.268328l 4.53543, 0.114769l 4.53543, 0.0460617" fill="none" stroke="#00ff00" stroke-width="2"/>
<path d="M281.697,284.064l 4.53543, 0.0264301h 217.701" fill="none" stroke="#00ff00" stroke-width="2"/>
<path d="M503.933,284.091h 4.53543" fill="none" stroke="#00ff00" stroke-width="2"/>
<text x="94.3921" y="15.2016" fill="black" font-size="13.3121" font-family="Helvetica">
Wk3/22Na-Coin-511Window-fullrange0_5us10V_45degrees.Spe
</text></svg>
