<?xml version="1.0" standalone="no"?>
<svg width="567.429" height="357.636" viewBox="0 0 567.429 357.636" xmlns="http://www.w3.org/2000/svg">
<title>
/home/ADF/hyw543/Coincidence/c1.svg
</title>
<desc>
Creator: ROOT Version 6.06/08
CreationDate: Mon Jan  7 21:02:46 2019</desc>
<defs>
</defs>
<rect x="0.5" y="0" width="566.929" height="357.136" fill="white"/>
<rect x="57.1929" y="35.7136" width="453.543" height="285.709" fill="white"/>
<rect x="57.1929" y="35.7136" width="453.543" height="285.709" fill="none" stroke="black"/>
<rect x="57.1929" y="35.7136" width="453.543" height="285.709" fill="white"/>
<rect x="57.1929" y="35.7136" width="453.543" height="285.709" fill="none" stroke="black"/>
<path d="M57.1929,321.422h 27.1487v -1.57741h 0.798492v 1.57741h 7.18643v -0.788706h 0.798492v 0.788706h 13.5744v -0.788706h 0.798492v 0.788706h 31.1412v -0.788706h 1.59698v 0.788706h 29.5442v -0.788706h 0.798492v 0.788706h 3.99246v -0.788706h
 0.798492v 0.788706h 14.3729v -0.788706h 0.798492v 0.788706h 7.98492v -0.788706h 0.798492v 0.788706h 0.798492v -0.788706h 0.798492v 0.788706h 8.78341v -0.788706h 0.798492v 0.788706h 3.19397v -0.788706h 0.798492v 0.788706h 3.19397v -0.788706h
 0.798492v 0.788706h 7.98492v -0.788706h 0.798492v 0.788706h 3.19397v -0.788706h 0.798492v 0.788706h 2.39548v -1.57741h 3.19397v 1.57741h 0.798492v -5.52094h 0.798492v 3.15483h 0.798492v 0.788706h 0.798492v -0.788706h 0.798492v -3.94353h 0.798492v
 2.36612h 0.798492v -4.73224h 0.798492v 2.36612h 0.798492v 4.73224h 0.798492v -3.15483h 0.798492v -4.73224h 0.798492v 5.52094h 0.798492v -4.73224h 0.798492v -0.788706h 0.798492v -5.52094h 0.798492v 2.36612h 0.798492v -5.52094h 0.798492v 5.52094h
 0.798492v -3.94353h 0.798492v 5.52094h 0.798492v -9.46448h 0.798492v -3.15483h 0.798492v 2.36612h 0.798492v -6.30965h 0.798492v -4.73224h 0.798492v 3.15483h 1.59698v -11.8306h 0.798492v 2.36612h 0.798492v 5.52094h 0.798492v -3.15483h 0.798492v
 -7.09836h 0.798492v 3.94353h 0.798492v -5.52094h 0.798492v -3.94353h 0.798492v -21.2951h 0.798492v 5.52094h 0.798492v -10.2532h 0.798492v -5.52094h 1.59698v 5.52094h 0.798492v -17.3515h 0.798492v 11.0419h 0.798492v -17.3515h 0.798492v -5.52094h
 0.798492v -10.2532h 0.798492v -20.5064h 0.798492v 16.5628h 0.798492v -23.6612h 0.798492v 3.15483h 0.798492v 13.408h 0.798492v -18.929h 0.798492v -14.9854h 0.798492v -11.0419h 0.798492v 10.2532h 0.798492v -32.337h 0.798492v 25.2386h 0.798492v
 -29.9708h 0.798492v 8.67577h 0.798492v -28.3934h 0.798492v -0.788706h 0.798492v 24.4499h 0.798492v -28.3934h 0.798492v 8.67577h 0.798492v -12.6193h 0.798492v -11.8306h 0.798492v -0.788706h 0.798492v 6.30965h 0.798492v -2.36612h 0.798492v 0.788706h
 0.798492v -9.46448h 0.798492v -29.1821h 0.798492v 26.0273h 0.798492v 1.57741h 0.798492v -9.46448h 0.798492v 34.7031h 0.798492v -32.337h 0.798492v 7.09836h 0.798492v 13.408h 0.798492v -32.337h 0.798492v 6.30965h 0.798492v 25.2386h 0.798492v -10.2532h
 0.798492v 21.2951h 0.798492v -48.1111h 0.798492v 43.3788h 0.798492v 0.788706h 0.798492v 7.09836h 0.798492v 10.2532h 0.798492v 22.0838h 0.798492v -29.9708h 0.798492v 12.6193h 0.798492v 13.408h 0.798492v 3.15483h 0.798492v 3.94353h 0.798492v 6.30965h
 0.798492v 15.7741h 0.798492v 3.15483h 0.798492v 1.57741h 0.798492v 4.73224h 0.798492v 18.929h 0.798492v -8.67577h 0.798492v 21.2951h 0.798492v -10.2532h 0.798492v 4.73224h 0.798492v 23.6612h 0.798492v 2.36612h 0.798492v 21.2951h 0.798492v -16.5628h
 0.798492v 14.1967h 0.798492v 4.73224h 0.798492v 2.36612h 0.798492v 15.7741h 0.798492v -3.15483h 0.798492v -7.88706h 0.798492v 1.57741h 0.798492v 3.94353h 0.798492v 9.46448h 0.798492v 6.30965h 0.798492v 5.52094h 0.798492v 4.73224h 0.798492v -1.57741h
 0.798492v 4.73224h 0.798492v 1.57741h 0.798492v 9.46448h 0.798492v 3.15483h 0.798492v 3.15483h 0.798492v -8.67577h 0.798492v 3.15483h 0.798492v 7.88706h 0.798492v 2.36612h 0.798492v -7.88706h 0.798492v 10.2532h 0.798492v -5.52094h 0.798492v 1.57741h
 1.59698v 5.52094h 0.798492v -0.788706h 0.798492v -0.788706h 0.798492v 3.94353h 0.798492v 1.57741h 0.798492v -4.73224h 0.798492v 1.57741h 0.798492v 0.788706h 0.798492v 2.36612h 0.798492v -2.36612h 0.798492v 4.73224h 0.798492v -1.57741h 0.798492v
 1.57741h 0.798492v -0.788706h 2.39548v 0.788706h 0.798492v 0.788706h 0.798492v -2.36612h 0.798492v 0.788706h 0.798492v 1.57741h 3.19397v -0.788706h 0.798492v 0.788706h 0.798492v -0.788706h 1.59698v 0.788706h 4.79095v -0.788706h 0.798492v 0.788706h
 1.59698v -0.788706h 0.798492v 0.788706h 4.79095v -0.788706h 0.798492v 0.788706h 33.5367v -0.788706h 0.798492v 0.788706h 7.98492v -0.788706h 0.798492v 0.788706h 5.58944v -0.788706h 0.798492v 0.788706h 7.18643v -0.788706h 0.798492v 0.788706h 8.78341v
 -0.788706h 1.59698v 0.788706h 28.7457v -0.788706h 0.798492v 0.788706h 0.798492v -0.788706h 0.798492v 0.788706h 6.38793v -0.788706h 0.798492v 0.788706h 2.39548v -0.788706h 0.798492v 0.788706h 15.1713v -0.788706h 0.798492v 0.788706h 3.19397"
 fill="none" stroke="#ff0000" stroke-width="2"/>
<path d="M59.4606,320.646l 4.53543, 0.0021132l 4.53543, 0.0021132l 4.53543, 0.0021132l 4.53543, 0.0021132l 4.53543, 0.0021132l 4.53543, 0.0021132l 4.53543, 0.0021132l 4.53543, 0.0021132l 4.53543, 0.0021132l 4.53543, 0.0021132l 4.53543, 0.0021132l
 4.53543, 0.0021132l 4.53543, 0.0021132l 4.53543, 0.0021132l 4.53543, 0.0021132l 4.53543, 0.0021132l 4.53543, 0.0021132l 4.53543, 0.0021132l 4.53543, 0.0021132l 4.53543, 0.0021132l 4.53543, 0.0021132l 4.53543, 0.0021132l 4.53543, 0.00211319l 4.53543,
 0.00211319l 4.53543, 0.00211317l 4.53543, 0.00211305l 4.53543, 0.0021125l 4.53543, 0.00211014l 4.53543, 0.00210055l 4.53543, 0.00206401l 4.53543, 0.00193334l 4.53543, 0.00149493l 4.53543, 0.0001155l 4.53543, -0.00395261l 4.53543, -0.0151905l
 4.53543, -0.0442463l 4.53543, -0.114495l 4.53543, -0.273128l 4.53543, -0.607226l 4.53543, -1.26227l 4.53543, -2.45493l 4.53543, -4.46488l 4.53543, -7.58549l 4.53543, -12.0182l 4.53543, -17.7161l 4.53543, -24.217l 4.53543, -30.5477l 4.53543, -35.289l
 4.53543, -36.8609" fill="none" stroke="#0000ff" stroke-width="2"/>
<path d="M281.697,147.238l 4.53543, -33.9899l 4.53543, -26.2147l 4.53543, -14.2145l 4.53543, 0.219773l 4.53543, 14.6161l 4.53543, 26.5131l 4.53543, 34.1483l 4.53543, 36.8775l 4.53543, 35.1919l 4.53543, 30.3813l 4.53543, 24.0272l 4.53543, 17.5384l
 4.53543, 11.8735l 4.53543, 7.48013l 4.53543, 4.39573l 4.53543, 2.41405l 4.53543, 1.24088l 4.53543, 0.597969l 4.53543, 0.270756l 4.53543, 0.115713l 4.53543, 0.047193l 4.53543, 0.0189082l 4.53543, 0.00798992l 4.53543, 0.00404509l 4.53543, 0.00271001l
 4.53543, 0.0022865l 4.53543, 0.00216051l 4.53543, 0.00212534l 4.53543, 0.00211613l 4.53543, 0.00211386l 4.53543, 0.00211334l 4.53543, 0.00211322l 4.53543, 0.0021132l 4.53543, 0.0021132l 4.53543, 0.0021132l 4.53543, 0.0021132l 4.53543, 0.0021132l
 4.53543, 0.0021132l 4.53543, 0.0021132l 4.53543, 0.0021132l 4.53543, 0.0021132l 4.53543, 0.0021132l 4.53543, 0.0021132l 4.53543, 0.0021132l 4.53543, 0.0021132l 4.53543, 0.0021132l 4.53543, 0.0021132l 4.53543, 0.0021132l 4.53543, 0.0021132"
 fill="none" stroke="#0000ff" stroke-width="2"/>
<path d="M503.933,320.853l 4.53543, 0.0021132" fill="none" stroke="#0000ff" stroke-width="2"/>
<rect x="351.996" y="23.2138" width="204.094" height="99.9981" fill="white"/>
<path d="M351.996,123.212h 204.094" fill="none" stroke="black" stroke-width="2"/>
<path d="M556.091,123.212v -99.9981" fill="none" stroke="black" stroke-width="2"/>
<path d="M556.091,23.2138h -204.094" fill="none" stroke="black" stroke-width="2"/>
<path d="M351.996,23.2138v 99.9981" fill="none" stroke="black" stroke-width="2"/>
<text x="373.249" y="35.1281" fill="black" font-size="12.0375" font-family="Helvetica">
 / ndf 
</text>
<text x="368.37" y="31.225" fill="black" font-size="8.19168" font-family="Helvetica">
2
</text>
<text x="361.539" y="35.1281" fill="black" font-size="12.0375" font-family="Times">
&#0967;
</text>
<text x="484.488" y="36.1039" fill="black" font-size="12.0375" font-family="Helvetica">
 163.1 / 186
</text>
<text x="361.539" y="52.6922" fill="black" font-size="12.0375" font-family="Helvetica">
Centroid 
</text>
<text x="526.446" y="52.6922" fill="black" font-size="12.0375" font-family="Helvetica">
 0.2
</text>
<text x="519.616" y="52.6922" fill="black" font-size="12.0375" font-family="Times">
&#0177;
</text>
<text x="488.391" y="52.6922" fill="black" font-size="12.0375" font-family="Helvetica">
   575 
</text>
<text x="361.539" y="69.2805" fill="black" font-size="12.0375" font-family="Helvetica">
FWHM     
</text>
<text x="519.616" y="69.2805" fill="black" font-size="12.0375" font-family="Helvetica">
 0.32
</text>
<text x="512.785" y="69.2805" fill="black" font-size="12.0375" font-family="Times">
&#0177;
</text>
<text x="477.657" y="69.2805" fill="black" font-size="12.0375" font-family="Helvetica">
 54.53 
</text>
<text x="361.539" y="85.8688" fill="black" font-size="12.0375" font-family="Helvetica">
Counts   
</text>
<text x="487.415" y="85.8688" fill="black" font-size="12.0375" font-family="Helvetica">
 1.386e+02
</text>
<text x="480.585" y="85.8688" fill="black" font-size="12.0375" font-family="Times">
&#0177;
</text>
<text x="420.086" y="85.8688" fill="black" font-size="12.0375" font-family="Helvetica">
 1.841e+04 
</text>
<text x="361.539" y="101.481" fill="black" font-size="12.0375" font-family="Helvetica">
Intercept 
</text>
<text x="512.785" y="102.457" fill="black" font-size="12.0375" font-family="Helvetica">
 0.630
</text>
<text x="505.955" y="102.457" fill="black" font-size="12.0375" font-family="Times">
&#0177;
</text>
<text x="470.827" y="102.457" fill="black" font-size="12.0375" font-family="Helvetica">
 1.115 
</text>
<text x="361.539" y="118.07" fill="black" font-size="12.0375" font-family="Helvetica">
Slope    
</text>
<text x="487.415" y="119.045" fill="black" font-size="12.0375" font-family="Helvetica">
 0.0010268
</text>
<text x="480.585" y="119.045" fill="black" font-size="12.0375" font-family="Times">
&#0177;
</text>
<text x="423.013" y="119.045" fill="black" font-size="12.0375" font-family="Helvetica">
0.0004717 
</text>
<text x="416.183" y="119.045" fill="black" font-size="12.0375" font-family="Times">
&#8722;
</text>
<text x="413.256" y="119.045" fill="black" font-size="12.0375" font-family="Helvetica">
 
</text>
<path d="M57.1929,321.422h 453.543" fill="none" stroke="black" stroke-width="2"/>
<text x="462.045" y="345.427" fill="black" font-size="11.9677" font-family="Helvetica">
Channels
</text>
<path d="M157.803,312.851v 8.57127" fill="none" stroke="black" stroke-width="2"/>
<path d="M197.727,317.137v 4.28563" fill="none" stroke="black" stroke-width="2"/>
<path d="M237.652,317.137v 4.28563" fill="none" stroke="black" stroke-width="2"/>
<path d="M277.577,317.137v 4.28563" fill="none" stroke="black" stroke-width="2"/>
<path d="M317.501,312.851v 8.57127" fill="none" stroke="black" stroke-width="2"/>
<path d="M357.426,317.137v 4.28563" fill="none" stroke="black" stroke-width="2"/>
<path d="M397.35,317.137v 4.28563" fill="none" stroke="black" stroke-width="2"/>
<path d="M437.275,317.137v 4.28563" fill="none" stroke="black" stroke-width="2"/>
<path d="M477.2,312.851v 8.57127" fill="none" stroke="black" stroke-width="2"/>
<path d="M157.803,312.851v 8.57127" fill="none" stroke="black" stroke-width="2"/>
<path d="M117.878,317.137v 4.28563" fill="none" stroke="black" stroke-width="2"/>
<path d="M77.9537,317.137v 4.28563" fill="none" stroke="black" stroke-width="2"/>
<path d="M477.2,312.851v 8.57127" fill="none" stroke="black" stroke-width="2"/>
<text x="147.843" y="332.742" fill="black" font-size="11.9677" font-family="Helvetica">
400
</text>
<text x="306.895" y="332.742" fill="black" font-size="11.9677" font-family="Helvetica">
600
</text>
<text x="466.924" y="332.742" fill="black" font-size="11.9677" font-family="Helvetica">
800
</text>
<path d="M57.1929,321.422v -285.709" fill="none" stroke="black" stroke-width="2"/>
<path d="M70.7992,321.422h -13.6063" fill="none" stroke="black" stroke-width="2"/>
<path d="M63.9961,313.535h -6.80315" fill="none" stroke="black" stroke-width="2"/>
<path d="M63.9961,305.648h -6.80315" fill="none" stroke="black" stroke-width="2"/>
<path d="M63.9961,297.761h -6.80315" fill="none" stroke="black" stroke-width="2"/>
<path d="M63.9961,289.874h -6.80315" fill="none" stroke="black" stroke-width="2"/>
<path d="M70.7992,281.987h -13.6063" fill="none" stroke="black" stroke-width="2"/>
<path d="M63.9961,274.1h -6.80315" fill="none" stroke="black" stroke-width="2"/>
<path d="M63.9961,266.213h -6.80315" fill="none" stroke="black" stroke-width="2"/>
<path d="M63.9961,258.326h -6.80315" fill="none" stroke="black" stroke-width="2"/>
<path d="M63.9961,250.439h -6.80315" fill="none" stroke="black" stroke-width="2"/>
<path d="M70.7992,242.552h -13.6063" fill="none" stroke="black" stroke-width="2"/>
<path d="M63.9961,234.665h -6.80315" fill="none" stroke="black" stroke-width="2"/>
<path d="M63.9961,226.778h -6.80315" fill="none" stroke="black" stroke-width="2"/>
<path d="M63.9961,218.891h -6.80315" fill="none" stroke="black" stroke-width="2"/>
<path d="M63.9961,211.004h -6.80315" fill="none" stroke="black" stroke-width="2"/>
<path d="M70.7992,203.117h -13.6063" fill="none" stroke="black" stroke-width="2"/>
<path d="M63.9961,195.229h -6.80315" fill="none" stroke="black" stroke-width="2"/>
<path d="M63.9961,187.342h -6.80315" fill="none" stroke="black" stroke-width="2"/>
<path d="M63.9961,179.455h -6.80315" fill="none" stroke="black" stroke-width="2"/>
<path d="M63.9961,171.568h -6.80315" fill="none" stroke="black" stroke-width="2"/>
<path d="M70.7992,163.681h -13.6063" fill="none" stroke="black" stroke-width="2"/>
<path d="M63.9961,155.794h -6.80315" fill="none" stroke="black" stroke-width="2"/>
<path d="M63.9961,147.907h -6.80315" fill="none" stroke="black" stroke-width="2"/>
<path d="M63.9961,140.02h -6.80315" fill="none" stroke="black" stroke-width="2"/>
<path d="M63.9961,132.133h -6.80315" fill="none" stroke="black" stroke-width="2"/>
<path d="M70.7992,124.246h -13.6063" fill="none" stroke="black" stroke-width="2"/>
<path d="M63.9961,116.359h -6.80315" fill="none" stroke="black" stroke-width="2"/>
<path d="M63.9961,108.472h -6.80315" fill="none" stroke="black" stroke-width="2"/>
<path d="M63.9961,100.585h -6.80315" fill="none" stroke="black" stroke-width="2"/>
<path d="M63.9961,92.6976h -6.80315" fill="none" stroke="black" stroke-width="2"/>
<path d="M70.7992,84.8106h -13.6063" fill="none" stroke="black" stroke-width="2"/>
<path d="M63.9961,76.9235h -6.80315" fill="none" stroke="black" stroke-width="2"/>
<path d="M63.9961,69.0365h -6.80315" fill="none" stroke="black" stroke-width="2"/>
<path d="M63.9961,61.1494h -6.80315" fill="none" stroke="black" stroke-width="2"/>
<path d="M63.9961,53.2623h -6.80315" fill="none" stroke="black" stroke-width="2"/>
<path d="M70.7992,45.3753h -13.6063" fill="none" stroke="black" stroke-width="2"/>
<path d="M70.7992,45.3753h -13.6063" fill="none" stroke="black" stroke-width="2"/>
<path d="M63.9961,37.4882h -6.80315" fill="none" stroke="black" stroke-width="2"/>
<text x="47.3375" y="325.911" fill="black" font-size="11.9677" font-family="Helvetica">
0
</text>
<text x="41.4828" y="285.904" fill="black" font-size="11.9677" font-family="Helvetica">
50
</text>
<text x="34.6524" y="246.873" fill="black" font-size="11.9677" font-family="Helvetica">
100
</text>
<text x="34.6524" y="207.841" fill="black" font-size="11.9677" font-family="Helvetica">
150
</text>
<text x="34.6524" y="167.834" fill="black" font-size="11.9677" font-family="Helvetica">
200
</text>
<text x="34.6524" y="128.803" fill="black" font-size="11.9677" font-family="Helvetica">
250
</text>
<text x="34.6524" y="88.7961" fill="black" font-size="11.9677" font-family="Helvetica">
300
</text>
<text x="34.6524" y="49.7649" fill="black" font-size="11.9677" font-family="Helvetica">
350
</text>
<rect x="351.996" y="23.2138" width="204.094" height="99.9981" fill="white"/>
<path d="M351.996,123.212h 204.094" fill="none" stroke="black" stroke-width="2"/>
<path d="M556.091,123.212v -99.9981" fill="none" stroke="black" stroke-width="2"/>
<path d="M556.091,23.2138h -204.094" fill="none" stroke="black" stroke-width="2"/>
<path d="M351.996,23.2138v 99.9981" fill="none" stroke="black" stroke-width="2"/>
<text x="373.249" y="35.1281" fill="black" font-size="12.0375" font-family="Helvetica">
 / ndf 
</text>
<text x="368.37" y="31.225" fill="black" font-size="8.19168" font-family="Helvetica">
2
</text>
<text x="361.539" y="35.1281" fill="black" font-size="12.0375" font-family="Times">
&#0967;
</text>
<text x="484.488" y="36.1039" fill="black" font-size="12.0375" font-family="Helvetica">
 163.1 / 186
</text>
<text x="361.539" y="52.6922" fill="black" font-size="12.0375" font-family="Helvetica">
Centroid 
</text>
<text x="526.446" y="52.6922" fill="black" font-size="12.0375" font-family="Helvetica">
 0.2
</text>
<text x="519.616" y="52.6922" fill="black" font-size="12.0375" font-family="Times">
&#0177;
</text>
<text x="488.391" y="52.6922" fill="black" font-size="12.0375" font-family="Helvetica">
   575 
</text>
<text x="361.539" y="69.2805" fill="black" font-size="12.0375" font-family="Helvetica">
FWHM     
</text>
<text x="519.616" y="69.2805" fill="black" font-size="12.0375" font-family="Helvetica">
 0.32
</text>
<text x="512.785" y="69.2805" fill="black" font-size="12.0375" font-family="Times">
&#0177;
</text>
<text x="477.657" y="69.2805" fill="black" font-size="12.0375" font-family="Helvetica">
 54.53 
</text>
<text x="361.539" y="85.8688" fill="black" font-size="12.0375" font-family="Helvetica">
Counts   
</text>
<text x="487.415" y="85.8688" fill="black" font-size="12.0375" font-family="Helvetica">
 1.386e+02
</text>
<text x="480.585" y="85.8688" fill="black" font-size="12.0375" font-family="Times">
&#0177;
</text>
<text x="420.086" y="85.8688" fill="black" font-size="12.0375" font-family="Helvetica">
 1.841e+04 
</text>
<text x="361.539" y="101.481" fill="black" font-size="12.0375" font-family="Helvetica">
Intercept 
</text>
<text x="512.785" y="102.457" fill="black" font-size="12.0375" font-family="Helvetica">
 0.630
</text>
<text x="505.955" y="102.457" fill="black" font-size="12.0375" font-family="Times">
&#0177;
</text>
<text x="470.827" y="102.457" fill="black" font-size="12.0375" font-family="Helvetica">
 1.115 
</text>
<text x="361.539" y="118.07" fill="black" font-size="12.0375" font-family="Helvetica">
Slope    
</text>
<text x="487.415" y="119.045" fill="black" font-size="12.0375" font-family="Helvetica">
 0.0010268
</text>
<text x="480.585" y="119.045" fill="black" font-size="12.0375" font-family="Times">
&#0177;
</text>
<text x="423.013" y="119.045" fill="black" font-size="12.0375" font-family="Helvetica">
0.0004717 
</text>
<text x="416.183" y="119.045" fill="black" font-size="12.0375" font-family="Times">
&#8722;
</text>
<text x="413.256" y="119.045" fill="black" font-size="12.0375" font-family="Helvetica">
 
</text>
<path d="M59.4606,321.422h 158.74l 4.53543, -0.0725905l 4.53543, -0.116608l 4.53543, -0.275241l 4.53543, -0.609339l 4.53543, -1.26438l 4.53543, -2.45705l 4.53543, -4.46699l 4.53543, -7.5876l 4.53543, -12.0204l 4.53543, -17.7182l 4.53543, -24.2192l
 4.53543, -30.5498l 4.53543, -35.2911l 4.53543, -36.863" fill="none" stroke="#00ff00" stroke-width="2"/>
<path d="M281.697,147.911l 4.53543, -33.992l 4.53543, -26.2168l 4.53543, -14.2166l 4.53543, 0.21766l 4.53543, 14.614l 4.53543, 26.511l 4.53543, 34.1462l 4.53543, 36.8754l 4.53543, 35.1898l 4.53543, 30.3792l 4.53543, 24.025l 4.53543, 17.5363l 4.53543,
 11.8714l 4.53543, 7.47802l 4.53543, 4.39362l 4.53543, 2.41193l 4.53543, 1.23876l 4.53543, 0.595856l 4.53543, 0.268643l 4.53543, 0.1136l 4.53543, 0.0705168h 126.992" fill="none" stroke="#00ff00" stroke-width="2"/>
<path d="M503.933,321.422h 4.53543" fill="none" stroke="#00ff00" stroke-width="2"/>
<text x="103.933" y="15.6125" fill="black" font-size="12.9119" font-family="Helvetica">
Wk3/22Na-Coin-511Window-fullrange0_5us10V_30degrees.Spe
</text></svg>
