<?xml version="1.0" standalone="no"?>
<svg width="567.429" height="311.529" viewBox="0 0 567.429 311.529" xmlns="http://www.w3.org/2000/svg">
<title>
/home/ADF/hyw543/Coincidence/c1.svg
</title>
<desc>
Creator: ROOT Version 6.06/08
CreationDate: Mon Jan  7 21:25:08 2019</desc>
<defs>
</defs>
<rect x="0.5" y="0" width="566.929" height="311.029" fill="white"/>
<rect x="57.1929" y="31.1029" width="453.543" height="248.823" fill="white"/>
<rect x="57.1929" y="31.1029" width="453.543" height="248.823" fill="none" stroke="black"/>
<rect x="57.1929" y="31.1029" width="453.543" height="248.823" fill="white"/>
<rect x="57.1929" y="31.1029" width="453.543" height="248.823" fill="none" stroke="black"/>
<path d="M57.1929,279.926h 20.374v -1.26724h 0.221457v 1.26724h 4.87205v -1.26724h 0.221457v -1.26724h 0.221457v 2.53449h 0.221457v -3.80173h 0.442913v 3.80173h 1.10728v -1.26724h 0.221457v 1.26724h 0.885827v -2.53449h 0.221457v 2.53449h 0.885827v
 -1.26724h 0.442913v 1.26724h 0.221457v -1.26724h 0.221457v 1.26724h 1.99311v -2.53449h 0.221457v 2.53449h 1.32874v -1.26724h 0.221457v 1.26724h 0.221457v -1.26724h 0.221457v 1.26724h 0.221457v -1.26724h 0.221457v 1.26724h 0.885827v -1.26724h
 0.221457v 1.26724h 0.221457v -1.26724h 0.221457v 1.26724h 0.885827v -1.26724h 0.221457v 1.26724h 1.10728v -1.26724h 0.221457v -1.26724h 0.221457v 1.26724h 0.221457v 1.26724h 2.21457v -2.53449h 0.221457v 2.53449h 1.32874v -1.26724h 0.221457v 1.26724h
 0.885827v -1.26724h 0.221457v 1.26724h 2.43602v -1.26724h 0.442913v 1.26724h 0.66437v -1.26724h 0.442913v 1.26724h 0.66437v -1.26724h 0.66437v 1.26724h 4.20768v -1.26724h 0.221457v 1.26724h 0.221457v -1.26724h 0.221457v 1.26724h 0.221457v -2.53449h
 0.221457v 2.53449h 1.10728v -1.26724h 0.442913v 1.26724h 0.221457v -1.26724h 0.66437v 1.26724h 0.66437v -1.26724h 0.221457v 1.26724h 0.885827v -2.53449h 0.221457v 2.53449h 0.442913v -1.26724h 0.221457v 1.26724h 0.885827v -1.26724h 0.221457v 1.26724h
 1.10728v -1.26724h 0.221457v 1.26724h 0.885827v -1.26724h 0.221457v 1.26724h 0.442913v -1.26724h 0.442913v 1.26724h 0.66437v -1.26724h 0.221457v 1.26724h 0.221457v -1.26724h 0.221457v 1.26724h 0.221457v -2.53449h 0.221457v 2.53449h 0.221457v
 -1.26724h 0.221457v 1.26724h 0.885827v -1.26724h 0.221457v 1.26724h 1.10728v -1.26724h 0.442913v 1.26724h 0.221457v -1.26724h 0.442913v 1.26724h 1.32874v -1.26724h 0.221457v 1.26724h 0.221457v -1.26724h 0.221457v 1.26724h 0.442913v -1.26724h
 0.66437v 1.26724h 0.221457v -2.53449h 0.221457v 2.53449h 0.66437v -1.26724h 0.221457v 1.26724h 0.221457v -1.26724h 0.221457v 1.26724h 0.442913v -1.26724h 0.221457v 1.26724h 0.221457v -1.26724h 0.221457v 1.26724h 1.5502v -2.53449h 0.221457v 2.53449h
 0.442913v -1.26724h 0.442913v 1.26724h 0.442913v -1.26724h 0.221457v 1.26724h 1.10728v -1.26724h 0.221457v 1.26724h 0.221457v -1.26724h 0.221457v 1.26724h 1.10728v -1.26724h 0.221457v 1.26724h 0.66437v -1.26724h 0.221457v 1.26724h 0.442913v
 -1.26724h 0.221457v 1.26724h 2.21457v -1.26724h 0.221457v 1.26724h 0.66437v -2.53449h 0.221457v 2.53449h 1.10728v -1.26724h 0.221457v 1.26724h 2.43602v -1.26724h 0.221457v 1.26724h 0.885827v -1.26724h 0.221457v 1.26724h 0.66437v -1.26724h 0.221457v
 1.26724h 0.66437v -1.26724h 0.221457v 1.26724h 1.5502v -1.26724h 0.442913v 1.26724h 1.32874v -1.26724h 0.221457v 1.26724h 0.221457v -1.26724h 0.221457v 1.26724h 0.221457v -1.26724h 0.221457v 1.26724h 0.442913v -5.06898h 0.221457v 3.80173h 0.221457v
 1.26724h 0.442913v -1.26724h 0.221457v 1.26724h 0.221457v -1.26724h 0.221457v 1.26724h 1.32874v -1.26724h 0.221457v 1.26724h 0.221457v -1.26724h 0.221457v -1.26724h 0.221457v 1.26724h 0.221457v 1.26724h 0.442913v -2.53449h 0.221457v 2.53449h
 0.221457v -2.53449h 0.221457v 2.53449h 0.885827v -2.53449h 0.221457v 2.53449h 0.221457v -1.26724h 0.885827v 1.26724h 0.221457v -1.26724h 0.221457v 1.26724h 0.221457v -3.80173h 0.221457v 2.53449h 0.221457v 1.26724h 0.221457v -1.26724h 0.442913v
 -3.80173h 0.221457v 2.53449h 0.221457v 1.26724h 0.221457v -2.53449h 0.66437v 1.26724h 0.221457v 2.53449h 0.221457v -1.26724h 0.221457v -2.53449h 0.221457v 1.26724h 0.221457v -1.26724h 0.66437v -10.138h 0.221457v 2.53449h 0.221457v 1.26724h 0.221457v
 3.80173h 0.221457v 3.80173h 0.221457v -5.06898h 0.221457v -5.06898h 0.221457v 7.60347h 0.221457v -8.87071h 0.221457v -5.06898h 0.221457v 5.06898h 0.221457v 1.26724h 0.221457v -5.06898h 0.221457v -3.80173h 0.221457v 7.60347h 0.221457v -13.9397h
 0.221457v 6.33622h 0.221457v 1.26724h 0.221457v -15.2069h 0.442913v -11.4052h 0.221457v 3.80173h 0.221457v -2.53449h 0.221457v 13.9397h 0.221457v -29.1466h 0.221457v 11.4052h 0.221457v -8.87071h 0.221457v -7.60347h 0.221457v -3.80173h 0.221457v
 -10.138h 0.442913v -13.9397h 0.221457v -1.26724h 0.221457v 8.87071h 0.221457v -16.4742h 0.221457v 11.4052h 0.221457v -26.6121h 0.221457v 17.7414h 0.221457v -8.87071h 0.221457v -3.80173h 0.221457v -1.26724h 0.221457v -29.1466h 0.442913v -13.9397h
 0.221457v 7.60347h 0.221457v -17.7414h 0.221457v -19.0087h 0.221457v 40.5518h 0.221457v -8.87071h 0.221457v -22.8104h 0.221457v 12.6724h 0.221457v -25.3449h 0.221457v -6.33622h 0.221457v 11.4052h 0.221457v 8.87071h 0.221457v -20.2759h 0.221457v
 -3.80173h 0.221457v 21.5432h 0.221457v -58.2932h 0.221457v 46.888h 0.221457v -3.80173h 0.221457v -2.53449h 0.221457v -20.2759h 0.221457v 7.60347h 0.221457v -10.138h 0.221457v 29.1466h 0.221457v -15.2069h 0.221457v 10.138h 0.221457v -11.4052h
 0.221457v 2.53449h 0.221457v 2.53449h 0.442913v 12.6724h 0.221457v 6.33622h 0.221457v 16.4742h 0.221457v -15.2069h 0.221457v -48.1553h 0.221457v 12.6724h 0.221457v 19.0087h 0.221457v 3.80173h 0.221457v 20.2759h 0.221457v -5.06898h 0.221457v 11.4052h
 0.221457v 7.60347h 0.221457v 16.4742h 0.221457v 7.60347h 0.442913v 8.87071h 0.221457v -34.2156h 0.221457v 25.3449h 0.221457v 15.2069h 0.221457v -16.4742h 0.221457v 15.2069h 0.221457v 26.6121h 0.221457v 2.53449h 0.221457v 19.0087h 0.221457v -13.9397h
 0.221457v -10.138h 0.221457v 22.8104h 0.221457v -8.87071h 0.221457v 5.06898h 0.221457v 12.6724h 0.221457v 1.26724h 0.221457v -10.138h 0.221457v 17.7414h 0.221457v -1.26724h 0.221457v 8.87071h 0.221457v 7.60347h 0.221457v 13.9397h 0.221457v -12.6724h
 0.221457v 7.60347h 0.221457v -3.80173h 0.221457v 10.138h 0.221457v -7.60347h 0.221457v 8.87071h 0.221457v -3.80173h 0.221457v 15.2069h 0.221457v -8.87071h 0.221457v 3.80173h 0.221457v 5.06898h 0.66437v 2.53449h 0.221457v 2.53449h 0.221457v -2.53449h
 0.442913v 2.53449h 0.221457v -1.26724h 0.221457v 2.53449h 0.221457v 1.26724h 0.221457v -1.26724h 0.221457v -1.26724h 0.221457v 3.80173h 0.221457v 3.80173h 0.221457v -5.06898h 0.221457v 2.53449h 0.442913v 1.26724h 0.442913v -2.53449h 0.221457v
 3.80173h 0.221457v 1.26724h 0.885827v -1.26724h 0.221457v -1.26724h 0.221457v 2.53449h 0.221457v -1.26724h 0.221457v 1.26724h 0.442913v -2.53449h 0.221457v 1.26724h 0.221457v 1.26724h 0.442913v -1.26724h 0.221457v 1.26724h 0.442913v -1.26724h
 0.221457v -1.26724h 0.221457v 2.53449h 1.32874v -2.53449h 0.221457v 2.53449h 1.77165v -1.26724h 0.442913v 1.26724h 0.442913v -1.26724h 0.442913v 1.26724h 0.442913v -1.26724h 0.221457v 1.26724h 0.221457v -1.26724h 0.221457v 1.26724h 0.221457v
 -1.26724h 0.221457v -2.53449h 0.221457v 2.53449h 0.221457v 1.26724h 0.66437v -1.26724h 0.66437v 1.26724h 1.10728v -2.53449h 0.221457v 2.53449h 0.66437v -1.26724h 0.221457v 1.26724h 0.442913v -1.26724h 0.221457v 1.26724h 0.66437v -1.26724h 0.221457v
 1.26724h 0.66437v -2.53449h 0.221457v 2.53449h 0.221457v -1.26724h 0.221457v 1.26724h 0.442913v -1.26724h 0.221457v 1.26724h 1.10728v -1.26724h 0.221457v 1.26724h 1.10728v -1.26724h 0.221457v 1.26724h 0.442913v -2.53449h 0.221457v 2.53449h 1.5502v
 -1.26724h 0.442913v 1.26724h 0.885827v -1.26724h 0.442913v 1.26724h 1.32874v -1.26724h 0.442913v 1.26724h 0.885827v -1.26724h 0.221457v 1.26724h 1.10728v -1.26724h 0.221457v 1.26724h 1.5502v -1.26724h 0.221457v 1.26724h 0.442913v -1.26724h 0.221457v
 1.26724h 0.221457v -1.26724h 0.442913v 1.26724h 0.66437v -2.53449h 0.221457v 2.53449h 3.76476v -1.26724h 0.221457v 1.26724h 1.32874v -1.26724h 0.442913v 1.26724h 2.21457v -1.26724h 0.221457v 1.26724h 0.442913v -1.26724h 0.221457v 1.26724h 1.77165v
 -1.26724h 0.221457v 1.26724h 0.442913v -1.26724h 0.221457v 1.26724h 0.221457v -1.26724h 0.221457v 1.26724h 1.32874v -1.26724h 0.221457v 1.26724h 0.442913v -1.26724h 0.221457v 1.26724h 0.885827v -1.26724h 0.442913v 1.26724h 0.885827v -1.26724h
 0.221457v 1.26724h 0.885827v -1.26724h 0.221457v 1.26724h 0.221457v -1.26724h 0.221457v 1.26724h 1.10728v -1.26724h 0.442913v 1.26724h 2.43602v -1.26724h 0.221457v 1.26724h 1.10728v -1.26724h 0.221457v 1.26724h 1.99311v -1.26724h 0.221457v 1.26724h
 0.442913v -1.26724h 0.442913v 1.26724h 0.221457v -1.26724h 0.221457v 1.26724h 0.885827v -1.26724h 0.221457v 1.26724h 0.442913v -1.26724h 0.221457v 1.26724h 0.885827v -1.26724h 0.442913v 1.26724h 0.221457v -1.26724h 0.442913v 1.26724h 0.221457v
 -1.26724h 0.442913v 1.26724h 0.885827v -1.26724h 0.221457v 1.26724h 1.77165v -1.26724h 0.221457v 1.26724h 1.10728v -1.26724h 0.221457v 1.26724h 1.32874v -1.26724h 0.442913v 1.26724h 0.221457v -1.26724h 0.442913v 1.26724h 1.32874v -1.26724h 0.221457v
 1.26724h 0.442913v -2.53449h 0.221457v 2.53449h 0.442913v -1.26724h 0.221457v 1.26724h 0.66437v -1.26724h 0.221457v 1.26724h 1.77165v -1.26724h 0.221457v 1.26724h 0.221457v -1.26724h 0.221457v 1.26724h 0.66437v -1.26724h 0.221457v 1.26724h 0.442913v
 -1.26724h 0.221457v 1.26724h 0.442913v -1.26724h 0.221457v 1.26724h 1.10728v -1.26724h 0.221457v 1.26724h 0.66437v -1.26724h 0.442913v 1.26724h 1.32874v -1.26724h 0.221457v 1.26724h 1.5502v -1.26724h 0.221457v 1.26724h 1.10728v -1.26724h 0.221457v
 1.26724h 0.885827v -1.26724h 0.221457v 1.26724h 1.32874v -2.53449h 0.221457v 2.53449h 1.5502v -1.26724h 0.221457v 1.26724h 0.66437v -1.26724h 0.221457v 1.26724h 3.76476v -2.53449h 0.221457v 2.53449h 0.442913v -1.26724h 0.221457v 1.26724h 1.77165v
 -1.26724h 0.221457v 1.26724h 2.21457v -1.26724h 0.221457v 1.26724h 0.221457v -1.26724h 0.442913v 1.26724h 2.87894v -1.26724h 0.221457v 1.26724h 0.442913v -1.26724h 0.221457v 1.26724h 1.5502v -1.26724h 0.221457v 1.26724h 0.221457v -1.26724h 0.221457v
 1.26724h 0.221457v -1.26724h 0.221457v 1.26724h 0.221457v -1.26724h 0.221457v 1.26724h 2.21457v -1.26724h 0.221457v 1.26724h 1.32874v -1.26724h 0.221457v 1.26724h 2.43602v -1.26724h 0.66437v 1.26724h 0.442913v -1.26724h 0.221457v 1.26724h 1.32874v
 -3.80173h 0.221457v 2.53449h 0.221457v 1.26724h 0.442913v -1.26724h 0.221457v 1.26724h 1.32874v -1.26724h 0.221457v 1.26724h 2.65748v -1.26724h 0.442913v 1.26724h 1.32874v -2.53449h 0.221457v 2.53449h 3.10039v -1.26724h 0.221457v 1.26724h 1.10728v
 -1.26724h 0.221457v 1.26724h 0.442913v -1.26724h 0.221457v 1.26724h 0.221457v -1.26724h 0.221457v 1.26724h 2.21457v -1.26724h 0.221457v 1.26724h 0.442913v -1.26724h 0.221457v 1.26724h 2.21457v -1.26724h 0.442913v 1.26724h 1.32874v -1.26724h
 0.221457v 1.26724h 0.66437v -1.26724h 0.221457v 1.26724h 0.885827v -1.26724h 0.221457v 1.26724h 0.442913v -1.26724h 0.221457v 1.26724h 0.885827v -2.53449h 0.221457v 2.53449h 0.885827v -1.26724h 0.221457v 1.26724h 0.885827v -2.53449h 0.221457v
 2.53449h 5.0935v -1.26724h 0.221457v 1.26724h 0.221457v -1.26724h 0.221457v 1.26724h 0.221457v -1.26724h 0.442913v 1.26724h 0.221457v -1.26724h 0.221457v 1.26724h 3.54331v -1.26724h 0.221457v 1.26724h 1.10728v -1.26724h 0.221457v 1.26724h 0.221457v
 -1.26724h 0.221457v 1.26724h 0.221457v -1.26724h 0.221457v 1.26724h 0.221457v -1.26724h 0.442913v 1.26724h 1.32874v -1.26724h 0.221457v 1.26724h 0.442913v -2.53449h 0.221457v 2.53449h 1.77165v -2.53449h 0.221457v 2.53449h 0.66437v -1.26724h
 0.221457v 1.26724h 0.442913v -1.26724h 0.221457v 1.26724h 0.221457v -1.26724h 0.221457v 1.26724h 0.221457v -1.26724h 0.221457v 1.26724h 0.221457v -1.26724h 0.221457v 1.26724h 0.885827v -1.26724h 0.221457v 1.26724h 0.221457v -1.26724h 0.221457v
 1.26724h 0.221457v -1.26724h 0.221457v 1.26724h 0.221457v -1.26724h 0.221457v -1.26724h 0.221457v 2.53449h 0.66437v -1.26724h 0.66437v 1.26724h 0.885827v -1.26724h 0.221457v 1.26724h 0.885827v -2.53449h 0.221457v 1.26724h 0.221457v 1.26724h
 0.442913v -1.26724h 0.221457v 1.26724h 0.442913v -1.26724h 0.221457v 1.26724h 1.32874v -1.26724h 0.221457v 1.26724h 0.442913v -1.26724h 0.221457v 1.26724h 0.442913v -1.26724h 0.221457v 1.26724h 0.221457v -1.26724h 0.221457v 1.26724h 0.442913v
 -1.26724h 0.442913v 1.26724h 2.21457v -1.26724h 0.221457v 1.26724h 2.65748v -1.26724h 0.221457v 1.26724h 1.32874v -1.26724h 0.221457v 1.26724h 0.66437v -1.26724h 0.221457v 1.26724h 0.66437v -1.26724h 0.221457v 1.26724h 0.221457v -2.53449h 0.221457v
 2.53449h 1.32874v -1.26724h 0.221457v 1.26724h 1.5502v -1.26724h 0.221457v 1.26724h 0.221457v -1.26724h 0.221457v 1.26724h 0.221457v -1.26724h 0.221457v -1.26724h 0.221457v 2.53449h 0.221457v -1.26724h 0.221457v 1.26724h 1.10728v -1.26724h 0.221457v
 1.26724h 1.77165v -1.26724h 0.221457v 1.26724h 0.442913v -1.26724h 0.221457v 1.26724h 0.221457v -2.53449h 0.221457v 1.26724h 0.221457v 1.26724h 0.221457v -1.26724h 0.221457v 1.26724h 0.885827v -1.26724h 0.221457v 1.26724h 0.66437v -1.26724h
 0.221457v 1.26724h 1.32874v -1.26724h 0.221457v 1.26724h 0.66437v -1.26724h 0.221457v 1.26724h 1.77165v -1.26724h 0.221457v 1.26724h 0.885827v -1.26724h 0.221457v 1.26724h 1.10728v -1.26724h 0.221457v 1.26724h 1.5502v -1.26724h 0.221457v 1.26724h
 0.66437v -1.26724h 0.221457v 1.26724h 1.77165v -1.26724h 0.221457v 1.26724h 0.885827v -1.26724h 0.221457v 1.26724h 3.32185v -1.26724h 0.221457v 1.26724h 0.442913v -1.26724h 0.66437v 1.26724h 0.221457v -1.26724h 0.221457v 1.26724h 0.885827v -1.26724h
 0.221457v 1.26724h 1.77165v -1.26724h 0.221457v 1.26724h 0.885827v -1.26724h 0.221457v 1.26724h 0.442913v -1.26724h 0.221457v 1.26724h 0.885827v -1.26724h 0.221457v 1.26724h 2.43602v -1.26724h 0.221457v 1.26724h 0.885827v -1.26724h 0.221457v
 1.26724h 1.5502v -1.26724h 0.221457v 1.26724h 0.442913v -2.53449h 0.221457v 2.53449h 1.10728v -2.53449h 0.221457v 2.53449h 1.5502v -3.80173h 0.221457v 2.53449h 0.221457v 1.26724h 1.77165v -1.26724h 0.221457v 1.26724h 0.885827v -1.26724h 0.442913v
 1.26724h 2.21457v -2.53449h 0.221457v 2.53449h 1.10728v -2.53449h 0.221457v 2.53449h 3.10039v -1.26724h 0.442913v 1.26724h 0.221457v -1.26724h 0.66437v 1.26724h 2.87894v -1.26724h 0.221457v 1.26724h 0.66437v -1.26724h 0.221457v 1.26724h 0.66437v
 -1.26724h 0.221457v 1.26724h 4.20768v -1.26724h 0.221457v 1.26724h 2.21457v -1.26724h 0.221457v 1.26724h 0.442913v -1.26724h 0.221457v 1.26724h 0.221457v -1.26724h 0.221457v 1.26724h 1.99311v -1.26724h 0.221457v 1.26724h 1.5502v -1.26724h 0.221457v
 1.26724h 0.221457v -1.26724h 0.442913v 1.26724h 0.221457v -1.26724h 0.442913v 1.26724h 0.442913v -1.26724h 0.221457v 1.26724h 0.221457v -1.26724h 0.221457v 1.26724h 1.10728v -1.26724h 0.221457v 1.26724h 0.66437v -1.26724h 0.442913v 1.26724h 3.32185v
 -1.26724h 0.221457v 1.26724h 1.10728v -1.26724h 0.442913v 1.26724h 0.442913v -1.26724h 0.221457v 1.26724h 1.5502v -2.53449h 0.221457v 2.53449h 0.442913v -1.26724h 0.221457v 1.26724h 0.66437v -1.26724h 0.442913v 1.26724h 1.10728v -1.26724h 0.221457v
 1.26724h 1.10728v -1.26724h 0.221457v 1.26724h 0.66437v -1.26724h 0.442913v 1.26724h 0.221457v -1.26724h 0.221457v 1.26724h 1.32874v -1.26724h 0.221457v 1.26724h 0.442913v -1.26724h 0.221457v -1.26724h 0.221457v 2.53449h 1.77165v -1.26724h 0.221457v
 1.26724h 0.221457v -1.26724h 0.221457v 1.26724h 3.54331v -1.26724h 0.221457v 1.26724h 1.10728v -1.26724h 0.221457v 1.26724h 0.885827v -1.26724h 1.10728v 1.26724h 4.65059v -1.26724h 0.221457v 1.26724h 0.66437v -1.26724h 0.221457v 1.26724h 1.77165v
 -1.26724h 0.221457v 1.26724h 2.43602v -1.26724h 0.221457v 1.26724h 0.442913v -1.26724h 0.221457v 1.26724h 9.74409" fill="none" stroke="#ff0000" stroke-width="2"/>
<path d="M59.4606,278.601l 4.53543, 8.14427e-06l 4.53543, 8.14427e-06l 4.53543, 8.14427e-06l 4.53543, 8.14427e-06l 4.53543, 8.14427e-06l 4.53543, 8.14427e-06l 4.53543, 8.14427e-06l 4.53543, 8.14427e-06l 4.53543, 8.14427e-06l 4.53543, 8.14427e-06l
 4.53543, 8.14427e-06l 4.53543, 8.14427e-06l 4.53543, 8.14427e-06l 4.53543, 8.14427e-06l 4.53543, 8.14427e-06l 4.53543, 8.14427e-06l 4.53543, 8.14427e-06l 4.53543, 8.14427e-06l 4.53543, 8.14373e-06l 4.53543, 7.92513e-06l 4.53543, -3.33911e-05l
 4.53543, -0.00363879l 4.53543, -0.147755l 4.53543, -2.73865l 4.53543, -22.7425l 4.53543, -80.0269l 4.53543, -96.7649l 4.53543, 22.1827l 4.53543, 105.651l 4.53543, 60.2441l 4.53543, 13.0643l 4.53543, 1.22924l 4.53543, 0.0522645l 4.53543, 0.00102785l
 4.53543, 1.73402e-05l 4.53543, 8.18271e-06l 4.53543, 8.14434e-06l 4.53543, 8.14427e-06l 4.53543, 8.14427e-06l 4.53543, 8.14427e-06l 4.53543, 8.14427e-06l 4.53543, 8.14427e-06l 4.53543, 8.14427e-06l 4.53543, 8.14427e-06l 4.53543, 8.14427e-06l
 4.53543, 8.14427e-06l 4.53543, 8.14427e-06l 4.53543, 8.14427e-06l 4.53543, 8.14427e-06" fill="none" stroke="#0000ff" stroke-width="2"/>
<path d="M281.697,278.602l 4.53543, 8.14427e-06l 4.53543, 8.14427e-06l 4.53543, 8.14427e-06l 4.53543, 8.14427e-06l 4.53543, 8.14427e-06l 4.53543, 8.14427e-06l 4.53543, 8.14427e-06l 4.53543, 8.14427e-06l 4.53543, 8.14427e-06l 4.53543, 8.14427e-06l
 4.53543, 8.14427e-06l 4.53543, 8.14427e-06l 4.53543, 8.14427e-06l 4.53543, 8.14427e-06l 4.53543, 8.14427e-06l 4.53543, 8.14427e-06l 4.53543, 8.14427e-06l 4.53543, 8.14427e-06l 4.53543, 8.14427e-06l 4.53543, 8.14427e-06l 4.53543, 8.14427e-06l
 4.53543, 8.14427e-06l 4.53543, 8.14427e-06l 4.53543, 8.14427e-06l 4.53543, 8.14427e-06l 4.53543, 8.14427e-06l 4.53543, 8.14427e-06l 4.53543, 8.14427e-06l 4.53543, 8.14427e-06l 4.53543, 8.14427e-06l 4.53543, 8.14427e-06l 4.53543, 8.14427e-06l
 4.53543, 8.14427e-06l 4.53543, 8.14427e-06l 4.53543, 8.14427e-06l 4.53543, 8.14427e-06l 4.53543, 8.14427e-06l 4.53543, 8.14427e-06l 4.53543, 8.14427e-06l 4.53543, 8.14427e-06l 4.53543, 8.14427e-06l 4.53543, 8.14427e-06l 4.53543, 8.14427e-06l
 4.53543, 8.14427e-06l 4.53543, 8.14427e-06l 4.53543, 8.14427e-06l 4.53543, 8.14427e-06l 4.53543, 8.14427e-06l 4.53543, 8.14427e-06" fill="none" stroke="#0000ff" stroke-width="2"/>
<path d="M503.933,278.602l 4.53543, 8.14427e-06" fill="none" stroke="#0000ff" stroke-width="2"/>
<rect x="351.996" y="20.2169" width="204.094" height="87.0882" fill="white"/>
<path d="M351.996,107.305h 204.094" fill="none" stroke="black" stroke-width="2"/>
<path d="M556.091,107.305v -87.0882" fill="none" stroke="black" stroke-width="2"/>
<path d="M556.091,20.2169h -204.094" fill="none" stroke="black" stroke-width="2"/>
<path d="M351.996,20.2169v 87.0882" fill="none" stroke="black" stroke-width="2"/>
<text x="373.242" y="31.2675" fill="black" font-size="12.566" font-family="Helvetica">
 / ndf 
</text>
<text x="368.305" y="27.1534" fill="black" font-size="8.54403" font-family="Helvetica">
2
</text>
<text x="361.722" y="31.2675" fill="black" font-size="12.566" font-family="Times">
&#0967;
</text>
<text x="481.855" y="32.0903" fill="black" font-size="12.566" font-family="Helvetica">
 186.9 / 538
</text>
<text x="361.722" y="46.9012" fill="black" font-size="12.566" font-family="Helvetica">
Centroid 
</text>
<text x="525.465" y="46.9012" fill="black" font-size="12.566" font-family="Helvetica">
 0.2
</text>
<text x="518.059" y="46.9012" fill="black" font-size="12.566" font-family="Times">
&#0177;
</text>
<text x="481.855" y="46.9012" fill="black" font-size="12.566" font-family="Helvetica">
 570.3 
</text>
<text x="361.722" y="60.8893" fill="black" font-size="12.566" font-family="Helvetica">
FWHM     
</text>
<text x="520.528" y="60.8893" fill="black" font-size="12.566" font-family="Helvetica">
 0.41
</text>
<text x="513.122" y="60.8893" fill="black" font-size="12.566" font-family="Times">
&#0177;
</text>
<text x="476.918" y="60.8893" fill="black" font-size="12.566" font-family="Helvetica">
 54.98 
</text>
<text x="361.722" y="75.7003" fill="black" font-size="12.566" font-family="Helvetica">
Counts   
</text>
<text x="511.477" y="75.7003" fill="black" font-size="12.566" font-family="Helvetica">
 100.5
</text>
<text x="504.071" y="75.7003" fill="black" font-size="12.566" font-family="Times">
&#0177;
</text>
<text x="467.867" y="75.7003" fill="black" font-size="12.566" font-family="Helvetica">
  9814 
</text>
<text x="361.722" y="88.0427" fill="black" font-size="12.566" font-family="Helvetica">
Intercept 
</text>
<text x="511.477" y="89.6884" fill="black" font-size="12.566" font-family="Helvetica">
 0.110
</text>
<text x="504.071" y="89.6884" fill="black" font-size="12.566" font-family="Times">
&#0177;
</text>
<text x="467.867" y="89.6884" fill="black" font-size="12.566" font-family="Helvetica">
 1.046 
</text>
<text x="361.722" y="103.676" fill="black" font-size="12.566" font-family="Helvetica">
Slope    
</text>
<text x="531.225" y="104.499" fill="black" font-size="12.566" font-family="Helvetica">
05
</text>
<text x="524.642" y="104.499" fill="black" font-size="12.566" font-family="Times">
&#8722;
</text>
<text x="484.323" y="104.499" fill="black" font-size="12.566" font-family="Helvetica">
 9.420e
</text>
<text x="476.918" y="104.499" fill="black" font-size="12.566" font-family="Times">
&#0177;
</text>
<text x="460.461" y="104.499" fill="black" font-size="12.566" font-family="Helvetica">
07 
</text>
<text x="453.879" y="104.499" fill="black" font-size="12.566" font-family="Times">
&#8722;
</text>
<text x="416.851" y="104.499" fill="black" font-size="12.566" font-family="Helvetica">
3.138e
</text>
<text x="410.269" y="104.499" fill="black" font-size="12.566" font-family="Times">
&#8722;
</text>
<text x="407.8" y="104.499" fill="black" font-size="12.566" font-family="Helvetica">
 
</text>
<path d="M57.1929,279.926h 453.543" fill="none" stroke="black" stroke-width="2"/>
<text x="470.335" y="301.155" fill="black" font-size="10.4872" font-family="Helvetica">
Channels
</text>
<path d="M57.1929,272.462v 7.4647" fill="none" stroke="black" stroke-width="2"/>
<path d="M79.3386,276.194v 3.73235" fill="none" stroke="black" stroke-width="2"/>
<path d="M101.484,276.194v 3.73235" fill="none" stroke="black" stroke-width="2"/>
<path d="M123.63,276.194v 3.73235" fill="none" stroke="black" stroke-width="2"/>
<path d="M145.776,276.194v 3.73235" fill="none" stroke="black" stroke-width="2"/>
<path d="M167.921,272.462v 7.4647" fill="none" stroke="black" stroke-width="2"/>
<path d="M190.067,276.194v 3.73235" fill="none" stroke="black" stroke-width="2"/>
<path d="M212.213,276.194v 3.73235" fill="none" stroke="black" stroke-width="2"/>
<path d="M234.358,276.194v 3.73235" fill="none" stroke="black" stroke-width="2"/>
<path d="M256.504,276.194v 3.73235" fill="none" stroke="black" stroke-width="2"/>
<path d="M278.65,272.462v 7.4647" fill="none" stroke="black" stroke-width="2"/>
<path d="M300.795,276.194v 3.73235" fill="none" stroke="black" stroke-width="2"/>
<path d="M322.941,276.194v 3.73235" fill="none" stroke="black" stroke-width="2"/>
<path d="M345.087,276.194v 3.73235" fill="none" stroke="black" stroke-width="2"/>
<path d="M367.232,276.194v 3.73235" fill="none" stroke="black" stroke-width="2"/>
<path d="M389.378,272.462v 7.4647" fill="none" stroke="black" stroke-width="2"/>
<path d="M411.524,276.194v 3.73235" fill="none" stroke="black" stroke-width="2"/>
<path d="M433.669,276.194v 3.73235" fill="none" stroke="black" stroke-width="2"/>
<path d="M455.815,276.194v 3.73235" fill="none" stroke="black" stroke-width="2"/>
<path d="M477.961,276.194v 3.73235" fill="none" stroke="black" stroke-width="2"/>
<path d="M500.106,272.462v 7.4647" fill="none" stroke="black" stroke-width="2"/>
<path d="M500.106,272.462v 7.4647" fill="none" stroke="black" stroke-width="2"/>
<text x="53.1611" y="289.636" fill="black" font-size="10.4872" font-family="Helvetica">
0
</text>
<text x="159.306" y="289.636" fill="black" font-size="10.4872" font-family="Helvetica">
500
</text>
<text x="267.097" y="289.636" fill="black" font-size="10.4872" font-family="Helvetica">
1000
</text>
<text x="377.356" y="289.636" fill="black" font-size="10.4872" font-family="Helvetica">
1500
</text>
<text x="488.438" y="289.636" fill="black" font-size="10.4872" font-family="Helvetica">
2000
</text>
<path d="M57.1929,279.926v -248.823" fill="none" stroke="black" stroke-width="2"/>
<path d="M70.7992,279.926h -13.6063" fill="none" stroke="black" stroke-width="2"/>
<path d="M63.9961,273.59h -6.80315" fill="none" stroke="black" stroke-width="2"/>
<path d="M63.9961,267.254h -6.80315" fill="none" stroke="black" stroke-width="2"/>
<path d="M63.9961,260.918h -6.80315" fill="none" stroke="black" stroke-width="2"/>
<path d="M70.7992,254.581h -13.6063" fill="none" stroke="black" stroke-width="2"/>
<path d="M63.9961,248.245h -6.80315" fill="none" stroke="black" stroke-width="2"/>
<path d="M63.9961,241.909h -6.80315" fill="none" stroke="black" stroke-width="2"/>
<path d="M63.9961,235.573h -6.80315" fill="none" stroke="black" stroke-width="2"/>
<path d="M70.7992,229.237h -13.6063" fill="none" stroke="black" stroke-width="2"/>
<path d="M63.9961,222.9h -6.80315" fill="none" stroke="black" stroke-width="2"/>
<path d="M63.9961,216.564h -6.80315" fill="none" stroke="black" stroke-width="2"/>
<path d="M63.9961,210.228h -6.80315" fill="none" stroke="black" stroke-width="2"/>
<path d="M70.7992,203.892h -13.6063" fill="none" stroke="black" stroke-width="2"/>
<path d="M63.9961,197.555h -6.80315" fill="none" stroke="black" stroke-width="2"/>
<path d="M63.9961,191.219h -6.80315" fill="none" stroke="black" stroke-width="2"/>
<path d="M63.9961,184.883h -6.80315" fill="none" stroke="black" stroke-width="2"/>
<path d="M70.7992,178.547h -13.6063" fill="none" stroke="black" stroke-width="2"/>
<path d="M63.9961,172.211h -6.80315" fill="none" stroke="black" stroke-width="2"/>
<path d="M63.9961,165.874h -6.80315" fill="none" stroke="black" stroke-width="2"/>
<path d="M63.9961,159.538h -6.80315" fill="none" stroke="black" stroke-width="2"/>
<path d="M70.7992,153.202h -13.6063" fill="none" stroke="black" stroke-width="2"/>
<path d="M63.9961,146.866h -6.80315" fill="none" stroke="black" stroke-width="2"/>
<path d="M63.9961,140.529h -6.80315" fill="none" stroke="black" stroke-width="2"/>
<path d="M63.9961,134.193h -6.80315" fill="none" stroke="black" stroke-width="2"/>
<path d="M70.7992,127.857h -13.6063" fill="none" stroke="black" stroke-width="2"/>
<path d="M63.9961,121.521h -6.80315" fill="none" stroke="black" stroke-width="2"/>
<path d="M63.9961,115.185h -6.80315" fill="none" stroke="black" stroke-width="2"/>
<path d="M63.9961,108.848h -6.80315" fill="none" stroke="black" stroke-width="2"/>
<path d="M70.7992,102.512h -13.6063" fill="none" stroke="black" stroke-width="2"/>
<path d="M63.9961,96.1759h -6.80315" fill="none" stroke="black" stroke-width="2"/>
<path d="M63.9961,89.8397h -6.80315" fill="none" stroke="black" stroke-width="2"/>
<path d="M63.9961,83.5035h -6.80315" fill="none" stroke="black" stroke-width="2"/>
<path d="M70.7992,77.1673h -13.6063" fill="none" stroke="black" stroke-width="2"/>
<path d="M63.9961,70.831h -6.80315" fill="none" stroke="black" stroke-width="2"/>
<path d="M63.9961,64.4948h -6.80315" fill="none" stroke="black" stroke-width="2"/>
<path d="M63.9961,58.1586h -6.80315" fill="none" stroke="black" stroke-width="2"/>
<path d="M70.7992,51.8224h -13.6063" fill="none" stroke="black" stroke-width="2"/>
<path d="M70.7992,51.8224h -13.6063" fill="none" stroke="black" stroke-width="2"/>
<path d="M63.9961,45.4862h -6.80315" fill="none" stroke="black" stroke-width="2"/>
<path d="M63.9961,39.1499h -6.80315" fill="none" stroke="black" stroke-width="2"/>
<path d="M63.9961,32.8137h -6.80315" fill="none" stroke="black" stroke-width="2"/>
<text x="48.2241" y="283.876" fill="black" font-size="10.4872" font-family="Helvetica">
0
</text>
<text x="43.2871" y="258.368" fill="black" font-size="10.4872" font-family="Helvetica">
20
</text>
<text x="43.2871" y="232.861" fill="black" font-size="10.4872" font-family="Helvetica">
40
</text>
<text x="43.2871" y="207.353" fill="black" font-size="10.4872" font-family="Helvetica">
60
</text>
<text x="43.2871" y="181.845" fill="black" font-size="10.4872" font-family="Helvetica">
80
</text>
<text x="37.5273" y="157.16" fill="black" font-size="10.4872" font-family="Helvetica">
100
</text>
<text x="37.5273" y="131.653" fill="black" font-size="10.4872" font-family="Helvetica">
120
</text>
<text x="37.5273" y="106.145" fill="black" font-size="10.4872" font-family="Helvetica">
140
</text>
<text x="37.5273" y="80.6372" fill="black" font-size="10.4872" font-family="Helvetica">
160
</text>
<text x="37.5273" y="55.1295" fill="black" font-size="10.4872" font-family="Helvetica">
180
</text>
<rect x="351.996" y="20.2169" width="204.094" height="87.0882" fill="white"/>
<path d="M351.996,107.305h 204.094" fill="none" stroke="black" stroke-width="2"/>
<path d="M556.091,107.305v -87.0882" fill="none" stroke="black" stroke-width="2"/>
<path d="M556.091,20.2169h -204.094" fill="none" stroke="black" stroke-width="2"/>
<path d="M351.996,20.2169v 87.0882" fill="none" stroke="black" stroke-width="2"/>
<text x="373.242" y="31.2675" fill="black" font-size="12.566" font-family="Helvetica">
 / ndf 
</text>
<text x="368.305" y="27.1534" fill="black" font-size="8.54403" font-family="Helvetica">
2
</text>
<text x="361.722" y="31.2675" fill="black" font-size="12.566" font-family="Times">
&#0967;
</text>
<text x="481.855" y="32.0903" fill="black" font-size="12.566" font-family="Helvetica">
 186.9 / 538
</text>
<text x="361.722" y="46.9012" fill="black" font-size="12.566" font-family="Helvetica">
Centroid 
</text>
<text x="525.465" y="46.9012" fill="black" font-size="12.566" font-family="Helvetica">
 0.2
</text>
<text x="518.059" y="46.9012" fill="black" font-size="12.566" font-family="Times">
&#0177;
</text>
<text x="481.855" y="46.9012" fill="black" font-size="12.566" font-family="Helvetica">
 570.3 
</text>
<text x="361.722" y="60.8893" fill="black" font-size="12.566" font-family="Helvetica">
FWHM     
</text>
<text x="520.528" y="60.8893" fill="black" font-size="12.566" font-family="Helvetica">
 0.41
</text>
<text x="513.122" y="60.8893" fill="black" font-size="12.566" font-family="Times">
&#0177;
</text>
<text x="476.918" y="60.8893" fill="black" font-size="12.566" font-family="Helvetica">
 54.98 
</text>
<text x="361.722" y="75.7003" fill="black" font-size="12.566" font-family="Helvetica">
Counts   
</text>
<text x="511.477" y="75.7003" fill="black" font-size="12.566" font-family="Helvetica">
 100.5
</text>
<text x="504.071" y="75.7003" fill="black" font-size="12.566" font-family="Times">
&#0177;
</text>
<text x="467.867" y="75.7003" fill="black" font-size="12.566" font-family="Helvetica">
  9814 
</text>
<text x="361.722" y="88.0427" fill="black" font-size="12.566" font-family="Helvetica">
Intercept 
</text>
<text x="511.477" y="89.6884" fill="black" font-size="12.566" font-family="Helvetica">
 0.110
</text>
<text x="504.071" y="89.6884" fill="black" font-size="12.566" font-family="Times">
&#0177;
</text>
<text x="467.867" y="89.6884" fill="black" font-size="12.566" font-family="Helvetica">
 1.046 
</text>
<text x="361.722" y="103.676" fill="black" font-size="12.566" font-family="Helvetica">
Slope    
</text>
<text x="531.225" y="104.499" fill="black" font-size="12.566" font-family="Helvetica">
05
</text>
<text x="524.642" y="104.499" fill="black" font-size="12.566" font-family="Times">
&#8722;
</text>
<text x="484.323" y="104.499" fill="black" font-size="12.566" font-family="Helvetica">
 9.420e
</text>
<text x="476.918" y="104.499" fill="black" font-size="12.566" font-family="Times">
&#0177;
</text>
<text x="460.461" y="104.499" fill="black" font-size="12.566" font-family="Helvetica">
07 
</text>
<text x="453.879" y="104.499" fill="black" font-size="12.566" font-family="Times">
&#8722;
</text>
<text x="416.851" y="104.499" fill="black" font-size="12.566" font-family="Helvetica">
3.138e
</text>
<text x="410.269" y="104.499" fill="black" font-size="12.566" font-family="Times">
&#8722;
</text>
<text x="407.8" y="104.499" fill="black" font-size="12.566" font-family="Helvetica">
 
</text>
<path d="M59.4606,279.926h 99.7795l 4.53543, -0.151452l 4.53543, -2.73866l 4.53543, -22.7425l 4.53543, -80.0269l 4.53543, -96.7649l 4.53543, 22.1826l 4.53543, 105.651l 4.53543, 60.2441l 4.53543, 13.0643l 4.53543, 1.22923l 4.53543, 0.0532852h 72.5669"
 fill="none" stroke="#00ff00" stroke-width="2"/>
<path d="M281.697,279.926h 222.236" fill="none" stroke="#00ff00" stroke-width="2"/>
<path d="M503.933,279.926h 4.53543" fill="none" stroke="#00ff00" stroke-width="2"/>
<text x="97.5938" y="14.8109" fill="black" font-size="13.3188" font-family="Helvetica">
Wk3/22Na-Coin-511Window-fullrange0_5us10V_80degrees.Spe
</text></svg>
