<?xml version="1.0" standalone="no"?>
<svg width="567.429" height="361.87" viewBox="0 0 567.429 361.87" xmlns="http://www.w3.org/2000/svg">
<title>
/home/ADF/hyw543/Coincidence/c1.svg
</title>
<desc>
Creator: ROOT Version 6.06/08
CreationDate: Mon Jan  7 21:06:41 2019</desc>
<defs>
</defs>
<rect x="0.5" y="0" width="566.929" height="361.37" fill="white"/>
<rect x="57.1929" y="36.137" width="453.543" height="289.096" fill="white"/>
<rect x="57.1929" y="36.137" width="453.543" height="289.096" fill="none" stroke="black"/>
<rect x="57.1929" y="36.137" width="453.543" height="289.096" fill="white"/>
<rect x="57.1929" y="36.137" width="453.543" height="289.096" fill="none" stroke="black"/>
<path d="M57.1929,325.233h 32.9185v -1.58236h 0.731521v 1.58236h 19.7511v -1.58236h 0.731521v 1.58236h 16.825v -1.58236h 0.731521v 1.58236h 16.0935v -1.58236h 0.731521v 1.58236h 5.12065v -1.58236h 0.731521v 1.58236h 8.04674v -1.58236h 0.731521v
 1.58236h 13.8989v -1.58236h 0.731521v 1.58236h 10.9728v -1.58236h 0.731521v 1.58236h 25.6033v -1.58236h 0.731521v 1.58236h 8.77826v -1.58236h 0.731521v 1.58236h 10.2413v -1.58236h 0.731521v 1.58236h 8.77826v -1.58236h 0.731521v 1.58236h 0.731521v
 -1.58236h 0.731521v 1.58236h 1.46304v -1.58236h 0.731521v 1.58236h 2.92609v -1.58236h 0.731521v 1.58236h 2.19456v -1.58236h 0.731521v -1.58236h 0.731521v 3.16471h 0.731521v -1.58236h 0.731521v -1.58236h 0.731521v -1.58236h 0.731521v 4.74707h
 0.731521v -1.58236h 1.46304v 1.58236h 2.19456v -1.58236h 0.731521v 1.58236h 0.731521v -1.58236h 0.731521v -4.74707h 0.731521v 3.16471h 0.731521v -3.16471h 0.731521v 1.58236h 0.731521v -1.58236h 0.731521v 6.32942h 0.731521v -11.0765h 0.731521v
 1.58236h 0.731521v -1.58236h 0.731521v 4.74707h 0.731521v -1.58236h 0.731521v 1.58236h 1.46304v -6.32942h 0.731521v -1.58236h 0.731521v -3.16471h 0.731521v -3.16471h 0.731521v 7.91178h 0.731521v 1.58236h 0.731521v -15.8236h 0.731521v 4.74707h
 0.731521v -15.8236h 0.731521v 11.0765h 0.731521v -4.74707h 0.731521v -3.16471h 0.731521v -9.49413h 0.731521v 1.58236h 0.731521v -18.9883h 0.731521v 26.9h 0.731521v -17.4059h 0.731521v -1.58236h 0.731521v -1.58236h 0.731521v -3.16471h 0.731521v
 -17.4059h 0.731521v -12.6588h 0.731521v 15.8236h 0.731521v -6.32942h 0.731521v 15.8236h 0.731521v -26.9h 0.731521v 6.32942h 0.731521v -11.0765h 0.731521v -4.74707h 0.731521v -3.16471h 0.731521v -28.4824h 0.731521v -3.16471h 0.731521v 3.16471h
 0.731521v -1.58236h 0.731521v -4.74707h 0.731521v -18.9883h 0.731521v -9.49413h 0.731521v 26.9h 0.731521v -22.153h 0.731521v -31.6471h 0.731521v 23.7353h 0.731521v -20.5706h 0.731521v -31.6471h 0.731521v 20.5706h 0.731521v -22.153h 0.731521v
 -30.0648h 0.731521v 23.7353h 0.731521v 41.1412h 0.731521v -72.7883h 0.731521v 7.91178h 0.731521v 41.1412h 1.46304v -25.3177h 0.731521v 6.32942h 1.46304v -17.4059h 0.731521v -15.8236h 0.731521v 44.3059h 0.731521v -41.1412h 0.731521v 33.2295h
 0.731521v -12.6588h 0.731521v -3.16471h 0.731521v 9.49413h 0.731521v -17.4059h 0.731521v 26.9h 0.731521v -4.74707h 0.731521v -39.5589h 0.731521v -6.32942h 0.731521v 6.32942h 0.731521v 58.5471h 0.731521v 15.8236h 0.731521v -22.153h 0.731521v 39.5589h
 0.731521v -25.3177h 0.731521v 11.0765h 0.731521v -36.3942h 0.731521v 3.16471h 0.731521v 41.1412h 0.731521v 20.5706h 0.731521v 4.74707h 1.46304v -4.74707h 0.731521v 7.91178h 0.731521v 15.8236h 0.731521v 15.8236h 0.731521v 6.32942h 0.731521v 1.58236h
 0.731521v 3.16471h 0.731521v 4.74707h 0.731521v 9.49413h 1.46304v 23.7353h 0.731521v -7.91178h 0.731521v 17.4059h 0.731521v -17.4059h 0.731521v -7.91178h 0.731521v 34.8118h 0.731521v 6.32942h 0.731521v -1.58236h 0.731521v 7.91178h 0.731521v
 -4.74707h 1.46304v -4.74707h 0.731521v 22.153h 0.731521v 1.58236h 0.731521v -11.0765h 0.731521v 22.153h 0.731521v -7.91178h 2.19456v 7.91178h 0.731521v -7.91178h 0.731521v 6.32942h 0.731521v 3.16471h 0.731521v -4.74707h 0.731521v 3.16471h 0.731521v
 12.6588h 0.731521v -3.16471h 0.731521v 1.58236h 0.731521v 1.58236h 1.46304v -14.2412h 0.731521v 15.8236h 0.731521v 1.58236h 0.731521v -4.74707h 0.731521v 3.16471h 0.731521v -3.16471h 0.731521v 3.16471h 0.731521v 3.16471h 0.731521v -3.16471h
 0.731521v 3.16471h 1.46304v -3.16471h 0.731521v 1.58236h 0.731521v 1.58236h 0.731521v -1.58236h 0.731521v 1.58236h 0.731521v -1.58236h 2.19456v 1.58236h 5.12065v -1.58236h 0.731521v 1.58236h 2.92609v -1.58236h 0.731521v 1.58236h 5.12065v -1.58236h
 0.731521v 1.58236h 3.65761v -1.58236h 0.731521v 1.58236h 30.7239v -1.58236h 0.731521v 1.58236h 2.19456v -1.58236h 0.731521v 1.58236h 19.0196v -1.58236h 0.731521v 1.58236h 51.2065v -1.58236h 0.731521v 1.58236h 4.38913v -1.58236h 0.731521v 1.58236h
 4.38913" fill="none" stroke="#ff0000" stroke-width="2"/>
<path d="M59.4606,323.511l 4.53543, 0.00727414l 4.53543, 0.00727414l 4.53543, 0.00727414l 4.53543, 0.00727414l 4.53543, 0.00727414l 4.53543, 0.00727414l 4.53543, 0.00727414l 4.53543, 0.00727414l 4.53543, 0.00727414l 4.53543, 0.00727414l 4.53543,
 0.00727414l 4.53543, 0.00727414l 4.53543, 0.00727414l 4.53543, 0.00727414l 4.53543, 0.00727414l 4.53543, 0.00727414l 4.53543, 0.00727414l 4.53543, 0.00727414l 4.53543, 0.00727414l 4.53543, 0.00727414l 4.53543, 0.00727414l 4.53543, 0.00727414l
 4.53543, 0.00727414l 4.53543, 0.00727414l 4.53543, 0.00727414l 4.53543, 0.00727414l 4.53543, 0.00727414l 4.53543, 0.00727414l 4.53543, 0.00727414l 4.53543, 0.00727414l 4.53543, 0.00727414l 4.53543, 0.0072741l 4.53543, 0.0072739l 4.53543, 0.00727283l
 4.53543, 0.0072675l 4.53543, 0.00724292l 4.53543, 0.00713816l 4.53543, 0.00672565l 4.53543, 0.00522587l 4.53543, 0.000194698l 4.53543, -0.0153641l 4.53543, -0.0596721l 4.53543, -0.17571l 4.53543, -0.454699l 4.53543, -1.06914l 4.53543, -2.30508l
 4.53543, -4.56632l 4.53543, -8.30701l 4.53543, -13.8513" fill="none" stroke="#0000ff" stroke-width="2"/>
<path d="M281.697,292.988l 4.53543, -21.1022l 4.53543, -29.2322l 4.53543, -36.5413l 4.53543, -40.6935l 4.53543, -39.4086l 4.53543, -31.4238l 4.53543, -17.2865l 4.53543, 0.500597l 4.53543, 18.1811l 4.53543, 32.0363l 4.53543, 39.6576l 4.53543, 40.6057l
 4.53543, 36.2219l 4.53543, 28.813l 4.53543, 20.6946l 4.53543, 13.5218l 4.53543, 8.07693l 4.53543, 4.42604l 4.53543, 2.23139l 4.53543, 1.03808l 4.53543, 0.447764l 4.53543, 0.181004l 4.53543, 0.0705661l 4.53543, 0.0285869l 4.53543, 0.0139113l 4.53543,
 0.00918648l 4.53543, 0.00778412l 4.53543, 0.00740006l 4.53543, 0.00730293l 4.53543, 0.00728024l 4.53543, 0.00727534l 4.53543, 0.00727436l 4.53543, 0.00727418l 4.53543, 0.00727415l 4.53543, 0.00727414l 4.53543, 0.00727414l 4.53543, 0.00727414l
 4.53543, 0.00727414l 4.53543, 0.00727414l 4.53543, 0.00727414l 4.53543, 0.00727414l 4.53543, 0.00727414l 4.53543, 0.00727414l 4.53543, 0.00727414l 4.53543, 0.00727414l 4.53543, 0.00727414l 4.53543, 0.00727414l 4.53543, 0.00727414l 4.53543,
 0.00727414" fill="none" stroke="#0000ff" stroke-width="2"/>
<path d="M503.933,324.224l 4.53543, 0.00727414" fill="none" stroke="#0000ff" stroke-width="2"/>
<rect x="351.996" y="23.4891" width="204.094" height="101.184" fill="white"/>
<path d="M351.996,124.673h 204.094" fill="none" stroke="black" stroke-width="2"/>
<path d="M556.091,124.673v -101.184" fill="none" stroke="black" stroke-width="2"/>
<path d="M556.091,23.4891h -204.094" fill="none" stroke="black" stroke-width="2"/>
<path d="M351.996,23.4891v 101.184" fill="none" stroke="black" stroke-width="2"/>
<text x="373.134" y="36.6063" fill="black" font-size="12.6936" font-family="Helvetica">
 / ndf 
</text>
<text x="368.441" y="31.9132" fill="black" font-size="8.6291" font-family="Helvetica">
2
</text>
<text x="361.87" y="36.6063" fill="black" font-size="12.6936" font-family="Times">
&#0967;
</text>
<text x="482.953" y="36.6063" fill="black" font-size="12.6936" font-family="Helvetica">
 147.9 / 175
</text>
<text x="361.87" y="52.563" fill="black" font-size="12.6936" font-family="Helvetica">
Centroid 
</text>
<text x="526.13" y="52.563" fill="black" font-size="12.6936" font-family="Helvetica">
 0.2
</text>
<text x="519.559" y="52.563" fill="black" font-size="12.6936" font-family="Times">
&#0177;
</text>
<text x="483.892" y="52.563" fill="black" font-size="12.6936" font-family="Helvetica">
 575.2 
</text>
<text x="361.87" y="70.3968" fill="black" font-size="12.6936" font-family="Helvetica">
FWHM     
</text>
<text x="519.559" y="69.4582" fill="black" font-size="12.6936" font-family="Helvetica">
 0.47
</text>
<text x="512.989" y="69.4582" fill="black" font-size="12.6936" font-family="Times">
&#0177;
</text>
<text x="479.198" y="69.4582" fill="black" font-size="12.6936" font-family="Helvetica">
 53.31 
</text>
<text x="361.87" y="86.3534" fill="black" font-size="12.6936" font-family="Helvetica">
Counts   
</text>
<text x="519.559" y="86.3534" fill="black" font-size="12.6936" font-family="Helvetica">
 98.4
</text>
<text x="512.989" y="86.3534" fill="black" font-size="12.6936" font-family="Times">
&#0177;
</text>
<text x="477.321" y="86.3534" fill="black" font-size="12.6936" font-family="Helvetica">
  8936 
</text>
<text x="361.87" y="102.31" fill="black" font-size="12.6936" font-family="Helvetica">
Intercept 
</text>
<text x="512.989" y="103.249" fill="black" font-size="12.6936" font-family="Helvetica">
 0.607
</text>
<text x="506.419" y="103.249" fill="black" font-size="12.6936" font-family="Times">
&#0177;
</text>
<text x="470.751" y="103.249" fill="black" font-size="12.6936" font-family="Helvetica">
 1.255 
</text>
<text x="361.87" y="119.205" fill="black" font-size="12.6936" font-family="Helvetica">
Slope    
</text>
<text x="487.646" y="120.144" fill="black" font-size="12.6936" font-family="Helvetica">
 0.0010811
</text>
<text x="481.076" y="120.144" fill="black" font-size="12.6936" font-family="Times">
&#0177;
</text>
<text x="421.004" y="120.144" fill="black" font-size="12.6936" font-family="Helvetica">
0.0007415 
</text>
<text x="413.495" y="120.144" fill="black" font-size="12.6936" font-family="Times">
&#8722;
</text>
<text x="410.679" y="120.144" fill="black" font-size="12.6936" font-family="Helvetica">
 
</text>
<path d="M57.1929,325.233h 453.543" fill="none" stroke="black" stroke-width="2"/>
<text x="460.426" y="350.107" fill="black" font-size="12.1036" font-family="Helvetica">
Channels
</text>
<path d="M187.404,316.56v 8.67289" fill="none" stroke="black" stroke-width="2"/>
<path d="M223.98,320.897v 4.33644" fill="none" stroke="black" stroke-width="2"/>
<path d="M260.556,320.897v 4.33644" fill="none" stroke="black" stroke-width="2"/>
<path d="M297.132,320.897v 4.33644" fill="none" stroke="black" stroke-width="2"/>
<path d="M333.708,316.56v 8.67289" fill="none" stroke="black" stroke-width="2"/>
<path d="M370.284,320.897v 4.33644" fill="none" stroke="black" stroke-width="2"/>
<path d="M406.86,320.897v 4.33644" fill="none" stroke="black" stroke-width="2"/>
<path d="M443.436,320.897v 4.33644" fill="none" stroke="black" stroke-width="2"/>
<path d="M480.012,316.56v 8.67289" fill="none" stroke="black" stroke-width="2"/>
<path d="M187.404,316.56v 8.67289" fill="none" stroke="black" stroke-width="2"/>
<path d="M150.828,320.897v 4.33644" fill="none" stroke="black" stroke-width="2"/>
<path d="M114.252,320.897v 4.33644" fill="none" stroke="black" stroke-width="2"/>
<path d="M77.6755,320.897v 4.33644" fill="none" stroke="black" stroke-width="2"/>
<path d="M480.012,316.56v 8.67289" fill="none" stroke="black" stroke-width="2"/>
<text x="176.961" y="336.966" fill="black" font-size="12.1036" font-family="Helvetica">
400
</text>
<text x="322.448" y="336.966" fill="black" font-size="12.1036" font-family="Helvetica">
600
</text>
<text x="468.874" y="336.966" fill="black" font-size="12.1036" font-family="Helvetica">
800
</text>
<path d="M57.1929,325.233v -289.096" fill="none" stroke="black" stroke-width="2"/>
<path d="M70.7992,325.233h -13.6063" fill="none" stroke="black" stroke-width="2"/>
<path d="M63.9961,317.322h -6.80315" fill="none" stroke="black" stroke-width="2"/>
<path d="M63.9961,309.41h -6.80315" fill="none" stroke="black" stroke-width="2"/>
<path d="M63.9961,301.498h -6.80315" fill="none" stroke="black" stroke-width="2"/>
<path d="M70.7992,293.586h -13.6063" fill="none" stroke="black" stroke-width="2"/>
<path d="M63.9961,285.674h -6.80315" fill="none" stroke="black" stroke-width="2"/>
<path d="M63.9961,277.763h -6.80315" fill="none" stroke="black" stroke-width="2"/>
<path d="M63.9961,269.851h -6.80315" fill="none" stroke="black" stroke-width="2"/>
<path d="M70.7992,261.939h -13.6063" fill="none" stroke="black" stroke-width="2"/>
<path d="M63.9961,254.027h -6.80315" fill="none" stroke="black" stroke-width="2"/>
<path d="M63.9961,246.116h -6.80315" fill="none" stroke="black" stroke-width="2"/>
<path d="M63.9961,238.204h -6.80315" fill="none" stroke="black" stroke-width="2"/>
<path d="M70.7992,230.292h -13.6063" fill="none" stroke="black" stroke-width="2"/>
<path d="M63.9961,222.38h -6.80315" fill="none" stroke="black" stroke-width="2"/>
<path d="M63.9961,214.468h -6.80315" fill="none" stroke="black" stroke-width="2"/>
<path d="M63.9961,206.557h -6.80315" fill="none" stroke="black" stroke-width="2"/>
<path d="M70.7992,198.645h -13.6063" fill="none" stroke="black" stroke-width="2"/>
<path d="M63.9961,190.733h -6.80315" fill="none" stroke="black" stroke-width="2"/>
<path d="M63.9961,182.821h -6.80315" fill="none" stroke="black" stroke-width="2"/>
<path d="M63.9961,174.91h -6.80315" fill="none" stroke="black" stroke-width="2"/>
<path d="M70.7992,166.998h -13.6063" fill="none" stroke="black" stroke-width="2"/>
<path d="M63.9961,159.086h -6.80315" fill="none" stroke="black" stroke-width="2"/>
<path d="M63.9961,151.174h -6.80315" fill="none" stroke="black" stroke-width="2"/>
<path d="M63.9961,143.262h -6.80315" fill="none" stroke="black" stroke-width="2"/>
<path d="M70.7992,135.351h -13.6063" fill="none" stroke="black" stroke-width="2"/>
<path d="M63.9961,127.439h -6.80315" fill="none" stroke="black" stroke-width="2"/>
<path d="M63.9961,119.527h -6.80315" fill="none" stroke="black" stroke-width="2"/>
<path d="M63.9961,111.615h -6.80315" fill="none" stroke="black" stroke-width="2"/>
<path d="M70.7992,103.704h -13.6063" fill="none" stroke="black" stroke-width="2"/>
<path d="M63.9961,95.7918h -6.80315" fill="none" stroke="black" stroke-width="2"/>
<path d="M63.9961,87.8801h -6.80315" fill="none" stroke="black" stroke-width="2"/>
<path d="M63.9961,79.9683h -6.80315" fill="none" stroke="black" stroke-width="2"/>
<path d="M70.7992,72.0565h -13.6063" fill="none" stroke="black" stroke-width="2"/>
<path d="M63.9961,64.1447h -6.80315" fill="none" stroke="black" stroke-width="2"/>
<path d="M63.9961,56.233h -6.80315" fill="none" stroke="black" stroke-width="2"/>
<path d="M63.9961,48.3212h -6.80315" fill="none" stroke="black" stroke-width="2"/>
<path d="M70.7992,40.4094h -13.6063" fill="none" stroke="black" stroke-width="2"/>
<path d="M70.7992,40.4094h -13.6063" fill="none" stroke="black" stroke-width="2"/>
<text x="47.4312" y="329.457" fill="black" font-size="12.1036" font-family="Helvetica">
0
</text>
<text x="40.8608" y="297.544" fill="black" font-size="12.1036" font-family="Helvetica">
20
</text>
<text x="40.8608" y="266.569" fill="black" font-size="12.1036" font-family="Helvetica">
40
</text>
<text x="40.8608" y="234.656" fill="black" font-size="12.1036" font-family="Helvetica">
60
</text>
<text x="40.8608" y="202.743" fill="black" font-size="12.1036" font-family="Helvetica">
80
</text>
<text x="33.3519" y="170.83" fill="black" font-size="12.1036" font-family="Helvetica">
100
</text>
<text x="33.3519" y="139.855" fill="black" font-size="12.1036" font-family="Helvetica">
120
</text>
<text x="33.3519" y="107.942" fill="black" font-size="12.1036" font-family="Helvetica">
140
</text>
<text x="33.3519" y="76.0286" fill="black" font-size="12.1036" font-family="Helvetica">
160
</text>
<text x="33.3519" y="45.054" fill="black" font-size="12.1036" font-family="Helvetica">
180
</text>
<rect x="351.996" y="23.4891" width="204.094" height="101.184" fill="white"/>
<path d="M351.996,124.673h 204.094" fill="none" stroke="black" stroke-width="2"/>
<path d="M556.091,124.673v -101.184" fill="none" stroke="black" stroke-width="2"/>
<path d="M556.091,23.4891h -204.094" fill="none" stroke="black" stroke-width="2"/>
<path d="M351.996,23.4891v 101.184" fill="none" stroke="black" stroke-width="2"/>
<text x="373.134" y="36.6063" fill="black" font-size="12.6936" font-family="Helvetica">
 / ndf 
</text>
<text x="368.441" y="31.9132" fill="black" font-size="8.6291" font-family="Helvetica">
2
</text>
<text x="361.87" y="36.6063" fill="black" font-size="12.6936" font-family="Times">
&#0967;
</text>
<text x="482.953" y="36.6063" fill="black" font-size="12.6936" font-family="Helvetica">
 147.9 / 175
</text>
<text x="361.87" y="52.563" fill="black" font-size="12.6936" font-family="Helvetica">
Centroid 
</text>
<text x="526.13" y="52.563" fill="black" font-size="12.6936" font-family="Helvetica">
 0.2
</text>
<text x="519.559" y="52.563" fill="black" font-size="12.6936" font-family="Times">
&#0177;
</text>
<text x="483.892" y="52.563" fill="black" font-size="12.6936" font-family="Helvetica">
 575.2 
</text>
<text x="361.87" y="70.3968" fill="black" font-size="12.6936" font-family="Helvetica">
FWHM     
</text>
<text x="519.559" y="69.4582" fill="black" font-size="12.6936" font-family="Helvetica">
 0.47
</text>
<text x="512.989" y="69.4582" fill="black" font-size="12.6936" font-family="Times">
&#0177;
</text>
<text x="479.198" y="69.4582" fill="black" font-size="12.6936" font-family="Helvetica">
 53.31 
</text>
<text x="361.87" y="86.3534" fill="black" font-size="12.6936" font-family="Helvetica">
Counts   
</text>
<text x="519.559" y="86.3534" fill="black" font-size="12.6936" font-family="Helvetica">
 98.4
</text>
<text x="512.989" y="86.3534" fill="black" font-size="12.6936" font-family="Times">
&#0177;
</text>
<text x="477.321" y="86.3534" fill="black" font-size="12.6936" font-family="Helvetica">
  8936 
</text>
<text x="361.87" y="102.31" fill="black" font-size="12.6936" font-family="Helvetica">
Intercept 
</text>
<text x="512.989" y="103.249" fill="black" font-size="12.6936" font-family="Helvetica">
 0.607
</text>
<text x="506.419" y="103.249" fill="black" font-size="12.6936" font-family="Times">
&#0177;
</text>
<text x="470.751" y="103.249" fill="black" font-size="12.6936" font-family="Helvetica">
 1.255 
</text>
<text x="361.87" y="119.205" fill="black" font-size="12.6936" font-family="Helvetica">
Slope    
</text>
<text x="487.646" y="120.144" fill="black" font-size="12.6936" font-family="Helvetica">
 0.0010811
</text>
<text x="481.076" y="120.144" fill="black" font-size="12.6936" font-family="Times">
&#0177;
</text>
<text x="421.004" y="120.144" fill="black" font-size="12.6936" font-family="Helvetica">
0.0007415 
</text>
<text x="413.495" y="120.144" fill="black" font-size="12.6936" font-family="Times">
&#8722;
</text>
<text x="410.679" y="120.144" fill="black" font-size="12.6936" font-family="Helvetica">
 
</text>
<path d="M59.4606,325.233h 181.417l 4.53543, -0.0324899l 4.53543, -0.0669462l 4.53543, -0.182984l 4.53543, -0.461973l 4.53543, -1.07642l 4.53543, -2.31236l 4.53543, -4.5736l 4.53543, -8.31428l 4.53543, -13.8585" fill="none" stroke="#00ff00"
 stroke-width="2"/>
<path d="M281.697,294.354l 4.53543, -21.1095l 4.53543, -29.2395l 4.53543, -36.5485l 4.53543, -40.7008l 4.53543, -39.4159l 4.53543, -31.4311l 4.53543, -17.2938l 4.53543, 0.493323l 4.53543, 18.1739l 4.53543, 32.029l 4.53543, 39.6503l 4.53543, 40.5984l
 4.53543, 36.2146l 4.53543, 28.8057l 4.53543, 20.6873l 4.53543, 13.5145l 4.53543, 8.06966l 4.53543, 4.41877l 4.53543, 2.22412l 4.53543, 1.03081l 4.53543, 0.44049l 4.53543, 0.17373l 4.53543, 0.063292l 4.53543, 0.0305345h 113.386" fill="none"
 stroke="#00ff00" stroke-width="2"/>
<path d="M503.933,325.233h 4.53543" fill="none" stroke="#00ff00" stroke-width="2"/>
<text x="98.1169" y="15.9566" fill="black" font-size="13.2246" font-family="Helvetica">
Wk3/22Na-Coin-511Window-fullrange0_5us10V_40degrees.Spe
</text></svg>
