<?xml version="1.0" standalone="no"?>
<svg width="567.429" height="280.512" viewBox="0 0 567.429 280.512" xmlns="http://www.w3.org/2000/svg">
<title>
/home/ADF/hyw543/Coincidence/c1.svg
</title>
<desc>
Creator: ROOT Version 6.06/08
CreationDate: Mon Jan  7 20:28:47 2019</desc>
<defs>
</defs>
<rect x="0.5" y="0" width="566.929" height="280.012" fill="white"/>
<rect x="57.1929" y="28.0012" width="453.543" height="224.01" fill="white"/>
<rect x="57.1929" y="28.0012" width="453.543" height="224.01" fill="none" stroke="black"/>
<rect x="57.1929" y="28.0012" width="453.543" height="224.01" fill="white"/>
<rect x="57.1929" y="28.0012" width="453.543" height="224.01" fill="none" stroke="black"/>
<path d="M57.1929,252.011h 127.338v -0.939836h 0.221457v 0.939836h 70.4232v -0.939836h 0.221457v 0.939836h 3.76476v -0.939836h 0.221457v 0.939836h 2.65748v -0.939836h 0.221457v 0.939836h 1.32874v -0.939836h 0.442913v -4.69918h 0.221457v -10.3382h
 0.221457v 3.75934h 0.221457v 4.69918h 0.221457v -9.39836h 0.221457v 7.51869h 0.221457v -0.939836h 0.221457v -4.69918h 0.221457v 0.939836h 0.442913v -12.2179h 0.221457v -1.87967h 0.221457v 5.63902h 0.221457v 10.3382h 0.221457v -11.278h 0.221457v
 3.75934h 0.221457v -0.939836h 0.221457v -3.75934h 0.442913v -6.57885h 0.221457v 5.63902h 0.221457v -5.63902h 0.221457v 1.87967h 0.221457v -7.51869h 0.221457v 3.75934h 0.221457v 1.87967h 0.221457v -2.81951h 0.221457v -6.57885h 0.221457v 15.0374h
 0.221457v -15.0374h 0.221457v -10.3382h 0.221457v 4.69918h 0.221457v -9.39836h 0.221457v 11.278h 0.221457v -11.278h 0.221457v -4.69918h 0.221457v 0.939836h 0.221457v -16.917h 0.221457v -0.939836h 0.221457v 12.2179h 0.221457v -4.69918h 0.221457v
 -13.1577h 0.221457v 14.0975h 0.221457v 6.57885h 0.221457v -12.2179h 0.221457v -1.87967h 0.221457v 4.69918h 0.221457v -15.0374h 0.221457v -4.69918h 0.221457v -2.81951h 0.442913v -9.39836h 0.221457v -2.81951h 0.442913v 1.87967h 0.221457v -22.5561h
 0.221457v 26.3154h 0.221457v -19.7366h 0.221457v -8.45852h 0.221457v -20.6764h 0.221457v 24.4357h 0.221457v -14.0975h 0.221457v 24.4357h 0.221457v -25.3756h 0.221457v -10.3382h 0.221457v 2.81951h 0.221457v -5.63902h 0.221457v -14.0975h 0.442913v
 -1.87967h 0.221457v 15.9772h 0.221457v -26.3154h 0.221457v -12.2179h 0.221457v 18.7967h 0.221457v 14.0975h 0.221457v -24.4357h 0.221457v -9.39836h 0.221457v 33.8341h 0.221457v -38.5333h 0.221457v 9.39836h 0.221457v 12.2179h 0.221457v -7.51869h
 0.221457v -9.39836h 0.221457v -2.81951h 0.221457v 17.8569h 0.221457v -1.87967h 0.221457v -4.69918h 0.221457v 0.939836h 0.221457v -6.57885h 0.221457v 10.3382h 0.221457v -4.69918h 0.221457v 8.45852h 0.221457v 9.39836h 0.221457v -46.9918h 0.221457v
 22.5561h 0.221457v 24.4357h 0.221457v -25.3756h 0.221457v 17.8569h 0.221457v 4.69918h 0.221457v -12.2179h 0.221457v 15.0374h 0.221457v 1.87967h 0.221457v -15.0374h 0.221457v 23.4959h 0.221457v -12.2179h 0.221457v -18.7967h 0.221457v 13.1577h
 0.221457v 22.5561h 0.221457v -18.7967h 0.221457v 41.3528h 0.221457v -16.917h 0.221457v -6.57885h 0.221457v 9.39836h 0.221457v 31.0146h 0.221457v -5.63902h 0.221457v -8.45852h 0.221457v -15.9772h 0.221457v 29.1349h 0.221457v -18.7967h 0.221457v
 25.3756h 0.221457v -3.75934h 0.221457v 8.45852h 0.221457v 19.7366h 0.221457v -15.0374h 0.221457v 11.278h 0.221457v -7.51869h 0.221457v 26.3154h 0.221457v -2.81951h 0.221457v -10.3382h 0.221457v -5.63902h 0.221457v 11.278h 0.221457v 7.51869h
 0.221457v -2.81951h 0.221457v 18.7967h 0.221457v -10.3382h 0.221457v 9.39836h 0.221457v -2.81951h 0.442913v 0.939836h 0.221457v 10.3382h 0.442913v 3.75934h 0.221457v 9.39836h 0.221457v -0.939836h 0.221457v 3.75934h 0.221457v 2.81951h 0.221457v
 -1.87967h 0.221457v -0.939836h 0.221457v 5.63902h 0.221457v -11.278h 0.221457v 7.51869h 0.221457v -0.939836h 0.221457v 3.75934h 0.221457v 8.45852h 0.221457v 1.87967h 0.221457v -2.81951h 0.221457v 4.69918h 0.221457v -3.75934h 0.221457v 2.81951h
 0.221457v -2.81951h 0.221457v 3.75934h 0.221457v -4.69918h 0.221457v 7.51869h 0.221457v -0.939836h 0.221457v -4.69918h 0.221457v 1.87967h 0.221457v 1.87967h 0.221457v -1.87967h 0.442913v 3.75934h 0.221457v 0.939836h 0.221457v 1.87967h 0.221457v
 -2.81951h 0.442913v -0.939836h 0.221457v -0.939836h 0.221457v -1.87967h 0.221457v 6.57885h 0.221457v 4.69918h 1.10728v -0.939836h 0.221457v 0.939836h 5.97933v -0.939836h 0.221457v 0.939836h 199.754" fill="none" stroke="#ff0000" stroke-width="2"/>
<path d="M59.4606,252.011h 222.236" fill="none" stroke="#0000ff" stroke-width="2"/>
<path d="M281.697,252.011h 222.236" fill="none" stroke="#0000ff" stroke-width="2"/>
<path d="M503.933,252.011h 4.53543" fill="none" stroke="#0000ff" stroke-width="2"/>
<rect x="351.996" y="18.2008" width="204.094" height="78.4035" fill="white"/>
<path d="M351.996,96.6043h 204.094" fill="none" stroke="black" stroke-width="2"/>
<path d="M556.091,96.6043v -78.4035" fill="none" stroke="black" stroke-width="2"/>
<path d="M556.091,18.2008h -204.094" fill="none" stroke="black" stroke-width="2"/>
<path d="M351.996,18.2008v 78.4035" fill="none" stroke="black" stroke-width="2"/>
<text x="372.571" y="28.3848" fill="black" font-size="11.5292" font-family="Helvetica">
 / ndf 
</text>
<text x="367.968" y="24.549" fill="black" font-size="7.85282" font-family="Helvetica">
2
</text>
<text x="361.831" y="28.3848" fill="black" font-size="11.5292" font-family="Times">
&#0967;
</text>
<text x="462.329" y="29.152" fill="black" font-size="11.5292" font-family="Helvetica">
 1.608e+04 / 181
</text>
<text x="361.831" y="42.1936" fill="black" font-size="11.5292" font-family="Helvetica">
Centroid 
</text>
<text x="507.591" y="42.1936" fill="black" font-size="11.5292" font-family="Helvetica">
 1529.2
</text>
<text x="500.686" y="42.1936" fill="black" font-size="11.5292" font-family="Times">
&#0177;
</text>
<text x="469.233" y="42.1936" fill="black" font-size="11.5292" font-family="Helvetica">
  1021 
</text>
<text x="361.831" y="55.2353" fill="black" font-size="11.5292" font-family="Helvetica">
FWHM     
</text>
<text x="501.454" y="55.2353" fill="black" font-size="11.5292" font-family="Helvetica">
 1238.72
</text>
<text x="494.549" y="55.2353" fill="black" font-size="11.5292" font-family="Times">
&#0177;
</text>
<text x="460.794" y="55.2353" fill="black" font-size="11.5292" font-family="Helvetica">
 72.86 
</text>
<text x="361.831" y="68.277" fill="black" font-size="11.5292" font-family="Helvetica">
Counts   
</text>
<text x="488.412" y="68.277" fill="black" font-size="11.5292" font-family="Helvetica">
 1.241e+04
</text>
<text x="481.508" y="68.277" fill="black" font-size="11.5292" font-family="Times">
&#0177;
</text>
<text x="422.436" y="68.277" fill="black" font-size="11.5292" font-family="Helvetica">
 1.576e+04 
</text>
<text x="361.831" y="79.7843" fill="black" font-size="11.5292" font-family="Helvetica">
Intercept 
</text>
<text x="502.988" y="81.3187" fill="black" font-size="11.5292" font-family="Helvetica">
 1.41421
</text>
<text x="496.084" y="81.3187" fill="black" font-size="11.5292" font-family="Times">
&#0177;
</text>
<text x="452.356" y="81.3187" fill="black" font-size="11.5292" font-family="Helvetica">
0.02345 
</text>
<text x="446.218" y="81.3187" fill="black" font-size="11.5292" font-family="Times">
&#8722;
</text>
<text x="443.917" y="81.3187" fill="black" font-size="11.5292" font-family="Helvetica">
 
</text>
<text x="361.831" y="93.5932" fill="black" font-size="11.5292" font-family="Helvetica">
Slope    
</text>
<text x="488.412" y="94.3603" fill="black" font-size="11.5292" font-family="Helvetica">
 1.414e+00
</text>
<text x="481.508" y="94.3603" fill="black" font-size="11.5292" font-family="Times">
&#0177;
</text>
<text x="466.164" y="94.3603" fill="black" font-size="11.5292" font-family="Helvetica">
06 
</text>
<text x="460.027" y="94.3603" fill="black" font-size="11.5292" font-family="Times">
&#8722;
</text>
<text x="422.436" y="94.3603" fill="black" font-size="11.5292" font-family="Helvetica">
 1.267e
</text>
<path d="M57.1929,252.011h 453.543" fill="none" stroke="black" stroke-width="2"/>
<text x="473.069" y="270.806" fill="black" font-size="9.49122" font-family="Helvetica">
Channels
</text>
<path d="M57.1929,245.291v 6.7203" fill="none" stroke="black" stroke-width="2"/>
<path d="M79.3386,248.651v 3.36015" fill="none" stroke="black" stroke-width="2"/>
<path d="M101.484,248.651v 3.36015" fill="none" stroke="black" stroke-width="2"/>
<path d="M123.63,248.651v 3.36015" fill="none" stroke="black" stroke-width="2"/>
<path d="M145.776,248.651v 3.36015" fill="none" stroke="black" stroke-width="2"/>
<path d="M167.921,245.291v 6.7203" fill="none" stroke="black" stroke-width="2"/>
<path d="M190.067,248.651v 3.36015" fill="none" stroke="black" stroke-width="2"/>
<path d="M212.213,248.651v 3.36015" fill="none" stroke="black" stroke-width="2"/>
<path d="M234.358,248.651v 3.36015" fill="none" stroke="black" stroke-width="2"/>
<path d="M256.504,248.651v 3.36015" fill="none" stroke="black" stroke-width="2"/>
<path d="M278.65,245.291v 6.7203" fill="none" stroke="black" stroke-width="2"/>
<path d="M300.795,248.651v 3.36015" fill="none" stroke="black" stroke-width="2"/>
<path d="M322.941,248.651v 3.36015" fill="none" stroke="black" stroke-width="2"/>
<path d="M345.087,248.651v 3.36015" fill="none" stroke="black" stroke-width="2"/>
<path d="M367.232,248.651v 3.36015" fill="none" stroke="black" stroke-width="2"/>
<path d="M389.378,245.291v 6.7203" fill="none" stroke="black" stroke-width="2"/>
<path d="M411.524,248.651v 3.36015" fill="none" stroke="black" stroke-width="2"/>
<path d="M433.669,248.651v 3.36015" fill="none" stroke="black" stroke-width="2"/>
<path d="M455.815,248.651v 3.36015" fill="none" stroke="black" stroke-width="2"/>
<path d="M477.961,248.651v 3.36015" fill="none" stroke="black" stroke-width="2"/>
<path d="M500.106,245.291v 6.7203" fill="none" stroke="black" stroke-width="2"/>
<path d="M500.106,245.291v 6.7203" fill="none" stroke="black" stroke-width="2"/>
<text x="53.4338" y="260.833" fill="black" font-size="9.49122" font-family="Helvetica">
0
</text>
<text x="160.069" y="260.833" fill="black" font-size="9.49122" font-family="Helvetica">
500
</text>
<text x="267.471" y="260.833" fill="black" font-size="9.49122" font-family="Helvetica">
1000
</text>
<text x="377.941" y="260.833" fill="black" font-size="9.49122" font-family="Helvetica">
1500
</text>
<text x="489.179" y="260.833" fill="black" font-size="9.49122" font-family="Helvetica">
2000
</text>
<path d="M57.1929,252.011v -224.01" fill="none" stroke="black" stroke-width="2"/>
<path d="M70.7992,252.011h -13.6063" fill="none" stroke="black" stroke-width="2"/>
<path d="M63.9961,247.312h -6.80315" fill="none" stroke="black" stroke-width="2"/>
<path d="M63.9961,242.613h -6.80315" fill="none" stroke="black" stroke-width="2"/>
<path d="M63.9961,237.914h -6.80315" fill="none" stroke="black" stroke-width="2"/>
<path d="M70.7992,233.214h -13.6063" fill="none" stroke="black" stroke-width="2"/>
<path d="M63.9961,228.515h -6.80315" fill="none" stroke="black" stroke-width="2"/>
<path d="M63.9961,223.816h -6.80315" fill="none" stroke="black" stroke-width="2"/>
<path d="M63.9961,219.117h -6.80315" fill="none" stroke="black" stroke-width="2"/>
<path d="M70.7992,214.418h -13.6063" fill="none" stroke="black" stroke-width="2"/>
<path d="M63.9961,209.719h -6.80315" fill="none" stroke="black" stroke-width="2"/>
<path d="M63.9961,205.019h -6.80315" fill="none" stroke="black" stroke-width="2"/>
<path d="M63.9961,200.32h -6.80315" fill="none" stroke="black" stroke-width="2"/>
<path d="M70.7992,195.621h -13.6063" fill="none" stroke="black" stroke-width="2"/>
<path d="M63.9961,190.922h -6.80315" fill="none" stroke="black" stroke-width="2"/>
<path d="M63.9961,186.223h -6.80315" fill="none" stroke="black" stroke-width="2"/>
<path d="M63.9961,181.523h -6.80315" fill="none" stroke="black" stroke-width="2"/>
<path d="M70.7992,176.824h -13.6063" fill="none" stroke="black" stroke-width="2"/>
<path d="M63.9961,172.125h -6.80315" fill="none" stroke="black" stroke-width="2"/>
<path d="M63.9961,167.426h -6.80315" fill="none" stroke="black" stroke-width="2"/>
<path d="M63.9961,162.727h -6.80315" fill="none" stroke="black" stroke-width="2"/>
<path d="M70.7992,158.028h -13.6063" fill="none" stroke="black" stroke-width="2"/>
<path d="M63.9961,153.328h -6.80315" fill="none" stroke="black" stroke-width="2"/>
<path d="M63.9961,148.629h -6.80315" fill="none" stroke="black" stroke-width="2"/>
<path d="M63.9961,143.93h -6.80315" fill="none" stroke="black" stroke-width="2"/>
<path d="M70.7992,139.231h -13.6063" fill="none" stroke="black" stroke-width="2"/>
<path d="M63.9961,134.532h -6.80315" fill="none" stroke="black" stroke-width="2"/>
<path d="M63.9961,129.832h -6.80315" fill="none" stroke="black" stroke-width="2"/>
<path d="M63.9961,125.133h -6.80315" fill="none" stroke="black" stroke-width="2"/>
<path d="M70.7992,120.434h -13.6063" fill="none" stroke="black" stroke-width="2"/>
<path d="M63.9961,115.735h -6.80315" fill="none" stroke="black" stroke-width="2"/>
<path d="M63.9961,111.036h -6.80315" fill="none" stroke="black" stroke-width="2"/>
<path d="M63.9961,106.337h -6.80315" fill="none" stroke="black" stroke-width="2"/>
<path d="M70.7992,101.637h -13.6063" fill="none" stroke="black" stroke-width="2"/>
<path d="M63.9961,96.9382h -6.80315" fill="none" stroke="black" stroke-width="2"/>
<path d="M63.9961,92.239h -6.80315" fill="none" stroke="black" stroke-width="2"/>
<path d="M63.9961,87.5398h -6.80315" fill="none" stroke="black" stroke-width="2"/>
<path d="M70.7992,82.8407h -13.6063" fill="none" stroke="black" stroke-width="2"/>
<path d="M63.9961,78.1415h -6.80315" fill="none" stroke="black" stroke-width="2"/>
<path d="M63.9961,73.4423h -6.80315" fill="none" stroke="black" stroke-width="2"/>
<path d="M63.9961,68.7431h -6.80315" fill="none" stroke="black" stroke-width="2"/>
<path d="M70.7992,64.0439h -13.6063" fill="none" stroke="black" stroke-width="2"/>
<path d="M63.9961,59.3448h -6.80315" fill="none" stroke="black" stroke-width="2"/>
<path d="M63.9961,54.6456h -6.80315" fill="none" stroke="black" stroke-width="2"/>
<path d="M63.9961,49.9464h -6.80315" fill="none" stroke="black" stroke-width="2"/>
<path d="M70.7992,45.2472h -13.6063" fill="none" stroke="black" stroke-width="2"/>
<path d="M70.7992,45.2472h -13.6063" fill="none" stroke="black" stroke-width="2"/>
<path d="M63.9961,40.548h -6.80315" fill="none" stroke="black" stroke-width="2"/>
<path d="M63.9961,35.8489h -6.80315" fill="none" stroke="black" stroke-width="2"/>
<path d="M63.9961,31.1497h -6.80315" fill="none" stroke="black" stroke-width="2"/>
<text x="48.8309" y="255.463" fill="black" font-size="9.49122" font-family="Helvetica">
0
</text>
<text x="44.228" y="236.284" fill="black" font-size="9.49122" font-family="Helvetica">
20
</text>
<text x="44.228" y="217.873" fill="black" font-size="9.49122" font-family="Helvetica">
40
</text>
<text x="44.228" y="198.694" fill="black" font-size="9.49122" font-family="Helvetica">
60
</text>
<text x="44.228" y="180.282" fill="black" font-size="9.49122" font-family="Helvetica">
80
</text>
<text x="38.8579" y="161.103" fill="black" font-size="9.49122" font-family="Helvetica">
100
</text>
<text x="38.8579" y="142.691" fill="black" font-size="9.49122" font-family="Helvetica">
120
</text>
<text x="38.8579" y="123.512" fill="black" font-size="9.49122" font-family="Helvetica">
140
</text>
<text x="38.8579" y="105.101" fill="black" font-size="9.49122" font-family="Helvetica">
160
</text>
<text x="38.8579" y="85.9216" fill="black" font-size="9.49122" font-family="Helvetica">
180
</text>
<text x="38.8579" y="67.5098" fill="black" font-size="9.49122" font-family="Helvetica">
200
</text>
<text x="38.8579" y="48.3309" fill="black" font-size="9.49122" font-family="Helvetica">
220
</text>
<rect x="351.996" y="18.2008" width="204.094" height="78.4035" fill="white"/>
<path d="M351.996,96.6043h 204.094" fill="none" stroke="black" stroke-width="2"/>
<path d="M556.091,96.6043v -78.4035" fill="none" stroke="black" stroke-width="2"/>
<path d="M556.091,18.2008h -204.094" fill="none" stroke="black" stroke-width="2"/>
<path d="M351.996,18.2008v 78.4035" fill="none" stroke="black" stroke-width="2"/>
<text x="372.571" y="28.3848" fill="black" font-size="11.5292" font-family="Helvetica">
 / ndf 
</text>
<text x="367.968" y="24.549" fill="black" font-size="7.85282" font-family="Helvetica">
2
</text>
<text x="361.831" y="28.3848" fill="black" font-size="11.5292" font-family="Times">
&#0967;
</text>
<text x="462.329" y="29.152" fill="black" font-size="11.5292" font-family="Helvetica">
 1.608e+04 / 181
</text>
<text x="361.831" y="42.1936" fill="black" font-size="11.5292" font-family="Helvetica">
Centroid 
</text>
<text x="507.591" y="42.1936" fill="black" font-size="11.5292" font-family="Helvetica">
 1529.2
</text>
<text x="500.686" y="42.1936" fill="black" font-size="11.5292" font-family="Times">
&#0177;
</text>
<text x="469.233" y="42.1936" fill="black" font-size="11.5292" font-family="Helvetica">
  1021 
</text>
<text x="361.831" y="55.2353" fill="black" font-size="11.5292" font-family="Helvetica">
FWHM     
</text>
<text x="501.454" y="55.2353" fill="black" font-size="11.5292" font-family="Helvetica">
 1238.72
</text>
<text x="494.549" y="55.2353" fill="black" font-size="11.5292" font-family="Times">
&#0177;
</text>
<text x="460.794" y="55.2353" fill="black" font-size="11.5292" font-family="Helvetica">
 72.86 
</text>
<text x="361.831" y="68.277" fill="black" font-size="11.5292" font-family="Helvetica">
Counts   
</text>
<text x="488.412" y="68.277" fill="black" font-size="11.5292" font-family="Helvetica">
 1.241e+04
</text>
<text x="481.508" y="68.277" fill="black" font-size="11.5292" font-family="Times">
&#0177;
</text>
<text x="422.436" y="68.277" fill="black" font-size="11.5292" font-family="Helvetica">
 1.576e+04 
</text>
<text x="361.831" y="79.7843" fill="black" font-size="11.5292" font-family="Helvetica">
Intercept 
</text>
<text x="502.988" y="81.3187" fill="black" font-size="11.5292" font-family="Helvetica">
 1.41421
</text>
<text x="496.084" y="81.3187" fill="black" font-size="11.5292" font-family="Times">
&#0177;
</text>
<text x="452.356" y="81.3187" fill="black" font-size="11.5292" font-family="Helvetica">
0.02345 
</text>
<text x="446.218" y="81.3187" fill="black" font-size="11.5292" font-family="Times">
&#8722;
</text>
<text x="443.917" y="81.3187" fill="black" font-size="11.5292" font-family="Helvetica">
 
</text>
<text x="361.831" y="93.5932" fill="black" font-size="11.5292" font-family="Helvetica">
Slope    
</text>
<text x="488.412" y="94.3603" fill="black" font-size="11.5292" font-family="Helvetica">
 1.414e+00
</text>
<text x="481.508" y="94.3603" fill="black" font-size="11.5292" font-family="Times">
&#0177;
</text>
<text x="466.164" y="94.3603" fill="black" font-size="11.5292" font-family="Helvetica">
06 
</text>
<text x="460.027" y="94.3603" fill="black" font-size="11.5292" font-family="Times">
&#8722;
</text>
<text x="422.436" y="94.3603" fill="black" font-size="11.5292" font-family="Helvetica">
 1.267e
</text>
<path d="M59.4606,252.011h 190.488l 4.53543, -0.0301968l 4.53543, -0.354697l 4.53543, -2.78627l 4.53543, -13.7175l 4.53543, -41.2504l 4.53543, -71.2325l 4.53543, -56.7117" fill="none" stroke="#00ff00" stroke-width="2"/>
<path d="M281.697,65.9278l 4.53543, 13.0724l 4.53543, 69.0339l 4.53543, 63.5847l 4.53543, 30.2495l 4.53543, 8.49648l 4.53543, 1.47359l 4.53543, 0.172731h 190.488" fill="none" stroke="#00ff00" stroke-width="2"/>
<path d="M503.933,252.011h 4.53543" fill="none" stroke="#00ff00" stroke-width="2"/>
<text x="133.218" y="13.8088" fill="black" font-size="13.7384" font-family="Helvetica">
Wk3/22Na-B-511Window-Bipolar-0.5shaping.Spe
</text></svg>
