<?xml version="1.0" standalone="no"?>
<svg width="567.429" height="371.505" viewBox="0 0 567.429 371.505" xmlns="http://www.w3.org/2000/svg">
<title>
/home/ADF/hyw543/Coincidence/c1.svg
</title>
<desc>
Creator: ROOT Version 6.06/08
CreationDate: Mon Jan  7 21:14:13 2019</desc>
<defs>
</defs>
<rect x="0.5" y="0" width="566.929" height="371.005" fill="white"/>
<rect x="57.1929" y="37.1005" width="453.543" height="296.804" fill="white"/>
<rect x="57.1929" y="37.1005" width="453.543" height="296.804" fill="none" stroke="black"/>
<rect x="57.1929" y="37.1005" width="453.543" height="296.804" fill="white"/>
<rect x="57.1929" y="37.1005" width="453.543" height="296.804" fill="none" stroke="black"/>
<path d="M57.1929,333.905h 68.8256v -4.48683h 0.588253v 4.48683h 11.1768v -4.48683h 0.588253v 4.48683h 11.1768v -4.48683h 0.588253v 4.48683h 4.70603v -4.48683h 0.588253v 4.48683h 1.17651v -4.48683h 0.588253v 4.48683h 5.88253v -4.48683h 0.588253v
 4.48683h 1.76476v -4.48683h 0.588253v 4.48683h 4.70603v -4.48683h 0.588253v 4.48683h 3.52952v -4.48683h 0.588253v 4.48683h 1.17651v -4.48683h 1.17651v 4.48683h 1.76476v -4.48683h 0.588253v 4.48683h 2.94127v -4.48683h 1.17651v 4.48683h 1.17651v
 -4.48683h 0.588253v 4.48683h 0.588253v -4.48683h 0.588253v -4.48683h 0.588253v 8.97367h 1.17651v -4.48683h 0.588253v 4.48683h 1.17651v -22.4342h 0.588253v 17.9473h 0.588253v -4.48683h 0.588253v 8.97367h 0.588253v -4.48683h 0.588253v -4.48683h
 0.588253v 4.48683h 0.588253v -8.97367h 0.588253v 8.97367h 0.588253v -13.4605h 0.588253v 17.9473h 0.588253v -13.4605h 0.588253v -8.97367h 0.588253v -8.97367h 0.588253v 31.4078h 0.588253v -13.4605h 0.588253v -13.4605h 0.588253v -17.9473h 0.588253v
 -4.48683h 0.588253v 22.4342h 0.588253v -31.4078h 0.588253v 26.921h 0.588253v -44.8683h 0.588253v 22.4342h 0.588253v 13.4605h 1.17651v -17.9473h 0.588253v 8.97367h 0.588253v -26.921h 0.588253v -4.48683h 0.588253v -4.48683h 0.588253v 8.97367h
 0.588253v 4.48683h 0.588253v -26.921h 0.588253v 17.9473h 0.588253v -35.8947h 0.588253v 13.4605h 0.588253v -17.9473h 0.588253v 31.4078h 0.588253v -17.9473h 0.588253v -13.4605h 0.588253v -4.48683h 0.588253v 22.4342h 0.588253v -26.921h 0.588253v
 -67.3025h 0.588253v 40.3815h 0.588253v 67.3025h 0.588253v -8.97367h 0.588253v -40.3815h 0.588253v -4.48683h 0.588253v -58.3288h 0.588253v 22.4342h 0.588253v -35.8947h 0.588253v 26.921h 0.588253v -26.921h 0.588253v 76.2762h 0.588253v -67.3025h
 0.588253v 49.3552h 0.588253v -53.842h 0.588253v -31.4078h 1.17651v 58.3288h 0.588253v -98.7103h 0.588253v 107.684h 0.588253v -76.2762h 0.588253v 35.8947h 0.588253v -26.921h 0.588253v 53.842h 0.588253v -40.3815h 0.588253v 13.4605h 0.588253v 13.4605h
 0.588253v 22.4342h 0.588253v -26.921h 0.588253v -8.97367h 0.588253v -44.8683h 0.588253v 67.3025h 0.588253v 4.48683h 0.588253v -40.3815h 0.588253v 67.3025h 0.588253v -35.8947h 0.588253v 49.3552h 0.588253v -31.4078h 0.588253v 13.4605h 0.588253v
 40.3815h 0.588253v -44.8683h 0.588253v 13.4605h 0.588253v 4.48683h 1.17651v 35.8947h 0.588253v -31.4078h 0.588253v 17.9473h 0.588253v -4.48683h 0.588253v 35.8947h 0.588253v 8.97367h 0.588253v 4.48683h 1.17651v 4.48683h 0.588253v 8.97367h 0.588253v
 17.9473h 0.588253v -17.9473h 0.588253v 4.48683h 0.588253v 22.4342h 0.588253v -8.97367h 0.588253v -22.4342h 0.588253v 8.97367h 0.588253v 8.97367h 1.76476v 26.921h 0.588253v 4.48683h 0.588253v 8.97367h 0.588253v -8.97367h 0.588253v -13.4605h 0.588253v
 4.48683h 0.588253v 17.9473h 0.588253v 4.48683h 0.588253v -13.4605h 1.17651v 13.4605h 1.76476v -13.4605h 0.588253v -4.48683h 0.588253v 22.4342h 0.588253v 4.48683h 0.588253v -4.48683h 1.17651v 8.97367h 0.588253v -4.48683h 2.35301v 4.48683h 2.94127v
 -4.48683h 0.588253v 4.48683h 7.64729v -4.48683h 1.17651v 4.48683h 1.76476v -4.48683h 0.588253v 4.48683h 2.35301v -4.48683h 0.588253v 4.48683h 25.8831v -4.48683h 0.588253v 4.48683h 4.11777v -4.48683h 0.588253v 4.48683h 22.9419v -4.48683h 0.588253v
 4.48683h 5.88253v -4.48683h 0.588253v 4.48683h 19.4124v -4.48683h 0.588253v 4.48683h 22.9419v -4.48683h 0.588253v 4.48683h 11.7651v -4.48683h 0.588253v 4.48683h 5.29428v -4.48683h 0.588253v 4.48683h 4.70603v -4.48683h 0.588253v 4.48683h 14.7063v
 -4.48683h 0.588253v 4.48683h 27.6479v -4.48683h 0.588253v 4.48683h 52.9428" fill="none" stroke="#ff0000" stroke-width="2"/>
<rect x="351.996" y="24.1153" width="204.094" height="103.881" fill="white"/>
<path d="M351.996,127.997h 204.094" fill="none" stroke="black" stroke-width="2"/>
<path d="M556.091,127.997v -103.881" fill="none" stroke="black" stroke-width="2"/>
<path d="M556.091,24.1153h -204.094" fill="none" stroke="black" stroke-width="2"/>
<path d="M351.996,24.1153v 103.881" fill="none" stroke="black" stroke-width="2"/>
<text x="374.632" y="36.4752" fill="black" font-size="12.7161" font-family="Helvetica">
 / ndf 
</text>
<text x="369.421" y="32.3066" fill="black" font-size="8.64409" font-family="Helvetica">
2
</text>
<text x="362.126" y="36.4752" fill="black" font-size="12.7161" font-family="Times">
&#0967;
</text>
<text x="485.099" y="37.5174" fill="black" font-size="12.7161" font-family="Helvetica">
   117 / 157
</text>
<text x="362.126" y="55.2339" fill="black" font-size="12.7161" font-family="Helvetica">
Centroid 
</text>
<text x="525.743" y="55.2339" fill="black" font-size="12.7161" font-family="Helvetica">
 0.5
</text>
<text x="518.448" y="55.2339" fill="black" font-size="12.7161" font-family="Times">
&#0177;
</text>
<text x="480.931" y="55.2339" fill="black" font-size="12.7161" font-family="Helvetica">
 576.4 
</text>
<text x="362.126" y="71.9083" fill="black" font-size="12.7161" font-family="Helvetica">
FWHM     
</text>
<text x="518.448" y="71.9083" fill="black" font-size="12.7161" font-family="Helvetica">
 0.98
</text>
<text x="511.153" y="71.9083" fill="black" font-size="12.7161" font-family="Times">
&#0177;
</text>
<text x="473.636" y="71.9083" fill="black" font-size="12.7161" font-family="Helvetica">
 52.63 
</text>
<text x="362.126" y="89.6248" fill="black" font-size="12.7161" font-family="Helvetica">
Counts   
</text>
<text x="518.448" y="89.6248" fill="black" font-size="12.7161" font-family="Helvetica">
 57.2
</text>
<text x="511.153" y="89.6248" fill="black" font-size="12.7161" font-family="Times">
&#0177;
</text>
<text x="473.636" y="89.6248" fill="black" font-size="12.7161" font-family="Helvetica">
  2622 
</text>
<text x="362.126" y="105.257" fill="black" font-size="12.7161" font-family="Helvetica">
Intercept 
</text>
<text x="504.9" y="106.299" fill="black" font-size="12.7161" font-family="Helvetica">
 0.6399
</text>
<text x="497.605" y="106.299" fill="black" font-size="12.7161" font-family="Times">
&#0177;
</text>
<text x="453.835" y="106.299" fill="black" font-size="12.7161" font-family="Helvetica">
 0.7263 
</text>
<text x="362.126" y="122.974" fill="black" font-size="12.7161" font-family="Helvetica">
Slope    
</text>
<text x="484.057" y="124.016" fill="black" font-size="12.7161" font-family="Helvetica">
 0.0009996
</text>
<text x="476.762" y="124.016" fill="black" font-size="12.7161" font-family="Times">
&#0177;
</text>
<text x="412.149" y="124.016" fill="black" font-size="12.7161" font-family="Helvetica">
 0.0001804 
</text>
<path d="M59.4606,330.413l 4.53543, -0.00624068l 4.53543, -0.00624068l 4.53543, -0.00624068l 4.53543, -0.00624068l 4.53543, -0.00624068l 4.53543, -0.00624068l 4.53543, -0.00624068l 4.53543, -0.00624068l 4.53543, -0.00624068l 4.53543, -0.00624068l
 4.53543, -0.00624068l 4.53543, -0.00624068l 4.53543, -0.00624068l 4.53543, -0.00624068l 4.53543, -0.00624068l 4.53543, -0.00624068l 4.53543, -0.00624068l 4.53543, -0.00624072l 4.53543, -0.00624102l 4.53543, -0.0062435l 4.53543, -0.0062613l 4.53543,
 -0.00637418l 4.53543, -0.00700605l 4.53543, -0.0101248l 4.53543, -0.0236765l 4.53543, -0.0754189l 4.53543, -0.248581l 4.53543, -0.754806l 4.53543, -2.04145l 4.53543, -4.8649l 4.53543, -10.1564l 4.53543, -18.4694l 4.53543, -29.0213l 4.53543, -38.884l
 4.53543, -43.3266l 4.53543, -37.921l 4.53543, -21.5673l 4.53543, 1.78411l 4.53543, 24.5353l 4.53543, 39.4115l 4.53543, 43.1961l 4.53543, 37.6428l 4.53543, 27.4118l 4.53543, 17.06l 4.53543, 9.18401l 4.53543, 4.30668l 4.53543, 1.76598l 4.53543,
 0.633443l 4.53543, 0.19705" fill="none" stroke="#0000ff" stroke-width="2"/>
<path d="M281.697,330.032l 4.53543, 0.0507381l 4.53543, 0.00786223l 4.53543, -0.00315508l 4.53543, -0.00564344l 4.53543, -0.00613835l 4.53543, -0.00622515l 4.53543, -0.00623859l 4.53543, -0.00624043l 4.53543, -0.00624065l 4.53543, -0.00624068l
 4.53543, -0.00624068l 4.53543, -0.00624068l 4.53543, -0.00624068l 4.53543, -0.00624068l 4.53543, -0.00624068l 4.53543, -0.00624068l 4.53543, -0.00624068l 4.53543, -0.00624068l 4.53543, -0.00624068l 4.53543, -0.00624068l 4.53543, -0.00624068l
 4.53543, -0.00624068l 4.53543, -0.00624068l 4.53543, -0.00624068l 4.53543, -0.00624068l 4.53543, -0.00624068l 4.53543, -0.00624068l 4.53543, -0.00624068l 4.53543, -0.00624068l 4.53543, -0.00624068l 4.53543, -0.00624068l 4.53543, -0.00624068l
 4.53543, -0.00624068l 4.53543, -0.00624068l 4.53543, -0.00624068l 4.53543, -0.00624068l 4.53543, -0.00624068l 4.53543, -0.00624068l 4.53543, -0.00624068l 4.53543, -0.00624068l 4.53543, -0.00624068l 4.53543, -0.00624068l 4.53543, -0.00624068l
 4.53543, -0.00624068l 4.53543, -0.00624068l 4.53543, -0.00624068l 4.53543, -0.00624068l 4.53543, -0.00624068l 4.53543, -0.00624068" fill="none" stroke="#0000ff" stroke-width="2"/>
<path d="M503.933,329.801l 4.53543, -0.00624068" fill="none" stroke="#0000ff" stroke-width="2"/>
<path d="M57.1929,333.905h 453.543" fill="none" stroke="black" stroke-width="2"/>
<text x="459.046" y="359.541" fill="black" font-size="12.413" font-family="Helvetica">
Channels
</text>
<path d="M125.43,325v 8.90412" fill="none" stroke="black" stroke-width="2"/>
<path d="M154.843,329.453v 4.45206" fill="none" stroke="black" stroke-width="2"/>
<path d="M184.256,329.453v 4.45206" fill="none" stroke="black" stroke-width="2"/>
<path d="M213.668,329.453v 4.45206" fill="none" stroke="black" stroke-width="2"/>
<path d="M243.081,325v 8.90412" fill="none" stroke="black" stroke-width="2"/>
<path d="M272.494,329.453v 4.45206" fill="none" stroke="black" stroke-width="2"/>
<path d="M301.906,329.453v 4.45206" fill="none" stroke="black" stroke-width="2"/>
<path d="M331.319,329.453v 4.45206" fill="none" stroke="black" stroke-width="2"/>
<path d="M360.732,325v 8.90412" fill="none" stroke="black" stroke-width="2"/>
<path d="M390.144,329.453v 4.45206" fill="none" stroke="black" stroke-width="2"/>
<path d="M419.557,329.453v 4.45206" fill="none" stroke="black" stroke-width="2"/>
<path d="M448.97,329.453v 4.45206" fill="none" stroke="black" stroke-width="2"/>
<path d="M478.382,325v 8.90412" fill="none" stroke="black" stroke-width="2"/>
<path d="M125.43,325v 8.90412" fill="none" stroke="black" stroke-width="2"/>
<path d="M96.0176,329.453v 4.45206" fill="none" stroke="black" stroke-width="2"/>
<path d="M66.605,329.453v 4.45206" fill="none" stroke="black" stroke-width="2"/>
<path d="M478.382,325v 8.90412" fill="none" stroke="black" stroke-width="2"/>
<path d="M507.795,329.453v 4.45206" fill="none" stroke="black" stroke-width="2"/>
<text x="114.094" y="345.993" fill="black" font-size="12.413" font-family="Helvetica">
400
</text>
<text x="231.857" y="345.993" fill="black" font-size="12.413" font-family="Helvetica">
600
</text>
<text x="349.62" y="345.993" fill="black" font-size="12.413" font-family="Helvetica">
800
</text>
<text x="463.214" y="345.993" fill="black" font-size="12.413" font-family="Helvetica">
1000
</text>
<path d="M57.1929,333.905v -296.804" fill="none" stroke="black" stroke-width="2"/>
<path d="M70.7992,333.905h -13.6063" fill="none" stroke="black" stroke-width="2"/>
<path d="M63.9961,324.931h -6.80315" fill="none" stroke="black" stroke-width="2"/>
<path d="M63.9961,315.957h -6.80315" fill="none" stroke="black" stroke-width="2"/>
<path d="M63.9961,306.984h -6.80315" fill="none" stroke="black" stroke-width="2"/>
<path d="M63.9961,298.01h -6.80315" fill="none" stroke="black" stroke-width="2"/>
<path d="M70.7992,289.036h -13.6063" fill="none" stroke="black" stroke-width="2"/>
<path d="M63.9961,280.063h -6.80315" fill="none" stroke="black" stroke-width="2"/>
<path d="M63.9961,271.089h -6.80315" fill="none" stroke="black" stroke-width="2"/>
<path d="M63.9961,262.115h -6.80315" fill="none" stroke="black" stroke-width="2"/>
<path d="M63.9961,253.142h -6.80315" fill="none" stroke="black" stroke-width="2"/>
<path d="M70.7992,244.168h -13.6063" fill="none" stroke="black" stroke-width="2"/>
<path d="M63.9961,235.194h -6.80315" fill="none" stroke="black" stroke-width="2"/>
<path d="M63.9961,226.221h -6.80315" fill="none" stroke="black" stroke-width="2"/>
<path d="M63.9961,217.247h -6.80315" fill="none" stroke="black" stroke-width="2"/>
<path d="M63.9961,208.273h -6.80315" fill="none" stroke="black" stroke-width="2"/>
<path d="M70.7992,199.3h -13.6063" fill="none" stroke="black" stroke-width="2"/>
<path d="M63.9961,190.326h -6.80315" fill="none" stroke="black" stroke-width="2"/>
<path d="M63.9961,181.352h -6.80315" fill="none" stroke="black" stroke-width="2"/>
<path d="M63.9961,172.379h -6.80315" fill="none" stroke="black" stroke-width="2"/>
<path d="M63.9961,163.405h -6.80315" fill="none" stroke="black" stroke-width="2"/>
<path d="M70.7992,154.431h -13.6063" fill="none" stroke="black" stroke-width="2"/>
<path d="M63.9961,145.458h -6.80315" fill="none" stroke="black" stroke-width="2"/>
<path d="M63.9961,136.484h -6.80315" fill="none" stroke="black" stroke-width="2"/>
<path d="M63.9961,127.51h -6.80315" fill="none" stroke="black" stroke-width="2"/>
<path d="M63.9961,118.537h -6.80315" fill="none" stroke="black" stroke-width="2"/>
<path d="M70.7992,109.563h -13.6063" fill="none" stroke="black" stroke-width="2"/>
<path d="M63.9961,100.589h -6.80315" fill="none" stroke="black" stroke-width="2"/>
<path d="M63.9961,91.6155h -6.80315" fill="none" stroke="black" stroke-width="2"/>
<path d="M63.9961,82.6419h -6.80315" fill="none" stroke="black" stroke-width="2"/>
<path d="M63.9961,73.6682h -6.80315" fill="none" stroke="black" stroke-width="2"/>
<path d="M70.7992,64.6945h -13.6063" fill="none" stroke="black" stroke-width="2"/>
<path d="M70.7992,64.6945h -13.6063" fill="none" stroke="black" stroke-width="2"/>
<path d="M63.9961,55.7209h -6.80315" fill="none" stroke="black" stroke-width="2"/>
<path d="M63.9961,46.7472h -6.80315" fill="none" stroke="black" stroke-width="2"/>
<path d="M63.9961,37.7735h -6.80315" fill="none" stroke="black" stroke-width="2"/>
<text x="46.3546" y="338.698" fill="black" font-size="12.413" font-family="Helvetica">
0
</text>
<text x="40.1017" y="293.886" fill="black" font-size="12.413" font-family="Helvetica">
10
</text>
<text x="40.1017" y="249.074" fill="black" font-size="12.413" font-family="Helvetica">
20
</text>
<text x="40.1017" y="204.261" fill="black" font-size="12.413" font-family="Helvetica">
30
</text>
<text x="40.1017" y="159.449" fill="black" font-size="12.413" font-family="Helvetica">
40
</text>
<text x="40.1017" y="114.636" fill="black" font-size="12.413" font-family="Helvetica">
50
</text>
<text x="40.1017" y="69.824" fill="black" font-size="12.413" font-family="Helvetica">
60
</text>
<rect x="351.996" y="24.1153" width="204.094" height="103.881" fill="white"/>
<path d="M351.996,127.997h 204.094" fill="none" stroke="black" stroke-width="2"/>
<path d="M556.091,127.997v -103.881" fill="none" stroke="black" stroke-width="2"/>
<path d="M556.091,24.1153h -204.094" fill="none" stroke="black" stroke-width="2"/>
<path d="M351.996,24.1153v 103.881" fill="none" stroke="black" stroke-width="2"/>
<text x="374.632" y="36.4752" fill="black" font-size="12.7161" font-family="Helvetica">
 / ndf 
</text>
<text x="369.421" y="32.3066" fill="black" font-size="8.64409" font-family="Helvetica">
2
</text>
<text x="362.126" y="36.4752" fill="black" font-size="12.7161" font-family="Times">
&#0967;
</text>
<text x="485.099" y="37.5174" fill="black" font-size="12.7161" font-family="Helvetica">
   117 / 157
</text>
<text x="362.126" y="55.2339" fill="black" font-size="12.7161" font-family="Helvetica">
Centroid 
</text>
<text x="525.743" y="55.2339" fill="black" font-size="12.7161" font-family="Helvetica">
 0.5
</text>
<text x="518.448" y="55.2339" fill="black" font-size="12.7161" font-family="Times">
&#0177;
</text>
<text x="480.931" y="55.2339" fill="black" font-size="12.7161" font-family="Helvetica">
 576.4 
</text>
<text x="362.126" y="71.9083" fill="black" font-size="12.7161" font-family="Helvetica">
FWHM     
</text>
<text x="518.448" y="71.9083" fill="black" font-size="12.7161" font-family="Helvetica">
 0.98
</text>
<text x="511.153" y="71.9083" fill="black" font-size="12.7161" font-family="Times">
&#0177;
</text>
<text x="473.636" y="71.9083" fill="black" font-size="12.7161" font-family="Helvetica">
 52.63 
</text>
<text x="362.126" y="89.6248" fill="black" font-size="12.7161" font-family="Helvetica">
Counts   
</text>
<text x="518.448" y="89.6248" fill="black" font-size="12.7161" font-family="Helvetica">
 57.2
</text>
<text x="511.153" y="89.6248" fill="black" font-size="12.7161" font-family="Times">
&#0177;
</text>
<text x="473.636" y="89.6248" fill="black" font-size="12.7161" font-family="Helvetica">
  2622 
</text>
<text x="362.126" y="105.257" fill="black" font-size="12.7161" font-family="Helvetica">
Intercept 
</text>
<text x="504.9" y="106.299" fill="black" font-size="12.7161" font-family="Helvetica">
 0.6399
</text>
<text x="497.605" y="106.299" fill="black" font-size="12.7161" font-family="Times">
&#0177;
</text>
<text x="453.835" y="106.299" fill="black" font-size="12.7161" font-family="Helvetica">
 0.7263 
</text>
<text x="362.126" y="122.974" fill="black" font-size="12.7161" font-family="Helvetica">
Slope    
</text>
<text x="484.057" y="124.016" fill="black" font-size="12.7161" font-family="Helvetica">
 0.0009996
</text>
<text x="476.762" y="124.016" fill="black" font-size="12.7161" font-family="Times">
&#0177;
</text>
<text x="412.149" y="124.016" fill="black" font-size="12.7161" font-family="Helvetica">
 0.0001804 
</text>
<path d="M59.4606,333.905h 113.386l 4.53543, -0.0914208l 4.53543, -0.242341l 4.53543, -0.748565l 4.53543, -2.03521l 4.53543, -4.85866l 4.53543, -10.1502l 4.53543, -18.4632l 4.53543, -29.0151l 4.53543, -38.8777l 4.53543, -43.3204l 4.53543, -37.9148l
 4.53543, -21.561l 4.53543, 1.79035l 4.53543, 24.5416l 4.53543, 39.4177l 4.53543, 43.2024l 4.53543, 37.6491l 4.53543, 27.418l 4.53543, 17.0662l 4.53543, 9.19025l 4.53543, 4.31292l 4.53543, 1.77222l 4.53543, 0.639684l 4.53543, 0.203291" fill="none"
 stroke="#00ff00" stroke-width="2"/>
<path d="M281.697,333.83l 4.53543, 0.0748847h 217.701" fill="none" stroke="#00ff00" stroke-width="2"/>
<path d="M503.933,333.905h 4.53543" fill="none" stroke="#00ff00" stroke-width="2"/>
<text x="92.2091" y="16.6744" fill="black" font-size="13.3022" font-family="Helvetica">
Wk3/22Na-Coin-511Window-fullrange0_5us10V_50degrees.Spe
</text></svg>
