<?xml version="1.0" standalone="no"?>
<svg width="567.429" height="347.851" viewBox="0 0 567.429 347.851" xmlns="http://www.w3.org/2000/svg">
<title>
/home/ADF/hyw543/Coincidence/c1.svg
</title>
<desc>
Creator: ROOT Version 6.06/08
CreationDate: Mon Jan  7 21:26:37 2019</desc>
<defs>
</defs>
<rect x="0.5" y="0" width="566.929" height="347.351" fill="white"/>
<rect x="57.1929" y="34.7351" width="453.543" height="277.88" fill="white"/>
<rect x="57.1929" y="34.7351" width="453.543" height="277.88" fill="none" stroke="black"/>
<rect x="57.1929" y="34.7351" width="453.543" height="277.88" fill="white"/>
<rect x="57.1929" y="34.7351" width="453.543" height="277.88" fill="none" stroke="black"/>
<path d="M57.1929,312.616h 37.8742v -12.6023h 0.473427v 12.6023h 15.6231v -12.6023h 0.473427v 12.6023h 26.9854v -12.6023h 0.473427v 12.6023h 5.68113v -12.6023h 0.473427v 12.6023h 62.4924v -12.6023h 0.473427v 12.6023h 2.36714v -12.6023h 0.473427v
 12.6023h 2.84056v -12.6023h 0.473427v 12.6023h 17.9902v -12.6023h 0.473427v 12.6023h 26.5119v -12.6023h 0.473427v 12.6023h 0.473427v -12.6023h 0.473427v 12.6023h 0.946854v -25.2046h 0.473427v 25.2046h 0.946854v -12.6023h 0.473427v 12.6023h 0.473427v
 -25.2046h 0.473427v 12.6023h 0.946854v 12.6023h 1.42028v -12.6023h 0.946854v 12.6023h 0.473427v -12.6023h 0.473427v -25.2046h 0.473427v 12.6023h 0.473427v -25.2046h 0.473427v 50.4092h 0.473427v -25.2046h 0.473427v -12.6023h 0.473427v 37.8069h
 0.473427v -50.4092h 1.42028v -37.8069h 0.473427v 25.2046h 0.473427v 63.0114h 0.473427v -37.8069h 0.473427v 12.6023h 0.473427v -100.818h 0.473427v 25.2046h 0.473427v 50.4092h 0.946854v -50.4092h 0.473427v 25.2046h 0.946854v -12.6023h 0.473427v
 -37.8069h 0.473427v 50.4092h 0.473427v -25.2046h 0.473427v 50.4092h 0.473427v -25.2046h 0.473427v 12.6023h 0.946854v -12.6023h 0.473427v 12.6023h 0.473427v -37.8069h 0.473427v 12.6023h 0.473427v -50.4092h 0.946854v -63.0114h 0.946854v 75.6137h
 0.473427v -12.6023h 0.473427v 12.6023h 0.946854v -50.4092h 0.473427v 37.8069h 0.473427v -50.4092h 0.473427v -75.6137h 0.473427v 100.818h 0.473427v 75.6137h 0.473427v -163.83h 0.473427v 151.227h 0.473427v -75.6137h 0.473427v 50.4092h 0.473427v
 -37.8069h 0.473427v -12.6023h 0.473427v 25.2046h 0.473427v -25.2046h 0.473427v 12.6023h 0.473427v 37.8069h 0.473427v 25.2046h 0.473427v -37.8069h 0.473427v 50.4092h 0.473427v -12.6023h 0.473427v -37.8069h 0.473427v 12.6023h 0.473427v 63.0114h
 0.473427v -37.8069h 0.473427v -12.6023h 0.946854v 12.6023h 0.473427v 25.2046h 0.473427v -50.4092h 0.473427v 63.0114h 0.473427v -12.6023h 0.473427v -25.2046h 0.473427v 12.6023h 0.473427v 12.6023h 0.473427v 12.6023h 0.946854v -25.2046h 0.473427v
 37.8069h 0.473427v 37.8069h 0.473427v -63.0114h 0.473427v 50.4092h 0.473427v -50.4092h 0.473427v 37.8069h 0.473427v 25.2046h 0.473427v -25.2046h 0.473427v -25.2046h 0.473427v 50.4092h 0.473427v -37.8069h 0.473427v 12.6023h 0.473427v -37.8069h
 0.473427v 50.4092h 0.473427v 12.6023h 0.946854v -12.6023h 0.473427v 12.6023h 0.946854v -25.2046h 0.473427v 25.2046h 1.42028v 12.6023h 0.473427v -25.2046h 0.473427v 25.2046h 1.89371v -12.6023h 0.473427v 12.6023h 0.946854v -12.6023h 0.473427v 12.6023h
 3.31399v -12.6023h 0.473427v 12.6023h 0.473427v -12.6023h 0.473427v 12.6023h 2.36714v -12.6023h 0.473427v 12.6023h 16.57v -12.6023h 0.473427v 12.6023h 17.0434v -12.6023h 0.473427v 12.6023h 18.9371v -12.6023h 0.473427v 12.6023h 14.6762v -12.6023h
 0.473427v 12.6023h 11.8357v -12.6023h 0.473427v 12.6023h 24.6182v -12.6023h 0.473427v 12.6023h 74.8015" fill="none" stroke="#ff0000" stroke-width="2"/>
<path d="M59.4606,298.934l 4.53543, 0.0218202l 4.53543, 0.0218202l 4.53543, 0.0218202l 4.53543, 0.0218202l 4.53543, 0.0218202l 4.53543, 0.0218202l 4.53543, 0.0218202l 4.53543, 0.0218202l 4.53543, 0.0218202l 4.53543, 0.0218202l 4.53543, 0.0218202l
 4.53543, 0.0218202l 4.53543, 0.0218202l 4.53543, 0.0218202l 4.53543, 0.0218202l 4.53543, 0.0218202l 4.53543, 0.0218202l 4.53543, 0.0218202l 4.53543, 0.0218202l 4.53543, 0.0218202l 4.53543, 0.0218202l 4.53543, 0.0218202l 4.53543, 0.0218202l 4.53543,
 0.0218202l 4.53543, 0.0218202l 4.53543, 0.0218202l 4.53543, 0.0218202l 4.53543, 0.0218202l 4.53543, 0.0218202l 4.53543, 0.0218202l 4.53543, 0.0218202l 4.53543, 0.0218202l 4.53543, 0.0218202l 4.53543, 0.0218202l 4.53543, 0.0218202l 4.53543,
 0.0218202l 4.53543, 0.0218202l 4.53543, 0.02182l 4.53543, 0.0218173l 4.53543, 0.0217744l 4.53543, 0.0212438l 4.53543, 0.0161449l 4.53543, -0.0217877l 4.53543, -0.239002l 4.53543, -1.18801l 4.53543, -4.30588l 4.53543, -11.8089l 4.53543, -24.3035l
 4.53543, -36.4137" fill="none" stroke="#0000ff" stroke-width="2"/>
<path d="M281.697,221.563l 4.53543, -36.6676l 4.53543, -17.6621l 4.53543, 12.4139l 4.53543, 34.6265l 4.53543, 37.7715l 4.53543, 26.9281l 4.53543, 13.8606l 4.53543, 5.35236l 4.53543, 1.58737l 4.53543, 0.375921l 4.53543, 0.0838795l 4.53543, 0.0302814l
 4.53543, 0.0227201l 4.53543, 0.021895l 4.53543, 0.021825l 4.53543, 0.0218204l 4.53543, 0.0218202l 4.53543, 0.0218202l 4.53543, 0.0218202l 4.53543, 0.0218202l 4.53543, 0.0218202l 4.53543, 0.0218202l 4.53543, 0.0218202l 4.53543, 0.0218202l 4.53543,
 0.0218202l 4.53543, 0.0218202l 4.53543, 0.0218202l 4.53543, 0.0218202l 4.53543, 0.0218202l 4.53543, 0.0218202l 4.53543, 0.0218202l 4.53543, 0.0218202l 4.53543, 0.0218202l 4.53543, 0.0218202l 4.53543, 0.0218202l 4.53543, 0.0218202l 4.53543,
 0.0218202l 4.53543, 0.0218202l 4.53543, 0.0218202l 4.53543, 0.0218202l 4.53543, 0.0218202l 4.53543, 0.0218202l 4.53543, 0.0218202l 4.53543, 0.0218202l 4.53543, 0.0218202l 4.53543, 0.0218202l 4.53543, 0.0218202l 4.53543, 0.0218202l 4.53543,
 0.0218202" fill="none" stroke="#0000ff" stroke-width="2"/>
<path d="M503.933,301.072l 4.53543, 0.0218202" fill="none" stroke="#0000ff" stroke-width="2"/>
<rect x="351.996" y="22.5778" width="204.094" height="97.2582" fill="white"/>
<path d="M351.996,119.836h 204.094" fill="none" stroke="black" stroke-width="2"/>
<path d="M556.091,119.836v -97.2582" fill="none" stroke="black" stroke-width="2"/>
<path d="M556.091,22.5778h -204.094" fill="none" stroke="black" stroke-width="2"/>
<path d="M351.996,22.5778v 97.2582" fill="none" stroke="black" stroke-width="2"/>
<text x="373.405" y="34.0725" fill="black" font-size="12.0391" font-family="Helvetica">
 / ndf 
</text>
<text x="368.673" y="30.2867" fill="black" font-size="8.19275" font-family="Helvetica">
2
</text>
<text x="362.047" y="34.0725" fill="black" font-size="12.0391" font-family="Times">
&#0967;
</text>
<text x="486.98" y="35.019" fill="black" font-size="12.0391" font-family="Helvetica">
 83.14 / 124
</text>
<text x="362.047" y="51.1088" fill="black" font-size="12.0391" font-family="Helvetica">
Centroid 
</text>
<text x="529.571" y="51.1088" fill="black" font-size="12.0391" font-family="Helvetica">
 1.1
</text>
<text x="522.946" y="51.1088" fill="black" font-size="12.0391" font-family="Times">
&#0177;
</text>
<text x="488.873" y="51.1088" fill="black" font-size="12.0391" font-family="Helvetica">
 571.3 
</text>
<text x="362.047" y="67.1986" fill="black" font-size="12.0391" font-family="Helvetica">
FWHM     
</text>
<text x="521.053" y="67.1986" fill="black" font-size="12.0391" font-family="Helvetica">
 2.84
</text>
<text x="514.427" y="67.1986" fill="black" font-size="12.0391" font-family="Times">
&#0177;
</text>
<text x="480.355" y="67.1986" fill="black" font-size="12.0391" font-family="Helvetica">
 45.87 
</text>
<text x="362.047" y="83.2884" fill="black" font-size="12.0391" font-family="Helvetica">
Counts   
</text>
<text x="521.053" y="83.2884" fill="black" font-size="12.0391" font-family="Helvetica">
 33.0
</text>
<text x="514.427" y="83.2884" fill="black" font-size="12.0391" font-family="Times">
&#0177;
</text>
<text x="480.355" y="83.2884" fill="black" font-size="12.0391" font-family="Helvetica">
 516.2 
</text>
<text x="362.047" y="98.4318" fill="black" font-size="12.0391" font-family="Helvetica">
Intercept 
</text>
<text x="527.678" y="99.3782" fill="black" font-size="12.0391" font-family="Helvetica">
 0.6
</text>
<text x="521.053" y="99.3782" fill="black" font-size="12.0391" font-family="Times">
&#0177;
</text>
<text x="496.445" y="99.3782" fill="black" font-size="12.0391" font-family="Helvetica">
   1.1 
</text>
<text x="362.047" y="115.468" fill="black" font-size="12.0391" font-family="Helvetica">
Slope    
</text>
<text x="489.819" y="116.414" fill="black" font-size="12.0391" font-family="Helvetica">
 0.0010206
</text>
<text x="483.194" y="116.414" fill="black" font-size="12.0391" font-family="Times">
&#0177;
</text>
<text x="427.353" y="116.414" fill="black" font-size="12.0391" font-family="Helvetica">
0.0001807 
</text>
<text x="420.728" y="116.414" fill="black" font-size="12.0391" font-family="Times">
&#8722;
</text>
<text x="417.889" y="116.414" fill="black" font-size="12.0391" font-family="Helvetica">
 
</text>
<path d="M57.1929,312.616h 453.543" fill="none" stroke="black" stroke-width="2"/>
<text x="464.265" y="335.993" fill="black" font-size="11.6535" font-family="Helvetica">
Channels
</text>
<path d="M115.424,304.279v 8.33641" fill="none" stroke="black" stroke-width="2"/>
<path d="M139.096,308.447v 4.16821" fill="none" stroke="black" stroke-width="2"/>
<path d="M162.767,308.447v 4.16821" fill="none" stroke="black" stroke-width="2"/>
<path d="M186.439,308.447v 4.16821" fill="none" stroke="black" stroke-width="2"/>
<path d="M210.11,304.279v 8.33641" fill="none" stroke="black" stroke-width="2"/>
<path d="M233.781,308.447v 4.16821" fill="none" stroke="black" stroke-width="2"/>
<path d="M257.453,308.447v 4.16821" fill="none" stroke="black" stroke-width="2"/>
<path d="M281.124,308.447v 4.16821" fill="none" stroke="black" stroke-width="2"/>
<path d="M304.795,304.279v 8.33641" fill="none" stroke="black" stroke-width="2"/>
<path d="M328.467,308.447v 4.16821" fill="none" stroke="black" stroke-width="2"/>
<path d="M352.138,308.447v 4.16821" fill="none" stroke="black" stroke-width="2"/>
<path d="M375.809,308.447v 4.16821" fill="none" stroke="black" stroke-width="2"/>
<path d="M399.481,304.279v 8.33641" fill="none" stroke="black" stroke-width="2"/>
<path d="M423.152,308.447v 4.16821" fill="none" stroke="black" stroke-width="2"/>
<path d="M446.824,308.447v 4.16821" fill="none" stroke="black" stroke-width="2"/>
<path d="M470.495,308.447v 4.16821" fill="none" stroke="black" stroke-width="2"/>
<path d="M494.166,304.279v 8.33641" fill="none" stroke="black" stroke-width="2"/>
<path d="M115.424,304.279v 8.33641" fill="none" stroke="black" stroke-width="2"/>
<path d="M91.7531,308.447v 4.16821" fill="none" stroke="black" stroke-width="2"/>
<path d="M68.0817,308.447v 4.16821" fill="none" stroke="black" stroke-width="2"/>
<path d="M494.166,304.279v 8.33641" fill="none" stroke="black" stroke-width="2"/>
<text x="105.557" y="323.689" fill="black" font-size="11.6535" font-family="Helvetica">
200
</text>
<text x="200.203" y="323.689" fill="black" font-size="11.6535" font-family="Helvetica">
400
</text>
<text x="294.849" y="323.689" fill="black" font-size="11.6535" font-family="Helvetica">
600
</text>
<text x="389.495" y="323.689" fill="black" font-size="11.6535" font-family="Helvetica">
800
</text>
<text x="480.355" y="323.689" fill="black" font-size="11.6535" font-family="Helvetica">
1000
</text>
<path d="M57.1929,312.616v -277.88" fill="none" stroke="black" stroke-width="2"/>
<path d="M70.7992,312.616h -13.6063" fill="none" stroke="black" stroke-width="2"/>
<path d="M63.9961,306.314h -6.80315" fill="none" stroke="black" stroke-width="2"/>
<path d="M63.9961,300.013h -6.80315" fill="none" stroke="black" stroke-width="2"/>
<path d="M63.9961,293.712h -6.80315" fill="none" stroke="black" stroke-width="2"/>
<path d="M70.7992,287.411h -13.6063" fill="none" stroke="black" stroke-width="2"/>
<path d="M63.9961,281.11h -6.80315" fill="none" stroke="black" stroke-width="2"/>
<path d="M63.9961,274.809h -6.80315" fill="none" stroke="black" stroke-width="2"/>
<path d="M63.9961,268.508h -6.80315" fill="none" stroke="black" stroke-width="2"/>
<path d="M70.7992,262.206h -13.6063" fill="none" stroke="black" stroke-width="2"/>
<path d="M63.9961,255.905h -6.80315" fill="none" stroke="black" stroke-width="2"/>
<path d="M63.9961,249.604h -6.80315" fill="none" stroke="black" stroke-width="2"/>
<path d="M63.9961,243.303h -6.80315" fill="none" stroke="black" stroke-width="2"/>
<path d="M70.7992,237.002h -13.6063" fill="none" stroke="black" stroke-width="2"/>
<path d="M63.9961,230.701h -6.80315" fill="none" stroke="black" stroke-width="2"/>
<path d="M63.9961,224.4h -6.80315" fill="none" stroke="black" stroke-width="2"/>
<path d="M63.9961,218.098h -6.80315" fill="none" stroke="black" stroke-width="2"/>
<path d="M70.7992,211.797h -13.6063" fill="none" stroke="black" stroke-width="2"/>
<path d="M63.9961,205.496h -6.80315" fill="none" stroke="black" stroke-width="2"/>
<path d="M63.9961,199.195h -6.80315" fill="none" stroke="black" stroke-width="2"/>
<path d="M63.9961,192.894h -6.80315" fill="none" stroke="black" stroke-width="2"/>
<path d="M70.7992,186.593h -13.6063" fill="none" stroke="black" stroke-width="2"/>
<path d="M63.9961,180.291h -6.80315" fill="none" stroke="black" stroke-width="2"/>
<path d="M63.9961,173.99h -6.80315" fill="none" stroke="black" stroke-width="2"/>
<path d="M63.9961,167.689h -6.80315" fill="none" stroke="black" stroke-width="2"/>
<path d="M70.7992,161.388h -13.6063" fill="none" stroke="black" stroke-width="2"/>
<path d="M63.9961,155.087h -6.80315" fill="none" stroke="black" stroke-width="2"/>
<path d="M63.9961,148.786h -6.80315" fill="none" stroke="black" stroke-width="2"/>
<path d="M63.9961,142.485h -6.80315" fill="none" stroke="black" stroke-width="2"/>
<path d="M70.7992,136.183h -13.6063" fill="none" stroke="black" stroke-width="2"/>
<path d="M63.9961,129.882h -6.80315" fill="none" stroke="black" stroke-width="2"/>
<path d="M63.9961,123.581h -6.80315" fill="none" stroke="black" stroke-width="2"/>
<path d="M63.9961,117.28h -6.80315" fill="none" stroke="black" stroke-width="2"/>
<path d="M70.7992,110.979h -13.6063" fill="none" stroke="black" stroke-width="2"/>
<path d="M63.9961,104.678h -6.80315" fill="none" stroke="black" stroke-width="2"/>
<path d="M63.9961,98.3766h -6.80315" fill="none" stroke="black" stroke-width="2"/>
<path d="M63.9961,92.0755h -6.80315" fill="none" stroke="black" stroke-width="2"/>
<path d="M70.7992,85.7743h -13.6063" fill="none" stroke="black" stroke-width="2"/>
<path d="M63.9961,79.4732h -6.80315" fill="none" stroke="black" stroke-width="2"/>
<path d="M63.9961,73.172h -6.80315" fill="none" stroke="black" stroke-width="2"/>
<path d="M63.9961,66.8709h -6.80315" fill="none" stroke="black" stroke-width="2"/>
<path d="M70.7992,60.5698h -13.6063" fill="none" stroke="black" stroke-width="2"/>
<path d="M63.9961,54.2686h -6.80315" fill="none" stroke="black" stroke-width="2"/>
<path d="M63.9961,47.9675h -6.80315" fill="none" stroke="black" stroke-width="2"/>
<path d="M63.9961,41.6663h -6.80315" fill="none" stroke="black" stroke-width="2"/>
<path d="M70.7992,35.3652h -13.6063" fill="none" stroke="black" stroke-width="2"/>
<path d="M70.7992,35.3652h -13.6063" fill="none" stroke="black" stroke-width="2"/>
<text x="46.8765" y="317.064" fill="black" font-size="11.6535" font-family="Helvetica">
0
</text>
<text x="46.8765" y="291.509" fill="black" font-size="11.6535" font-family="Helvetica">
2
</text>
<text x="46.8765" y="266.902" fill="black" font-size="11.6535" font-family="Helvetica">
4
</text>
<text x="46.8765" y="241.347" fill="black" font-size="11.6535" font-family="Helvetica">
6
</text>
<text x="46.8765" y="215.793" fill="black" font-size="11.6535" font-family="Helvetica">
8
</text>
<text x="41.1978" y="191.185" fill="black" font-size="11.6535" font-family="Helvetica">
10
</text>
<text x="41.1978" y="165.63" fill="black" font-size="11.6535" font-family="Helvetica">
12
</text>
<text x="41.1978" y="140.076" fill="black" font-size="11.6535" font-family="Helvetica">
14
</text>
<text x="41.1978" y="115.468" fill="black" font-size="11.6535" font-family="Helvetica">
16
</text>
<text x="41.1978" y="89.9136" fill="black" font-size="11.6535" font-family="Helvetica">
18
</text>
<text x="41.1978" y="64.3592" fill="black" font-size="11.6535" font-family="Helvetica">
20
</text>
<text x="41.1978" y="39.7513" fill="black" font-size="11.6535" font-family="Helvetica">
22
</text>
<rect x="351.996" y="22.5778" width="204.094" height="97.2582" fill="white"/>
<path d="M351.996,119.836h 204.094" fill="none" stroke="black" stroke-width="2"/>
<path d="M556.091,119.836v -97.2582" fill="none" stroke="black" stroke-width="2"/>
<path d="M556.091,22.5778h -204.094" fill="none" stroke="black" stroke-width="2"/>
<path d="M351.996,22.5778v 97.2582" fill="none" stroke="black" stroke-width="2"/>
<text x="373.405" y="34.0725" fill="black" font-size="12.0391" font-family="Helvetica">
 / ndf 
</text>
<text x="368.673" y="30.2867" fill="black" font-size="8.19275" font-family="Helvetica">
2
</text>
<text x="362.047" y="34.0725" fill="black" font-size="12.0391" font-family="Times">
&#0967;
</text>
<text x="486.98" y="35.019" fill="black" font-size="12.0391" font-family="Helvetica">
 83.14 / 124
</text>
<text x="362.047" y="51.1088" fill="black" font-size="12.0391" font-family="Helvetica">
Centroid 
</text>
<text x="529.571" y="51.1088" fill="black" font-size="12.0391" font-family="Helvetica">
 1.1
</text>
<text x="522.946" y="51.1088" fill="black" font-size="12.0391" font-family="Times">
&#0177;
</text>
<text x="488.873" y="51.1088" fill="black" font-size="12.0391" font-family="Helvetica">
 571.3 
</text>
<text x="362.047" y="67.1986" fill="black" font-size="12.0391" font-family="Helvetica">
FWHM     
</text>
<text x="521.053" y="67.1986" fill="black" font-size="12.0391" font-family="Helvetica">
 2.84
</text>
<text x="514.427" y="67.1986" fill="black" font-size="12.0391" font-family="Times">
&#0177;
</text>
<text x="480.355" y="67.1986" fill="black" font-size="12.0391" font-family="Helvetica">
 45.87 
</text>
<text x="362.047" y="83.2884" fill="black" font-size="12.0391" font-family="Helvetica">
Counts   
</text>
<text x="521.053" y="83.2884" fill="black" font-size="12.0391" font-family="Helvetica">
 33.0
</text>
<text x="514.427" y="83.2884" fill="black" font-size="12.0391" font-family="Times">
&#0177;
</text>
<text x="480.355" y="83.2884" fill="black" font-size="12.0391" font-family="Helvetica">
 516.2 
</text>
<text x="362.047" y="98.4318" fill="black" font-size="12.0391" font-family="Helvetica">
Intercept 
</text>
<text x="527.678" y="99.3782" fill="black" font-size="12.0391" font-family="Helvetica">
 0.6
</text>
<text x="521.053" y="99.3782" fill="black" font-size="12.0391" font-family="Times">
&#0177;
</text>
<text x="496.445" y="99.3782" fill="black" font-size="12.0391" font-family="Helvetica">
   1.1 
</text>
<text x="362.047" y="115.468" fill="black" font-size="12.0391" font-family="Helvetica">
Slope    
</text>
<text x="489.819" y="116.414" fill="black" font-size="12.0391" font-family="Helvetica">
 0.0010206
</text>
<text x="483.194" y="116.414" fill="black" font-size="12.0391" font-family="Times">
&#0177;
</text>
<text x="427.353" y="116.414" fill="black" font-size="12.0391" font-family="Helvetica">
0.0001807 
</text>
<text x="420.728" y="116.414" fill="black" font-size="12.0391" font-family="Times">
&#8722;
</text>
<text x="417.889" y="116.414" fill="black" font-size="12.0391" font-family="Helvetica">
 
</text>
<path d="M59.4606,312.616h 190.488l 4.53543, -0.0499083l 4.53543, -0.260823l 4.53543, -1.20983l 4.53543, -4.3277l 4.53543, -11.8307l 4.53543, -24.3253l 4.53543, -36.4355" fill="none" stroke="#00ff00" stroke-width="2"/>
<path d="M281.697,234.176l 4.53543, -36.6894l 4.53543, -17.6839l 4.53543, 12.392l 4.53543, 34.6047l 4.53543, 37.7497l 4.53543, 26.9063l 4.53543, 13.8388l 4.53543, 5.33054l 4.53543, 1.56555l 4.53543, 0.354101l 4.53543, 0.0715003h 172.346" fill="none"
 stroke="#00ff00" stroke-width="2"/>
<path d="M503.933,312.616h 4.53543" fill="none" stroke="#00ff00" stroke-width="2"/>
<text x="96.0924" y="16.0898" fill="black" font-size="13.2246" font-family="Helvetica">
Wk3/22Na-Coin-511Window-fullrange0_5us10V_90degrees.Spe
</text></svg>
