<?xml version="1.0" standalone="no"?>
<svg width="567.429" height="393.168" viewBox="0 0 567.429 393.168" xmlns="http://www.w3.org/2000/svg">
<title>
/home/ADF/hyw543/Coincidence/c1.svg
</title>
<desc>
Creator: ROOT Version 6.06/08
CreationDate: Tue Jan  8 18:34:42 2019</desc>
<defs>
</defs>
<rect x="0.5" y="0" width="566.929" height="392.668" fill="white"/>
<rect x="57.1929" y="39.2668" width="453.543" height="314.134" fill="white"/>
<rect x="57.1929" y="39.2668" width="453.543" height="314.134" fill="none" stroke="black"/>
<rect x="57.1929" y="39.2668" width="453.543" height="314.134" fill="white"/>
<rect x="57.1929" y="39.2668" width="453.543" height="314.134" fill="none" stroke="black"/>
<path d="M57.1929,350.097h 1.7444v -1.53423h 1.7444v 1.77027h 1.7444v -0.354054h 1.7444v 0.472072h 1.7444v 0.472072h 1.7444v -1.18018h 1.7444v -1.2982h 1.7444v 1.06216h 1.7444v 0.118018h 1.7444v 0.708108h 1.7444v 0.236036h 1.7444v -0.708108h 1.7444v
 0.59009h 1.7444v -2.00631h 1.7444v 0.826126h 1.7444v 0.59009h 1.7444v -1.06216h 1.7444v -0.826126h 1.7444v 0.236036h 1.7444v 1.2982h 1.7444v -1.18018h 1.7444v 0.472072h 1.7444v -2.00631h 1.7444v -0.472072h 1.7444v -0.118018h 1.7444v -0.118018h
 1.7444v -2.12432h 1.7444v 2.36036h 1.7444v -0.59009h 1.7444v -1.53423h 1.7444v -3.65856h 1.7444v -2.95045h 1.7444v 2.83243h 1.7444v -0.354054h 1.7444v -1.65225h 1.7444v -2.24234h 1.7444v 1.06216h 1.7444v -2.36036h 1.7444v -0.826126h 1.7444v
 -3.77658h 1.7444v 0.118018h 1.7444v -4.01261h 1.7444v -2.36036h 1.7444v -5.19279h 1.7444v 1.41622h 1.7444v -2.71441h 1.7444v -3.18649h 1.7444v -5.42883h 1.7444v -3.54054h 1.7444v -2.36036h 1.7444v -3.18649h 1.7444v -3.77658h 1.7444v -1.77027h
 1.7444v -3.3045h 1.7444v -3.18649h 1.7444v -13.6901h 1.7444v -3.06847h 1.7444v -0.472072h 1.7444v -3.06847h 1.7444v -3.8946h 1.7444v -11.6838h 1.7444v -5.07478h 1.7444v 2.47838h 1.7444v -7.1991h 1.7444v -8.02523h 1.7444v -11.5658h 1.7444v -7.31712h
 1.7444v 2.36036h 1.7444v -5.78288h 1.7444v -10.6216h 1.7444v -3.18649h 1.7444v -14.6342h 1.7444v -0.944144h 1.7444v -10.3856h 1.7444v 3.54054h 1.7444v -15.4604h 1.7444v 0.354054h 1.7444v -15.2243h 1.7444v -9.08739h 1.7444v -3.8946h 1.7444v 1.65225h
 1.7444v -22.1874h 1.7444v -2.24234h 1.7444v -7.55315h 1.7444v 5.9009h 1.7444v -8.85135h 1.7444v 4.36667h 1.7444v -16.5225h 1.7444v -23.1315h 1.7444v 15.3423h 1.7444v -3.06847h 1.7444v -7.67117h 1.7444v 10.5036h 1.7444v -13.1h 1.7444v 0.236036h
 1.7444v -11.6838h 1.7444v 6.37297h 1.7444v 9.32342h 1.7444v -2.47838h 1.7444v -5.66487h 1.7444v 2.71441h 1.7444v 8.37928h 1.7444v -0.708108h 1.7444v 2.83243h 1.7444v -1.06216h 1.7444v 11.9198h 1.7444v -1.18018h 1.7444v -6.49099h 1.7444v 14.9883h
 1.7444v 5.31081h 1.7444v 13.9261h 1.7444v 3.06847h 1.7444v -2.71441h 1.7444v -1.77027h 1.7444v 14.1622h 1.7444v 14.3982h 1.7444v 7.31712h 1.7444v 6.72703h 1.7444v 15.8144h 1.7444v -3.42252h 1.7444v 5.19279h 1.7444v 8.85135h 1.7444v 9.7955h 1.7444v
 9.67748h 1.7444v 13.8081h 1.7444v 2.47838h 1.7444v 5.07478h 1.7444v 6.84505h 1.7444v 8.73333h 1.7444v 3.65856h 1.7444v 12.864h 1.7444v 2.24234h 1.7444v -1.06216h 1.7444v 16.2865h 1.7444v 6.60901h 1.7444v -0.708108h 1.7444v 7.43514h 1.7444v 4.72072h
 1.7444v 2.5964h 1.7444v 7.1991h 1.7444v 4.95676h 1.7444v 7.31712h 1.7444v 0.118018h 1.7444v 1.06216h 1.7444v 5.42883h 1.7444v 6.37297h 1.7444v -0.118018h 1.7444v 4.83874h 1.7444v -1.88829h 1.7444v 4.48469h 1.7444v 1.77027h 1.7444v 0.59009h 1.7444v
 4.48469h 1.7444v 0.118018h 1.7444v 2.5964h 1.7444v 0.472072h 1.7444v 1.53423h 1.7444v 1.77027h 1.7444v -0.236036h 1.7444v 2.83243h 1.7444v -0.118018h 1.7444v 0.472072h 1.7444v -0.354054h 1.7444v 0.708108h 1.7444v 0.236036h 1.7444v 2.12432h 1.7444v
 -0.708108h 1.7444v 0.354054h 1.7444v 0.59009h 1.7444v 0.472072h 1.7444v 0.236036h 1.7444v 0.236036h 1.7444v 0.236036h 3.48879v 0.944144h 1.7444v -0.236036h 1.7444v -0.826126h 1.7444v 0.708108h 1.7444v 0.59009h 3.48879v -0.118018h 3.48879v 0.354054h
 1.7444v -0.236036h 1.7444v 0.472072h 1.7444v -0.354054h 1.7444v 0.472072h 1.7444v -0.118018h 1.7444v -0.236036h 1.7444v 0.236036h 1.7444v -0.236036h 1.7444v 0.59009h 1.7444v -0.472072h 1.7444v 0.236036h 3.48879v -0.354054h 1.7444v 0.236036h 3.48879v
 -0.354054h 1.7444v 0.236036h 1.7444v 0.236036h 1.7444v -0.472072h 1.7444v 0.59009h 1.7444v 0.118018h 1.7444v -0.236036h 1.7444v -0.118018h 1.7444v -0.118018h 1.7444v -0.236036h 1.7444v -0.236036h 1.7444v -0.118018h 1.7444v 1.06216h 1.7444v
 -0.472072h 1.7444v -0.59009h 1.7444v 1.06216h 1.7444v -0.708108h 1.7444v 0.472072h 1.7444v -0.236036h 1.7444v -0.118018h 1.7444v -0.118018h 1.7444v 0.118018h 1.7444v 0.236036h 1.7444v -0.472072h 1.7444v 0.354054h 1.7444v 0.118018h 1.7444v -0.472072h
 1.7444v 0.354054h 1.7444v 0.118018h 3.48879v -0.118018h 1.7444v -0.236036h 1.7444v 0.472072h 1.7444v -0.354054h 1.7444v -0.354054h 1.7444v 0.826126h 1.7444v -0.236036h 1.7444v -0.118018h 1.7444v -0.118018h 1.7444v 0.472072h 3.48879v -0.708108h
 1.7444v 0.708108h 1.7444v -0.118018h 1.7444v 0.118018h 1.7444v -0.472072h 1.7444v 0.472072h 1.7444v -0.472072h 1.7444v 0.118018h 3.48879v 0.118018h 1.7444v -0.236036h 1.7444v 0.236036h 1.7444v 0.472072h 1.7444v -0.59009h 1.7444v 0.236036h 1.7444v
 -0.472072h 1.7444v 0.236036h 1.7444v 0.118018h 1.7444v 0.236036h 1.7444v -0.354054h 1.7444" fill="none" stroke="#ff0000" stroke-width="2"/>
<path d="M59.4606,350.542l 4.53543, -0.0230111l 4.53543, -0.0480321l 4.53543, -0.0837397l 4.53543, -0.133997l 4.53543, -0.20375l 4.53543, -0.299198l 4.53543, -0.427944l 4.53543, -0.59909l 4.53543, -0.823254l 4.53543, -1.11245l 4.53543, -1.47985l
 4.53543, -1.93924l 4.53543, -2.50442l 4.53543, -3.18816l 4.53543, -4.00101l 4.53543, -4.94993l 4.53543, -6.03663l 4.53543, -7.25598l 4.53543, -8.59445l 4.53543, -10.0288l 4.53543, -11.5251l 4.53543, -13.0386l 4.53543, -14.5143l 4.53543, -15.8881l
 4.53543, -17.0895l 4.53543, -18.0447l 4.53543, -18.681l 4.53543, -18.9311l 4.53543, -18.7386l 4.53543, -18.0622l 4.53543, -16.8805l 4.53543, -15.1946l 4.53543, -13.0305l 4.53543, -10.4389l 4.53543, -7.49368l 4.53543, -4.28855l 4.53543, -0.932119l
 4.53543, 2.45819l 4.53543, 5.76297l 4.53543, 8.86783l 4.53543, 11.6699l 4.53543, 14.0836l 4.53543, 16.0449l 4.53543, 17.5135l 4.53543, 18.4746l 4.53543, 18.937l 4.53543, 18.9312l 4.53543, 18.5057l 4.53543, 17.7222" fill="none" stroke="#0000ff"
 stroke-width="2"/>
<path d="M281.697,233.009l 4.53543, 16.651l 4.53543, 15.3658l 4.53543, 13.9394l 4.53543, 12.4399l 4.53543, 10.9276l 4.53543, 9.45339l 4.53543, 8.05717l 4.53543, 6.76817l 4.53543, 5.60529l 4.53543, 4.57823l 4.53543, 3.68896l 4.53543, 2.93327l 4.53543,
 2.30248l 4.53543, 1.78489l 4.53543, 1.36716l 4.53543, 1.03539l 4.53543, 0.775993l 4.53543, 0.576251l 4.53543, 0.424733l 4.53543, 0.311476l 4.53543, 0.228035l 4.53543, 0.167432l 4.53543, 0.124033l 4.53543, 0.0933835l 4.53543, 0.0720347l 4.53543,
 0.057366l 4.53543, 0.0474228l 4.53543, 0.0407727l 4.53543, 0.036384l 4.53543, 0.0335258l 4.53543, 0.0316888l 4.53543, 0.0305235l 4.53543, 0.0297938l 4.53543, 0.0293428l 4.53543, 0.0290676l 4.53543, 0.0289018l 4.53543, 0.0288033l 4.53543, 0.0287454l
 4.53543, 0.0287118l 4.53543, 0.0286926l 4.53543, 0.0286818l 4.53543, 0.0286757l 4.53543, 0.0286724l 4.53543, 0.0286706l 4.53543, 0.0286696l 4.53543, 0.0286691l 4.53543, 0.0391466h 9.07087" fill="none" stroke="#0000ff" stroke-width="2"/>
<path d="M503.933,353.401h 4.53543" fill="none" stroke="#0000ff" stroke-width="2"/>
<rect x="351.996" y="25.5234" width="204.094" height="109.947" fill="white"/>
<path d="M351.996,135.471h 204.094" fill="none" stroke="black" stroke-width="2"/>
<path d="M556.091,135.471v -109.947" fill="none" stroke="black" stroke-width="2"/>
<path d="M556.091,25.5234h -204.094" fill="none" stroke="black" stroke-width="2"/>
<path d="M351.996,25.5234v 109.947" fill="none" stroke="black" stroke-width="2"/>
<text x="373.419" y="37.1757" fill="black" font-size="12.2012" font-family="Helvetica">
 / ndf 
</text>
<text x="368.772" y="33.6905" fill="black" font-size="8.30081" font-family="Helvetica">
2
</text>
<text x="361.801" y="37.1757" fill="black" font-size="12.2012" font-family="Times">
&#0967;
</text>
<text x="484.946" y="38.3374" fill="black" font-size="12.2012" font-family="Helvetica">
 645.4 / 254
</text>
<text x="361.801" y="56.9253" fill="black" font-size="12.2012" font-family="Helvetica">
Centroid 
</text>
<text x="527.93" y="56.9253" fill="black" font-size="12.2012" font-family="Helvetica">
 0.1
</text>
<text x="520.96" y="56.9253" fill="black" font-size="12.2012" font-family="Times">
&#0177;
</text>
<text x="487.269" y="56.9253" fill="black" font-size="12.2012" font-family="Helvetica">
 878.9 
</text>
<text x="361.801" y="76.6748" fill="black" font-size="12.2012" font-family="Helvetica">
FWHM     
</text>
<text x="519.798" y="75.5131" fill="black" font-size="12.2012" font-family="Helvetica">
 0.12
</text>
<text x="512.827" y="75.5131" fill="black" font-size="12.2012" font-family="Times">
&#0177;
</text>
<text x="479.137" y="75.5131" fill="black" font-size="12.2012" font-family="Helvetica">
 56.18 
</text>
<text x="361.801" y="94.1009" fill="black" font-size="12.2012" font-family="Helvetica">
Counts   
</text>
<text x="487.269" y="94.1009" fill="black" font-size="12.2012" font-family="Helvetica">
 3.971e+02
</text>
<text x="480.299" y="94.1009" fill="black" font-size="12.2012" font-family="Times">
&#0177;
</text>
<text x="419.888" y="94.1009" fill="black" font-size="12.2012" font-family="Helvetica">
 1.461e+05 
</text>
<text x="361.801" y="110.365" fill="black" font-size="12.2012" font-family="Helvetica">
Intercept 
</text>
<text x="519.798" y="111.527" fill="black" font-size="12.2012" font-family="Helvetica">
 5.07
</text>
<text x="512.827" y="111.527" fill="black" font-size="12.2012" font-family="Times">
&#0177;
</text>
<text x="479.137" y="111.527" fill="black" font-size="12.2012" font-family="Helvetica">
 96.59 
</text>
<text x="361.801" y="128.953" fill="black" font-size="12.2012" font-family="Helvetica">
Slope    
</text>
<text x="502.372" y="130.115" fill="black" font-size="12.2012" font-family="Helvetica">
 0.00511
</text>
<text x="495.401" y="130.115" fill="black" font-size="12.2012" font-family="Times">
&#0177;
</text>
<text x="451.255" y="130.115" fill="black" font-size="12.2012" font-family="Helvetica">
0.09343 
</text>
<text x="444.285" y="130.115" fill="black" font-size="12.2012" font-family="Times">
&#8722;
</text>
<text x="441.961" y="130.115" fill="black" font-size="12.2012" font-family="Helvetica">
 
</text>
<path d="M57.1929,353.401h 453.543" fill="none" stroke="black" stroke-width="2"/>
<text x="458.226" y="381.051" fill="black" font-size="13.1086" font-family="Helvetica">
Channels
</text>
<path d="M88.5921,343.977v 9.42404" fill="none" stroke="black" stroke-width="2"/>
<path d="M123.48,348.689v 4.71202" fill="none" stroke="black" stroke-width="2"/>
<path d="M158.368,348.689v 4.71202" fill="none" stroke="black" stroke-width="2"/>
<path d="M193.256,348.689v 4.71202" fill="none" stroke="black" stroke-width="2"/>
<path d="M228.144,348.689v 4.71202" fill="none" stroke="black" stroke-width="2"/>
<path d="M263.032,343.977v 9.42404" fill="none" stroke="black" stroke-width="2"/>
<path d="M297.92,348.689v 4.71202" fill="none" stroke="black" stroke-width="2"/>
<path d="M332.808,348.689v 4.71202" fill="none" stroke="black" stroke-width="2"/>
<path d="M367.696,348.689v 4.71202" fill="none" stroke="black" stroke-width="2"/>
<path d="M402.584,348.689v 4.71202" fill="none" stroke="black" stroke-width="2"/>
<path d="M437.472,343.977v 9.42404" fill="none" stroke="black" stroke-width="2"/>
<path d="M88.5921,343.977v 9.42404" fill="none" stroke="black" stroke-width="2"/>
<path d="M437.472,343.977v 9.42404" fill="none" stroke="black" stroke-width="2"/>
<path d="M472.359,348.689v 4.71202" fill="none" stroke="black" stroke-width="2"/>
<path d="M507.247,348.689v 4.71202" fill="none" stroke="black" stroke-width="2"/>
<text x="77.1748" y="365.948" fill="black" font-size="13.1086" font-family="Helvetica">
800
</text>
<text x="251.436" y="365.948" fill="black" font-size="13.1086" font-family="Helvetica">
900
</text>
<text x="423.373" y="365.948" fill="black" font-size="13.1086" font-family="Helvetica">
1000
</text>
<path d="M57.1929,353.401v -314.134" fill="none" stroke="black" stroke-width="2"/>
<path d="M70.7992,353.401h -13.6063" fill="none" stroke="black" stroke-width="2"/>
<path d="M63.9961,341.6h -6.80315" fill="none" stroke="black" stroke-width="2"/>
<path d="M63.9961,329.798h -6.80315" fill="none" stroke="black" stroke-width="2"/>
<path d="M63.9961,317.996h -6.80315" fill="none" stroke="black" stroke-width="2"/>
<path d="M63.9961,306.194h -6.80315" fill="none" stroke="black" stroke-width="2"/>
<path d="M70.7992,294.392h -13.6063" fill="none" stroke="black" stroke-width="2"/>
<path d="M63.9961,282.59h -6.80315" fill="none" stroke="black" stroke-width="2"/>
<path d="M63.9961,270.789h -6.80315" fill="none" stroke="black" stroke-width="2"/>
<path d="M63.9961,258.987h -6.80315" fill="none" stroke="black" stroke-width="2"/>
<path d="M63.9961,247.185h -6.80315" fill="none" stroke="black" stroke-width="2"/>
<path d="M70.7992,235.383h -13.6063" fill="none" stroke="black" stroke-width="2"/>
<path d="M63.9961,223.581h -6.80315" fill="none" stroke="black" stroke-width="2"/>
<path d="M63.9961,211.78h -6.80315" fill="none" stroke="black" stroke-width="2"/>
<path d="M63.9961,199.978h -6.80315" fill="none" stroke="black" stroke-width="2"/>
<path d="M63.9961,188.176h -6.80315" fill="none" stroke="black" stroke-width="2"/>
<path d="M70.7992,176.374h -13.6063" fill="none" stroke="black" stroke-width="2"/>
<path d="M63.9961,164.572h -6.80315" fill="none" stroke="black" stroke-width="2"/>
<path d="M63.9961,152.771h -6.80315" fill="none" stroke="black" stroke-width="2"/>
<path d="M63.9961,140.969h -6.80315" fill="none" stroke="black" stroke-width="2"/>
<path d="M63.9961,129.167h -6.80315" fill="none" stroke="black" stroke-width="2"/>
<path d="M70.7992,117.365h -13.6063" fill="none" stroke="black" stroke-width="2"/>
<path d="M63.9961,105.563h -6.80315" fill="none" stroke="black" stroke-width="2"/>
<path d="M63.9961,93.7616h -6.80315" fill="none" stroke="black" stroke-width="2"/>
<path d="M63.9961,81.9598h -6.80315" fill="none" stroke="black" stroke-width="2"/>
<path d="M63.9961,70.158h -6.80315" fill="none" stroke="black" stroke-width="2"/>
<path d="M70.7992,58.3562h -13.6063" fill="none" stroke="black" stroke-width="2"/>
<path d="M70.7992,58.3562h -13.6063" fill="none" stroke="black" stroke-width="2"/>
<path d="M63.9961,46.5544h -6.80315" fill="none" stroke="black" stroke-width="2"/>
<text x="46.9696" y="357.816" fill="black" font-size="13.1086" font-family="Helvetica">
0
</text>
<text x="33.0287" y="298.567" fill="black" font-size="13.1086" font-family="Helvetica">
500
</text>
<text x="26.0583" y="239.318" fill="black" font-size="13.1086" font-family="Helvetica">
1000
</text>
<text x="26.0583" y="180.07" fill="black" font-size="13.1086" font-family="Helvetica">
1500
</text>
<text x="26.0583" y="121.983" fill="black" font-size="13.1086" font-family="Helvetica">
2000
</text>
<text x="26.0583" y="62.734" fill="black" font-size="13.1086" font-family="Helvetica">
2500
</text>
<rect x="351.996" y="25.5234" width="204.094" height="109.947" fill="white"/>
<path d="M351.996,135.471h 204.094" fill="none" stroke="black" stroke-width="2"/>
<path d="M556.091,135.471v -109.947" fill="none" stroke="black" stroke-width="2"/>
<path d="M556.091,25.5234h -204.094" fill="none" stroke="black" stroke-width="2"/>
<path d="M351.996,25.5234v 109.947" fill="none" stroke="black" stroke-width="2"/>
<text x="373.419" y="37.1757" fill="black" font-size="12.2012" font-family="Helvetica">
 / ndf 
</text>
<text x="368.772" y="33.6905" fill="black" font-size="8.30081" font-family="Helvetica">
2
</text>
<text x="361.801" y="37.1757" fill="black" font-size="12.2012" font-family="Times">
&#0967;
</text>
<text x="484.946" y="38.3374" fill="black" font-size="12.2012" font-family="Helvetica">
 645.4 / 254
</text>
<text x="361.801" y="56.9253" fill="black" font-size="12.2012" font-family="Helvetica">
Centroid 
</text>
<text x="527.93" y="56.9253" fill="black" font-size="12.2012" font-family="Helvetica">
 0.1
</text>
<text x="520.96" y="56.9253" fill="black" font-size="12.2012" font-family="Times">
&#0177;
</text>
<text x="487.269" y="56.9253" fill="black" font-size="12.2012" font-family="Helvetica">
 878.9 
</text>
<text x="361.801" y="76.6748" fill="black" font-size="12.2012" font-family="Helvetica">
FWHM     
</text>
<text x="519.798" y="75.5131" fill="black" font-size="12.2012" font-family="Helvetica">
 0.12
</text>
<text x="512.827" y="75.5131" fill="black" font-size="12.2012" font-family="Times">
&#0177;
</text>
<text x="479.137" y="75.5131" fill="black" font-size="12.2012" font-family="Helvetica">
 56.18 
</text>
<text x="361.801" y="94.1009" fill="black" font-size="12.2012" font-family="Helvetica">
Counts   
</text>
<text x="487.269" y="94.1009" fill="black" font-size="12.2012" font-family="Helvetica">
 3.971e+02
</text>
<text x="480.299" y="94.1009" fill="black" font-size="12.2012" font-family="Times">
&#0177;
</text>
<text x="419.888" y="94.1009" fill="black" font-size="12.2012" font-family="Helvetica">
 1.461e+05 
</text>
<text x="361.801" y="110.365" fill="black" font-size="12.2012" font-family="Helvetica">
Intercept 
</text>
<text x="519.798" y="111.527" fill="black" font-size="12.2012" font-family="Helvetica">
 5.07
</text>
<text x="512.827" y="111.527" fill="black" font-size="12.2012" font-family="Times">
&#0177;
</text>
<text x="479.137" y="111.527" fill="black" font-size="12.2012" font-family="Helvetica">
 96.59 
</text>
<text x="361.801" y="128.953" fill="black" font-size="12.2012" font-family="Helvetica">
Slope    
</text>
<text x="502.372" y="130.115" fill="black" font-size="12.2012" font-family="Helvetica">
 0.00511
</text>
<text x="495.401" y="130.115" fill="black" font-size="12.2012" font-family="Times">
&#0177;
</text>
<text x="451.255" y="130.115" fill="black" font-size="12.2012" font-family="Helvetica">
0.09343 
</text>
<text x="444.285" y="130.115" fill="black" font-size="12.2012" font-family="Times">
&#8722;
</text>
<text x="441.961" y="130.115" fill="black" font-size="12.2012" font-family="Helvetica">
 
</text>
<path d="M59.4606,353.305l 4.53543, -0.0516796l 4.53543, -0.0767006l 4.53543, -0.112408l 4.53543, -0.162666l 4.53543, -0.232419l 4.53543, -0.327866l 4.53543, -0.456612l 4.53543, -0.627759l 4.53543, -0.851922l 4.53543, -1.14112l 4.53543, -1.50851l
 4.53543, -1.96791l 4.53543, -2.53309l 4.53543, -3.21683l 4.53543, -4.02968l 4.53543, -4.9786l 4.53543, -6.0653l 4.53543, -7.28465l 4.53543, -8.62311l 4.53543, -10.0574l 4.53543, -11.5537l 4.53543, -13.0673l 4.53543, -14.5429l 4.53543, -15.9168l
 4.53543, -17.1182l 4.53543, -18.0734l 4.53543, -18.7097l 4.53543, -18.9598l 4.53543, -18.7673l 4.53543, -18.0909l 4.53543, -16.9091l 4.53543, -15.2232l 4.53543, -13.0592l 4.53543, -10.4676l 4.53543, -7.52235l 4.53543, -4.31721l 4.53543, -0.960788l
 4.53543, 2.42952l 4.53543, 5.7343l 4.53543, 8.83916l 4.53543, 11.6413l 4.53543, 14.055l 4.53543, 16.0162l 4.53543, 17.4849l 4.53543, 18.4459l 4.53543, 18.9083l 4.53543, 18.9025l 4.53543, 18.477l 4.53543, 17.6936" fill="none" stroke="#00ff00"
 stroke-width="2"/>
<path d="M281.697,234.367l 4.53543, 16.6223l 4.53543, 15.3371l 4.53543, 13.9107l 4.53543, 12.4112l 4.53543, 10.899l 4.53543, 9.42472l 4.53543, 8.0285l 4.53543, 6.7395l 4.53543, 5.57662l 4.53543, 4.54956l 4.53543, 3.66029l 4.53543, 2.9046l 4.53543,
 2.27381l 4.53543, 1.75622l 4.53543, 1.33849l 4.53543, 1.00672l 4.53543, 0.747325l 4.53543, 0.547582l 4.53543, 0.396065l 4.53543, 0.282807l 4.53543, 0.199366l 4.53543, 0.138764l 4.53543, 0.0953644l 4.53543, 0.064715l 4.53543, 0.0433662l 4.53543,
 0.0286975l 4.53543, 0.0187542l 4.53543, 0.0322918h 95.2441" fill="none" stroke="#00ff00" stroke-width="2"/>
<path d="M503.933,353.401h 4.53543" fill="none" stroke="#00ff00" stroke-width="2"/>
<text x="171.276" y="18.5878" fill="black" font-size="19.1696" font-family="Helvetica">
Wk2/Calibration/137Cs.Spe
</text></svg>
