<?xml version="1.0" standalone="no"?>
<svg width="567.429" height="367.821" viewBox="0 0 567.429 367.821" xmlns="http://www.w3.org/2000/svg">
<title>
/home/ADF/hyw543/Coincidence/c1.svg
</title>
<desc>
Creator: ROOT Version 6.06/08
CreationDate: Tue Jan  8 19:18:05 2019</desc>
<defs>
</defs>
<rect x="0.5" y="0" width="566.929" height="367.321" fill="white"/>
<rect x="57.1929" y="36.7321" width="453.543" height="293.857" fill="white"/>
<rect x="57.1929" y="36.7321" width="453.543" height="293.857" fill="none" stroke="black"/>
<rect x="57.1929" y="36.7321" width="453.543" height="293.857" fill="white"/>
<rect x="57.1929" y="36.7321" width="453.543" height="293.857" fill="none" stroke="black"/>
<path d="M57.1929,198.479h 1.1062v 31.2891h 1.1062v 10.4297h 1.1062v -26.0742h 1.1062v 13.9063h 1.1062v -33.0274h 1.1062v 24.3359h 1.1062v 10.4297h 1.1062v 8.69141h 2.21241v -10.4297h 1.1062v 1.73828h 1.1062v -33.0274h 1.1062v -10.4297h 1.1062v
 26.0742h 1.1062v -3.47656h 1.1062v 13.9063h 1.1062v -10.4297h 1.1062v 1.73828h 1.1062v -1.73828h 1.1062v 5.21485h 1.1062v -13.9063h 1.1062v 5.21485h 1.1062v 15.6445h 1.1062v -8.69141h 2.21241v -1.73828h 1.1062v -8.69141h 1.1062v -6.95313h 1.1062v
 1.73828h 1.1062v 29.5508h 1.1062v -27.8125h 1.1062v 12.168h 1.1062v -10.4297h 1.1062v 29.5508h 1.1062v -31.2891h 1.1062v 3.47656h 1.1062v -12.168h 1.1062v -12.168h 1.1062v 20.8594h 1.1062v -3.47656h 1.1062v -13.9063h 1.1062v -13.9063h 1.1062v
 41.7188h 1.1062v -15.6445h 1.1062v -36.5039h 1.1062v 33.0274h 1.1062v -15.6445h 1.1062v 3.47656h 1.1062v -31.2891h 1.1062v 12.168h 1.1062v 17.3828h 1.1062v -24.3359h 1.1062v 12.168h 1.1062v -20.8594h 1.1062v 33.0274h 1.1062v -15.6445h 1.1062v
 -29.5508h 1.1062v 22.5977h 1.1062v -24.3359h 1.1062v 36.5039h 1.1062v -19.1211h 1.1062v -31.2891h 1.1062v 20.8594h 1.1062v -36.5039h 1.1062v 10.4297h 1.1062v -3.47656h 1.1062v -19.1211h 1.1062v 20.8594h 1.1062v 3.47656h 1.1062v 3.47656h 1.1062v
 3.47656h 1.1062v -19.1211h 1.1062v 5.21485h 1.1062v -10.4297h 1.1062v 13.9063h 1.1062v -17.3828h 2.21241v -10.4297h 1.1062v -17.3828h 1.1062v 31.2891h 1.1062v -8.69141h 1.1062v -38.2422h 1.1062v 41.7188h 1.1062v -5.21485h 1.1062v 8.69141h 2.21241v
 -13.9063h 1.1062v -26.0742h 1.1062v 10.4297h 1.1062v 5.21485h 1.1062v -19.1211h 1.1062v 10.4297h 1.1062v 22.5977h 1.1062v 8.69141h 1.1062v -39.9805h 1.1062v 17.3828h 1.1062v -12.168h 1.1062v 13.9063h 1.1062v 8.69141h 1.1062v 31.2891h 1.1062v
 -10.4297h 1.1062v -1.73828h 2.21241v 19.1211h 2.21241v 5.21485h 1.1062v -41.7188h 1.1062v 53.8867h 1.1062v -3.47656h 1.1062v -5.21485h 1.1062v 29.5508h 1.1062v -60.8399h 1.1062v 33.0274h 1.1062v 3.47656h 2.21241v 13.9063h 2.21241v -19.1211h 1.1062v
 -3.47656h 1.1062v 41.7188h 1.1062v 24.3359h 1.1062v -36.5039h 1.1062v 19.1211h 1.1062v 13.9063h 1.1062v -43.457h 1.1062v 48.6719h 1.1062v -26.0742h 1.1062v 20.8594h 1.1062v -19.1211h 1.1062v 39.9805h 2.21241v -13.9063h 1.1062v 8.69141h 1.1062v
 -12.168h 1.1062v 29.5508h 2.21241v -22.5977h 1.1062v 34.7656h 1.1062v -22.5977h 1.1062v -3.47656h 2.21241v -19.1211h 1.1062v 27.8125h 1.1062v -3.47656h 1.1062v 36.5039h 1.1062v -36.5039h 1.1062v 15.6445h 1.1062v 20.8594h 1.1062v -20.8594h 1.1062v
 1.73828h 1.1062v 3.47656h 1.1062v -10.4297h 1.1062v 12.168h 1.1062v 8.69141h 1.1062v 10.4297h 1.1062v -26.0742h 1.1062v 12.168h 1.1062v -20.8594h 1.1062v 10.4297h 1.1062v 3.47656h 1.1062v 24.3359h 1.1062v -27.8125h 2.21241v -3.47656h 1.1062v
 -13.9063h 1.1062v 5.21485h 1.1062v 8.69141h 1.1062v 26.0742h 1.1062v -26.0742h 1.1062v 15.6445h 2.21241v -19.1211h 1.1062v -3.47656h 1.1062v -20.8594h 1.1062v 17.3828h 1.1062v 6.95313h 1.1062v 34.7656h 1.1062v -12.168h 1.1062v -33.0274h 1.1062v
 13.9063h 1.1062v -17.3828h 1.1062v 31.2891h 1.1062v -19.1211h 2.21241v -8.69141h 1.1062v 19.1211h 1.1062v -3.47656h 1.1062v -24.3359h 1.1062v 8.69141h 1.1062v 17.3828h 1.1062v -3.47656h 1.1062v -24.3359h 1.1062v 17.3828h 1.1062v -6.95313h 1.1062v
 17.3828h 1.1062v 13.9063h 1.1062v -3.47656h 1.1062v 1.73828h 1.1062v -26.0742h 1.1062v -5.21485h 1.1062v 6.95313h 1.1062v -8.69141h 1.1062v 13.9063h 1.1062v 1.73828h 1.1062v -15.6445h 1.1062v 29.5508h 1.1062v -26.0742h 1.1062v 10.4297h 1.1062v
 -15.6445h 1.1062v 6.95313h 1.1062v -10.4297h 1.1062v -1.73828h 1.1062v 31.2891h 1.1062v -8.69141h 1.1062v -20.8594h 1.1062v 27.8125h 1.1062v -8.69141h 1.1062v 10.4297h 1.1062v -12.168h 1.1062v 20.8594h 1.1062v -20.8594h 1.1062v 20.8594h 1.1062v
 12.168h 1.1062v -12.168h 1.1062v 10.4297h 1.1062v -17.3828h 1.1062v 13.9063h 1.1062v 8.69141h 1.1062v -3.47656h 1.1062v -6.95313h 1.1062v 1.73828h 1.1062v -6.95313h 1.1062v -5.21485h 2.21241v 12.168h 1.1062v 5.21485h 1.1062v -13.9063h 1.1062v
 6.95313h 1.1062v 1.73828h 1.1062v 12.168h 1.1062v -13.9063h 1.1062v 8.69141h 1.1062v -8.69141h 1.1062v 12.168h 1.1062v -10.4297h 1.1062v -1.73828h 2.21241v -8.69141h 1.1062v 15.6445h 1.1062v 6.95313h 1.1062v -13.9063h 1.1062v 17.3828h 1.1062v
 -33.0274h 1.1062v 22.5977h 1.1062v -12.168h 1.1062v 5.21485h 1.1062v 13.9063h 1.1062v -17.3828h 1.1062v 8.69141h 1.1062v 5.21485h 1.1062v -6.95313h 1.1062v -12.168h 1.1062v 5.21485h 1.1062v 22.5977h 1.1062v 1.73828h 1.1062v -34.7656h 1.1062v
 10.4297h 1.1062v -1.73828h 1.1062v 24.3359h 1.1062v -29.5508h 1.1062v -3.47656h 1.1062v 6.95313h 1.1062v -1.73828h 1.1062v -8.69141h 1.1062v 15.6445h 1.1062v 10.4297h 1.1062v -10.4297h 1.1062v -12.168h 1.1062v 24.3359h 1.1062v -24.3359h 1.1062v
 12.168h 1.1062v 1.73828h 1.1062v -39.9805h 1.1062v 17.3828h 2.21241v -12.168h 1.1062v 20.8594h 1.1062v -41.7188h 1.1062v 36.5039h 1.1062v -1.73828h 1.1062v -5.21485h 1.1062v 13.9063h 1.1062v -24.3359h 1.1062v -5.21485h 1.1062v -15.6445h 1.1062v
 27.8125h 1.1062v -36.5039h 1.1062v 6.95313h 1.1062v -10.4297h 1.1062v 13.9063h 1.1062v -1.73828h 1.1062v -6.95313h 1.1062v 12.168h 1.1062v -5.21485h 1.1062v -3.47656h 1.1062v 5.21485h 1.1062v -33.0274h 1.1062v 8.69141h 1.1062v -1.73828h 1.1062v
 12.168h 1.1062v 1.73828h 1.1062v -10.4297h 1.1062v 10.4297h 1.1062v -3.47656h 1.1062v -12.168h 1.1062v -3.47656h 2.21241v -3.47656h 1.1062v -13.9063h 1.1062v 24.3359h 1.1062v -39.9805h 1.1062v 12.168h 1.1062v -1.73828h 1.1062v 6.95313h 1.1062v
 19.1211h 1.1062v -17.3828h 1.1062v -5.21485h 1.1062v 19.1211h 1.1062v -6.95313h 1.1062v 6.95313h 1.1062v 5.21485h 1.1062v -27.8125h 1.1062v 15.6445h 1.1062v -22.5977h 1.1062v 46.9336h 1.1062v -48.6719h 1.1062v 43.457h 1.1062v 8.69141h 1.1062v
 5.21485h 1.1062v -17.3828h 1.1062v 15.6445h 1.1062v -13.9063h 1.1062v -8.69141h 1.1062v 1.73828h 1.1062v 20.8594h 2.21241v 12.168h 1.1062v -34.7656h 1.1062v 8.69141h 1.1062v 13.9063h 1.1062v 15.6445h 2.21241v -17.3828h 1.1062v 50.4102h 1.1062v
 -15.6445h 1.1062v -31.2891h 1.1062v 55.625h 1.1062v -24.3359h 1.1062v 8.69141h 1.1062v -19.1211h 1.1062v -15.6445h 1.1062v 33.0274h 1.1062v -12.168h 1.1062v 10.4297h 1.1062v 15.6445h 1.1062v 8.69141h 1.1062v -6.95313h 1.1062v -8.69141h 1.1062v
 15.6445h 1.1062v -3.47656h 1.1062v 1.73828h 1.1062v 8.69141h 1.1062v -20.8594h 1.1062v -15.6445h 1.1062v 38.2422h 1.1062v -10.4297h 1.1062v 15.6445h 1.1062v -1.73828h 1.1062v 19.1211h 1.1062v -22.5977h 1.1062v 10.4297h 1.1062v -1.73828h 1.1062v
 -5.21485h 1.1062v 1.73828h 1.1062v 13.9063h 1.1062v -13.9063h 2.21241v 10.4297h 1.1062v -39.9805h 1.1062v 26.0742h 1.1062v 5.21485h 1.1062v 8.69141h 1.1062v 3.47656h 1.1062v 12.168h 1.1062v -6.95313h 1.1062v -15.6445h 1.1062v 12.168h 1.1062v
 8.69141h 1.1062v -3.47656h 1.1062v -13.9063h 1.1062v 1.73828h 1.1062v 8.69141h 1.1062v 1.73828h 1.1062v -15.6445h 1.1062v 6.95313h 1.1062v 8.69141h 1.1062v 5.21485h 1.1062v -10.4297h 1.1062v 17.3828h 1.1062" fill="none" stroke="#ff0000"
 stroke-width="2"/>
<rect x="219.658" y="36.0118" width="159.481" height="157.423" fill="white"/>
<path d="M219.658,193.435h 159.481" fill="none" stroke="black" stroke-width="2"/>
<path d="M379.139,193.435v -157.423" fill="none" stroke="black" stroke-width="2"/>
<path d="M379.139,36.0118h -159.481" fill="none" stroke="black" stroke-width="2"/>
<path d="M219.658,36.0118v 157.423" fill="none" stroke="black" stroke-width="2"/>
<text x="237.149" y="45.272" fill="black" font-size="10.6627" font-family="Helvetica">
 / ndf 
</text>
<text x="233.034" y="42.1853" fill="black" font-size="7.27512" font-family="Helvetica">
2
</text>
<text x="226.86" y="45.272" fill="black" font-size="10.6627" font-family="Times">
&#0967;
</text>
<text x="317.404" y="46.3009" fill="black" font-size="10.6627" font-family="Helvetica">
 344.3 / 399
</text>
<text x="226.86" y="59.6768" fill="black" font-size="10.6627" font-family="Helvetica">
1-Centroid 
</text>
<text x="354.445" y="59.6768" fill="black" font-size="10.6627" font-family="Helvetica">
 0.6
</text>
<text x="348.271" y="59.6768" fill="black" font-size="10.6627" font-family="Times">
&#0177;
</text>
<text x="318.433" y="59.6768" fill="black" font-size="10.6627" font-family="Helvetica">
  1029 
</text>
<text x="226.86" y="73.0526" fill="black" font-size="10.6627" font-family="Helvetica">
1-FWHM   
</text>
<text x="348.271" y="72.0237" fill="black" font-size="10.6627" font-family="Helvetica">
 1.64
</text>
<text x="342.098" y="72.0237" fill="black" font-size="10.6627" font-family="Times">
&#0177;
</text>
<text x="312.26" y="72.0237" fill="black" font-size="10.6627" font-family="Helvetica">
 62.44 
</text>
<text x="226.86" y="85.3995" fill="black" font-size="10.6627" font-family="Helvetica">
1-Counts 
</text>
<text x="343.127" y="85.3995" fill="black" font-size="10.6627" font-family="Helvetica">
 178.7
</text>
<text x="336.953" y="85.3995" fill="black" font-size="10.6627" font-family="Times">
&#0177;
</text>
<text x="307.115" y="85.3995" fill="black" font-size="10.6627" font-family="Helvetica">
  5979 
</text>
<text x="226.86" y="98.7753" fill="black" font-size="10.6627" font-family="Helvetica">
2-Centroid 
</text>
<text x="355.474" y="98.7753" fill="black" font-size="10.6627" font-family="Helvetica">
 2.1
</text>
<text x="349.3" y="98.7753" fill="black" font-size="10.6627" font-family="Times">
&#0177;
</text>
<text x="319.462" y="98.7753" fill="black" font-size="10.6627" font-family="Helvetica">
  1140 
</text>
<text x="226.86" y="113.18" fill="black" font-size="10.6627" font-family="Helvetica">
2-FWHM   
</text>
<text x="348.271" y="112.151" fill="black" font-size="10.6627" font-family="Helvetica">
 5.77
</text>
<text x="342.098" y="112.151" fill="black" font-size="10.6627" font-family="Times">
&#0177;
</text>
<text x="312.26" y="112.151" fill="black" font-size="10.6627" font-family="Helvetica">
 48.02 
</text>
<text x="226.86" y="124.498" fill="black" font-size="10.6627" font-family="Helvetica">
2-Counts 
</text>
<text x="343.127" y="124.498" fill="black" font-size="10.6627" font-family="Helvetica">
 128.7
</text>
<text x="336.953" y="124.498" fill="black" font-size="10.6627" font-family="Times">
&#0177;
</text>
<text x="307.115" y="124.498" fill="black" font-size="10.6627" font-family="Helvetica">
 887.3 
</text>
<text x="226.86" y="137.874" fill="black" font-size="10.6627" font-family="Helvetica">
3-Centroid 
</text>
<text x="354.445" y="137.874" fill="black" font-size="10.6627" font-family="Helvetica">
 0.7
</text>
<text x="348.271" y="137.874" fill="black" font-size="10.6627" font-family="Times">
&#0177;
</text>
<text x="318.433" y="137.874" fill="black" font-size="10.6627" font-family="Helvetica">
  1267 
</text>
<text x="226.86" y="151.25" fill="black" font-size="10.6627" font-family="Helvetica">
3-FWHM   
</text>
<text x="348.271" y="151.25" fill="black" font-size="10.6627" font-family="Helvetica">
 2.25
</text>
<text x="342.098" y="151.25" fill="black" font-size="10.6627" font-family="Times">
&#0177;
</text>
<text x="312.26" y="151.25" fill="black" font-size="10.6627" font-family="Helvetica">
 62.86 
</text>
<text x="226.86" y="164.626" fill="black" font-size="10.6627" font-family="Helvetica">
3-Counts 
</text>
<text x="343.127" y="164.626" fill="black" font-size="10.6627" font-family="Helvetica">
 190.9
</text>
<text x="336.953" y="164.626" fill="black" font-size="10.6627" font-family="Times">
&#0177;
</text>
<text x="307.115" y="164.626" fill="black" font-size="10.6627" font-family="Helvetica">
  4468 
</text>
<text x="226.86" y="175.944" fill="black" font-size="10.6627" font-family="Helvetica">
Intercept 
</text>
<text x="354.445" y="176.972" fill="black" font-size="10.6627" font-family="Helvetica">
 0.5
</text>
<text x="348.271" y="176.972" fill="black" font-size="10.6627" font-family="Times">
&#0177;
</text>
<text x="318.433" y="176.972" fill="black" font-size="10.6627" font-family="Helvetica">
 143.4 
</text>
<text x="226.86" y="189.319" fill="black" font-size="10.6627" font-family="Helvetica">
Slope    
</text>
<text x="330.78" y="190.348" fill="black" font-size="10.6627" font-family="Helvetica">
 0.00067
</text>
<text x="324.607" y="190.348" fill="black" font-size="10.6627" font-family="Times">
&#0177;
</text>
<text x="285.508" y="190.348" fill="black" font-size="10.6627" font-family="Helvetica">
0.08486 
</text>
<text x="279.334" y="190.348" fill="black" font-size="10.6627" font-family="Times">
&#8722;
</text>
<text x="277.277" y="190.348" fill="black" font-size="10.6627" font-family="Helvetica">
 
</text>
<path d="M59.4606,219.608l 4.53543, 0.127971l 4.53543, -0.128086l 4.53543, -0.492366l 4.53543, -0.994551l 4.53543, -1.66457l 4.53543, -2.52835l 4.53543, -3.60216l 4.53543, -4.88573l 4.53543, -6.35524l 4.53543, -7.95726l 4.53543, -9.60524l 4.53543,
 -11.1802l 4.53543, -12.5368l 4.53543, -13.5152l 4.53543, -13.9589l 4.53543, -13.7346l 4.53543, -12.7542l 4.53543, -10.9927l 4.53543, -8.49944l 4.53543, -5.39962l 4.53543, -1.8853l 4.53543, 1.80414l 4.53543, 5.40898l 4.53543, 8.67931l 4.53543,
 11.4037l 4.53543, 13.4317l 4.53543, 14.6865l 4.53543, 15.1673l 4.53543, 14.9405l 4.53543, 14.1237l 4.53543, 12.8639l 4.53543, 11.3161l 4.53543, 9.62349l 4.53543, 7.90325l 4.53543, 6.23858l 4.53543, 4.67789l 4.53543, 3.24021l 4.53543, 1.92552l
 4.53543, 0.727953l 4.53543, -0.351108l 4.53543, -1.29296l 4.53543, -2.05769l 4.53543, -2.58832l 4.53543, -2.82309l 4.53543, -2.71353l 4.53543, -2.24343l 4.53543, -1.44295l 4.53543, -0.392508l 4.53543, 0.785929" fill="none" stroke="#0000ff"
 stroke-width="2"/>
<path d="M281.697,220.109l 4.53543, 1.94897l 4.53543, 2.95813l 4.53543, 3.70526l 4.53543, 4.13007l 4.53543, 4.22565l 4.53543, 4.03153l 4.53543, 3.61756l 4.53543, 3.06392l 4.53543, 2.44276l 4.53543, 1.80542l 4.53543, 1.17678l 4.53543, 0.556209l
 4.53543, -0.0767146l 4.53543, -0.753894l 4.53543, -1.50968l 4.53543, -2.37228l 4.53543, -3.35612l 4.53543, -4.45573l 4.53543, -5.64123l 4.53543, -6.85631l 4.53543, -8.01925l 4.53543, -9.02769l 4.53543, -9.76753l 4.53543, -10.1254l 4.53543, -10.0035l
 4.53543, -9.33509l 4.53543, -8.09781l 4.53543, -6.32204l 4.53543, -4.09303l 4.53543, -1.54497l 4.53543, 1.15209l 4.53543, 3.81104l 4.53543, 6.24914l 4.53543, 8.30884l 4.53543, 9.8745l 4.53543, 10.8828l 4.53543, 11.3252l 4.53543, 11.2436l 4.53543,
 10.7191l 4.53543, 9.85796l 4.53543, 8.77633l 4.53543, 7.58616l 4.53543, 6.38469l 4.53543, 5.2477l 4.53543, 4.22703l 4.53543, 3.35157l 4.53543, 2.63062l 4.53543, 2.05871l 4.53543, 1.62063" fill="none" stroke="#0000ff" stroke-width="2"/>
<path d="M503.933,277.72l 4.53543, 1.296" fill="none" stroke="#0000ff" stroke-width="2"/>
<path d="M57.1929,330.589h 453.543" fill="none" stroke="black" stroke-width="2"/>
<text x="459.394" y="356.003" fill="black" font-size="12.2947" font-family="Helvetica">
Channels
</text>
<path d="M123.565,321.773v 8.8157" fill="none" stroke="black" stroke-width="2"/>
<path d="M145.689,326.181v 4.40785" fill="none" stroke="black" stroke-width="2"/>
<path d="M167.813,326.181v 4.40785" fill="none" stroke="black" stroke-width="2"/>
<path d="M189.937,326.181v 4.40785" fill="none" stroke="black" stroke-width="2"/>
<path d="M212.061,326.181v 4.40785" fill="none" stroke="black" stroke-width="2"/>
<path d="M234.185,321.773v 8.8157" fill="none" stroke="black" stroke-width="2"/>
<path d="M256.309,326.181v 4.40785" fill="none" stroke="black" stroke-width="2"/>
<path d="M278.434,326.181v 4.40785" fill="none" stroke="black" stroke-width="2"/>
<path d="M300.558,326.181v 4.40785" fill="none" stroke="black" stroke-width="2"/>
<path d="M322.682,326.181v 4.40785" fill="none" stroke="black" stroke-width="2"/>
<path d="M344.806,321.773v 8.8157" fill="none" stroke="black" stroke-width="2"/>
<path d="M366.93,326.181v 4.40785" fill="none" stroke="black" stroke-width="2"/>
<path d="M389.054,326.181v 4.40785" fill="none" stroke="black" stroke-width="2"/>
<path d="M411.178,326.181v 4.40785" fill="none" stroke="black" stroke-width="2"/>
<path d="M433.302,326.181v 4.40785" fill="none" stroke="black" stroke-width="2"/>
<path d="M455.426,321.773v 8.8157" fill="none" stroke="black" stroke-width="2"/>
<path d="M123.565,321.773v 8.8157" fill="none" stroke="black" stroke-width="2"/>
<path d="M101.441,326.181v 4.40785" fill="none" stroke="black" stroke-width="2"/>
<path d="M79.317,326.181v 4.40785" fill="none" stroke="black" stroke-width="2"/>
<path d="M57.1929,326.181v 4.40785" fill="none" stroke="black" stroke-width="2"/>
<path d="M455.426,321.773v 8.8157" fill="none" stroke="black" stroke-width="2"/>
<path d="M477.55,326.181v 4.40785" fill="none" stroke="black" stroke-width="2"/>
<path d="M499.674,326.181v 4.40785" fill="none" stroke="black" stroke-width="2"/>
<text x="108.535" y="342.627" fill="black" font-size="12.2947" font-family="Helvetica">
1000
</text>
<text x="219.658" y="342.627" fill="black" font-size="12.2947" font-family="Helvetica">
1100
</text>
<text x="329.751" y="342.627" fill="black" font-size="12.2947" font-family="Helvetica">
1200
</text>
<text x="440.873" y="342.627" fill="black" font-size="12.2947" font-family="Helvetica">
1300
</text>
<path d="M57.1929,330.589v -293.857" fill="none" stroke="black" stroke-width="2"/>
<path d="M70.7992,330.589h -13.6063" fill="none" stroke="black" stroke-width="2"/>
<path d="M63.9961,321.897h -6.80315" fill="none" stroke="black" stroke-width="2"/>
<path d="M63.9961,313.206h -6.80315" fill="none" stroke="black" stroke-width="2"/>
<path d="M63.9961,304.514h -6.80315" fill="none" stroke="black" stroke-width="2"/>
<path d="M70.7992,295.823h -13.6063" fill="none" stroke="black" stroke-width="2"/>
<path d="M63.9961,287.132h -6.80315" fill="none" stroke="black" stroke-width="2"/>
<path d="M63.9961,278.44h -6.80315" fill="none" stroke="black" stroke-width="2"/>
<path d="M63.9961,269.749h -6.80315" fill="none" stroke="black" stroke-width="2"/>
<path d="M70.7992,261.057h -13.6063" fill="none" stroke="black" stroke-width="2"/>
<path d="M63.9961,252.366h -6.80315" fill="none" stroke="black" stroke-width="2"/>
<path d="M63.9961,243.675h -6.80315" fill="none" stroke="black" stroke-width="2"/>
<path d="M63.9961,234.983h -6.80315" fill="none" stroke="black" stroke-width="2"/>
<path d="M70.7992,226.292h -13.6063" fill="none" stroke="black" stroke-width="2"/>
<path d="M63.9961,217.6h -6.80315" fill="none" stroke="black" stroke-width="2"/>
<path d="M63.9961,208.909h -6.80315" fill="none" stroke="black" stroke-width="2"/>
<path d="M63.9961,200.217h -6.80315" fill="none" stroke="black" stroke-width="2"/>
<path d="M70.7992,191.526h -13.6063" fill="none" stroke="black" stroke-width="2"/>
<path d="M63.9961,182.835h -6.80315" fill="none" stroke="black" stroke-width="2"/>
<path d="M63.9961,174.143h -6.80315" fill="none" stroke="black" stroke-width="2"/>
<path d="M63.9961,165.452h -6.80315" fill="none" stroke="black" stroke-width="2"/>
<path d="M70.7992,156.76h -13.6063" fill="none" stroke="black" stroke-width="2"/>
<path d="M63.9961,148.069h -6.80315" fill="none" stroke="black" stroke-width="2"/>
<path d="M63.9961,139.378h -6.80315" fill="none" stroke="black" stroke-width="2"/>
<path d="M63.9961,130.686h -6.80315" fill="none" stroke="black" stroke-width="2"/>
<path d="M70.7992,121.995h -13.6063" fill="none" stroke="black" stroke-width="2"/>
<path d="M63.9961,113.303h -6.80315" fill="none" stroke="black" stroke-width="2"/>
<path d="M63.9961,104.612h -6.80315" fill="none" stroke="black" stroke-width="2"/>
<path d="M63.9961,95.9206h -6.80315" fill="none" stroke="black" stroke-width="2"/>
<path d="M70.7992,87.2292h -13.6063" fill="none" stroke="black" stroke-width="2"/>
<path d="M63.9961,78.5378h -6.80315" fill="none" stroke="black" stroke-width="2"/>
<path d="M63.9961,69.8463h -6.80315" fill="none" stroke="black" stroke-width="2"/>
<path d="M63.9961,61.1549h -6.80315" fill="none" stroke="black" stroke-width="2"/>
<path d="M70.7992,52.4635h -13.6063" fill="none" stroke="black" stroke-width="2"/>
<path d="M70.7992,52.4635h -13.6063" fill="none" stroke="black" stroke-width="2"/>
<path d="M63.9961,43.7721h -6.80315" fill="none" stroke="black" stroke-width="2"/>
<text x="46.8009" y="335.424" fill="black" font-size="12.2947" font-family="Helvetica">
0
</text>
<text x="40.6275" y="300.442" fill="black" font-size="12.2947" font-family="Helvetica">
20
</text>
<text x="40.6275" y="265.459" fill="black" font-size="12.2947" font-family="Helvetica">
40
</text>
<text x="40.6275" y="230.476" fill="black" font-size="12.2947" font-family="Helvetica">
60
</text>
<text x="40.6275" y="196.522" fill="black" font-size="12.2947" font-family="Helvetica">
80
</text>
<text x="33.4251" y="161.539" fill="black" font-size="12.2947" font-family="Helvetica">
100
</text>
<text x="33.4251" y="126.556" fill="black" font-size="12.2947" font-family="Helvetica">
120
</text>
<text x="33.4251" y="91.5729" fill="black" font-size="12.2947" font-family="Helvetica">
140
</text>
<text x="33.4251" y="56.59" fill="black" font-size="12.2947" font-family="Helvetica">
160
</text>
<rect x="219.658" y="36.0118" width="159.481" height="157.423" fill="white"/>
<path d="M219.658,193.435h 159.481" fill="none" stroke="black" stroke-width="2"/>
<path d="M379.139,193.435v -157.423" fill="none" stroke="black" stroke-width="2"/>
<path d="M379.139,36.0118h -159.481" fill="none" stroke="black" stroke-width="2"/>
<path d="M219.658,36.0118v 157.423" fill="none" stroke="black" stroke-width="2"/>
<text x="237.149" y="45.272" fill="black" font-size="10.6627" font-family="Helvetica">
 / ndf 
</text>
<text x="233.034" y="42.1853" fill="black" font-size="7.27512" font-family="Helvetica">
2
</text>
<text x="226.86" y="45.272" fill="black" font-size="10.6627" font-family="Times">
&#0967;
</text>
<text x="317.404" y="46.3009" fill="black" font-size="10.6627" font-family="Helvetica">
 344.3 / 399
</text>
<text x="226.86" y="59.6768" fill="black" font-size="10.6627" font-family="Helvetica">
1-Centroid 
</text>
<text x="354.445" y="59.6768" fill="black" font-size="10.6627" font-family="Helvetica">
 0.6
</text>
<text x="348.271" y="59.6768" fill="black" font-size="10.6627" font-family="Times">
&#0177;
</text>
<text x="318.433" y="59.6768" fill="black" font-size="10.6627" font-family="Helvetica">
  1029 
</text>
<text x="226.86" y="73.0526" fill="black" font-size="10.6627" font-family="Helvetica">
1-FWHM   
</text>
<text x="348.271" y="72.0237" fill="black" font-size="10.6627" font-family="Helvetica">
 1.64
</text>
<text x="342.098" y="72.0237" fill="black" font-size="10.6627" font-family="Times">
&#0177;
</text>
<text x="312.26" y="72.0237" fill="black" font-size="10.6627" font-family="Helvetica">
 62.44 
</text>
<text x="226.86" y="85.3995" fill="black" font-size="10.6627" font-family="Helvetica">
1-Counts 
</text>
<text x="343.127" y="85.3995" fill="black" font-size="10.6627" font-family="Helvetica">
 178.7
</text>
<text x="336.953" y="85.3995" fill="black" font-size="10.6627" font-family="Times">
&#0177;
</text>
<text x="307.115" y="85.3995" fill="black" font-size="10.6627" font-family="Helvetica">
  5979 
</text>
<text x="226.86" y="98.7753" fill="black" font-size="10.6627" font-family="Helvetica">
2-Centroid 
</text>
<text x="355.474" y="98.7753" fill="black" font-size="10.6627" font-family="Helvetica">
 2.1
</text>
<text x="349.3" y="98.7753" fill="black" font-size="10.6627" font-family="Times">
&#0177;
</text>
<text x="319.462" y="98.7753" fill="black" font-size="10.6627" font-family="Helvetica">
  1140 
</text>
<text x="226.86" y="113.18" fill="black" font-size="10.6627" font-family="Helvetica">
2-FWHM   
</text>
<text x="348.271" y="112.151" fill="black" font-size="10.6627" font-family="Helvetica">
 5.77
</text>
<text x="342.098" y="112.151" fill="black" font-size="10.6627" font-family="Times">
&#0177;
</text>
<text x="312.26" y="112.151" fill="black" font-size="10.6627" font-family="Helvetica">
 48.02 
</text>
<text x="226.86" y="124.498" fill="black" font-size="10.6627" font-family="Helvetica">
2-Counts 
</text>
<text x="343.127" y="124.498" fill="black" font-size="10.6627" font-family="Helvetica">
 128.7
</text>
<text x="336.953" y="124.498" fill="black" font-size="10.6627" font-family="Times">
&#0177;
</text>
<text x="307.115" y="124.498" fill="black" font-size="10.6627" font-family="Helvetica">
 887.3 
</text>
<text x="226.86" y="137.874" fill="black" font-size="10.6627" font-family="Helvetica">
3-Centroid 
</text>
<text x="354.445" y="137.874" fill="black" font-size="10.6627" font-family="Helvetica">
 0.7
</text>
<text x="348.271" y="137.874" fill="black" font-size="10.6627" font-family="Times">
&#0177;
</text>
<text x="318.433" y="137.874" fill="black" font-size="10.6627" font-family="Helvetica">
  1267 
</text>
<text x="226.86" y="151.25" fill="black" font-size="10.6627" font-family="Helvetica">
3-FWHM   
</text>
<text x="348.271" y="151.25" fill="black" font-size="10.6627" font-family="Helvetica">
 2.25
</text>
<text x="342.098" y="151.25" fill="black" font-size="10.6627" font-family="Times">
&#0177;
</text>
<text x="312.26" y="151.25" fill="black" font-size="10.6627" font-family="Helvetica">
 62.86 
</text>
<text x="226.86" y="164.626" fill="black" font-size="10.6627" font-family="Helvetica">
3-Counts 
</text>
<text x="343.127" y="164.626" fill="black" font-size="10.6627" font-family="Helvetica">
 190.9
</text>
<text x="336.953" y="164.626" fill="black" font-size="10.6627" font-family="Times">
&#0177;
</text>
<text x="307.115" y="164.626" fill="black" font-size="10.6627" font-family="Helvetica">
  4468 
</text>
<text x="226.86" y="175.944" fill="black" font-size="10.6627" font-family="Helvetica">
Intercept 
</text>
<text x="354.445" y="176.972" fill="black" font-size="10.6627" font-family="Helvetica">
 0.5
</text>
<text x="348.271" y="176.972" fill="black" font-size="10.6627" font-family="Times">
&#0177;
</text>
<text x="318.433" y="176.972" fill="black" font-size="10.6627" font-family="Helvetica">
 143.4 
</text>
<text x="226.86" y="189.319" fill="black" font-size="10.6627" font-family="Helvetica">
Slope    
</text>
<text x="330.78" y="190.348" fill="black" font-size="10.6627" font-family="Helvetica">
 0.00067
</text>
<text x="324.607" y="190.348" fill="black" font-size="10.6627" font-family="Times">
&#0177;
</text>
<text x="285.508" y="190.348" fill="black" font-size="10.6627" font-family="Helvetica">
0.08486 
</text>
<text x="279.334" y="190.348" fill="black" font-size="10.6627" font-family="Times">
&#8722;
</text>
<text x="277.277" y="190.348" fill="black" font-size="10.6627" font-family="Helvetica">
 
</text>
<path d="M59.4606,329.839l 4.53543, -0.476788l 4.53543, -0.732845l 4.53543, -1.09713l 4.53543, -1.59931l 4.53543, -2.26933l 4.53543, -3.13311l 4.53543, -4.20692l 4.53543, -5.49049l 4.53543, -6.96l 4.53543, -8.56202l 4.53543, -10.21l 4.53543,
 -11.7849l 4.53543, -13.1415l 4.53543, -14.12l 4.53543, -14.5636l 4.53543, -14.3393l 4.53543, -13.359l 4.53543, -11.5975l 4.53543, -9.1042l 4.53543, -6.00437l 4.53543, -2.49006l 4.53543, 1.1994l 4.53543, 4.80426l 4.53543, 8.07467l 4.53543, 10.7993l
 4.53543, 12.8277l 4.53543, 14.0835l 4.53543, 14.5666l 4.53543, 14.3445l 4.53543, 13.537l 4.53543, 12.2949l 4.53543, 10.7792l 4.53543, 9.14176l 4.53543, 7.51199l 4.53543, 5.98812l 4.53543, 4.63504l 4.53543, 3.48637l 4.53543, 2.54989l 4.53543,
 1.81432l 4.53543, 1.25643l 4.53543, 0.847126l 4.53543, 0.556253l 4.53543, 0.355814l 4.53543, 0.221767l 4.53543, 0.134704l 4.53543, 0.0797521l 4.53543, 0.0460309l 4.53543, 0.0259035l 4.53543, 0.0297204" fill="none" stroke="#00ff00" stroke-width="2"/>
<path d="M281.697,330.589h 222.236" fill="none" stroke="#00ff00" stroke-width="2"/>
<path d="M503.933,330.589h 4.53543" fill="none" stroke="#00ff00" stroke-width="2"/>
<path d="M59.4606,330.589h 131.528l 4.53543, -0.0340252l 4.53543, -0.0358087l 4.53543, -0.067839l 4.53543, -0.123031l 4.53543, -0.213497l 4.53543, -0.354301l 4.53543, -0.561903l 4.53543, -0.850923l 4.53543, -1.22912l 4.53543, -1.69113l 4.53543,
 -2.2123l 4.53543, -2.74485l 4.53543, -3.2187l 4.53543, -3.54888l 4.53543, -3.64959l 4.53543, -3.45293l 4.53543, -2.92781l 4.53543, -2.09344l 4.53543, -1.02256l 4.53543, 0.168194" fill="none" stroke="#00ff00" stroke-width="2"/>
<path d="M281.697,300.724l 4.53543, 1.33904l 4.53543, 2.35409l 4.53543, 3.10726l 4.53543, 3.54035l 4.53543, 3.64902l 4.53543, 3.47632l 4.53543, 3.09714l 4.53543, 2.59879l 4.53543, 2.06325l 4.53543, 1.55481l 4.53543, 1.11463l 4.53543, 0.761459l
 4.53543, 0.49634l 4.53543, 0.309003l 4.53543, 0.183883l 4.53543, 0.104664l 4.53543, 0.0570106l 4.53543, 0.057372h 140.598" fill="none" stroke="#00ff00" stroke-width="2"/>
<path d="M503.933,330.589h 4.53543" fill="none" stroke="#00ff00" stroke-width="2"/>
<path d="M59.4606,330.589h 222.236" fill="none" stroke="#00ff00" stroke-width="2"/>
<path d="M281.697,330.589h 13.6063l 4.53543, -0.0343408l 4.53543, -0.0286128l 4.53543, -0.0497734l 4.53543, -0.0844394l 4.53543, -0.139683l 4.53543, -0.225279l 4.53543, -0.35416l 4.53543, -0.542615l 4.53543, -0.810011l 4.53543, -1.17781l 4.53543,
 -1.66766l 4.53543, -2.29833l 4.53543, -3.0817l 4.53543, -4.01789l 4.53543, -5.09022l 4.53543, -6.26084l 4.53543, -7.46818l 4.53543, -8.62726l 4.53543, -9.63388l 4.53543, -10.3729l 4.53543, -10.7304l 4.53543, -10.6083l 4.53543, -9.93989l 4.53543,
 -8.70258l 4.53543, -6.92681l 4.53543, -4.69779l 4.53543, -2.14973l 4.53543, 0.547329l 4.53543, 3.20628l 4.53543, 5.64438l 4.53543, 7.70408l 4.53543, 9.26974l 4.53543, 10.278l 4.53543, 10.7204l 4.53543, 10.6388l 4.53543, 10.1143l 4.53543, 9.2532l
 4.53543, 8.17157l 4.53543, 6.98141l 4.53543, 5.77993l 4.53543, 4.64294l 4.53543, 3.62228l 4.53543, 2.74681l 4.53543, 2.02586l 4.53543, 1.45395l 4.53543, 1.01587" fill="none" stroke="#00ff00" stroke-width="2"/>
<path d="M503.933,328.685l 4.53543, 0.69124" fill="none" stroke="#00ff00" stroke-width="2"/>
<text x="177.472" y="17.4915" fill="black" font-size="17.831" font-family="Helvetica">
Wk2/Calibration/152Eu.Spe
</text></svg>
