<?xml version="1.0" standalone="no"?>
<svg width="567.429" height="272.626" viewBox="0 0 567.429 272.626" xmlns="http://www.w3.org/2000/svg">
<title>
/home/ADF/hyw543/Coincidence/c1.svg
</title>
<desc>
Creator: ROOT Version 6.06/08
CreationDate: Tue Jan  8 19:35:17 2019</desc>
<defs>
</defs>
<rect x="0.5" y="0" width="566.929" height="272.126" fill="white"/>
<rect x="57.1929" y="27.2126" width="453.543" height="217.701" fill="white"/>
<rect x="57.1929" y="27.2126" width="453.543" height="217.701" fill="none" stroke="black"/>
<rect x="57.1929" y="27.2126" width="453.543" height="217.701" fill="white"/>
<rect x="57.1929" y="27.2126" width="453.543" height="217.701" fill="none" stroke="black"/>
<path d="M57.1929,210.358h 2.26772v -10.995h 4.53543v 4.71214h 2.26772v -12.5657h 4.53543v 9.42428h 2.26772v 1.57071h 2.26772v -15.7071h 2.26772v 4.71214h 2.26772v -3.14143h 2.26772v 7.85356h 2.26772v 7.85356h 2.26772v -14.1364h 2.26772v -21.99h
 2.26772v 20.4193h 4.53543v -7.85356h 2.26772v 4.71214h 2.26772v 9.42428h 4.53543v -15.7071h 2.26772v 6.28285h 2.26772v -9.42428h 2.26772v 15.7071h 2.26772v -20.4193h 2.26772v 6.28285h 2.26772v -7.85356h 2.26772v 14.1364h 2.26772v -14.1364h 2.26772v
 -6.28285h 2.26772v 20.4193h 2.26772v -48.6921h 2.26772v 31.4143h 2.26772v -1.57071h 2.26772v -9.42428h 2.26772v 7.85356h 4.53543v 10.995h 2.26772v -18.8486h 2.26772v -18.8486h 2.26772v 1.57071h 2.26772v 15.7071h 2.26772v -43.98h 2.26772v 42.4092h
 2.26772v -23.5607h 2.26772v 21.99h 2.26772v -10.995h 2.26772v -1.57071h 2.26772v -3.14143h 2.26772v -31.4143h 2.26772v -6.28285h 2.26772v -9.42428h 2.26772v 39.2678h 2.26772v -14.1364h 2.26772v -9.42428h 2.26772v -12.5657h 2.26772v 26.7021h 2.26772v
 -23.5607h 2.26772v 3.14143h 2.26772v -14.1364h 2.26772v 32.985h 2.26772v -25.1314h 2.26772v 25.1314h 2.26772v -29.8435h 2.26772v -17.2778h 2.26772v 4.71214h 2.26772v -14.1364h 2.26772v 25.1314h 2.26772v -34.5557h 2.26772v 40.8385h 2.26772v -10.995h
 2.26772v -25.1314h 2.26772v 37.6971h 2.26772v -47.1214h 2.26772v 10.995h 2.26772v 18.8486h 2.26772v -20.4193h 2.26772v 21.99h 2.26772v -4.71214h 2.26772v -17.2778h 2.26772v 28.2728h 2.26772v 14.1364h 2.26772v -42.4092h 2.26772v 4.71214h 2.26772v
 -9.42428h 2.26772v -10.995h 2.26772v 31.4143h 2.26772v 12.5657h 2.26772v -28.2728h 2.26772v 32.985h 2.26772v -18.8486h 4.53543v -31.4143h 2.26772v 10.995h 2.26772v 12.5657h 4.53543v 20.4193h 2.26772v -3.14143h 2.26772v -12.5657h 2.26772v 14.1364h
 4.53543v -37.6971h 2.26772v 10.995h 2.26772v 4.71214h 2.26772v 14.1364h 2.26772v 18.8486h 2.26772v -26.7021h 2.26772v 7.85356h 2.26772v 6.28285h 2.26772v 7.85356h 2.26772v -36.1264h 2.26772v 29.8435h 2.26772v 9.42428h 2.26772v -12.5657h 2.26772v
 -4.71214h 2.26772v 32.985h 2.26772v 1.57071h 2.26772v -21.99h 2.26772v 34.5557h 2.26772v -21.99h 2.26772v 4.71214h 2.26772v -31.4143h 2.26772v 45.5507h 2.26772v -3.14143h 2.26772v -28.2728h 2.26772v 37.6971h 2.26772v -3.14143h 2.26772v -6.28285h
 2.26772v 1.57071h 2.26772v -6.28285h 2.26772v 32.985h 2.26772v 1.57071h 2.26772v 1.57071h 2.26772v -1.57071h 2.26772v 9.42428h 2.26772v -20.4193h 2.26772v 50.2628h 2.26772v -28.2728h 2.26772v 21.99h 2.26772v -31.4143h 2.26772v 12.5657h 2.26772v
 3.14143h 2.26772v 10.995h 4.53543v -18.8486h 2.26772v -4.71214h 2.26772v 18.8486h 2.26772v 9.42428h 2.26772v -4.71214h 2.26772v -15.7071h 2.26772v 39.2678h 2.26772v -15.7071h 2.26772v 1.57071h 2.26772v 6.28285h 2.26772v 3.14143h 2.26772v -14.1364h
 2.26772v 6.28285h 2.26772v -4.71214h 2.26772v 12.5657h 2.26772v -6.28285h 2.26772v -4.71214h 2.26772v 17.2778h 2.26772v -3.14143h 2.26772v 10.995h 2.26772v -6.28285h 2.26772v -3.14143h 2.26772v -4.71214h 2.26772v 9.42428h 2.26772v 1.57071h 2.26772v
 -3.14143h 2.26772v 10.995h 2.26772v -4.71214h 2.26772v -4.71214h 2.26772v 4.71214h 2.26772v 9.42428h 2.26772v -7.85356h 2.26772v 1.57071h 2.26772v 1.57071h 2.26772v -9.42428h 2.26772v 17.2778h 2.26772v -9.42428h 2.26772v 12.5657h 2.26772v -25.1314h
 2.26772v 15.7071h 2.26772v 3.14143h 2.26772v -3.14143h 2.26772v -3.14143h 2.26772v -9.42428h 2.26772v 12.5657h 2.26772v 6.28285h 2.26772v 9.42428h 2.26772v -23.5607h 2.26772v 7.85356h 2.26772v -7.85356h 2.26772v 7.85356h 2.26772v 3.14143h 2.26772v
 4.71214h 2.26772v 3.14143h 2.26772v -10.995h 2.26772" fill="none" stroke="#ff0000" stroke-width="2"/>
<rect x="376.768" y="17.1148" width="179.106" height="119.804" fill="white"/>
<path d="M376.768,136.919h 179.106" fill="none" stroke="black" stroke-width="2"/>
<path d="M555.874,136.919v -119.804" fill="none" stroke="black" stroke-width="2"/>
<path d="M555.874,17.1148h -179.106" fill="none" stroke="black" stroke-width="2"/>
<path d="M376.768,17.1148v 119.804" fill="none" stroke="black" stroke-width="2"/>
<text x="396.857" y="27.607" fill="black" font-size="12.149" font-family="Helvetica">
 / ndf 
</text>
<text x="391.928" y="23.6631" fill="black" font-size="8.266" font-family="Helvetica">
2
</text>
<text x="385.026" y="27.607" fill="black" font-size="12.149" font-family="Times">
&#0967;
</text>
<text x="485.594" y="28.5929" fill="black" font-size="12.149" font-family="Helvetica">
 192.3 / 193
</text>
<text x="385.026" y="44.3684" fill="black" font-size="12.149" font-family="Helvetica">
1-Centroid 
</text>
<text x="527.991" y="44.3684" fill="black" font-size="12.149" font-family="Helvetica">
 3.3
</text>
<text x="521.089" y="44.3684" fill="black" font-size="12.149" font-family="Times">
&#0177;
</text>
<text x="487.566" y="44.3684" fill="black" font-size="12.149" font-family="Helvetica">
  1421 
</text>
<text x="385.026" y="59.1578" fill="black" font-size="12.149" font-family="Helvetica">
1-FWHM   
</text>
<text x="521.089" y="59.1578" fill="black" font-size="12.149" font-family="Helvetica">
 6.72
</text>
<text x="514.187" y="59.1578" fill="black" font-size="12.149" font-family="Times">
&#0177;
</text>
<text x="478.692" y="59.1578" fill="black" font-size="12.149" font-family="Helvetica">
 65.95 
</text>
<text x="385.026" y="73.9473" fill="black" font-size="12.149" font-family="Helvetica">
1-Counts 
</text>
<text x="514.187" y="73.9473" fill="black" font-size="12.149" font-family="Helvetica">
 471.3
</text>
<text x="507.285" y="73.9473" fill="black" font-size="12.149" font-family="Times">
&#0177;
</text>
<text x="471.791" y="73.9473" fill="black" font-size="12.149" font-family="Helvetica">
  4273 
</text>
<text x="385.026" y="88.7367" fill="black" font-size="12.149" font-family="Helvetica">
2-Centroid 
</text>
<text x="527.991" y="88.7367" fill="black" font-size="12.149" font-family="Helvetica">
 3.5
</text>
<text x="521.089" y="88.7367" fill="black" font-size="12.149" font-family="Times">
&#0177;
</text>
<text x="485.594" y="88.7367" fill="black" font-size="12.149" font-family="Helvetica">
  1460 
</text>
<text x="385.026" y="103.526" fill="black" font-size="12.149" font-family="Helvetica">
2-Counts 
</text>
<text x="514.187" y="103.526" fill="black" font-size="12.149" font-family="Helvetica">
 535.8
</text>
<text x="507.285" y="103.526" fill="black" font-size="12.149" font-family="Times">
&#0177;
</text>
<text x="471.791" y="103.526" fill="black" font-size="12.149" font-family="Helvetica">
  4240 
</text>
<text x="385.026" y="118.316" fill="black" font-size="12.149" font-family="Helvetica">
Intercept 
</text>
<text x="514.187" y="119.302" fill="black" font-size="12.149" font-family="Helvetica">
 20.82
</text>
<text x="507.285" y="119.302" fill="black" font-size="12.149" font-family="Times">
&#0177;
</text>
<text x="471.791" y="119.302" fill="black" font-size="12.149" font-family="Helvetica">
 69.14 
</text>
<text x="385.026" y="133.105" fill="black" font-size="12.149" font-family="Helvetica">
Slope    
</text>
<text x="503.341" y="134.091" fill="black" font-size="12.149" font-family="Helvetica">
 0.01351
</text>
<text x="496.44" y="134.091" fill="black" font-size="12.149" font-family="Times">
&#0177;
</text>
<text x="453.057" y="134.091" fill="black" font-size="12.149" font-family="Helvetica">
0.03211 
</text>
<text x="446.156" y="134.091" fill="black" font-size="12.149" font-family="Times">
&#8722;
</text>
<text x="443.198" y="134.091" fill="black" font-size="12.149" font-family="Helvetica">
 
</text>
<path d="M59.4606,200.105l 4.53543, -0.737461l 4.53543, -0.868498l 4.53543, -1.01364l 4.53543, -1.17319l 4.53543, -1.34722l 4.53543, -1.53554l 4.53543, -1.73764l 4.53543, -1.95269l 4.53543, -2.17947l 4.53543, -2.4164l 4.53543, -2.66153l 4.53543,
 -2.9125l 4.53543, -3.16661l 4.53543, -3.42081l 4.53543, -3.67178l 4.53543, -3.91595l 4.53543, -4.14962l 4.53543, -4.36896l 4.53543, -4.57021l 4.53543, -4.74965l 4.53543, -4.9038l 4.53543, -5.02946l 4.53543, -5.12382l 4.53543, -5.1845l 4.53543,
 -5.20968l 4.53543, -5.19812l 4.53543, -5.14917l 4.53543, -5.06282l 4.53543, -4.93966l 4.53543, -4.78089l 4.53543, -4.58822l 4.53543, -4.36383l 4.53543, -4.11029l 4.53543, -3.83045l 4.53543, -3.52737l 4.53543, -3.20419l 4.53543, -2.86405l 4.53543,
 -2.51003l 4.53543, -2.14502l 4.53543, -1.77171l 4.53543, -1.39254l 4.53543, -1.00967l 4.53543, -0.625011l 4.53543, -0.240211l 4.53543, 0.143284l 4.53543, 0.524185l 4.53543, 0.901304l 4.53543, 1.27349l 4.53543, 1.63955" fill="none" stroke="#0000ff"
 stroke-width="2"/>
<path d="M281.697,65.2731l 4.53543, 1.99824l 4.53543, 2.34815l 4.53543, 2.68772l 4.53543, 3.01519l 4.53543, 3.32864l 4.53543, 3.62596l 4.53543, 3.90492l 4.53543, 4.1632l 4.53543, 4.39847l 4.53543, 4.60846l 4.53543, 4.79104l 4.53543, 4.94431l 4.53543,
 5.06664l 4.53543, 5.1568l 4.53543, 5.21397l 4.53543, 5.23784l 4.53543, 5.22858l 4.53543, 5.18687l 4.53543, 5.11392l 4.53543, 5.01143l 4.53543, 4.88154l 4.53543, 4.72677l 4.53543, 4.54998l 4.53543, 4.35428l 4.53543, 4.14296l 4.53543, 3.91936l
 4.53543, 3.68688l 4.53543, 3.4488l 4.53543, 3.20829l 4.53543, 2.96832l 4.53543, 2.73159l 4.53543, 2.50052l 4.53543, 2.27722l 4.53543, 2.06344l 4.53543, 1.86063l 4.53543, 1.66985l 4.53543, 1.49189l 4.53543, 1.32719l 4.53543, 1.17596l 4.53543,
 1.03814l 4.53543, 0.913463l 4.53543, 0.801479l 4.53543, 0.701604l 4.53543, 0.613143l 4.53543, 0.535321l 4.53543, 0.467315l 4.53543, 0.408276l 4.53543, 0.357352l 4.53543, 0.31371" fill="none" stroke="#0000ff" stroke-width="2"/>
<path d="M503.933,213.439l 4.53543, 0.276542" fill="none" stroke="#0000ff" stroke-width="2"/>
<path d="M57.1929,244.913h 453.543" fill="none" stroke="black" stroke-width="2"/>
<text x="473.763" y="263.252" fill="black" font-size="9.23799" font-family="Helvetica">
Channels
</text>
<path d="M57.1929,238.382v 6.53102" fill="none" stroke="black" stroke-width="2"/>
<path d="M79.8701,241.648v 3.26551" fill="none" stroke="black" stroke-width="2"/>
<path d="M102.547,241.648v 3.26551" fill="none" stroke="black" stroke-width="2"/>
<path d="M125.224,241.648v 3.26551" fill="none" stroke="black" stroke-width="2"/>
<path d="M147.902,241.648v 3.26551" fill="none" stroke="black" stroke-width="2"/>
<path d="M170.579,238.382v 6.53102" fill="none" stroke="black" stroke-width="2"/>
<path d="M193.256,241.648v 3.26551" fill="none" stroke="black" stroke-width="2"/>
<path d="M215.933,241.648v 3.26551" fill="none" stroke="black" stroke-width="2"/>
<path d="M238.61,241.648v 3.26551" fill="none" stroke="black" stroke-width="2"/>
<path d="M261.287,241.648v 3.26551" fill="none" stroke="black" stroke-width="2"/>
<path d="M283.965,238.382v 6.53102" fill="none" stroke="black" stroke-width="2"/>
<path d="M306.642,241.648v 3.26551" fill="none" stroke="black" stroke-width="2"/>
<path d="M329.319,241.648v 3.26551" fill="none" stroke="black" stroke-width="2"/>
<path d="M351.996,241.648v 3.26551" fill="none" stroke="black" stroke-width="2"/>
<path d="M374.673,241.648v 3.26551" fill="none" stroke="black" stroke-width="2"/>
<path d="M397.35,238.382v 6.53102" fill="none" stroke="black" stroke-width="2"/>
<path d="M420.028,241.648v 3.26551" fill="none" stroke="black" stroke-width="2"/>
<path d="M442.705,241.648v 3.26551" fill="none" stroke="black" stroke-width="2"/>
<path d="M465.382,241.648v 3.26551" fill="none" stroke="black" stroke-width="2"/>
<path d="M488.059,241.648v 3.26551" fill="none" stroke="black" stroke-width="2"/>
<path d="M510.736,238.382v 6.53102" fill="none" stroke="black" stroke-width="2"/>
<text x="46.8403" y="253.393" fill="black" font-size="9.23799" font-family="Helvetica">
1350
</text>
<text x="160.226" y="253.393" fill="black" font-size="9.23799" font-family="Helvetica">
1400
</text>
<text x="273.612" y="253.393" fill="black" font-size="9.23799" font-family="Helvetica">
1450
</text>
<text x="386.998" y="253.393" fill="black" font-size="9.23799" font-family="Helvetica">
1500
</text>
<text x="500.384" y="253.393" fill="black" font-size="9.23799" font-family="Helvetica">
1550
</text>
<path d="M57.1929,244.913v -217.701" fill="none" stroke="black" stroke-width="2"/>
<path d="M70.7992,244.913h -13.6063" fill="none" stroke="black" stroke-width="2"/>
<path d="M63.9961,237.06h -6.80315" fill="none" stroke="black" stroke-width="2"/>
<path d="M63.9961,229.206h -6.80315" fill="none" stroke="black" stroke-width="2"/>
<path d="M63.9961,221.353h -6.80315" fill="none" stroke="black" stroke-width="2"/>
<path d="M70.7992,213.499h -13.6063" fill="none" stroke="black" stroke-width="2"/>
<path d="M63.9961,205.646h -6.80315" fill="none" stroke="black" stroke-width="2"/>
<path d="M63.9961,197.792h -6.80315" fill="none" stroke="black" stroke-width="2"/>
<path d="M63.9961,189.938h -6.80315" fill="none" stroke="black" stroke-width="2"/>
<path d="M70.7992,182.085h -13.6063" fill="none" stroke="black" stroke-width="2"/>
<path d="M63.9961,174.231h -6.80315" fill="none" stroke="black" stroke-width="2"/>
<path d="M63.9961,166.378h -6.80315" fill="none" stroke="black" stroke-width="2"/>
<path d="M63.9961,158.524h -6.80315" fill="none" stroke="black" stroke-width="2"/>
<path d="M70.7992,150.671h -13.6063" fill="none" stroke="black" stroke-width="2"/>
<path d="M63.9961,142.817h -6.80315" fill="none" stroke="black" stroke-width="2"/>
<path d="M63.9961,134.964h -6.80315" fill="none" stroke="black" stroke-width="2"/>
<path d="M63.9961,127.11h -6.80315" fill="none" stroke="black" stroke-width="2"/>
<path d="M70.7992,119.256h -13.6063" fill="none" stroke="black" stroke-width="2"/>
<path d="M63.9961,111.403h -6.80315" fill="none" stroke="black" stroke-width="2"/>
<path d="M63.9961,103.549h -6.80315" fill="none" stroke="black" stroke-width="2"/>
<path d="M63.9961,95.6957h -6.80315" fill="none" stroke="black" stroke-width="2"/>
<path d="M70.7992,87.8421h -13.6063" fill="none" stroke="black" stroke-width="2"/>
<path d="M63.9961,79.9885h -6.80315" fill="none" stroke="black" stroke-width="2"/>
<path d="M63.9961,72.135h -6.80315" fill="none" stroke="black" stroke-width="2"/>
<path d="M63.9961,64.2814h -6.80315" fill="none" stroke="black" stroke-width="2"/>
<path d="M70.7992,56.4279h -13.6063" fill="none" stroke="black" stroke-width="2"/>
<path d="M70.7992,56.4279h -13.6063" fill="none" stroke="black" stroke-width="2"/>
<path d="M63.9961,48.5743h -6.80315" fill="none" stroke="black" stroke-width="2"/>
<path d="M63.9961,40.7207h -6.80315" fill="none" stroke="black" stroke-width="2"/>
<path d="M63.9961,32.8672h -6.80315" fill="none" stroke="black" stroke-width="2"/>
<text x="48.8122" y="248.463" fill="black" font-size="9.23799" font-family="Helvetica">
0
</text>
<text x="43.8824" y="216.912" fill="black" font-size="9.23799" font-family="Helvetica">
20
</text>
<text x="43.8824" y="185.361" fill="black" font-size="9.23799" font-family="Helvetica">
40
</text>
<text x="43.8824" y="153.81" fill="black" font-size="9.23799" font-family="Helvetica">
60
</text>
<text x="43.8824" y="122.26" fill="black" font-size="9.23799" font-family="Helvetica">
80
</text>
<text x="38.9526" y="91.6946" fill="black" font-size="9.23799" font-family="Helvetica">
100
</text>
<text x="38.9526" y="60.1438" fill="black" font-size="9.23799" font-family="Helvetica">
120
</text>
<rect x="376.768" y="17.1148" width="179.106" height="119.804" fill="white"/>
<path d="M376.768,136.919h 179.106" fill="none" stroke="black" stroke-width="2"/>
<path d="M555.874,136.919v -119.804" fill="none" stroke="black" stroke-width="2"/>
<path d="M555.874,17.1148h -179.106" fill="none" stroke="black" stroke-width="2"/>
<path d="M376.768,17.1148v 119.804" fill="none" stroke="black" stroke-width="2"/>
<text x="396.857" y="27.607" fill="black" font-size="12.149" font-family="Helvetica">
 / ndf 
</text>
<text x="391.928" y="23.6631" fill="black" font-size="8.266" font-family="Helvetica">
2
</text>
<text x="385.026" y="27.607" fill="black" font-size="12.149" font-family="Times">
&#0967;
</text>
<text x="485.594" y="28.5929" fill="black" font-size="12.149" font-family="Helvetica">
 192.3 / 193
</text>
<text x="385.026" y="44.3684" fill="black" font-size="12.149" font-family="Helvetica">
1-Centroid 
</text>
<text x="527.991" y="44.3684" fill="black" font-size="12.149" font-family="Helvetica">
 3.3
</text>
<text x="521.089" y="44.3684" fill="black" font-size="12.149" font-family="Times">
&#0177;
</text>
<text x="487.566" y="44.3684" fill="black" font-size="12.149" font-family="Helvetica">
  1421 
</text>
<text x="385.026" y="59.1578" fill="black" font-size="12.149" font-family="Helvetica">
1-FWHM   
</text>
<text x="521.089" y="59.1578" fill="black" font-size="12.149" font-family="Helvetica">
 6.72
</text>
<text x="514.187" y="59.1578" fill="black" font-size="12.149" font-family="Times">
&#0177;
</text>
<text x="478.692" y="59.1578" fill="black" font-size="12.149" font-family="Helvetica">
 65.95 
</text>
<text x="385.026" y="73.9473" fill="black" font-size="12.149" font-family="Helvetica">
1-Counts 
</text>
<text x="514.187" y="73.9473" fill="black" font-size="12.149" font-family="Helvetica">
 471.3
</text>
<text x="507.285" y="73.9473" fill="black" font-size="12.149" font-family="Times">
&#0177;
</text>
<text x="471.791" y="73.9473" fill="black" font-size="12.149" font-family="Helvetica">
  4273 
</text>
<text x="385.026" y="88.7367" fill="black" font-size="12.149" font-family="Helvetica">
2-Centroid 
</text>
<text x="527.991" y="88.7367" fill="black" font-size="12.149" font-family="Helvetica">
 3.5
</text>
<text x="521.089" y="88.7367" fill="black" font-size="12.149" font-family="Times">
&#0177;
</text>
<text x="485.594" y="88.7367" fill="black" font-size="12.149" font-family="Helvetica">
  1460 
</text>
<text x="385.026" y="103.526" fill="black" font-size="12.149" font-family="Helvetica">
2-Counts 
</text>
<text x="514.187" y="103.526" fill="black" font-size="12.149" font-family="Helvetica">
 535.8
</text>
<text x="507.285" y="103.526" fill="black" font-size="12.149" font-family="Times">
&#0177;
</text>
<text x="471.791" y="103.526" fill="black" font-size="12.149" font-family="Helvetica">
  4240 
</text>
<text x="385.026" y="118.316" fill="black" font-size="12.149" font-family="Helvetica">
Intercept 
</text>
<text x="514.187" y="119.302" fill="black" font-size="12.149" font-family="Helvetica">
 20.82
</text>
<text x="507.285" y="119.302" fill="black" font-size="12.149" font-family="Times">
&#0177;
</text>
<text x="471.791" y="119.302" fill="black" font-size="12.149" font-family="Helvetica">
 69.14 
</text>
<text x="385.026" y="133.105" fill="black" font-size="12.149" font-family="Helvetica">
Slope    
</text>
<text x="503.341" y="134.091" fill="black" font-size="12.149" font-family="Helvetica">
 0.01351
</text>
<text x="496.44" y="134.091" fill="black" font-size="12.149" font-family="Times">
&#0177;
</text>
<text x="453.057" y="134.091" fill="black" font-size="12.149" font-family="Helvetica">
0.03211 
</text>
<text x="446.156" y="134.091" fill="black" font-size="12.149" font-family="Times">
&#8722;
</text>
<text x="443.198" y="134.091" fill="black" font-size="12.149" font-family="Helvetica">
 
</text>
<path d="M59.4606,240.623l 4.53543, -0.820408l 4.53543, -0.94644l 4.53543, -1.08533l 4.53543, -1.23713l 4.53543, -1.40159l 4.53543, -1.57818l 4.53543, -1.76597l 4.53543, -1.96368l 4.53543, -2.16957l 4.53543, -2.3815l 4.53543, -2.59688l 4.53543,
 -2.81268l 4.53543, -3.02548l 4.53543, -3.23146l 4.53543, -3.42653l 4.53543, -3.60632l 4.53543, -3.76634l 4.53543, -3.90204l 4.53543, -4.00894l 4.53543, -4.08277l 4.53543, -4.11956l 4.53543, -4.11581l 4.53543, -4.06863l 4.53543, -3.97579l 4.53543,
 -3.83589l 4.53543, -3.64844l 4.53543, -3.4139l 4.53543, -3.13372l 4.53543, -2.81038l 4.53543, -2.44731l 4.53543, -2.04891l 4.53543, -1.62041l 4.53543, -1.16777l 4.53543, -0.697564l 4.53543, -0.21679l 4.53543, 0.267277l 4.53543, 0.747284l 4.53543,
 1.21598l 4.53543, 1.66639l 4.53543, 2.09202l 4.53543, 2.48696l 4.53543, 2.84607l 4.53543, 3.16505l 4.53543, 3.44056l 4.53543, 3.67024l 4.53543, 3.85272l 4.53543, 3.98766l 4.53543, 4.07566l 4.53543, 4.11819" fill="none" stroke="#00ff00"
 stroke-width="2"/>
<path d="M281.697,187.125l 4.53543, 4.11755l 4.53543, 4.07672l 4.53543, 3.99925l 4.53543, 3.88914l 4.53543, 3.75069l 4.53543, 3.58839l 4.53543, 3.40679l 4.53543, 3.21039l 4.53543, 3.0035l 4.53543, 2.79022l 4.53543, 2.57431l 4.53543, 2.35916l 4.53543,
 2.14774l 4.53543, 1.94261l 4.53543, 1.74587l 4.53543, 1.5592l 4.53543, 1.38384l 4.53543, 1.22068l 4.53543, 1.07022l 4.53543, 0.93268l 4.53543, 0.807979l 4.53543, 0.695822l 4.53543, 0.595728l 4.53543, 0.507069l 4.53543, 0.429114l 4.53543, 0.361062l
 4.53543, 0.30207l 4.53543, 0.251284l 4.53543, 0.207857l 4.53543, 0.17097l 4.53543, 0.139843l 4.53543, 0.113746l 4.53543, 0.0920067l 4.53543, 0.074011l 4.53543, 0.0592075l 4.53543, 0.047105l 4.53543, 0.0372714l 4.53543, 0.0293298l 4.53543, 0.0229548l
 4.53543, 0.017868l 4.53543, 0.0138332l 4.53543, 0.0106517l 4.53543, 0.00815768l 4.53543, 0.0245147h 22.6772" fill="none" stroke="#00ff00" stroke-width="2"/>
<path d="M503.933,244.913h 4.53543" fill="none" stroke="#00ff00" stroke-width="2"/>
<path d="M59.4606,244.855l 4.53543, -0.0179152l 4.53543, -0.0229198l 4.53543, -0.0291675l 4.53543, -0.0369218l 4.53543, -0.0464895l 4.53543, -0.0582249l 4.53543, -0.0725331l 4.53543, -0.0898734l 4.53543, -0.11076l 4.53543, -0.135765l 4.53543,
 -0.165514l 4.53543, -0.200683l 4.53543, -0.241996l 4.53543, -0.290212l 4.53543, -0.346114l 4.53543, -0.410496l 4.53543, -0.484138l 4.53543, -0.567787l 4.53543, -0.662125l 4.53543, -0.767745l 4.53543, -0.885109l 4.53543, -1.01451l 4.53543, -1.15605l
 4.53543, -1.30957l 4.53543, -1.47465l 4.53543, -1.65054l 4.53543, -1.83613l 4.53543, -2.02996l 4.53543, -2.23015l 4.53543, -2.43444l 4.53543, -2.64017l 4.53543, -2.84428l 4.53543, -3.04338l 4.53543, -3.23375l 4.53543, -3.41144l 4.53543, -3.57232l
 4.53543, -3.7122l 4.53543, -3.82687l 4.53543, -3.91228l 4.53543, -3.96459l 4.53543, -3.98036l 4.53543, -3.9566l 4.53543, -3.89092l 4.53543, -3.78163l 4.53543, -3.62781l 4.53543, -3.4294l 4.53543, -3.18722l 4.53543, -2.90303l 4.53543, -2.5795"
 fill="none" stroke="#00ff00" stroke-width="2"/>
<path d="M281.697,158.579l 4.53543, -2.22017l 4.53543, -1.82944l 4.53543, -1.4124l 4.53543, -0.974809l 4.53543, -0.522909l 4.53543, -0.0632916l 4.53543, 0.397262l 4.53543, 0.851947l 4.53543, 1.2941l 4.53543, 1.71738l 4.53543, 2.11587l 4.53543,
 2.48428l 4.53543, 2.81803l 4.53543, 3.11332l 4.53543, 3.36724l 4.53543, 3.57779l 4.53543, 3.74387l 4.53543, 3.86533l 4.53543, 3.94284l 4.53543, 3.97789l 4.53543, 3.97269l 4.53543, 3.93008l 4.53543, 3.85339l 4.53543, 3.74635l 4.53543, 3.61298l
 4.53543, 3.45744l 4.53543, 3.28394l 4.53543, 3.09665l 4.53543, 2.89957l 4.53543, 2.69648l 4.53543, 2.49088l 4.53543, 2.28591l 4.53543, 2.08435l 4.53543, 1.88857l 4.53543, 1.70056l 4.53543, 1.52188l 4.53543, 1.35375l 4.53543, 1.197l 4.53543, 1.05215l
 4.53543, 0.919414l 4.53543, 0.798768l 4.53543, 0.689965l 4.53543, 0.592584l 4.53543, 0.506067l 4.53543, 0.429751l 4.53543, 0.362905l 4.53543, 0.304754l 4.53543, 0.254507l 4.53543, 0.211377" fill="none" stroke="#00ff00" stroke-width="2"/>
<path d="M503.933,244.018l 4.53543, 0.174596" fill="none" stroke="#00ff00" stroke-width="2"/>
<text x="205.58" y="13.8035" fill="black" font-size="13.4314" font-family="Helvetica">
Wk2/Calibration/152Eu.Spe
</text></svg>
