<?xml version="1.0" standalone="no"?>
<svg width="567.429" height="367.821" viewBox="0 0 567.429 367.821" xmlns="http://www.w3.org/2000/svg">
<title>
/home/ADF/hyw543/Coincidence/c1.svg
</title>
<desc>
Creator: ROOT Version 6.06/08
CreationDate: Tue Jan  8 18:54:35 2019</desc>
<defs>
</defs>
<rect x="0.5" y="0" width="566.929" height="367.321" fill="white"/>
<rect x="57.1929" y="36.7321" width="453.543" height="293.857" fill="white"/>
<rect x="57.1929" y="36.7321" width="453.543" height="293.857" fill="none" stroke="black"/>
<rect x="57.1929" y="36.7321" width="453.543" height="293.857" fill="white"/>
<rect x="57.1929" y="36.7321" width="453.543" height="293.857" fill="none" stroke="black"/>
<path d="M57.1929,296.848h 1.03078v -0.866863h 1.03078v -7.86845h 1.03078v -4.73441h 1.03078v -3.53413h 1.03078v -4.60104h 1.03078v -10.9358h 1.03078v -7.73509h 1.03078v -20.0712h 1.03078v -13.1363h 1.03078v -15.7369h 1.03078v -20.738h 1.03078v
 -23.5387h 1.03078v -23.1386h 1.03078v -30.8737h 1.03078v -13.1363h 1.03078v -12.7362h 1.03078v -18.7376h 1.03078v -10.6024h 1.03078v 1.40032h 1.03078v -4.80109h 1.03078v 8.60195h 1.03078v 12.9363h 1.03078v 20.0712h 1.03078v 19.0043h 1.03078v
 22.8052h 1.03078v 19.1377h 1.03078v 24.939h 1.03078v 23.6053h 1.03078v 17.804h 1.03078v 20.6047h 1.03078v 19.071h 1.03078v 10.269h 1.03078v 10.0023h 1.03078v 3.73418h 1.03078v 8.86868h 1.03078v 5.66795h 1.03078v 3.60082h 1.03078v 2.46723h 1.03078v
 1.53368h 1.03078v -1.80041h 1.03078v 5.80131h 1.03078v 0.666818h 1.03078v 0.266727h 1.03078v -1.86709h 1.03078v -0.200045h 1.03078v 3.53413h 1.03078v -2.26718h 1.03078v -2.53391h 1.03078v 0.800181h 1.03078v 2.40054h 1.03078v 1.00023h 1.03078v
 -0.400091h 1.03078v -1.73373h 1.03078v -2.46723h 1.03078v 2.73395h 1.03078v -1.73373h 1.03078v 3.60082h 1.03078v -3.33409h 2.06156v 0.266727h 1.03078v -0.666818h 1.03078v 3.13404h 1.03078v -2.934h 1.03078v 1.20027h 1.03078v -0.933545h 1.03078v
 0.533454h 1.03078v 0.0666818h 1.03078v 1.13359h 1.03078v -1.93377h 1.03078v -0.733499h 1.03078v -1.467h 1.03078v -0.200045h 1.03078v 1.40032h 1.03078v -0.400091h 1.03078v -0.133364h 1.03078v 0.0666818h 1.03078v -2.33386h 1.03078v -0.866863h 1.03078v
 2.00045h 1.03078v -2.06713h 1.03078v 4.06759h 1.03078v -0.533454h 1.03078v -0.666818h 1.03078v -1.80041h 1.03078v 1.13359h 1.03078v -1.20027h 1.03078v 4.53436h 1.03078v -1.60036h 1.03078v -2.00045h 1.03078v 1.66704h 1.03078v 1.66704h 1.03078v
 0.400091h 1.03078v -0.600136h 1.03078v -0.133364h 1.03078v 0.666818h 1.03078v 1.86709h 1.03078v -1.53368h 1.03078v 3.06736h 1.03078v -2.00045h 1.03078v 0.533454h 1.03078v 0.133364h 1.03078v -0.666818h 1.03078v 0.866863h 1.03078v -0.400091h 1.03078v
 2.33386h 1.03078v -2.00045h 1.03078v -0.0666818h 1.03078v 1.40032h 1.03078v -0.800181h 1.03078v 2.86732h 1.03078v -0.266727h 1.03078v 0.800181h 1.03078v -3.26741h 1.03078v 2.13382h 1.03078v -1.00023h 1.03078v 0.866863h 1.03078v -1.80041h 1.03078v
 2.00045h 1.03078v -0.400091h 1.03078v -0.533454h 1.03078v 1.13359h 1.03078v -1.80041h 1.03078v 1.20027h 1.03078v 1.73373h 1.03078v -3.80086h 1.03078v 3.33409h 1.03078v 1.20027h 1.03078v -1.66704h 1.03078v 2.00045h 1.03078v -2.26718h 1.03078v
 0.733499h 1.03078v -0.333409h 1.03078v -0.400091h 1.03078v 2.2005h 1.03078v -0.933545h 1.03078v -2.2005h 1.03078v 1.80041h 1.03078v 1.20027h 1.03078v -3.26741h 1.03078v 0.333409h 1.03078v 3.73418h 1.03078v -3.00068h 2.06156v 1.80041h 1.03078v
 -1.60036h 1.03078v 1.40032h 1.03078v -0.400091h 1.03078v -0.133364h 1.03078v 1.13359h 1.03078v -3.26741h 1.03078v 1.26695h 1.03078v -1.33364h 1.03078v 1.13359h 1.03078v 0.866863h 1.03078v 0.400091h 1.03078v -1.73373h 1.03078v -2.00045h 1.03078v
 3.80086h 1.03078v -2.26718h 1.03078v -1.73373h 1.03078v 0.933545h 1.03078v -1.80041h 1.03078v 0.0666818h 1.03078v -1.33364h 1.03078v -1.33364h 1.03078v -3.00068h 1.03078v 0.800181h 1.03078v 0.466772h 1.03078v -3.26741h 1.03078v -1.80041h 1.03078v
 -0.866863h 1.03078v -1.73373h 1.03078v -2.33386h 1.03078v 1.00023h 1.03078v -0.133364h 1.03078v -2.26718h 1.03078v -2.66727h 1.03078v 1.86709h 1.03078v -1.73373h 1.03078v -3.46745h 1.03078v 4.46768h 1.03078v -1.00023h 1.03078v -1.33364h 1.03078v
 -1.73373h 1.03078v 3.06736h 1.03078v 0.133364h 1.03078v 0.733499h 1.03078v -1.33364h 1.03078v 3.86754h 1.03078v 2.06713h 1.03078v -0.266727h 1.03078v 0.800181h 1.03078v 0.533454h 1.03078v 1.66704h 1.03078v 0.200045h 1.03078v 3.80086h 1.03078v
 -1.60036h 1.03078v 3.13404h 1.03078v 1.06691h 1.03078v 0.600136h 1.03078v 2.26718h 1.03078v 0.133364h 1.03078v 1.73373h 1.03078v 0.133364h 1.03078v 1.26695h 1.03078v 3.40077h 1.03078v -0.666818h 1.03078v 1.26695h 1.03078v -0.400091h 1.03078v
 1.20027h 1.03078v -0.600136h 1.03078v 1.66704h 1.03078v -1.00023h 1.03078v 2.53391h 1.03078v -3.33409h 1.03078v 2.13382h 1.03078v 0.200045h 1.03078v 1.86709h 1.03078v -2.934h 1.03078v 0.866863h 1.03078v -0.333409h 1.03078v 2.13382h 1.03078v
 -1.20027h 1.03078v 0.800181h 1.03078v 0.733499h 1.03078v -1.80041h 1.03078v 0.333409h 1.03078v 1.06691h 1.03078v -0.533454h 1.03078v -0.333409h 1.03078v -1.467h 1.03078v 1.06691h 1.03078v -1.60036h 1.03078v 3.06736h 1.03078v -1.73373h 1.03078v
 0.533454h 1.03078v -1.00023h 1.03078v -0.866863h 1.03078v 1.40032h 1.03078v -0.266727h 1.03078v 0.600136h 1.03078v 0.600136h 1.03078v -0.933545h 1.03078v 0.733499h 1.03078v -0.666818h 2.06156v 0.600136h 1.03078v -0.0666818h 1.03078v -1.33364h
 1.03078v 1.33364h 1.03078v 1.13359h 1.03078v -1.467h 1.03078v -0.800181h 1.03078v 0.933545h 1.03078v 0.400091h 1.03078v -0.466772h 1.03078v 0.800181h 1.03078v -0.466772h 1.03078v 0.666818h 1.03078v 0.466772h 1.03078v -0.466772h 1.03078v 0.400091h
 1.03078v -0.466772h 1.03078v -2.06713h 1.03078v 1.93377h 1.03078v -0.0666818h 1.03078v 0.600136h 1.03078v -0.533454h 1.03078v -1.06691h 1.03078v 0.733499h 1.03078v 0.466772h 1.03078v 0.333409h 1.03078v -0.133364h 1.03078v -1.06691h 1.03078v
 0.200045h 1.03078v 0.0666818h 1.03078v 0.266727h 1.03078v -2.33386h 1.03078v -1.467h 1.03078v 1.40032h 1.03078v -3.00068h 1.03078v -0.0666818h 1.03078v 0.0666818h 1.03078v -2.80063h 1.03078v 0.800181h 1.03078v -2.06713h 1.03078v -0.466772h 1.03078v
 -1.40032h 1.03078v -4.401h 1.03078v 3.06736h 1.03078v -3.80086h 1.03078v -1.33364h 1.03078v -3.33409h 1.03078v -1.86709h 1.03078v -1.86709h 1.03078v -2.46723h 1.03078v -2.53391h 1.03078v -4.60104h 1.03078v 2.40054h 1.03078v -4.60104h 1.03078v
 -0.800181h 1.03078v -3.60082h 1.03078v -0.733499h 1.03078v 0.266727h 1.03078v -1.86709h 1.03078v -0.466772h 1.03078v -0.666818h 1.03078v -3.93422h 1.03078v -2.66727h 1.03078v 1.467h 1.03078v -5.1345h 1.03078v 0.600136h 1.03078v -1.06691h 1.03078v
 2.33386h 1.03078v -6.2014h 1.03078v 4.86777h 1.03078v 5.00113h 1.03078v -2.26718h 1.03078v 0.866863h 1.03078v -1.467h 1.03078v 3.60082h 1.03078v -1.93377h 1.03078v 3.93422h 1.03078v 4.06759h 1.03078v -3.26741h 1.03078v 3.93422h 1.03078v 3.26741h
 1.03078v 1.73373h 1.03078v 0.266727h 1.03078v 1.20027h 1.03078v 1.60036h 1.03078v 7.06827h 1.03078v -1.20027h 1.03078v -0.200045h 1.03078v 3.60082h 1.03078v -0.133364h 1.03078v 3.46745h 1.03078v 3.86754h 1.03078v 1.20027h 1.03078v 1.93377h 1.03078v
 3.20072h 1.03078v 0.400091h 1.03078v -0.266727h 1.03078v 1.93377h 1.03078v 3.46745h 1.03078v -0.466772h 1.03078v -1.00023h 1.03078v 1.33364h 1.03078v 2.86732h 1.03078v 0.0666818h 1.03078v -0.200045h 1.03078v 1.66704h 1.03078v -0.866863h 1.03078v
 1.53368h 1.03078v 0.866863h 1.03078v 0.200045h 1.03078v -0.333409h 1.03078v 0.133364h 1.03078v 0.733499h 1.03078v 0.733499h 1.03078v 0.800181h 1.03078v -0.800181h 1.03078v 0.466772h 1.03078v 0.800181h 1.03078v -0.333409h 1.03078v 0.666818h 1.03078v
 -0.0666818h 1.03078v -0.200045h 1.03078v 1.86709h 1.03078v -2.06713h 1.03078v -0.400091h 1.03078v 0.600136h 1.03078v -1.33364h 1.03078v 0.666818h 1.03078v 0.733499h 1.03078v -0.733499h 1.03078v 0.933545h 1.03078v -0.666818h 1.03078v -0.466772h
 1.03078v 0.666818h 1.03078v -0.733499h 1.03078v 0.200045h 1.03078v -0.200045h 1.03078v -0.0666818h 1.03078v 0.0666818h 1.03078v 0.533454h 1.03078v -1.40032h 1.03078v 0.600136h 1.03078v 0.666818h 1.03078v -0.733499h 1.03078v 0.666818h 1.03078v
 -0.133364h 1.03078v -1.467h 1.03078v -0.666818h 1.03078v 1.467h 1.03078v 0.400091h 1.03078v 0.800181h 1.03078v -1.20027h 1.03078v 0.466772h 2.06156v -0.733499h 1.03078v -1.60036h 1.03078v 1.467h 1.03078v 0.533454h 1.03078v -0.133364h 1.03078v
 -0.333409h 1.03078v -1.26695h 1.03078v 0.666818h 1.03078v 0.600136h 1.03078v 0.400091h 1.03078v -0.866863h 1.03078v -0.866863h 1.03078v 2.73395h 1.03078v -1.53368h 1.03078v -1.13359h 1.03078v 1.06691h 1.03078v -0.466772h 1.03078v 0.533454h 1.03078v
 -1.40032h 1.03078v 2.46723h 1.03078v -0.400091h 1.03078v 0.466772h 1.03078v -0.866863h 1.03078v -0.466772h 1.03078v 0.266727h 1.03078v -0.133364h 1.03078v -0.866863h 1.03078v 0.733499h 1.03078v -0.333409h 1.03078v 0.400091h 1.03078v -0.666818h
 1.03078v 1.40032h 1.03078v -0.600136h 1.03078v 0.400091h 1.03078v -1.53368h 1.03078v 1.93377h 1.03078v -2.13382h 1.03078v 1.33364h 1.03078v -1.40032h 1.03078" fill="none" stroke="#ff0000" stroke-width="2"/>
<path d="M59.4606,297.759l 4.53543, -33.3213l 4.53543, -74.4679l 4.53543, -93.4531l 4.53543, -40.8109l 4.53543, 51.775l 4.53543, 94.7518l 4.53543, 69.5166l 4.53543, 29.336l 4.53543, 7.80518l 4.53543, 1.44661l 4.53543, 0.298918l 4.53543, 0.1671l
 4.53543, 0.157273l 4.53543, 0.156793l 4.53543, 0.156777l 4.53543, 0.156777l 4.53543, 0.156777l 4.53543, 0.156777l 4.53543, 0.156777l 4.53543, 0.156777l 4.53543, 0.156777l 4.53543, 0.156777l 4.53543, 0.156777l 4.53543, 0.156777l 4.53543, 0.156777l
 4.53543, 0.156777l 4.53543, 0.156775l 4.53543, 0.156764l 4.53543, 0.156676l 4.53543, 0.156089l 4.53543, 0.152814l 4.53543, 0.137615l 4.53543, 0.0791159l 4.53543, -0.106319l 4.53543, -0.585438l 4.53543, -1.57695l 4.53543, -3.16622l 4.53543, -4.98727l
 4.53543, -6.07537l 4.53543, -5.3068l 4.53543, -2.34767l 4.53543, 1.74962l 4.53543, 5.11423l 4.53543, 6.40832l 4.53543, 5.66248l 4.53543, 3.90717l 4.53543, 2.20909l 4.53543, 1.07566l 4.53543, 0.496845" fill="none" stroke="#0000ff" stroke-width="2"/>
<path d="M281.697,316.466l 4.53543, 0.261464l 4.53543, 0.183694l 4.53543, 0.162569l 4.53543, 0.157801l 4.53543, 0.156827l 4.53543, 0.156345l 4.53543, 0.155061l 4.53543, 0.150812l 4.53543, 0.137851l 4.53543, 0.101957l 4.53543, 0.0119363l 4.53543,
 -0.191916l 4.53543, -0.607033l 4.53543, -1.36274l 4.53543, -2.58165l 4.53543, -4.29779l 4.53543, -6.34905l 4.53543, -8.30269l 4.53543, -9.49664l 4.53543, -9.24528l 4.53543, -7.15861l 4.53543, -3.41431l 4.53543, 1.20178l 4.53543, 5.55878l 4.53543,
 8.62992l 4.53543, 9.88473l 4.53543, 9.42017l 4.53543, 7.79867l 4.53543, 5.73068l 4.53543, 3.79178l 4.53543, 2.29077l 4.53543, 1.28959l 4.53543, 0.702198l 4.53543, 0.395489l 4.53543, 0.251903l 4.53543, 0.191335l 4.53543, 0.168233l 4.53543, 0.160245l
 4.53543, 0.157736l 4.53543, 0.157019l 4.53543, 0.156833l 4.53543, 0.156789l 4.53543, 0.156779l 4.53543, 0.156777l 4.53543, 0.156777l 4.53543, 0.156777l 4.53543, 0.156777l 4.53543, 0.156777l 4.53543, 0.156777" fill="none" stroke="#0000ff"
 stroke-width="2"/>
<path d="M503.933,324.286l 4.53543, 0.156777" fill="none" stroke="#0000ff" stroke-width="2"/>
<rect x="351.996" y="23.8758" width="204.094" height="191.007" fill="white"/>
<path d="M351.996,214.883h 204.094" fill="none" stroke="black" stroke-width="2"/>
<path d="M556.091,214.883v -191.007" fill="none" stroke="black" stroke-width="2"/>
<path d="M556.091,23.8758h -204.094" fill="none" stroke="black" stroke-width="2"/>
<path d="M351.996,23.8758v 191.007" fill="none" stroke="black" stroke-width="2"/>
<text x="373.994" y="34.9829" fill="black" font-size="12.2199" font-family="Helvetica">
 / ndf 
</text>
<text x="368.85" y="30.8673" fill="black" font-size="8.31326" font-family="Helvetica">
2
</text>
<text x="361.647" y="34.9829" fill="black" font-size="12.2199" font-family="Times">
&#0967;
</text>
<text x="482.03" y="36.0118" fill="black" font-size="12.2199" font-family="Helvetica">
  2219 / 429
</text>
<text x="361.647" y="52.4744" fill="black" font-size="12.2199" font-family="Helvetica">
1-Centroid 
</text>
<text x="526.273" y="52.4744" fill="black" font-size="12.2199" font-family="Helvetica">
 0.0
</text>
<text x="519.07" y="52.4744" fill="black" font-size="12.2199" font-family="Times">
&#0177;
</text>
<text x="482.03" y="52.4744" fill="black" font-size="12.2199" font-family="Helvetica">
 169.5 
</text>
<text x="361.647" y="67.908" fill="black" font-size="12.2199" font-family="Helvetica">
1-FWHM   
</text>
<text x="519.07" y="67.908" fill="black" font-size="12.2199" font-family="Helvetica">
 0.07
</text>
<text x="511.868" y="67.908" fill="black" font-size="12.2199" font-family="Times">
&#0177;
</text>
<text x="474.827" y="67.908" fill="black" font-size="12.2199" font-family="Helvetica">
 16.28 
</text>
<text x="361.647" y="84.3706" fill="black" font-size="12.2199" font-family="Helvetica">
1-Counts 
</text>
<text x="485.116" y="84.3706" fill="black" font-size="12.2199" font-family="Helvetica">
 2.906e+02
</text>
<text x="477.914" y="84.3706" fill="black" font-size="12.2199" font-family="Times">
&#0177;
</text>
<text x="414.122" y="84.3706" fill="black" font-size="12.2199" font-family="Helvetica">
 6.616e+04 
</text>
<text x="361.647" y="99.8042" fill="black" font-size="12.2199" font-family="Helvetica">
2-Centroid 
</text>
<text x="526.273" y="99.8042" fill="black" font-size="12.2199" font-family="Helvetica">
 0.2
</text>
<text x="519.07" y="99.8042" fill="black" font-size="12.2199" font-family="Times">
&#0177;
</text>
<text x="484.087" y="99.8042" fill="black" font-size="12.2199" font-family="Helvetica">
 333.1 
</text>
<text x="361.647" y="116.267" fill="black" font-size="12.2199" font-family="Helvetica">
2-FWHM   
</text>
<text x="519.07" y="116.267" fill="black" font-size="12.2199" font-family="Helvetica">
 0.37
</text>
<text x="511.868" y="116.267" fill="black" font-size="12.2199" font-family="Times">
&#0177;
</text>
<text x="474.827" y="116.267" fill="black" font-size="12.2199" font-family="Helvetica">
 25.24 
</text>
<text x="361.647" y="131.7" fill="black" font-size="12.2199" font-family="Helvetica">
2-Counts 
</text>
<text x="485.116" y="131.7" fill="black" font-size="12.2199" font-family="Helvetica">
 1.627e+02
</text>
<text x="477.914" y="131.7" fill="black" font-size="12.2199" font-family="Times">
&#0177;
</text>
<text x="414.122" y="131.7" fill="black" font-size="12.2199" font-family="Helvetica">
 1.031e+04 
</text>
<text x="361.647" y="148.163" fill="black" font-size="12.2199" font-family="Helvetica">
3-Centroid 
</text>
<text x="528.331" y="148.163" fill="black" font-size="12.2199" font-family="Helvetica">
 0.1
</text>
<text x="521.128" y="148.163" fill="black" font-size="12.2199" font-family="Times">
&#0177;
</text>
<text x="484.087" y="148.163" fill="black" font-size="12.2199" font-family="Helvetica">
 465.8 
</text>
<text x="361.647" y="163.597" fill="black" font-size="12.2199" font-family="Helvetica">
3-FWHM   
</text>
<text x="519.07" y="163.597" fill="black" font-size="12.2199" font-family="Helvetica">
 0.23
</text>
<text x="511.868" y="163.597" fill="black" font-size="12.2199" font-family="Times">
&#0177;
</text>
<text x="474.827" y="163.597" fill="black" font-size="12.2199" font-family="Helvetica">
 35.18 
</text>
<text x="361.647" y="180.059" fill="black" font-size="12.2199" font-family="Helvetica">
3-Counts 
</text>
<text x="485.116" y="180.059" fill="black" font-size="12.2199" font-family="Helvetica">
 2.227e+02
</text>
<text x="477.914" y="180.059" fill="black" font-size="12.2199" font-family="Times">
&#0177;
</text>
<text x="414.122" y="180.059" fill="black" font-size="12.2199" font-family="Helvetica">
 3.103e+04 
</text>
<text x="361.647" y="194.464" fill="black" font-size="12.2199" font-family="Helvetica">
Intercept 
</text>
<text x="526.273" y="195.493" fill="black" font-size="12.2199" font-family="Helvetica">
 2.9
</text>
<text x="519.07" y="195.493" fill="black" font-size="12.2199" font-family="Times">
&#0177;
</text>
<text x="482.03" y="195.493" fill="black" font-size="12.2199" font-family="Helvetica">
 406.2 
</text>
<text x="361.647" y="210.926" fill="black" font-size="12.2199" font-family="Helvetica">
Slope    
</text>
<text x="505.695" y="211.955" fill="black" font-size="12.2199" font-family="Helvetica">
 0.0066
</text>
<text x="498.492" y="211.955" fill="black" font-size="12.2199" font-family="Times">
&#0177;
</text>
<text x="458.365" y="211.955" fill="black" font-size="12.2199" font-family="Helvetica">
0.5343 
</text>
<text x="451.162" y="211.955" fill="black" font-size="12.2199" font-family="Times">
&#8722;
</text>
<text x="448.076" y="211.955" fill="black" font-size="12.2199" font-family="Helvetica">
 
</text>
<path d="M57.1929,330.589h 453.543" fill="none" stroke="black" stroke-width="2"/>
<text x="459.394" y="356.003" fill="black" font-size="12.2947" font-family="Helvetica">
Channels
</text>
<path d="M108.732,321.773v 8.8157" fill="none" stroke="black" stroke-width="2"/>
<path d="M129.348,326.181v 4.40785" fill="none" stroke="black" stroke-width="2"/>
<path d="M149.963,326.181v 4.40785" fill="none" stroke="black" stroke-width="2"/>
<path d="M170.579,326.181v 4.40785" fill="none" stroke="black" stroke-width="2"/>
<path d="M191.194,326.181v 4.40785" fill="none" stroke="black" stroke-width="2"/>
<path d="M211.81,321.773v 8.8157" fill="none" stroke="black" stroke-width="2"/>
<path d="M232.426,326.181v 4.40785" fill="none" stroke="black" stroke-width="2"/>
<path d="M253.041,326.181v 4.40785" fill="none" stroke="black" stroke-width="2"/>
<path d="M273.657,326.181v 4.40785" fill="none" stroke="black" stroke-width="2"/>
<path d="M294.272,326.181v 4.40785" fill="none" stroke="black" stroke-width="2"/>
<path d="M314.888,321.773v 8.8157" fill="none" stroke="black" stroke-width="2"/>
<path d="M335.504,326.181v 4.40785" fill="none" stroke="black" stroke-width="2"/>
<path d="M356.119,326.181v 4.40785" fill="none" stroke="black" stroke-width="2"/>
<path d="M376.735,326.181v 4.40785" fill="none" stroke="black" stroke-width="2"/>
<path d="M397.35,326.181v 4.40785" fill="none" stroke="black" stroke-width="2"/>
<path d="M417.966,321.773v 8.8157" fill="none" stroke="black" stroke-width="2"/>
<path d="M108.732,321.773v 8.8157" fill="none" stroke="black" stroke-width="2"/>
<path d="M88.1163,326.181v 4.40785" fill="none" stroke="black" stroke-width="2"/>
<path d="M67.5007,326.181v 4.40785" fill="none" stroke="black" stroke-width="2"/>
<path d="M417.966,321.773v 8.8157" fill="none" stroke="black" stroke-width="2"/>
<path d="M438.582,326.181v 4.40785" fill="none" stroke="black" stroke-width="2"/>
<path d="M459.197,326.181v 4.40785" fill="none" stroke="black" stroke-width="2"/>
<path d="M479.813,326.181v 4.40785" fill="none" stroke="black" stroke-width="2"/>
<path d="M500.428,326.181v 4.40785" fill="none" stroke="black" stroke-width="2"/>
<text x="98.2464" y="342.627" fill="black" font-size="12.2947" font-family="Helvetica">
200
</text>
<text x="201.137" y="342.627" fill="black" font-size="12.2947" font-family="Helvetica">
300
</text>
<text x="304.028" y="342.627" fill="black" font-size="12.2947" font-family="Helvetica">
400
</text>
<text x="406.919" y="342.627" fill="black" font-size="12.2947" font-family="Helvetica">
500
</text>
<path d="M57.1929,330.589v -293.857" fill="none" stroke="black" stroke-width="2"/>
<path d="M70.7992,330.589h -13.6063" fill="none" stroke="black" stroke-width="2"/>
<path d="M63.9961,323.92h -6.80315" fill="none" stroke="black" stroke-width="2"/>
<path d="M63.9961,317.252h -6.80315" fill="none" stroke="black" stroke-width="2"/>
<path d="M63.9961,310.584h -6.80315" fill="none" stroke="black" stroke-width="2"/>
<path d="M63.9961,303.916h -6.80315" fill="none" stroke="black" stroke-width="2"/>
<path d="M70.7992,297.248h -13.6063" fill="none" stroke="black" stroke-width="2"/>
<path d="M63.9961,290.58h -6.80315" fill="none" stroke="black" stroke-width="2"/>
<path d="M63.9961,283.911h -6.80315" fill="none" stroke="black" stroke-width="2"/>
<path d="M63.9961,277.243h -6.80315" fill="none" stroke="black" stroke-width="2"/>
<path d="M63.9961,270.575h -6.80315" fill="none" stroke="black" stroke-width="2"/>
<path d="M70.7992,263.907h -13.6063" fill="none" stroke="black" stroke-width="2"/>
<path d="M63.9961,257.239h -6.80315" fill="none" stroke="black" stroke-width="2"/>
<path d="M63.9961,250.57h -6.80315" fill="none" stroke="black" stroke-width="2"/>
<path d="M63.9961,243.902h -6.80315" fill="none" stroke="black" stroke-width="2"/>
<path d="M63.9961,237.234h -6.80315" fill="none" stroke="black" stroke-width="2"/>
<path d="M70.7992,230.566h -13.6063" fill="none" stroke="black" stroke-width="2"/>
<path d="M63.9961,223.898h -6.80315" fill="none" stroke="black" stroke-width="2"/>
<path d="M63.9961,217.23h -6.80315" fill="none" stroke="black" stroke-width="2"/>
<path d="M63.9961,210.561h -6.80315" fill="none" stroke="black" stroke-width="2"/>
<path d="M63.9961,203.893h -6.80315" fill="none" stroke="black" stroke-width="2"/>
<path d="M70.7992,197.225h -13.6063" fill="none" stroke="black" stroke-width="2"/>
<path d="M63.9961,190.557h -6.80315" fill="none" stroke="black" stroke-width="2"/>
<path d="M63.9961,183.889h -6.80315" fill="none" stroke="black" stroke-width="2"/>
<path d="M63.9961,177.221h -6.80315" fill="none" stroke="black" stroke-width="2"/>
<path d="M63.9961,170.552h -6.80315" fill="none" stroke="black" stroke-width="2"/>
<path d="M70.7992,163.884h -13.6063" fill="none" stroke="black" stroke-width="2"/>
<path d="M63.9961,157.216h -6.80315" fill="none" stroke="black" stroke-width="2"/>
<path d="M63.9961,150.548h -6.80315" fill="none" stroke="black" stroke-width="2"/>
<path d="M63.9961,143.88h -6.80315" fill="none" stroke="black" stroke-width="2"/>
<path d="M63.9961,137.211h -6.80315" fill="none" stroke="black" stroke-width="2"/>
<path d="M70.7992,130.543h -13.6063" fill="none" stroke="black" stroke-width="2"/>
<path d="M63.9961,123.875h -6.80315" fill="none" stroke="black" stroke-width="2"/>
<path d="M63.9961,117.207h -6.80315" fill="none" stroke="black" stroke-width="2"/>
<path d="M63.9961,110.539h -6.80315" fill="none" stroke="black" stroke-width="2"/>
<path d="M63.9961,103.871h -6.80315" fill="none" stroke="black" stroke-width="2"/>
<path d="M70.7992,97.2024h -13.6063" fill="none" stroke="black" stroke-width="2"/>
<path d="M63.9961,90.5343h -6.80315" fill="none" stroke="black" stroke-width="2"/>
<path d="M63.9961,83.8661h -6.80315" fill="none" stroke="black" stroke-width="2"/>
<path d="M63.9961,77.1979h -6.80315" fill="none" stroke="black" stroke-width="2"/>
<path d="M63.9961,70.5297h -6.80315" fill="none" stroke="black" stroke-width="2"/>
<path d="M70.7992,63.8615h -13.6063" fill="none" stroke="black" stroke-width="2"/>
<path d="M70.7992,63.8615h -13.6063" fill="none" stroke="black" stroke-width="2"/>
<path d="M63.9961,57.1934h -6.80315" fill="none" stroke="black" stroke-width="2"/>
<path d="M63.9961,50.5252h -6.80315" fill="none" stroke="black" stroke-width="2"/>
<path d="M63.9961,43.857h -6.80315" fill="none" stroke="black" stroke-width="2"/>
<path d="M63.9961,37.1888h -6.80315" fill="none" stroke="black" stroke-width="2"/>
<text x="46.8009" y="335.424" fill="black" font-size="12.2947" font-family="Helvetica">
0
</text>
<text x="33.4251" y="301.47" fill="black" font-size="12.2947" font-family="Helvetica">
500
</text>
<text x="26.2227" y="268.545" fill="black" font-size="12.2947" font-family="Helvetica">
1000
</text>
<text x="26.2227" y="235.62" fill="black" font-size="12.2947" font-family="Helvetica">
1500
</text>
<text x="26.2227" y="201.666" fill="black" font-size="12.2947" font-family="Helvetica">
2000
</text>
<text x="26.2227" y="168.741" fill="black" font-size="12.2947" font-family="Helvetica">
2500
</text>
<text x="26.2227" y="134.787" fill="black" font-size="12.2947" font-family="Helvetica">
3000
</text>
<text x="26.2227" y="101.862" fill="black" font-size="12.2947" font-family="Helvetica">
3500
</text>
<text x="26.2227" y="68.9369" fill="black" font-size="12.2947" font-family="Helvetica">
4000
</text>
<rect x="351.996" y="23.8758" width="204.094" height="191.007" fill="white"/>
<path d="M351.996,214.883h 204.094" fill="none" stroke="black" stroke-width="2"/>
<path d="M556.091,214.883v -191.007" fill="none" stroke="black" stroke-width="2"/>
<path d="M556.091,23.8758h -204.094" fill="none" stroke="black" stroke-width="2"/>
<path d="M351.996,23.8758v 191.007" fill="none" stroke="black" stroke-width="2"/>
<text x="373.994" y="34.9829" fill="black" font-size="12.2199" font-family="Helvetica">
 / ndf 
</text>
<text x="368.85" y="30.8673" fill="black" font-size="8.31326" font-family="Helvetica">
2
</text>
<text x="361.647" y="34.9829" fill="black" font-size="12.2199" font-family="Times">
&#0967;
</text>
<text x="482.03" y="36.0118" fill="black" font-size="12.2199" font-family="Helvetica">
  2219 / 429
</text>
<text x="361.647" y="52.4744" fill="black" font-size="12.2199" font-family="Helvetica">
1-Centroid 
</text>
<text x="526.273" y="52.4744" fill="black" font-size="12.2199" font-family="Helvetica">
 0.0
</text>
<text x="519.07" y="52.4744" fill="black" font-size="12.2199" font-family="Times">
&#0177;
</text>
<text x="482.03" y="52.4744" fill="black" font-size="12.2199" font-family="Helvetica">
 169.5 
</text>
<text x="361.647" y="67.908" fill="black" font-size="12.2199" font-family="Helvetica">
1-FWHM   
</text>
<text x="519.07" y="67.908" fill="black" font-size="12.2199" font-family="Helvetica">
 0.07
</text>
<text x="511.868" y="67.908" fill="black" font-size="12.2199" font-family="Times">
&#0177;
</text>
<text x="474.827" y="67.908" fill="black" font-size="12.2199" font-family="Helvetica">
 16.28 
</text>
<text x="361.647" y="84.3706" fill="black" font-size="12.2199" font-family="Helvetica">
1-Counts 
</text>
<text x="485.116" y="84.3706" fill="black" font-size="12.2199" font-family="Helvetica">
 2.906e+02
</text>
<text x="477.914" y="84.3706" fill="black" font-size="12.2199" font-family="Times">
&#0177;
</text>
<text x="414.122" y="84.3706" fill="black" font-size="12.2199" font-family="Helvetica">
 6.616e+04 
</text>
<text x="361.647" y="99.8042" fill="black" font-size="12.2199" font-family="Helvetica">
2-Centroid 
</text>
<text x="526.273" y="99.8042" fill="black" font-size="12.2199" font-family="Helvetica">
 0.2
</text>
<text x="519.07" y="99.8042" fill="black" font-size="12.2199" font-family="Times">
&#0177;
</text>
<text x="484.087" y="99.8042" fill="black" font-size="12.2199" font-family="Helvetica">
 333.1 
</text>
<text x="361.647" y="116.267" fill="black" font-size="12.2199" font-family="Helvetica">
2-FWHM   
</text>
<text x="519.07" y="116.267" fill="black" font-size="12.2199" font-family="Helvetica">
 0.37
</text>
<text x="511.868" y="116.267" fill="black" font-size="12.2199" font-family="Times">
&#0177;
</text>
<text x="474.827" y="116.267" fill="black" font-size="12.2199" font-family="Helvetica">
 25.24 
</text>
<text x="361.647" y="131.7" fill="black" font-size="12.2199" font-family="Helvetica">
2-Counts 
</text>
<text x="485.116" y="131.7" fill="black" font-size="12.2199" font-family="Helvetica">
 1.627e+02
</text>
<text x="477.914" y="131.7" fill="black" font-size="12.2199" font-family="Times">
&#0177;
</text>
<text x="414.122" y="131.7" fill="black" font-size="12.2199" font-family="Helvetica">
 1.031e+04 
</text>
<text x="361.647" y="148.163" fill="black" font-size="12.2199" font-family="Helvetica">
3-Centroid 
</text>
<text x="528.331" y="148.163" fill="black" font-size="12.2199" font-family="Helvetica">
 0.1
</text>
<text x="521.128" y="148.163" fill="black" font-size="12.2199" font-family="Times">
&#0177;
</text>
<text x="484.087" y="148.163" fill="black" font-size="12.2199" font-family="Helvetica">
 465.8 
</text>
<text x="361.647" y="163.597" fill="black" font-size="12.2199" font-family="Helvetica">
3-FWHM   
</text>
<text x="519.07" y="163.597" fill="black" font-size="12.2199" font-family="Helvetica">
 0.23
</text>
<text x="511.868" y="163.597" fill="black" font-size="12.2199" font-family="Times">
&#0177;
</text>
<text x="474.827" y="163.597" fill="black" font-size="12.2199" font-family="Helvetica">
 35.18 
</text>
<text x="361.647" y="180.059" fill="black" font-size="12.2199" font-family="Helvetica">
3-Counts 
</text>
<text x="485.116" y="180.059" fill="black" font-size="12.2199" font-family="Helvetica">
 2.227e+02
</text>
<text x="477.914" y="180.059" fill="black" font-size="12.2199" font-family="Times">
&#0177;
</text>
<text x="414.122" y="180.059" fill="black" font-size="12.2199" font-family="Helvetica">
 3.103e+04 
</text>
<text x="361.647" y="194.464" fill="black" font-size="12.2199" font-family="Helvetica">
Intercept 
</text>
<text x="526.273" y="195.493" fill="black" font-size="12.2199" font-family="Helvetica">
 2.9
</text>
<text x="519.07" y="195.493" fill="black" font-size="12.2199" font-family="Times">
&#0177;
</text>
<text x="482.03" y="195.493" fill="black" font-size="12.2199" font-family="Helvetica">
 406.2 
</text>
<text x="361.647" y="210.926" fill="black" font-size="12.2199" font-family="Helvetica">
Slope    
</text>
<text x="505.695" y="211.955" fill="black" font-size="12.2199" font-family="Helvetica">
 0.0066
</text>
<text x="498.492" y="211.955" fill="black" font-size="12.2199" font-family="Times">
&#0177;
</text>
<text x="458.365" y="211.955" fill="black" font-size="12.2199" font-family="Helvetica">
0.5343 
</text>
<text x="451.162" y="211.955" fill="black" font-size="12.2199" font-family="Times">
&#8722;
</text>
<text x="448.076" y="211.955" fill="black" font-size="12.2199" font-family="Helvetica">
 
</text>
<path d="M59.4606,319.426l 4.53543, -33.4781l 4.53543, -74.6247l 4.53543, -93.6099l 4.53543, -40.9677l 4.53543, 51.6182l 4.53543, 94.595l 4.53543, 69.3599l 4.53543, 29.1792l 4.53543, 7.6484l 4.53543, 1.28984l 4.53543, 0.152978h 172.346" fill="none"
 stroke="#00ff00" stroke-width="2"/>
<path d="M281.697,330.589h 222.236" fill="none" stroke="#00ff00" stroke-width="2"/>
<path d="M503.933,330.589h 4.53543" fill="none" stroke="#00ff00" stroke-width="2"/>
<path d="M59.4606,330.589h 145.134l 4.53543, -0.101587l 4.53543, -0.263096l 4.53543, -0.742215l 4.53543, -1.73373l 4.53543, -3.323l 4.53543, -5.14405l 4.53543, -6.23214l 4.53543, -5.46357l 4.53543, -2.50444l 4.53543, 1.59284l 4.53543, 4.95746l
 4.53543, 6.25155l 4.53543, 5.5057l 4.53543, 3.75039l 4.53543, 2.05232l 4.53543, 0.918884l 4.53543, 0.340069" fill="none" stroke="#00ff00" stroke-width="2"/>
<path d="M281.697,330.45l 4.53543, 0.104687l 4.53543, 0.0339456h 213.165" fill="none" stroke="#00ff00" stroke-width="2"/>
<path d="M503.933,330.589h 4.53543" fill="none" stroke="#00ff00" stroke-width="2"/>
<path d="M59.4606,330.589h 222.236" fill="none" stroke="#00ff00" stroke-width="2"/>
<path d="M281.697,330.589h 40.8189l 4.53543, -0.0820187l 4.53543, -0.14484l 4.53543, -0.348693l 4.53543, -0.763809l 4.53543, -1.51952l 4.53543, -2.73843l 4.53543, -4.45457l 4.53543, -6.50583l 4.53543, -8.45946l 4.53543, -9.65341l 4.53543, -9.40205l
 4.53543, -7.31538l 4.53543, -3.57109l 4.53543, 1.045l 4.53543, 5.402l 4.53543, 8.47315l 4.53543, 9.72795l 4.53543, 9.26339l 4.53543, 7.64189l 4.53543, 5.57391l 4.53543, 3.635l 4.53543, 2.13399l 4.53543, 1.13281l 4.53543, 0.545421l 4.53543, 0.238713l
 4.53543, 0.0951259l 4.53543, 0.0507553h 58.9606" fill="none" stroke="#00ff00" stroke-width="2"/>
<path d="M503.933,330.589h 4.53543" fill="none" stroke="#00ff00" stroke-width="2"/>
<text x="177.472" y="17.4915" fill="black" font-size="17.831" font-family="Helvetica">
Wk2/Calibration/152Eu.Spe
</text></svg>
