<?xml version="1.0" standalone="no"?>
<svg width="567.429" height="272.626" viewBox="0 0 567.429 272.626" xmlns="http://www.w3.org/2000/svg">
<title>
/home/ADF/hyw543/Coincidence/c1.svg
</title>
<desc>
Creator: ROOT Version 6.06/08
CreationDate: Tue Jan  8 19:40:01 2019</desc>
<defs>
</defs>
<rect x="0.5" y="0" width="566.929" height="272.126" fill="white"/>
<rect x="57.1929" y="27.2126" width="453.543" height="217.701" fill="white"/>
<rect x="57.1929" y="27.2126" width="453.543" height="217.701" fill="none" stroke="black"/>
<rect x="57.1929" y="27.2126" width="453.543" height="217.701" fill="white"/>
<rect x="57.1929" y="27.2126" width="453.543" height="217.701" fill="none" stroke="black"/>
<path d="M57.1929,232.271h 3.79534v -7.58539h 7.59068v 7.58539h 1.89767v -2.52846h 1.89767v -2.52846h 1.89767v -5.05693h 1.89767v 7.58539h 1.89767v -5.05693h 1.89767v 2.52846h 1.89767v 7.58539h 1.89767v -15.1708h 1.89767v 12.6423h 1.89767v -10.1139h
 1.89767v 2.52846h 1.89767v 5.05693h 1.89767v 5.05693h 1.89767v -12.6423h 1.89767v -5.05693h 1.89767v 12.6423h 3.79534v -17.6993h 1.89767v 12.6423h 1.89767v -2.52846h 1.89767v 10.1139h 1.89767v -2.52846h 1.89767v -10.1139h 1.89767v 7.58539h 3.79534v
 -10.1139h 1.89767v 5.05693h 1.89767v 7.58539h 1.89767v -10.1139h 3.79534v 5.05693h 1.89767v -7.58539h 1.89767v -7.58539h 1.89767v 5.05693h 1.89767v 2.52846h 1.89767v 2.52846h 1.89767v -7.58539h 1.89767v -5.05693h 1.89767v 5.05693h 3.79534v 2.52846h
 1.89767v -5.05693h 1.89767v -12.6423h 3.79534v -2.52846h 1.89767v 12.6423h 1.89767v -10.1139h 3.79534v -10.1139h 1.89767v 17.6993h 1.89767v 7.58539h 1.89767v -12.6423h 1.89767v -17.6993h 1.89767v 10.1139h 1.89767v 2.52846h 1.89767v -10.1139h
 1.89767v -7.58539h 1.89767v 2.52846h 1.89767v 10.1139h 1.89767v -32.87h 1.89767v 17.6993h 1.89767v -17.6993h 1.89767v 27.8131h 1.89767v -15.1708h 1.89767v 15.1708h 1.89767v -12.6423h 1.89767v -12.6423h 1.89767v 10.1139h 1.89767v 2.52846h 1.89767v
 -50.5693h 1.89767v 42.9839h 1.89767v -5.05693h 1.89767v -42.9839h 3.79534v 12.6423h 1.89767v -15.1708h 1.89767v 42.9839h 3.79534v -80.9109h 1.89767v 37.927h 1.89767v 32.87h 1.89767v -17.6993h 1.89767v -12.6423h 3.79534v 20.2277h 3.79534v -25.2846h
 3.79534v 7.58539h 1.89767v -10.1139h 1.89767v -10.1139h 3.79534v -7.58539h 1.89767v -12.6423h 1.89767v 7.58539h 1.89767v 7.58539h 1.89767v 7.58539h 1.89767v -7.58539h 1.89767v 20.2277h 1.89767v -12.6423h 1.89767v -63.2116h 1.89767v 60.6831h 1.89767v
 -20.2277h 1.89767v 20.2277h 1.89767v -30.3416h 1.89767v 32.87h 1.89767v 10.1139h 1.89767v -25.2846h 1.89767v 25.2846h 1.89767v -20.2277h 1.89767v -22.7562h 1.89767v 42.9839h 1.89767v -32.87h 1.89767v 10.1139h 1.89767v 20.2277h 1.89767v 15.1708h
 1.89767v -17.6993h 1.89767v -2.52846h 1.89767v 22.7562h 1.89767v -45.5124h 1.89767v 20.2277h 1.89767v -17.6993h 1.89767v 45.5124h 1.89767v -7.58539h 1.89767v -12.6423h 1.89767v 25.2846h 1.89767v -7.58539h 1.89767v 15.1708h 1.89767v 5.05693h 1.89767v
 -32.87h 1.89767v 17.6993h 1.89767v 5.05693h 1.89767v -35.3985h 1.89767v -12.6423h 1.89767v 55.6262h 1.89767v -7.58539h 1.89767v -22.7562h 3.79534v 17.6993h 1.89767v 15.1708h 1.89767v -7.58539h 1.89767v -7.58539h 1.89767v -12.6423h 1.89767v 53.0978h
 1.89767v -15.1708h 1.89767v -25.2846h 1.89767v 15.1708h 1.89767v -15.1708h 1.89767v 22.7562h 1.89767v 25.2846h 1.89767v -20.2277h 1.89767v -10.1139h 1.89767v 7.58539h 1.89767v -5.05693h 1.89767v 37.927h 1.89767v -22.7562h 1.89767v 17.6993h 1.89767v
 10.1139h 1.89767v -7.58539h 1.89767v -20.2277h 1.89767v 20.2277h 1.89767v -5.05693h 1.89767v 5.05693h 1.89767v -7.58539h 1.89767v -22.7562h 1.89767v 50.5693h 1.89767v 7.58539h 1.89767v -30.3416h 1.89767v -5.05693h 1.89767v 20.2277h 1.89767v 20.2277h
 1.89767v -50.5693h 1.89767v 15.1708h 1.89767v 20.2277h 1.89767v 2.52846h 1.89767v -5.05693h 1.89767v 12.6423h 1.89767v -20.2277h 1.89767v 12.6423h 1.89767v -2.52846h 1.89767v 20.2277h 3.79534v -2.52846h 1.89767v -15.1708h 1.89767v 2.52846h 1.89767v
 17.6993h 1.89767v -7.58539h 1.89767v -5.05693h 1.89767v 15.1708h 1.89767v 5.05693h 1.89767v -15.1708h 1.89767v 5.05693h 1.89767v 5.05693h 1.89767v -5.05693h 1.89767v -2.52846h 1.89767v 5.05693h 1.89767v -2.52846h 1.89767v 5.05693h 3.79534v -5.05693h
 1.89767v 2.52846h 1.89767v -5.05693h 1.89767v 12.6423h 1.89767v -7.58539h 1.89767v -2.52846h 1.89767v 2.52846h 3.79534v 5.05693h 1.89767v 2.52846h 1.89767v -10.1139h 1.89767v 2.52846h 1.89767v 5.05693h 1.89767v -7.58539h 1.89767v 10.1139h 1.89767v
 -2.52846h 1.89767v 5.05693h 1.89767v -7.58539h 1.89767v 10.1139h 1.89767v -2.52846h 1.89767v -7.58539h 1.89767v 2.52846h 1.89767v 5.05693h 1.89767v -5.05693h 1.89767v 5.05693h 3.79534v -5.05693h 1.89767v 7.58539h 1.89767v -5.05693h 1.89767v 5.05693h
 1.89767v -5.05693h 1.89767v 2.52846h 1.89767v -5.05693h 1.89767" fill="none" stroke="#ff0000" stroke-width="2"/>
<path d="M59.4606,230.563l 4.53543, -0.167276l 4.53543, -0.210866l 4.53543, -0.261679l 4.53543, -0.320578l 4.53543, -0.388456l 4.53543, -0.466228l 4.53543, -0.554806l 4.53543, -0.655082l 4.53543, -0.767901l 4.53543, -0.894033l 4.53543, -1.03414l
 4.53543, -1.18873l 4.53543, -1.35816l 4.53543, -1.54252l 4.53543, -1.74167l 4.53543, -1.95517l 4.53543, -2.18223l 4.53543, -2.42169l 4.53543, -2.672l 4.53543, -2.93117l 4.53543, -3.1968l 4.53543, -3.46604l 4.53543, -3.73562l 4.53543, -4.00186l
 4.53543, -4.26073l 4.53543, -4.50786l 4.53543, -4.73863l 4.53543, -4.94828l 4.53543, -5.13193l 4.53543, -5.28473l 4.53543, -5.40199l 4.53543, -5.47924l 4.53543, -5.51238l 4.53543, -5.49784l 4.53543, -5.43261l 4.53543, -5.31443l 4.53543, -5.14183l
 4.53543, -4.91423l 4.53543, -4.63202l 4.53543, -4.29655l 4.53543, -3.91018l 4.53543, -3.47627l 4.53543, -2.99911l 4.53543, -2.48387l 4.53543, -1.93653l 4.53543, -1.36372l 4.53543, -0.772648l 4.53543, -0.170877l 4.53543, 0.433775" fill="none"
 stroke="#0000ff" stroke-width="2"/>
<path d="M281.697,95.2739l 4.53543, 1.03344l 4.53543, 1.62034l 4.53543, 2.18699l 4.53543, 2.72634l 4.53543, 3.23191l 4.53543, 3.69793l 4.53543, 4.11946l 4.53543, 4.49245l 4.53543, 4.81381l 4.53543, 5.08145l 4.53543, 5.29428l 4.53543, 5.45218l
 4.53543, 5.55596l 4.53543, 5.60733l 4.53543, 5.60875l 4.53543, 5.56339l 4.53543, 5.47498l 4.53543, 5.34773l 4.53543, 5.18617l 4.53543, 4.99506l 4.53543, 4.77927l 4.53543, 4.54364l 4.53543, 4.29292l 4.53543, 4.03165l 4.53543, 3.76413l 4.53543,
 3.4943l 4.53543, 3.22572l 4.53543, 2.96156l 4.53543, 2.70455l 4.53543, 2.45698l 4.53543, 2.22072l 4.53543, 1.9972l 4.53543, 1.78749l 4.53543, 1.59228l 4.53543, 1.41192l 4.53543, 1.2465l 4.53543, 1.09584l 4.53543, 0.959542l 4.53543, 0.837054l
 4.53543, 0.727682l 4.53543, 0.630632l 4.53543, 0.545045l 4.53543, 0.470019l 4.53543, 0.40464l 4.53543, 0.347999l 4.53543, 0.299209l 4.53543, 0.257417l 4.53543, 0.221821l 4.53543, 0.191668" fill="none" stroke="#0000ff" stroke-width="2"/>
<path d="M503.933,235.863l 4.53543, 0.166265" fill="none" stroke="#0000ff" stroke-width="2"/>
<rect x="351.996" y="17.6882" width="204.094" height="76.1953" fill="white"/>
<path d="M351.996,93.8835h 204.094" fill="none" stroke="black" stroke-width="2"/>
<path d="M556.091,93.8835v -76.1953" fill="none" stroke="black" stroke-width="2"/>
<path d="M556.091,17.6882h -204.094" fill="none" stroke="black" stroke-width="2"/>
<path d="M351.996,17.6882v 76.1953" fill="none" stroke="black" stroke-width="2"/>
<text x="371.222" y="27.607" fill="black" font-size="11.2186" font-family="Helvetica">
 / ndf 
</text>
<text x="367.279" y="23.6631" fill="black" font-size="7.64574" font-family="Helvetica">
2
</text>
<text x="361.363" y="27.607" fill="black" font-size="11.2186" font-family="Times">
&#0967;
</text>
<text x="489.538" y="28.5929" fill="black" font-size="11.2186" font-family="Helvetica">
 211.6 / 234
</text>
<text x="361.363" y="41.4105" fill="black" font-size="11.2186" font-family="Helvetica">
Centroid 
</text>
<text x="527.991" y="40.4245" fill="black" font-size="11.2186" font-family="Helvetica">
 0.7
</text>
<text x="522.075" y="40.4245" fill="black" font-size="11.2186" font-family="Times">
&#0177;
</text>
<text x="490.524" y="40.4245" fill="black" font-size="11.2186" font-family="Helvetica">
  1834 
</text>
<text x="361.363" y="54.228" fill="black" font-size="11.2186" font-family="Helvetica">
FWHM     
</text>
<text x="522.075" y="53.242" fill="black" font-size="11.2186" font-family="Helvetica">
 1.70
</text>
<text x="516.159" y="53.242" fill="black" font-size="11.2186" font-family="Times">
&#0177;
</text>
<text x="484.608" y="53.242" fill="black" font-size="11.2186" font-family="Helvetica">
 85.14 
</text>
<text x="361.363" y="67.0455" fill="black" font-size="11.2186" font-family="Helvetica">
Counts   
</text>
<text x="518.131" y="66.0596" fill="black" font-size="11.2186" font-family="Helvetica">
 110.1
</text>
<text x="512.215" y="66.0596" fill="black" font-size="11.2186" font-family="Times">
&#0177;
</text>
<text x="480.664" y="66.0596" fill="black" font-size="11.2186" font-family="Helvetica">
  4996 
</text>
<text x="361.363" y="77.8911" fill="black" font-size="11.2186" font-family="Helvetica">
Intercept 
</text>
<text x="522.075" y="77.8911" fill="black" font-size="11.2186" font-family="Helvetica">
 5.40
</text>
<text x="516.159" y="77.8911" fill="black" font-size="11.2186" font-family="Times">
&#0177;
</text>
<text x="484.608" y="77.8911" fill="black" font-size="11.2186" font-family="Helvetica">
 19.63 
</text>
<text x="361.363" y="90.7087" fill="black" font-size="11.2186" font-family="Helvetica">
Slope    
</text>
<text x="498.412" y="90.7087" fill="black" font-size="11.2186" font-family="Helvetica">
 0.002868
</text>
<text x="492.496" y="90.7087" fill="black" font-size="11.2186" font-family="Times">
&#0177;
</text>
<text x="445.17" y="90.7087" fill="black" font-size="11.2186" font-family="Helvetica">
0.008334 
</text>
<text x="439.254" y="90.7087" fill="black" font-size="11.2186" font-family="Times">
&#8722;
</text>
<text x="437.282" y="90.7087" fill="black" font-size="11.2186" font-family="Helvetica">
 
</text>
<path d="M57.1929,244.913h 453.543" fill="none" stroke="black" stroke-width="2"/>
<text x="473.763" y="263.252" fill="black" font-size="9.23799" font-family="Helvetica">
Channels
</text>
<path d="M117.918,238.382v 6.53102" fill="none" stroke="black" stroke-width="2"/>
<path d="M136.895,241.648v 3.26551" fill="none" stroke="black" stroke-width="2"/>
<path d="M155.872,241.648v 3.26551" fill="none" stroke="black" stroke-width="2"/>
<path d="M174.848,241.648v 3.26551" fill="none" stroke="black" stroke-width="2"/>
<path d="M193.825,241.648v 3.26551" fill="none" stroke="black" stroke-width="2"/>
<path d="M212.802,238.382v 6.53102" fill="none" stroke="black" stroke-width="2"/>
<path d="M231.779,241.648v 3.26551" fill="none" stroke="black" stroke-width="2"/>
<path d="M250.755,241.648v 3.26551" fill="none" stroke="black" stroke-width="2"/>
<path d="M269.732,241.648v 3.26551" fill="none" stroke="black" stroke-width="2"/>
<path d="M288.709,241.648v 3.26551" fill="none" stroke="black" stroke-width="2"/>
<path d="M307.685,238.382v 6.53102" fill="none" stroke="black" stroke-width="2"/>
<path d="M326.662,241.648v 3.26551" fill="none" stroke="black" stroke-width="2"/>
<path d="M345.639,241.648v 3.26551" fill="none" stroke="black" stroke-width="2"/>
<path d="M364.616,241.648v 3.26551" fill="none" stroke="black" stroke-width="2"/>
<path d="M383.592,241.648v 3.26551" fill="none" stroke="black" stroke-width="2"/>
<path d="M402.569,238.382v 6.53102" fill="none" stroke="black" stroke-width="2"/>
<path d="M421.546,241.648v 3.26551" fill="none" stroke="black" stroke-width="2"/>
<path d="M440.522,241.648v 3.26551" fill="none" stroke="black" stroke-width="2"/>
<path d="M459.499,241.648v 3.26551" fill="none" stroke="black" stroke-width="2"/>
<path d="M478.476,241.648v 3.26551" fill="none" stroke="black" stroke-width="2"/>
<path d="M497.453,238.382v 6.53102" fill="none" stroke="black" stroke-width="2"/>
<path d="M117.918,238.382v 6.53102" fill="none" stroke="black" stroke-width="2"/>
<path d="M98.9417,241.648v 3.26551" fill="none" stroke="black" stroke-width="2"/>
<path d="M79.965,241.648v 3.26551" fill="none" stroke="black" stroke-width="2"/>
<path d="M60.9883,241.648v 3.26551" fill="none" stroke="black" stroke-width="2"/>
<path d="M497.453,238.382v 6.53102" fill="none" stroke="black" stroke-width="2"/>
<text x="107.97" y="253.393" fill="black" font-size="9.23799" font-family="Helvetica">
1750
</text>
<text x="202.623" y="253.393" fill="black" font-size="9.23799" font-family="Helvetica">
1800
</text>
<text x="297.275" y="253.393" fill="black" font-size="9.23799" font-family="Helvetica">
1850
</text>
<text x="391.928" y="253.393" fill="black" font-size="9.23799" font-family="Helvetica">
1900
</text>
<text x="487.566" y="253.393" fill="black" font-size="9.23799" font-family="Helvetica">
1950
</text>
<path d="M57.1929,244.913v -217.701" fill="none" stroke="black" stroke-width="2"/>
<path d="M70.7992,244.913h -13.6063" fill="none" stroke="black" stroke-width="2"/>
<path d="M63.9961,239.856h -6.80315" fill="none" stroke="black" stroke-width="2"/>
<path d="M63.9961,234.8h -6.80315" fill="none" stroke="black" stroke-width="2"/>
<path d="M63.9961,229.743h -6.80315" fill="none" stroke="black" stroke-width="2"/>
<path d="M63.9961,224.686h -6.80315" fill="none" stroke="black" stroke-width="2"/>
<path d="M70.7992,219.629h -13.6063" fill="none" stroke="black" stroke-width="2"/>
<path d="M63.9961,214.572h -6.80315" fill="none" stroke="black" stroke-width="2"/>
<path d="M63.9961,209.515h -6.80315" fill="none" stroke="black" stroke-width="2"/>
<path d="M63.9961,204.458h -6.80315" fill="none" stroke="black" stroke-width="2"/>
<path d="M63.9961,199.401h -6.80315" fill="none" stroke="black" stroke-width="2"/>
<path d="M70.7992,194.344h -13.6063" fill="none" stroke="black" stroke-width="2"/>
<path d="M63.9961,189.287h -6.80315" fill="none" stroke="black" stroke-width="2"/>
<path d="M63.9961,184.23h -6.80315" fill="none" stroke="black" stroke-width="2"/>
<path d="M63.9961,179.173h -6.80315" fill="none" stroke="black" stroke-width="2"/>
<path d="M63.9961,174.116h -6.80315" fill="none" stroke="black" stroke-width="2"/>
<path d="M70.7992,169.059h -13.6063" fill="none" stroke="black" stroke-width="2"/>
<path d="M63.9961,164.003h -6.80315" fill="none" stroke="black" stroke-width="2"/>
<path d="M63.9961,158.946h -6.80315" fill="none" stroke="black" stroke-width="2"/>
<path d="M63.9961,153.889h -6.80315" fill="none" stroke="black" stroke-width="2"/>
<path d="M63.9961,148.832h -6.80315" fill="none" stroke="black" stroke-width="2"/>
<path d="M70.7992,143.775h -13.6063" fill="none" stroke="black" stroke-width="2"/>
<path d="M63.9961,138.718h -6.80315" fill="none" stroke="black" stroke-width="2"/>
<path d="M63.9961,133.661h -6.80315" fill="none" stroke="black" stroke-width="2"/>
<path d="M63.9961,128.604h -6.80315" fill="none" stroke="black" stroke-width="2"/>
<path d="M63.9961,123.547h -6.80315" fill="none" stroke="black" stroke-width="2"/>
<path d="M70.7992,118.49h -13.6063" fill="none" stroke="black" stroke-width="2"/>
<path d="M63.9961,113.433h -6.80315" fill="none" stroke="black" stroke-width="2"/>
<path d="M63.9961,108.376h -6.80315" fill="none" stroke="black" stroke-width="2"/>
<path d="M63.9961,103.319h -6.80315" fill="none" stroke="black" stroke-width="2"/>
<path d="M63.9961,98.2625h -6.80315" fill="none" stroke="black" stroke-width="2"/>
<path d="M70.7992,93.2055h -13.6063" fill="none" stroke="black" stroke-width="2"/>
<path d="M63.9961,88.1486h -6.80315" fill="none" stroke="black" stroke-width="2"/>
<path d="M63.9961,83.0917h -6.80315" fill="none" stroke="black" stroke-width="2"/>
<path d="M63.9961,78.0347h -6.80315" fill="none" stroke="black" stroke-width="2"/>
<path d="M63.9961,72.9778h -6.80315" fill="none" stroke="black" stroke-width="2"/>
<path d="M70.7992,67.9209h -13.6063" fill="none" stroke="black" stroke-width="2"/>
<path d="M63.9961,62.864h -6.80315" fill="none" stroke="black" stroke-width="2"/>
<path d="M63.9961,57.807h -6.80315" fill="none" stroke="black" stroke-width="2"/>
<path d="M63.9961,52.7501h -6.80315" fill="none" stroke="black" stroke-width="2"/>
<path d="M63.9961,47.6932h -6.80315" fill="none" stroke="black" stroke-width="2"/>
<path d="M70.7992,42.6362h -13.6063" fill="none" stroke="black" stroke-width="2"/>
<path d="M70.7992,42.6362h -13.6063" fill="none" stroke="black" stroke-width="2"/>
<path d="M63.9961,37.5793h -6.80315" fill="none" stroke="black" stroke-width="2"/>
<path d="M63.9961,32.5224h -6.80315" fill="none" stroke="black" stroke-width="2"/>
<path d="M63.9961,27.4654h -6.80315" fill="none" stroke="black" stroke-width="2"/>
<text x="48.8122" y="248.463" fill="black" font-size="9.23799" font-family="Helvetica">
0
</text>
<text x="43.8824" y="222.828" fill="black" font-size="9.23799" font-family="Helvetica">
10
</text>
<text x="43.8824" y="198.179" fill="black" font-size="9.23799" font-family="Helvetica">
20
</text>
<text x="43.8824" y="172.544" fill="black" font-size="9.23799" font-family="Helvetica">
30
</text>
<text x="43.8824" y="146.909" fill="black" font-size="9.23799" font-family="Helvetica">
40
</text>
<text x="43.8824" y="122.26" fill="black" font-size="9.23799" font-family="Helvetica">
50
</text>
<text x="43.8824" y="96.6245" fill="black" font-size="9.23799" font-family="Helvetica">
60
</text>
<text x="43.8824" y="70.9894" fill="black" font-size="9.23799" font-family="Helvetica">
70
</text>
<text x="43.8824" y="46.3403" fill="black" font-size="9.23799" font-family="Helvetica">
80
</text>
<rect x="351.996" y="17.6882" width="204.094" height="76.1953" fill="white"/>
<path d="M351.996,93.8835h 204.094" fill="none" stroke="black" stroke-width="2"/>
<path d="M556.091,93.8835v -76.1953" fill="none" stroke="black" stroke-width="2"/>
<path d="M556.091,17.6882h -204.094" fill="none" stroke="black" stroke-width="2"/>
<path d="M351.996,17.6882v 76.1953" fill="none" stroke="black" stroke-width="2"/>
<text x="371.222" y="27.607" fill="black" font-size="11.2186" font-family="Helvetica">
 / ndf 
</text>
<text x="367.279" y="23.6631" fill="black" font-size="7.64574" font-family="Helvetica">
2
</text>
<text x="361.363" y="27.607" fill="black" font-size="11.2186" font-family="Times">
&#0967;
</text>
<text x="489.538" y="28.5929" fill="black" font-size="11.2186" font-family="Helvetica">
 211.6 / 234
</text>
<text x="361.363" y="41.4105" fill="black" font-size="11.2186" font-family="Helvetica">
Centroid 
</text>
<text x="527.991" y="40.4245" fill="black" font-size="11.2186" font-family="Helvetica">
 0.7
</text>
<text x="522.075" y="40.4245" fill="black" font-size="11.2186" font-family="Times">
&#0177;
</text>
<text x="490.524" y="40.4245" fill="black" font-size="11.2186" font-family="Helvetica">
  1834 
</text>
<text x="361.363" y="54.228" fill="black" font-size="11.2186" font-family="Helvetica">
FWHM     
</text>
<text x="522.075" y="53.242" fill="black" font-size="11.2186" font-family="Helvetica">
 1.70
</text>
<text x="516.159" y="53.242" fill="black" font-size="11.2186" font-family="Times">
&#0177;
</text>
<text x="484.608" y="53.242" fill="black" font-size="11.2186" font-family="Helvetica">
 85.14 
</text>
<text x="361.363" y="67.0455" fill="black" font-size="11.2186" font-family="Helvetica">
Counts   
</text>
<text x="518.131" y="66.0596" fill="black" font-size="11.2186" font-family="Helvetica">
 110.1
</text>
<text x="512.215" y="66.0596" fill="black" font-size="11.2186" font-family="Times">
&#0177;
</text>
<text x="480.664" y="66.0596" fill="black" font-size="11.2186" font-family="Helvetica">
  4996 
</text>
<text x="361.363" y="77.8911" fill="black" font-size="11.2186" font-family="Helvetica">
Intercept 
</text>
<text x="522.075" y="77.8911" fill="black" font-size="11.2186" font-family="Helvetica">
 5.40
</text>
<text x="516.159" y="77.8911" fill="black" font-size="11.2186" font-family="Times">
&#0177;
</text>
<text x="484.608" y="77.8911" fill="black" font-size="11.2186" font-family="Helvetica">
 19.63 
</text>
<text x="361.363" y="90.7087" fill="black" font-size="11.2186" font-family="Helvetica">
Slope    
</text>
<text x="498.412" y="90.7087" fill="black" font-size="11.2186" font-family="Helvetica">
 0.002868
</text>
<text x="492.496" y="90.7087" fill="black" font-size="11.2186" font-family="Times">
&#0177;
</text>
<text x="445.17" y="90.7087" fill="black" font-size="11.2186" font-family="Helvetica">
0.008334 
</text>
<text x="439.254" y="90.7087" fill="black" font-size="11.2186" font-family="Times">
&#8722;
</text>
<text x="437.282" y="90.7087" fill="black" font-size="11.2186" font-family="Helvetica">
 
</text>
<path d="M59.4606,243.963l 4.53543, -0.217637l 4.53543, -0.261226l 4.53543, -0.312039l 4.53543, -0.370938l 4.53543, -0.438817l 4.53543, -0.516588l 4.53543, -0.605166l 4.53543, -0.705442l 4.53543, -0.818261l 4.53543, -0.944393l 4.53543, -1.0845l
 4.53543, -1.23909l 4.53543, -1.40852l 4.53543, -1.59288l 4.53543, -1.79203l 4.53543, -2.00553l 4.53543, -2.23259l 4.53543, -2.47205l 4.53543, -2.72236l 4.53543, -2.98153l 4.53543, -3.24716l 4.53543, -3.5164l 4.53543, -3.78598l 4.53543, -4.05223l
 4.53543, -4.31109l 4.53543, -4.55822l 4.53543, -4.78899l 4.53543, -4.99864l 4.53543, -5.18229l 4.53543, -5.33509l 4.53543, -5.45235l 4.53543, -5.5296l 4.53543, -5.56274l 4.53543, -5.5482l 4.53543, -5.48297l 4.53543, -5.36479l 4.53543, -5.19219l
 4.53543, -4.96459l 4.53543, -4.68238l 4.53543, -4.34691l 4.53543, -3.96054l 4.53543, -3.52663l 4.53543, -3.04947l 4.53543, -2.53423l 4.53543, -1.98689l 4.53543, -1.41409l 4.53543, -0.823008l 4.53543, -0.221238l 4.53543, 0.383415" fill="none"
 stroke="#00ff00" stroke-width="2"/>
<path d="M281.697,106.206l 4.53543, 0.983075l 4.53543, 1.56998l 4.53543, 2.13663l 4.53543, 2.67598l 4.53543, 3.18155l 4.53543, 3.64757l 4.53543, 4.0691l 4.53543, 4.44209l 4.53543, 4.76345l 4.53543, 5.03109l 4.53543, 5.24392l 4.53543, 5.40182l
 4.53543, 5.5056l 4.53543, 5.55697l 4.53543, 5.55839l 4.53543, 5.51302l 4.53543, 5.42462l 4.53543, 5.29737l 4.53543, 5.13581l 4.53543, 4.9447l 4.53543, 4.72891l 4.53543, 4.49328l 4.53543, 4.24255l 4.53543, 3.98129l 4.53543, 3.71377l 4.53543, 3.44394l
 4.53543, 3.17536l 4.53543, 2.9112l 4.53543, 2.65419l 4.53543, 2.40662l 4.53543, 2.17036l 4.53543, 1.94684l 4.53543, 1.73713l 4.53543, 1.54192l 4.53543, 1.36156l 4.53543, 1.19614l 4.53543, 1.04548l 4.53543, 0.909181l 4.53543, 0.786694l 4.53543,
 0.677322l 4.53543, 0.580272l 4.53543, 0.494684l 4.53543, 0.419659l 4.53543, 0.35428l 4.53543, 0.297639l 4.53543, 0.248848l 4.53543, 0.207057l 4.53543, 0.171461l 4.53543, 0.141308" fill="none" stroke="#00ff00" stroke-width="2"/>
<path d="M503.933,244.327l 4.53543, 0.115905" fill="none" stroke="#00ff00" stroke-width="2"/>
<text x="199.665" y="13.8035" fill="black" font-size="14.3397" font-family="Helvetica">
Wk2/Calibration/152Eu.Spe
</text></svg>
