<?xml version="1.0" standalone="no"?>
<svg width="567.429" height="367.821" viewBox="0 0 567.429 367.821" xmlns="http://www.w3.org/2000/svg">
<title>
/home/ADF/hyw543/Coincidence/c1.svg
</title>
<desc>
Creator: ROOT Version 6.06/08
CreationDate: Tue Jan  8 19:09:15 2019</desc>
<defs>
</defs>
<rect x="0.5" y="0" width="566.929" height="367.321" fill="white"/>
<rect x="57.1929" y="36.7321" width="453.543" height="293.857" fill="white"/>
<rect x="57.1929" y="36.7321" width="453.543" height="293.857" fill="none" stroke="black"/>
<rect x="57.1929" y="36.7321" width="453.543" height="293.857" fill="white"/>
<rect x="57.1929" y="36.7321" width="453.543" height="293.857" fill="none" stroke="black"/>
<path d="M57.1929,136.972h 3.77953v -10.5609h 3.77953v 15.8413h 3.77953v -35.2029h 3.77953v 17.6015h 3.77953v 19.3616h 3.77953v -19.3616h 3.77953v 24.6421h 3.77953v -17.6015h 3.77953v -12.321h 3.77953v 17.6015h 3.77953v -19.3616h 3.77953v 5.28044h
 3.77953v -5.28044h 3.77953v -1.76015h 3.77953v 1.76015h 3.77953v 14.0812h 3.77953v -36.9631h 3.77953v 15.8413h 3.77953v 17.6015h 3.77953v -19.3616h 3.77953v 17.6015h 3.77953v -3.52029h 3.77953v -38.7232h 3.77953v -17.6015h 3.77953v 38.7232h 3.77953v
 10.5609h 3.77953v 21.1218h 3.77953v -31.6826h 3.77953v 12.321h 7.55905v -19.3616h 3.77953v -42.2435h 3.77953v 38.7232h 3.77953v 14.0812h 3.77953v -3.52029h 3.77953v -8.80074h 3.77953v -33.4428h 3.77953v 17.6015h 3.77953v 15.8413h 3.77953v 10.5609h
 3.77953v -22.8819h 3.77953v -22.8819h 3.77953v 72.166h 3.77953v -40.4834h 3.77953v -29.9225h 3.77953v 28.1624h 3.77953v -12.321h 3.77953v 14.0812h 3.77953v -36.9631h 3.77953v 65.1254h 3.77953v -10.5609h 3.77953v 12.321h 3.77953v -22.8819h 3.77953v
 -12.321h 3.77953v 7.04059h 3.77953v -3.52029h 3.77953v -22.8819h 3.77953v 19.3616h 3.77953v -8.80074h 3.77953v 10.5609h 3.77953v -17.6015h 3.77953v 36.9631h 3.77953v -15.8413h 3.77953v 10.5609h 3.77953v -40.4834h 3.77953v 51.0443h 3.77953v -56.3247h
 3.77953v 35.2029h 3.77953v -36.9631h 3.77953v 10.5609h 3.77953v -7.04059h 3.77953v 8.80074h 3.77953v 12.321h 3.77953v -19.3616h 3.77953v 45.7638h 3.77953v -56.3247h 3.77953v 26.4022h 3.77953v 1.76015h 3.77953v -1.76015h 3.77953v 29.9225h 3.77953v
 -17.6015h 3.77953v -1.76015h 3.77953v 26.4022h 3.77953v -61.6051h 3.77953v 17.6015h 3.77953v 59.845h 3.77953v -12.321h 3.77953v -24.6421h 3.77953v 14.0812h 3.77953v 3.52029h 3.77953v 24.6421h 3.77953v 3.52029h 3.77953v -21.1218h 3.77953v 28.1624h
 3.77953v -5.28044h 3.77953v -3.52029h 3.77953v -42.2435h 3.77953v 45.7638h 3.77953v 3.52029h 3.77953v -33.4428h 3.77953v 51.0443h 3.77953v 5.28044h 7.55905v -33.4428h 3.77953v 24.6421h 3.77953v 14.0812h 3.77953v -14.0812h 3.77953v 3.52029h 3.77953v
 1.76015h 3.77953v -1.76015h 3.77953v 5.28044h 3.77953v 15.8413h 3.77953v 1.76015h 3.77953v -22.8819h 3.77953v 22.8819h 3.77953v -22.8819h 3.77953v 19.3616h 3.77953v 10.5609h 3.77953v -5.28044h 3.77953" fill="none" stroke="#ff0000" stroke-width="2"/>
<rect x="173.357" y="117.296" width="203.724" height="147.134" fill="white"/>
<path d="M173.357,264.43h 203.724" fill="none" stroke="black" stroke-width="2"/>
<path d="M377.081,264.43v -147.134" fill="none" stroke="black" stroke-width="2"/>
<path d="M377.081,117.296h -203.724" fill="none" stroke="black" stroke-width="2"/>
<path d="M173.357,117.296v 147.134" fill="none" stroke="black" stroke-width="2"/>
<text x="194.964" y="129.643" fill="black" font-size="14.105" font-family="Helvetica">
 / ndf 
</text>
<text x="189.819" y="124.498" fill="black" font-size="9.56999" font-family="Helvetica">
2
</text>
<text x="182.617" y="129.643" fill="black" font-size="14.105" font-family="Times">
&#0967;
</text>
<text x="297.855" y="129.643" fill="black" font-size="14.105" font-family="Helvetica">
 89.92 / 112
</text>
<text x="182.617" y="146.105" fill="black" font-size="14.105" font-family="Helvetica">
1-Centroid 
</text>
<text x="345.185" y="146.105" fill="black" font-size="14.105" font-family="Helvetica">
 5.4
</text>
<text x="337.982" y="146.105" fill="black" font-size="14.105" font-family="Times">
&#0177;
</text>
<text x="298.884" y="146.105" fill="black" font-size="14.105" font-family="Helvetica">
 556.9 
</text>
<text x="182.617" y="163.597" fill="black" font-size="14.105" font-family="Helvetica">
1-FWHM   
</text>
<text x="330.78" y="162.568" fill="black" font-size="14.105" font-family="Helvetica">
 12.58
</text>
<text x="323.578" y="162.568" fill="black" font-size="14.105" font-family="Times">
&#0177;
</text>
<text x="284.479" y="162.568" fill="black" font-size="14.105" font-family="Helvetica">
 34.86 
</text>
<text x="182.617" y="179.03" fill="black" font-size="14.105" font-family="Helvetica">
1-Counts 
</text>
<text x="330.78" y="179.03" fill="black" font-size="14.105" font-family="Helvetica">
 594.0
</text>
<text x="323.578" y="179.03" fill="black" font-size="14.105" font-family="Times">
&#0177;
</text>
<text x="284.479" y="179.03" fill="black" font-size="14.105" font-family="Helvetica">
  1024 
</text>
<text x="182.617" y="195.493" fill="black" font-size="14.105" font-family="Helvetica">
2-Centroid 
</text>
<text x="345.185" y="195.493" fill="black" font-size="14.105" font-family="Helvetica">
 3.4
</text>
<text x="337.982" y="195.493" fill="black" font-size="14.105" font-family="Times">
&#0177;
</text>
<text x="298.884" y="195.493" fill="black" font-size="14.105" font-family="Helvetica">
 595.6 
</text>
<text x="182.617" y="212.984" fill="black" font-size="14.105" font-family="Helvetica">
2-FWHM   
</text>
<text x="337.982" y="211.955" fill="black" font-size="14.105" font-family="Helvetica">
 8.32
</text>
<text x="330.78" y="211.955" fill="black" font-size="14.105" font-family="Times">
&#0177;
</text>
<text x="291.681" y="211.955" fill="black" font-size="14.105" font-family="Helvetica">
 39.24 
</text>
<text x="182.617" y="228.418" fill="black" font-size="14.105" font-family="Helvetica">
2-Counts 
</text>
<text x="330.78" y="228.418" fill="black" font-size="14.105" font-family="Helvetica">
 573.2
</text>
<text x="323.578" y="228.418" fill="black" font-size="14.105" font-family="Times">
&#0177;
</text>
<text x="284.479" y="228.418" fill="black" font-size="14.105" font-family="Helvetica">
  2015 
</text>
<text x="182.617" y="243.852" fill="black" font-size="14.105" font-family="Helvetica">
Intercept 
</text>
<text x="337.982" y="244.88" fill="black" font-size="14.105" font-family="Helvetica">
 44.9
</text>
<text x="330.78" y="244.88" fill="black" font-size="14.105" font-family="Times">
&#0177;
</text>
<text x="291.681" y="244.88" fill="black" font-size="14.105" font-family="Helvetica">
 236.9 
</text>
<text x="182.617" y="260.314" fill="black" font-size="14.105" font-family="Helvetica">
Slope    
</text>
<text x="322.549" y="261.343" fill="black" font-size="14.105" font-family="Helvetica">
 0.0752
</text>
<text x="315.346" y="261.343" fill="black" font-size="14.105" font-family="Times">
&#0177;
</text>
<text x="272.132" y="261.343" fill="black" font-size="14.105" font-family="Helvetica">
0.2395 
</text>
<text x="263.901" y="261.343" fill="black" font-size="14.105" font-family="Times">
&#8722;
</text>
<text x="260.814" y="261.343" fill="black" font-size="14.105" font-family="Helvetica">
 
</text>
<path d="M59.4606,130.717l 4.53543, -0.0146384l 4.53543, -0.103578l 4.53543, -0.202259l 4.53543, -0.310565l 4.53543, -0.428093l 4.53543, -0.554107l 4.53543, -0.687509l 4.53543, -0.826819l 4.53543, -0.970156l 4.53543, -1.11525l 4.53543, -1.25948l
 4.53543, -1.39987l 4.53543, -1.53321l 4.53543, -1.65611l 4.53543, -1.76512l 4.53543, -1.85683l 4.53543, -1.92801l 4.53543, -1.97576l 4.53543, -1.99767l 4.53543, -1.99191l 4.53543, -1.95739l 4.53543, -1.89387l 4.53543, -1.802l 4.53543, -1.68342l
 4.53543, -1.54072l 4.53543, -1.3774l 4.53543, -1.19786l 4.53543, -1.0072l 4.53543, -0.811098l 4.53543, -0.615635l 4.53543, -0.427047l 4.53543, -0.251508l 4.53543, -0.0948846l 4.53543, 0.037503l 4.53543, 0.141103l 4.53543, 0.212331l 4.53543,
 0.248736l 4.53543, 0.249121l 4.53543, 0.213622l 4.53543, 0.143727l 4.53543, 0.0422517l 4.53543, -0.0867439l 4.53543, -0.238083l 4.53543, -0.405645l 4.53543, -0.582571l 4.53543, -0.761501l 4.53543, -0.934828l 4.53543, -1.09495l 4.53543, -1.23456"
 fill="none" stroke="#0000ff" stroke-width="2"/>
<path d="M281.697,89.4293l 4.53543, -1.34683l 4.53543, -1.42571l 4.53543, -1.46609l 4.53543, -1.46396l 4.53543, -1.41655l 4.53543, -1.32241l 4.53543, -1.18143l 4.53543, -0.99485l 4.53543, -0.765192l 4.53543, -0.496183l 4.53543, -0.192615l 4.53543,
 0.139814l 4.53543, 0.494681l 4.53543, 0.865042l 4.53543, 1.24364l 4.53543, 1.62314l 4.53543, 1.9963l 4.53543, 2.35621l 4.53543, 2.69644l 4.53543, 3.01123l 4.53543, 3.29558l 4.53543, 3.54541l 4.53543, 3.75756l 4.53543, 3.92987l 4.53543, 4.06116l
 4.53543, 4.15123l 4.53543, 4.20075l 4.53543, 4.21127l 4.53543, 4.18501l 4.53543, 4.12487l 4.53543, 4.03418l 4.53543, 3.91668l 4.53543, 3.77633l 4.53543, 3.61722l 4.53543, 3.44343l 4.53543, 3.25894l 4.53543, 3.06755l 4.53543, 2.87277l 4.53543,
 2.67782l 4.53543, 2.48552l 4.53543, 2.29833l 4.53543, 2.11829l 4.53543, 1.94703l 4.53543, 1.78582l 4.53543, 1.63554l 4.53543, 1.49674l 4.53543, 1.36968l 4.53543, 1.25434l 4.53543, 1.15052" fill="none" stroke="#0000ff" stroke-width="2"/>
<path d="M503.933,179.453l 4.53543, 1.05778" fill="none" stroke="#0000ff" stroke-width="2"/>
<path d="M57.1929,330.589h 453.543" fill="none" stroke="black" stroke-width="2"/>
<text x="459.394" y="356.003" fill="black" font-size="12.2947" font-family="Helvetica">
Channels
</text>
<path d="M170.579,321.773v 8.8157" fill="none" stroke="black" stroke-width="2"/>
<path d="M208.374,326.181v 4.40785" fill="none" stroke="black" stroke-width="2"/>
<path d="M246.169,326.181v 4.40785" fill="none" stroke="black" stroke-width="2"/>
<path d="M283.965,326.181v 4.40785" fill="none" stroke="black" stroke-width="2"/>
<path d="M321.76,326.181v 4.40785" fill="none" stroke="black" stroke-width="2"/>
<path d="M359.555,321.773v 8.8157" fill="none" stroke="black" stroke-width="2"/>
<path d="M170.579,321.773v 8.8157" fill="none" stroke="black" stroke-width="2"/>
<path d="M132.783,326.181v 4.40785" fill="none" stroke="black" stroke-width="2"/>
<path d="M94.9882,326.181v 4.40785" fill="none" stroke="black" stroke-width="2"/>
<path d="M57.1929,326.181v 4.40785" fill="none" stroke="black" stroke-width="2"/>
<path d="M359.555,321.773v 8.8157" fill="none" stroke="black" stroke-width="2"/>
<path d="M397.35,326.181v 4.40785" fill="none" stroke="black" stroke-width="2"/>
<path d="M435.146,326.181v 4.40785" fill="none" stroke="black" stroke-width="2"/>
<path d="M472.941,326.181v 4.40785" fill="none" stroke="black" stroke-width="2"/>
<path d="M510.736,326.181v 4.40785" fill="none" stroke="black" stroke-width="2"/>
<text x="159.981" y="342.627" fill="black" font-size="12.2947" font-family="Helvetica">
550
</text>
<text x="348.271" y="342.627" fill="black" font-size="12.2947" font-family="Helvetica">
600
</text>
<path d="M57.1929,330.589v -293.857" fill="none" stroke="black" stroke-width="2"/>
<path d="M70.7992,330.589h -13.6063" fill="none" stroke="black" stroke-width="2"/>
<path d="M63.9961,321.788h -6.80315" fill="none" stroke="black" stroke-width="2"/>
<path d="M63.9961,312.987h -6.80315" fill="none" stroke="black" stroke-width="2"/>
<path d="M63.9961,304.186h -6.80315" fill="none" stroke="black" stroke-width="2"/>
<path d="M70.7992,295.386h -13.6063" fill="none" stroke="black" stroke-width="2"/>
<path d="M63.9961,286.585h -6.80315" fill="none" stroke="black" stroke-width="2"/>
<path d="M63.9961,277.784h -6.80315" fill="none" stroke="black" stroke-width="2"/>
<path d="M63.9961,268.983h -6.80315" fill="none" stroke="black" stroke-width="2"/>
<path d="M70.7992,260.183h -13.6063" fill="none" stroke="black" stroke-width="2"/>
<path d="M63.9961,251.382h -6.80315" fill="none" stroke="black" stroke-width="2"/>
<path d="M63.9961,242.581h -6.80315" fill="none" stroke="black" stroke-width="2"/>
<path d="M63.9961,233.781h -6.80315" fill="none" stroke="black" stroke-width="2"/>
<path d="M70.7992,224.98h -13.6063" fill="none" stroke="black" stroke-width="2"/>
<path d="M63.9961,216.179h -6.80315" fill="none" stroke="black" stroke-width="2"/>
<path d="M63.9961,207.378h -6.80315" fill="none" stroke="black" stroke-width="2"/>
<path d="M63.9961,198.578h -6.80315" fill="none" stroke="black" stroke-width="2"/>
<path d="M70.7992,189.777h -13.6063" fill="none" stroke="black" stroke-width="2"/>
<path d="M63.9961,180.976h -6.80315" fill="none" stroke="black" stroke-width="2"/>
<path d="M63.9961,172.175h -6.80315" fill="none" stroke="black" stroke-width="2"/>
<path d="M63.9961,163.375h -6.80315" fill="none" stroke="black" stroke-width="2"/>
<path d="M70.7992,154.574h -13.6063" fill="none" stroke="black" stroke-width="2"/>
<path d="M63.9961,145.773h -6.80315" fill="none" stroke="black" stroke-width="2"/>
<path d="M63.9961,136.972h -6.80315" fill="none" stroke="black" stroke-width="2"/>
<path d="M63.9961,128.172h -6.80315" fill="none" stroke="black" stroke-width="2"/>
<path d="M70.7992,119.371h -13.6063" fill="none" stroke="black" stroke-width="2"/>
<path d="M63.9961,110.57h -6.80315" fill="none" stroke="black" stroke-width="2"/>
<path d="M63.9961,101.77h -6.80315" fill="none" stroke="black" stroke-width="2"/>
<path d="M63.9961,92.9688h -6.80315" fill="none" stroke="black" stroke-width="2"/>
<path d="M70.7992,84.168h -13.6063" fill="none" stroke="black" stroke-width="2"/>
<path d="M63.9961,75.3673h -6.80315" fill="none" stroke="black" stroke-width="2"/>
<path d="M63.9961,66.5666h -6.80315" fill="none" stroke="black" stroke-width="2"/>
<path d="M63.9961,57.7658h -6.80315" fill="none" stroke="black" stroke-width="2"/>
<path d="M70.7992,48.9651h -13.6063" fill="none" stroke="black" stroke-width="2"/>
<path d="M70.7992,48.9651h -13.6063" fill="none" stroke="black" stroke-width="2"/>
<path d="M63.9961,40.1644h -6.80315" fill="none" stroke="black" stroke-width="2"/>
<text x="46.8009" y="335.424" fill="black" font-size="12.2947" font-family="Helvetica">
0
</text>
<text x="40.6275" y="300.442" fill="black" font-size="12.2947" font-family="Helvetica">
20
</text>
<text x="40.6275" y="264.43" fill="black" font-size="12.2947" font-family="Helvetica">
40
</text>
<text x="40.6275" y="229.447" fill="black" font-size="12.2947" font-family="Helvetica">
60
</text>
<text x="40.6275" y="194.464" fill="black" font-size="12.2947" font-family="Helvetica">
80
</text>
<text x="33.4251" y="159.481" fill="black" font-size="12.2947" font-family="Helvetica">
100
</text>
<text x="33.4251" y="124.498" fill="black" font-size="12.2947" font-family="Helvetica">
120
</text>
<text x="33.4251" y="88.4862" fill="black" font-size="12.2947" font-family="Helvetica">
140
</text>
<text x="33.4251" y="53.5033" fill="black" font-size="12.2947" font-family="Helvetica">
160
</text>
<rect x="173.357" y="117.296" width="203.724" height="147.134" fill="white"/>
<path d="M173.357,264.43h 203.724" fill="none" stroke="black" stroke-width="2"/>
<path d="M377.081,264.43v -147.134" fill="none" stroke="black" stroke-width="2"/>
<path d="M377.081,117.296h -203.724" fill="none" stroke="black" stroke-width="2"/>
<path d="M173.357,117.296v 147.134" fill="none" stroke="black" stroke-width="2"/>
<text x="194.964" y="129.643" fill="black" font-size="14.105" font-family="Helvetica">
 / ndf 
</text>
<text x="189.819" y="124.498" fill="black" font-size="9.56999" font-family="Helvetica">
2
</text>
<text x="182.617" y="129.643" fill="black" font-size="14.105" font-family="Times">
&#0967;
</text>
<text x="297.855" y="129.643" fill="black" font-size="14.105" font-family="Helvetica">
 89.92 / 112
</text>
<text x="182.617" y="146.105" fill="black" font-size="14.105" font-family="Helvetica">
1-Centroid 
</text>
<text x="345.185" y="146.105" fill="black" font-size="14.105" font-family="Helvetica">
 5.4
</text>
<text x="337.982" y="146.105" fill="black" font-size="14.105" font-family="Times">
&#0177;
</text>
<text x="298.884" y="146.105" fill="black" font-size="14.105" font-family="Helvetica">
 556.9 
</text>
<text x="182.617" y="163.597" fill="black" font-size="14.105" font-family="Helvetica">
1-FWHM   
</text>
<text x="330.78" y="162.568" fill="black" font-size="14.105" font-family="Helvetica">
 12.58
</text>
<text x="323.578" y="162.568" fill="black" font-size="14.105" font-family="Times">
&#0177;
</text>
<text x="284.479" y="162.568" fill="black" font-size="14.105" font-family="Helvetica">
 34.86 
</text>
<text x="182.617" y="179.03" fill="black" font-size="14.105" font-family="Helvetica">
1-Counts 
</text>
<text x="330.78" y="179.03" fill="black" font-size="14.105" font-family="Helvetica">
 594.0
</text>
<text x="323.578" y="179.03" fill="black" font-size="14.105" font-family="Times">
&#0177;
</text>
<text x="284.479" y="179.03" fill="black" font-size="14.105" font-family="Helvetica">
  1024 
</text>
<text x="182.617" y="195.493" fill="black" font-size="14.105" font-family="Helvetica">
2-Centroid 
</text>
<text x="345.185" y="195.493" fill="black" font-size="14.105" font-family="Helvetica">
 3.4
</text>
<text x="337.982" y="195.493" fill="black" font-size="14.105" font-family="Times">
&#0177;
</text>
<text x="298.884" y="195.493" fill="black" font-size="14.105" font-family="Helvetica">
 595.6 
</text>
<text x="182.617" y="212.984" fill="black" font-size="14.105" font-family="Helvetica">
2-FWHM   
</text>
<text x="337.982" y="211.955" fill="black" font-size="14.105" font-family="Helvetica">
 8.32
</text>
<text x="330.78" y="211.955" fill="black" font-size="14.105" font-family="Times">
&#0177;
</text>
<text x="291.681" y="211.955" fill="black" font-size="14.105" font-family="Helvetica">
 39.24 
</text>
<text x="182.617" y="228.418" fill="black" font-size="14.105" font-family="Helvetica">
2-Counts 
</text>
<text x="330.78" y="228.418" fill="black" font-size="14.105" font-family="Helvetica">
 573.2
</text>
<text x="323.578" y="228.418" fill="black" font-size="14.105" font-family="Times">
&#0177;
</text>
<text x="284.479" y="228.418" fill="black" font-size="14.105" font-family="Helvetica">
  2015 
</text>
<text x="182.617" y="243.852" fill="black" font-size="14.105" font-family="Helvetica">
Intercept 
</text>
<text x="337.982" y="244.88" fill="black" font-size="14.105" font-family="Helvetica">
 44.9
</text>
<text x="330.78" y="244.88" fill="black" font-size="14.105" font-family="Times">
&#0177;
</text>
<text x="291.681" y="244.88" fill="black" font-size="14.105" font-family="Helvetica">
 236.9 
</text>
<text x="182.617" y="260.314" fill="black" font-size="14.105" font-family="Helvetica">
Slope    
</text>
<text x="322.549" y="261.343" fill="black" font-size="14.105" font-family="Helvetica">
 0.0752
</text>
<text x="315.346" y="261.343" fill="black" font-size="14.105" font-family="Times">
&#0177;
</text>
<text x="272.132" y="261.343" fill="black" font-size="14.105" font-family="Helvetica">
0.2395 
</text>
<text x="263.901" y="261.343" fill="black" font-size="14.105" font-family="Times">
&#8722;
</text>
<text x="260.814" y="261.343" fill="black" font-size="14.105" font-family="Helvetica">
 
</text>
<path d="M59.4606,328.176l 4.53543, -0.519117l 4.53543, -0.607584l 4.53543, -0.705639l 4.53543, -0.813123l 4.53543, -0.929574l 4.53543, -1.05419l 4.53543, -1.18578l 4.53543, -1.32277l 4.53543, -1.46314l 4.53543, -1.60447l 4.53543, -1.74393l 4.53543,
 -1.87836l 4.53543, -2.00426l 4.53543, -2.11795l 4.53543, -2.21561l 4.53543, -2.29342l 4.53543, -2.34771l 4.53543, -2.37505l 4.53543, -2.37245l 4.53543, -2.33746l 4.53543, -2.26831l 4.53543, -2.16402l 4.53543, -2.0245l 4.53543, -1.8506l 4.53543,
 -1.64411l 4.53543, -1.4078l 4.53543, -1.14532l 4.53543, -0.861127l 4.53543, -0.560373l 4.53543, -0.248732l 4.53543, 0.0677695l 4.53543, 0.382945l 4.53543, 0.690652l 4.53543, 0.984991l 4.53543, 1.26049l 4.53543, 1.51228l 4.53543, 1.73624l 4.53543,
 1.92908l 4.53543, 2.08844l 4.53543, 2.21294l 4.53543, 2.30214l 4.53543, 2.35652l 4.53543, 2.3774l 4.53543, 2.36686l 4.53543, 2.3276l 4.53543, 2.26282l 4.53543, 2.17605l 4.53543, 2.07107l 4.53543, 1.9517" fill="none" stroke="#00ff00"
 stroke-width="2"/>
<path d="M281.697,315.168l 4.53543, 1.82171l 4.53543, 1.68472l 4.53543, 1.54409l 4.53543, 1.40284l 4.53543, 1.26365l 4.53543, 1.12875l 4.53543, 0.999969l 4.53543, 0.878724l 4.53543, 0.766029l 4.53543, 0.66254l 4.53543, 0.568581l 4.53543, 0.484199l
 4.53543, 0.409203l 4.53543, 0.343217l 4.53543, 0.285719l 4.53543, 0.236089l 4.53543, 0.193643l 4.53543, 0.157666l 4.53543, 0.127439l 4.53543, 0.102262l 4.53543, 0.0814679l 4.53543, 0.0644373l 4.53543, 0.0506033l 4.53543, 0.0394571l 4.53543,
 0.0305484l 4.53543, 0.0234843l 4.53543, 0.0179269l 4.53543, 0.0135888l 4.53543, 0.0384888h 90.7087" fill="none" stroke="#00ff00" stroke-width="2"/>
<path d="M503.933,330.589h 4.53543" fill="none" stroke="#00ff00" stroke-width="2"/>
<path d="M59.4606,330.589h 27.2126l 4.53543, -0.0300902l 4.53543, -0.00987651l 4.53543, -0.0128448l 4.53543, -0.0166136l 4.53543, -0.0213698l 4.53543, -0.027336l 4.53543, -0.0347745l 4.53543, -0.0439916l 4.53543, -0.0553423l 4.53543, -0.0692329l
 4.53543, -0.0861251l 4.53543, -0.106537l 4.53543, -0.131043l 4.53543, -0.160272l 4.53543, -0.194907l 4.53543, -0.235672l 4.53543, -0.283327l 4.53543, -0.338652l 4.53543, -0.402432l 4.53543, -0.47543l 4.53543, -0.558369l 4.53543, -0.651896l 4.53543,
 -0.756551l 4.53543, -0.872728l 4.53543, -1.00064l 4.53543, -1.14028l 4.53543, -1.29136l 4.53543, -1.45331l 4.53543, -1.62521l 4.53543, -1.80578l 4.53543, -1.99333l 4.53543, -2.18578l 4.53543, -2.38065l 4.53543, -2.57504l 4.53543, -2.76571l 4.53543,
 -2.94909l 4.53543, -3.12131l 4.53543, -3.27833l 4.53543, -3.41599l 4.53543, -3.53014l 4.53543, -3.61671l 4.53543, -3.67185l 4.53543, -3.69208" fill="none" stroke="#00ff00" stroke-width="2"/>
<path d="M281.697,277.521l 4.53543, -3.67436l 4.53543, -3.61625l 4.53543, -3.516l 4.53543, -3.37263l 4.53543, -3.18603l 4.53543, -2.95699l 4.53543, -2.68723l 4.53543, -2.3794l 4.53543, -2.03705l 4.53543, -1.66455l 4.53543, -1.26702l 4.53543,
 -0.85021l 4.53543, -0.420348l 4.53543, 0.0159994l 4.53543, 0.4521l 4.53543, 0.881227l 4.53543, 1.29683l 4.53543, 1.69272l 4.53543, 2.06317l 4.53543, 2.40314l 4.53543, 2.70829l 4.53543, 2.97515l 4.53543, 3.20114l 4.53543, 3.38459l 4.53543, 3.52479l
 4.53543, 3.62192l 4.53543, 3.677l 4.53543, 3.69185l 4.53543, 3.66896l 4.53543, 3.61139l 4.53543, 3.52268l 4.53543, 3.40667l 4.53543, 3.26745l 4.53543, 3.10917l 4.53543, 2.936l 4.53543, 2.75197l 4.53543, 2.5609l 4.53543, 2.36637l 4.53543, 2.17158l
 4.53543, 1.97941l 4.53543, 1.79231l 4.53543, 1.61233l 4.53543, 1.44111l 4.53543, 1.27993l 4.53543, 1.12967l 4.53543, 0.990884l 4.53543, 0.863832l 4.53543, 0.748507l 4.53543, 0.644682" fill="none" stroke="#00ff00" stroke-width="2"/>
<path d="M503.933,327.338l 4.53543, 0.551949" fill="none" stroke="#00ff00" stroke-width="2"/>
<text x="177.472" y="17.4915" fill="black" font-size="17.831" font-family="Helvetica">
Wk2/Calibration/152Eu.Spe
</text></svg>
