<?xml version="1.0" standalone="no"?>
<svg width="567.429" height="406.606" viewBox="0 0 567.429 406.606" xmlns="http://www.w3.org/2000/svg">
<title>
/home/ADF/hyw543/Coincidence/c1.svg
</title>
<desc>
Creator: ROOT Version 6.06/08
CreationDate: Tue Jan  8 18:41:09 2019</desc>
<defs>
</defs>
<rect x="0.5" y="0" width="566.929" height="406.106" fill="white"/>
<rect x="57.1929" y="40.6106" width="453.543" height="324.885" fill="white"/>
<rect x="57.1929" y="40.6106" width="453.543" height="324.885" fill="none" stroke="black"/>
<rect x="57.1929" y="40.6106" width="453.543" height="324.885" fill="white"/>
<rect x="57.1929" y="40.6106" width="453.543" height="324.885" fill="none" stroke="black"/>
<path d="M57.1929,301.479h 0.808455v 21.3389h 0.808455v 10.6695h 0.808455v -32.0084h 0.808455v 53.3473h 0.808455v -42.6778h 0.808455v 21.3389h 0.808455v -10.6695h 0.808455v -42.6778h 0.808455v 42.6778h 0.808455v -32.0084h 1.61691v -53.3473h 0.808455v
 85.3557h 0.808455v -32.0084h 0.808455v 21.3389h 0.808455v 21.3389h 0.808455v -32.0084h 0.808455v 10.6695h 1.61691v 32.0084h 0.808455v -74.6862h 0.808455v 64.0168h 1.61691v -53.3473h 0.808455v 32.0084h 0.808455v -10.6695h 0.808455v 42.6778h 0.808455v
 -10.6695h 0.808455v -10.6695h 2.42537v 10.6695h 0.808455v -42.6778h 1.61691v 32.0084h 0.808455v -32.0084h 0.808455v -32.0084h 0.808455v 10.6695h 0.808455v 64.0168h 0.808455v -32.0084h 0.808455v 32.0084h 0.808455v -32.0084h 0.808455v 42.6778h
 0.808455v -64.0168h 0.808455v 32.0084h 0.808455v -21.3389h 0.808455v -10.6695h 0.808455v 42.6778h 0.808455v -32.0084h 0.808455v 32.0084h 0.808455v -42.6778h 0.808455v 10.6695h 1.61691v 32.0084h 0.808455v 10.6695h 0.808455v -32.0084h 0.808455v
 21.3389h 1.61691v -32.0084h 0.808455v 21.3389h 0.808455v 10.6695h 0.808455v -32.0084h 0.808455v 53.3473h 0.808455v -64.0168h 0.808455v 21.3389h 0.808455v 53.3473h 0.808455v -64.0168h 0.808455v 32.0084h 0.808455v 32.0084h 0.808455v -21.3389h
 0.808455v -42.6778h 0.808455v 53.3473h 0.808455v -10.6695h 0.808455v 10.6695h 0.808455v -21.3389h 0.808455v -10.6695h 0.808455v 32.0084h 0.808455v -32.0084h 0.808455v 10.6695h 0.808455v -10.6695h 0.808455v 10.6695h 0.808455v -21.3389h 0.808455v
 42.6778h 0.808455v -32.0084h 0.808455v 21.3389h 0.808455v -21.3389h 0.808455v -32.0084h 0.808455v 74.6862h 0.808455v -21.3389h 3.23382v -21.3389h 0.808455v -10.6695h 0.808455v 10.6695h 0.808455v 21.3389h 0.808455v -42.6778h 0.808455v 32.0084h
 0.808455v 21.3389h 0.808455v -53.3473h 0.808455v 10.6695h 0.808455v -10.6695h 0.808455v 53.3473h 1.61691v -10.6695h 0.808455v -21.3389h 0.808455v 32.0084h 0.808455v -32.0084h 0.808455v 21.3389h 0.808455v -21.3389h 0.808455v -85.3557h 0.808455v
 53.3473h 0.808455v -42.6778h 0.808455v 74.6862h 0.808455v 21.3389h 0.808455v -53.3473h 0.808455v 53.3473h 0.808455v -53.3473h 0.808455v 64.0168h 0.808455v -64.0168h 0.808455v 32.0084h 0.808455v -10.6695h 0.808455v 10.6695h 0.808455v -53.3473h
 0.808455v 42.6778h 0.808455v 10.6695h 0.808455v -42.6778h 0.808455v -21.3389h 0.808455v 21.3389h 0.808455v 42.6778h 0.808455v -10.6695h 0.808455v -64.0168h 0.808455v -21.3389h 0.808455v 85.3557h 0.808455v -96.0252h 1.61691v 64.0168h 1.61691v
 21.3389h 0.808455v 21.3389h 0.808455v -128.034h 0.808455v 42.6778h 0.808455v -96.0252h 0.808455v 106.695h 0.808455v -21.3389h 0.808455v -32.0084h 0.808455v 64.0168h 0.808455v -74.6862h 1.61691v 42.6778h 1.61691v -21.3389h 0.808455v -10.6695h
 0.808455v 10.6695h 0.808455v 10.6695h 0.808455v -32.0084h 0.808455v 10.6695h 0.808455v -64.0168h 0.808455v 74.6862h 0.808455v -21.3389h 0.808455v 42.6778h 0.808455v -149.372h 0.808455v 117.364h 0.808455v -64.0168h 0.808455v -53.3473h 0.808455v
 160.042h 0.808455v -85.3557h 0.808455v 74.6862h 0.808455v -74.6862h 0.808455v -10.6695h 0.808455v 21.3389h 0.808455v 32.0084h 0.808455v -21.3389h 0.808455v 32.0084h 0.808455v -21.3389h 0.808455v -117.364h 0.808455v 96.0252h 0.808455v 21.3389h
 0.808455v -53.3473h 0.808455v -32.0084h 0.808455v 53.3473h 0.808455v 53.3473h 0.808455v 53.3473h 0.808455v -106.695h 0.808455v 42.6778h 0.808455v -42.6778h 0.808455v 74.6862h 0.808455v -117.364h 0.808455v 64.0168h 0.808455v -10.6695h 0.808455v
 106.695h 0.808455v -160.042h 0.808455v 64.0168h 0.808455v -21.3389h 0.808455v 64.0168h 0.808455v -96.0252h 0.808455v 32.0084h 0.808455v 10.6695h 0.808455v 42.6778h 0.808455v -53.3473h 0.808455v 85.3557h 0.808455v -160.042h 0.808455v 106.695h
 0.808455v 42.6778h 0.808455v -32.0084h 0.808455v 32.0084h 0.808455v 42.6778h 0.808455v -106.695h 0.808455v 74.6862h 0.808455v -53.3473h 0.808455v 64.0168h 0.808455v -32.0084h 0.808455v 42.6778h 1.61691v -117.364h 0.808455v 117.364h 0.808455v
 -32.0084h 0.808455v 74.6862h 0.808455v -42.6778h 0.808455v -32.0084h 0.808455v 32.0084h 0.808455v -21.3389h 0.808455v 53.3473h 1.61691v -42.6778h 0.808455v 85.3557h 0.808455v -64.0168h 0.808455v 64.0168h 0.808455v -42.6778h 0.808455v 42.6778h
 0.808455v -21.3389h 0.808455v -42.6778h 0.808455v 53.3473h 0.808455v -10.6695h 0.808455v -21.3389h 0.808455v 32.0084h 0.808455v 21.3389h 0.808455v 10.6695h 0.808455v -21.3389h 0.808455v 10.6695h 0.808455v -85.3557h 0.808455v 74.6862h 0.808455v
 -10.6695h 0.808455v 42.6778h 0.808455v -42.6778h 0.808455v 21.3389h 0.808455v 10.6695h 0.808455v 21.3389h 0.808455v -10.6695h 0.808455v -32.0084h 0.808455v 42.6778h 0.808455v -42.6778h 0.808455v 21.3389h 1.61691v -10.6695h 0.808455v 10.6695h
 0.808455v -10.6695h 0.808455v 21.3389h 0.808455v -21.3389h 1.61691v 10.6695h 0.808455v -10.6695h 0.808455v 21.3389h 0.808455v -10.6695h 0.808455v 21.3389h 0.808455v -21.3389h 0.808455v 21.3389h 0.808455v -10.6695h 0.808455v 10.6695h 1.61691v
 -10.6695h 0.808455v 10.6695h 1.61691v -10.6695h 0.808455v 10.6695h 1.61691v -10.6695h 0.808455v -10.6695h 0.808455v 21.3389h 2.42537v -10.6695h 1.61691v 10.6695h 1.61691v -42.6778h 0.808455v 32.0084h 0.808455v 10.6695h 1.61691v -85.3557h 0.808455v
 64.0168h 0.808455v -10.6695h 0.808455v 21.3389h 3.23382v -21.3389h 0.808455v -21.3389h 1.61691v 42.6778h 0.808455v 10.6695h 0.808455v -32.0084h 1.61691v 21.3389h 1.61691v -32.0084h 2.42537v 32.0084h 1.61691v -32.0084h 0.808455v -42.6778h 0.808455v
 74.6862h 0.808455v -32.0084h 0.808455v 21.3389h 0.808455v -10.6695h 0.808455v -32.0084h 0.808455v 32.0084h 0.808455v -10.6695h 0.808455v -10.6695h 0.808455v 21.3389h 1.61691v -21.3389h 1.61691v 32.0084h 0.808455v -74.6862h 0.808455v 53.3473h
 3.23382v -64.0168h 0.808455v 74.6862h 0.808455v 21.3389h 0.808455v -85.3557h 0.808455v 21.3389h 0.808455v 10.6695h 0.808455v 10.6695h 0.808455v 21.3389h 1.61691v -106.695h 0.808455v 53.3473h 0.808455v 10.6695h 0.808455v -74.6862h 0.808455v 32.0084h
 0.808455v 10.6695h 0.808455v -21.3389h 0.808455v -21.3389h 0.808455v 42.6778h 0.808455v 32.0084h 0.808455v -53.3473h 0.808455v 96.0252h 0.808455v -85.3557h 0.808455v -96.0252h 0.808455v 21.3389h 0.808455v 64.0168h 0.808455v 10.6695h 0.808455v
 -64.0168h 0.808455v 53.3473h 0.808455v -10.6695h 0.808455v 53.3473h 0.808455v -117.364h 0.808455v 53.3473h 0.808455v 21.3389h 0.808455v -128.034h 0.808455v 74.6862h 0.808455v 74.6862h 0.808455v -53.3473h 0.808455v 10.6695h 0.808455v -85.3557h
 0.808455v 32.0084h 0.808455v 32.0084h 0.808455v -42.6778h 0.808455v 74.6862h 0.808455v -128.034h 0.808455v 64.0168h 0.808455v 53.3473h 0.808455v -74.6862h 0.808455v -10.6695h 0.808455v 32.0084h 0.808455v 64.0168h 0.808455v -85.3557h 0.808455v
 128.034h 0.808455v -32.0084h 0.808455v -85.3557h 0.808455v 32.0084h 0.808455v 42.6778h 0.808455v -53.3473h 0.808455v 10.6695h 0.808455v -96.0252h 0.808455v 117.364h 1.61691v -96.0252h 0.808455v 106.695h 0.808455v 74.6862h 0.808455v -74.6862h
 0.808455v -21.3389h 0.808455v 10.6695h 0.808455v 21.3389h 0.808455v 42.6778h 0.808455v -96.0252h 0.808455v 85.3557h 0.808455v -106.695h 1.61691v 96.0252h 0.808455v -53.3473h 0.808455v 74.6862h 0.808455v -96.0252h 0.808455v 53.3473h 0.808455v
 -10.6695h 0.808455v 42.6778h 0.808455v -42.6778h 0.808455v 53.3473h 0.808455v -21.3389h 0.808455v 10.6695h 0.808455v -21.3389h 0.808455v 21.3389h 0.808455v 32.0084h 0.808455v -21.3389h 1.61691v -42.6778h 0.808455v -21.3389h 0.808455v 85.3557h
 0.808455v -64.0168h 0.808455v 21.3389h 0.808455v 21.3389h 1.61691v 10.6695h 1.61691v -32.0084h 0.808455v 64.0168h 0.808455v -10.6695h 0.808455v -10.6695h 0.808455v 21.3389h 0.808455v 21.3389h 0.808455v -74.6862h 0.808455v 85.3557h 0.808455v
 -21.3389h 0.808455v -10.6695h 0.808455v -21.3389h 0.808455v 42.6778h 1.61691v -21.3389h 1.61691v -10.6695h 1.61691v -10.6695h 0.808455v 64.0168h 1.61691v -21.3389h 0.808455v 10.6695h 0.808455v -10.6695h 0.808455v -21.3389h 0.808455v 42.6778h
 0.808455v -10.6695h 3.23382v 10.6695h 1.61691v 10.6695h 1.61691v -10.6695h 0.808455v 10.6695h 0.808455v -10.6695h 0.808455v 10.6695h 0.808455v -10.6695h 0.808455v -21.3389h 0.808455v 21.3389h 0.808455v -21.3389h 0.808455v 21.3389h 0.808455v
 -10.6695h 0.808455v 21.3389h 0.808455v -10.6695h 0.808455v 10.6695h 0.808455v -10.6695h 2.42537v 10.6695h 0.808455v -10.6695h 1.61691v 10.6695h 2.42537v -21.3389h 0.808455v 10.6695h 0.808455v 10.6695h 3.23382v -21.3389h 0.808455v 21.3389h 0.808455v
 -21.3389h 0.808455v 10.6695h 0.808455v 10.6695h 2.42537v -42.6778h 0.808455v 32.0084h 0.808455v 10.6695h 1.61691v -10.6695h 0.808455v -10.6695h 0.808455v 21.3389h 1.61691v -32.0084h 0.808455v 21.3389h 0.808455v -10.6695h 0.808455v 10.6695h 0.808455v
 10.6695h 1.61691v -21.3389h 0.808455v 21.3389h 1.61691v -21.3389h 1.61691v 21.3389h 0.808455v -10.6695h 0.808455v -10.6695h 0.808455v 10.6695h 1.61691v -32.0084h 0.808455v 42.6778h 0.808455v -21.3389h 0.808455v 10.6695h 0.808455v -32.0084h 0.808455v
 32.0084h 0.808455v -10.6695h 2.42537v 21.3389h 1.61691v -21.3389h 0.808455v 21.3389h 0.808455v -10.6695h 1.61691v 10.6695h 0.808455v -10.6695h 0.808455v 10.6695h 0.808455v -10.6695h 1.61691v 10.6695h 1.61691v -10.6695h 0.808455v 10.6695h 0.808455v
 -10.6695h 1.61691v 10.6695h 0.808455v -10.6695h 2.42537v 10.6695h 0.808455v -10.6695h 0.808455v -10.6695h 0.808455v 21.3389h 0.808455v -10.6695h 2.42537v -10.6695h 0.808455v 21.3389h 0.808455v -21.3389h 0.808455" fill="none" stroke="#ff0000"
 stroke-width="2"/>
<path d="M59.4606,328.491l 4.53543, 0.289795l 4.53543, 0.289788l 4.53543, 0.289768l 4.53543, 0.289712l 4.53543, 0.289564l 4.53543, 0.289185l 4.53543, 0.288255l 4.53543, 0.286071l 4.53543, 0.281146l 4.53543, 0.270501l 4.53543, 0.248453l 4.53543,
 0.204715l 4.53543, 0.121669l 4.53543, -0.029136l 4.53543, -0.290805l 4.53543, -0.724135l 4.53543, -1.40801l 4.53543, -2.4346l 4.53543, -3.89676l 4.53543, -5.86586l 4.53543, -8.36089l 4.53543, -11.3133l 4.53543, -14.5365l 4.53543, -17.7125l 4.53543,
 -20.4066l 4.53543, -22.1193l 4.53543, -22.3715l 4.53543, -20.8091l 4.53543, -17.3031l 4.53543, -12.0141l 4.53543, -5.39948l 4.53543, 1.84868l 4.53543, 8.92201l 4.53543, 15.0444l 4.53543, 19.6123l 4.53543, 22.2914l 4.53543, 23.049l 4.53543, 22.1209l
 4.53543, 19.9276l 4.53543, 16.969l 4.53543, 13.7257l 4.53543, 10.5867l 4.53543, 7.81377l 4.53543, 5.54005l 4.53543, 3.79206l 4.53543, 2.52336l 4.53543, 1.64811l 4.53543, 1.06772l 4.53543, 0.687313" fill="none" stroke="#0000ff" stroke-width="2"/>
<path d="M281.697,342.104l 4.53543, 0.422462l 4.53543, 0.198313l 4.53543, -0.0558546l 4.53543, -0.413562l 4.53543, -0.956406l 4.53543, -1.77451l 4.53543, -2.95913l 4.53543, -4.5854l 4.53543, -6.68527l 4.53543, -9.21442l 4.53543, -12.0215l 4.53543,
 -14.8315l 4.53543, -17.2557l 4.53543, -18.8371l 4.53543, -19.1303l 4.53543, -17.8015l 4.53543, -14.726l 4.53543, -10.052l 4.53543, -4.20664l 4.53543, 2.1648l 4.53543, 8.31568l 4.53543, 13.5421l 4.53543, 17.3153l 4.53543, 19.3683l 4.53543, 19.7175l
 4.53543, 18.6205l 4.53543, 16.489l 4.53543, 13.7865l 4.53543, 10.9379l 4.53543, 8.26826l 4.53543, 5.97983l 4.53543, 4.15843l 4.53543, 2.80043l 4.53543, 1.84651l 4.53543, 1.21273l 4.53543, 0.813321l 4.53543, 0.574066l 4.53543, 0.437617l 4.53543,
 0.363436l 4.53543, 0.324952l 4.53543, 0.305884l 4.53543, 0.296856l 4.53543, 0.292768l 4.53543, 0.290997l 4.53543, 0.290262l 4.53543, 0.289971l 4.53543, 0.28986l 4.53543, 0.28982l 4.53543, 0.289806" fill="none" stroke="#0000ff" stroke-width="2"/>
<path d="M503.933,356.891l 4.53543, 0.289801" fill="none" stroke="#0000ff" stroke-width="2"/>
<rect x="351.996" y="26.3969" width="204.094" height="162.443" fill="white"/>
<path d="M351.996,188.839h 204.094" fill="none" stroke="black" stroke-width="2"/>
<path d="M556.091,188.839v -162.443" fill="none" stroke="black" stroke-width="2"/>
<path d="M556.091,26.3969h -204.094" fill="none" stroke="black" stroke-width="2"/>
<path d="M351.996,26.3969v 162.443" fill="none" stroke="black" stroke-width="2"/>
<text x="373.053" y="39.3379" fill="black" font-size="13.0027" font-family="Helvetica">
 / ndf 
</text>
<text x="368.425" y="34.7099" fill="black" font-size="8.83511" font-family="Helvetica">
2
</text>
<text x="361.483" y="39.3379" fill="black" font-size="13.0027" font-family="Times">
&#0967;
</text>
<text x="479.497" y="40.4949" fill="black" font-size="13.0027" font-family="Helvetica">
 550.4 / 495
</text>
<text x="361.483" y="59.0069" fill="black" font-size="13.0027" font-family="Helvetica">
1-Centroid 
</text>
<text x="526.934" y="57.8499" fill="black" font-size="13.0027" font-family="Helvetica">
 1.1
</text>
<text x="519.992" y="57.8499" fill="black" font-size="13.0027" font-family="Times">
&#0177;
</text>
<text x="482.968" y="57.8499" fill="black" font-size="13.0027" font-family="Helvetica">
  1532 
</text>
<text x="361.483" y="76.3619" fill="black" font-size="13.0027" font-family="Helvetica">
1-FWHM   
</text>
<text x="517.678" y="75.2049" fill="black" font-size="13.0027" font-family="Helvetica">
 2.00
</text>
<text x="510.736" y="75.2049" fill="black" font-size="13.0027" font-family="Times">
&#0177;
</text>
<text x="473.712" y="75.2049" fill="black" font-size="13.0027" font-family="Helvetica">
 67.52 
</text>
<text x="361.483" y="94.8739" fill="black" font-size="13.0027" font-family="Helvetica">
1-Counts 
</text>
<text x="517.678" y="93.7169" fill="black" font-size="13.0027" font-family="Helvetica">
 46.4
</text>
<text x="510.736" y="93.7169" fill="black" font-size="13.0027" font-family="Times">
&#0177;
</text>
<text x="473.712" y="93.7169" fill="black" font-size="13.0027" font-family="Helvetica">
  1302 
</text>
<text x="361.483" y="113.386" fill="black" font-size="13.0027" font-family="Helvetica">
2-Centroid 
</text>
<text x="526.934" y="112.229" fill="black" font-size="13.0027" font-family="Helvetica">
 1.1
</text>
<text x="519.992" y="112.229" fill="black" font-size="13.0027" font-family="Times">
&#0177;
</text>
<text x="482.968" y="112.229" fill="black" font-size="13.0027" font-family="Helvetica">
  1739 
</text>
<text x="361.483" y="130.741" fill="black" font-size="13.0027" font-family="Helvetica">
2-FWHM   
</text>
<text x="517.678" y="129.584" fill="black" font-size="13.0027" font-family="Helvetica">
 2.09
</text>
<text x="510.736" y="129.584" fill="black" font-size="13.0027" font-family="Times">
&#0177;
</text>
<text x="473.712" y="129.584" fill="black" font-size="13.0027" font-family="Helvetica">
 65.88 
</text>
<text x="361.483" y="149.253" fill="black" font-size="13.0027" font-family="Helvetica">
2-Counts 
</text>
<text x="519.992" y="148.096" fill="black" font-size="13.0027" font-family="Helvetica">
 40.1
</text>
<text x="513.05" y="148.096" fill="black" font-size="13.0027" font-family="Times">
&#0177;
</text>
<text x="478.34" y="148.096" fill="black" font-size="13.0027" font-family="Helvetica">
  1061 
</text>
<text x="361.483" y="165.451" fill="black" font-size="13.0027" font-family="Helvetica">
Intercept 
</text>
<text x="517.678" y="165.451" fill="black" font-size="13.0027" font-family="Helvetica">
 0.86
</text>
<text x="510.736" y="165.451" fill="black" font-size="13.0027" font-family="Times">
&#0177;
</text>
<text x="473.712" y="165.451" fill="black" font-size="13.0027" font-family="Helvetica">
 10.04 
</text>
<text x="361.483" y="183.963" fill="black" font-size="13.0027" font-family="Helvetica">
Slope    
</text>
<text x="489.91" y="183.963" fill="black" font-size="13.0027" font-family="Helvetica">
 0.000508
</text>
<text x="482.968" y="183.963" fill="black" font-size="13.0027" font-family="Times">
&#0177;
</text>
<text x="427.432" y="183.963" fill="black" font-size="13.0027" font-family="Helvetica">
0.004842 
</text>
<text x="420.49" y="183.963" fill="black" font-size="13.0027" font-family="Times">
&#8722;
</text>
<text x="418.176" y="183.963" fill="black" font-size="13.0027" font-family="Helvetica">
 
</text>
<path d="M57.1929,365.496h 453.543" fill="none" stroke="black" stroke-width="2"/>
<text x="458.671" y="393.379" fill="black" font-size="13.5401" font-family="Helvetica">
Channels
</text>
<path d="M94.3819,355.749v 9.74655" fill="none" stroke="black" stroke-width="2"/>
<path d="M134.805,360.622v 4.87328" fill="none" stroke="black" stroke-width="2"/>
<path d="M175.227,360.622v 4.87328" fill="none" stroke="black" stroke-width="2"/>
<path d="M215.65,360.622v 4.87328" fill="none" stroke="black" stroke-width="2"/>
<path d="M256.073,355.749v 9.74655" fill="none" stroke="black" stroke-width="2"/>
<path d="M296.496,360.622v 4.87328" fill="none" stroke="black" stroke-width="2"/>
<path d="M336.918,360.622v 4.87328" fill="none" stroke="black" stroke-width="2"/>
<path d="M377.341,360.622v 4.87328" fill="none" stroke="black" stroke-width="2"/>
<path d="M417.764,355.749v 9.74655" fill="none" stroke="black" stroke-width="2"/>
<path d="M94.3819,355.749v 9.74655" fill="none" stroke="black" stroke-width="2"/>
<path d="M417.764,355.749v 9.74655" fill="none" stroke="black" stroke-width="2"/>
<path d="M458.187,360.622v 4.87328" fill="none" stroke="black" stroke-width="2"/>
<path d="M498.609,360.622v 4.87328" fill="none" stroke="black" stroke-width="2"/>
<text x="80.3329" y="378.338" fill="black" font-size="13.5401" font-family="Helvetica">
1400
</text>
<text x="241.156" y="378.338" fill="black" font-size="13.5401" font-family="Helvetica">
1600
</text>
<text x="403.135" y="378.338" fill="black" font-size="13.5401" font-family="Helvetica">
1800
</text>
<path d="M57.1929,365.496v -324.885" fill="none" stroke="black" stroke-width="2"/>
<path d="M70.7992,365.496h -13.6063" fill="none" stroke="black" stroke-width="2"/>
<path d="M63.9961,354.826h -6.80315" fill="none" stroke="black" stroke-width="2"/>
<path d="M63.9961,344.157h -6.80315" fill="none" stroke="black" stroke-width="2"/>
<path d="M63.9961,333.487h -6.80315" fill="none" stroke="black" stroke-width="2"/>
<path d="M63.9961,322.818h -6.80315" fill="none" stroke="black" stroke-width="2"/>
<path d="M70.7992,312.148h -13.6063" fill="none" stroke="black" stroke-width="2"/>
<path d="M63.9961,301.479h -6.80315" fill="none" stroke="black" stroke-width="2"/>
<path d="M63.9961,290.81h -6.80315" fill="none" stroke="black" stroke-width="2"/>
<path d="M63.9961,280.14h -6.80315" fill="none" stroke="black" stroke-width="2"/>
<path d="M63.9961,269.471h -6.80315" fill="none" stroke="black" stroke-width="2"/>
<path d="M70.7992,258.801h -13.6063" fill="none" stroke="black" stroke-width="2"/>
<path d="M63.9961,248.132h -6.80315" fill="none" stroke="black" stroke-width="2"/>
<path d="M63.9961,237.462h -6.80315" fill="none" stroke="black" stroke-width="2"/>
<path d="M63.9961,226.793h -6.80315" fill="none" stroke="black" stroke-width="2"/>
<path d="M63.9961,216.123h -6.80315" fill="none" stroke="black" stroke-width="2"/>
<path d="M70.7992,205.454h -13.6063" fill="none" stroke="black" stroke-width="2"/>
<path d="M63.9961,194.784h -6.80315" fill="none" stroke="black" stroke-width="2"/>
<path d="M63.9961,184.115h -6.80315" fill="none" stroke="black" stroke-width="2"/>
<path d="M63.9961,173.445h -6.80315" fill="none" stroke="black" stroke-width="2"/>
<path d="M63.9961,162.776h -6.80315" fill="none" stroke="black" stroke-width="2"/>
<path d="M70.7992,152.107h -13.6063" fill="none" stroke="black" stroke-width="2"/>
<path d="M63.9961,141.437h -6.80315" fill="none" stroke="black" stroke-width="2"/>
<path d="M63.9961,130.768h -6.80315" fill="none" stroke="black" stroke-width="2"/>
<path d="M63.9961,120.098h -6.80315" fill="none" stroke="black" stroke-width="2"/>
<path d="M63.9961,109.429h -6.80315" fill="none" stroke="black" stroke-width="2"/>
<path d="M70.7992,98.7592h -13.6063" fill="none" stroke="black" stroke-width="2"/>
<path d="M63.9961,88.0897h -6.80315" fill="none" stroke="black" stroke-width="2"/>
<path d="M63.9961,77.4203h -6.80315" fill="none" stroke="black" stroke-width="2"/>
<path d="M63.9961,66.7508h -6.80315" fill="none" stroke="black" stroke-width="2"/>
<path d="M63.9961,56.0814h -6.80315" fill="none" stroke="black" stroke-width="2"/>
<path d="M70.7992,45.4119h -13.6063" fill="none" stroke="black" stroke-width="2"/>
<path d="M70.7992,45.4119h -13.6063" fill="none" stroke="black" stroke-width="2"/>
<text x="46.7799" y="369.082" fill="black" font-size="13.5401" font-family="Helvetica">
0
</text>
<text x="46.7799" y="315.861" fill="black" font-size="13.5401" font-family="Helvetica">
5
</text>
<text x="39.8379" y="262.639" fill="black" font-size="13.5401" font-family="Helvetica">
10
</text>
<text x="39.8379" y="209.417" fill="black" font-size="13.5401" font-family="Helvetica">
15
</text>
<text x="39.8379" y="156.195" fill="black" font-size="13.5401" font-family="Helvetica">
20
</text>
<text x="39.8379" y="102.973" fill="black" font-size="13.5401" font-family="Helvetica">
25
</text>
<text x="39.8379" y="49.7509" fill="black" font-size="13.5401" font-family="Helvetica">
30
</text>
<rect x="351.996" y="26.3969" width="204.094" height="162.443" fill="white"/>
<path d="M351.996,188.839h 204.094" fill="none" stroke="black" stroke-width="2"/>
<path d="M556.091,188.839v -162.443" fill="none" stroke="black" stroke-width="2"/>
<path d="M556.091,26.3969h -204.094" fill="none" stroke="black" stroke-width="2"/>
<path d="M351.996,26.3969v 162.443" fill="none" stroke="black" stroke-width="2"/>
<text x="373.053" y="39.3379" fill="black" font-size="13.0027" font-family="Helvetica">
 / ndf 
</text>
<text x="368.425" y="34.7099" fill="black" font-size="8.83511" font-family="Helvetica">
2
</text>
<text x="361.483" y="39.3379" fill="black" font-size="13.0027" font-family="Times">
&#0967;
</text>
<text x="479.497" y="40.4949" fill="black" font-size="13.0027" font-family="Helvetica">
 550.4 / 495
</text>
<text x="361.483" y="59.0069" fill="black" font-size="13.0027" font-family="Helvetica">
1-Centroid 
</text>
<text x="526.934" y="57.8499" fill="black" font-size="13.0027" font-family="Helvetica">
 1.1
</text>
<text x="519.992" y="57.8499" fill="black" font-size="13.0027" font-family="Times">
&#0177;
</text>
<text x="482.968" y="57.8499" fill="black" font-size="13.0027" font-family="Helvetica">
  1532 
</text>
<text x="361.483" y="76.3619" fill="black" font-size="13.0027" font-family="Helvetica">
1-FWHM   
</text>
<text x="517.678" y="75.2049" fill="black" font-size="13.0027" font-family="Helvetica">
 2.00
</text>
<text x="510.736" y="75.2049" fill="black" font-size="13.0027" font-family="Times">
&#0177;
</text>
<text x="473.712" y="75.2049" fill="black" font-size="13.0027" font-family="Helvetica">
 67.52 
</text>
<text x="361.483" y="94.8739" fill="black" font-size="13.0027" font-family="Helvetica">
1-Counts 
</text>
<text x="517.678" y="93.7169" fill="black" font-size="13.0027" font-family="Helvetica">
 46.4
</text>
<text x="510.736" y="93.7169" fill="black" font-size="13.0027" font-family="Times">
&#0177;
</text>
<text x="473.712" y="93.7169" fill="black" font-size="13.0027" font-family="Helvetica">
  1302 
</text>
<text x="361.483" y="113.386" fill="black" font-size="13.0027" font-family="Helvetica">
2-Centroid 
</text>
<text x="526.934" y="112.229" fill="black" font-size="13.0027" font-family="Helvetica">
 1.1
</text>
<text x="519.992" y="112.229" fill="black" font-size="13.0027" font-family="Times">
&#0177;
</text>
<text x="482.968" y="112.229" fill="black" font-size="13.0027" font-family="Helvetica">
  1739 
</text>
<text x="361.483" y="130.741" fill="black" font-size="13.0027" font-family="Helvetica">
2-FWHM   
</text>
<text x="517.678" y="129.584" fill="black" font-size="13.0027" font-family="Helvetica">
 2.09
</text>
<text x="510.736" y="129.584" fill="black" font-size="13.0027" font-family="Times">
&#0177;
</text>
<text x="473.712" y="129.584" fill="black" font-size="13.0027" font-family="Helvetica">
 65.88 
</text>
<text x="361.483" y="149.253" fill="black" font-size="13.0027" font-family="Helvetica">
2-Counts 
</text>
<text x="519.992" y="148.096" fill="black" font-size="13.0027" font-family="Helvetica">
 40.1
</text>
<text x="513.05" y="148.096" fill="black" font-size="13.0027" font-family="Times">
&#0177;
</text>
<text x="478.34" y="148.096" fill="black" font-size="13.0027" font-family="Helvetica">
  1061 
</text>
<text x="361.483" y="165.451" fill="black" font-size="13.0027" font-family="Helvetica">
Intercept 
</text>
<text x="517.678" y="165.451" fill="black" font-size="13.0027" font-family="Helvetica">
 0.86
</text>
<text x="510.736" y="165.451" fill="black" font-size="13.0027" font-family="Times">
&#0177;
</text>
<text x="473.712" y="165.451" fill="black" font-size="13.0027" font-family="Helvetica">
 10.04 
</text>
<text x="361.483" y="183.963" fill="black" font-size="13.0027" font-family="Helvetica">
Slope    
</text>
<text x="489.91" y="183.963" fill="black" font-size="13.0027" font-family="Helvetica">
 0.000508
</text>
<text x="482.968" y="183.963" fill="black" font-size="13.0027" font-family="Times">
&#0177;
</text>
<text x="427.432" y="183.963" fill="black" font-size="13.0027" font-family="Helvetica">
0.004842 
</text>
<text x="420.49" y="183.963" fill="black" font-size="13.0027" font-family="Times">
&#8722;
</text>
<text x="418.176" y="183.963" fill="black" font-size="13.0027" font-family="Helvetica">
 
</text>
<path d="M59.4606,365.496h 40.8189l 4.53543, -0.0342039l 4.53543, -0.0413461l 4.53543, -0.0850839l 4.53543, -0.168129l 4.53543, -0.318935l 4.53543, -0.580604l 4.53543, -1.01393l 4.53543, -1.6978l 4.53543, -2.7244l 4.53543, -4.18656l 4.53543,
 -6.15566l 4.53543, -8.65068l 4.53543, -11.6031l 4.53543, -14.8263l 4.53543, -18.0023l 4.53543, -20.6964l 4.53543, -22.4091l 4.53543, -22.6613l 4.53543, -21.0989l 4.53543, -17.5929l 4.53543, -12.3039l 4.53543, -5.68928l 4.53543, 1.55888l 4.53543,
 8.63221l 4.53543, 14.7546l 4.53543, 19.3225l 4.53543, 22.0016l 4.53543, 22.7592l 4.53543, 21.8311l 4.53543, 19.6378l 4.53543, 16.6792l 4.53543, 13.436l 4.53543, 10.297l 4.53543, 7.52428l 4.53543, 5.25106l 4.53543, 3.50431l 4.53543, 2.23851l 4.53543,
 1.36979l 4.53543, 0.803464l 4.53543, 0.451978" fill="none" stroke="#00ff00" stroke-width="2"/>
<path d="M281.697,365.008l 4.53543, 0.243946l 4.53543, 0.126373l 4.53543, 0.0628539l 4.53543, 0.0541356h 204.094" fill="none" stroke="#00ff00" stroke-width="2"/>
<path d="M503.933,365.496h 4.53543" fill="none" stroke="#00ff00" stroke-width="2"/>
<path d="M59.4606,365.496h 213.165l 4.53543, -0.0453256l 4.53543, -0.0544635" fill="none" stroke="#00ff00" stroke-width="2"/>
<path d="M281.697,365.396l 4.53543, -0.111283l 4.53543, -0.217859l 4.53543, -0.408507l 4.53543, -0.733383l 4.53543, -1.25998l 4.53543, -2.07038l 4.53543, -3.2515l 4.53543, -4.87625l 4.53543, -6.97548l 4.53543, -9.50437l 4.53543, -12.3114l 4.53543,
 -15.1213l 4.53543, -17.5455l 4.53543, -19.1269l 4.53543, -19.4201l 4.53543, -18.0913l 4.53543, -15.0158l 4.53543, -10.3418l 4.53543, -4.49644l 4.53543, 1.875l 4.53543, 8.02588l 4.53543, 13.2523l 4.53543, 17.0255l 4.53543, 19.0785l 4.53543, 19.4277l
 4.53543, 18.3307l 4.53543, 16.1992l 4.53543, 13.4967l 4.53543, 10.6481l 4.53543, 7.97846l 4.53543, 5.69004l 4.53543, 3.86864l 4.53543, 2.51063l 4.53543, 1.55672l 4.53543, 0.922932l 4.53543, 0.523522l 4.53543, 0.284267l 4.53543, 0.147818l 4.53543,
 0.073637l 4.53543, 0.0631898h 40.8189" fill="none" stroke="#00ff00" stroke-width="2"/>
<path d="M503.933,365.496h 4.53543" fill="none" stroke="#00ff00" stroke-width="2"/>
<text x="183.306" y="19.669" fill="black" font-size="17.1866" font-family="Helvetica">
Wk2/Calibration/60Co.Spe
</text></svg>
