<?xml version="1.0" standalone="no"?>
<svg width="567.429" height="417.885" viewBox="0 0 567.429 417.885" xmlns="http://www.w3.org/2000/svg">
<title>
/home/ADF/hyw543/Coincidence/c1.svg
</title>
<desc>
Creator: ROOT Version 6.06/08
CreationDate: Tue Jan  8 20:33:51 2019</desc>
<defs>
</defs>
<rect x="0.5" y="0" width="566.929" height="417.385" fill="white"/>
<rect x="57.1929" y="41.7385" width="453.543" height="333.908" fill="white"/>
<rect x="57.1929" y="41.7385" width="453.543" height="333.908" fill="none" stroke="black"/>
<rect x="57.1929" y="41.7385" width="453.543" height="333.908" fill="white"/>
<rect x="57.1929" y="41.7385" width="453.543" height="333.908" fill="none" stroke="black"/>
<path d="M57.1929,231.647h 1.13386v -12.0968h 1.13386v -3.48948h 1.13386v 5.58316h 1.13386v -0.697895h 1.13386v 2.79158h 1.13386v -9.5379h 1.13386v -0.232632h 1.13386v -7.44421h 1.13386v -3.72211h 1.13386v 1.39579h 1.13386v 5.35053h 1.13386v
 -19.0758h 1.13386v 0.232632h 1.13386v -1.16316h 1.13386v 13.0274h 1.13386v -11.6316h 1.13386v 3.48948h 1.13386v -12.7947h 1.13386v 5.1179h 1.13386v 0.232632h 1.13386v -11.1663h 1.13386v 13.7253h 1.13386v -1.86105h 1.13386v -18.3779h 1.13386v
 -2.32632h 1.13386v 4.18737h 1.13386v -10.0032h 1.13386v 7.44421h 1.13386v -9.07263h 1.13386v -5.81579h 1.13386v 13.0274h 1.13386v -16.7495h 1.13386v 5.81579h 1.13386v -25.5895h 1.13386v 30.2421h 1.13386v -16.0516h 1.13386v 3.72211h 1.13386v
 -9.30527h 1.13386v 2.09368h 1.13386v -8.37474h 1.13386v 2.32632h 1.13386v -5.1179h 1.13386v -1.16316h 1.13386v -3.72211h 1.13386v 4.18737h 1.13386v -7.21158h 1.13386v -13.0274h 1.13386v -4.42h 1.13386v -5.58316h 1.13386v 14.6558h 1.13386v 0.232632h
 1.13386v 6.51369h 1.13386v -16.7495h 1.13386v 10.7011h 1.13386v -7.67684h 1.13386v -4.65263h 1.13386v -1.39579h 1.13386v 2.09368h 1.13386v 3.25684h 1.13386v -0.697895h 1.13386v -11.8642h 1.13386v 9.77053h 1.13386v -14.6558h 1.13386v -11.399h
 1.13386v 16.7495h 1.13386v -2.09368h 1.13386v -4.65263h 1.13386v 6.04842h 1.13386v -5.1179h 1.13386v 6.51369h 1.13386v -3.95474h 1.13386v -21.4021h 1.13386v -1.62842h 1.13386v 10.0032h 1.13386v -6.74632h 1.13386v 15.3537h 1.13386v -23.7284h 1.13386v
 4.18737h 1.13386v 16.5168h 1.13386v -4.18737h 1.13386v -12.7947h 1.13386v 5.58316h 1.13386v 3.48948h 1.13386v -13.7253h 1.13386v 5.1179h 1.13386v 12.7947h 1.13386v -21.1695h 1.13386v 29.3116h 1.13386v -16.0516h 1.13386v -8.37474h 1.13386v 1.86105h
 1.13386v -1.62842h 1.13386v 11.6316h 1.13386v -12.5621h 1.13386v 10.2358h 1.13386v -0.697895h 1.13386v -8.14211h 1.13386v 13.9579h 1.13386v -0.697895h 1.13386v -19.3084h 1.13386v 29.7769h 1.13386v -13.0274h 1.13386v -10.0032h 1.13386v 19.0758h
 1.13386v -14.6558h 1.13386v 13.4926h 1.13386v -2.79158h 1.13386v 6.51369h 1.13386v -5.58316h 1.13386v -9.5379h 1.13386v 15.819h 1.13386v 6.51369h 1.13386v 8.37474h 1.13386v -13.0274h 2.26772v -1.62842h 1.13386v 3.48948h 1.13386v 15.1211h 1.13386v
 -14.6558h 1.13386v 8.37474h 1.13386v -4.42h 1.13386v 10.0032h 1.13386v -0.232632h 1.13386v 3.72211h 1.13386v 0.697895h 1.13386v -2.79158h 1.13386v 12.0968h 1.13386v 4.65263h 1.13386v 1.39579h 1.13386v 3.48948h 1.13386v 0.465263h 1.13386v 3.72211h
 1.13386v -1.86105h 1.13386v -2.32632h 1.13386v 16.5168h 1.13386v 2.32632h 1.13386v -0.232632h 1.13386v -20.239h 1.13386v 16.2842h 1.13386v -1.39579h 1.13386v 3.48948h 1.13386v 11.6316h 1.13386v -3.72211h 1.13386v -1.16316h 1.13386v 0.930527h
 1.13386v -9.07263h 1.13386v 23.4958h 1.13386v -13.7253h 1.13386v -5.35053h 1.13386v 16.2842h 1.13386v -10.9337h 1.13386v 7.67684h 1.13386v 11.399h 1.13386v -1.62842h 1.13386v 0.930527h 1.13386v -4.42h 1.13386v 7.67684h 1.13386v -1.16316h 1.13386v
 15.5863h 1.13386v -11.399h 1.13386v 3.25684h 1.13386v -10.4684h 1.13386v 7.44421h 1.13386v 11.8642h 1.13386v -4.42h 1.13386v -3.02421h 1.13386v 0.930527h 1.13386v 6.04842h 1.13386v -1.86105h 1.13386v -1.16316h 1.13386v -4.18737h 1.13386v 9.77053h
 1.13386v 4.88526h 1.13386v -4.88526h 1.13386v 4.18737h 1.13386v -4.18737h 1.13386v 2.55895h 1.13386v 13.0274h 1.13386v -18.6105h 1.13386v 8.37474h 1.13386v 3.02421h 1.13386v 4.18737h 1.13386v -3.48948h 1.13386v -6.74632h 1.13386v 7.67684h 1.13386v
 -5.81579h 1.13386v 6.04842h 1.13386v -16.7495h 1.13386v 3.95474h 1.13386v 9.77053h 1.13386v -10.0032h 1.13386v 7.44421h 1.13386v -3.72211h 1.13386v -2.09368h 1.13386v 7.21158h 1.13386v -7.67684h 1.13386v 2.32632h 1.13386v 12.0968h 1.13386v -10.0032h
 1.13386v -3.02421h 1.13386v -13.26h 1.13386v 22.1h 1.13386v -3.48948h 1.13386v -9.07263h 1.13386v 23.4958h 1.13386v -21.4021h 1.13386v 5.58316h 1.13386v -15.3537h 1.13386v 6.04842h 1.13386v -13.0274h 1.13386v 8.14211h 1.13386v -16.7495h 1.13386v
 22.7979h 1.13386v -1.86105h 1.13386v -11.8642h 1.13386v 1.62842h 1.13386v -1.16316h 1.13386v -5.58316h 1.13386v 1.16316h 1.13386v 5.35053h 1.13386v -5.81579h 1.13386v -0.465263h 1.13386v -12.5621h 1.13386v -7.90948h 1.13386v 10.9337h 1.13386v
 1.86105h 1.13386v -5.58316h 1.13386v 8.60737h 1.13386v -1.16316h 1.13386v -10.7011h 1.13386v -4.65263h 1.13386v -4.88526h 1.13386v -3.02421h 1.13386v 10.7011h 1.13386v -1.62842h 1.13386v -17.2147h 1.13386v -7.90948h 1.13386v 5.58316h 1.13386v
 2.32632h 1.13386v 1.16316h 1.13386v 9.30527h 1.13386v -10.4684h 1.13386v -3.02421h 1.13386v 6.28105h 1.13386v -6.04842h 1.13386v -8.37474h 1.13386v -1.86105h 1.13386v -4.42h 1.13386v -4.18737h 1.13386v 6.51369h 1.13386v -6.51369h 1.13386v -0.465263h
 1.13386v -3.95474h 1.13386v -11.399h 1.13386v 27.4505h 1.13386v -24.4263h 1.13386v 7.90948h 1.13386v -11.8642h 1.13386v -3.25684h 1.13386v 7.21158h 1.13386v 1.16316h 1.13386v -3.95474h 1.13386v 16.7495h 1.13386v -32.1032h 1.13386v 6.97895h 1.13386v
 10.0032h 1.13386v -16.7495h 1.13386v 4.42h 1.13386v -1.62842h 1.13386v 3.48948h 1.13386v -1.16316h 1.13386v -3.48948h 1.13386v 6.74632h 1.13386v 2.79158h 1.13386v -4.88526h 1.13386v 6.28105h 1.13386v -26.0547h 1.13386v 23.2632h 1.13386v -18.8432h
 1.13386v -5.35053h 1.13386v 20.239h 1.13386v 2.79158h 1.13386v -3.48948h 1.13386v -7.90948h 1.13386v 7.67684h 1.13386v -8.84h 1.13386v -4.42h 1.13386v 10.2358h 1.13386v -2.79158h 1.13386v -7.21158h 1.13386v 2.32632h 1.13386v 7.90948h 1.13386v
 -14.6558h 1.13386v 17.9126h 1.13386v -6.04842h 1.13386v 0.465263h 1.13386v -6.04842h 1.13386v -0.697895h 1.13386v -5.81579h 1.13386v 15.819h 1.13386v 9.07263h 1.13386v -20.7042h 1.13386v 8.60737h 1.13386v 11.399h 1.13386v 3.02421h 1.13386v -13.0274h
 1.13386v 13.7253h 1.13386v 4.88526h 1.13386v -5.81579h 1.13386v -3.72211h 1.13386v 0.465263h 1.13386v 6.28105h 1.13386v 9.77053h 1.13386v 5.81579h 1.13386v -23.7284h 1.13386v 4.88526h 1.13386v 8.60737h 1.13386v 5.81579h 1.13386v 9.30527h 1.13386v
 5.35053h 1.13386v -12.0968h 1.13386v -1.16316h 1.13386v 11.8642h 1.13386v -8.84h 1.13386v 21.8674h 1.13386v -11.8642h 1.13386v 10.2358h 1.13386v -3.02421h 1.13386v -0.930527h 1.13386v 7.67684h 1.13386v -9.5379h 1.13386v 18.8432h 1.13386v -5.58316h
 1.13386v -1.86105h 1.13386v 5.1179h 1.13386v 4.65263h 1.13386v 1.86105h 1.13386v 17.68h 1.13386v -39.0821h 1.13386v 32.3358h 1.13386v -1.86105h 1.13386v 12.5621h 1.13386v 4.42h 1.13386v -20.7042h 1.13386v 13.4926h 1.13386v 8.60737h 1.13386v 7.44421h
 1.13386v 2.32632h 1.13386v -4.42h 1.13386v 8.37474h 1.13386v -3.72211h 1.13386v 11.1663h 1.13386v -8.60737h 1.13386v 3.72211h 1.13386v 5.58316h 1.13386v 17.68h 1.13386v -15.5863h 1.13386v 7.44421h 1.13386v 4.88526h 1.13386v -0.697895h 1.13386v
 3.25684h 1.13386v -6.28105h 1.13386v 9.77053h 1.13386v 4.65263h 1.13386v 11.1663h 1.13386v -2.79158h 1.13386v 5.35053h 1.13386v -0.465263h 1.13386v -3.25684h 1.13386v -3.25684h 1.13386v 8.60737h 1.13386v 14.1905h 1.13386v -14.8884h 1.13386v 14.1905h
 1.13386v -1.62842h 1.13386v 9.5379h 1.13386v -2.79158h 1.13386v 6.04842h 1.13386v -2.55895h 1.13386v 2.55895h 1.13386v 11.399h 1.13386v -13.4926h 1.13386v 9.07263h 1.13386v -3.25684h 1.13386v 8.14211h 1.13386v -3.48948h 1.13386v 0.232632h 1.13386v
 19.3084h 1.13386v -6.28105h 1.13386v 0.232632h 2.26772v 7.44421h 1.13386v 0.697895h 1.13386v -1.16316h 1.13386v -5.1179h 1.13386v 3.72211h 1.13386v -0.930527h 1.13386v 10.2358h 1.13386v 2.09368h 1.13386" fill="none" stroke="#ff0000"
 stroke-width="2"/>
<path d="M59.4606,222.618l 4.53543, -7.81906l 4.53543, -8.2394l 4.53543, -8.61572l 4.53543, -8.93834l 4.53543, -9.19768l 4.53543, -9.38461l 4.53543, -9.4906l 4.53543, -9.50808l 4.53543, -9.43063l 4.53543, -9.25327l 4.53543, -8.97264l 4.53543,
 -8.58722l 4.53543, -8.09748l 4.53543, -7.50597l 4.53543, -6.81736l 4.53543, -6.03848l 4.53543, -5.17818l 4.53543, -4.24727l 4.53543, -3.25832l 4.53543, -2.22541l 4.53543, -1.16385l 4.53543, -0.0898968l 4.53543, 0.97964l 4.53543, 2.02774l 4.53543,
 3.03753l 4.53543, 3.9927l 4.53543, 4.8778l 4.53543, 5.6786l 4.53543, 6.38239l 4.53543, 6.97818l 4.53543, 7.45699l 4.53543, 7.8119l 4.53543, 8.03822l 4.53543, 8.13351l 4.53543, 8.09757l 4.53543, 7.9324l 4.53543, 7.64208l 4.53543, 7.23264l 4.53543,
 6.71193l 4.53543, 6.08938l 4.53543, 5.37582l 4.53543, 4.5833l 4.53543, 3.72481l 4.53543, 2.8141l 4.53543, 1.86544l 4.53543, 0.893463l 4.53543, -0.0871001l 4.53543, -1.06156l 4.53543, -2.01547" fill="none" stroke="#0000ff" stroke-width="2"/>
<path d="M281.697,195.753l 4.53543, -2.93479l 4.53543, -3.80603l 4.53543, -4.61646l 4.53543, -5.35416l 4.53543, -6.00827l 4.53543, -6.56902l 4.53543, -7.02793l 4.53543, -7.37788l 4.53543, -7.61325l 4.53543, -7.72997l 4.53543, -7.72566l 4.53543,
 -7.59962l 4.53543, -7.35292l 4.53543, -6.98838l 4.53543, -6.51057l 4.53543, -5.92575l 4.53543, -5.24179l 4.53543, -4.46806l 4.53543, -3.61532l 4.53543, -2.69546l 4.53543, -1.72139l 4.53543, -0.706748l 4.53543, 0.334318l 4.53543, 1.38742l 4.53543,
 2.43819l 4.53543, 3.47254l 4.53543, 4.47697l 4.53543, 5.43874l 4.53543, 6.34614l 4.53543, 7.1887l 4.53543, 7.95733l 4.53543, 8.64446l 4.53543, 9.24415l 4.53543, 9.75211l 4.53543, 10.1658l 4.53543, 10.4842l 4.53543, 10.708l 4.53543, 10.8394l 4.53543,
 10.882l 4.53543, 10.8404l 4.53543, 10.7205l 4.53543, 10.529l 4.53543, 10.2732l 4.53543, 9.96094l 4.53543, 9.60034l 4.53543, 9.1996l 4.53543, 8.76689l 4.53543, 8.31014l 4.53543, 7.83693" fill="none" stroke="#0000ff" stroke-width="2"/>
<path d="M503.933,291.962l 4.53543, 7.35437" fill="none" stroke="#0000ff" stroke-width="2"/>
<rect x="164.103" y="215.964" width="204.503" height="149.793" fill="white"/>
<path d="M164.103,365.757h 204.503" fill="none" stroke="black" stroke-width="2"/>
<path d="M368.606,365.757v -149.793" fill="none" stroke="black" stroke-width="2"/>
<path d="M368.606,215.964h -204.503" fill="none" stroke="black" stroke-width="2"/>
<path d="M164.103,215.964v 149.793" fill="none" stroke="black" stroke-width="2"/>
<text x="184.64" y="228.78" fill="black" font-size="12.4587" font-family="Helvetica">
 / ndf 
</text>
<text x="180.176" y="224.316" fill="black" font-size="8.47243" font-family="Helvetica">
2
</text>
<text x="173.48" y="228.78" fill="black" font-size="12.4587" font-family="Times">
&#0967;
</text>
<text x="294.009" y="229.896" fill="black" font-size="12.4587" font-family="Helvetica">
 382.5 / 393
</text>
<text x="173.48" y="248.868" fill="black" font-size="12.4587" font-family="Helvetica">
1-Centroid 
</text>
<text x="337.533" y="247.752" fill="black" font-size="12.4587" font-family="Helvetica">
 0.6
</text>
<text x="330.837" y="247.752" fill="black" font-size="12.4587" font-family="Times">
&#0177;
</text>
<text x="295.125" y="247.752" fill="black" font-size="12.4587" font-family="Helvetica">
  1439 
</text>
<text x="173.48" y="267.841" fill="black" font-size="12.4587" font-family="Helvetica">
1-FWHM   
</text>
<text x="337.533" y="266.725" fill="black" font-size="12.4587" font-family="Helvetica">
 1.4
</text>
<text x="330.837" y="266.725" fill="black" font-size="12.4587" font-family="Times">
&#0177;
</text>
<text x="295.125" y="266.725" fill="black" font-size="12.4587" font-family="Helvetica">
 137.7 
</text>
<text x="173.48" y="286.813" fill="black" font-size="12.4587" font-family="Helvetica">
1-Counts 
</text>
<text x="297.357" y="285.697" fill="black" font-size="12.4587" font-family="Helvetica">
 4.584e+03
</text>
<text x="290.661" y="285.697" fill="black" font-size="12.4587" font-family="Times">
&#0177;
</text>
<text x="228.164" y="285.697" fill="black" font-size="12.4587" font-family="Helvetica">
 1.534e+05 
</text>
<text x="173.48" y="305.785" fill="black" font-size="12.4587" font-family="Helvetica">
2-Centroid 
</text>
<text x="337.533" y="304.669" fill="black" font-size="12.4587" font-family="Helvetica">
 0.4
</text>
<text x="330.837" y="304.669" fill="black" font-size="12.4587" font-family="Times">
&#0177;
</text>
<text x="295.125" y="304.669" fill="black" font-size="12.4587" font-family="Helvetica">
  1639 
</text>
<text x="173.48" y="323.641" fill="black" font-size="12.4587" font-family="Helvetica">
2-Counts 
</text>
<text x="297.357" y="322.525" fill="black" font-size="12.4587" font-family="Helvetica">
 4.298e+03
</text>
<text x="290.661" y="322.525" fill="black" font-size="12.4587" font-family="Times">
&#0177;
</text>
<text x="228.164" y="322.525" fill="black" font-size="12.4587" font-family="Helvetica">
 1.792e+05 
</text>
<text x="173.48" y="341.497" fill="black" font-size="12.4587" font-family="Helvetica">
Intercept 
</text>
<text x="330.837" y="341.497" fill="black" font-size="12.4587" font-family="Helvetica">
 74.5
</text>
<text x="324.141" y="341.497" fill="black" font-size="12.4587" font-family="Times">
&#0177;
</text>
<text x="288.429" y="341.497" fill="black" font-size="12.4587" font-family="Helvetica">
  1127 
</text>
<text x="173.48" y="360.469" fill="black" font-size="12.4587" font-family="Helvetica">
Slope    
</text>
<text x="317.445" y="360.469" fill="black" font-size="12.4587" font-family="Helvetica">
 0.0407
</text>
<text x="310.749" y="360.469" fill="black" font-size="12.4587" font-family="Times">
&#0177;
</text>
<text x="271.689" y="360.469" fill="black" font-size="12.4587" font-family="Helvetica">
0.6022 
</text>
<text x="264.993" y="360.469" fill="black" font-size="12.4587" font-family="Times">
&#8722;
</text>
<text x="262.761" y="360.469" fill="black" font-size="12.4587" font-family="Helvetica">
 
</text>
<path d="M57.1929,375.646h 453.543" fill="none" stroke="black" stroke-width="2"/>
<text x="455.829" y="403.993" fill="black" font-size="13.9023" font-family="Helvetica">
Channels
</text>
<path d="M113.886,365.629v 10.0172" fill="none" stroke="black" stroke-width="2"/>
<path d="M136.563,370.638v 5.00862" fill="none" stroke="black" stroke-width="2"/>
<path d="M159.24,370.638v 5.00862" fill="none" stroke="black" stroke-width="2"/>
<path d="M181.917,370.638v 5.00862" fill="none" stroke="black" stroke-width="2"/>
<path d="M204.594,370.638v 5.00862" fill="none" stroke="black" stroke-width="2"/>
<path d="M227.272,365.629v 10.0172" fill="none" stroke="black" stroke-width="2"/>
<path d="M249.949,370.638v 5.00862" fill="none" stroke="black" stroke-width="2"/>
<path d="M272.626,370.638v 5.00862" fill="none" stroke="black" stroke-width="2"/>
<path d="M295.303,370.638v 5.00862" fill="none" stroke="black" stroke-width="2"/>
<path d="M317.98,370.638v 5.00862" fill="none" stroke="black" stroke-width="2"/>
<path d="M340.657,365.629v 10.0172" fill="none" stroke="black" stroke-width="2"/>
<path d="M363.335,370.638v 5.00862" fill="none" stroke="black" stroke-width="2"/>
<path d="M386.012,370.638v 5.00862" fill="none" stroke="black" stroke-width="2"/>
<path d="M408.689,370.638v 5.00862" fill="none" stroke="black" stroke-width="2"/>
<path d="M431.366,370.638v 5.00862" fill="none" stroke="black" stroke-width="2"/>
<path d="M454.043,365.629v 10.0172" fill="none" stroke="black" stroke-width="2"/>
<path d="M113.886,365.629v 10.0172" fill="none" stroke="black" stroke-width="2"/>
<path d="M91.2087,370.638v 5.00862" fill="none" stroke="black" stroke-width="2"/>
<path d="M68.5315,370.638v 5.00862" fill="none" stroke="black" stroke-width="2"/>
<path d="M454.043,365.629v 10.0172" fill="none" stroke="black" stroke-width="2"/>
<path d="M476.72,370.638v 5.00862" fill="none" stroke="black" stroke-width="2"/>
<path d="M499.398,370.638v 5.00862" fill="none" stroke="black" stroke-width="2"/>
<text x="97.5922" y="388.369" fill="black" font-size="13.9023" font-family="Helvetica">
1400
</text>
<text x="211.424" y="388.369" fill="black" font-size="13.9023" font-family="Helvetica">
1500
</text>
<text x="324.141" y="388.369" fill="black" font-size="13.9023" font-family="Helvetica">
1600
</text>
<text x="437.973" y="388.369" fill="black" font-size="13.9023" font-family="Helvetica">
1700
</text>
<path d="M57.1929,375.646v -333.908" fill="none" stroke="black" stroke-width="2"/>
<path d="M70.7992,375.646h -13.6063" fill="none" stroke="black" stroke-width="2"/>
<path d="M63.9961,364.015h -6.80315" fill="none" stroke="black" stroke-width="2"/>
<path d="M63.9961,352.383h -6.80315" fill="none" stroke="black" stroke-width="2"/>
<path d="M63.9961,340.752h -6.80315" fill="none" stroke="black" stroke-width="2"/>
<path d="M70.7992,329.12h -13.6063" fill="none" stroke="black" stroke-width="2"/>
<path d="M63.9961,317.488h -6.80315" fill="none" stroke="black" stroke-width="2"/>
<path d="M63.9961,305.857h -6.80315" fill="none" stroke="black" stroke-width="2"/>
<path d="M63.9961,294.225h -6.80315" fill="none" stroke="black" stroke-width="2"/>
<path d="M70.7992,282.594h -13.6063" fill="none" stroke="black" stroke-width="2"/>
<path d="M63.9961,270.962h -6.80315" fill="none" stroke="black" stroke-width="2"/>
<path d="M63.9961,259.331h -6.80315" fill="none" stroke="black" stroke-width="2"/>
<path d="M63.9961,247.699h -6.80315" fill="none" stroke="black" stroke-width="2"/>
<path d="M70.7992,236.067h -13.6063" fill="none" stroke="black" stroke-width="2"/>
<path d="M63.9961,224.436h -6.80315" fill="none" stroke="black" stroke-width="2"/>
<path d="M63.9961,212.804h -6.80315" fill="none" stroke="black" stroke-width="2"/>
<path d="M63.9961,201.173h -6.80315" fill="none" stroke="black" stroke-width="2"/>
<path d="M70.7992,189.541h -13.6063" fill="none" stroke="black" stroke-width="2"/>
<path d="M63.9961,177.909h -6.80315" fill="none" stroke="black" stroke-width="2"/>
<path d="M63.9961,166.278h -6.80315" fill="none" stroke="black" stroke-width="2"/>
<path d="M63.9961,154.646h -6.80315" fill="none" stroke="black" stroke-width="2"/>
<path d="M70.7992,143.015h -13.6063" fill="none" stroke="black" stroke-width="2"/>
<path d="M63.9961,131.383h -6.80315" fill="none" stroke="black" stroke-width="2"/>
<path d="M63.9961,119.752h -6.80315" fill="none" stroke="black" stroke-width="2"/>
<path d="M63.9961,108.12h -6.80315" fill="none" stroke="black" stroke-width="2"/>
<path d="M70.7992,96.4883h -13.6063" fill="none" stroke="black" stroke-width="2"/>
<path d="M63.9961,84.8568h -6.80315" fill="none" stroke="black" stroke-width="2"/>
<path d="M63.9961,73.2252h -6.80315" fill="none" stroke="black" stroke-width="2"/>
<path d="M63.9961,61.5936h -6.80315" fill="none" stroke="black" stroke-width="2"/>
<path d="M70.7992,49.962h -13.6063" fill="none" stroke="black" stroke-width="2"/>
<path d="M70.7992,49.962h -13.6063" fill="none" stroke="black" stroke-width="2"/>
<text x="46.2561" y="380.557" fill="black" font-size="13.9023" font-family="Helvetica">
0
</text>
<text x="31.7481" y="333.685" fill="black" font-size="13.9023" font-family="Helvetica">
200
</text>
<text x="31.7481" y="287.929" fill="black" font-size="13.9023" font-family="Helvetica">
400
</text>
<text x="31.7481" y="241.056" fill="black" font-size="13.9023" font-family="Helvetica">
600
</text>
<text x="31.7481" y="194.184" fill="black" font-size="13.9023" font-family="Helvetica">
800
</text>
<text x="23.936" y="148.428" fill="black" font-size="13.9023" font-family="Helvetica">
1000
</text>
<text x="23.936" y="101.556" fill="black" font-size="13.9023" font-family="Helvetica">
1200
</text>
<text x="23.936" y="54.6841" fill="black" font-size="13.9023" font-family="Helvetica">
1400
</text>
<rect x="164.103" y="215.964" width="204.503" height="149.793" fill="white"/>
<path d="M164.103,365.757h 204.503" fill="none" stroke="black" stroke-width="2"/>
<path d="M368.606,365.757v -149.793" fill="none" stroke="black" stroke-width="2"/>
<path d="M368.606,215.964h -204.503" fill="none" stroke="black" stroke-width="2"/>
<path d="M164.103,215.964v 149.793" fill="none" stroke="black" stroke-width="2"/>
<text x="184.64" y="228.78" fill="black" font-size="12.4587" font-family="Helvetica">
 / ndf 
</text>
<text x="180.176" y="224.316" fill="black" font-size="8.47243" font-family="Helvetica">
2
</text>
<text x="173.48" y="228.78" fill="black" font-size="12.4587" font-family="Times">
&#0967;
</text>
<text x="294.009" y="229.896" fill="black" font-size="12.4587" font-family="Helvetica">
 382.5 / 393
</text>
<text x="173.48" y="248.868" fill="black" font-size="12.4587" font-family="Helvetica">
1-Centroid 
</text>
<text x="337.533" y="247.752" fill="black" font-size="12.4587" font-family="Helvetica">
 0.6
</text>
<text x="330.837" y="247.752" fill="black" font-size="12.4587" font-family="Times">
&#0177;
</text>
<text x="295.125" y="247.752" fill="black" font-size="12.4587" font-family="Helvetica">
  1439 
</text>
<text x="173.48" y="267.841" fill="black" font-size="12.4587" font-family="Helvetica">
1-FWHM   
</text>
<text x="337.533" y="266.725" fill="black" font-size="12.4587" font-family="Helvetica">
 1.4
</text>
<text x="330.837" y="266.725" fill="black" font-size="12.4587" font-family="Times">
&#0177;
</text>
<text x="295.125" y="266.725" fill="black" font-size="12.4587" font-family="Helvetica">
 137.7 
</text>
<text x="173.48" y="286.813" fill="black" font-size="12.4587" font-family="Helvetica">
1-Counts 
</text>
<text x="297.357" y="285.697" fill="black" font-size="12.4587" font-family="Helvetica">
 4.584e+03
</text>
<text x="290.661" y="285.697" fill="black" font-size="12.4587" font-family="Times">
&#0177;
</text>
<text x="228.164" y="285.697" fill="black" font-size="12.4587" font-family="Helvetica">
 1.534e+05 
</text>
<text x="173.48" y="305.785" fill="black" font-size="12.4587" font-family="Helvetica">
2-Centroid 
</text>
<text x="337.533" y="304.669" fill="black" font-size="12.4587" font-family="Helvetica">
 0.4
</text>
<text x="330.837" y="304.669" fill="black" font-size="12.4587" font-family="Times">
&#0177;
</text>
<text x="295.125" y="304.669" fill="black" font-size="12.4587" font-family="Helvetica">
  1639 
</text>
<text x="173.48" y="323.641" fill="black" font-size="12.4587" font-family="Helvetica">
2-Counts 
</text>
<text x="297.357" y="322.525" fill="black" font-size="12.4587" font-family="Helvetica">
 4.298e+03
</text>
<text x="290.661" y="322.525" fill="black" font-size="12.4587" font-family="Times">
&#0177;
</text>
<text x="228.164" y="322.525" fill="black" font-size="12.4587" font-family="Helvetica">
 1.792e+05 
</text>
<text x="173.48" y="341.497" fill="black" font-size="12.4587" font-family="Helvetica">
Intercept 
</text>
<text x="330.837" y="341.497" fill="black" font-size="12.4587" font-family="Helvetica">
 74.5
</text>
<text x="324.141" y="341.497" fill="black" font-size="12.4587" font-family="Times">
&#0177;
</text>
<text x="288.429" y="341.497" fill="black" font-size="12.4587" font-family="Helvetica">
  1127 
</text>
<text x="173.48" y="360.469" fill="black" font-size="12.4587" font-family="Helvetica">
Slope    
</text>
<text x="317.445" y="360.469" fill="black" font-size="12.4587" font-family="Helvetica">
 0.0407
</text>
<text x="310.749" y="360.469" fill="black" font-size="12.4587" font-family="Times">
&#0177;
</text>
<text x="271.689" y="360.469" fill="black" font-size="12.4587" font-family="Helvetica">
0.6022 
</text>
<text x="264.993" y="360.469" fill="black" font-size="12.4587" font-family="Times">
&#8722;
</text>
<text x="262.761" y="360.469" fill="black" font-size="12.4587" font-family="Helvetica">
 
</text>
<path d="M59.4606,295.42l 4.53543, -8.37709l 4.53543, -8.7967l 4.53543, -9.17207l 4.53543, -9.49346l 4.53543, -9.75123l 4.53543, -9.93614l 4.53543, -10.0396l 4.53543, -10.0538l 4.53543, -9.97232l 4.53543, -9.78986l 4.53543, -9.50288l 4.53543,
 -9.10958l 4.53543, -8.6101l 4.53543, -8.00661l 4.53543, -7.30335l 4.53543, -6.50662l 4.53543, -5.6247l 4.53543, -4.66772l 4.53543, -3.64748l 4.53543, -2.57721l 4.53543, -1.47127l 4.53543, -0.344865l 4.53543, 0.786355l 4.53543, 1.90661l 4.53543,
 3.00038l 4.53543, 4.05276l 4.53543, 5.04979l 4.53543, 5.97876l 4.53543, 6.82851l 4.53543, 7.58961l 4.53543, 8.25453l 4.53543, 8.81777l 4.53543, 9.27592l 4.53543, 9.62759l 4.53543, 9.87343l 4.53543, 10.0159l 4.53543, 10.0593l 4.53543, 10.0094l
 4.53543, 9.87314l 4.53543, 9.6587l 4.53543, 9.37495l 4.53543, 9.03131l 4.53543, 8.6375l 4.53543, 8.20325l 4.53543, 7.73814l 4.53543, 7.25136l 4.53543, 6.75157l 4.53543, 6.24673l 4.53543, 5.74406" fill="none" stroke="#00ff00" stroke-width="2"/>
<path d="M281.697,332.303l 4.53543, 5.24991l 4.53543, 4.76973l 4.53543, 4.30808l 4.53543, 3.86864l 4.53543, 3.4542l 4.53543, 3.06676l 4.53543, 2.70758l 4.53543, 2.37726l 4.53543, 2.07581l 4.53543, 1.80275l 4.53543, 1.55716l 4.53543, 1.33784l 4.53543,
 1.1433l 4.53543, 0.97189l 4.53543, 0.821841l 4.53543, 0.691328l 4.53543, 0.578521l 4.53543, 0.481617l 4.53543, 0.398882l 4.53543, 0.328666l 4.53543, 0.269427l 4.53543, 0.219742l 4.53543, 0.178311l 4.53543, 0.143961l 4.53543, 0.115642l 4.53543,
 0.0924279l 4.53543, 0.0735037l 4.53543, 0.0581622l 4.53543, 0.0457934l 4.53543, 0.0358758l 4.53543, 0.0279667l 4.53543, 0.0216934l 4.53543, 0.0167441l 4.53543, 0.0128603l 4.53543, 0.0393231h 63.4961" fill="none" stroke="#00ff00" stroke-width="2"/>
<path d="M503.933,375.646h 4.53543" fill="none" stroke="#00ff00" stroke-width="2"/>
<path d="M59.4606,375.646h 22.6772l 4.53543, -0.0370669l 4.53543, -0.0113695l 4.53543, -0.0145983l 4.53543, -0.0186631l 4.53543, -0.0237564l 4.53543, -0.0301085l 4.53543, -0.0379931l 4.53543, -0.0477337l 4.53543, -0.0597097l 4.53543, -0.0743637l
 4.53543, -0.0922079l 4.53543, -0.113831l 4.53543, -0.139906l 4.53543, -0.171194l 4.53543, -0.208551l 4.53543, -0.25293l 4.53543, -0.305384l 4.53543, -0.367067l 4.53543, -0.439226l 4.53543, -0.523202l 4.53543, -0.620412l 4.53543, -0.73234l 4.53543,
 -0.860512l 4.53543, -1.00648l 4.53543, -1.17177l 4.53543, -1.35789l 4.53543, -1.56623l 4.53543, -1.79805l 4.53543, -2.05443l 4.53543, -2.3362l 4.53543, -2.64388l 4.53543, -2.9776l 4.53543, -3.33709l 4.53543, -3.72157l 4.53543, -4.12967l 4.53543,
 -4.55947l 4.53543, -5.00836l 4.53543, -5.47304l 4.53543, -5.94951l 4.53543, -6.43305l 4.53543, -6.91825l 4.53543, -7.39902l 4.53543, -7.86864l 4.53543, -8.31988" fill="none" stroke="#00ff00" stroke-width="2"/>
<path d="M281.697,284.434l 4.53543, -8.74504l 4.53543, -9.13611l 4.53543, -9.48489l 4.53543, -9.78315l 4.53543, -10.0228l 4.53543, -10.1961l 4.53543, -10.2959l 4.53543, -10.3155l 4.53543, -10.2494l 4.53543, -10.0931l 4.53543, -9.84317l 4.53543,
 -9.49781l 4.53543, -9.05657l 4.53543, -8.52063l 4.53543, -7.89276l 4.53543, -7.17743l 4.53543, -6.38066l 4.53543, -5.51003l 4.53543, -4.57455l 4.53543, -3.58448l 4.53543, -2.55117l 4.53543, -1.48684l 4.53543, -0.404345l 4.53543, 0.683105l 4.53543,
 1.76219l 4.53543, 2.81976l 4.53543, 3.84311l 4.53543, 4.82022l 4.53543, 5.73999l 4.53543, 6.59247l 4.53543, 7.36901l 4.53543, 8.06241l 4.53543, 8.66705l 4.53543, 9.1789l 4.53543, 9.59558l 4.53543, 9.91635l 4.53543, 10.142l 4.53543, 10.2748l 4.53543,
 10.3184l 4.53543, 10.2777l 4.53543, 10.1584l 4.53543, 9.96735l 4.53543, 9.71189l 4.53543, 9.39989l 4.53543, 9.03947l 4.53543, 8.63888l 4.53543, 8.20627l 4.53543, 7.7496l 4.53543, 7.27644" fill="none" stroke="#00ff00" stroke-width="2"/>
<path d="M503.933,309.843l 4.53543, 6.79392" fill="none" stroke="#00ff00" stroke-width="2"/>
<text x="95.3602" y="18.972" fill="black" font-size="14.3535" font-family="Helvetica">
Wk4/Calibration/Det_A_44Ti_67_78_peaks_calibraton.Spe
</text></svg>
