<?xml version="1.0" standalone="no"?>
<svg width="567.429" height="340.468" viewBox="0 0 567.429 340.468" xmlns="http://www.w3.org/2000/svg">
<title>
/home/ADF/hyw543/Coincidence/c1.svg
</title>
<desc>
Creator: ROOT Version 6.06/08
CreationDate: Tue Jan  8 20:25:41 2019</desc>
<defs>
</defs>
<rect x="0.5" y="0" width="566.929" height="339.968" fill="white"/>
<rect x="57.1929" y="33.9968" width="453.543" height="271.974" fill="white"/>
<rect x="57.1929" y="33.9968" width="453.543" height="271.974" fill="none" stroke="black"/>
<rect x="57.1929" y="33.9968" width="453.543" height="271.974" fill="white"/>
<rect x="57.1929" y="33.9968" width="453.543" height="271.974" fill="none" stroke="black"/>
<path d="M57.1929,155.982h 1.7444v -13.2969h 1.7444v 12.765h 1.7444v -2.65937h 1.7444v 23.4025h 1.7444v -33.5081h 1.7444v -3.19125h 1.7444v 6.91437h 1.7444v -6.38249h 1.7444v 5.85062h 1.7444v -29.785h 1.7444v 3.72312h 1.7444v 14.3606h 1.7444v
 9.04187h 1.7444v -2.65937h 1.7444v -21.8069h 1.7444v 13.2969h 1.7444v -29.785h 1.7444v 8.50999h 1.7444v 3.72312h 1.7444v -12.2331h 1.7444v 19.6794h 1.7444v 0.531875h 1.7444v -19.1475h 1.7444v 7.97812h 1.7444v -10.6375h 1.7444v 10.6375h 1.7444v
 13.8287h 1.7444v -46.2731h 1.7444v 28.1893h 1.7444v -23.9344h 1.7444v 4.255h 1.7444v 0.531875h 1.7444v -8.50999h 1.7444v 13.2969h 1.7444v 6.91437h 1.7444v -31.9125h 1.7444v 3.72312h 1.7444v 6.91437h 1.7444v 9.57374h 1.7444v -10.6375h 1.7444v
 -13.8287h 1.7444v 18.0837h 1.7444v -5.31875h 1.7444v -14.8925h 1.7444v 1.59562h 1.7444v 14.8925h 1.7444v -3.72312h 1.7444v -11.7012h 1.7444v 10.6375h 1.7444v -21.275h 1.7444v 20.7431h 1.7444v 0.531875h 1.7444v -8.50999h 1.7444v -2.1275h 1.7444v
 -6.38249h 1.7444v 15.4244h 1.7444v -18.0837h 1.7444v 7.97812h 1.7444v -5.85062h 1.7444v -0.531875h 1.7444v 10.1056h 1.7444v -5.31875h 1.7444v -7.97812h 1.7444v 13.8287h 1.7444v -7.97812h 1.7444v 11.7012h 1.7444v -17.02h 1.7444v 8.50999h 1.7444v
 1.59562h 1.7444v 21.275h 1.7444v 2.1275h 1.7444v -10.6375h 1.7444v -28.1893h 1.7444v 21.275h 1.7444v 21.275h 1.7444v -28.1893h 1.7444v 22.8706h 1.7444v 0.531875h 3.48879v -3.72312h 1.7444v -22.3387h 1.7444v 34.5718h 1.7444v -22.3387h 1.7444v
 16.4881h 1.7444v -11.1694h 1.7444v 7.44624h 1.7444v -6.91437h 1.7444v 6.91437h 1.7444v 18.0837h 1.7444v -17.02h 1.7444v 11.1694h 1.7444v -15.4244h 1.7444v 6.91437h 1.7444v 2.1275h 1.7444v -8.50999h 1.7444v 12.2331h 1.7444v 19.6794h 1.7444v -14.3606h
 1.7444v 2.1275h 1.7444v 18.6156h 3.48879v -13.2969h 1.7444v 6.38249h 1.7444v 1.59562h 1.7444v -3.19125h 1.7444v 2.1275h 1.7444v 0.531875h 1.7444v -10.6375h 1.7444v 11.7012h 1.7444v 10.1056h 1.7444v 1.06375h 1.7444v -14.3606h 1.7444v 15.9562h 1.7444v
 -3.19125h 1.7444v -10.6375h 3.48879v 19.6794h 1.7444v -11.1694h 1.7444v 5.31875h 1.7444v 14.8925h 1.7444v -17.5519h 1.7444v -12.2331h 1.7444v 5.31875h 1.7444v 16.4881h 1.7444v -23.9344h 1.7444v 27.1256h 1.7444v -3.19125h 1.7444v -17.02h 1.7444v
 -3.19125h 1.7444v -1.06375h 1.7444v 6.91437h 1.7444v 6.38249h 1.7444v -10.1056h 1.7444v 15.4244h 1.7444v -21.8069h 1.7444v 11.1694h 1.7444v -6.91437h 1.7444v 2.1275h 1.7444v -6.91437h 1.7444v -5.85062h 1.7444v 13.8287h 1.7444v 2.1275h 1.7444v
 -1.06375h 1.7444v -3.72312h 1.7444v -1.59562h 1.7444v 6.91437h 1.7444v -24.9981h 1.7444v 6.91437h 1.7444v 9.04187h 3.48879v 15.9562h 1.7444v -13.2969h 1.7444v -23.4025h 1.7444v 21.275h 1.7444v 10.6375h 1.7444v -18.0837h 1.7444v -19.1475h 1.7444v
 16.4881h 1.7444v 4.255h 1.7444v 15.4244h 1.7444v -28.7212h 3.48879v 18.0837h 1.7444v -21.8069h 1.7444v -2.1275h 1.7444v 7.97812h 1.7444v -4.255h 1.7444v 9.04187h 1.7444v 0.531875h 1.7444v 6.38249h 1.7444v -5.31875h 1.7444v -1.06375h 1.7444v 3.72312h
 1.7444v -19.6794h 1.7444v 29.785h 1.7444v -28.7212h 1.7444v 15.9562h 1.7444v 6.38249h 1.7444v 5.31875h 1.7444v -3.19125h 3.48879v -5.85062h 1.7444v 9.57374h 1.7444v 7.44624h 1.7444v -19.1475h 1.7444v 9.04187h 1.7444v -9.57374h 1.7444v 11.7012h
 1.7444v 8.50999h 1.7444v 10.6375h 1.7444v -7.44624h 1.7444v 2.1275h 1.7444v -11.1694h 1.7444v 21.8069h 1.7444v -4.78687h 3.48879v -2.1275h 1.7444v 11.7012h 1.7444v -8.50999h 1.7444v 20.2112h 1.7444v 2.65937h 1.7444v -12.2331h 1.7444v 7.44624h
 1.7444v 0.531875h 1.7444v 3.72312h 1.7444v 9.04187h 1.7444v 2.65937h 1.7444v -9.04187h 1.7444v 29.785h 1.7444v -14.3606h 1.7444v 1.06375h 1.7444v 3.72312h 1.7444v -6.91437h 1.7444v 1.59562h 1.7444v 12.765h 1.7444v -18.0837h 1.7444v 22.8706h 1.7444v
 -8.50999h 1.7444v 12.765h 1.7444v 6.38249h 1.7444v 1.06375h 1.7444v -9.57374h 1.7444v 9.04187h 1.7444v 8.50999h 1.7444v -2.65937h 1.7444v 2.1275h 1.7444v -1.06375h 1.7444v 11.7012h 1.7444v 5.85062h 1.7444v -12.765h 1.7444v 13.8287h 1.7444v
 -0.531875h 1.7444v -9.57374h 1.7444v 24.9981h 1.7444v -14.3606h 1.7444v 14.8925h 1.7444v -3.19125h 1.7444v -13.2969h 1.7444v 11.7012h 1.7444v 9.57374h 1.7444v -2.1275h 3.48879v -3.19125h 1.7444v -1.59562h 1.7444v 2.1275h 1.7444v 11.1694h 1.7444v
 4.78687h 1.7444v 2.1275h 1.7444v -4.255h 1.7444v -1.59562h 1.7444v 5.31875h 1.7444v 2.65937h 1.7444v 8.50999h 1.7444v -4.255h 1.7444v -6.38249h 1.7444v 4.255h 1.7444v 3.19125h 1.7444v -4.255h 1.7444v 9.04187h 1.7444" fill="none" stroke="#ff0000"
 stroke-width="2"/>
<path d="M59.4606,153.444l 4.53543, -4.18195l 4.53543, -4.46878l 4.53543, -4.73456l 4.53543, -4.97348l 4.53543, -5.17973l 4.53543, -5.34757l 4.53543, -5.47156l 4.53543, -5.54662l 4.53543, -5.56829l 4.53543, -5.53279l 4.53543, -5.43724l 4.53543,
 -5.27976l 4.53543, -5.05959l 4.53543, -4.77718l 4.53543, -4.43425l 4.53543, -4.03382l 4.53543, -3.58023l 4.53543, -3.07905l 4.53543, -2.53706l 4.53543, -1.96209l 4.53543, -1.3629l 4.53543, -0.749006l 4.53543, -0.130467l 4.53543, 0.482337l 4.53543,
 1.07893l 4.53543, 1.64899l 4.53543, 2.18259l 4.53543, 2.67043l 4.53543, 3.10405l 4.53543, 3.47607l 4.53543, 3.7803l 4.53543, 4.01195l 4.53543, 4.16771l 4.53543, 4.24581l 4.53543, 4.24608l 4.53543, 4.16997l 4.53543, 4.02043l 4.53543, 3.80194l
 4.53543, 3.52032l 4.53543, 3.18263l 4.53543, 2.79701l 4.53543, 2.37248l 4.53543, 1.91876l 4.53543, 1.44605l 4.53543, 0.964836l 4.53543, 0.485636l 4.53543, 0.0188273l 4.53543, -0.425577l 4.53543, -0.838119" fill="none" stroke="#0000ff"
 stroke-width="2"/>
<path d="M281.697,122.547l 4.53543, -1.21007l 4.53543, -1.53359l 4.53543, -1.80186l 4.53543, -2.00924l 4.53543, -2.15128l 4.53543, -2.22486l 4.53543, -2.22821l 4.53543, -2.16088l 4.53543, -2.02379l 4.53543, -1.81913l 4.53543, -1.55035l 4.53543,
 -1.22202l 4.53543, -0.839742l 4.53543, -0.410014l 4.53543, 0.0599101l 4.53543, 0.562187l 4.53543, 1.08855l 4.53543, 1.63049l 4.53543, 2.17941l 4.53543, 2.72683l 4.53543, 3.26452l 4.53543, 3.78468l 4.53543, 4.28006l 4.53543, 4.74409l 4.53543,
 5.17101l 4.53543, 5.55592l 4.53543, 5.89483l 4.53543, 6.18475l 4.53543, 6.42364l 4.53543, 6.61045l 4.53543, 6.74505l 4.53543, 6.8282l 4.53543, 6.86148l 4.53543, 6.84719l 4.53543, 6.78829l 4.53543, 6.68826l 4.53543, 6.551l 4.53543, 6.38073l 4.53543,
 6.1819l 4.53543, 5.95905l 4.53543, 5.7167l 4.53543, 5.45934l 4.53543, 5.19124l 4.53543, 4.91648l 4.53543, 4.63884l 4.53543, 4.36174l 4.53543, 4.08828l 4.53543, 3.82115l 4.53543, 3.56264" fill="none" stroke="#0000ff" stroke-width="2"/>
<path d="M503.933,267.111l 4.53543, 3.31466" fill="none" stroke="#0000ff" stroke-width="2"/>
<rect x="119.431" y="152.269" width="204.299" height="122.117" fill="white"/>
<path d="M119.431,274.386h 204.299" fill="none" stroke="black" stroke-width="2"/>
<path d="M323.73,274.386v -122.117" fill="none" stroke="black" stroke-width="2"/>
<path d="M323.73,152.269h -204.299" fill="none" stroke="black" stroke-width="2"/>
<path d="M119.431,152.269v 122.117" fill="none" stroke="black" stroke-width="2"/>
<text x="140.096" y="163.336" fill="black" font-size="11.7939" font-family="Helvetica">
 / ndf 
</text>
<text x="135.347" y="159.538" fill="black" font-size="8.02929" font-family="Helvetica">
2
</text>
<text x="128.7" y="163.336" fill="black" font-size="11.7939" font-family="Times">
&#0967;
</text>
<text x="254.051" y="164.286" fill="black" font-size="11.7939" font-family="Helvetica">
 228.9 / 253
</text>
<text x="128.7" y="179.48" fill="black" font-size="11.7939" font-family="Helvetica">
1-Centroid 
</text>
<text x="294.885" y="179.48" fill="black" font-size="11.7939" font-family="Helvetica">
 1.3
</text>
<text x="288.238" y="179.48" fill="black" font-size="11.7939" font-family="Times">
&#0177;
</text>
<text x="254.051" y="179.48" fill="black" font-size="11.7939" font-family="Helvetica">
 851.3 
</text>
<text x="128.7" y="194.674" fill="black" font-size="11.7939" font-family="Helvetica">
1-FWHM   
</text>
<text x="288.238" y="194.674" fill="black" font-size="11.7939" font-family="Helvetica">
 1.98
</text>
<text x="281.59" y="194.674" fill="black" font-size="11.7939" font-family="Times">
&#0177;
</text>
<text x="249.303" y="194.674" fill="black" font-size="11.7939" font-family="Helvetica">
 90.71 
</text>
<text x="128.7" y="209.868" fill="black" font-size="11.7939" font-family="Helvetica">
1-Counts 
</text>
<text x="256.9" y="209.868" fill="black" font-size="11.7939" font-family="Helvetica">
 1.772e+03
</text>
<text x="250.253" y="209.868" fill="black" font-size="11.7939" font-family="Times">
&#0177;
</text>
<text x="191.376" y="209.868" fill="black" font-size="11.7939" font-family="Helvetica">
 2.854e+04 
</text>
<text x="128.7" y="225.062" fill="black" font-size="11.7939" font-family="Helvetica">
2-Centroid 
</text>
<text x="294.885" y="225.062" fill="black" font-size="11.7939" font-family="Helvetica">
 0.7
</text>
<text x="288.238" y="225.062" fill="black" font-size="11.7939" font-family="Times">
&#0177;
</text>
<text x="254.051" y="225.062" fill="black" font-size="11.7939" font-family="Helvetica">
 962.9 
</text>
<text x="128.7" y="240.256" fill="black" font-size="11.7939" font-family="Helvetica">
2-Counts 
</text>
<text x="256.9" y="240.256" fill="black" font-size="11.7939" font-family="Helvetica">
 1.371e+03
</text>
<text x="250.253" y="240.256" fill="black" font-size="11.7939" font-family="Times">
&#0177;
</text>
<text x="191.376" y="240.256" fill="black" font-size="11.7939" font-family="Helvetica">
 3.003e+04 
</text>
<text x="128.7" y="254.501" fill="black" font-size="11.7939" font-family="Helvetica">
Intercept 
</text>
<text x="288.238" y="255.45" fill="black" font-size="11.7939" font-family="Helvetica">
 57.7
</text>
<text x="281.59" y="255.45" fill="black" font-size="11.7939" font-family="Times">
&#0177;
</text>
<text x="247.404" y="255.45" fill="black" font-size="11.7939" font-family="Helvetica">
 704.2 
</text>
<text x="128.7" y="269.695" fill="black" font-size="11.7939" font-family="Helvetica">
Slope    
</text>
<text x="275.893" y="270.645" fill="black" font-size="11.7939" font-family="Helvetica">
 0.0527
</text>
<text x="269.245" y="270.645" fill="black" font-size="11.7939" font-family="Times">
&#0177;
</text>
<text x="234.109" y="270.645" fill="black" font-size="11.7939" font-family="Helvetica">
0.6391 
</text>
<text x="227.462" y="270.645" fill="black" font-size="11.7939" font-family="Times">
&#8722;
</text>
<text x="224.613" y="270.645" fill="black" font-size="11.7939" font-family="Helvetica">
 
</text>
<path d="M57.1929,305.971h 453.543" fill="none" stroke="black" stroke-width="2"/>
<text x="463.919" y="329.522" fill="black" font-size="11.4164" font-family="Helvetica">
Channels
</text>
<path d="M74.6369,297.812v 8.15922" fill="none" stroke="black" stroke-width="2"/>
<path d="M109.525,301.891v 4.07961" fill="none" stroke="black" stroke-width="2"/>
<path d="M144.413,301.891v 4.07961" fill="none" stroke="black" stroke-width="2"/>
<path d="M179.301,301.891v 4.07961" fill="none" stroke="black" stroke-width="2"/>
<path d="M214.189,301.891v 4.07961" fill="none" stroke="black" stroke-width="2"/>
<path d="M249.077,297.812v 8.15922" fill="none" stroke="black" stroke-width="2"/>
<path d="M283.965,301.891v 4.07961" fill="none" stroke="black" stroke-width="2"/>
<path d="M318.853,301.891v 4.07961" fill="none" stroke="black" stroke-width="2"/>
<path d="M353.74,301.891v 4.07961" fill="none" stroke="black" stroke-width="2"/>
<path d="M388.628,301.891v 4.07961" fill="none" stroke="black" stroke-width="2"/>
<path d="M423.516,297.812v 8.15922" fill="none" stroke="black" stroke-width="2"/>
<path d="M74.6369,297.812v 8.15922" fill="none" stroke="black" stroke-width="2"/>
<path d="M423.516,297.812v 8.15922" fill="none" stroke="black" stroke-width="2"/>
<path d="M458.404,301.891v 4.07961" fill="none" stroke="black" stroke-width="2"/>
<path d="M493.292,301.891v 4.07961" fill="none" stroke="black" stroke-width="2"/>
<text x="65.0748" y="317.176" fill="black" font-size="11.4164" font-family="Helvetica">
800
</text>
<text x="238.857" y="317.176" fill="black" font-size="11.4164" font-family="Helvetica">
900
</text>
<text x="409.791" y="317.176" fill="black" font-size="11.4164" font-family="Helvetica">
1000
</text>
<path d="M57.1929,305.971v -271.974" fill="none" stroke="black" stroke-width="2"/>
<path d="M70.7992,305.971h -13.6063" fill="none" stroke="black" stroke-width="2"/>
<path d="M63.9961,295.333h -6.80315" fill="none" stroke="black" stroke-width="2"/>
<path d="M63.9961,284.696h -6.80315" fill="none" stroke="black" stroke-width="2"/>
<path d="M63.9961,274.058h -6.80315" fill="none" stroke="black" stroke-width="2"/>
<path d="M63.9961,263.421h -6.80315" fill="none" stroke="black" stroke-width="2"/>
<path d="M70.7992,252.783h -13.6063" fill="none" stroke="black" stroke-width="2"/>
<path d="M63.9961,242.146h -6.80315" fill="none" stroke="black" stroke-width="2"/>
<path d="M63.9961,231.508h -6.80315" fill="none" stroke="black" stroke-width="2"/>
<path d="M63.9961,220.871h -6.80315" fill="none" stroke="black" stroke-width="2"/>
<path d="M63.9961,210.233h -6.80315" fill="none" stroke="black" stroke-width="2"/>
<path d="M70.7992,199.596h -13.6063" fill="none" stroke="black" stroke-width="2"/>
<path d="M63.9961,188.958h -6.80315" fill="none" stroke="black" stroke-width="2"/>
<path d="M63.9961,178.321h -6.80315" fill="none" stroke="black" stroke-width="2"/>
<path d="M63.9961,167.683h -6.80315" fill="none" stroke="black" stroke-width="2"/>
<path d="M63.9961,157.046h -6.80315" fill="none" stroke="black" stroke-width="2"/>
<path d="M70.7992,146.408h -13.6063" fill="none" stroke="black" stroke-width="2"/>
<path d="M63.9961,135.771h -6.80315" fill="none" stroke="black" stroke-width="2"/>
<path d="M63.9961,125.133h -6.80315" fill="none" stroke="black" stroke-width="2"/>
<path d="M63.9961,114.496h -6.80315" fill="none" stroke="black" stroke-width="2"/>
<path d="M63.9961,103.858h -6.80315" fill="none" stroke="black" stroke-width="2"/>
<path d="M70.7992,93.221h -13.6063" fill="none" stroke="black" stroke-width="2"/>
<path d="M63.9961,82.5835h -6.80315" fill="none" stroke="black" stroke-width="2"/>
<path d="M63.9961,71.946h -6.80315" fill="none" stroke="black" stroke-width="2"/>
<path d="M63.9961,61.3085h -6.80315" fill="none" stroke="black" stroke-width="2"/>
<path d="M63.9961,50.671h -6.80315" fill="none" stroke="black" stroke-width="2"/>
<path d="M70.7992,40.0335h -13.6063" fill="none" stroke="black" stroke-width="2"/>
<path d="M70.7992,40.0335h -13.6063" fill="none" stroke="black" stroke-width="2"/>
<text x="47.0319" y="310.529" fill="black" font-size="11.4164" font-family="Helvetica">
0
</text>
<text x="34.6867" y="257.35" fill="black" font-size="11.4164" font-family="Helvetica">
100
</text>
<text x="34.6867" y="204.17" fill="black" font-size="11.4164" font-family="Helvetica">
200
</text>
<text x="34.6867" y="150.991" fill="black" font-size="11.4164" font-family="Helvetica">
300
</text>
<text x="34.6867" y="97.8119" fill="black" font-size="11.4164" font-family="Helvetica">
400
</text>
<text x="34.6867" y="44.6326" fill="black" font-size="11.4164" font-family="Helvetica">
500
</text>
<rect x="119.431" y="152.269" width="204.299" height="122.117" fill="white"/>
<path d="M119.431,274.386h 204.299" fill="none" stroke="black" stroke-width="2"/>
<path d="M323.73,274.386v -122.117" fill="none" stroke="black" stroke-width="2"/>
<path d="M323.73,152.269h -204.299" fill="none" stroke="black" stroke-width="2"/>
<path d="M119.431,152.269v 122.117" fill="none" stroke="black" stroke-width="2"/>
<text x="140.096" y="163.336" fill="black" font-size="11.7939" font-family="Helvetica">
 / ndf 
</text>
<text x="135.347" y="159.538" fill="black" font-size="8.02929" font-family="Helvetica">
2
</text>
<text x="128.7" y="163.336" fill="black" font-size="11.7939" font-family="Times">
&#0967;
</text>
<text x="254.051" y="164.286" fill="black" font-size="11.7939" font-family="Helvetica">
 228.9 / 253
</text>
<text x="128.7" y="179.48" fill="black" font-size="11.7939" font-family="Helvetica">
1-Centroid 
</text>
<text x="294.885" y="179.48" fill="black" font-size="11.7939" font-family="Helvetica">
 1.3
</text>
<text x="288.238" y="179.48" fill="black" font-size="11.7939" font-family="Times">
&#0177;
</text>
<text x="254.051" y="179.48" fill="black" font-size="11.7939" font-family="Helvetica">
 851.3 
</text>
<text x="128.7" y="194.674" fill="black" font-size="11.7939" font-family="Helvetica">
1-FWHM   
</text>
<text x="288.238" y="194.674" fill="black" font-size="11.7939" font-family="Helvetica">
 1.98
</text>
<text x="281.59" y="194.674" fill="black" font-size="11.7939" font-family="Times">
&#0177;
</text>
<text x="249.303" y="194.674" fill="black" font-size="11.7939" font-family="Helvetica">
 90.71 
</text>
<text x="128.7" y="209.868" fill="black" font-size="11.7939" font-family="Helvetica">
1-Counts 
</text>
<text x="256.9" y="209.868" fill="black" font-size="11.7939" font-family="Helvetica">
 1.772e+03
</text>
<text x="250.253" y="209.868" fill="black" font-size="11.7939" font-family="Times">
&#0177;
</text>
<text x="191.376" y="209.868" fill="black" font-size="11.7939" font-family="Helvetica">
 2.854e+04 
</text>
<text x="128.7" y="225.062" fill="black" font-size="11.7939" font-family="Helvetica">
2-Centroid 
</text>
<text x="294.885" y="225.062" fill="black" font-size="11.7939" font-family="Helvetica">
 0.7
</text>
<text x="288.238" y="225.062" fill="black" font-size="11.7939" font-family="Times">
&#0177;
</text>
<text x="254.051" y="225.062" fill="black" font-size="11.7939" font-family="Helvetica">
 962.9 
</text>
<text x="128.7" y="240.256" fill="black" font-size="11.7939" font-family="Helvetica">
2-Counts 
</text>
<text x="256.9" y="240.256" fill="black" font-size="11.7939" font-family="Helvetica">
 1.371e+03
</text>
<text x="250.253" y="240.256" fill="black" font-size="11.7939" font-family="Times">
&#0177;
</text>
<text x="191.376" y="240.256" fill="black" font-size="11.7939" font-family="Helvetica">
 3.003e+04 
</text>
<text x="128.7" y="254.501" fill="black" font-size="11.7939" font-family="Helvetica">
Intercept 
</text>
<text x="288.238" y="255.45" fill="black" font-size="11.7939" font-family="Helvetica">
 57.7
</text>
<text x="281.59" y="255.45" fill="black" font-size="11.7939" font-family="Times">
&#0177;
</text>
<text x="247.404" y="255.45" fill="black" font-size="11.7939" font-family="Helvetica">
 704.2 
</text>
<text x="128.7" y="269.695" fill="black" font-size="11.7939" font-family="Helvetica">
Slope    
</text>
<text x="275.893" y="270.645" fill="black" font-size="11.7939" font-family="Helvetica">
 0.0527
</text>
<text x="269.245" y="270.645" fill="black" font-size="11.7939" font-family="Times">
&#0177;
</text>
<text x="234.109" y="270.645" fill="black" font-size="11.7939" font-family="Helvetica">
0.6391 
</text>
<text x="227.462" y="270.645" fill="black" font-size="11.7939" font-family="Times">
&#8722;
</text>
<text x="224.613" y="270.645" fill="black" font-size="11.7939" font-family="Helvetica">
 
</text>
<path d="M59.4606,259.058l 4.53543, -5.05821l 4.53543, -5.34295l 4.53543, -5.60611l 4.53543, -5.84177l 4.53543, -6.04397l 4.53543, -6.20681l 4.53543, -6.32464l 4.53543, -6.39217l 4.53543, -6.40465l 4.53543, -6.35801l 4.53543, -6.24903l 4.53543,
 -6.07541l 4.53543, -5.83594l 4.53543, -5.53059l 4.53543, -5.1605l 4.53543, -4.72809l 4.53543, -4.23702l 4.53543, -3.69215l 4.53543, -3.09949l 4.53543, -2.46606l 4.53543, -1.79979l 4.53543, -1.10931l 4.53543, -0.403829l 4.53543, 0.307136l 4.53543,
 1.01393l 4.53543, 1.707l 4.53543, 2.37709l 4.53543, 3.01548l 4.53543, 3.61412l 4.53543, 4.16587l 4.53543, 4.66458l 4.53543, 5.10522l 4.53543, 5.48396l 4.53543, 5.79823l 4.53543, 6.04669l 4.53543, 6.22923l 4.53543, 6.3469l 4.53543, 6.40186l 4.53543,
 6.3972l 4.53543, 6.3369l 4.53543, 6.22562l 4.53543, 6.06858l 4.53543, 5.8714l 4.53543, 5.63995l 4.53543, 5.38018l 4.53543, 5.09803l 4.53543, 4.79927l 4.53543, 4.48937l 4.53543, 4.17348" fill="none" stroke="#00ff00" stroke-width="2"/>
<path d="M281.697,271.849l 4.53543, 3.85628l 4.53543, 3.542l 4.53543, 3.2343l 4.53543, 2.93633l 4.53543, 2.65069l 4.53543, 2.37943l 4.53543, 2.12411l 4.53543, 1.88582l 4.53543, 1.66519l 4.53543, 1.46248l 4.53543, 1.27762l 4.53543, 1.11024l 4.53543,
 0.959736l 4.53543, 0.825321l 4.53543, 0.706065l 4.53543, 0.60094l 4.53543, 0.508856l 4.53543, 0.428694l 4.53543, 0.359335l 4.53543, 0.299683l 4.53543, 0.248682l 4.53543, 0.205332l 4.53543, 0.168696l 4.53543, 0.137911l 4.53543, 0.112188l 4.53543,
 0.0908136l 4.53543, 0.0731514l 4.53543, 0.0586363l 4.53543, 0.0467723l 4.53543, 0.0371274l 4.53543, 0.0293285l 4.53543, 0.0230557l 4.53543, 0.018037l 4.53543, 0.0140429l 4.53543, 0.0108806l 4.53543, 0.0344909h 58.9606" fill="none" stroke="#00ff00"
 stroke-width="2"/>
<path d="M503.933,305.971h 4.53543" fill="none" stroke="#00ff00" stroke-width="2"/>
<path d="M59.4606,305.971l 4.53543, -0.0325171l 4.53543, -0.00959987l 4.53543, -0.0122156l 4.53543, -0.015478l 4.53543, -0.0195283l 4.53543, -0.0245333l 4.53543, -0.0306893l 4.53543, -0.0382256l 4.53543, -0.0474081l 4.53543, -0.0585434l 4.53543,
 -0.0719823l 4.53543, -0.0881234l 4.53543, -0.107416l 4.53543, -0.130363l 4.53543, -0.157521l 4.53543, -0.189504l 4.53543, -0.226979l 4.53543, -0.270667l 4.53543, -0.321334l 4.53543, -0.379792l 4.53543, -0.446881l 4.53543, -0.523463l 4.53543,
 -0.610408l 4.53543, -0.708569l 4.53543, -0.818771l 4.53543, -0.941779l 4.53543, -1.07827l 4.53543, -1.22882l 4.53543, -1.39384l 4.53543, -1.57358l 4.53543, -1.76805l 4.53543, -1.97704l 4.53543, -2.20003l 4.53543, -2.43619l 4.53543, -2.68438l
 4.53543, -2.94303l 4.53543, -3.21024l 4.53543, -3.48368l 4.53543, -3.76065l 4.53543, -4.03804l 4.53543, -4.31238l 4.53543, -4.57987l 4.53543, -4.83641l 4.53543, -5.07766l 4.53543, -5.29912l 4.53543, -5.49617l 4.53543, -5.66421l 4.53543, -5.79872l
 4.53543, -5.89537" fill="none" stroke="#00ff00" stroke-width="2"/>
<path d="M281.697,218.953l 4.53543, -5.95012l 4.53543, -5.95935l 4.53543, -5.91993l 4.53543, -5.82934l 4.53543, -5.68574l 4.53543, -5.48806l 4.53543, -5.23609l 4.53543, -4.93047l 4.53543, -4.57275l 4.53543, -4.16539l 4.53543, -3.71175l 4.53543,
 -3.21603l 4.53543, -2.68325l 4.53543, -2.11911l 4.53543, -1.52992l 4.53543, -0.922522l 4.53543, -0.304073l 4.53543, 0.318026l 4.53543, 0.936308l 4.53543, 1.54338l 4.53543, 2.13207l 4.53543, 2.69558l 4.53543, 3.22759l 4.53543, 3.72241l 4.53543,
 4.17505l 4.53543, 4.58133l 4.53543, 4.93791l 4.53543, 5.24234l 4.53543, 5.4931l 4.53543, 5.68955l 4.53543, 5.83195l 4.53543, 5.92137l 4.53543, 5.95967l 4.53543, 5.94938l 4.53543, 5.89364l 4.53543, 5.7961l 4.53543, 5.66079l 4.53543, 5.49205l 4.53543,
 5.2944l 4.53543, 5.07245l 4.53543, 4.83081l 4.53543, 4.57397l 4.53543, 4.30628l 4.53543, 4.03183l 4.53543, 3.75441l 4.53543, 3.47749l 4.53543, 3.20416l 4.53543, 2.93712l 4.53543, 2.67868" fill="none" stroke="#00ff00" stroke-width="2"/>
<path d="M503.933,286.09l 4.53543, 2.43076" fill="none" stroke="#00ff00" stroke-width="2"/>
<text x="99.2615" y="17.0933" fill="black" font-size="14.4675" font-family="Helvetica">
Wk4/Calibration/Det_B_44Ti_67_78_peaks_calibraton.Spe
</text></svg>
