<?xml version="1.0" standalone="no"?>
<svg width="567.429" height="329.789" viewBox="0 0 567.429 329.789" xmlns="http://www.w3.org/2000/svg">
<title>
/home/ADF/hyw543/Coincidence/c1.svg
</title>
<desc>
Creator: ROOT Version 6.06/08
CreationDate: Mon Jan  7 20:21:58 2019</desc>
<defs>
</defs>
<rect x="0.5" y="0" width="566.929" height="329.289" fill="white"/>
<rect x="57.1929" y="32.9289" width="453.543" height="263.431" fill="white"/>
<rect x="57.1929" y="32.9289" width="453.543" height="263.431" fill="none" stroke="black"/>
<rect x="57.1929" y="32.9289" width="453.543" height="263.431" fill="white"/>
<rect x="57.1929" y="32.9289" width="453.543" height="263.431" fill="none" stroke="black"/>
<path d="M57.1929,296.36h 17.0522v -0.214433h 0.221457v 0.214433h 4.87205v -0.214433h 0.221457v 0.214433h 2.21457v -0.214433h 0.221457v 0.214433h 6.6437v -0.214433h 0.221457v 0.214433h 3.10039v -0.214433h 0.221457v 0.214433h 0.442913v -0.214433h
 0.221457v 0.214433h 9.30118v -0.214433h 0.221457v 0.214433h 0.221457v -0.428867h 0.221457v 0.428867h 0.221457v -0.214433h 0.221457v 0.214433h 1.77165v -0.214433h 0.221457v 0.214433h 1.32874v -0.214433h 0.221457v 0.214433h 0.221457v -0.214433h
 0.442913v 0.214433h 1.77165v -0.214433h 0.221457v -0.214433h 0.221457v 0.428867h 0.885827v -0.214433h 0.221457v 0.214433h 0.221457v -0.6433h 0.221457v 0.6433h 0.885827v -0.214433h 0.221457v 0.214433h 0.66437v -0.214433h 0.221457v 0.214433h 0.221457v
 -0.214433h 0.442913v 0.214433h 0.221457v -0.428867h 0.221457v 0.428867h 0.66437v -0.214433h 0.221457v 0.214433h 0.66437v -0.214433h 0.221457v 0.214433h 0.66437v -0.428867h 0.221457v 0.428867h 0.442913v -0.214433h 0.221457v 0.214433h 0.221457v
 -0.214433h 0.442913v -0.214433h 0.221457v 0.214433h 0.221457v -0.214433h 0.221457v 0.428867h 0.442913v -0.214433h 0.442913v -0.428867h 0.221457v 0.214433h 0.66437v 0.214433h 0.442913v -0.214433h 0.442913v 0.214433h 0.221457v -0.214433h 0.221457v
 0.214433h 0.221457v -0.428867h 0.221457v 0.6433h 0.221457v -0.6433h 0.221457v 0.214433h 0.221457v -0.214433h 0.221457v 0.214433h 0.442913v 0.214433h 0.221457v -0.6433h 0.221457v 0.428867h 0.221457v -1.50103h 0.221457v 1.50103h 0.442913v -0.214433h
 0.221457v -0.214433h 0.221457v -0.214433h 0.221457v 0.857734h 0.442913v -0.214433h 0.221457v -0.428867h 0.885827v 0.6433h 0.221457v -1.07217h 0.442913v 0.214433h 0.221457v -0.857734h 0.221457v 0.857734h 0.221457v 0.428867h 0.221457v 0.214433h
 0.221457v -0.214433h 0.221457v -1.07217h 0.221457v 0.214433h 0.221457v -0.214433h 0.442913v 1.07217h 0.221457v -0.428867h 0.442913v -0.214433h 0.221457v 0.857734h 0.221457v -1.07217h 0.221457v 0.214433h 0.221457v -0.6433h 0.221457v 0.428867h
 0.221457v -0.214433h 0.221457v 0.428867h 0.221457v -0.214433h 0.442913v -0.214433h 0.221457v 0.214433h 0.221457v 0.214433h 0.221457v -0.214433h 0.221457v -1.07217h 0.221457v -0.428867h 0.221457v 1.07217h 0.66437v 0.857734h 0.221457v -2.5732h
 0.221457v 2.5732h 0.221457v -1.07217h 0.221457v -0.428867h 0.442913v -0.857734h 0.442913v -1.07217h 0.221457v 3.2165h 0.221457v -1.71547h 0.221457v -0.6433h 0.221457v 0.428867h 0.221457v -1.07217h 0.221457v 1.71547h 0.221457v -0.6433h 0.221457v
 0.6433h 0.221457v -1.07217h 0.221457v 0.857734h 0.221457v -0.214433h 0.221457v -0.428867h 0.221457v 1.50103h 0.221457v -1.50103h 0.221457v -0.214433h 0.221457v 0.214433h 0.221457v 0.6433h 0.221457v -0.857734h 0.221457v -0.428867h 0.442913v 1.71547h
 0.221457v -1.71547h 0.221457v 0.6433h 0.221457v -0.6433h 0.221457v -1.07217h 0.221457v 0.214433h 0.221457v -1.71547h 0.221457v 2.35877h 0.221457v -0.6433h 0.221457v -2.14433h 0.221457v 1.9299h 0.221457v 0.428867h 0.221457v 1.71547h 0.221457v
 -1.9299h 0.221457v -1.50103h 0.221457v 1.50103h 0.221457v -1.9299h 0.221457v 1.9299h 0.221457v -1.2866h 0.221457v -0.428867h 0.221457v -0.428867h 0.221457v 0.428867h 0.221457v 0.6433h 0.221457v -2.5732h 0.221457v 2.14433h 0.221457v 1.2866h 0.221457v
 0.857734h 0.221457v -1.71547h 0.221457v -1.71547h 0.221457v -0.214433h 0.221457v 1.2866h 0.221457v -1.71547h 0.221457v 3.64537h 0.221457v -3.43093h 0.221457v 0.428867h 0.221457v 3.00207h 0.221457v -4.93197h 0.221457v 1.07217h 0.221457v -0.214433h
 0.221457v -0.214433h 0.221457v -1.50103h 0.221457v 2.14433h 0.221457v -2.5732h 0.221457v 5.1464h 0.221457v -1.71547h 0.221457v 0.428867h 0.221457v -3.43093h 0.221457v 0.214433h 0.221457v 2.14433h 0.221457v -5.36084h 0.221457v 1.9299h 0.221457v
 2.5732h 0.221457v -3.64537h 0.221457v -2.14433h 0.221457v 3.64537h 0.221457v 0.6433h 0.221457v -1.9299h 0.221457v 1.71547h 0.221457v -0.6433h 0.442913v 0.214433h 0.221457v -3.43093h 0.221457v 4.07423h 0.221457v -3.43093h 0.221457v 0.214433h
 0.221457v -0.428867h 0.221457v 0.214433h 0.221457v 2.35877h 0.221457v -5.57527h 0.221457v 3.00207h 0.221457v -1.9299h 0.221457v 1.50103h 0.221457v -2.35877h 0.221457v -3.00207h 0.221457v 3.00207h 0.221457v -1.9299h 0.221457v 1.07217h 0.221457v
 -0.214433h 0.221457v -1.07217h 0.221457v 6.86187h 0.221457v -6.21857h 0.221457v -2.5732h 0.221457v 3.2165h 0.221457v -3.2165h 0.221457v -0.857734h 0.221457v 0.857734h 0.221457v 2.78763h 0.221457v -0.214433h 0.221457v -3.43093h 0.221457v 4.93197h
 0.221457v -3.2165h 0.221457v -2.78763h 0.221457v -1.07217h 0.221457v 1.07217h 0.221457v 0.857734h 0.221457v -3.2165h 0.221457v 1.71547h 0.221457v -1.9299h 0.221457v 1.50103h 0.221457v -1.9299h 0.221457v 2.5732h 0.221457v -2.35877h 0.221457v -1.2866h
 0.221457v 4.71754h 0.221457v -4.28867h 0.221457v -1.07217h 0.221457v -5.1464h 0.221457v 2.78763h 0.221457v -3.8598h 0.221457v 7.50517h 0.221457v -6.21857h 0.221457v 8.14847h 0.221457v -5.57527h 0.221457v -2.78763h 0.221457v -0.214433h 0.221457v
 0.6433h 0.221457v -2.5732h 0.221457v -1.71547h 0.221457v 3.00207h 0.221457v -1.50103h 0.221457v 0.857734h 0.221457v -0.857734h 0.221457v 0.6433h 0.221457v -1.07217h 0.221457v -1.2866h 0.221457v -6.433h 0.221457v 7.50517h 0.221457v 1.9299h 0.221457v
 -8.14847h 0.221457v 1.71547h 0.221457v -0.857734h 0.221457v -5.57527h 0.221457v 7.0763h 0.221457v -4.28867h 0.221457v -1.50103h 0.221457v -3.64537h 0.221457v 7.50517h 0.221457v 0.214433h 0.221457v -3.2165h 0.221457v -6.64744h 0.221457v 8.57734h
 0.221457v -7.50517h 0.221457v -2.5732h 0.221457v -1.9299h 0.221457v 8.3629h 0.221457v -5.7897h 0.442913v 1.50103h 0.221457v -5.1464h 0.221457v 0.857734h 0.221457v -4.07423h 0.221457v 3.64537h 0.221457v -1.07217h 0.221457v 2.35877h 0.221457v
 -1.50103h 0.221457v -3.8598h 0.221457v 0.428867h 0.221457v -3.2165h 0.221457v 0.214433h 0.221457v -6.00414h 0.221457v 4.93197h 0.221457v -2.5732h 0.221457v 4.5031h 0.221457v -1.2866h 0.221457v -10.7217h 0.221457v 8.79177h 0.221457v -6.21857h
 0.221457v -0.428867h 0.221457v 0.428867h 0.221457v 3.2165h 0.221457v -4.5031h 0.221457v 3.00207h 0.221457v -3.8598h 0.221457v -0.6433h 0.221457v -0.214433h 0.221457v -4.07423h 0.221457v -0.214433h 0.221457v -6.86187h 0.221457v 6.21857h 0.221457v
 -8.57734h 0.221457v 2.78763h 0.221457v 3.64537h 0.221457v -4.28867h 0.221457v -3.8598h 0.221457v 6.64744h 0.221457v -13.0804h 0.221457v 1.50103h 0.221457v 2.5732h 0.221457v -2.14433h 0.221457v 2.78763h 0.221457v -1.07217h 0.221457v -1.50103h
 0.221457v -1.9299h 0.221457v -3.64537h 0.221457v 3.2165h 0.221457v -4.93197h 0.221457v 1.50103h 0.221457v -3.43093h 0.221457v -6.64744h 0.221457v 9.22064h 0.221457v -2.5732h 0.221457v -8.57734h 0.221457v 11.7938h 0.221457v -10.7217h 0.221457v
 2.78763h 0.221457v 2.78763h 0.221457v -9.86394h 0.221457v 5.1464h 0.221457v 0.857734h 0.221457v -7.0763h 0.221457v -0.214433h 0.221457v 5.7897h 0.221457v -8.3629h 0.221457v -2.14433h 0.221457v -3.43093h 0.221457v -5.57527h 0.221457v 4.71754h
 0.221457v 4.93197h 0.221457v -13.2949h 0.221457v 9.43507h 0.221457v -0.214433h 0.221457v -2.14433h 0.221457v -5.36084h 0.221457v -1.07217h 0.221457v 5.1464h 0.221457v -3.43093h 0.221457v 3.2165h 0.221457v -13.0804h 0.442913v 7.50517h 0.221457v
 -6.21857h 0.221457v -0.6433h 0.221457v -4.07423h 0.221457v 5.36084h 0.221457v -6.86187h 0.442913v 0.6433h 0.221457v -10.0784h 0.221457v 6.64744h 0.221457v -1.9299h 0.221457v -0.214433h 0.221457v 9.22064h 0.221457v -19.5134h 0.221457v -8.57734h
 0.221457v 12.4371h 0.221457v -0.857734h 0.221457v -0.857734h 0.221457v -2.35877h 0.221457v -0.6433h 0.221457v 4.93197h 0.221457v 1.50103h 0.221457v -10.9361h 0.221457v 3.43093h 0.221457v -13.2949h 0.221457v -0.6433h 0.221457v 4.28867h 0.221457v
 12.6516h 0.221457v -16.0825h 0.221457v 6.86187h 0.221457v -4.93197h 0.221457v -5.36084h 0.221457v 3.2165h 0.221457v 7.29074h 0.221457v -11.365h 0.221457v -6.86187h 0.221457v 13.2949h 0.221457v -7.29074h 0.221457v -3.43093h 0.221457v 0.428867h
 0.442913v -13.5093h 0.221457v 14.1526h 0.221457v -10.2928h 0.221457v 1.71547h 0.221457v -1.07217h 0.221457v -7.29074h 0.221457v 15.2248h 0.221457v 0.857734h 0.221457v -4.93197h 0.221457v -12.6516h 0.221457v 9.6495h 0.221457v -7.50517h 0.221457v
 3.2165h 0.221457v -11.7938h 0.221457v 13.7237h 0.442913v -2.5732h 0.221457v -13.2949h 0.221457v 9.43507h 0.221457v -11.1505h 0.221457v 1.71547h 0.221457v 8.57734h 0.442913v -9.86394h 0.221457v -7.50517h 0.221457v 19.7279h 0.221457v -13.5093h
 0.221457v -5.36084h 0.221457v 10.2928h 0.221457v -3.00207h 0.221457v -8.3629h 0.221457v -2.5732h 0.221457v -4.07423h 0.221457v 9.86394h 0.221457v 6.433h 0.221457v -13.9382h 0.221457v 13.2949h 0.221457v -2.35877h 0.221457v -9.86394h 0.221457v
 -4.5031h 0.221457v 13.2949h 0.221457v -1.71547h 0.221457v -4.28867h 0.221457v 2.78763h 0.221457v -21.4433h 0.221457v 12.6516h 0.221457v 6.21857h 0.221457v -7.0763h 0.221457v 0.857734h 0.221457v 3.2165h 0.221457v -16.9402h 0.221457v 24.4454h
 0.221457v -13.0804h 0.221457v 4.28867h 0.221457v -11.365h 0.221457v 2.78763h 0.221457v -0.214433h 0.221457v -0.214433h 0.221457v 8.14847h 0.221457v -9.86394h 0.221457v 12.2227h 0.221457v -16.9402h 0.221457v -1.2866h 0.221457v 1.07217h 0.221457v
 10.7217h 0.221457v -1.2866h 0.221457v -11.5794h 0.221457v 14.5815h 0.221457v -21.2289h 0.221457v 5.1464h 0.221457v 14.367h 0.221457v -4.93197h 0.221457v -3.43093h 0.221457v 4.28867h 0.221457v -11.1505h 0.221457v 18.4413h 0.221457v -5.36084h
 0.221457v -17.798h 0.221457v 5.57527h 0.221457v 7.50517h 0.221457v -2.78763h 0.221457v 0.214433h 0.221457v 10.2928h 0.221457v -12.0083h 0.221457v 13.9382h 0.221457v -0.857734h 0.221457v 9.6495h 0.221457v -16.2969h 0.221457v -6.64744h 0.221457v
 3.8598h 0.221457v -15.0103h 0.221457v 5.57527h 0.221457v 8.79177h 0.221457v 4.07423h 0.221457v -9.22064h 0.221457v 12.6516h 0.221457v -2.35877h 0.221457v 1.07217h 0.221457v 6.00414h 0.221457v -7.50517h 0.221457v 6.86187h 0.221457v -1.07217h
 0.221457v -4.07423h 0.221457v 9.86394h 0.221457v -9.22064h 0.221457v 4.93197h 0.221457v -15.6536h 0.221457v 10.7217h 0.221457v 0.857734h 0.221457v 5.1464h 0.221457v 4.93197h 0.221457v -7.93404h 0.221457v -1.71547h 0.221457v -0.428867h 0.221457v
 1.9299h 0.221457v 2.5732h 0.221457v -7.50517h 0.221457v 12.866h 0.221457v 6.21857h 0.221457v -13.2949h 0.221457v 3.2165h 0.221457v -4.93197h 0.221457v 12.6516h 0.221457v -6.433h 0.221457v 1.50103h 0.221457v 5.36084h 0.221457v -9.43507h 0.221457v
 6.21857h 0.221457v 6.86187h 0.221457v -3.2165h 0.221457v -4.93197h 0.221457v 11.5794h 0.221457v -11.365h 0.221457v -4.28867h 0.221457v 9.22064h 0.221457v 15.2248h 0.221457v -10.2928h 0.221457v -3.8598h 0.221457v 2.35877h 0.221457v 6.64744h 0.221457v
 -1.2866h 0.221457v -2.78763h 0.221457v -7.7196h 0.221457v 9.22064h 0.221457v 21.0145h 0.221457v -16.9402h 0.221457v 5.36084h 0.221457v -2.14433h 0.221457v 5.36084h 0.221457v -2.5732h 0.221457v 12.0083h 0.221457v -16.9402h 0.221457v -13.0804h
 0.221457v 15.8681h 0.221457v 10.2928h 0.221457v -12.6516h 0.221457v 7.50517h 0.221457v -6.433h 0.221457v 2.5732h 0.221457v 4.5031h 0.221457v 13.7237h 0.221457v -2.78763h 0.221457v -17.798h 0.221457v 7.50517h 0.221457v 14.7959h 0.221457v -14.5815h
 0.221457v 9.43507h 0.221457v 3.8598h 0.221457v -5.7897h 0.221457v -1.71547h 0.221457v 19.0846h 0.221457v -1.50103h 0.221457v -15.0103h 0.221457v 2.14433h 0.221457v 4.5031h 0.221457v 0.428867h 0.221457v 17.5835h 0.221457v -9.0062h 0.221457v 0.214433h
 0.221457v 0.214433h 0.221457v -5.1464h 0.221457v 16.9402h 0.221457v -2.35877h 0.221457v -5.36084h 0.221457v -1.07217h 0.221457v -3.2165h 0.221457v -1.2866h 0.221457v 17.1547h 0.221457v -1.2866h 0.221457v -1.2866h 0.221457v 1.71547h 0.221457v
 10.5072h 0.221457v -11.1505h 0.221457v 7.93404h 0.221457v -3.8598h 0.221457v 1.71547h 0.221457v 2.78763h 0.221457v -4.07423h 0.221457v 4.71754h 0.221457v 2.5732h 0.221457v -3.8598h 0.221457v 16.9402h 0.221457v -14.367h 0.221457v 0.428867h 0.221457v
 3.00207h 0.221457v 6.64744h 0.221457v -0.857734h 0.221457v -2.35877h 0.221457v -0.857734h 0.221457v 12.0083h 0.221457v -9.86394h 0.221457v 9.0062h 0.221457v -5.57527h 0.221457v 3.8598h 0.221457v 1.50103h 0.221457v -2.78763h 0.221457v 4.71754h
 0.221457v -2.14433h 0.221457v 10.0784h 0.221457v -6.21857h 0.221457v 14.1526h 0.221457v -9.86394h 0.221457v 7.50517h 0.221457v -1.2866h 0.221457v -12.4371h 0.221457v 3.8598h 0.221457v 2.35877h 0.221457v -4.28867h 0.221457v 16.9402h 0.221457v
 -7.50517h 0.221457v 7.0763h 0.221457v -7.29074h 0.221457v 3.8598h 0.221457v 4.07423h 0.221457v -3.43093h 0.221457v -1.9299h 0.221457v 6.00414h 0.221457v -6.64744h 0.221457v 17.5835h 0.221457v -6.21857h 0.221457v -0.857734h 0.221457v 8.79177h
 0.221457v -5.1464h 0.221457v 2.35877h 0.221457v -5.57527h 0.221457v 9.86394h 0.221457v 5.36084h 0.221457v -2.14433h 0.221457v -1.9299h 0.221457v -1.07217h 0.221457v 2.14433h 0.221457v -1.07217h 0.221457v 8.57734h 0.221457v -14.367h 0.221457v 4.5031h
 0.221457v 1.71547h 0.221457v 6.64744h 0.221457v 3.00207h 0.221457v -6.21857h 0.221457v 6.86187h 0.221457v -3.8598h 0.221457v 1.71547h 0.221457v 4.71754h 0.221457v -1.50103h 0.221457v 2.35877h 0.221457v 1.07217h 0.221457v -2.5732h 0.221457v 2.35877h
 0.221457v 7.50517h 0.221457v -4.28867h 0.221457v -1.9299h 0.221457v -3.00207h 0.221457v 9.6495h 0.221457v -0.6433h 0.221457v -1.9299h 0.221457v 6.86187h 0.221457v -4.07423h 0.221457v -1.50103h 0.221457v 5.1464h 0.221457v -3.8598h 0.221457v 6.86187h
 0.221457v 2.14433h 0.221457v -8.57734h 0.221457v 4.71754h 0.221457v 5.1464h 0.221457v -3.00207h 0.221457v -3.43093h 0.221457v 4.28867h 0.221457v -2.78763h 0.221457v 4.93197h 0.221457v 4.5031h 0.221457v -5.1464h 0.221457v 3.64537h 0.221457v 1.9299h
 0.221457v -3.43093h 0.221457v 1.50103h 0.221457v -4.71754h 0.221457v 4.5031h 0.221457v 0.214433h 0.221457v 5.1464h 0.221457v 1.9299h 0.221457v -5.36084h 0.221457v 1.07217h 0.221457v 9.43507h 0.221457v -4.28867h 0.221457v 1.9299h 0.221457v -3.2165h
 0.221457v 1.2866h 0.221457v 2.14433h 0.221457v -9.43507h 0.221457v 7.29074h 0.221457v 3.43093h 0.221457v 0.6433h 0.221457v 0.6433h 0.221457v 1.71547h 0.221457v -4.07423h 0.221457v 6.86187h 0.221457v -4.93197h 0.221457v 1.07217h 0.221457v -1.2866h
 0.221457v 4.28867h 0.221457v 1.71547h 0.221457v -1.50103h 0.221457v 4.71754h 0.221457v -5.7897h 0.221457v 3.64537h 0.221457v -0.214433h 0.221457v -0.214433h 0.221457v -0.6433h 0.221457v 0.428867h 0.221457v 0.857734h 0.221457v -0.6433h 0.221457v
 -3.43093h 0.221457v 10.2928h 0.221457v -3.64537h 0.221457v -4.71754h 0.221457v 4.71754h 0.221457v 2.14433h 0.221457v -7.29074h 0.221457v 3.43093h 0.221457v 0.6433h 0.221457v 4.28867h 0.221457v -1.9299h 0.221457v 3.43093h 0.221457v -4.5031h 0.221457v
 1.71547h 0.221457v 6.00414h 0.221457v -1.71547h 0.221457v -4.93197h 0.221457v 1.9299h 0.221457v 0.857734h 0.221457v 1.71547h 0.221457v 3.8598h 0.221457v -2.78763h 0.221457v 1.9299h 0.221457v -3.64537h 0.221457v 3.64537h 0.221457v -2.78763h 0.221457v
 3.00207h 0.221457v 1.2866h 0.221457v 0.857734h 0.221457v 1.2866h 0.221457v -1.07217h 0.221457v 1.2866h 0.221457v 0.857734h 0.221457v -2.5732h 0.221457v -4.28867h 0.221457v 2.5732h 0.221457v 0.428867h 0.221457v -0.857734h 0.221457v -1.9299h 0.221457v
 7.29074h 0.221457v -1.9299h 0.221457v 1.07217h 0.221457v -2.5732h 0.221457v 2.14433h 0.221457v -0.214433h 0.221457v 4.5031h 0.221457v -3.64537h 0.221457v 1.07217h 0.221457v 1.50103h 0.221457v -1.07217h 0.221457v 2.35877h 0.221457v -1.50103h
 0.221457v 0.857734h 0.221457v -2.35877h 0.221457v 0.428867h 0.221457v 4.5031h 0.221457v -7.0763h 0.221457v 3.2165h 0.442913v -1.07217h 0.221457v 1.9299h 0.221457v -3.43093h 0.221457v 3.43093h 0.221457v 1.07217h 0.221457v -1.07217h 0.221457v
 0.214433h 0.221457v -1.71547h 0.221457v 4.07423h 0.221457v 1.50103h 0.221457v -2.14433h 0.221457v 2.35877h 0.442913v -0.6433h 0.221457v -4.28867h 0.221457v 3.2165h 0.221457v 0.214433h 0.221457v -0.857734h 0.442913v 0.857734h 0.221457v -0.214433h
 0.221457v 1.71547h 0.221457v 1.9299h 0.221457v -3.00207h 0.221457v 2.14433h 0.221457v -0.428867h 0.221457v -0.857734h 0.221457v 0.6433h 0.221457v -1.50103h 0.221457v 1.9299h 0.221457v 3.64537h 0.221457v -2.5732h 0.221457v -2.14433h 0.221457v 2.5732h
 0.221457v 0.6433h 0.221457v -2.14433h 0.221457v -1.07217h 0.221457v 1.2866h 0.221457v 1.50103h 0.221457v -0.6433h 0.221457v 0.214433h 0.221457v 0.214433h 0.221457v 0.857734h 0.221457v 0.428867h 0.221457v -3.00207h 0.221457v 1.71547h 0.221457v
 0.857734h 0.221457v 0.214433h 0.221457v 0.6433h 0.221457v -1.50103h 0.221457v 2.14433h 0.221457v -0.857734h 0.221457v -2.35877h 0.221457v -0.857734h 0.221457v 3.43093h 0.221457v -0.214433h 0.442913v 0.6433h 0.221457v 0.6433h 0.221457v 0.857734h
 0.221457v -1.71547h 0.221457v -1.50103h 0.221457v 0.6433h 0.221457v -1.2866h 0.221457v 2.78763h 0.221457v 0.428867h 0.221457v -0.214433h 0.221457v -0.214433h 0.221457v 1.50103h 0.221457v -2.35877h 0.221457v -0.6433h 0.221457v 1.50103h 0.221457v
 0.857734h 0.221457v -2.35877h 0.221457v 2.14433h 0.221457v -1.2866h 0.221457v 1.9299h 0.221457v 0.6433h 0.221457v -3.00207h 0.221457v 3.2165h 0.221457v -0.6433h 0.221457v -1.50103h 0.221457v 1.07217h 0.221457v 1.07217h 0.221457v -2.78763h 0.221457v
 3.43093h 0.221457v -1.2866h 0.221457v -1.07217h 0.221457v 0.6433h 0.442913v 1.50103h 0.221457v -2.35877h 0.221457v 0.214433h 0.221457v -0.428867h 0.221457v 1.2866h 0.221457v -0.214433h 0.221457v 0.6433h 0.221457v -0.214433h 0.221457v 1.07217h
 0.221457v -1.50103h 0.221457v 0.428867h 0.442913v -1.71547h 0.221457v 1.50103h 0.442913v 0.857734h 0.221457v 0.428867h 0.221457v -0.214433h 0.221457v -0.428867h 0.221457v -0.428867h 0.221457v 1.50103h 0.221457v -1.07217h 0.221457v -1.71547h
 0.221457v 1.9299h 0.221457v -0.214433h 0.442913v 0.428867h 0.221457v 1.07217h 0.221457v -1.50103h 0.221457v 1.9299h 0.221457v -1.71547h 0.221457v 0.428867h 0.221457v -0.6433h 0.442913v 1.50103h 0.221457v -1.71547h 0.221457v 0.6433h 0.221457v
 -1.07217h 0.221457v 0.6433h 0.221457v 2.14433h 0.221457v -2.14433h 0.221457v -0.428867h 0.221457v -0.428867h 0.221457v 0.857734h 0.221457v 1.2866h 0.221457v 0.6433h 0.221457v -1.71547h 0.221457v 0.428867h 0.221457v 0.214433h 0.221457v 0.857734h
 0.221457v -0.428867h 0.221457v -1.07217h 0.221457v -0.428867h 0.221457v 0.857734h 0.221457v 1.2866h 0.221457v -0.6433h 0.221457v -1.07217h 0.221457v -1.07217h 0.221457v 2.35877h 0.221457v -1.07217h 0.221457v 0.214433h 0.442913v -0.6433h 0.221457v
 0.857734h 0.221457v 0.428867h 0.66437v -0.428867h 0.221457v -0.214433h 0.221457v 0.214433h 0.221457v 1.07217h 0.221457v -0.6433h 0.221457v -0.6433h 0.221457v 0.214433h 0.221457v 0.857734h 0.221457v -1.07217h 0.221457v 1.07217h 0.221457v -0.6433h
 0.221457v 0.6433h 0.221457v -0.6433h 0.442913v 0.857734h 0.221457v -0.428867h 0.221457v -0.6433h 0.221457v 1.07217h 0.221457v -0.428867h 0.221457v 0.214433h 0.221457v 0.214433h 0.221457v 0.214433h 0.221457v -1.07217h 0.221457v 1.2866h 0.442913v
 -0.214433h 0.221457v -1.71547h 0.221457v 1.9299h 0.442913v -0.857734h 0.221457v 0.214433h 0.221457v -0.857734h 0.221457v 0.6433h 0.221457v 0.857734h 0.221457v -0.214433h 0.221457v -0.6433h 0.221457v -0.214433h 0.221457v 1.2866h 0.221457v -1.07217h
 0.221457v 0.6433h 0.221457v 0.214433h 0.221457v -0.214433h 0.66437v 0.857734h 0.221457v -1.2866h 0.221457v 0.6433h 0.221457v -1.07217h 0.221457v 1.2866h 0.221457v -1.07217h 0.221457v 1.50103h 0.221457v -1.2866h 0.221457v 1.2866h 0.221457v -1.07217h
 0.221457v 0.214433h 0.221457v -1.50103h 0.221457v 1.50103h 0.221457v 0.214433h 0.221457v 0.214433h 0.885827v -0.6433h 0.221457v 0.428867h 0.221457v -0.857734h 0.221457v 0.857734h 0.221457v 0.428867h 0.221457v -0.428867h 0.442913v -0.214433h
 0.221457v 1.07217h 0.221457v -0.857734h 0.221457v -0.214433h 0.442913v 0.6433h 0.221457v -0.428867h 0.221457v 0.428867h 0.442913v -0.857734h 0.221457v 0.857734h 0.221457v -0.428867h 0.221457v 0.214433h 0.221457v 0.214433h 0.221457v -0.214433h
 0.221457v -0.214433h 0.221457v -0.214433h 0.221457v 0.6433h 0.221457v -0.6433h 0.442913v 0.428867h 0.442913v -0.214433h 0.221457v 0.6433h 0.221457v -0.214433h 0.221457v 0.428867h 0.221457v -0.214433h 0.221457v -0.6433h 0.221457v 0.6433h 0.221457v
 -0.214433h 0.442913v 0.214433h 0.221457v 0.214433h 0.221457v -0.6433h 0.221457v 0.214433h 0.221457v -0.428867h 0.221457v -0.428867h 0.221457v 0.6433h 0.442913v 0.214433h 0.221457v 0.428867h 0.442913v -0.6433h 0.221457v 0.214433h 0.221457v -0.428867h
 0.221457v 0.214433h 0.442913v 0.6433h 0.221457v -0.214433h 0.221457v -0.214433h 0.221457v 0.428867h 0.442913v -0.428867h 0.221457v 0.428867h 0.221457v -0.6433h 0.221457v 0.6433h 0.221457v -0.214433h 0.221457v -0.6433h 0.221457v 0.6433h 0.442913v
 0.214433h 0.221457v -0.214433h 0.221457v 0.214433h 0.442913v -0.6433h 0.221457v 0.6433h 0.221457v -0.428867h 0.221457v 0.214433h 0.885827v -0.214433h 0.221457v 0.428867h 0.442913v -0.214433h 0.66437v 0.214433h 0.66437v -0.214433h 0.221457v 0.214433h
 0.221457v -0.214433h 0.221457v 0.214433h 0.221457v -0.214433h 0.221457v -0.214433h 0.221457v 0.214433h 0.221457v 0.214433h 0.221457v -0.214433h 0.442913v -0.214433h 0.221457v 0.428867h 0.442913v -0.6433h 0.221457v 0.428867h 0.442913v 0.214433h
 1.10728v -0.214433h 0.442913v 0.214433h 0.221457v -0.428867h 0.442913v 0.214433h 0.885827v 0.214433h 2.65748v -0.214433h 0.221457v 0.214433h 0.66437v -0.214433h 0.221457v 0.214433h 0.221457v -0.214433h 0.221457v 0.214433h 0.221457v -0.214433h
 0.66437v 0.214433h 1.32874v -0.6433h 0.221457v 0.6433h 0.442913v -0.214433h 0.221457v 0.214433h 0.442913v -0.214433h 0.221457v 0.214433h 5.97933v -0.214433h 0.221457v 0.214433h 1.10728v -0.214433h 0.221457v 0.214433h 0.885827v -0.214433h 0.221457v
 0.214433h 1.5502v -0.214433h 0.221457v 0.214433h 1.77165v -0.214433h 0.221457v 0.214433h 0.66437v -0.214433h 0.221457v 0.214433h 3.76476v -0.214433h 0.221457v 0.214433h 1.5502v -0.214433h 0.221457v 0.214433h 1.77165v -0.214433h 0.221457v 0.214433h
 3.76476v -0.214433h 0.221457v 0.214433h 1.77165v -0.214433h 0.221457v 0.214433h 7.08661v -0.214433h 0.221457v 0.214433h 0.221457v -0.214433h 0.221457v 0.214433h 1.77165v -0.214433h 0.221457v -0.214433h 0.221457v 0.428867h 1.77165v -0.214433h
 0.221457v 0.214433h 1.10728v -0.214433h 0.221457v 0.214433h 1.5502v -0.214433h 0.442913v 0.214433h 0.66437v -0.214433h 0.221457v 0.214433h 0.885827v -0.214433h 0.442913v 0.214433h 17.7165v -0.214433h 0.221457v 0.214433h 1.32874v -0.214433h 0.221457v
 0.214433h 1.10728v -0.214433h 0.221457v 0.214433h 0.221457v -0.214433h 0.221457v 0.214433h 1.10728v -0.214433h 0.221457v 0.214433h 5.75787v -0.214433h 0.442913v 0.214433h 3.76476v -0.214433h 0.221457v 0.214433h 0.442913v -0.214433h 0.221457v
 0.214433h 1.10728v -0.214433h 0.221457v 0.214433h 9.30118v -0.214433h 0.221457v 0.214433h 0.885827v -0.214433h 0.221457v 0.214433h 3.76476v -0.214433h 0.221457v 0.214433h 11.7372v -0.214433h 0.221457v 0.214433h 3.54331v -0.214433h 0.221457v
 0.214433h 0.885827v -0.214433h 0.221457v 0.214433h 4.65059v -0.214433h 0.221457v 0.214433h 0.66437v -0.214433h 0.221457v 0.214433h 8.63681v -0.214433h 0.221457v 0.214433h 2.43602v -0.214433h 0.221457v 0.214433h 1.77165v -0.214433h 0.221457v
 0.214433h 10.4085" fill="none" stroke="#ff0000" stroke-width="2"/>
<path d="M59.4606,296.195l 4.53543, -0.00393227l 4.53543, -0.00394798l 4.53543, -0.00398567l 4.53543, -0.00407337l 4.53543, -0.00427154l 4.53543, -0.00470617l 4.53543, -0.00563128l 4.53543, -0.00754192l 4.53543, -0.0113701l 4.53543, -0.018809l
 4.53543, -0.0328253l 4.53543, -0.0584238l 4.53543, -0.103724l 4.53543, -0.181367l 4.53543, -0.310196l 4.53543, -0.517008l 4.53543, -0.83799l 4.53543, -1.31923l 4.53543, -2.01546l 4.53543, -2.98615l 4.53543, -4.28812l 4.53543, -5.96439l 4.53543,
 -8.02965l 4.53543, -10.4541l 4.53543, -13.1485l 4.53543, -15.9543l 4.53543, -18.6434l 4.53543, -20.9304l 4.53543, -22.4998l 4.53543, -23.0458l 4.53543, -22.3205l 4.53543, -20.1815l 4.53543, -16.6295l 4.53543, -11.8273l 4.53543, -6.09227l 4.53543,
 0.136408l 4.53543, 6.35361l 4.53543, 12.0557l 4.53543, 16.808l 4.53543, 20.2994l 4.53543, 22.3744l 4.53543, 23.0392l 4.53543, 22.4418l 4.53543, 20.8337l 4.53543, 18.5222l 4.53543, 15.8222l 4.53543, 13.017l 4.53543, 10.3318l 4.53543, 7.92189"
 fill="none" stroke="#0000ff" stroke-width="2"/>
<path d="M281.697,277.712l 4.53543, 5.87369l 4.53543, 4.21465l 4.53543, 2.92847l 4.53543, 1.97125l 4.53543, 1.28584l 4.53543, 0.812838l 4.53543, 0.497842l 4.53543, 0.295195l 4.53543, 0.169147l 4.53543, 0.093291l 4.53543, 0.0490968l 4.53543,
 0.0241584l 4.53543, 0.0105226l 4.53543, 0.00329549l 4.53543, -0.000418532l 4.53543, -0.00226971l 4.53543, -0.00316482l 4.53543, -0.00358479l 4.53543, -0.00377602l 4.53543, -0.00386055l 4.53543, -0.00389682l 4.53543, -0.00391193l 4.53543,
 -0.00391804l 4.53543, -0.00392044l 4.53543, -0.00392136l 4.53543, -0.0039217l 4.53543, -0.00392182l 4.53543, -0.00392186l 4.53543, -0.00392188l 4.53543, -0.00392188l 4.53543, -0.00392188l 4.53543, -0.00392188l 4.53543, -0.00392188l 4.53543,
 -0.00392188l 4.53543, -0.00392188l 4.53543, -0.00392188l 4.53543, -0.00392188l 4.53543, -0.00392188l 4.53543, -0.00392188l 4.53543, -0.00392188l 4.53543, -0.00392188l 4.53543, -0.00392188l 4.53543, -0.00392188l 4.53543, -0.00392188l 4.53543,
 -0.00392188l 4.53543, -0.00392188l 4.53543, -0.00392188l 4.53543, -0.00392188l 4.53543, -0.00392188" fill="none" stroke="#0000ff" stroke-width="2"/>
<path d="M503.933,295.811l 4.53543, -0.00392188" fill="none" stroke="#0000ff" stroke-width="2"/>
<rect x="351.996" y="21.4038" width="204.094" height="92.201" fill="white"/>
<path d="M351.996,113.605h 204.094" fill="none" stroke="black" stroke-width="2"/>
<path d="M556.091,113.605v -92.201" fill="none" stroke="black" stroke-width="2"/>
<path d="M556.091,21.4038h -204.094" fill="none" stroke="black" stroke-width="2"/>
<path d="M351.996,21.4038v 92.201" fill="none" stroke="black" stroke-width="2"/>
<text x="372.775" y="32.4423" fill="black" font-size="12.3832" font-family="Helvetica">
 / ndf 
</text>
<text x="367.909" y="28.387" fill="black" font-size="8.42215" font-family="Helvetica">
2
</text>
<text x="361.421" y="32.4423" fill="black" font-size="12.3832" font-family="Times">
&#0967;
</text>
<text x="475.78" y="33.2534" fill="black" font-size="12.3832" font-family="Helvetica">
  2492 / 1144
</text>
<text x="361.421" y="48.6634" fill="black" font-size="12.3832" font-family="Helvetica">
Centroid 
</text>
<text x="526.065" y="48.6634" fill="black" font-size="12.3832" font-family="Helvetica">
 0.2
</text>
<text x="518.766" y="48.6634" fill="black" font-size="12.3832" font-family="Times">
&#0177;
</text>
<text x="483.079" y="48.6634" fill="black" font-size="12.3832" font-family="Helvetica">
 736.8 
</text>
<text x="361.421" y="64.0735" fill="black" font-size="12.3832" font-family="Helvetica">
FWHM     
</text>
<text x="526.065" y="64.0735" fill="black" font-size="12.3832" font-family="Helvetica">
 0.4
</text>
<text x="518.766" y="64.0735" fill="black" font-size="12.3832" font-family="Times">
&#0177;
</text>
<text x="483.079" y="64.0735" fill="black" font-size="12.3832" font-family="Helvetica">
 289.5 
</text>
<text x="361.421" y="79.4836" fill="black" font-size="12.3832" font-family="Helvetica">
Counts   
</text>
<text x="485.512" y="79.4836" fill="black" font-size="12.3832" font-family="Helvetica">
 5.810e+02
</text>
<text x="478.213" y="79.4836" fill="black" font-size="12.3832" font-family="Times">
&#0177;
</text>
<text x="415.761" y="79.4836" fill="black" font-size="12.3832" font-family="Helvetica">
 3.298e+05 
</text>
<text x="361.421" y="93.2716" fill="black" font-size="12.3832" font-family="Helvetica">
Intercept 
</text>
<text x="505.789" y="94.8937" fill="black" font-size="12.3832" font-family="Helvetica">
 0.1660
</text>
<text x="498.489" y="94.8937" fill="black" font-size="12.3832" font-family="Times">
&#0177;
</text>
<text x="456.314" y="94.8937" fill="black" font-size="12.3832" font-family="Helvetica">
 0.7624 
</text>
<text x="361.421" y="109.493" fill="black" font-size="12.3832" font-family="Helvetica">
Slope    
</text>
<text x="492.001" y="110.304" fill="black" font-size="12.3832" font-family="Helvetica">
 0.000134
</text>
<text x="484.701" y="110.304" fill="black" font-size="12.3832" font-family="Times">
&#0177;
</text>
<text x="428.738" y="110.304" fill="black" font-size="12.3832" font-family="Helvetica">
 0.000893 
</text>
<path d="M57.1929,296.36h 453.543" fill="none" stroke="black" stroke-width="2"/>
<text x="467.669" y="318.746" fill="black" font-size="11.0735" font-family="Helvetica">
Channels
</text>
<path d="M57.1929,288.457v 7.90294" fill="none" stroke="black" stroke-width="2"/>
<path d="M79.3386,292.409v 3.95147" fill="none" stroke="black" stroke-width="2"/>
<path d="M101.484,292.409v 3.95147" fill="none" stroke="black" stroke-width="2"/>
<path d="M123.63,292.409v 3.95147" fill="none" stroke="black" stroke-width="2"/>
<path d="M145.776,292.409v 3.95147" fill="none" stroke="black" stroke-width="2"/>
<path d="M167.921,288.457v 7.90294" fill="none" stroke="black" stroke-width="2"/>
<path d="M190.067,292.409v 3.95147" fill="none" stroke="black" stroke-width="2"/>
<path d="M212.213,292.409v 3.95147" fill="none" stroke="black" stroke-width="2"/>
<path d="M234.358,292.409v 3.95147" fill="none" stroke="black" stroke-width="2"/>
<path d="M256.504,292.409v 3.95147" fill="none" stroke="black" stroke-width="2"/>
<path d="M278.65,288.457v 7.90294" fill="none" stroke="black" stroke-width="2"/>
<path d="M300.795,292.409v 3.95147" fill="none" stroke="black" stroke-width="2"/>
<path d="M322.941,292.409v 3.95147" fill="none" stroke="black" stroke-width="2"/>
<path d="M345.087,292.409v 3.95147" fill="none" stroke="black" stroke-width="2"/>
<path d="M367.232,292.409v 3.95147" fill="none" stroke="black" stroke-width="2"/>
<path d="M389.378,288.457v 7.90294" fill="none" stroke="black" stroke-width="2"/>
<path d="M411.524,292.409v 3.95147" fill="none" stroke="black" stroke-width="2"/>
<path d="M433.669,292.409v 3.95147" fill="none" stroke="black" stroke-width="2"/>
<path d="M455.815,292.409v 3.95147" fill="none" stroke="black" stroke-width="2"/>
<path d="M477.961,292.409v 3.95147" fill="none" stroke="black" stroke-width="2"/>
<path d="M500.106,288.457v 7.90294" fill="none" stroke="black" stroke-width="2"/>
<path d="M500.106,288.457v 7.90294" fill="none" stroke="black" stroke-width="2"/>
<text x="53.2187" y="306.58" fill="black" font-size="11.0735" font-family="Helvetica">
0
</text>
<text x="158.656" y="306.58" fill="black" font-size="11.0735" font-family="Helvetica">
500
</text>
<text x="265.716" y="306.58" fill="black" font-size="11.0735" font-family="Helvetica">
1000
</text>
<text x="376.831" y="306.58" fill="black" font-size="11.0735" font-family="Helvetica">
1500
</text>
<text x="487.134" y="306.58" fill="black" font-size="11.0735" font-family="Helvetica">
2000
</text>
<path d="M57.1929,296.36v -263.431" fill="none" stroke="black" stroke-width="2"/>
<path d="M70.7992,296.36h -13.6063" fill="none" stroke="black" stroke-width="2"/>
<path d="M63.9961,285.639h -6.80315" fill="none" stroke="black" stroke-width="2"/>
<path d="M63.9961,274.917h -6.80315" fill="none" stroke="black" stroke-width="2"/>
<path d="M63.9961,264.195h -6.80315" fill="none" stroke="black" stroke-width="2"/>
<path d="M70.7992,253.474h -13.6063" fill="none" stroke="black" stroke-width="2"/>
<path d="M63.9961,242.752h -6.80315" fill="none" stroke="black" stroke-width="2"/>
<path d="M63.9961,232.03h -6.80315" fill="none" stroke="black" stroke-width="2"/>
<path d="M63.9961,221.309h -6.80315" fill="none" stroke="black" stroke-width="2"/>
<path d="M70.7992,210.587h -13.6063" fill="none" stroke="black" stroke-width="2"/>
<path d="M63.9961,199.865h -6.80315" fill="none" stroke="black" stroke-width="2"/>
<path d="M63.9961,189.144h -6.80315" fill="none" stroke="black" stroke-width="2"/>
<path d="M63.9961,178.422h -6.80315" fill="none" stroke="black" stroke-width="2"/>
<path d="M70.7992,167.7h -13.6063" fill="none" stroke="black" stroke-width="2"/>
<path d="M63.9961,156.979h -6.80315" fill="none" stroke="black" stroke-width="2"/>
<path d="M63.9961,146.257h -6.80315" fill="none" stroke="black" stroke-width="2"/>
<path d="M63.9961,135.535h -6.80315" fill="none" stroke="black" stroke-width="2"/>
<path d="M70.7992,124.814h -13.6063" fill="none" stroke="black" stroke-width="2"/>
<path d="M63.9961,114.092h -6.80315" fill="none" stroke="black" stroke-width="2"/>
<path d="M63.9961,103.37h -6.80315" fill="none" stroke="black" stroke-width="2"/>
<path d="M63.9961,92.6486h -6.80315" fill="none" stroke="black" stroke-width="2"/>
<path d="M70.7992,81.927h -13.6063" fill="none" stroke="black" stroke-width="2"/>
<path d="M63.9961,71.2053h -6.80315" fill="none" stroke="black" stroke-width="2"/>
<path d="M63.9961,60.4836h -6.80315" fill="none" stroke="black" stroke-width="2"/>
<path d="M63.9961,49.762h -6.80315" fill="none" stroke="black" stroke-width="2"/>
<path d="M70.7992,39.0403h -13.6063" fill="none" stroke="black" stroke-width="2"/>
<path d="M70.7992,39.0403h -13.6063" fill="none" stroke="black" stroke-width="2"/>
<text x="48.3524" y="300.091" fill="black" font-size="11.0735" font-family="Helvetica">
0
</text>
<text x="36.1865" y="257.105" fill="black" font-size="11.0735" font-family="Helvetica">
200
</text>
<text x="36.1865" y="214.119" fill="black" font-size="11.0735" font-family="Helvetica">
400
</text>
<text x="36.1865" y="171.133" fill="black" font-size="11.0735" font-family="Helvetica">
600
</text>
<text x="36.1865" y="128.147" fill="black" font-size="11.0735" font-family="Helvetica">
800
</text>
<text x="30.5091" y="85.9721" fill="black" font-size="11.0735" font-family="Helvetica">
1000
</text>
<text x="30.5091" y="42.986" fill="black" font-size="11.0735" font-family="Helvetica">
1200
</text>
<rect x="351.996" y="21.4038" width="204.094" height="92.201" fill="white"/>
<path d="M351.996,113.605h 204.094" fill="none" stroke="black" stroke-width="2"/>
<path d="M556.091,113.605v -92.201" fill="none" stroke="black" stroke-width="2"/>
<path d="M556.091,21.4038h -204.094" fill="none" stroke="black" stroke-width="2"/>
<path d="M351.996,21.4038v 92.201" fill="none" stroke="black" stroke-width="2"/>
<text x="372.775" y="32.4423" fill="black" font-size="12.3832" font-family="Helvetica">
 / ndf 
</text>
<text x="367.909" y="28.387" fill="black" font-size="8.42215" font-family="Helvetica">
2
</text>
<text x="361.421" y="32.4423" fill="black" font-size="12.3832" font-family="Times">
&#0967;
</text>
<text x="475.78" y="33.2534" fill="black" font-size="12.3832" font-family="Helvetica">
  2492 / 1144
</text>
<text x="361.421" y="48.6634" fill="black" font-size="12.3832" font-family="Helvetica">
Centroid 
</text>
<text x="526.065" y="48.6634" fill="black" font-size="12.3832" font-family="Helvetica">
 0.2
</text>
<text x="518.766" y="48.6634" fill="black" font-size="12.3832" font-family="Times">
&#0177;
</text>
<text x="483.079" y="48.6634" fill="black" font-size="12.3832" font-family="Helvetica">
 736.8 
</text>
<text x="361.421" y="64.0735" fill="black" font-size="12.3832" font-family="Helvetica">
FWHM     
</text>
<text x="526.065" y="64.0735" fill="black" font-size="12.3832" font-family="Helvetica">
 0.4
</text>
<text x="518.766" y="64.0735" fill="black" font-size="12.3832" font-family="Times">
&#0177;
</text>
<text x="483.079" y="64.0735" fill="black" font-size="12.3832" font-family="Helvetica">
 289.5 
</text>
<text x="361.421" y="79.4836" fill="black" font-size="12.3832" font-family="Helvetica">
Counts   
</text>
<text x="485.512" y="79.4836" fill="black" font-size="12.3832" font-family="Helvetica">
 5.810e+02
</text>
<text x="478.213" y="79.4836" fill="black" font-size="12.3832" font-family="Times">
&#0177;
</text>
<text x="415.761" y="79.4836" fill="black" font-size="12.3832" font-family="Helvetica">
 3.298e+05 
</text>
<text x="361.421" y="93.2716" fill="black" font-size="12.3832" font-family="Helvetica">
Intercept 
</text>
<text x="505.789" y="94.8937" fill="black" font-size="12.3832" font-family="Helvetica">
 0.1660
</text>
<text x="498.489" y="94.8937" fill="black" font-size="12.3832" font-family="Times">
&#0177;
</text>
<text x="456.314" y="94.8937" fill="black" font-size="12.3832" font-family="Helvetica">
 0.7624 
</text>
<text x="361.421" y="109.493" fill="black" font-size="12.3832" font-family="Helvetica">
Slope    
</text>
<text x="492.001" y="110.304" fill="black" font-size="12.3832" font-family="Helvetica">
 0.000134
</text>
<text x="484.701" y="110.304" fill="black" font-size="12.3832" font-family="Times">
&#0177;
</text>
<text x="428.738" y="110.304" fill="black" font-size="12.3832" font-family="Helvetica">
 0.000893 
</text>
<path d="M59.4606,296.36h 40.8189l 4.53543, -0.0290568l 4.53543, -0.0289034l 4.53543, -0.0545019l 4.53543, -0.099802l 4.53543, -0.177445l 4.53543, -0.306274l 4.53543, -0.513086l 4.53543, -0.834068l 4.53543, -1.31531l 4.53543, -2.01153l 4.53543,
 -2.98222l 4.53543, -4.2842l 4.53543, -5.96047l 4.53543, -8.02573l 4.53543, -10.4502l 4.53543, -13.1446l 4.53543, -15.9504l 4.53543, -18.6395l 4.53543, -20.9265l 4.53543, -22.4959l 4.53543, -23.0419l 4.53543, -22.3166l 4.53543, -20.1775l 4.53543,
 -16.6256l 4.53543, -11.8233l 4.53543, -6.08835l 4.53543, 0.14033l 4.53543, 6.35753l 4.53543, 12.0596l 4.53543, 16.812l 4.53543, 20.3033l 4.53543, 22.3783l 4.53543, 23.0431l 4.53543, 22.4457l 4.53543, 20.8377l 4.53543, 18.5262l 4.53543, 15.8261l
 4.53543, 13.0209l 4.53543, 10.3357l 4.53543, 7.92581" fill="none" stroke="#00ff00" stroke-width="2"/>
<path d="M281.697,278.07l 4.53543, 5.87761l 4.53543, 4.21857l 4.53543, 2.93239l 4.53543, 1.97518l 4.53543, 1.28976l 4.53543, 0.81676l 4.53543, 0.501764l 4.53543, 0.299117l 4.53543, 0.173069l 4.53543, 0.0972129l 4.53543, 0.0530187l 4.53543, 0.0280803l
 4.53543, 0.0281598h 163.276" fill="none" stroke="#00ff00" stroke-width="2"/>
<path d="M503.933,296.36h 4.53543" fill="none" stroke="#00ff00" stroke-width="2"/>
<text x="107.56" y="16.2211" fill="black" font-size="15.835" font-family="Helvetica">
Wk2/TimeCoin_1microsRange_halfmicrosDelay.Spe
</text></svg>
