<?xml version="1.0" standalone="no"?>
<svg width="567.429" height="274.476" viewBox="0 0 567.429 274.476" xmlns="http://www.w3.org/2000/svg">
<title>
/home/ADF/hyw543/Attenuation/Calib/c1.svg
</title>
<desc>
Creator: ROOT Version 6.06/08
CreationDate: Mon Jan  7 13:54:56 2019</desc>
<defs>
</defs>
<rect x="0.5" y="0" width="566.929" height="273.976" fill="white"/>
<rect x="57.1929" y="27.3976" width="453.543" height="219.181" fill="white"/>
<rect x="57.1929" y="27.3976" width="453.543" height="219.181" fill="none" stroke="black"/>
<rect x="57.1929" y="27.3976" width="453.543" height="219.181" fill="white"/>
<rect x="57.1929" y="27.3976" width="453.543" height="219.181" fill="none" stroke="black"/>
<path d="M57.1929,202.888h 0.227911v 14.5635h 0.227911v 19.418h 0.227911v -38.8361h 0.227911v 33.9815h 0.227911v -19.418h 0.227911v 14.5635h 0.227911v -24.2725h 0.227911v 29.127h 0.227911v 4.85451h 0.227911v 9.70901h 0.227911v -14.5635h 0.227911v
 -19.418h 0.455822v 9.70901h 0.227911v 4.85451h 0.227911v 9.70901h 0.227911v -14.5635h 0.227911v -4.85451h 0.227911v 14.5635h 0.227911v -19.418h 0.227911v 14.5635h 0.227911v -19.418h 0.227911v 9.70901h 0.455822v 19.418h 0.227911v -9.70901h 0.227911v
 -4.85451h 0.227911v 4.85451h 0.227911v -9.70901h 0.227911v 19.418h 0.227911v -9.70901h 0.227911v -9.70901h 0.455822v 4.85451h 0.227911v 4.85451h 0.227911v -4.85451h 0.227911v 9.70901h 0.227911v 4.85451h 0.227911v -9.70901h 0.227911v -9.70901h
 0.227911v 4.85451h 0.227911v 9.70901h 0.227911v -24.2725h 0.227911v 29.127h 0.227911v -19.418h 0.227911v 19.418h 0.227911v -14.5635h 0.227911v -9.70901h 0.455822v 14.5635h 0.227911v -9.70901h 0.227911v 14.5635h 0.227911v -19.418h 0.227911v 19.418h
 0.227911v 4.85451h 0.227911v -9.70901h 0.455822v -14.5635h 0.227911v 4.85451h 0.227911v -9.70901h 0.227911v 14.5635h 0.227911v -19.418h 0.227911v 33.9815h 0.227911v -9.70901h 0.227911v -4.85451h 0.455822v -19.418h 0.227911v 9.70901h 0.227911v
 4.85451h 0.227911v -9.70901h 0.227911v -19.418h 0.227911v 38.8361h 0.227911v 14.5635h 0.227911v -33.9815h 0.227911v 9.70901h 0.227911v 9.70901h 0.227911v -14.5635h 0.227911v 4.85451h 0.683734v -14.5635h 0.227911v 9.70901h 0.227911v 4.85451h
 0.227911v 4.85451h 0.227911v -14.5635h 0.227911v 4.85451h 0.227911v 14.5635h 0.227911v -4.85451h 0.227911v -4.85451h 0.227911v 9.70901h 0.227911v -29.127h 0.227911v 4.85451h 0.227911v 33.9815h 0.227911v -33.9815h 0.227911v -9.70901h 0.227911v
 9.70901h 0.227911v -9.70901h 0.227911v 24.2725h 0.227911v -4.85451h 0.455822v 14.5635h 0.227911v -19.418h 0.455822v 24.2725h 0.227911v -19.418h 0.227911v -19.418h 0.227911v 38.8361h 0.227911v -29.127h 0.227911v -9.70901h 0.227911v 14.5635h 0.227911v
 -9.70901h 0.227911v -24.2725h 0.227911v 38.8361h 0.227911v -19.418h 0.227911v 4.85451h 0.227911v 19.418h 0.227911v -19.418h 0.227911v 19.418h 0.227911v -9.70901h 0.683734v -4.85451h 0.227911v 9.70901h 0.227911v -14.5635h 0.227911v 19.418h 0.227911v
 4.85451h 0.227911v -14.5635h 0.227911v 19.418h 0.227911v -19.418h 0.227911v -43.6906h 0.227911v 33.9815h 0.227911v -19.418h 0.227911v -19.418h 0.227911v 63.1086h 0.227911v -33.9815h 0.227911v 9.70901h 0.227911v -9.70901h 0.227911v -24.2725h
 0.227911v 24.2725h 0.227911v 19.418h 0.227911v -29.127h 0.227911v 29.127h 0.227911v -24.2725h 0.227911v 14.5635h 0.227911v -9.70901h 0.227911v -4.85451h 0.227911v 24.2725h 0.227911v -9.70901h 0.227911v -4.85451h 0.227911v 9.70901h 0.227911v
 -48.5451h 0.227911v 19.418h 0.227911v 9.70901h 0.227911v 24.2725h 0.227911v -19.418h 0.227911v 4.85451h 0.227911v -24.2725h 0.227911v 19.418h 0.227911v 4.85451h 0.227911v -33.9815h 0.227911v 33.9815h 0.227911v -4.85451h 0.227911v -9.70901h 0.227911v
 9.70901h 0.455822v 4.85451h 0.227911v -9.70901h 0.227911v 4.85451h 0.227911v -4.85451h 0.227911v -14.5635h 0.227911v -19.418h 0.227911v 29.127h 0.227911v 24.2725h 0.227911v -58.2541h 0.227911v 38.8361h 0.227911v -24.2725h 0.227911v 48.5451h
 0.227911v -29.127h 0.227911v -4.85451h 0.227911v -14.5635h 0.227911v 9.70901h 0.227911v -29.127h 0.227911v 63.1086h 0.227911v -38.8361h 0.227911v 14.5635h 0.227911v -72.8176h 0.227911v 82.5266h 0.227911v -29.127h 0.455822v -14.5635h 0.227911v
 19.418h 0.227911v -43.6906h 0.227911v 53.3996h 0.227911v -53.3996h 0.227911v -24.2725h 0.227911v 97.0901h 0.227911v 4.85451h 0.227911v -48.5451h 0.227911v 24.2725h 0.227911v -63.1086h 0.227911v 33.9815h 0.227911v -29.127h 0.227911v 48.5451h
 0.227911v 9.70901h 0.227911v -19.418h 0.227911v -14.5635h 0.227911v 38.8361h 0.227911v -58.2541h 0.227911v 14.5635h 0.227911v -4.85451h 0.455822v 14.5635h 0.227911v -24.2725h 0.227911v -14.5635h 0.227911v 53.3996h 0.227911v 4.85451h 0.227911v
 -24.2725h 0.227911v -19.418h 0.227911v 38.8361h 0.227911v -9.70901h 0.227911v -19.418h 0.227911v -9.70901h 0.227911v 14.5635h 0.227911v -9.70901h 0.227911v -19.418h 0.227911v 9.70901h 0.227911v 24.2725h 0.227911v 38.8361h 0.227911v -38.8361h
 0.227911v 24.2725h 0.227911v -67.9631h 0.227911v 33.9815h 0.227911v -33.9815h 0.227911v 19.418h 0.227911v -4.85451h 0.227911v 14.5635h 0.455822v 58.2541h 0.227911v -48.5451h 0.227911v 4.85451h 0.227911v -14.5635h 0.227911v 29.127h 0.227911v
 -14.5635h 0.227911v -24.2725h 0.227911v 14.5635h 0.227911v 24.2725h 0.227911v -19.418h 0.227911v 29.127h 0.227911v -24.2725h 0.227911v -24.2725h 0.227911v 43.6906h 0.227911v -72.8176h 0.227911v 38.8361h 0.227911v 4.85451h 0.227911v -24.2725h
 0.227911v 24.2725h 0.227911v -29.127h 0.227911v 19.418h 0.227911v -4.85451h 0.227911v -14.5635h 0.227911v -4.85451h 0.227911v 9.70901h 0.227911v -67.9631h 0.227911v 72.8176h 0.227911v -9.70901h 0.227911v 29.127h 0.227911v -4.85451h 0.227911v
 -19.418h 0.227911v 14.5635h 0.227911v -24.2725h 0.227911v 29.127h 0.227911v 14.5635h 0.227911v -38.8361h 0.227911v -4.85451h 0.227911v -29.127h 0.227911v 77.6721h 0.227911v -33.9815h 0.227911v 53.3996h 0.227911v -14.5635h 0.227911v -63.1086h
 0.227911v 9.70901h 0.227911v 9.70901h 0.227911v 19.418h 0.227911v -19.418h 0.227911v 24.2725h 0.227911v 14.5635h 0.227911v -72.8176h 0.227911v 48.5451h 0.227911v -19.418h 0.227911v 29.127h 0.227911v -48.5451h 0.227911v 29.127h 0.227911v 24.2725h
 0.227911v -24.2725h 0.227911v 14.5635h 0.227911v 9.70901h 0.227911v -4.85451h 0.227911v 33.9815h 0.227911v -43.6906h 0.227911v 9.70901h 0.455822v 43.6906h 0.227911v -19.418h 0.227911v -9.70901h 0.227911v -14.5635h 0.227911v 9.70901h 0.455822v
 14.5635h 0.227911v -9.70901h 0.227911v -14.5635h 0.227911v 43.6906h 0.227911v -19.418h 0.455822v -9.70901h 0.227911v -9.70901h 0.227911v -9.70901h 0.227911v 19.418h 0.455822v -4.85451h 0.227911v -4.85451h 0.227911v 14.5635h 0.227911v -48.5451h
 0.227911v -9.70901h 0.227911v 67.9631h 0.227911v -14.5635h 0.227911v 9.70901h 0.227911v -19.418h 0.227911v 4.85451h 0.227911v 4.85451h 0.227911v -33.9815h 0.227911v 72.8176h 0.227911v -14.5635h 0.227911v -24.2725h 0.227911v 24.2725h 0.455822v
 -58.2541h 0.227911v 72.8176h 0.227911v -24.2725h 0.227911v -19.418h 0.227911v 43.6906h 0.227911v -58.2541h 0.227911v 43.6906h 0.227911v 14.5635h 0.227911v 9.70901h 0.227911v -19.418h 0.227911v -33.9815h 0.227911v 19.418h 0.227911v -19.418h 0.227911v
 33.9815h 0.227911v 29.127h 0.227911v -63.1086h 0.227911v 58.2541h 0.455822v -29.127h 0.227911v 14.5635h 0.227911v -14.5635h 0.227911v 14.5635h 0.227911v -19.418h 0.227911v 9.70901h 0.227911v 19.418h 0.683734v -43.6906h 0.227911v 58.2541h 0.227911v
 -43.6906h 0.227911v 19.418h 0.227911v 24.2725h 0.227911v -29.127h 0.227911v 29.127h 0.227911v -14.5635h 0.227911v -14.5635h 0.227911v 48.5451h 0.227911v -48.5451h 0.227911v 9.70901h 0.227911v 4.85451h 0.227911v -14.5635h 0.227911v 24.2725h 0.455822v
 4.85451h 0.227911v -4.85451h 0.227911v -38.8361h 0.227911v 43.6906h 0.455822v -14.5635h 0.455822v 24.2725h 0.227911v -29.127h 0.227911v -4.85451h 0.227911v 38.8361h 0.227911v -19.418h 0.227911v 24.2725h 0.227911v -19.418h 0.227911v -43.6906h
 0.227911v 33.9815h 0.227911v -24.2725h 0.227911v 29.127h 0.227911v -4.85451h 0.227911v -9.70901h 0.227911v 33.9815h 0.227911v -19.418h 0.227911v -9.70901h 0.227911v 29.127h 0.227911v -9.70901h 0.227911v -9.70901h 0.227911v 4.85451h 0.227911v
 -9.70901h 0.227911v 24.2725h 0.227911v -14.5635h 0.455822v 4.85451h 0.227911v -14.5635h 0.227911v 19.418h 0.455822v 4.85451h 0.227911v -24.2725h 0.227911v 19.418h 0.455822v 4.85451h 0.227911v -9.70901h 0.455822v 9.70901h 0.227911v -4.85451h
 0.227911v 19.418h 0.227911v -14.5635h 0.227911v 14.5635h 0.227911v -4.85451h 0.455822v -4.85451h 0.227911v 4.85451h 0.227911v -19.418h 0.227911v 4.85451h 0.227911v 9.70901h 0.227911v -24.2725h 0.227911v 24.2725h 0.455822v -19.418h 0.227911v 4.85451h
 0.227911v 4.85451h 0.227911v -4.85451h 0.227911v -9.70901h 0.227911v 24.2725h 0.227911v -4.85451h 0.227911v -9.70901h 0.227911v 19.418h 0.227911v 4.85451h 0.227911v -43.6906h 0.227911v 38.8361h 0.227911v -14.5635h 0.227911v 14.5635h 0.227911v
 -14.5635h 0.227911v 19.418h 0.227911v -9.70901h 0.455822v -9.70901h 0.227911v 24.2725h 0.227911v -14.5635h 0.455822v 9.70901h 0.683734v -9.70901h 0.227911v 4.85451h 0.683734v 4.85451h 0.227911v -14.5635h 0.455822v 4.85451h 0.227911v 4.85451h
 0.455822v 4.85451h 0.227911v -9.70901h 0.227911v 4.85451h 0.227911v 4.85451h 0.227911v -4.85451h 0.227911v 9.70901h 0.227911v -24.2725h 0.227911v 14.5635h 0.227911v 9.70901h 0.227911v -14.5635h 0.227911v 4.85451h 0.227911v -4.85451h 0.227911v
 4.85451h 0.227911v 4.85451h 0.455822v -24.2725h 0.227911v 24.2725h 0.227911v -4.85451h 0.683734v 14.5635h 0.227911v -4.85451h 0.227911v -9.70901h 0.227911v -4.85451h 0.455822v 9.70901h 0.227911v 4.85451h 0.227911v -14.5635h 0.227911v 4.85451h
 0.455822v 9.70901h 0.227911v -4.85451h 0.455822v -9.70901h 0.911645v -14.5635h 0.227911v 24.2725h 0.227911v -4.85451h 0.227911v -14.5635h 0.227911v 19.418h 0.227911v -4.85451h 0.227911v 4.85451h 0.227911v -4.85451h 0.455822v 14.5635h 0.227911v
 -9.70901h 0.455822v -14.5635h 0.227911v 14.5635h 0.227911v 4.85451h 0.227911v -9.70901h 0.227911v 9.70901h 0.227911v -4.85451h 0.455822v -4.85451h 0.227911v 9.70901h 0.683734v -4.85451h 0.227911v -4.85451h 0.455822v 4.85451h 0.227911v -4.85451h
 0.455822v 4.85451h 0.227911v 4.85451h 0.227911v -9.70901h 0.227911v 4.85451h 0.227911v 4.85451h 0.227911v 4.85451h 0.227911v -4.85451h 0.227911v 4.85451h 0.227911v -9.70901h 0.227911v -29.127h 0.227911v 33.9815h 0.911645v -4.85451h 0.227911v
 -4.85451h 0.227911v 14.5635h 0.227911v -14.5635h 0.227911v -4.85451h 0.227911v -9.70901h 0.227911v 9.70901h 0.227911v 14.5635h 0.227911v -9.70901h 0.455822v -4.85451h 0.227911v 4.85451h 0.227911v 4.85451h 0.227911v -4.85451h 0.227911v 4.85451h
 0.227911v 4.85451h 0.227911v -19.418h 0.227911v 19.418h 0.227911v -19.418h 0.227911v 14.5635h 0.227911v 4.85451h 0.227911v -4.85451h 0.227911v -9.70901h 0.227911v 19.418h 0.227911v -4.85451h 0.227911v 4.85451h 0.227911v -9.70901h 0.227911v -4.85451h
 0.227911v -9.70901h 0.227911v 19.418h 0.227911v -14.5635h 0.227911v 4.85451h 0.227911v 9.70901h 0.227911v -29.127h 0.227911v 29.127h 0.227911v -9.70901h 0.227911v -9.70901h 0.227911v 4.85451h 0.227911v 9.70901h 0.227911v -14.5635h 0.227911v 14.5635h
 0.227911v 4.85451h 0.227911v -14.5635h 0.227911v 4.85451h 0.227911v 4.85451h 0.227911v -14.5635h 0.227911v 9.70901h 0.227911v 9.70901h 0.227911v -19.418h 0.455822v 19.418h 0.227911v -19.418h 0.455822v 4.85451h 0.227911v 9.70901h 0.227911v -4.85451h
 0.683734v -9.70901h 0.227911v 14.5635h 0.227911v 9.70901h 0.227911v -14.5635h 0.227911v 14.5635h 0.227911v -9.70901h 0.227911v 4.85451h 0.455822v 4.85451h 0.227911v -24.2725h 0.227911v 19.418h 0.227911v -4.85451h 0.227911v 4.85451h 0.227911v
 -4.85451h 0.227911v 4.85451h 0.227911v -9.70901h 0.227911v -4.85451h 0.227911v 9.70901h 0.227911v -4.85451h 0.227911v 9.70901h 0.455822v -4.85451h 0.227911v -19.418h 0.227911v 24.2725h 0.227911v -14.5635h 0.227911v 9.70901h 0.227911v -4.85451h
 0.227911v 4.85451h 0.227911v 4.85451h 0.227911v -9.70901h 0.455822v 4.85451h 0.227911v -4.85451h 0.227911v 14.5635h 0.227911v -19.418h 0.227911v 4.85451h 0.227911v 4.85451h 0.227911v 4.85451h 0.455822v -29.127h 0.227911v 24.2725h 0.227911v -19.418h
 0.227911v 4.85451h 0.227911v -4.85451h 0.227911v 14.5635h 0.227911v 14.5635h 0.227911v -9.70901h 0.227911v 4.85451h 0.227911v -4.85451h 0.683734v 4.85451h 0.455822v -9.70901h 0.227911v -14.5635h 0.227911v -9.70901h 0.227911v 14.5635h 0.227911v
 14.5635h 0.227911v 4.85451h 0.227911v -24.2725h 0.227911v 29.127h 0.227911v -24.2725h 0.227911v 9.70901h 0.227911v 9.70901h 0.227911v -4.85451h 0.227911v 4.85451h 0.227911v -4.85451h 0.227911v 9.70901h 0.227911v -14.5635h 0.227911v -4.85451h
 0.227911v 14.5635h 0.227911v -4.85451h 0.455822v 4.85451h 0.227911v -9.70901h 0.227911v 9.70901h 0.455822v -14.5635h 0.227911v 19.418h 0.227911v -14.5635h 0.227911v -9.70901h 0.227911v 9.70901h 0.227911v 4.85451h 0.227911v -4.85451h 0.227911v
 -9.70901h 0.227911v 4.85451h 0.227911v 19.418h 0.227911v -9.70901h 0.455822v -19.418h 0.227911v 24.2725h 0.455822v -14.5635h 0.227911v 14.5635h 0.227911v -4.85451h 0.227911v 4.85451h 0.455822v -4.85451h 0.227911v 4.85451h 0.455822v 4.85451h
 0.227911v -9.70901h 0.227911v 4.85451h 0.227911v -14.5635h 0.227911v 14.5635h 0.455822v -4.85451h 0.227911v 4.85451h 0.227911v -9.70901h 0.227911v 4.85451h 0.227911v 9.70901h 0.455822v -9.70901h 0.227911v 4.85451h 0.227911v -9.70901h 0.227911v
 4.85451h 0.227911v 4.85451h 0.227911v -9.70901h 0.455822v 9.70901h 0.683734v -9.70901h 0.227911v 14.5635h 0.227911v -4.85451h 0.227911v -29.127h 0.227911v 19.418h 0.227911v 9.70901h 0.683734v 4.85451h 0.227911v -9.70901h 0.455822v 4.85451h 0.227911v
 -14.5635h 0.455822v 19.418h 0.455822v -9.70901h 0.227911v 9.70901h 0.227911v -4.85451h 0.227911v 4.85451h 0.455822v -19.418h 0.227911v 9.70901h 0.683734v 4.85451h 0.227911v -9.70901h 0.227911v 9.70901h 0.227911v -9.70901h 0.455822v 9.70901h
 0.227911v -9.70901h 0.227911v 9.70901h 0.455822v -9.70901h 0.455822v 4.85451h 0.455822v 9.70901h 0.227911v -4.85451h 0.227911v -9.70901h 0.227911v 9.70901h 0.227911v -9.70901h 0.227911v 9.70901h 0.455822v -4.85451h 0.227911v -4.85451h 0.227911v
 -4.85451h 0.227911v 14.5635h 0.227911v 4.85451h 0.455822v -14.5635h 0.227911v 9.70901h 0.227911v -9.70901h 0.455822v 9.70901h 0.227911v -4.85451h 0.227911v 9.70901h 0.227911v -4.85451h 0.227911v 4.85451h 0.227911v -4.85451h 0.227911v 4.85451h
 0.227911v -14.5635h 0.227911v 4.85451h 0.227911v 4.85451h 0.455822v -19.418h 0.227911v 14.5635h 0.227911v -4.85451h 0.227911v 9.70901h 0.455822v -4.85451h 0.227911v -4.85451h 0.227911v 14.5635h 0.227911v -4.85451h 0.227911v 4.85451h 0.227911v
 -4.85451h 0.227911v -9.70901h 0.455822v 4.85451h 0.227911v -4.85451h 0.227911v 9.70901h 1.59538v -4.85451h 0.227911v -4.85451h 0.227911v 9.70901h 0.227911v -4.85451h 0.227911v -4.85451h 0.227911v 9.70901h 0.227911v -4.85451h 0.683734v 4.85451h
 0.227911v 4.85451h 0.227911v -9.70901h 0.227911v 4.85451h 0.683734v -4.85451h 0.227911v 4.85451h 0.227911v -9.70901h 0.227911v 14.5635h 0.227911v -9.70901h 0.227911v 4.85451h 0.227911v -4.85451h 0.227911v -4.85451h 0.683734v 9.70901h 0.227911v
 4.85451h 0.227911v -4.85451h 0.911645v -19.418h 0.227911v 14.5635h 0.227911v -4.85451h 0.227911v 4.85451h 0.227911v -4.85451h 0.227911v 4.85451h 0.455822v 4.85451h 0.455822v -4.85451h 0.227911v 9.70901h 0.227911v -4.85451h 0.227911v 4.85451h
 0.227911v -14.5635h 0.227911v 14.5635h 0.455822v -4.85451h 0.227911v -14.5635h 0.227911v 9.70901h 0.227911v -4.85451h 0.227911v 4.85451h 0.227911v 4.85451h 0.227911v -9.70901h 0.227911v 14.5635h 0.455822v -14.5635h 0.227911v 14.5635h 0.455822v
 -19.418h 0.227911v 4.85451h 0.227911v 4.85451h 0.455822v 4.85451h 0.455822v -4.85451h 0.227911v 9.70901h 0.227911v -9.70901h 0.227911v 9.70901h 0.227911v -4.85451h 0.455822v -9.70901h 0.227911v 4.85451h 0.455822v 4.85451h 0.227911v 4.85451h
 0.227911v -9.70901h 0.227911v 4.85451h 0.683734v -14.5635h 0.455822v 4.85451h 0.227911v 4.85451h 0.227911v 9.70901h 0.227911v -4.85451h 0.227911v -9.70901h 0.683734v 14.5635h 0.227911v -4.85451h 0.227911v -14.5635h 0.227911v 14.5635h 0.227911v
 -9.70901h 0.227911v 9.70901h 0.455822v -4.85451h 0.227911v -4.85451h 0.455822v 9.70901h 0.227911v -4.85451h 0.455822v -9.70901h 0.227911v 19.418h 0.455822v -4.85451h 0.227911v -4.85451h 0.227911v -4.85451h 0.227911v 4.85451h 0.227911v -4.85451h
 0.683734v 14.5635h 0.455822v -9.70901h 0.227911v 4.85451h 0.227911v -4.85451h 0.455822v -9.70901h 0.227911v 14.5635h 0.455822v -4.85451h 0.227911v 4.85451h 0.227911v -9.70901h 0.227911v 4.85451h 0.227911v -9.70901h 0.227911v 4.85451h 0.455822v
 4.85451h 0.227911v -14.5635h 0.227911v 9.70901h 0.455822v 9.70901h 0.227911v -4.85451h 0.455822v -9.70901h 0.227911v 9.70901h 0.227911v -9.70901h 0.227911v 4.85451h 0.227911v -24.2725h 0.227911v 29.127h 0.227911v 4.85451h 0.227911v -14.5635h
 0.227911v 9.70901h 0.227911v 4.85451h 0.227911v -14.5635h 0.455822v -4.85451h 0.227911v 19.418h 0.227911v -14.5635h 0.227911v 4.85451h 0.227911v -14.5635h 0.455822v -4.85451h 0.227911v 19.418h 0.455822v -4.85451h 0.455822v 14.5635h 0.227911v
 -4.85451h 0.227911v -19.418h 0.227911v 9.70901h 0.227911v -9.70901h 0.227911v -9.70901h 0.227911v 9.70901h 0.227911v 19.418h 0.227911v 4.85451h 0.227911v -29.127h 0.227911v 4.85451h 0.227911v 9.70901h 0.911645v -19.418h 0.227911v 14.5635h 0.455822v
 -9.70901h 0.227911v 14.5635h 0.227911v -4.85451h 0.455822v -9.70901h 0.227911v 29.127h 0.227911v -19.418h 0.227911v -29.127h 0.227911v 29.127h 0.227911v -14.5635h 0.227911v 14.5635h 0.227911v -4.85451h 0.227911v 19.418h 0.227911v -33.9815h 0.227911v
 19.418h 0.227911v -4.85451h 0.227911v 9.70901h 0.227911v -4.85451h 0.227911v 4.85451h 0.227911v 4.85451h 0.227911v -9.70901h 0.227911v -29.127h 0.227911v 9.70901h 0.227911v 9.70901h 0.227911v 19.418h 0.227911v -19.418h 0.227911v -14.5635h 0.227911v
 24.2725h 0.227911v -14.5635h 0.227911v 19.418h 0.227911v -14.5635h 0.227911v 9.70901h 0.227911v -9.70901h 0.227911v -9.70901h 0.227911v 24.2725h 0.227911v -9.70901h 0.227911v -19.418h 0.227911v 14.5635h 0.227911v 9.70901h 0.227911v -9.70901h
 0.227911v -24.2725h 0.227911v 19.418h 0.227911v 4.85451h 0.227911v 9.70901h 0.227911v -33.9815h 0.227911v 19.418h 0.227911v -4.85451h 0.227911v 19.418h 0.227911v -4.85451h 0.227911v -9.70901h 0.227911v 14.5635h 0.227911v -19.418h 0.227911v 9.70901h
 0.227911v -9.70901h 0.227911v 29.127h 0.227911v -48.5451h 0.227911v 24.2725h 0.227911v -14.5635h 0.227911v -14.5635h 0.227911v 48.5451h 0.227911v -48.5451h 0.227911v 38.8361h 0.227911v -24.2725h 0.227911v 29.127h 0.227911v -9.70901h 0.227911v
 -14.5635h 0.227911v 24.2725h 0.455822v -14.5635h 0.227911v -9.70901h 0.227911v -4.85451h 0.227911v 4.85451h 0.227911v 9.70901h 0.455822v -24.2725h 0.227911v 9.70901h 0.227911v -19.418h 0.227911v 38.8361h 0.227911v -19.418h 0.227911v -9.70901h
 0.227911v 19.418h 0.227911v -29.127h 0.227911v 19.418h 0.227911v -9.70901h 0.227911v 24.2725h 0.227911v -14.5635h 0.227911v -4.85451h 0.227911v 14.5635h 0.455822v -9.70901h 0.227911v 4.85451h 0.227911v -24.2725h 0.227911v 9.70901h 0.455822v 43.6906h
 0.227911v -14.5635h 0.227911v -9.70901h 0.227911v 4.85451h 0.227911v -33.9815h 0.227911v 48.5451h 0.227911v -33.9815h 0.455822v -4.85451h 0.227911v 24.2725h 0.227911v -14.5635h 0.227911v -14.5635h 0.227911v -14.5635h 0.227911v 38.8361h 0.227911v
 -19.418h 0.227911v -19.418h 0.455822v 29.127h 0.227911v -67.9631h 0.227911v 72.8176h 0.227911v -19.418h 0.227911v -19.418h 0.227911v 33.9815h 0.227911v -14.5635h 0.455822v 4.85451h 0.227911v 14.5635h 0.227911v -43.6906h 0.227911v 9.70901h 0.227911v
 38.8361h 0.227911v -19.418h 0.227911v 14.5635h 0.227911v -33.9815h 0.227911v 14.5635h 0.227911v -19.418h 0.227911v 24.2725h 0.227911v -29.127h 0.227911v 43.6906h 0.227911v -4.85451h 0.227911v -19.418h 0.227911v 4.85451h 0.227911v 29.127h 0.227911v
 -53.3996h 0.227911v 38.8361h 0.227911v -43.6906h 0.227911v 19.418h 0.227911v 19.418h 0.227911v 9.70901h 0.227911v -29.127h 0.227911v 24.2725h 0.227911v -9.70901h 0.227911v -24.2725h 0.227911v 33.9815h 0.227911v 9.70901h 0.227911v -24.2725h 0.455822v
 9.70901h 0.227911v -9.70901h 0.227911v -9.70901h 0.227911v 9.70901h 0.227911v -58.2541h 0.227911v 14.5635h 0.227911v 53.3996h 0.227911v -29.127h 0.227911v 29.127h 0.227911v 4.85451h 0.227911v -24.2725h 0.227911v -24.2725h 0.227911v 58.2541h
 0.227911v -43.6906h 0.227911v 14.5635h 0.227911v -9.70901h 0.227911v -19.418h 0.227911v 63.1086h 0.227911v -48.5451h 0.227911v 9.70901h 0.227911v 9.70901h 0.227911v -29.127h 0.227911v 19.418h 0.227911v -14.5635h 0.227911v 33.9815h 0.227911v
 -48.5451h 0.227911v 67.9631h 0.227911v -48.5451h 0.227911v 33.9815h 0.227911v -48.5451h 0.227911v 53.3996h 0.227911v -43.6906h 0.227911v 9.70901h 0.227911v 24.2725h 0.227911v -4.85451h 0.227911v -29.127h 0.227911v 38.8361h 0.227911v -14.5635h
 0.227911v -29.127h 0.227911v 24.2725h 0.227911v -4.85451h 0.227911v 9.70901h 0.227911v -4.85451h 0.227911v -19.418h 0.227911v 19.418h 0.227911v 19.418h 0.227911v -29.127h 0.227911v 29.127h 0.227911v 4.85451h 0.227911v -33.9815h 0.683734v 4.85451h
 0.227911v 14.5635h 0.227911v -29.127h 0.227911v 4.85451h 0.227911v 24.2725h 0.455822v -4.85451h 0.227911v 9.70901h 0.227911v 4.85451h 0.227911v -9.70901h 0.455822v -4.85451h 0.227911v -48.5451h 0.227911v 77.6721h 0.227911v -53.3996h 0.227911v
 14.5635h 0.227911v 38.8361h 0.227911v -19.418h 0.227911v 9.70901h 0.227911v -33.9815h 0.227911v 4.85451h 0.455822v 29.127h 0.227911v -4.85451h 0.455822v -53.3996h 0.227911v 53.3996h 0.227911v -29.127h 0.227911v 24.2725h 0.227911v 19.418h 0.227911v
 -38.8361h 0.227911v 24.2725h 0.227911v 19.418h 0.227911v -19.418h 0.227911v 4.85451h 0.227911v -24.2725h 0.227911v 4.85451h 0.227911v -24.2725h 0.227911v 14.5635h 0.227911v 24.2725h 0.227911v -4.85451h 0.227911v -4.85451h 0.227911v -9.70901h
 0.227911v 24.2725h 0.227911v -14.5635h 0.455822v 4.85451h 0.227911v -9.70901h 0.227911v -4.85451h 0.227911v 19.418h 0.227911v -19.418h 0.227911v 43.6906h 0.227911v -9.70901h 0.227911v -19.418h 0.227911v 19.418h 0.227911v -29.127h 0.227911v 24.2725h
 0.227911v 4.85451h 0.227911v -9.70901h 0.227911v 4.85451h 0.227911v -4.85451h 0.227911v 4.85451h 0.227911v -9.70901h 0.227911v 38.8361h 0.227911v -43.6906h 0.227911v -14.5635h 0.227911v 43.6906h 0.227911v -53.3996h 0.227911v 33.9815h 0.227911v
 14.5635h 0.227911v -4.85451h 0.227911v 14.5635h 0.455822v -9.70901h 0.227911v -9.70901h 0.227911v 4.85451h 0.227911v -14.5635h 0.227911v 24.2725h 0.227911v -9.70901h 0.227911v 19.418h 0.227911v -24.2725h 0.227911v -14.5635h 0.227911v 24.2725h
 0.455822v -4.85451h 0.227911v -4.85451h 0.227911v 4.85451h 0.455822v 9.70901h 0.455822v -19.418h 0.227911v -4.85451h 0.227911v 19.418h 0.227911v 19.418h 0.227911v -19.418h 0.227911v 9.70901h 0.227911v -19.418h 0.227911v 14.5635h 0.227911v -24.2725h
 0.227911v 19.418h 0.227911v 4.85451h 0.227911v 4.85451h 0.227911v -9.70901h 0.227911v 4.85451h 0.227911v 19.418h 0.227911v -14.5635h 0.227911v 9.70901h 0.227911v -4.85451h 0.227911v 4.85451h 0.227911v -43.6906h 0.227911v 14.5635h 0.227911v 19.418h
 0.227911v -9.70901h 0.227911v 24.2725h 0.227911v -14.5635h 0.227911v -4.85451h 0.227911v -14.5635h 0.227911v 4.85451h 0.227911v 9.70901h 0.227911v -4.85451h 0.227911v 24.2725h 0.227911v -9.70901h 0.227911v -9.70901h 0.227911v -9.70901h 0.227911v
 4.85451h 0.227911v 9.70901h 0.227911v -4.85451h 0.227911v 19.418h 0.227911v -14.5635h 1.13956v -19.418h 0.227911v 24.2725h 0.227911v -19.418h 0.455822v 14.5635h 0.227911v 9.70901h 0.227911v -24.2725h 0.227911v 9.70901h 0.227911v 14.5635h 0.227911v
 -4.85451h 0.227911v -19.418h 0.227911v 4.85451h 0.227911v 24.2725h 0.227911v -14.5635h 0.227911v 4.85451h 0.227911v 4.85451h 0.227911v -4.85451h 0.227911v 14.5635h 0.227911v -24.2725h 0.227911v 9.70901h 0.455822v 14.5635h 0.227911v -14.5635h
 0.227911v 4.85451h 0.227911v 4.85451h 0.227911v -14.5635h 0.227911v 19.418h 0.455822v -4.85451h 0.227911v 4.85451h 0.227911v -9.70901h 0.227911v 14.5635h 0.227911v -19.418h 0.227911v 9.70901h 0.455822v -14.5635h 0.227911v 4.85451h 0.227911v 9.70901h
 0.683734v -19.418h 0.227911v 14.5635h 0.455822v 9.70901h 0.227911v 4.85451h 0.227911v -9.70901h 0.227911v -19.418h 0.227911v 19.418h 0.227911v 4.85451h 0.227911v -9.70901h 0.227911v 4.85451h 0.227911v 4.85451h 0.227911v 4.85451h 0.227911v -4.85451h
 0.227911v -9.70901h 0.227911v 14.5635h 0.227911v -29.127h 0.227911v 14.5635h 0.227911v 9.70901h 0.455822v -14.5635h 0.227911v 19.418h 0.227911v -4.85451h 0.227911v -9.70901h 0.227911v -14.5635h 0.227911v 4.85451h 0.227911v 9.70901h 0.455822v
 4.85451h 0.227911v -9.70901h 0.227911v 14.5635h 0.455822v -4.85451h 0.227911v 9.70901h 0.227911v -4.85451h 0.227911v -4.85451h 0.455822v 4.85451h 0.227911v -9.70901h 0.227911v 4.85451h 0.227911v -4.85451h 0.227911v 14.5635h 0.227911v -4.85451h
 0.455822v -4.85451h 0.227911v -9.70901h 0.227911v 14.5635h 0.227911v 4.85451h 0.227911v -4.85451h 0.227911v 4.85451h 0.227911v -19.418h 0.227911v 9.70901h 0.227911v -4.85451h 0.227911v -4.85451h 0.227911v 14.5635h 0.455822v -4.85451h 0.227911v
 4.85451h 0.455822v -4.85451h 0.683734v 9.70901h 0.227911v -19.418h 0.227911v 9.70901h 0.455822v -9.70901h 0.455822v 9.70901h 0.455822v 4.85451h 0.227911v 4.85451h 0.227911v -4.85451h 0.227911v -19.418h 0.227911v 24.2725h 0.455822v -4.85451h
 0.227911v 4.85451h 0.227911v -19.418h 0.227911v 4.85451h 0.227911v -4.85451h 0.227911v 4.85451h 0.227911v 9.70901h 0.683734v -4.85451h 0.227911v -4.85451h 0.455822v -4.85451h 0.227911v 9.70901h 0.227911v 9.70901h 0.227911v -4.85451h 0.227911v
 -9.70901h 0.227911v 4.85451h 0.455822v 4.85451h 0.455822v -14.5635h 0.227911v 19.418h 0.227911v -9.70901h 0.455822v 9.70901h 0.227911v -9.70901h 0.227911v 9.70901h 0.455822v -14.5635h 0.227911v -9.70901h 0.227911v 19.418h 0.227911v 4.85451h
 0.227911v -19.418h 0.227911v 14.5635h 0.227911v -9.70901h 0.227911v 9.70901h 0.227911v 4.85451h 0.227911v -4.85451h 0.227911v -4.85451h 0.455822v -4.85451h 0.227911v 4.85451h 0.227911v -4.85451h 0.455822v 4.85451h 0.227911v 4.85451h 0.227911v
 -9.70901h 0.227911v -4.85451h 0.227911v -24.2725h 0.227911v 19.418h 0.227911v 9.70901h 0.455822v -4.85451h 0.227911v 4.85451h 0.455822v -4.85451h 0.227911v 14.5635h 0.227911v -19.418h 0.455822v 14.5635h 0.227911v -4.85451h 0.227911v -19.418h
 0.227911v 24.2725h 0.227911v -4.85451h 0.227911v 14.5635h 0.227911v -19.418h 0.227911v 14.5635h 0.227911v -9.70901h 0.227911v 9.70901h 0.227911v -4.85451h 0.227911v -14.5635h 0.455822v -4.85451h 0.227911v 9.70901h 0.227911v 14.5635h 0.227911v
 -14.5635h 0.227911v 4.85451h 0.455822v -4.85451h 0.227911v 9.70901h 0.227911v -14.5635h 0.227911v 9.70901h 0.227911v -14.5635h 0.455822v 14.5635h 0.455822v 4.85451h 0.455822v -24.2725h 0.227911v 19.418h 0.227911v -4.85451h 0.227911v 9.70901h
 0.227911v -4.85451h 0.227911v -24.2725h 0.227911v 29.127h 0.455822v -24.2725h 0.227911v 19.418h 0.227911v -4.85451h 0.227911v -9.70901h 0.227911v 4.85451h 0.227911v -4.85451h 0.227911v -4.85451h 0.227911v 14.5635h 0.455822v -9.70901h 0.455822v
 14.5635h 0.227911v -9.70901h 0.227911v -4.85451h 0.227911v 14.5635h 0.227911v -33.9815h 0.227911v 29.127h 0.227911v -9.70901h 0.227911v 14.5635h 0.227911v -14.5635h 0.227911v 9.70901h 0.227911v -4.85451h 0.227911v 19.418h 0.227911v -33.9815h
 0.455822v 19.418h 0.227911v 4.85451h 0.227911v -19.418h 0.455822v 9.70901h 0.455822v 9.70901h 0.227911v -14.5635h 0.227911v -4.85451h 0.227911v 14.5635h 0.227911v -29.127h 0.227911v 14.5635h 0.455822v 14.5635h 0.227911v -14.5635h 0.227911v -9.70901h
 0.227911v 9.70901h 0.227911v 4.85451h 0.227911v -24.2725h 0.227911v 9.70901h 0.227911v 9.70901h 0.227911v -9.70901h 0.683734v -29.127h 0.227911v 43.6906h 0.227911v -4.85451h 0.227911v 4.85451h 0.227911v 14.5635h 0.227911v -9.70901h 0.227911v
 -48.5451h 0.227911v 58.2541h 0.227911v -38.8361h 0.227911v 9.70901h 0.227911v -19.418h 0.227911v 4.85451h 0.227911v 33.9815h 0.227911v 9.70901h 0.227911v -48.5451h 0.227911v 24.2725h 0.227911v 4.85451h 0.227911v -9.70901h 0.683734v 19.418h 0.227911v
 -14.5635h 0.227911v 9.70901h 0.227911v -24.2725h 0.227911v 9.70901h 0.227911v -4.85451h 0.455822v 4.85451h 0.227911v -4.85451h 0.227911v 4.85451h 0.227911v 4.85451h 0.227911v -24.2725h 0.227911v 4.85451h 0.227911v 29.127h 0.227911v -43.6906h
 0.227911v 24.2725h 0.227911v -9.70901h 0.227911v 19.418h 0.227911v -33.9815h 0.227911v 14.5635h 0.227911v 14.5635h 0.227911v -4.85451h 0.227911v 33.9815h 0.227911v -33.9815h 0.227911v 33.9815h 0.227911v -38.8361h 0.227911v 14.5635h 0.227911v
 -33.9815h 0.227911v 19.418h 0.227911v -4.85451h 0.227911v 19.418h 0.227911v -43.6906h 0.227911v -4.85451h 0.227911v 38.8361h 0.227911v 14.5635h 0.227911v -43.6906h 0.227911v 4.85451h 0.227911v 19.418h 0.227911v -19.418h 0.227911v 9.70901h 0.227911v
 -4.85451h 0.227911v 24.2725h 0.227911v 9.70901h 0.227911v -19.418h 0.455822v 14.5635h 0.227911v -67.9631h 0.227911v 67.9631h 0.227911v -43.6906h 0.227911v 43.6906h 0.227911v -43.6906h 0.227911v 24.2725h 0.455822v -4.85451h 0.227911v 4.85451h
 0.227911v 4.85451h 0.227911v -33.9815h 0.227911v -19.418h 0.227911v 48.5451h 0.227911v -19.418h 0.227911v -4.85451h 0.227911v 38.8361h 0.227911v -4.85451h 0.227911v -24.2725h 0.227911v -9.70901h 0.227911v 33.9815h 0.227911v -4.85451h 0.227911v
 4.85451h 0.227911v 9.70901h 0.227911v -38.8361h 0.455822v 29.127h 0.227911v -19.418h 0.227911v 19.418h 0.227911v -9.70901h 0.227911v 19.418h 0.227911v -4.85451h 0.227911v -4.85451h 0.227911v -14.5635h 0.227911v 4.85451h 0.227911v 19.418h 0.227911v
 -9.70901h 0.227911v -29.127h 0.227911v 19.418h 0.227911v -4.85451h 0.227911v 4.85451h 0.227911v 9.70901h 0.227911v 9.70901h 0.227911v -4.85451h 0.683734v -4.85451h 0.227911v -29.127h 0.227911v 9.70901h 0.227911v 4.85451h 0.227911v 14.5635h 0.227911v
 24.2725h 0.227911v -33.9815h 0.227911v 9.70901h 0.227911v 9.70901h 0.227911v -53.3996h 0.227911v 24.2725h 0.227911v 33.9815h 0.227911v -33.9815h 0.227911v 24.2725h 0.227911v -9.70901h 0.227911v -33.9815h 0.227911v 38.8361h 0.227911v 4.85451h
 0.227911v -29.127h 0.227911v 19.418h 0.227911v 9.70901h 0.227911v 14.5635h 0.227911v -24.2725h 0.227911v -4.85451h 0.227911v 14.5635h 0.227911v -4.85451h 0.227911v -19.418h 0.227911v 9.70901h 0.227911v 24.2725h 0.455822v 9.70901h 0.227911v -48.5451h
 0.227911v 19.418h 0.227911v -4.85451h 0.683734v 14.5635h 0.455822v -4.85451h 0.227911v 9.70901h 0.227911v -53.3996h 0.227911v 24.2725h 0.227911v 4.85451h 0.227911v 19.418h 0.227911v 14.5635h 0.227911v -9.70901h 0.227911v -14.5635h 0.227911v 19.418h
 0.227911v -29.127h 0.227911v 9.70901h 0.227911v -19.418h 0.227911v 19.418h 0.227911v 24.2725h 0.227911v -4.85451h 0.227911v -4.85451h 0.227911v -14.5635h 0.227911v 9.70901h 0.227911v -14.5635h 0.227911v 19.418h 0.227911v -4.85451h 0.227911v
 -4.85451h 0.227911v -14.5635h 0.227911v 29.127h 0.227911v -9.70901h 0.455822v -24.2725h 0.227911v 9.70901h 0.227911v 29.127h 0.227911v -14.5635h 0.227911v 4.85451h 0.227911v -9.70901h 0.227911v -4.85451h 0.227911v -19.418h 0.227911v 24.2725h
 0.227911v 9.70901h 0.227911v 4.85451h 0.227911v 9.70901h 0.227911v -14.5635h 0.227911v 4.85451h 0.227911v 9.70901h 0.227911v -14.5635h 0.227911v 9.70901h 0.227911v -4.85451h 0.227911v -29.127h 0.227911v 29.127h 0.227911v 4.85451h 0.227911v -9.70901h
 0.227911v 14.5635h 0.227911v -43.6906h 0.227911v 9.70901h 0.227911v 24.2725h 0.227911v -9.70901h 0.227911v -19.418h 0.227911v 4.85451h 0.227911v 29.127h 0.227911v -9.70901h 0.227911v 4.85451h 0.227911v 4.85451h 0.227911v -19.418h 0.227911v 4.85451h
 0.227911v -19.418h 0.227911v 29.127h 0.227911v 4.85451h 0.227911v 4.85451h 0.227911v -9.70901h 0.227911v -4.85451h 0.227911v -9.70901h 0.227911v 14.5635h 0.227911v 14.5635h 0.227911v -4.85451h 0.227911v -19.418h 0.227911v 19.418h 0.227911v 4.85451h
 0.227911v -4.85451h 0.227911v -14.5635h 0.227911v 14.5635h 0.227911v -19.418h 0.227911v 4.85451h 0.227911v 19.418h 0.227911v -9.70901h 0.227911v 14.5635h 0.227911v -33.9815h 0.227911v 24.2725h 0.227911v -19.418h 0.227911v 33.9815h 0.227911v -29.127h
 0.227911v 14.5635h 0.227911v -14.5635h 0.227911v 9.70901h 0.227911v 9.70901h 0.455822v -38.8361h 0.227911v 14.5635h 0.227911v 4.85451h 0.455822v 9.70901h 0.227911v 9.70901h 0.227911v 4.85451h 0.455822v -4.85451h 0.227911v 9.70901h 0.227911v
 -9.70901h 0.227911v 14.5635h 0.227911v -29.127h 0.227911v 14.5635h 0.227911v 9.70901h 0.227911v -14.5635h 0.227911v 9.70901h 0.455822v -4.85451h 0.227911v 9.70901h 0.227911v -9.70901h 0.227911v 4.85451h 0.227911v -9.70901h 0.455822v 4.85451h
 0.455822v 14.5635h 0.455822v -19.418h 0.455822v 9.70901h 0.227911v -9.70901h 0.227911v -9.70901h 0.227911v 19.418h 0.227911v 4.85451h 0.227911v -14.5635h 0.227911v 9.70901h 0.227911v -19.418h 0.227911v 14.5635h 0.227911v 9.70901h 0.227911v -9.70901h
 0.227911v -4.85451h 0.227911v 4.85451h 0.227911v 4.85451h 0.227911v 4.85451h 0.227911v -4.85451h 0.227911v -14.5635h 0.227911v 14.5635h 0.227911v 9.70901h 0.455822v -19.418h 0.227911v 19.418h 0.227911v -14.5635h 0.227911v 9.70901h 0.227911v
 -9.70901h 0.227911v 9.70901h 0.227911v -9.70901h 0.227911v -19.418h 0.227911v 24.2725h 0.683734v -9.70901h 0.227911v 24.2725h 0.227911v -9.70901h 0.227911v -4.85451h 0.227911v 9.70901h 0.455822v -4.85451h 0.227911v -4.85451h 0.227911v 9.70901h
 0.227911v -24.2725h 0.227911v 24.2725h 0.455822v 4.85451h 0.227911v -9.70901h 0.455822v 4.85451h 0.455822v -4.85451h 0.227911v -9.70901h 0.227911v 9.70901h 0.227911v 9.70901h 0.455822v -4.85451h 0.455822v -9.70901h 0.227911v 9.70901h 0.227911v
 -4.85451h 0.227911v 4.85451h 0.683734v -14.5635h 0.227911v 14.5635h 0.227911v 4.85451h 0.227911v -4.85451h 0.911645v -9.70901h 0.227911v 4.85451h 0.455822v 4.85451h 0.683734v -9.70901h 0.227911v 4.85451h 0.227911v 4.85451h 0.227911v -4.85451h
 0.227911v -4.85451h 0.227911v 4.85451h 0.227911v 9.70901h 0.227911v -14.5635h 0.227911v 9.70901h 0.227911v 4.85451h 0.455822v -4.85451h 0.455822v 4.85451h 0.911645v -4.85451h 0.911645v 4.85451h 0.227911v -9.70901h 0.227911v 4.85451h 0.227911v
 -4.85451h 0.227911v 9.70901h 0.227911v -9.70901h 0.227911v 4.85451h 0.227911v 4.85451h 0.227911v -4.85451h 0.227911v 4.85451h 0.227911v -4.85451h 0.683734v -4.85451h 0.227911v -4.85451h 0.227911v 14.5635h 0.227911v -4.85451h 0.455822v 4.85451h
 0.455822v -9.70901h 0.227911v 9.70901h 0.227911v -9.70901h 0.227911v 4.85451h 0.227911v 4.85451h 0.227911v -4.85451h 0.227911v 4.85451h 0.227911v -4.85451h 0.683734v 4.85451h 0.227911" fill="none" stroke="#ff0000" stroke-width="2"/>
<path d="M59.4606,233.641l 4.53543, -0.941256l 4.53543, -1.78866l 4.53543, -3.10867l 4.53543, -4.99278l 4.53543, -7.43136l 4.53543, -10.2421l 4.53543, -13.0251l 4.53543, -15.1833l 4.53543, -16.0354l 4.53543, -15.0096l 4.53543, -11.8613l 4.53543,
 -6.82529l 4.53543, -0.622955l 4.53543, 5.70285l 4.53543, 11.0744l 4.53543, 14.6793l 4.53543, 16.1694l 4.53543, 15.6923l 4.53543, 13.7651l 4.53543, 11.0637l 4.53543, 8.21674l 4.53543, 5.67271l 4.53543, 3.65994l 4.53543, 2.22045l 4.53543, 1.27891l
 4.53543, 0.711568l 4.53543, 0.395089l 4.53543, 0.231093l 4.53543, 0.151952l 4.53543, 0.116316l 4.53543, 0.101321l 4.53543, 0.0954162l 4.53543, 0.0932342l 4.53543, 0.0924635l 4.53543, 0.0921619l 4.53543, 0.0919196l 4.53543, 0.0914351l 4.53543,
 0.09022l 4.53543, 0.0872278l 4.53543, 0.0802254l 4.53543, 0.0647161l 4.53543, 0.0322453l 4.53543, -0.0319443l 4.53543, -0.151595l 4.53543, -0.361532l 4.53543, -0.707474l 4.53543, -1.24121l 4.53543, -2.00891l 4.53543, -3.03189" fill="none"
 stroke="#0000ff" stroke-width="2"/>
<path d="M281.697,230.853l 4.53543, -4.28231l 4.53543, -5.66077l 4.53543, -6.98621l 4.53543, -8.00909l 4.53543, -8.4536l 4.53543, -8.08425l 4.53543, -6.78011l 4.53543, -4.59139l 4.53543, -1.75427l 4.53543, 1.34782l 4.53543, 4.26912l 4.53543, 6.6065l
 4.53543, 8.09061l 4.53543, 8.63475l 4.53543, 8.3298l 4.53543, 7.39376l 4.53543, 6.0984l 4.53543, 4.69879l 4.53543, 3.3846l 4.53543, 2.26023l 4.53543, 1.34979l 4.53543, 0.617246l 4.53543, -0.0084211l 4.53543, -0.609627l 4.53543, -1.26053l 4.53543,
 -2.01094l 4.53543, -2.8729l 4.53543, -3.81073l 4.53543, -4.73711l 4.53543, -5.51949l 4.53543, -5.99939l 4.53543, -6.02438l 4.53543, -5.48677l 4.53543, -4.35922l 4.53543, -2.71548l 4.53543, -0.727413l 4.53543, 1.36374l 4.53543, 3.29544l 4.53543,
 4.83802l 4.53543, 5.83949l 4.53543, 6.24892l 4.53543, 6.11392l 4.53543, 5.55593l 4.53543, 4.73333l 4.53543, 3.80427l 4.53543, 2.89849l 4.53543, 2.10288l 4.53543, 1.46025l 4.53543, 0.977405" fill="none" stroke="#0000ff" stroke-width="2"/>
<path d="M503.933,242.422l 4.53543, 0.637534" fill="none" stroke="#0000ff" stroke-width="2"/>
<rect x="354.534" y="17.7907" width="201.035" height="128.093" fill="white"/>
<path d="M354.534,145.883h 201.035" fill="none" stroke="black" stroke-width="2"/>
<path d="M555.569,145.883v -128.093" fill="none" stroke="black" stroke-width="2"/>
<path d="M555.569,17.7907h -201.035" fill="none" stroke="black" stroke-width="2"/>
<path d="M354.534,17.7907v 128.093" fill="none" stroke="black" stroke-width="2"/>
<text x="372.325" y="26.093" fill="black" font-size="9.50958" font-family="Helvetica">
 / ndf 
</text>
<text x="368.767" y="23.1279" fill="black" font-size="6.50639" font-family="Helvetica">
2
</text>
<text x="364.023" y="26.093" fill="black" font-size="9.50958" font-family="Times">
&#0967;
</text>
<text x="494.487" y="26.686" fill="black" font-size="9.50958" font-family="Helvetica">
  1753 / 1879
</text>
<text x="364.023" y="37.3604" fill="black" font-size="9.50958" font-family="Helvetica">
1-Centroid 
</text>
<text x="531.255" y="37.3604" fill="black" font-size="9.50958" font-family="Helvetica">
 1.5
</text>
<text x="525.918" y="37.3604" fill="black" font-size="9.50958" font-family="Times">
&#0177;
</text>
<text x="501.604" y="37.3604" fill="black" font-size="9.50958" font-family="Helvetica">
  2271 
</text>
<text x="364.023" y="48.0348" fill="black" font-size="9.50958" font-family="Helvetica">
1-FWHM   
</text>
<text x="531.255" y="48.0348" fill="black" font-size="9.50958" font-family="Helvetica">
 3.7
</text>
<text x="525.918" y="48.0348" fill="black" font-size="9.50958" font-family="Times">
&#0177;
</text>
<text x="501.604" y="48.0348" fill="black" font-size="9.50958" font-family="Helvetica">
 192.1 
</text>
<text x="364.023" y="58.7092" fill="black" font-size="9.50958" font-family="Helvetica">
1-Counts 
</text>
<text x="526.511" y="58.7092" fill="black" font-size="9.50958" font-family="Helvetica">
 90.3
</text>
<text x="521.173" y="58.7092" fill="black" font-size="9.50958" font-family="Times">
&#0177;
</text>
<text x="496.859" y="58.7092" fill="black" font-size="9.50958" font-family="Helvetica">
  4631 
</text>
<text x="364.023" y="69.3836" fill="black" font-size="9.50958" font-family="Helvetica">
2-Centroid 
</text>
<text x="532.441" y="69.3836" fill="black" font-size="9.50958" font-family="Helvetica">
 2.1
</text>
<text x="527.104" y="69.3836" fill="black" font-size="9.50958" font-family="Times">
&#0177;
</text>
<text x="501.011" y="69.3836" fill="black" font-size="9.50958" font-family="Helvetica">
  3176 
</text>
<text x="364.023" y="80.058" fill="black" font-size="9.50958" font-family="Helvetica">
2-FWHM   
</text>
<text x="531.255" y="80.058" fill="black" font-size="9.50958" font-family="Helvetica">
 4.7
</text>
<text x="525.918" y="80.058" fill="black" font-size="9.50958" font-family="Times">
&#0177;
</text>
<text x="499.825" y="80.058" fill="black" font-size="9.50958" font-family="Helvetica">
 210.6 
</text>
<text x="364.023" y="90.7324" fill="black" font-size="9.50958" font-family="Helvetica">
2-Counts 
</text>
<text x="526.511" y="90.7324" fill="black" font-size="9.50958" font-family="Helvetica">
 72.8
</text>
<text x="521.173" y="90.7324" fill="black" font-size="9.50958" font-family="Times">
&#0177;
</text>
<text x="495.08" y="90.7324" fill="black" font-size="9.50958" font-family="Helvetica">
  2949 
</text>
<text x="364.023" y="101.407" fill="black" font-size="9.50958" font-family="Helvetica">
3-Centroid 
</text>
<text x="531.255" y="101.407" fill="black" font-size="9.50958" font-family="Helvetica">
 2.4
</text>
<text x="525.918" y="101.407" fill="black" font-size="9.50958" font-family="Times">
&#0177;
</text>
<text x="499.825" y="101.407" fill="black" font-size="9.50958" font-family="Helvetica">
  3709 
</text>
<text x="364.023" y="112.081" fill="black" font-size="9.50958" font-family="Helvetica">
3-FWHM   
</text>
<text x="531.255" y="112.081" fill="black" font-size="9.50958" font-family="Helvetica">
 7.8
</text>
<text x="525.918" y="112.081" fill="black" font-size="9.50958" font-family="Times">
&#0177;
</text>
<text x="499.825" y="112.081" fill="black" font-size="9.50958" font-family="Helvetica">
 225.7 
</text>
<text x="364.023" y="122.756" fill="black" font-size="9.50958" font-family="Helvetica">
3-Counts 
</text>
<text x="526.511" y="122.756" fill="black" font-size="9.50958" font-family="Helvetica">
 94.9
</text>
<text x="521.173" y="122.756" fill="black" font-size="9.50958" font-family="Times">
&#0177;
</text>
<text x="495.08" y="122.756" fill="black" font-size="9.50958" font-family="Helvetica">
  2444 
</text>
<text x="364.023" y="132.244" fill="black" font-size="9.50958" font-family="Helvetica">
Intercept 
</text>
<text x="521.173" y="133.43" fill="black" font-size="9.50958" font-family="Helvetica">
 0.436
</text>
<text x="515.836" y="133.43" fill="black" font-size="9.50958" font-family="Times">
&#0177;
</text>
<text x="489.743" y="133.43" fill="black" font-size="9.50958" font-family="Helvetica">
 4.389 
</text>
<text x="364.023" y="143.511" fill="black" font-size="9.50958" font-family="Helvetica">
Slope    
</text>
<text x="501.604" y="144.104" fill="black" font-size="9.50958" font-family="Helvetica">
 0.0001522
</text>
<text x="496.266" y="144.104" fill="black" font-size="9.50958" font-family="Times">
&#0177;
</text>
<text x="452.976" y="144.104" fill="black" font-size="9.50958" font-family="Helvetica">
0.0009538 
</text>
<text x="447.639" y="144.104" fill="black" font-size="9.50958" font-family="Times">
&#8722;
</text>
<text x="445.86" y="144.104" fill="black" font-size="9.50958" font-family="Helvetica">
 
</text>
<path d="M57.1929,246.579h 453.543" fill="none" stroke="black" stroke-width="2"/>
<text x="473.732" y="265.081" fill="black" font-size="9.2974" font-family="Helvetica">
Channels
</text>
<path d="M168.869,240.003v 6.57543" fill="none" stroke="black" stroke-width="2"/>
<path d="M191.661,243.291v 3.28771" fill="none" stroke="black" stroke-width="2"/>
<path d="M214.452,243.291v 3.28771" fill="none" stroke="black" stroke-width="2"/>
<path d="M237.243,243.291v 3.28771" fill="none" stroke="black" stroke-width="2"/>
<path d="M260.034,243.291v 3.28771" fill="none" stroke="black" stroke-width="2"/>
<path d="M282.825,240.003v 6.57543" fill="none" stroke="black" stroke-width="2"/>
<path d="M305.616,243.291v 3.28771" fill="none" stroke="black" stroke-width="2"/>
<path d="M328.407,243.291v 3.28771" fill="none" stroke="black" stroke-width="2"/>
<path d="M351.198,243.291v 3.28771" fill="none" stroke="black" stroke-width="2"/>
<path d="M373.99,243.291v 3.28771" fill="none" stroke="black" stroke-width="2"/>
<path d="M396.781,240.003v 6.57543" fill="none" stroke="black" stroke-width="2"/>
<path d="M419.572,243.291v 3.28771" fill="none" stroke="black" stroke-width="2"/>
<path d="M442.363,243.291v 3.28771" fill="none" stroke="black" stroke-width="2"/>
<path d="M465.154,243.291v 3.28771" fill="none" stroke="black" stroke-width="2"/>
<path d="M487.945,243.291v 3.28771" fill="none" stroke="black" stroke-width="2"/>
<path d="M510.736,240.003v 6.57543" fill="none" stroke="black" stroke-width="2"/>
<path d="M168.869,240.003v 6.57543" fill="none" stroke="black" stroke-width="2"/>
<path d="M146.078,243.291v 3.28771" fill="none" stroke="black" stroke-width="2"/>
<path d="M123.287,243.291v 3.28771" fill="none" stroke="black" stroke-width="2"/>
<path d="M100.496,243.291v 3.28771" fill="none" stroke="black" stroke-width="2"/>
<path d="M77.7049,243.291v 3.28771" fill="none" stroke="black" stroke-width="2"/>
<text x="158.244" y="255.593" fill="black" font-size="9.2974" font-family="Helvetica">
2500
</text>
<text x="272.697" y="255.593" fill="black" font-size="9.2974" font-family="Helvetica">
3000
</text>
<text x="386.557" y="255.593" fill="black" font-size="9.2974" font-family="Helvetica">
3500
</text>
<text x="500.418" y="255.593" fill="black" font-size="9.2974" font-family="Helvetica">
4000
</text>
<path d="M57.1929,246.579v -219.181" fill="none" stroke="black" stroke-width="2"/>
<path d="M70.7992,246.579h -13.6063" fill="none" stroke="black" stroke-width="2"/>
<path d="M63.9961,241.724h -6.80315" fill="none" stroke="black" stroke-width="2"/>
<path d="M63.9961,236.87h -6.80315" fill="none" stroke="black" stroke-width="2"/>
<path d="M63.9961,232.015h -6.80315" fill="none" stroke="black" stroke-width="2"/>
<path d="M63.9961,227.161h -6.80315" fill="none" stroke="black" stroke-width="2"/>
<path d="M70.7992,222.306h -13.6063" fill="none" stroke="black" stroke-width="2"/>
<path d="M63.9961,217.452h -6.80315" fill="none" stroke="black" stroke-width="2"/>
<path d="M63.9961,212.597h -6.80315" fill="none" stroke="black" stroke-width="2"/>
<path d="M63.9961,207.743h -6.80315" fill="none" stroke="black" stroke-width="2"/>
<path d="M63.9961,202.888h -6.80315" fill="none" stroke="black" stroke-width="2"/>
<path d="M70.7992,198.034h -13.6063" fill="none" stroke="black" stroke-width="2"/>
<path d="M63.9961,193.179h -6.80315" fill="none" stroke="black" stroke-width="2"/>
<path d="M63.9961,188.325h -6.80315" fill="none" stroke="black" stroke-width="2"/>
<path d="M63.9961,183.47h -6.80315" fill="none" stroke="black" stroke-width="2"/>
<path d="M63.9961,178.615h -6.80315" fill="none" stroke="black" stroke-width="2"/>
<path d="M70.7992,173.761h -13.6063" fill="none" stroke="black" stroke-width="2"/>
<path d="M63.9961,168.906h -6.80315" fill="none" stroke="black" stroke-width="2"/>
<path d="M63.9961,164.052h -6.80315" fill="none" stroke="black" stroke-width="2"/>
<path d="M63.9961,159.197h -6.80315" fill="none" stroke="black" stroke-width="2"/>
<path d="M63.9961,154.343h -6.80315" fill="none" stroke="black" stroke-width="2"/>
<path d="M70.7992,149.488h -13.6063" fill="none" stroke="black" stroke-width="2"/>
<path d="M63.9961,144.634h -6.80315" fill="none" stroke="black" stroke-width="2"/>
<path d="M63.9961,139.779h -6.80315" fill="none" stroke="black" stroke-width="2"/>
<path d="M63.9961,134.925h -6.80315" fill="none" stroke="black" stroke-width="2"/>
<path d="M63.9961,130.07h -6.80315" fill="none" stroke="black" stroke-width="2"/>
<path d="M70.7992,125.216h -13.6063" fill="none" stroke="black" stroke-width="2"/>
<path d="M63.9961,120.361h -6.80315" fill="none" stroke="black" stroke-width="2"/>
<path d="M63.9961,115.507h -6.80315" fill="none" stroke="black" stroke-width="2"/>
<path d="M63.9961,110.652h -6.80315" fill="none" stroke="black" stroke-width="2"/>
<path d="M63.9961,105.798h -6.80315" fill="none" stroke="black" stroke-width="2"/>
<path d="M70.7992,100.943h -13.6063" fill="none" stroke="black" stroke-width="2"/>
<path d="M63.9961,96.0889h -6.80315" fill="none" stroke="black" stroke-width="2"/>
<path d="M63.9961,91.2344h -6.80315" fill="none" stroke="black" stroke-width="2"/>
<path d="M63.9961,86.3799h -6.80315" fill="none" stroke="black" stroke-width="2"/>
<path d="M63.9961,81.5254h -6.80315" fill="none" stroke="black" stroke-width="2"/>
<path d="M70.7992,76.6709h -13.6063" fill="none" stroke="black" stroke-width="2"/>
<path d="M63.9961,71.8164h -6.80315" fill="none" stroke="black" stroke-width="2"/>
<path d="M63.9961,66.9619h -6.80315" fill="none" stroke="black" stroke-width="2"/>
<path d="M63.9961,62.1073h -6.80315" fill="none" stroke="black" stroke-width="2"/>
<path d="M63.9961,57.2528h -6.80315" fill="none" stroke="black" stroke-width="2"/>
<path d="M70.7992,52.3983h -13.6063" fill="none" stroke="black" stroke-width="2"/>
<path d="M63.9961,47.5438h -6.80315" fill="none" stroke="black" stroke-width="2"/>
<path d="M63.9961,42.6893h -6.80315" fill="none" stroke="black" stroke-width="2"/>
<path d="M63.9961,37.8348h -6.80315" fill="none" stroke="black" stroke-width="2"/>
<path d="M63.9961,32.9803h -6.80315" fill="none" stroke="black" stroke-width="2"/>
<path d="M70.7992,28.1258h -13.6063" fill="none" stroke="black" stroke-width="2"/>
<path d="M70.7992,28.1258h -13.6063" fill="none" stroke="black" stroke-width="2"/>
<text x="49.1278" y="249.662" fill="black" font-size="9.2974" font-family="Helvetica">
0
</text>
<text x="49.1278" y="225.348" fill="black" font-size="9.2974" font-family="Helvetica">
5
</text>
<text x="44.3836" y="201.034" fill="black" font-size="9.2974" font-family="Helvetica">
10
</text>
<text x="43.7906" y="177.314" fill="black" font-size="9.2974" font-family="Helvetica">
15
</text>
<text x="44.3836" y="153" fill="black" font-size="9.2974" font-family="Helvetica">
20
</text>
<text x="43.7906" y="128.686" fill="black" font-size="9.2974" font-family="Helvetica">
25
</text>
<text x="44.3836" y="104.372" fill="black" font-size="9.2974" font-family="Helvetica">
30
</text>
<text x="43.7906" y="80.058" fill="black" font-size="9.2974" font-family="Helvetica">
35
</text>
<text x="44.3836" y="55.7441" fill="black" font-size="9.2974" font-family="Helvetica">
40
</text>
<text x="43.7906" y="31.4302" fill="black" font-size="9.2974" font-family="Helvetica">
45
</text>
<rect x="354.534" y="17.7907" width="201.035" height="128.093" fill="white"/>
<path d="M354.534,145.883h 201.035" fill="none" stroke="black" stroke-width="2"/>
<path d="M555.569,145.883v -128.093" fill="none" stroke="black" stroke-width="2"/>
<path d="M555.569,17.7907h -201.035" fill="none" stroke="black" stroke-width="2"/>
<path d="M354.534,17.7907v 128.093" fill="none" stroke="black" stroke-width="2"/>
<text x="372.325" y="26.093" fill="black" font-size="9.50958" font-family="Helvetica">
 / ndf 
</text>
<text x="368.767" y="23.1279" fill="black" font-size="6.50639" font-family="Helvetica">
2
</text>
<text x="364.023" y="26.093" fill="black" font-size="9.50958" font-family="Times">
&#0967;
</text>
<text x="494.487" y="26.686" fill="black" font-size="9.50958" font-family="Helvetica">
  1753 / 1879
</text>
<text x="364.023" y="37.3604" fill="black" font-size="9.50958" font-family="Helvetica">
1-Centroid 
</text>
<text x="531.255" y="37.3604" fill="black" font-size="9.50958" font-family="Helvetica">
 1.5
</text>
<text x="525.918" y="37.3604" fill="black" font-size="9.50958" font-family="Times">
&#0177;
</text>
<text x="501.604" y="37.3604" fill="black" font-size="9.50958" font-family="Helvetica">
  2271 
</text>
<text x="364.023" y="48.0348" fill="black" font-size="9.50958" font-family="Helvetica">
1-FWHM   
</text>
<text x="531.255" y="48.0348" fill="black" font-size="9.50958" font-family="Helvetica">
 3.7
</text>
<text x="525.918" y="48.0348" fill="black" font-size="9.50958" font-family="Times">
&#0177;
</text>
<text x="501.604" y="48.0348" fill="black" font-size="9.50958" font-family="Helvetica">
 192.1 
</text>
<text x="364.023" y="58.7092" fill="black" font-size="9.50958" font-family="Helvetica">
1-Counts 
</text>
<text x="526.511" y="58.7092" fill="black" font-size="9.50958" font-family="Helvetica">
 90.3
</text>
<text x="521.173" y="58.7092" fill="black" font-size="9.50958" font-family="Times">
&#0177;
</text>
<text x="496.859" y="58.7092" fill="black" font-size="9.50958" font-family="Helvetica">
  4631 
</text>
<text x="364.023" y="69.3836" fill="black" font-size="9.50958" font-family="Helvetica">
2-Centroid 
</text>
<text x="532.441" y="69.3836" fill="black" font-size="9.50958" font-family="Helvetica">
 2.1
</text>
<text x="527.104" y="69.3836" fill="black" font-size="9.50958" font-family="Times">
&#0177;
</text>
<text x="501.011" y="69.3836" fill="black" font-size="9.50958" font-family="Helvetica">
  3176 
</text>
<text x="364.023" y="80.058" fill="black" font-size="9.50958" font-family="Helvetica">
2-FWHM   
</text>
<text x="531.255" y="80.058" fill="black" font-size="9.50958" font-family="Helvetica">
 4.7
</text>
<text x="525.918" y="80.058" fill="black" font-size="9.50958" font-family="Times">
&#0177;
</text>
<text x="499.825" y="80.058" fill="black" font-size="9.50958" font-family="Helvetica">
 210.6 
</text>
<text x="364.023" y="90.7324" fill="black" font-size="9.50958" font-family="Helvetica">
2-Counts 
</text>
<text x="526.511" y="90.7324" fill="black" font-size="9.50958" font-family="Helvetica">
 72.8
</text>
<text x="521.173" y="90.7324" fill="black" font-size="9.50958" font-family="Times">
&#0177;
</text>
<text x="495.08" y="90.7324" fill="black" font-size="9.50958" font-family="Helvetica">
  2949 
</text>
<text x="364.023" y="101.407" fill="black" font-size="9.50958" font-family="Helvetica">
3-Centroid 
</text>
<text x="531.255" y="101.407" fill="black" font-size="9.50958" font-family="Helvetica">
 2.4
</text>
<text x="525.918" y="101.407" fill="black" font-size="9.50958" font-family="Times">
&#0177;
</text>
<text x="499.825" y="101.407" fill="black" font-size="9.50958" font-family="Helvetica">
  3709 
</text>
<text x="364.023" y="112.081" fill="black" font-size="9.50958" font-family="Helvetica">
3-FWHM   
</text>
<text x="531.255" y="112.081" fill="black" font-size="9.50958" font-family="Helvetica">
 7.8
</text>
<text x="525.918" y="112.081" fill="black" font-size="9.50958" font-family="Times">
&#0177;
</text>
<text x="499.825" y="112.081" fill="black" font-size="9.50958" font-family="Helvetica">
 225.7 
</text>
<text x="364.023" y="122.756" fill="black" font-size="9.50958" font-family="Helvetica">
3-Counts 
</text>
<text x="526.511" y="122.756" fill="black" font-size="9.50958" font-family="Helvetica">
 94.9
</text>
<text x="521.173" y="122.756" fill="black" font-size="9.50958" font-family="Times">
&#0177;
</text>
<text x="495.08" y="122.756" fill="black" font-size="9.50958" font-family="Helvetica">
  2444 
</text>
<text x="364.023" y="132.244" fill="black" font-size="9.50958" font-family="Helvetica">
Intercept 
</text>
<text x="521.173" y="133.43" fill="black" font-size="9.50958" font-family="Helvetica">
 0.436
</text>
<text x="515.836" y="133.43" fill="black" font-size="9.50958" font-family="Times">
&#0177;
</text>
<text x="489.743" y="133.43" fill="black" font-size="9.50958" font-family="Helvetica">
 4.389 
</text>
<text x="364.023" y="143.511" fill="black" font-size="9.50958" font-family="Helvetica">
Slope    
</text>
<text x="501.604" y="144.104" fill="black" font-size="9.50958" font-family="Helvetica">
 0.0001522
</text>
<text x="496.266" y="144.104" fill="black" font-size="9.50958" font-family="Times">
&#0177;
</text>
<text x="452.976" y="144.104" fill="black" font-size="9.50958" font-family="Helvetica">
0.0009538 
</text>
<text x="447.639" y="144.104" fill="black" font-size="9.50958" font-family="Times">
&#8722;
</text>
<text x="445.86" y="144.104" fill="black" font-size="9.50958" font-family="Helvetica">
 
</text>
<path d="M59.4606,245.595l 4.53543, -1.0334l 4.53543, -1.8808l 4.53543, -3.20081l 4.53543, -5.08492l 4.53543, -7.52351l 4.53543, -10.3343l 4.53543, -13.1172l 4.53543, -15.2754l 4.53543, -16.1275l 4.53543, -15.1017l 4.53543, -11.9534l 4.53543,
 -6.91744l 4.53543, -0.715099l 4.53543, 5.6107l 4.53543, 10.9822l 4.53543, 14.5872l 4.53543, 16.0773l 4.53543, 15.6001l 4.53543, 13.673l 4.53543, 10.9715l 4.53543, 8.1246l 4.53543, 5.58057l 4.53543, 3.5678l 4.53543, 2.12831l 4.53543, 1.18677l
 4.53543, 0.619424l 4.53543, 0.302945l 4.53543, 0.138949l 4.53543, 0.0598076l 4.53543, 0.0382089h 86.1732" fill="none" stroke="#00ff00" stroke-width="2"/>
<path d="M281.697,246.579h 222.236" fill="none" stroke="#00ff00" stroke-width="2"/>
<path d="M503.933,246.579h 4.53543" fill="none" stroke="#00ff00" stroke-width="2"/>
<path d="M59.4606,246.579h 181.417l 4.53543, -0.0472841l 4.53543, -0.059899l 4.53543, -0.124089l 4.53543, -0.243739l 4.53543, -0.453677l 4.53543, -0.799619l 4.53543, -1.33335l 4.53543, -2.10105l 4.53543, -3.12403" fill="none" stroke="#00ff00"
 stroke-width="2"/>
<path d="M281.697,238.292l 4.53543, -4.37446l 4.53543, -5.75292l 4.53543, -7.07835l 4.53543, -8.10123l 4.53543, -8.54574l 4.53543, -8.1764l 4.53543, -6.87226l 4.53543, -4.68353l 4.53543, -1.84641l 4.53543, 1.2557l 4.53543, 4.17703l 4.53543, 6.5145l
 4.53543, 7.99887l 4.53543, 8.54365l 4.53543, 8.24019l 4.53543, 7.30751l 4.53543, 6.01939l 4.53543, 4.63459l 4.53543, 3.34926l 4.53543, 2.27835l 4.53543, 1.46194l 4.53543, 0.88626l 4.53543, 0.508195l 4.53543, 0.275897l 4.53543, 0.141918l 4.53543,
 0.0692088l 4.53543, 0.032014l 4.53543, 0.0235597h 95.2441" fill="none" stroke="#00ff00" stroke-width="2"/>
<path d="M503.933,246.579h 4.53543" fill="none" stroke="#00ff00" stroke-width="2"/>
<path d="M59.4606,246.579h 222.236" fill="none" stroke="#00ff00" stroke-width="2"/>
<path d="M281.697,246.579h 72.5669l 4.53543, -0.0232484l 4.53543, -0.0279469l 4.53543, -0.0568052l 4.53543, -0.110262l 4.53543, -0.2043l 4.53543, -0.361158l 4.53543, -0.608761l 4.53543, -0.977668l 4.53543, -1.49459l 4.53543, -2.17229l 4.53543,
 -2.99706l 4.53543, -3.91692l 4.53543, -4.83511l 4.53543, -5.61395l 4.53543, -6.09241l 4.53543, -6.11684l 4.53543, -5.57902l 4.53543, -4.45139l 4.53543, -2.80763l 4.53543, -0.819561l 4.53543, 1.27159l 4.53543, 3.2033l 4.53543, 4.74588l 4.53543,
 5.74734l 4.53543, 6.15677l 4.53543, 6.02178l 4.53543, 5.46378l 4.53543, 4.64119l 4.53543, 3.71213l 4.53543, 2.80635l 4.53543, 2.01074l 4.53543, 1.3681l 4.53543, 0.88526" fill="none" stroke="#00ff00" stroke-width="2"/>
<path d="M503.933,245.346l 4.53543, 0.54539" fill="none" stroke="#00ff00" stroke-width="2"/>
<text x="225.255" y="13.6395" fill="black" font-size="13.8185" font-family="Helvetica">
Ag108m_800V.Spe
</text>
<path d="M356.745,204.83h -9.16487" fill="none" stroke="black" stroke-width="2"/>
<path d="M352.162,204.83v 41.7488" fill="none" stroke="black" stroke-width="2"/>
<path d="M356.745,238.642l -4.58243, 7.93701l -4.58243, -7.93701" fill="none" stroke="black" stroke-width="2"/>
<path d="M356.745,204.83h -9.16487" fill="none" stroke="black" stroke-width="2"/>
<path d="M352.162,204.83v 41.7488" fill="none" stroke="black" stroke-width="2"/>
<path d="M356.745,238.642l -4.58243, 7.93701l -4.58243, -7.93701" fill="none" stroke="black" stroke-width="2"/></svg>
