<?xml version="1.0" standalone="no"?>
<svg width="567.429" height="365.602" viewBox="0 0 567.429 365.602" xmlns="http://www.w3.org/2000/svg">
<title>
/home/ADF/hyw543/Attenuation/Calib/c1.svg
</title>
<desc>
Creator: ROOT Version 6.06/08
CreationDate: Tue Jan  8 16:18:42 2019</desc>
<defs>
</defs>
<rect x="0.5" y="0" width="566.929" height="365.102" fill="white"/>
<rect x="57.1929" y="36.5102" width="453.543" height="292.082" fill="white"/>
<rect x="57.1929" y="36.5102" width="453.543" height="292.082" fill="none" stroke="black"/>
<rect x="57.1929" y="36.5102" width="453.543" height="292.082" fill="white"/>
<rect x="57.1929" y="36.5102" width="453.543" height="292.082" fill="none" stroke="black"/>
<path d="M57.1929,270.858h 0.237582v 20.9942h 0.237582v -31.4913h 0.237582v -5.24855h 0.237582v 36.7399h 0.237582v 5.24855h 0.237582v -15.7457h 0.237582v 15.7457h 0.237582v -5.24855h 0.237582v -10.4971h 0.237582v -5.24855h 0.237582v -5.24855h
 0.237582v 31.4913h 0.237582v 5.24855h 0.237582v -10.4971h 0.237582v -5.24855h 0.237582v -20.9942h 0.237582v 20.9942h 0.237582v -20.9942h 0.237582v 20.9942h 0.237582v -15.7457h 1.18791v -10.4971h 0.237582v 36.7399h 0.237582v -20.9942h 0.237582v
 -10.4971h 0.237582v -5.24855h 0.237582v 20.9942h 0.237582v -20.9942h 0.237582v 10.4971h 0.475163v 5.24855h 0.237582v -15.7457h 0.237582v 15.7457h 0.237582v 26.2428h 0.237582v -31.4913h 0.237582v 10.4971h 0.237582v -10.4971h 0.237582v 15.7457h
 0.237582v -31.4913h 0.237582v 26.2428h 0.237582v 26.2428h 0.237582v -41.9884h 0.237582v 10.4971h 0.237582v 10.4971h 0.237582v 5.24855h 0.237582v 5.24855h 0.237582v 10.4971h 0.237582v -10.4971h 0.237582v -5.24855h 0.475163v -5.24855h 0.237582v
 -10.4971h 0.237582v 15.7457h 0.475163v -31.4913h 0.237582v 5.24855h 0.237582v 26.2428h 0.237582v -15.7457h 0.237582v 5.24855h 0.237582v -10.4971h 0.475163v -5.24855h 0.237582v 5.24855h 0.237582v -5.24855h 0.237582v 15.7457h 0.237582v 5.24855h
 0.237582v -20.9942h 0.237582v 20.9942h 0.237582v -10.4971h 0.237582v 10.4971h 0.237582v -10.4971h 0.237582v -15.7457h 0.237582v 10.4971h 0.237582v -26.2428h 0.237582v 15.7457h 0.237582v 15.7457h 0.237582v -15.7457h 0.237582v -10.4971h 0.237582v
 36.7399h 0.237582v 10.4971h 0.475163v -5.24855h 0.475163v -31.4913h 0.237582v 20.9942h 0.237582v 20.9942h 0.237582v -5.24855h 0.237582v -15.7457h 0.237582v 15.7457h 0.237582v -31.4913h 0.237582v 36.7399h 0.237582v -5.24855h 0.237582v -26.2428h
 0.237582v 5.24855h 0.237582v 10.4971h 0.237582v -5.24855h 0.237582v -10.4971h 0.237582v 26.2428h 0.237582v -26.2428h 0.237582v -10.4971h 0.237582v 20.9942h 0.237582v 20.9942h 0.237582v -36.7399h 0.237582v 20.9942h 0.237582v -15.7457h 0.237582v
 5.24855h 0.237582v 5.24855h 0.237582v 15.7457h 0.237582v -15.7457h 0.237582v -5.24855h 0.237582v -10.4971h 0.237582v 36.7399h 0.237582v -5.24855h 0.237582v -26.2428h 0.237582v -26.2428h 0.237582v 47.237h 0.237582v -26.2428h 0.237582v 20.9942h
 0.475163v -15.7457h 0.237582v 15.7457h 0.237582v -41.9884h 0.237582v 41.9884h 0.237582v -20.9942h 0.237582v 20.9942h 0.237582v -15.7457h 0.475163v -5.24855h 0.237582v -36.7399h 0.237582v 62.9826h 0.237582v -26.2428h 0.475163v -5.24855h 0.237582v
 36.7399h 0.237582v -20.9942h 0.475163v 10.4971h 0.237582v -41.9884h 0.237582v 47.237h 0.475163v -36.7399h 0.237582v 15.7457h 0.712745v 15.7457h 0.237582v -15.7457h 0.237582v 26.2428h 0.237582v -20.9942h 0.475163v 10.4971h 0.237582v -10.4971h
 0.237582v -5.24855h 0.237582v 20.9942h 0.237582v -41.9884h 0.237582v 20.9942h 0.237582v 26.2428h 0.237582v -15.7457h 0.237582v -5.24855h 0.475163v -10.4971h 0.237582v 10.4971h 0.237582v 10.4971h 0.237582v -26.2428h 0.237582v 15.7457h 0.475163v
 -31.4913h 0.237582v 26.2428h 0.475163v -10.4971h 0.237582v 5.24855h 0.237582v 15.7457h 0.237582v -20.9942h 0.237582v 26.2428h 0.475163v 15.7457h 0.237582v -36.7399h 0.475163v 31.4913h 0.475163v -15.7457h 0.237582v -5.24855h 0.237582v 20.9942h
 0.237582v -20.9942h 0.237582v 10.4971h 0.237582v -20.9942h 0.237582v 10.4971h 0.237582v 20.9942h 0.237582v -41.9884h 0.237582v 31.4913h 0.237582v 5.24855h 0.237582v -10.4971h 0.237582v 10.4971h 0.237582v -41.9884h 0.475163v 47.237h 0.237582v
 -15.7457h 0.237582v -47.237h 0.237582v 47.237h 0.237582v 15.7457h 0.237582v -26.2428h 0.475163v 5.24855h 0.237582v 15.7457h 0.237582v -26.2428h 0.237582v -10.4971h 0.475163v 15.7457h 0.237582v 5.24855h 0.237582v -31.4913h 0.237582v 47.237h 0.237582v
 -41.9884h 0.237582v 5.24855h 0.237582v -5.24855h 0.237582v 20.9942h 0.237582v -15.7457h 0.237582v 20.9942h 0.237582v 10.4971h 0.237582v 10.4971h 0.237582v -31.4913h 0.237582v 15.7457h 0.237582v -26.2428h 0.237582v -5.24855h 0.237582v 20.9942h
 0.237582v -15.7457h 0.237582v -5.24855h 0.237582v 15.7457h 0.237582v 5.24855h 0.237582v -10.4971h 0.237582v 41.9884h 0.237582v -57.7341h 0.237582v 15.7457h 0.237582v -10.4971h 0.237582v 31.4913h 0.475163v -15.7457h 0.475163v -15.7457h 0.237582v
 31.4913h 0.237582v -26.2428h 0.237582v -15.7457h 0.237582v 5.24855h 0.237582v 41.9884h 0.237582v -10.4971h 0.237582v -20.9942h 0.237582v -5.24855h 0.237582v 15.7457h 0.237582v -10.4971h 0.237582v 5.24855h 0.237582v -10.4971h 0.237582v 5.24855h
 0.237582v 31.4913h 0.237582v -26.2428h 0.237582v 5.24855h 0.237582v -26.2428h 0.237582v 5.24855h 0.237582v 26.2428h 0.237582v -10.4971h 0.237582v 10.4971h 0.237582v -15.7457h 0.237582v 5.24855h 0.237582v -15.7457h 0.237582v -5.24855h 0.237582v
 5.24855h 0.237582v 36.7399h 0.475163v -20.9942h 0.237582v 20.9942h 0.237582v -26.2428h 0.237582v 36.7399h 0.237582v -57.7341h 0.237582v 41.9884h 0.237582v -20.9942h 0.237582v 20.9942h 0.237582v -26.2428h 0.237582v -20.9942h 0.237582v 52.4855h
 0.237582v -36.7399h 0.237582v -26.2428h 0.237582v 15.7457h 0.237582v -10.4971h 0.237582v 36.7399h 0.237582v -15.7457h 0.475163v -10.4971h 0.237582v 20.9942h 0.475163v 10.4971h 0.237582v -47.237h 0.237582v 10.4971h 0.237582v 26.2428h 0.237582v
 -31.4913h 0.237582v -15.7457h 0.237582v 41.9884h 0.237582v 15.7457h 0.237582v -5.24855h 0.237582v -52.4855h 0.237582v 73.4797h 0.237582v -52.4855h 0.237582v 10.4971h 0.237582v 36.7399h 0.237582v -15.7457h 0.237582v -20.9942h 0.237582v 36.7399h
 0.237582v -31.4913h 0.237582v 10.4971h 0.475163v -5.24855h 0.237582v -31.4913h 0.475163v 5.24855h 0.475163v 31.4913h 0.237582v -31.4913h 0.237582v -15.7457h 0.237582v 20.9942h 0.237582v 15.7457h 0.237582v -5.24855h 0.237582v -26.2428h 0.237582v
 31.4913h 0.237582v -36.7399h 0.237582v 5.24855h 0.237582v 20.9942h 0.237582v -20.9942h 0.237582v -10.4971h 0.237582v 20.9942h 0.237582v -10.4971h 0.237582v 10.4971h 0.475163v 20.9942h 0.237582v -31.4913h 0.712745v 20.9942h 0.237582v -5.24855h
 0.237582v -47.237h 0.237582v 68.2312h 0.237582v -47.237h 0.237582v 26.2428h 0.475163v -41.9884h 0.237582v 26.2428h 0.237582v 5.24855h 0.237582v -26.2428h 0.475163v 52.4855h 0.237582v -20.9942h 0.475163v -47.237h 0.237582v 31.4913h 0.475163v
 -10.4971h 0.237582v 26.2428h 0.237582v -41.9884h 0.237582v 31.4913h 0.237582v -15.7457h 0.475163v -36.7399h 0.237582v 62.9826h 0.237582v -36.7399h 0.237582v 26.2428h 0.475163v -10.4971h 0.237582v 47.237h 0.237582v -47.237h 0.237582v 15.7457h
 0.237582v -36.7399h 0.237582v 62.9826h 0.237582v 10.4971h 0.237582v -83.9768h 0.237582v 26.2428h 0.237582v 52.4855h 0.237582v -73.4797h 0.237582v 26.2428h 0.237582v -26.2428h 0.237582v 52.4855h 0.237582v -15.7457h 0.237582v -20.9942h 0.237582v
 41.9884h 0.237582v -52.4855h 0.237582v 20.9942h 0.237582v -26.2428h 0.237582v 15.7457h 0.237582v 10.4971h 0.237582v -10.4971h 0.237582v 5.24855h 0.237582v -10.4971h 0.237582v 31.4913h 0.237582v -47.237h 0.237582v 68.2312h 0.237582v -62.9826h
 0.237582v -10.4971h 0.237582v 57.7341h 0.237582v -41.9884h 0.475163v 15.7457h 0.237582v -83.9768h 0.237582v 83.9768h 0.237582v -15.7457h 0.237582v 5.24855h 0.237582v 15.7457h 0.475163v -20.9942h 0.237582v 10.4971h 0.237582v -5.24855h 0.237582v
 36.7399h 0.237582v -41.9884h 0.237582v -47.237h 0.237582v 52.4855h 0.237582v -31.4913h 0.237582v -5.24855h 0.237582v 26.2428h 0.237582v 26.2428h 0.237582v 15.7457h 0.237582v -26.2428h 0.237582v -20.9942h 0.237582v 20.9942h 0.237582v -31.4913h
 0.237582v 5.24855h 0.475163v 36.7399h 0.237582v -73.4797h 0.237582v 57.7341h 0.237582v -15.7457h 0.237582v -31.4913h 0.237582v 47.237h 0.237582v 10.4971h 0.237582v -10.4971h 0.237582v -5.24855h 0.237582v 10.4971h 0.237582v -52.4855h 0.237582v
 -10.4971h 0.237582v 41.9884h 0.237582v -15.7457h 0.237582v 20.9942h 0.237582v -26.2428h 0.237582v 20.9942h 0.237582v 20.9942h 0.237582v -26.2428h 0.237582v -10.4971h 0.237582v 5.24855h 0.237582v -5.24855h 0.237582v -5.24855h 0.237582v 52.4855h
 0.237582v -26.2428h 0.237582v 20.9942h 0.237582v -41.9884h 0.237582v 26.2428h 0.475163v -15.7457h 0.237582v -5.24855h 0.237582v 15.7457h 0.237582v -26.2428h 0.237582v 31.4913h 0.237582v 5.24855h 0.475163v -5.24855h 0.237582v 5.24855h 0.237582v
 -68.2312h 0.237582v 94.4739h 0.237582v -5.24855h 0.237582v -36.7399h 0.237582v -36.7399h 0.237582v 20.9942h 0.237582v -47.237h 0.237582v 68.2312h 0.237582v -41.9884h 0.237582v 36.7399h 0.237582v -15.7457h 0.237582v 10.4971h 0.237582v -15.7457h
 0.712745v 41.9884h 0.237582v -26.2428h 0.237582v 10.4971h 0.237582v 10.4971h 0.475163v -78.7283h 0.237582v 73.4797h 0.237582v -31.4913h 0.237582v 31.4913h 0.237582v -41.9884h 0.237582v 36.7399h 0.237582v -15.7457h 0.237582v 20.9942h 0.237582v
 20.9942h 0.237582v -68.2312h 0.237582v -36.7399h 0.237582v 57.7341h 0.237582v -41.9884h 0.237582v 83.9768h 0.237582v -47.237h 0.237582v 41.9884h 0.237582v -10.4971h 0.237582v 5.24855h 0.237582v -20.9942h 0.237582v -36.7399h 0.237582v -15.7457h
 0.237582v 57.7341h 0.237582v -5.24855h 0.237582v -5.24855h 0.237582v 15.7457h 0.237582v -15.7457h 0.237582v -36.7399h 0.237582v 10.4971h 0.237582v 5.24855h 0.237582v -36.7399h 0.237582v 47.237h 0.237582v 52.4855h 0.237582v -41.9884h 0.237582v
 36.7399h 0.237582v -57.7341h 0.237582v 41.9884h 0.237582v -31.4913h 0.475163v 10.4971h 0.237582v 15.7457h 0.237582v -31.4913h 0.475163v -10.4971h 0.237582v 68.2312h 0.237582v -26.2428h 0.237582v -20.9942h 0.475163v -15.7457h 0.237582v 52.4855h
 0.237582v -41.9884h 0.475163v -5.24855h 0.237582v -20.9942h 0.237582v 36.7399h 0.237582v -5.24855h 0.237582v -68.2312h 0.237582v 31.4913h 0.237582v 20.9942h 0.237582v 41.9884h 0.237582v 36.7399h 0.237582v -78.7283h 0.475163v -36.7399h 0.237582v
 -57.7341h 0.237582v 31.4913h 0.237582v 78.7283h 0.237582v 15.7457h 0.237582v 41.9884h 0.237582v -26.2428h 0.237582v -36.7399h 0.237582v -26.2428h 0.237582v 31.4913h 0.237582v 41.9884h 0.237582v -41.9884h 0.237582v -5.24855h 0.237582v 5.24855h
 0.237582v -10.4971h 0.237582v -62.9826h 0.237582v 62.9826h 0.237582v 5.24855h 0.475163v 26.2428h 0.237582v -10.4971h 0.237582v 41.9884h 0.237582v -73.4797h 0.237582v 20.9942h 0.237582v -10.4971h 0.237582v 47.237h 0.237582v 26.2428h 0.237582v
 -62.9826h 0.237582v 57.7341h 0.237582v -41.9884h 0.475163v -5.24855h 0.237582v -78.7283h 0.237582v 31.4913h 0.237582v 47.237h 0.237582v 52.4855h 0.237582v -41.9884h 0.237582v -5.24855h 0.237582v 10.4971h 0.237582v -15.7457h 0.237582v -68.2312h
 0.237582v 110.22h 0.237582v -26.2428h 0.475163v 47.237h 0.237582v -52.4855h 0.237582v -20.9942h 0.237582v -36.7399h 0.237582v 47.237h 0.237582v 20.9942h 0.237582v 62.9826h 0.237582v -52.4855h 0.237582v -26.2428h 0.237582v -26.2428h 0.475163v 47.237h
 0.237582v -62.9826h 0.237582v 52.4855h 0.237582v 36.7399h 0.237582v -99.7225h 0.237582v 99.7225h 0.237582v -31.4913h 0.237582v 10.4971h 0.237582v -5.24855h 0.237582v 41.9884h 0.237582v -41.9884h 0.237582v -15.7457h 0.237582v 36.7399h 0.237582v
 5.24855h 0.237582v -41.9884h 0.237582v 41.9884h 0.237582v 5.24855h 0.237582v -47.237h 0.237582v 57.7341h 0.237582v -99.7225h 0.237582v 41.9884h 0.237582v 20.9942h 0.237582v 20.9942h 0.237582v -31.4913h 0.237582v -10.4971h 0.237582v 68.2312h
 0.237582v -52.4855h 0.237582v 41.9884h 0.237582v -26.2428h 0.475163v -47.237h 0.475163v 41.9884h 0.237582v -5.24855h 0.237582v -5.24855h 0.237582v 68.2312h 0.237582v -41.9884h 0.237582v -36.7399h 0.237582v 47.237h 0.237582v -10.4971h 0.237582v
 20.9942h 0.237582v -73.4797h 0.237582v 36.7399h 0.237582v 15.7457h 0.237582v -26.2428h 0.237582v 26.2428h 0.237582v -15.7457h 0.237582v -26.2428h 0.237582v 52.4855h 0.237582v 5.24855h 0.237582v -41.9884h 0.237582v 10.4971h 0.237582v 5.24855h
 0.237582v 20.9942h 0.237582v 15.7457h 0.237582v -41.9884h 0.237582v 36.7399h 0.237582v -31.4913h 0.475163v 20.9942h 0.237582v -31.4913h 0.237582v 36.7399h 0.237582v 5.24855h 0.475163v -36.7399h 0.237582v 47.237h 0.237582v -36.7399h 0.237582v
 10.4971h 0.237582v 20.9942h 0.237582v -20.9942h 0.237582v 57.7341h 0.237582v -62.9826h 0.237582v 47.237h 0.237582v -57.7341h 0.237582v 36.7399h 0.237582v 5.24855h 0.237582v -31.4913h 0.237582v 10.4971h 0.237582v 31.4913h 0.237582v -26.2428h
 0.237582v -68.2312h 0.237582v 68.2312h 0.237582v 15.7457h 0.475163v -62.9826h 0.237582v 73.4797h 0.237582v -10.4971h 0.237582v 5.24855h 0.237582v -5.24855h 0.237582v -15.7457h 0.237582v -20.9942h 0.712745v 57.7341h 0.237582v -10.4971h 0.237582v
 -15.7457h 0.237582v 5.24855h 0.237582v -10.4971h 0.237582v 26.2428h 0.475163v -36.7399h 0.237582v 26.2428h 0.237582v 15.7457h 0.237582v -41.9884h 0.237582v 5.24855h 0.237582v 15.7457h 0.237582v 5.24855h 0.237582v -31.4913h 0.237582v 10.4971h
 0.237582v 10.4971h 0.237582v 26.2428h 0.237582v -62.9826h 0.237582v 10.4971h 0.237582v 26.2428h 0.237582v 10.4971h 0.237582v 26.2428h 0.237582v 10.4971h 0.237582v -20.9942h 0.237582v -31.4913h 0.237582v 10.4971h 0.237582v -10.4971h 0.237582v
 -20.9942h 0.237582v 26.2428h 0.237582v 31.4913h 0.237582v -41.9884h 0.237582v 62.9826h 0.237582v -68.2312h 0.237582v 41.9884h 0.237582v -20.9942h 0.237582v 15.7457h 0.237582v -15.7457h 0.237582v 15.7457h 0.237582v -20.9942h 0.237582v 10.4971h
 0.237582v 31.4913h 0.237582v -20.9942h 0.237582v 5.24855h 0.237582v -36.7399h 0.237582v 47.237h 0.475163v 5.24855h 0.237582v -20.9942h 0.237582v -20.9942h 0.237582v 36.7399h 0.237582v -26.2428h 0.237582v 26.2428h 0.237582v 10.4971h 0.237582v
 -20.9942h 0.237582v -20.9942h 0.237582v 26.2428h 0.237582v 10.4971h 0.237582v -5.24855h 0.237582v -10.4971h 0.237582v 5.24855h 0.475163v 10.4971h 0.237582v 5.24855h 0.237582v -15.7457h 0.237582v -20.9942h 0.237582v 20.9942h 0.237582v -5.24855h
 0.475163v 10.4971h 0.237582v -20.9942h 0.237582v 36.7399h 0.237582v -5.24855h 0.237582v -31.4913h 0.237582v 10.4971h 0.237582v 10.4971h 0.237582v -10.4971h 0.237582v -5.24855h 0.237582v 20.9942h 0.237582v 20.9942h 0.237582v -57.7341h 0.237582v
 52.4855h 0.237582v -26.2428h 0.475163v 26.2428h 0.237582v -10.4971h 0.237582v -5.24855h 0.237582v 15.7457h 0.237582v -15.7457h 0.237582v -5.24855h 0.237582v 31.4913h 0.237582v -26.2428h 0.237582v -5.24855h 0.237582v 5.24855h 0.237582v -20.9942h
 0.237582v 20.9942h 0.237582v -10.4971h 0.237582v -5.24855h 0.237582v -10.4971h 0.237582v 20.9942h 0.237582v -10.4971h 0.237582v 10.4971h 0.237582v 5.24855h 0.237582v 10.4971h 0.237582v 5.24855h 0.237582v -10.4971h 0.475163v -20.9942h 0.237582v
 10.4971h 0.237582v 15.7457h 0.237582v -5.24855h 0.237582v -5.24855h 0.237582v 5.24855h 0.237582v -15.7457h 0.237582v 15.7457h 0.237582v 15.7457h 0.237582v -26.2428h 0.237582v 26.2428h 0.475163v -10.4971h 0.237582v -5.24855h 0.237582v 5.24855h
 0.237582v 10.4971h 0.237582v -10.4971h 0.237582v 10.4971h 0.475163v -15.7457h 0.237582v 10.4971h 0.237582v -10.4971h 0.237582v 15.7457h 0.237582v -26.2428h 0.237582v -5.24855h 0.237582v 5.24855h 0.237582v 20.9942h 0.237582v 5.24855h 0.475163v
 -20.9942h 0.237582v 10.4971h 0.237582v 5.24855h 0.237582v -15.7457h 0.237582v 5.24855h 0.237582v -15.7457h 0.237582v 15.7457h 0.237582v -5.24855h 0.237582v 20.9942h 0.237582v -15.7457h 0.237582v -5.24855h 0.237582v 10.4971h 0.237582v 5.24855h
 0.237582v 15.7457h 0.237582v -15.7457h 0.237582v -5.24855h 0.237582v -5.24855h 0.237582v 20.9942h 0.237582v -5.24855h 0.237582v -20.9942h 0.237582v 5.24855h 0.237582v -10.4971h 0.237582v 26.2428h 0.237582v -15.7457h 0.712745v 10.4971h 0.237582v
 -5.24855h 0.237582v 15.7457h 0.237582v -10.4971h 0.237582v 15.7457h 0.237582v -36.7399h 0.237582v 31.4913h 0.475163v -20.9942h 0.237582v 10.4971h 0.237582v 5.24855h 0.237582v -10.4971h 0.237582v 10.4971h 0.237582v -20.9942h 0.237582v 15.7457h
 0.237582v 15.7457h 0.237582v -26.2428h 0.237582v 20.9942h 0.237582v -10.4971h 0.237582v -15.7457h 0.237582v 26.2428h 0.475163v -15.7457h 0.237582v -20.9942h 0.237582v 20.9942h 0.237582v 20.9942h 0.237582v -10.4971h 0.237582v 5.24855h 0.475163v
 -20.9942h 0.237582v 15.7457h 0.237582v -5.24855h 0.237582v 10.4971h 0.237582v -15.7457h 0.237582v 10.4971h 0.237582v -5.24855h 0.237582v -10.4971h 0.237582v 15.7457h 0.237582v -10.4971h 0.475163v -5.24855h 0.237582v 10.4971h 0.475163v 5.24855h
 0.712745v 5.24855h 0.237582v -10.4971h 0.237582v -5.24855h 0.237582v 20.9942h 0.475163v -26.2428h 0.237582v 5.24855h 0.237582v 10.4971h 0.237582v 10.4971h 0.237582v -26.2428h 0.237582v 20.9942h 0.237582v -26.2428h 0.237582v 26.2428h 0.237582v
 -5.24855h 0.237582v -10.4971h 0.237582v -20.9942h 0.237582v 41.9884h 0.237582v -36.7399h 0.237582v 10.4971h 0.237582v -20.9942h 0.237582v -5.24855h 0.237582v 36.7399h 0.237582v -10.4971h 0.237582v 15.7457h 0.237582v -10.4971h 0.237582v 5.24855h
 0.237582v -10.4971h 0.237582v 5.24855h 0.950326v -10.4971h 0.237582v -5.24855h 0.237582v 20.9942h 0.475163v 15.7457h 0.237582v -36.7399h 0.237582v 15.7457h 0.237582v 15.7457h 0.237582v -10.4971h 0.237582v -5.24855h 0.475163v -5.24855h 0.237582v
 26.2428h 0.237582v -5.24855h 0.237582v -5.24855h 0.237582v -26.2428h 0.237582v 5.24855h 0.237582v -5.24855h 0.237582v 10.4971h 0.237582v 15.7457h 0.950326v -10.4971h 0.237582v 15.7457h 0.237582v -31.4913h 0.237582v 10.4971h 0.237582v 5.24855h
 0.237582v -10.4971h 0.237582v 31.4913h 0.237582v -31.4913h 0.237582v -10.4971h 0.237582v 20.9942h 0.237582v 5.24855h 0.237582v 5.24855h 0.237582v -31.4913h 0.237582v 20.9942h 0.237582v -5.24855h 0.237582v 10.4971h 0.237582v -15.7457h 0.475163v
 5.24855h 0.237582v 15.7457h 0.237582v -26.2428h 0.237582v 26.2428h 0.712745v -15.7457h 0.237582v -5.24855h 0.237582v 15.7457h 0.237582v -5.24855h 0.237582v 5.24855h 0.237582v -10.4971h 0.712745v 10.4971h 0.237582v -26.2428h 0.237582v 26.2428h
 0.237582v -15.7457h 0.475163v 5.24855h 0.237582v -26.2428h 0.237582v 47.237h 0.237582v -15.7457h 0.237582v 15.7457h 0.237582v -15.7457h 0.237582v -5.24855h 0.237582v -26.2428h 0.237582v 26.2428h 0.237582v 10.4971h 0.237582v -10.4971h 0.237582v
 5.24855h 0.475163v -10.4971h 0.237582v 15.7457h 0.237582v -10.4971h 0.237582v -10.4971h 0.237582v 26.2428h 0.237582v -26.2428h 0.237582v -5.24855h 0.237582v 10.4971h 0.237582v 20.9942h 0.237582v -26.2428h 0.237582v 15.7457h 0.475163v -20.9942h
 0.475163v 5.24855h 0.237582v 10.4971h 0.237582v -15.7457h 0.237582v 15.7457h 0.237582v 10.4971h 0.237582v -10.4971h 0.237582v -5.24855h 0.237582v 15.7457h 0.237582v -5.24855h 0.237582v -15.7457h 0.237582v 5.24855h 0.237582v 10.4971h 0.237582v
 -15.7457h 0.237582v 10.4971h 0.237582v -26.2428h 0.237582v -5.24855h 0.237582v 31.4913h 0.237582v -10.4971h 0.475163v 10.4971h 0.237582v -10.4971h 0.237582v -5.24855h 0.475163v -10.4971h 0.237582v -15.7457h 0.237582v 52.4855h 0.237582v -47.237h
 0.237582v 26.2428h 0.237582v -36.7399h 0.237582v 10.4971h 0.237582v 41.9884h 0.237582v -20.9942h 0.237582v 10.4971h 0.237582v -5.24855h 0.237582v 10.4971h 0.237582v -10.4971h 0.237582v -10.4971h 0.712745v 5.24855h 0.237582v -41.9884h 0.237582v
 41.9884h 0.237582v -15.7457h 0.237582v 31.4913h 0.237582v -5.24855h 0.237582v -31.4913h 0.237582v 5.24855h 0.237582v -5.24855h 0.712745v -5.24855h 0.237582v 5.24855h 0.237582v 20.9942h 0.237582v -41.9884h 0.237582v 47.237h 0.237582v -15.7457h
 0.237582v -5.24855h 0.237582v 15.7457h 0.237582v -52.4855h 0.237582v 62.9826h 0.237582v -62.9826h 0.237582v 36.7399h 0.237582v 26.2428h 0.237582v -41.9884h 0.237582v 52.4855h 0.237582v -26.2428h 0.475163v 15.7457h 0.475163v -62.9826h 0.237582v
 36.7399h 0.475163v -5.24855h 0.237582v -47.237h 0.237582v 5.24855h 0.237582v 47.237h 0.237582v 15.7457h 0.237582v -26.2428h 0.237582v 10.4971h 0.475163v 5.24855h 0.237582v -15.7457h 0.237582v -5.24855h 0.237582v 10.4971h 0.237582v -20.9942h
 0.237582v -10.4971h 0.237582v 15.7457h 0.237582v 26.2428h 0.237582v -10.4971h 0.237582v -5.24855h 0.237582v -10.4971h 0.237582v 20.9942h 0.237582v -36.7399h 0.237582v 26.2428h 0.237582v -26.2428h 0.237582v 15.7457h 0.237582v -5.24855h 0.237582v
 10.4971h 0.237582v 20.9942h 0.237582v -47.237h 0.237582v 36.7399h 0.237582v -5.24855h 0.237582v 10.4971h 0.237582v -41.9884h 0.237582v 10.4971h 0.237582v 31.4913h 0.237582v -10.4971h 0.237582v -20.9942h 0.237582v -15.7457h 0.237582v -5.24855h
 0.237582v 26.2428h 0.237582v 5.24855h 0.475163v 5.24855h 0.475163v -31.4913h 0.237582v 15.7457h 0.237582v -26.2428h 0.237582v 26.2428h 0.237582v 15.7457h 0.237582v -20.9942h 0.237582v -20.9942h 0.237582v 31.4913h 0.237582v 68.2312h 0.237582v
 -73.4797h 0.237582v 20.9942h 0.237582v -36.7399h 0.237582v 20.9942h 0.237582v 5.24855h 0.237582v 20.9942h 0.237582v -20.9942h 0.237582v 15.7457h 0.237582v -62.9826h 0.237582v 26.2428h 0.475163v 10.4971h 0.237582v 26.2428h 0.237582v -36.7399h
 0.237582v -31.4913h 0.237582v 52.4855h 0.237582v -10.4971h 0.475163v 10.4971h 0.712745v 15.7457h 0.237582v -10.4971h 0.237582v -5.24855h 0.237582v -73.4797h 0.237582v 41.9884h 0.237582v 15.7457h 0.237582v -26.2428h 0.237582v -26.2428h 0.237582v
 41.9884h 0.237582v -10.4971h 0.237582v 57.7341h 0.237582v -83.9768h 0.237582v 31.4913h 0.237582v -52.4855h 0.237582v 41.9884h 0.237582v 5.24855h 0.237582v 36.7399h 0.237582v -62.9826h 0.237582v 52.4855h 0.237582v -57.7341h 0.237582v 52.4855h
 0.237582v 15.7457h 0.237582v -15.7457h 0.237582v -36.7399h 0.237582v 68.2312h 0.237582v -52.4855h 0.237582v 20.9942h 0.237582v -47.237h 0.237582v 10.4971h 0.237582v 15.7457h 0.237582v -10.4971h 0.237582v 10.4971h 0.237582v 10.4971h 0.237582v
 20.9942h 0.475163v -31.4913h 0.237582v -26.2428h 0.237582v 41.9884h 0.237582v 15.7457h 0.237582v -26.2428h 0.237582v -5.24855h 0.237582v 10.4971h 0.237582v -31.4913h 0.237582v 20.9942h 0.237582v 15.7457h 0.237582v 31.4913h 0.237582v -47.237h
 0.237582v 5.24855h 0.237582v -10.4971h 0.237582v -26.2428h 0.237582v -10.4971h 0.237582v 20.9942h 0.237582v 5.24855h 0.237582v 10.4971h 0.237582v -5.24855h 0.237582v -20.9942h 0.237582v 26.2428h 0.237582v -73.4797h 0.237582v 78.7283h 0.237582v
 15.7457h 0.237582v -31.4913h 0.237582v 10.4971h 0.237582v -47.237h 0.237582v 47.237h 0.237582v -15.7457h 0.237582v 31.4913h 0.237582v -5.24855h 0.237582v -20.9942h 0.237582v 26.2428h 0.237582v -47.237h 0.237582v 10.4971h 0.237582v 20.9942h 0.237582v
 47.237h 0.237582v -73.4797h 0.237582v 10.4971h 0.237582v -5.24855h 0.237582v -5.24855h 0.237582v 26.2428h 0.237582v 15.7457h 0.237582v -10.4971h 0.237582v -41.9884h 0.237582v 15.7457h 0.237582v -15.7457h 0.237582v -31.4913h 0.237582v 41.9884h
 0.475163v -10.4971h 0.237582v 5.24855h 0.237582v 47.237h 0.237582v -68.2312h 0.237582v 47.237h 0.237582v 41.9884h 0.237582v -26.2428h 0.237582v -36.7399h 0.237582v 36.7399h 0.237582v -26.2428h 0.237582v 26.2428h 0.237582v -15.7457h 0.475163v
 -15.7457h 0.237582v 5.24855h 0.237582v -20.9942h 0.237582v 20.9942h 0.237582v 10.4971h 0.237582v 15.7457h 0.237582v -41.9884h 0.237582v -5.24855h 0.237582v 57.7341h 0.237582v -47.237h 0.712745v 15.7457h 0.237582v -20.9942h 0.237582v 5.24855h
 0.237582v 26.2428h 0.237582v -26.2428h 0.237582v 15.7457h 0.237582v -20.9942h 0.237582v 31.4913h 0.237582v -15.7457h 0.475163v 31.4913h 0.237582v -47.237h 0.237582v 31.4913h 0.237582v 31.4913h 0.237582v -36.7399h 0.237582v -31.4913h 0.237582v
 5.24855h 0.237582v 15.7457h 0.237582v 20.9942h 0.237582v -41.9884h 0.237582v 26.2428h 0.237582v 15.7457h 0.237582v -26.2428h 0.237582v 20.9942h 0.237582v -31.4913h 0.237582v -52.4855h 0.237582v 52.4855h 0.237582v 5.24855h 0.237582v 52.4855h
 0.237582v -47.237h 0.475163v -15.7457h 0.237582v 31.4913h 0.237582v -15.7457h 0.237582v 5.24855h 0.237582v 5.24855h 0.237582v -20.9942h 0.237582v 47.237h 0.237582v -26.2428h 0.475163v -47.237h 0.237582v 26.2428h 0.237582v 31.4913h 0.237582v 10.4971h
 0.237582v 10.4971h 0.237582v -73.4797h 0.237582v 73.4797h 0.237582v -26.2428h 0.237582v -57.7341h 0.237582v 52.4855h 0.237582v 5.24855h 0.237582v 41.9884h 0.237582v -62.9826h 0.237582v 36.7399h 0.237582v -41.9884h 0.237582v 26.2428h 0.237582v
 -31.4913h 0.237582v 41.9884h 0.237582v 26.2428h 0.237582v -47.237h 0.237582v 15.7457h 0.237582v 15.7457h 0.237582v -20.9942h 0.237582v -5.24855h 0.237582v 15.7457h 0.237582v 5.24855h 0.237582v -20.9942h 0.237582v 5.24855h 0.237582v -5.24855h
 0.237582v 41.9884h 0.237582v -5.24855h 0.237582v -36.7399h 0.950326v 68.2312h 0.237582v -15.7457h 0.237582v -31.4913h 0.237582v 15.7457h 0.237582v -15.7457h 0.237582v -10.4971h 0.237582v -41.9884h 0.237582v 31.4913h 0.237582v -26.2428h 0.237582v
 52.4855h 0.237582v -15.7457h 0.475163v -20.9942h 0.237582v -10.4971h 0.237582v -36.7399h 0.237582v 94.4739h 0.237582v -36.7399h 0.237582v 10.4971h 0.237582v 20.9942h 0.237582v -47.237h 0.237582v 5.24855h 0.237582v 15.7457h 0.237582v -10.4971h
 0.237582v 41.9884h 0.237582v -20.9942h 0.237582v -36.7399h 0.237582v 47.237h 0.237582v -36.7399h 0.237582v 20.9942h 0.237582v 5.24855h 0.237582v 15.7457h 0.237582v -10.4971h 0.237582v 20.9942h 0.237582v -31.4913h 0.237582v -15.7457h 0.237582v
 -10.4971h 0.237582v 41.9884h 0.237582v -57.7341h 0.237582v 52.4855h 0.237582v 20.9942h 0.237582v -5.24855h 0.237582v 5.24855h 0.237582v -31.4913h 0.237582v 57.7341h 0.237582v -31.4913h 0.237582v 20.9942h 0.237582v -57.7341h 0.237582v 10.4971h
 0.237582v 31.4913h 0.237582v -5.24855h 0.237582v 15.7457h 0.237582v -20.9942h 0.237582v -5.24855h 0.237582v 10.4971h 0.237582v 10.4971h 0.237582v -5.24855h 0.237582v 15.7457h 0.237582v -36.7399h 0.237582v 26.2428h 0.237582v -15.7457h 0.237582v
 20.9942h 0.237582v -26.2428h 0.237582v 20.9942h 0.237582v 5.24855h 0.237582v -52.4855h 0.237582v 62.9826h 0.237582v -26.2428h 0.237582v 10.4971h 0.237582v -31.4913h 0.237582v 47.237h 0.237582v -26.2428h 0.237582v 5.24855h 0.237582v -26.2428h
 0.237582v 47.237h 0.237582v -41.9884h 0.237582v 47.237h 0.237582v -31.4913h 0.237582v 20.9942h 0.237582v -31.4913h 0.475163v 52.4855h 0.237582v -68.2312h 0.237582v 36.7399h 0.475163v 5.24855h 0.237582v 10.4971h 0.475163v -31.4913h 0.237582v 36.7399h
 0.237582v -36.7399h 0.237582v -10.4971h 0.237582v 36.7399h 0.237582v 26.2428h 0.237582v -15.7457h 0.237582v -31.4913h 0.237582v -5.24855h 0.237582v 5.24855h 0.237582v 41.9884h 0.237582v -62.9826h 0.237582v 57.7341h 0.237582v -26.2428h 0.237582v
 15.7457h 0.237582v -5.24855h 0.237582v -36.7399h 0.237582v -10.4971h 0.237582v 57.7341h 0.237582v -36.7399h 0.237582v 36.7399h 0.237582v -5.24855h 0.237582v -15.7457h 0.237582v 15.7457h 0.237582v 47.237h 0.237582v -41.9884h 0.237582v -47.237h
 0.237582v 5.24855h 0.475163v 62.9826h 0.237582v -41.9884h 0.237582v 26.2428h 0.475163v -10.4971h 0.237582v 10.4971h 0.237582v -5.24855h 0.237582v 15.7457h 0.237582v 5.24855h 0.237582v -31.4913h 0.237582v -41.9884h 0.237582v 31.4913h 0.237582v
 26.2428h 0.237582v -5.24855h 0.475163v 26.2428h 0.237582v -20.9942h 0.237582v -10.4971h 0.237582v 26.2428h 0.237582v -5.24855h 0.237582v 20.9942h 0.237582v -10.4971h 0.237582v -20.9942h 0.237582v 10.4971h 0.237582v -10.4971h 0.237582v -10.4971h
 0.237582v 15.7457h 0.475163v 15.7457h 0.237582v -26.2428h 0.712745v -15.7457h 0.237582v 47.237h 0.237582v -15.7457h 0.237582v -20.9942h 0.237582v 26.2428h 0.237582v 5.24855h 0.237582v 15.7457h 0.237582v -15.7457h 0.475163v -20.9942h 0.237582v
 26.2428h 0.237582v -10.4971h 0.237582v 15.7457h 0.237582v -20.9942h 0.237582v 5.24855h 0.237582v 10.4971h 0.237582v 5.24855h 0.237582v 10.4971h 0.237582v -10.4971h 0.237582v -15.7457h 0.237582v 5.24855h 0.475163v 5.24855h 0.475163v -36.7399h
 0.237582v 41.9884h 0.475163v -10.4971h 0.237582v 10.4971h 0.237582v -20.9942h 0.237582v 41.9884h 0.237582v -57.7341h 0.475163v 31.4913h 0.237582v 10.4971h 0.237582v 10.4971h 0.237582v -26.2428h 0.712745v -5.24855h 0.237582v 5.24855h 0.475163v
 -20.9942h 0.237582v 10.4971h 0.237582v 10.4971h 0.237582v -5.24855h 0.237582v 20.9942h 0.237582v -5.24855h 0.475163v -31.4913h 0.237582v 20.9942h 0.237582v 20.9942h 0.237582v 5.24855h 0.237582v -26.2428h 0.237582v 20.9942h 0.237582v -15.7457h
 0.237582v 5.24855h 0.237582v -5.24855h 0.237582v 10.4971h 0.475163v 5.24855h 0.237582v -20.9942h 0.237582v 5.24855h 0.237582v 15.7457h 0.237582v -10.4971h 0.475163v 10.4971h 0.475163v 5.24855h 0.237582v -15.7457h 0.237582v 15.7457h 0.237582v
 10.4971h 0.237582v -20.9942h 0.237582v -5.24855h 0.237582v -20.9942h 0.237582v 15.7457h 0.237582v 26.2428h 0.237582v -15.7457h 0.237582v 5.24855h 0.237582v -5.24855h 0.237582v -15.7457h 0.237582v 15.7457h 0.475163v 5.24855h 0.237582v -5.24855h
 0.237582v -15.7457h 0.475163v 36.7399h 0.237582v -41.9884h 0.237582v 36.7399h 0.237582v -15.7457h 0.237582v -5.24855h 0.237582v 26.2428h 0.237582v -26.2428h 0.237582v 15.7457h 0.237582v 5.24855h 0.237582v -20.9942h 0.475163v -5.24855h 0.475163v
 20.9942h 0.237582v -5.24855h 0.237582v 15.7457h 0.237582v -15.7457h 0.237582v -5.24855h 0.237582v 15.7457h 0.237582v -15.7457h 0.237582v 5.24855h 0.237582v -5.24855h 0.237582v 5.24855h 0.475163v -15.7457h 0.237582v 5.24855h 0.237582v 20.9942h
 0.237582v -5.24855h 0.475163v -26.2428h 0.237582v 31.4913h 0.237582v -15.7457h 0.237582v 26.2428h 0.237582v -15.7457h 0.237582v -5.24855h 0.237582v 5.24855h 0.237582v 5.24855h 0.237582v -5.24855h 0.237582v -10.4971h 0.237582v 10.4971h 0.237582v
 -10.4971h 0.237582v 20.9942h 0.237582v -15.7457h 0.237582v 15.7457h 0.237582v -5.24855h 0.237582v -15.7457h 0.237582v 10.4971h 0.237582v 15.7457h 0.237582v -26.2428h 0.237582v 5.24855h 0.237582v 15.7457h 0.237582v -10.4971h 0.475163v 15.7457h
 0.237582v -10.4971h 0.237582v -10.4971h 0.237582v 20.9942h 0.237582v -20.9942h 0.237582v 15.7457h 0.712745v -10.4971h 0.237582v 5.24855h 0.237582v -10.4971h 0.237582v -5.24855h 0.237582v 20.9942h 0.237582v -10.4971h 0.237582v 5.24855h 0.237582v
 -10.4971h 0.237582v 20.9942h 0.237582v -5.24855h 0.237582v 5.24855h 0.475163v -10.4971h 0.475163v 5.24855h 0.237582v -5.24855h 0.237582v -15.7457h 0.237582v 20.9942h 0.237582v -15.7457h 0.237582v 5.24855h 0.475163v 15.7457h 0.237582v -20.9942h
 0.475163v 10.4971h 0.237582v -15.7457h 0.237582v 20.9942h 0.237582v -5.24855h 0.237582v -10.4971h 0.237582v 15.7457h 0.475163v 5.24855h 0.237582v -10.4971h 0.237582v -5.24855h 0.237582v 5.24855h 0.475163v -10.4971h 0.237582v 20.9942h 0.237582v
 -15.7457h 0.237582v 10.4971h 0.475163v 5.24855h 0.237582v -5.24855h 0.237582v -5.24855h 0.237582v 5.24855h 0.237582v -5.24855h 0.237582v -5.24855h 0.237582v 10.4971h 0.950326v -5.24855h 0.237582v 10.4971h 0.237582v -15.7457h 0.237582v 10.4971h
 0.237582v 5.24855h 0.712745v -15.7457h 0.237582v 5.24855h 0.712745v 10.4971h 0.475163v -20.9942h 0.237582v 5.24855h 0.237582v 5.24855h 0.237582v 5.24855h 0.237582v 5.24855h 0.237582v -15.7457h 0.237582v 15.7457h 0.475163v -15.7457h 0.237582v
 5.24855h 0.237582v 5.24855h 0.237582v -5.24855h 0.237582v 10.4971h 0.475163v -5.24855h 0.475163v -10.4971h 0.237582v 10.4971h 0.237582v 5.24855h 0.237582v -5.24855h 0.237582v 5.24855h 0.950326v -15.7457h 0.237582v 15.7457h 0.712745v -5.24855h
 0.950326v 5.24855h 0.237582v -10.4971h 0.237582v -5.24855h 0.237582v 15.7457h 0.237582v -5.24855h 0.237582v 5.24855h 0.237582v -5.24855h 0.475163v 5.24855h 0.237582v -5.24855h 0.475163v -10.4971h 0.237582v 10.4971h 0.950326v -5.24855h 0.237582v
 10.4971h 0.475163v -10.4971h 0.237582v 5.24855h 0.237582v -5.24855h 0.237582v 5.24855h 0.237582v 5.24855h 0.475163v -5.24855h 0.237582v 5.24855h 0.237582v -5.24855h 0.237582v -5.24855h 0.237582v 10.4971h 0.712745v -5.24855h 0.475163v -10.4971h
 0.237582v 15.7457h 0.475163v -5.24855h 0.475163v 5.24855h 0.475163v -5.24855h 0.475163v 5.24855h 0.237582v -5.24855h 0.475163v 5.24855h 0.237582v -10.4971h 0.237582v 10.4971h 0.475163v -5.24855h 0.237582v -5.24855h 0.475163v 10.4971h 0.712745v
 -5.24855h 0.712745v 5.24855h 0.237582v -10.4971h 0.237582v 10.4971h 0.237582v -5.24855h 0.475163v 5.24855h 0.237582v -5.24855h 0.712745v -5.24855h 0.237582v -10.4971h 0.237582v 10.4971h 0.237582v 10.4971h 0.475163v -10.4971h 0.237582v 5.24855h
 0.475163v 5.24855h 0.237582v -5.24855h 0.237582v 5.24855h 0.237582v -5.24855h 0.237582v -5.24855h 0.237582v 5.24855h 0.237582v -5.24855h 0.237582v 5.24855h 0.237582v 5.24855h 0.475163v -10.4971h 0.712745v 5.24855h 0.237582v 5.24855h 0.237582v
 -5.24855h 0.950326v 5.24855h 0.712745v -5.24855h 0.950326v 5.24855h 1.42549v -5.24855h 0.237582v 5.24855h 0.237582v -10.4971h 0.237582v 5.24855h 0.475163v 5.24855h 0.237582v -5.24855h 0.237582v 5.24855h 0.237582v -5.24855h 0.475163v -5.24855h
 0.475163v 10.4971h 0.237582v -15.7457h 0.237582v 15.7457h 0.237582v -5.24855h 0.237582v 5.24855h 0.237582v -10.4971h 0.475163v 5.24855h 0.475163v 5.24855h 0.237582v -5.24855h 0.237582v 5.24855h 0.237582v -5.24855h 0.237582v -5.24855h 0.475163v
 5.24855h 0.237582v 5.24855h 0.237582v -5.24855h 0.475163v 5.24855h 0.475163v -5.24855h 0.475163v 5.24855h 0.712745v -5.24855h 0.237582v 5.24855h 1.18791v -10.4971h 0.237582v 10.4971h 0.237582v -5.24855h 0.475163v 5.24855h 0.237582v -5.24855h
 0.712745v 5.24855h 1.18791v -5.24855h 0.237582v 5.24855h 0.237582v -5.24855h 0.237582v 5.24855h 0.237582" fill="none" stroke="#ff0000" stroke-width="2"/>
<path d="M59.4606,292.922l 4.53543, 0.267594l 4.53543, 0.22499l 4.53543, 0.15771l 4.53543, 0.0543057l 4.53543, -0.100277l 4.53543, -0.324921l 4.53543, -0.64203l 4.53543, -1.07644l 4.53543, -1.65332l 4.53543, -2.39483l 4.53543, -3.31567l 4.53543,
 -4.41766l 4.53543, -5.68411l 4.53543, -7.07477l 4.53543, -8.52254l 4.53543, -9.93336l 4.53543, -11.1899l 4.53543, -12.1603l 4.53543, -12.7107l 4.53543, -12.7213l 4.53543, -12.1036l 4.53543, -10.8163l 4.53543, -8.87611l 4.53543, -6.36269l 4.53543,
 -3.41451l 4.53543, -0.216786l 4.53543, 3.01776l 4.53543, 6.07231l 4.53543, 8.74998l 4.53543, 10.8948l 4.53543, 12.4065l 4.53543, 13.2472l 4.53543, 13.4398l 4.53543, 13.0582l 4.53543, 12.2135l 4.53543, 11.0364l 4.53543, 9.66047l 4.53543, 8.20833l
 4.53543, 6.78118l 4.53543, 5.45332l 4.53543, 4.27082l 4.53543, 3.25354l 4.53543, 2.39929l 4.53543, 1.68914l 4.53543, 1.09257l 4.53543, 0.572273l 4.53543, 0.0879727l 4.53543, -0.400453l 4.53543, -0.930409" fill="none" stroke="#0000ff"
 stroke-width="2"/>
<path d="M281.697,304.189l 4.53543, -1.53422l 4.53543, -2.23669l 4.53543, -3.05245l 4.53543, -3.98314l 4.53543, -5.01473l 4.53543, -6.11542l 4.53543, -7.23482l 4.53543, -8.30496l 4.53543, -9.24368l 4.53543, -9.96052l 4.53543, -10.365l 4.53543,
 -10.3763l 4.53543, -9.93411l 4.53543, -9.00771l 4.53543, -7.60324l 4.53543, -5.76693l 4.53543, -3.58385l 4.53543, -1.17167l 4.53543, 1.32972l 4.53543, 3.77167l 4.53543, 6.01138l 4.53543, 7.92573l 4.53543, 9.42244l 4.53543, 10.4472l 4.53543, 10.9858l
 4.53543, 11.0621l 4.53543, 10.7313l 4.53543, 10.0709l 4.53543, 9.17042l 4.53543, 8.12154l 4.53543, 7.00926l 4.53543, 5.90582l 4.53543, 4.86705l 4.53543, 3.93122l 4.53543, 3.11999l 4.53543, 2.44082l 4.53543, 1.8902l 4.53543, 1.45705l 4.53543,
 1.12593l 4.53543, 0.879666l 4.53543, 0.701301l 4.53543, 0.575396l 4.53543, 0.488724l 4.53543, 0.430507l 4.53543, 0.392335l 4.53543, 0.367893l 4.53543, 0.352604l 4.53543, 0.34326l 4.53543, 0.337677" fill="none" stroke="#0000ff" stroke-width="2"/>
<path d="M503.933,325.367l 4.53543, 0.334416" fill="none" stroke="#0000ff" stroke-width="2"/>
<rect x="351.996" y="23.7317" width="204.094" height="131.437" fill="white"/>
<path d="M351.996,155.169h 204.094" fill="none" stroke="black" stroke-width="2"/>
<path d="M556.091,155.169v -131.437" fill="none" stroke="black" stroke-width="2"/>
<path d="M556.091,23.7317h -204.094" fill="none" stroke="black" stroke-width="2"/>
<path d="M351.996,23.7317v 131.437" fill="none" stroke="black" stroke-width="2"/>
<text x="373.539" y="36.2835" fill="black" font-size="12.7923" font-family="Helvetica">
 / ndf 
</text>
<text x="369.004" y="31.748" fill="black" font-size="8.69488" font-family="Helvetica">
2
</text>
<text x="362.201" y="36.2835" fill="black" font-size="12.7923" font-family="Times">
&#0967;
</text>
<text x="474.453" y="37.4173" fill="black" font-size="12.7923" font-family="Helvetica">
  1894 / 1802
</text>
<text x="362.201" y="53.2913" fill="black" font-size="12.7923" font-family="Helvetica">
1-Centroid 
</text>
<text x="525.476" y="52.1575" fill="black" font-size="12.7923" font-family="Helvetica">
 1.9
</text>
<text x="518.673" y="52.1575" fill="black" font-size="12.7923" font-family="Times">
&#0177;
</text>
<text x="484.657" y="52.1575" fill="black" font-size="12.7923" font-family="Helvetica">
  5981 
</text>
<text x="362.201" y="70.2992" fill="black" font-size="12.7923" font-family="Helvetica">
1-FWHM   
</text>
<text x="527.744" y="69.1654" fill="black" font-size="12.7923" font-family="Helvetica">
 3.1
</text>
<text x="520.941" y="69.1654" fill="black" font-size="12.7923" font-family="Times">
&#0177;
</text>
<text x="484.657" y="69.1654" fill="black" font-size="12.7923" font-family="Helvetica">
 297.8 
</text>
<text x="362.201" y="86.1732" fill="black" font-size="12.7923" font-family="Helvetica">
1-Counts 
</text>
<text x="511.87" y="85.0394" fill="black" font-size="12.7923" font-family="Helvetica">
 143.8
</text>
<text x="505.067" y="85.0394" fill="black" font-size="12.7923" font-family="Times">
&#0177;
</text>
<text x="468.783" y="85.0394" fill="black" font-size="12.7923" font-family="Helvetica">
  8706 
</text>
<text x="362.201" y="103.181" fill="black" font-size="12.7923" font-family="Helvetica">
2-Centroid 
</text>
<text x="525.476" y="102.047" fill="black" font-size="12.7923" font-family="Helvetica">
 1.9
</text>
<text x="518.673" y="102.047" fill="black" font-size="12.7923" font-family="Times">
&#0177;
</text>
<text x="482.39" y="102.047" fill="black" font-size="12.7923" font-family="Helvetica">
  6772 
</text>
<text x="362.201" y="119.055" fill="black" font-size="12.7923" font-family="Helvetica">
2-Counts 
</text>
<text x="514.138" y="117.921" fill="black" font-size="12.7923" font-family="Helvetica">
 116.1
</text>
<text x="507.335" y="117.921" fill="black" font-size="12.7923" font-family="Times">
&#0177;
</text>
<text x="471.051" y="117.921" fill="black" font-size="12.7923" font-family="Helvetica">
  8078 
</text>
<text x="362.201" y="134.929" fill="black" font-size="12.7923" font-family="Helvetica">
Intercept 
</text>
<text x="518.673" y="134.929" fill="black" font-size="12.7923" font-family="Helvetica">
 0.82
</text>
<text x="511.87" y="134.929" fill="black" font-size="12.7923" font-family="Times">
&#0177;
</text>
<text x="475.587" y="134.929" fill="black" font-size="12.7923" font-family="Helvetica">
 24.88 
</text>
<text x="362.201" y="150.803" fill="black" font-size="12.7923" font-family="Helvetica">
Slope    
</text>
<text x="491.461" y="150.803" fill="black" font-size="12.7923" font-family="Helvetica">
 0.000117
</text>
<text x="484.657" y="150.803" fill="black" font-size="12.7923" font-family="Times">
&#0177;
</text>
<text x="430.232" y="150.803" fill="black" font-size="12.7923" font-family="Helvetica">
0.003297 
</text>
<text x="423.429" y="150.803" fill="black" font-size="12.7923" font-family="Times">
&#8722;
</text>
<text x="421.161" y="150.803" fill="black" font-size="12.7923" font-family="Helvetica">
 
</text>
<path d="M57.1929,328.592h 453.543" fill="none" stroke="black" stroke-width="2"/>
<text x="459.713" y="353.764" fill="black" font-size="12.2235" font-family="Helvetica">
Channels
</text>
<path d="M61.707,319.83v 8.76246" fill="none" stroke="black" stroke-width="2"/>
<path d="M85.4651,324.211v 4.38123" fill="none" stroke="black" stroke-width="2"/>
<path d="M109.223,324.211v 4.38123" fill="none" stroke="black" stroke-width="2"/>
<path d="M132.981,324.211v 4.38123" fill="none" stroke="black" stroke-width="2"/>
<path d="M156.74,324.211v 4.38123" fill="none" stroke="black" stroke-width="2"/>
<path d="M180.498,319.83v 8.76246" fill="none" stroke="black" stroke-width="2"/>
<path d="M204.256,324.211v 4.38123" fill="none" stroke="black" stroke-width="2"/>
<path d="M228.014,324.211v 4.38123" fill="none" stroke="black" stroke-width="2"/>
<path d="M251.772,324.211v 4.38123" fill="none" stroke="black" stroke-width="2"/>
<path d="M275.53,324.211v 4.38123" fill="none" stroke="black" stroke-width="2"/>
<path d="M299.289,319.83v 8.76246" fill="none" stroke="black" stroke-width="2"/>
<path d="M323.047,324.211v 4.38123" fill="none" stroke="black" stroke-width="2"/>
<path d="M346.805,324.211v 4.38123" fill="none" stroke="black" stroke-width="2"/>
<path d="M370.563,324.211v 4.38123" fill="none" stroke="black" stroke-width="2"/>
<path d="M394.321,324.211v 4.38123" fill="none" stroke="black" stroke-width="2"/>
<path d="M418.079,319.83v 8.76246" fill="none" stroke="black" stroke-width="2"/>
<path d="M61.707,319.83v 8.76246" fill="none" stroke="black" stroke-width="2"/>
<path d="M418.079,319.83v 8.76246" fill="none" stroke="black" stroke-width="2"/>
<path d="M441.838,324.211v 4.38123" fill="none" stroke="black" stroke-width="2"/>
<path d="M465.596,324.211v 4.38123" fill="none" stroke="black" stroke-width="2"/>
<path d="M489.354,324.211v 4.38123" fill="none" stroke="black" stroke-width="2"/>
<text x="46.9882" y="340.157" fill="black" font-size="12.2235" font-family="Helvetica">
5500
</text>
<text x="166.043" y="340.157" fill="black" font-size="12.2235" font-family="Helvetica">
6000
</text>
<text x="285.098" y="340.157" fill="black" font-size="12.2235" font-family="Helvetica">
6500
</text>
<text x="404.154" y="340.157" fill="black" font-size="12.2235" font-family="Helvetica">
7000
</text>
<path d="M57.1929,328.592v -292.082" fill="none" stroke="black" stroke-width="2"/>
<path d="M70.7992,328.592h -13.6063" fill="none" stroke="black" stroke-width="2"/>
<path d="M63.9961,318.095h -6.80315" fill="none" stroke="black" stroke-width="2"/>
<path d="M63.9961,307.598h -6.80315" fill="none" stroke="black" stroke-width="2"/>
<path d="M63.9961,297.101h -6.80315" fill="none" stroke="black" stroke-width="2"/>
<path d="M63.9961,286.604h -6.80315" fill="none" stroke="black" stroke-width="2"/>
<path d="M70.7992,276.107h -13.6063" fill="none" stroke="black" stroke-width="2"/>
<path d="M63.9961,265.609h -6.80315" fill="none" stroke="black" stroke-width="2"/>
<path d="M63.9961,255.112h -6.80315" fill="none" stroke="black" stroke-width="2"/>
<path d="M63.9961,244.615h -6.80315" fill="none" stroke="black" stroke-width="2"/>
<path d="M63.9961,234.118h -6.80315" fill="none" stroke="black" stroke-width="2"/>
<path d="M70.7992,223.621h -13.6063" fill="none" stroke="black" stroke-width="2"/>
<path d="M63.9961,213.124h -6.80315" fill="none" stroke="black" stroke-width="2"/>
<path d="M63.9961,202.627h -6.80315" fill="none" stroke="black" stroke-width="2"/>
<path d="M63.9961,192.13h -6.80315" fill="none" stroke="black" stroke-width="2"/>
<path d="M63.9961,181.633h -6.80315" fill="none" stroke="black" stroke-width="2"/>
<path d="M70.7992,171.136h -13.6063" fill="none" stroke="black" stroke-width="2"/>
<path d="M63.9961,160.638h -6.80315" fill="none" stroke="black" stroke-width="2"/>
<path d="M63.9961,150.141h -6.80315" fill="none" stroke="black" stroke-width="2"/>
<path d="M63.9961,139.644h -6.80315" fill="none" stroke="black" stroke-width="2"/>
<path d="M63.9961,129.147h -6.80315" fill="none" stroke="black" stroke-width="2"/>
<path d="M70.7992,118.65h -13.6063" fill="none" stroke="black" stroke-width="2"/>
<path d="M63.9961,108.153h -6.80315" fill="none" stroke="black" stroke-width="2"/>
<path d="M63.9961,97.6559h -6.80315" fill="none" stroke="black" stroke-width="2"/>
<path d="M63.9961,87.1588h -6.80315" fill="none" stroke="black" stroke-width="2"/>
<path d="M63.9961,76.6617h -6.80315" fill="none" stroke="black" stroke-width="2"/>
<path d="M70.7992,66.1646h -13.6063" fill="none" stroke="black" stroke-width="2"/>
<path d="M70.7992,66.1646h -13.6063" fill="none" stroke="black" stroke-width="2"/>
<path d="M63.9961,55.6674h -6.80315" fill="none" stroke="black" stroke-width="2"/>
<path d="M63.9961,45.1703h -6.80315" fill="none" stroke="black" stroke-width="2"/>
<text x="46.9882" y="332.22" fill="black" font-size="12.2235" font-family="Helvetica">
0
</text>
<text x="40.185" y="280.063" fill="black" font-size="12.2235" font-family="Helvetica">
10
</text>
<text x="40.185" y="227.906" fill="black" font-size="12.2235" font-family="Helvetica">
20
</text>
<text x="40.185" y="174.614" fill="black" font-size="12.2235" font-family="Helvetica">
30
</text>
<text x="40.185" y="122.457" fill="black" font-size="12.2235" font-family="Helvetica">
40
</text>
<text x="40.185" y="70.2992" fill="black" font-size="12.2235" font-family="Helvetica">
50
</text>
<rect x="351.996" y="23.7317" width="204.094" height="131.437" fill="white"/>
<path d="M351.996,155.169h 204.094" fill="none" stroke="black" stroke-width="2"/>
<path d="M556.091,155.169v -131.437" fill="none" stroke="black" stroke-width="2"/>
<path d="M556.091,23.7317h -204.094" fill="none" stroke="black" stroke-width="2"/>
<path d="M351.996,23.7317v 131.437" fill="none" stroke="black" stroke-width="2"/>
<text x="373.539" y="36.2835" fill="black" font-size="12.7923" font-family="Helvetica">
 / ndf 
</text>
<text x="369.004" y="31.748" fill="black" font-size="8.69488" font-family="Helvetica">
2
</text>
<text x="362.201" y="36.2835" fill="black" font-size="12.7923" font-family="Times">
&#0967;
</text>
<text x="474.453" y="37.4173" fill="black" font-size="12.7923" font-family="Helvetica">
  1894 / 1802
</text>
<text x="362.201" y="53.2913" fill="black" font-size="12.7923" font-family="Helvetica">
1-Centroid 
</text>
<text x="525.476" y="52.1575" fill="black" font-size="12.7923" font-family="Helvetica">
 1.9
</text>
<text x="518.673" y="52.1575" fill="black" font-size="12.7923" font-family="Times">
&#0177;
</text>
<text x="484.657" y="52.1575" fill="black" font-size="12.7923" font-family="Helvetica">
  5981 
</text>
<text x="362.201" y="70.2992" fill="black" font-size="12.7923" font-family="Helvetica">
1-FWHM   
</text>
<text x="527.744" y="69.1654" fill="black" font-size="12.7923" font-family="Helvetica">
 3.1
</text>
<text x="520.941" y="69.1654" fill="black" font-size="12.7923" font-family="Times">
&#0177;
</text>
<text x="484.657" y="69.1654" fill="black" font-size="12.7923" font-family="Helvetica">
 297.8 
</text>
<text x="362.201" y="86.1732" fill="black" font-size="12.7923" font-family="Helvetica">
1-Counts 
</text>
<text x="511.87" y="85.0394" fill="black" font-size="12.7923" font-family="Helvetica">
 143.8
</text>
<text x="505.067" y="85.0394" fill="black" font-size="12.7923" font-family="Times">
&#0177;
</text>
<text x="468.783" y="85.0394" fill="black" font-size="12.7923" font-family="Helvetica">
  8706 
</text>
<text x="362.201" y="103.181" fill="black" font-size="12.7923" font-family="Helvetica">
2-Centroid 
</text>
<text x="525.476" y="102.047" fill="black" font-size="12.7923" font-family="Helvetica">
 1.9
</text>
<text x="518.673" y="102.047" fill="black" font-size="12.7923" font-family="Times">
&#0177;
</text>
<text x="482.39" y="102.047" fill="black" font-size="12.7923" font-family="Helvetica">
  6772 
</text>
<text x="362.201" y="119.055" fill="black" font-size="12.7923" font-family="Helvetica">
2-Counts 
</text>
<text x="514.138" y="117.921" fill="black" font-size="12.7923" font-family="Helvetica">
 116.1
</text>
<text x="507.335" y="117.921" fill="black" font-size="12.7923" font-family="Times">
&#0177;
</text>
<text x="471.051" y="117.921" fill="black" font-size="12.7923" font-family="Helvetica">
  8078 
</text>
<text x="362.201" y="134.929" fill="black" font-size="12.7923" font-family="Helvetica">
Intercept 
</text>
<text x="518.673" y="134.929" fill="black" font-size="12.7923" font-family="Helvetica">
 0.82
</text>
<text x="511.87" y="134.929" fill="black" font-size="12.7923" font-family="Times">
&#0177;
</text>
<text x="475.587" y="134.929" fill="black" font-size="12.7923" font-family="Helvetica">
 24.88 
</text>
<text x="362.201" y="150.803" fill="black" font-size="12.7923" font-family="Helvetica">
Slope    
</text>
<text x="491.461" y="150.803" fill="black" font-size="12.7923" font-family="Helvetica">
 0.000117
</text>
<text x="484.657" y="150.803" fill="black" font-size="12.7923" font-family="Times">
&#0177;
</text>
<text x="430.232" y="150.803" fill="black" font-size="12.7923" font-family="Helvetica">
0.003297 
</text>
<text x="423.429" y="150.803" fill="black" font-size="12.7923" font-family="Times">
&#8722;
</text>
<text x="421.161" y="150.803" fill="black" font-size="12.7923" font-family="Helvetica">
 
</text>
<path d="M59.4606,328.511l 4.53543, -0.0627301l 4.53543, -0.105334l 4.53543, -0.172615l 4.53543, -0.276019l 4.53543, -0.430602l 4.53543, -0.655246l 4.53543, -0.972355l 4.53543, -1.40677l 4.53543, -1.98365l 4.53543, -2.72516l 4.53543, -3.64599l
 4.53543, -4.74798l 4.53543, -6.01444l 4.53543, -7.40509l 4.53543, -8.85287l 4.53543, -10.2637l 4.53543, -11.5203l 4.53543, -12.4907l 4.53543, -13.041l 4.53543, -13.0516l 4.53543, -12.4339l 4.53543, -11.1466l 4.53543, -9.20644l 4.53543, -6.69301l
 4.53543, -3.74483l 4.53543, -0.547108l 4.53543, 2.68744l 4.53543, 5.742l 4.53543, 8.41968l 4.53543, 10.5645l 4.53543, 12.0763l 4.53543, 12.9172l 4.53543, 13.11l 4.53543, 12.729l 4.53543, 11.8852l 4.53543, 10.7097l 4.53543, 9.33669l 4.53543, 7.88957l
 4.53543, 6.47085l 4.53543, 5.15686l 4.53543, 3.99664l 4.53543, 3.0143l 4.53543, 2.21363l 4.53543, 1.58361l 4.53543, 1.10404l 4.53543, 0.750335l 4.53543, 0.497258l 4.53543, 0.321417l 4.53543, 0.202677" fill="none" stroke="#00ff00" stroke-width="2"/>
<path d="M281.697,328.294l 4.53543, 0.1247l 4.53543, 0.074873l 4.53543, 0.0438773l 4.53543, 0.0250995l 4.53543, 0.0299303h 199.559" fill="none" stroke="#00ff00" stroke-width="2"/>
<path d="M503.933,328.592h 4.53543" fill="none" stroke="#00ff00" stroke-width="2"/>
<path d="M59.4606,328.592h 172.346l 4.53543, -0.0458289l 4.53543, -0.0338655l 4.53543, -0.0561401l 4.53543, -0.0910928l 4.53543, -0.144657l 4.53543, -0.224795l 4.53543, -0.341792l 4.53543, -0.508386l 4.53543, -0.73961l 4.53543, -1.05219l 4.53543,
 -1.46341" fill="none" stroke="#00ff00" stroke-width="2"/>
<path d="M281.697,323.89l 4.53543, -1.98924l 4.53543, -2.64188l 4.53543, -3.42665l 4.53543, -4.33857l 4.53543, -5.35907l 4.53543, -6.45339l 4.53543, -7.56921l 4.53543, -8.6374l 4.53543, -9.57508l 4.53543, -10.2914l 4.53543, -10.6955l 4.53543,
 -10.7067l 4.53543, -10.2645l 4.53543, -9.33806l 4.53543, -7.93357l 4.53543, -6.09726l 4.53543, -3.91417l 4.53543, -1.502l 4.53543, 0.999397l 4.53543, 3.44135l 4.53543, 5.68106l 4.53543, 7.59541l 4.53543, 9.09211l 4.53543, 10.1168l 4.53543, 10.6555l
 4.53543, 10.7318l 4.53543, 10.4009l 4.53543, 9.74053l 4.53543, 8.84009l 4.53543, 7.79122l 4.53543, 6.67893l 4.53543, 5.5755l 4.53543, 4.53673l 4.53543, 3.6009l 4.53543, 2.78967l 4.53543, 2.1105l 4.53543, 1.55987l 4.53543, 1.12672l 4.53543, 0.795606l
 4.53543, 0.549342l 4.53543, 0.370976l 4.53543, 0.245071l 4.53543, 0.158399l 4.53543, 0.100182l 4.53543, 0.0620105l 4.53543, 0.0375685l 4.53543, 0.051328h 9.07087" fill="none" stroke="#00ff00" stroke-width="2"/>
<path d="M503.933,328.592h 4.53543" fill="none" stroke="#00ff00" stroke-width="2"/>
<text x="221.602" y="18.1417" fill="black" font-size="17.7232" font-family="Helvetica">
Co60_800V.Spe
</text></svg>
