<?xml version="1.0" standalone="no"?>
<svg width="567.429" height="319.742" viewBox="0 0 567.429 319.742" xmlns="http://www.w3.org/2000/svg">
<title>
/home/ADF/hyw543/Attenuation/Calib/c1.svg
</title>
<desc>
Creator: ROOT Version 6.06/08
CreationDate: Mon Jan  7 11:03:26 2019</desc>
<defs>
</defs>
<rect x="0.5" y="0" width="566.929" height="319.242" fill="white"/>
<rect x="57.1929" y="31.9242" width="453.543" height="255.393" fill="white"/>
<rect x="57.1929" y="31.9242" width="453.543" height="255.393" fill="none" stroke="black"/>
<rect x="57.1929" y="31.9242" width="453.543" height="255.393" fill="white"/>
<rect x="57.1929" y="31.9242" width="453.543" height="255.393" fill="none" stroke="black"/>
<path d="M57.1929,255.193h 0.276551v 4.58928h 0.276551v 4.58928h 0.276551v 9.17856h 0.276551v -9.17856h 0.276551v -4.58928h 0.553102v -4.58928h 0.276551v -9.17856h 0.276551v 13.7678h 0.553102v -27.5357h 0.276551v 4.58928h 0.276551v 22.9464h 0.276551v
 -13.7678h 0.276551v 4.58928h 0.276551v -9.17856h 0.553102v -4.58928h 0.276551v 4.58928h 0.276551v -4.58928h 0.276551v 13.7678h 0.276551v 4.58928h 0.276551v -18.3571h 0.276551v 18.3571h 0.276551v -9.17856h 0.276551v 9.17856h 0.276551v -9.17856h
 0.276551v -13.7678h 0.276551v 9.17856h 0.276551v -22.9464h 0.276551v 13.7678h 0.276551v 13.7678h 0.276551v -13.7678h 0.276551v -9.17856h 0.276551v 32.1249h 0.276551v 9.17856h 0.553102v -4.58928h 0.553102v -27.5357h 0.276551v 18.3571h 0.276551v
 18.3571h 0.276551v -4.58928h 0.276551v -13.7678h 0.276551v 13.7678h 0.276551v -27.5357h 0.276551v 32.1249h 0.276551v -4.58928h 0.276551v -22.9464h 0.276551v 4.58928h 0.276551v 9.17856h 0.276551v -4.58928h 0.276551v -9.17856h 0.276551v 22.9464h
 0.276551v -22.9464h 0.276551v -9.17856h 0.276551v 18.3571h 0.276551v 18.3571h 0.276551v -32.1249h 0.276551v 18.3571h 0.276551v -13.7678h 0.276551v 4.58928h 0.276551v 4.58928h 0.276551v 13.7678h 0.276551v -13.7678h 0.276551v -4.58928h 0.276551v
 -9.17856h 0.276551v 32.1249h 0.276551v -4.58928h 0.276551v -22.9464h 0.276551v -22.9464h 0.276551v 41.3035h 0.276551v -22.9464h 0.276551v 18.3571h 0.553102v -13.7678h 0.276551v 13.7678h 0.276551v -36.7142h 0.276551v 36.7142h 0.276551v -18.3571h
 0.276551v 18.3571h 0.276551v -13.7678h 0.553102v -4.58928h 0.276551v -32.1249h 0.276551v 55.0713h 0.276551v -22.9464h 0.553102v -4.58928h 0.276551v 32.1249h 0.276551v -18.3571h 0.553102v 9.17856h 0.276551v -36.7142h 0.276551v 41.3035h 0.553102v
 -32.1249h 0.276551v 13.7678h 0.829652v 13.7678h 0.276551v -13.7678h 0.276551v 22.9464h 0.276551v -18.3571h 0.553102v 9.17856h 0.276551v -9.17856h 0.276551v -4.58928h 0.276551v 18.3571h 0.276551v -36.7142h 0.276551v 18.3571h 0.276551v 22.9464h
 0.276551v -13.7678h 0.276551v -4.58928h 0.553102v -9.17856h 0.276551v 9.17856h 0.276551v 9.17856h 0.276551v -22.9464h 0.276551v 13.7678h 0.553102v -27.5357h 0.276551v 22.9464h 0.553102v -9.17856h 0.276551v 4.58928h 0.276551v 13.7678h 0.276551v
 -18.3571h 0.276551v 22.9464h 0.553102v 13.7678h 0.276551v -32.1249h 0.553102v 27.5357h 0.553102v -13.7678h 0.276551v -4.58928h 0.276551v 18.3571h 0.276551v -18.3571h 0.276551v 9.17856h 0.276551v -18.3571h 0.276551v 9.17856h 0.276551v 18.3571h
 0.276551v -36.7142h 0.276551v 27.5357h 0.276551v 4.58928h 0.276551v -9.17856h 0.276551v 9.17856h 0.276551v -36.7142h 0.553102v 41.3035h 0.276551v -13.7678h 0.276551v -41.3035h 0.276551v 41.3035h 0.276551v 13.7678h 0.276551v -22.9464h 0.553102v
 4.58928h 0.276551v 13.7678h 0.276551v -22.9464h 0.276551v -9.17856h 0.553102v 13.7678h 0.276551v 4.58928h 0.276551v -27.5357h 0.276551v 41.3035h 0.276551v -36.7142h 0.276551v 4.58928h 0.276551v -4.58928h 0.276551v 18.3571h 0.276551v -13.7678h
 0.276551v 18.3571h 0.276551v 9.17856h 0.276551v 9.17856h 0.276551v -27.5357h 0.276551v 13.7678h 0.276551v -22.9464h 0.276551v -4.58928h 0.276551v 18.3571h 0.276551v -13.7678h 0.276551v -4.58928h 0.276551v 13.7678h 0.276551v 4.58928h 0.276551v
 -9.17856h 0.276551v 36.7142h 0.276551v -50.4821h 0.276551v 13.7678h 0.276551v -9.17856h 0.276551v 27.5357h 0.553102v -13.7678h 0.553102v -13.7678h 0.276551v 27.5357h 0.276551v -22.9464h 0.276551v -13.7678h 0.276551v 4.58928h 0.276551v 36.7142h
 0.276551v -9.17856h 0.276551v -18.3571h 0.276551v -4.58928h 0.276551v 13.7678h 0.276551v -9.17856h 0.276551v 4.58928h 0.276551v -9.17856h 0.276551v 4.58928h 0.276551v 27.5357h 0.276551v -22.9464h 0.276551v 4.58928h 0.276551v -22.9464h 0.276551v
 4.58928h 0.276551v 22.9464h 0.276551v -9.17856h 0.276551v 9.17856h 0.276551v -13.7678h 0.276551v 4.58928h 0.276551v -13.7678h 0.276551v -4.58928h 0.276551v 4.58928h 0.276551v 32.1249h 0.553102v -18.3571h 0.276551v 18.3571h 0.276551v -22.9464h
 0.276551v 32.1249h 0.276551v -50.4821h 0.276551v 36.7142h 0.276551v -18.3571h 0.276551v 18.3571h 0.276551v -22.9464h 0.276551v -18.3571h 0.276551v 45.8928h 0.276551v -32.1249h 0.276551v -22.9464h 0.276551v 13.7678h 0.276551v -9.17856h 0.276551v
 32.1249h 0.276551v -13.7678h 0.553102v -9.17856h 0.276551v 18.3571h 0.553102v 9.17856h 0.276551v -41.3035h 0.276551v 9.17856h 0.276551v 22.9464h 0.276551v -27.5357h 0.276551v -13.7678h 0.276551v 36.7142h 0.276551v 13.7678h 0.276551v -4.58928h
 0.276551v -45.8928h 0.276551v 64.2499h 0.276551v -45.8928h 0.276551v 9.17856h 0.276551v 32.1249h 0.276551v -13.7678h 0.276551v -18.3571h 0.276551v 32.1249h 0.276551v -27.5357h 0.276551v 9.17856h 0.553102v -4.58928h 0.276551v -27.5357h 0.553102v
 4.58928h 0.553102v 27.5357h 0.276551v -27.5357h 0.276551v -13.7678h 0.276551v 18.3571h 0.276551v 13.7678h 0.276551v -4.58928h 0.276551v -22.9464h 0.276551v 27.5357h 0.276551v -32.1249h 0.276551v 4.58928h 0.276551v 18.3571h 0.276551v -18.3571h
 0.276551v -9.17856h 0.276551v 18.3571h 0.276551v -9.17856h 0.276551v 9.17856h 0.553102v 18.3571h 0.276551v -27.5357h 0.829652v 18.3571h 0.276551v -4.58928h 0.276551v -41.3035h 0.276551v 59.6606h 0.276551v -41.3035h 0.276551v 22.9464h 0.553102v
 -36.7142h 0.276551v 22.9464h 0.276551v 4.58928h 0.276551v -22.9464h 0.553102v 45.8928h 0.276551v -18.3571h 0.553102v -41.3035h 0.276551v 27.5357h 0.553102v -9.17856h 0.276551v 22.9464h 0.276551v -36.7142h 0.276551v 27.5357h 0.276551v -13.7678h
 0.553102v -32.1249h 0.276551v 55.0713h 0.276551v -32.1249h 0.276551v 22.9464h 0.553102v -9.17856h 0.276551v 41.3035h 0.276551v -41.3035h 0.276551v 13.7678h 0.276551v -32.1249h 0.276551v 55.0713h 0.276551v 9.17856h 0.276551v -73.4284h 0.276551v
 22.9464h 0.276551v 45.8928h 0.276551v -64.2499h 0.276551v 22.9464h 0.276551v -22.9464h 0.276551v 45.8928h 0.276551v -13.7678h 0.276551v -18.3571h 0.276551v 36.7142h 0.276551v -45.8928h 0.276551v 18.3571h 0.276551v -22.9464h 0.276551v 13.7678h
 0.276551v 9.17856h 0.276551v -9.17856h 0.276551v 4.58928h 0.276551v -9.17856h 0.276551v 27.5357h 0.276551v -41.3035h 0.276551v 59.6606h 0.276551v -55.0713h 0.276551v -9.17856h 0.276551v 50.4821h 0.276551v -36.7142h 0.553102v 13.7678h 0.276551v
 -73.4284h 0.276551v 73.4284h 0.276551v -13.7678h 0.276551v 4.58928h 0.276551v 13.7678h 0.553102v -18.3571h 0.276551v 9.17856h 0.276551v -4.58928h 0.276551v 32.1249h 0.276551v -36.7142h 0.276551v -41.3035h 0.276551v 45.8928h 0.276551v -27.5357h
 0.276551v -4.58928h 0.276551v 22.9464h 0.276551v 22.9464h 0.276551v 13.7678h 0.276551v -22.9464h 0.276551v -18.3571h 0.276551v 18.3571h 0.276551v -27.5357h 0.276551v 4.58928h 0.553102v 32.1249h 0.276551v -64.2499h 0.276551v 50.4821h 0.276551v
 -13.7678h 0.276551v -27.5357h 0.276551v 41.3035h 0.276551v 9.17856h 0.276551v -9.17856h 0.276551v -4.58928h 0.276551v 9.17856h 0.276551v -45.8928h 0.276551v -9.17856h 0.276551v 36.7142h 0.276551v -13.7678h 0.276551v 18.3571h 0.276551v -22.9464h
 0.276551v 18.3571h 0.276551v 18.3571h 0.276551v -22.9464h 0.276551v -9.17856h 0.276551v 4.58928h 0.276551v -4.58928h 0.276551v -4.58928h 0.276551v 45.8928h 0.276551v -22.9464h 0.276551v 18.3571h 0.276551v -36.7142h 0.276551v 22.9464h 0.553102v
 -13.7678h 0.276551v -4.58928h 0.276551v 13.7678h 0.276551v -22.9464h 0.276551v 27.5357h 0.276551v 4.58928h 0.553102v -4.58928h 0.276551v 4.58928h 0.276551v -59.6606h 0.276551v 82.607h 0.276551v -4.58928h 0.276551v -32.1249h 0.276551v -32.1249h
 0.276551v 18.3571h 0.276551v -41.3035h 0.276551v 59.6606h 0.276551v -36.7142h 0.276551v 32.1249h 0.276551v -13.7678h 0.276551v 9.17856h 0.276551v -13.7678h 0.829652v 36.7142h 0.276551v -22.9464h 0.276551v 9.17856h 0.276551v 9.17856h 0.553102v
 -68.8392h 0.276551v 64.2499h 0.276551v -27.5357h 0.276551v 27.5357h 0.276551v -36.7142h 0.276551v 32.1249h 0.276551v -13.7678h 0.276551v 18.3571h 0.276551v 18.3571h 0.276551v -59.6606h 0.276551v -32.1249h 0.276551v 50.4821h 0.276551v -36.7142h
 0.276551v 73.4284h 0.276551v -41.3035h 0.276551v 36.7142h 0.276551v -9.17856h 0.276551v 4.58928h 0.276551v -18.3571h 0.276551v -32.1249h 0.276551v -13.7678h 0.276551v 50.4821h 0.276551v -4.58928h 0.276551v -4.58928h 0.276551v 13.7678h 0.276551v
 -13.7678h 0.276551v -32.1249h 0.276551v 9.17856h 0.276551v 4.58928h 0.276551v -32.1249h 0.276551v 41.3035h 0.276551v 45.8928h 0.276551v -36.7142h 0.276551v 32.1249h 0.276551v -50.4821h 0.276551v 36.7142h 0.276551v -27.5357h 0.553102v 9.17856h
 0.276551v 13.7678h 0.276551v -27.5357h 0.553102v -9.17856h 0.276551v 59.6606h 0.276551v -22.9464h 0.276551v -18.3571h 0.553102v -13.7678h 0.276551v 45.8928h 0.276551v -36.7142h 0.553102v -4.58928h 0.276551v -18.3571h 0.276551v 32.1249h 0.276551v
 -4.58928h 0.276551v -59.6606h 0.276551v 27.5357h 0.276551v 18.3571h 0.276551v 36.7142h 0.276551v 32.1249h 0.276551v -68.8392h 0.553102v -32.1249h 0.276551v -50.4821h 0.276551v 27.5357h 0.276551v 68.8392h 0.276551v 13.7678h 0.276551v 36.7142h
 0.276551v -22.9464h 0.276551v -32.1249h 0.276551v -22.9464h 0.276551v 27.5357h 0.276551v 36.7142h 0.276551v -36.7142h 0.276551v -4.58928h 0.276551v 4.58928h 0.276551v -9.17856h 0.276551v -55.0713h 0.276551v 55.0713h 0.276551v 4.58928h 0.553102v
 22.9464h 0.276551v -9.17856h 0.276551v 36.7142h 0.276551v -64.2499h 0.276551v 18.3571h 0.276551v -9.17856h 0.276551v 41.3035h 0.276551v 22.9464h 0.276551v -55.0713h 0.276551v 50.4821h 0.276551v -36.7142h 0.553102v -4.58928h 0.276551v -68.8392h
 0.276551v 27.5357h 0.276551v 41.3035h 0.276551v 45.8928h 0.276551v -36.7142h 0.276551v -4.58928h 0.276551v 9.17856h 0.276551v -13.7678h 0.276551v -59.6606h 0.276551v 96.3748h 0.276551v -22.9464h 0.553102v 41.3035h 0.276551v -45.8928h 0.276551v
 -18.3571h 0.276551v -32.1249h 0.276551v 41.3035h 0.276551v 18.3571h 0.276551v 55.0713h 0.276551v -45.8928h 0.276551v -22.9464h 0.276551v -22.9464h 0.553102v 41.3035h 0.276551v -55.0713h 0.276551v 45.8928h 0.276551v 32.1249h 0.276551v -87.1963h
 0.276551v 87.1963h 0.276551v -27.5357h 0.276551v 9.17856h 0.276551v -4.58928h 0.276551v 36.7142h 0.276551v -36.7142h 0.276551v -13.7678h 0.276551v 32.1249h 0.276551v 4.58928h 0.276551v -36.7142h 0.276551v 36.7142h 0.276551v 4.58928h 0.276551v
 -41.3035h 0.276551v 50.4821h 0.276551v -87.1963h 0.276551v 36.7142h 0.276551v 18.3571h 0.276551v 18.3571h 0.276551v -27.5357h 0.276551v -9.17856h 0.276551v 59.6606h 0.276551v -45.8928h 0.276551v 36.7142h 0.276551v -22.9464h 0.553102v -41.3035h
 0.553102v 36.7142h 0.276551v -4.58928h 0.276551v -4.58928h 0.276551v 59.6606h 0.276551v -36.7142h 0.276551v -32.1249h 0.276551v 41.3035h 0.276551v -9.17856h 0.276551v 18.3571h 0.276551v -64.2499h 0.276551v 32.1249h 0.276551v 13.7678h 0.276551v
 -22.9464h 0.276551v 22.9464h 0.276551v -13.7678h 0.276551v -22.9464h 0.276551v 45.8928h 0.276551v 4.58928h 0.276551v -36.7142h 0.276551v 9.17856h 0.276551v 4.58928h 0.276551v 18.3571h 0.276551v 13.7678h 0.276551v -36.7142h 0.276551v 32.1249h
 0.276551v -27.5357h 0.553102v 18.3571h 0.276551v -27.5357h 0.276551v 32.1249h 0.276551v 4.58928h 0.553102v -32.1249h 0.276551v 41.3035h 0.276551v -32.1249h 0.276551v 9.17856h 0.276551v 18.3571h 0.276551v -18.3571h 0.276551v 50.4821h 0.276551v
 -55.0713h 0.276551v 41.3035h 0.276551v -50.4821h 0.276551v 32.1249h 0.276551v 4.58928h 0.276551v -27.5357h 0.276551v 9.17856h 0.276551v 27.5357h 0.276551v -22.9464h 0.276551v -59.6606h 0.276551v 59.6606h 0.276551v 13.7678h 0.553102v -55.0713h
 0.276551v 64.2499h 0.276551v -9.17856h 0.276551v 4.58928h 0.276551v -4.58928h 0.276551v -13.7678h 0.276551v -18.3571h 0.829652v 50.4821h 0.276551v -9.17856h 0.276551v -13.7678h 0.276551v 4.58928h 0.276551v -9.17856h 0.276551v 22.9464h 0.553102v
 -32.1249h 0.276551v 22.9464h 0.276551v 13.7678h 0.276551v -36.7142h 0.276551v 4.58928h 0.276551v 13.7678h 0.276551v 4.58928h 0.276551v -27.5357h 0.276551v 9.17856h 0.276551v 9.17856h 0.276551v 22.9464h 0.276551v -55.0713h 0.276551v 9.17856h
 0.276551v 22.9464h 0.276551v 9.17856h 0.276551v 22.9464h 0.276551v 9.17856h 0.276551v -18.3571h 0.276551v -27.5357h 0.276551v 9.17856h 0.276551v -9.17856h 0.276551v -18.3571h 0.276551v 22.9464h 0.276551v 27.5357h 0.276551v -36.7142h 0.276551v
 55.0713h 0.276551v -59.6606h 0.276551v 36.7142h 0.276551v -18.3571h 0.276551v 13.7678h 0.276551v -13.7678h 0.276551v 13.7678h 0.276551v -18.3571h 0.276551v 9.17856h 0.276551v 27.5357h 0.276551v -18.3571h 0.276551v 4.58928h 0.276551v -32.1249h
 0.276551v 41.3035h 0.553102v 4.58928h 0.276551v -18.3571h 0.276551v -18.3571h 0.276551v 32.1249h 0.276551v -22.9464h 0.276551v 22.9464h 0.276551v 9.17856h 0.276551v -18.3571h 0.276551v -18.3571h 0.276551v 22.9464h 0.276551v 9.17856h 0.276551v
 -4.58928h 0.276551v -9.17856h 0.276551v 4.58928h 0.553102v 9.17856h 0.276551v 4.58928h 0.276551v -13.7678h 0.276551v -18.3571h 0.276551v 18.3571h 0.276551v -4.58928h 0.553102v 9.17856h 0.276551v -18.3571h 0.276551v 32.1249h 0.276551v -4.58928h
 0.276551v -27.5357h 0.276551v 9.17856h 0.276551v 9.17856h 0.276551v -9.17856h 0.276551v -4.58928h 0.276551v 18.3571h 0.276551v 18.3571h 0.276551v -50.4821h 0.276551v 45.8928h 0.276551v -22.9464h 0.553102v 22.9464h 0.276551v -9.17856h 0.276551v
 -4.58928h 0.276551v 13.7678h 0.276551v -13.7678h 0.276551v -4.58928h 0.276551v 27.5357h 0.276551v -22.9464h 0.276551v -4.58928h 0.276551v 4.58928h 0.276551v -18.3571h 0.276551v 18.3571h 0.276551v -9.17856h 0.276551v -4.58928h 0.276551v -9.17856h
 0.276551v 18.3571h 0.276551v -9.17856h 0.276551v 9.17856h 0.276551v 4.58928h 0.276551v 9.17856h 0.276551v 4.58928h 0.276551v -9.17856h 0.553102v -18.3571h 0.276551v 9.17856h 0.276551v 13.7678h 0.276551v -4.58928h 0.276551v -4.58928h 0.276551v
 4.58928h 0.276551v -13.7678h 0.276551v 13.7678h 0.276551v 13.7678h 0.276551v -22.9464h 0.276551v 22.9464h 0.553102v -9.17856h 0.276551v -4.58928h 0.276551v 4.58928h 0.276551v 9.17856h 0.276551v -9.17856h 0.276551v 9.17856h 0.553102v -13.7678h
 0.276551v 9.17856h 0.276551v -9.17856h 0.276551v 13.7678h 0.276551v -22.9464h 0.276551v -4.58928h 0.276551v 4.58928h 0.276551v 18.3571h 0.276551v 4.58928h 0.553102v -18.3571h 0.276551v 9.17856h 0.276551v 4.58928h 0.276551v -13.7678h 0.276551v
 4.58928h 0.276551v -13.7678h 0.276551v 13.7678h 0.276551v -4.58928h 0.276551v 18.3571h 0.276551v -13.7678h 0.276551v -4.58928h 0.276551v 9.17856h 0.276551v 4.58928h 0.276551v 13.7678h 0.276551v -13.7678h 0.276551v -4.58928h 0.276551v -4.58928h
 0.276551v 18.3571h 0.276551v -4.58928h 0.276551v -18.3571h 0.276551v 4.58928h 0.276551v -9.17856h 0.276551v 22.9464h 0.276551v -13.7678h 0.829652v 9.17856h 0.276551v -4.58928h 0.276551v 13.7678h 0.276551v -9.17856h 0.276551v 13.7678h 0.276551v
 -32.1249h 0.276551v 27.5357h 0.553102v -18.3571h 0.276551v 9.17856h 0.276551v 4.58928h 0.276551v -9.17856h 0.276551v 9.17856h 0.276551v -18.3571h 0.276551v 13.7678h 0.276551v 13.7678h 0.276551v -22.9464h 0.276551v 18.3571h 0.276551v -9.17856h
 0.276551v -13.7678h 0.276551v 22.9464h 0.553102v -13.7678h 0.276551v -18.3571h 0.276551v 18.3571h 0.276551v 18.3571h 0.276551v -9.17856h 0.276551v 4.58928h 0.553102v -18.3571h 0.276551v 13.7678h 0.276551v -4.58928h 0.276551v 9.17856h 0.276551v
 -13.7678h 0.276551v 9.17856h 0.276551v -4.58928h 0.276551v -9.17856h 0.276551v 13.7678h 0.276551v -9.17856h 0.553102v -4.58928h 0.276551v 9.17856h 0.553102v 4.58928h 0.829652v 4.58928h 0.276551v -9.17856h 0.276551v -4.58928h 0.276551v 18.3571h
 0.553102v -22.9464h 0.276551v 4.58928h 0.276551v 9.17856h 0.276551v 9.17856h 0.276551v -22.9464h 0.276551v 18.3571h 0.276551v -22.9464h 0.276551v 22.9464h 0.276551v -4.58928h 0.276551v -9.17856h 0.276551v -18.3571h 0.276551v 36.7142h 0.276551v
 -32.1249h 0.276551v 9.17856h 0.276551v -18.3571h 0.276551v -4.58928h 0.276551v 32.1249h 0.276551v -9.17856h 0.276551v 13.7678h 0.276551v -9.17856h 0.276551v 4.58928h 0.276551v -9.17856h 0.276551v 4.58928h 1.1062v -9.17856h 0.276551v -4.58928h
 0.276551v 18.3571h 0.553102v 13.7678h 0.276551v -32.1249h 0.276551v 13.7678h 0.276551v 13.7678h 0.276551v -9.17856h 0.276551v -4.58928h 0.553102v -4.58928h 0.276551v 22.9464h 0.276551v -4.58928h 0.276551v -4.58928h 0.276551v -22.9464h 0.276551v
 4.58928h 0.276551v -4.58928h 0.276551v 9.17856h 0.276551v 13.7678h 1.1062v -9.17856h 0.276551v 13.7678h 0.276551v -27.5357h 0.276551v 9.17856h 0.276551v 4.58928h 0.276551v -9.17856h 0.276551v 27.5357h 0.276551v -27.5357h 0.276551v -9.17856h
 0.276551v 18.3571h 0.276551v 4.58928h 0.276551v 4.58928h 0.276551v -27.5357h 0.276551v 18.3571h 0.276551v -4.58928h 0.276551v 9.17856h 0.276551v -13.7678h 0.553102v 4.58928h 0.276551v 13.7678h 0.276551v -22.9464h 0.276551v 22.9464h 0.829652v
 -13.7678h 0.276551v -4.58928h 0.276551v 13.7678h 0.276551v -4.58928h 0.276551v 4.58928h 0.276551v -9.17856h 0.829652v 9.17856h 0.276551v -22.9464h 0.276551v 22.9464h 0.276551v -13.7678h 0.553102v 4.58928h 0.276551v -22.9464h 0.276551v 41.3035h
 0.276551v -13.7678h 0.276551v 13.7678h 0.276551v -13.7678h 0.276551v -4.58928h 0.276551v -22.9464h 0.276551v 22.9464h 0.276551v 9.17856h 0.276551v -9.17856h 0.276551v 4.58928h 0.553102v -9.17856h 0.276551v 13.7678h 0.276551v -9.17856h 0.276551v
 -9.17856h 0.276551v 22.9464h 0.276551v -22.9464h 0.276551v -4.58928h 0.276551v 9.17856h 0.276551v 18.3571h 0.276551v -22.9464h 0.276551v 13.7678h 0.553102v -18.3571h 0.553102v 4.58928h 0.276551v 9.17856h 0.276551v -13.7678h 0.276551v 13.7678h
 0.276551v 9.17856h 0.276551v -9.17856h 0.276551v -4.58928h 0.276551v 13.7678h 0.276551v -4.58928h 0.276551v -13.7678h 0.276551v 4.58928h 0.276551v 9.17856h 0.276551v -13.7678h 0.276551v 9.17856h 0.276551v -22.9464h 0.276551v -4.58928h 0.276551v
 27.5357h 0.276551v -9.17856h 0.553102v 9.17856h 0.276551v -9.17856h 0.276551v -4.58928h 0.553102v -9.17856h 0.276551v -13.7678h 0.276551v 45.8928h 0.276551v -41.3035h 0.276551v 22.9464h 0.276551v -32.1249h 0.276551v 9.17856h 0.276551v 36.7142h
 0.276551v -18.3571h 0.276551v 9.17856h 0.276551v -4.58928h 0.276551v 9.17856h 0.276551v -9.17856h 0.276551v -9.17856h 0.829652v 4.58928h 0.276551v -36.7142h 0.276551v 36.7142h 0.276551v -13.7678h 0.276551v 27.5357h 0.276551v -4.58928h 0.276551v
 -27.5357h 0.276551v 4.58928h 0.276551v -4.58928h 0.829652v -4.58928h 0.276551v 4.58928h 0.276551v 18.3571h 0.276551v -36.7142h 0.276551v 41.3035h 0.276551v -13.7678h 0.276551v -4.58928h 0.276551v 13.7678h 0.276551v -45.8928h 0.276551v 55.0713h
 0.276551v -55.0713h 0.276551v 32.1249h 0.276551v 22.9464h 0.276551v -36.7142h 0.276551v 45.8928h 0.276551v -22.9464h 0.553102v 13.7678h 0.553102v -55.0713h 0.276551v 32.1249h 0.553102v -4.58928h 0.276551v -41.3035h 0.276551v 4.58928h 0.276551v
 41.3035h 0.276551v 13.7678h 0.276551v -22.9464h 0.276551v 9.17856h 0.553102v 4.58928h 0.276551v -13.7678h 0.276551v -4.58928h 0.276551v 9.17856h 0.276551v -18.3571h 0.276551v -9.17856h 0.276551v 13.7678h 0.276551v 22.9464h 0.276551v -9.17856h
 0.276551v -4.58928h 0.276551v -9.17856h 0.276551v 18.3571h 0.276551v -32.1249h 0.276551v 22.9464h 0.276551v -22.9464h 0.276551v 13.7678h 0.276551v -4.58928h 0.276551v 9.17856h 0.276551v 18.3571h 0.276551v -41.3035h 0.276551v 32.1249h 0.276551v
 -4.58928h 0.276551v 9.17856h 0.276551v -36.7142h 0.276551v 9.17856h 0.276551v 27.5357h 0.276551v -9.17856h 0.276551v -18.3571h 0.276551v -13.7678h 0.276551v -4.58928h 0.276551v 22.9464h 0.276551v 4.58928h 0.553102v 4.58928h 0.553102v -27.5357h
 0.276551v 13.7678h 0.276551v -22.9464h 0.276551v 22.9464h 0.276551v 13.7678h 0.276551v -18.3571h 0.276551v -18.3571h 0.276551v 27.5357h 0.276551v 59.6606h 0.276551v -64.2499h 0.276551v 18.3571h 0.276551v -32.1249h 0.276551v 18.3571h 0.276551v
 4.58928h 0.276551v 18.3571h 0.276551v -18.3571h 0.276551v 13.7678h 0.276551v -55.0713h 0.276551v 22.9464h 0.553102v 9.17856h 0.276551v 22.9464h 0.276551v -32.1249h 0.276551v -27.5357h 0.276551v 45.8928h 0.276551v -9.17856h 0.553102v 9.17856h
 0.829652v 13.7678h 0.276551v -9.17856h 0.276551v -4.58928h 0.276551v -64.2499h 0.276551v 36.7142h 0.276551v 13.7678h 0.276551v -22.9464h 0.276551v -22.9464h 0.276551v 36.7142h 0.276551v -9.17856h 0.276551v 50.4821h 0.276551v -73.4284h 0.276551v
 27.5357h 0.276551v -45.8928h 0.276551v 36.7142h 0.276551v 4.58928h 0.276551v 32.1249h 0.276551v -55.0713h 0.276551v 45.8928h 0.276551v -50.4821h 0.276551v 45.8928h 0.276551v 13.7678h 0.276551v -13.7678h 0.276551v -32.1249h 0.276551v 59.6606h
 0.276551v -45.8928h 0.276551v 18.3571h 0.276551v -41.3035h 0.276551v 9.17856h 0.276551v 13.7678h 0.276551v -9.17856h 0.276551v 9.17856h 0.276551v 9.17856h 0.276551v 18.3571h 0.553102v -27.5357h 0.276551v -22.9464h 0.276551v 36.7142h 0.276551v
 13.7678h 0.276551v -22.9464h 0.276551v -4.58928h 0.276551v 9.17856h 0.276551v -27.5357h 0.276551v 18.3571h 0.276551v 13.7678h 0.276551v 27.5357h 0.276551v -41.3035h 0.276551v 4.58928h 0.276551v -9.17856h 0.276551v -22.9464h 0.276551v -9.17856h
 0.276551v 18.3571h 0.276551v 4.58928h 0.276551v 9.17856h 0.276551v -4.58928h 0.276551v -18.3571h 0.276551v 22.9464h 0.276551v -64.2499h 0.276551v 68.8392h 0.276551v 13.7678h 0.276551v -27.5357h 0.276551v 9.17856h 0.276551v -41.3035h 0.276551v
 41.3035h 0.276551v -13.7678h 0.276551v 27.5357h 0.276551v -4.58928h 0.276551v -18.3571h 0.276551v 22.9464h 0.276551v -41.3035h 0.276551v 9.17856h 0.276551v 18.3571h 0.276551v 41.3035h 0.276551v -64.2499h 0.276551v 9.17856h 0.276551v -4.58928h
 0.276551v -4.58928h 0.276551v 22.9464h 0.276551v 13.7678h 0.276551v -9.17856h 0.276551v -36.7142h 0.276551v 13.7678h 0.276551v -13.7678h 0.276551v -27.5357h 0.276551v 36.7142h 0.553102v -9.17856h 0.276551v 4.58928h 0.276551v 41.3035h 0.276551v
 -59.6606h 0.276551v 41.3035h 0.276551v 36.7142h 0.276551v -22.9464h 0.276551v -32.1249h 0.276551v 32.1249h 0.276551v -22.9464h 0.276551v 22.9464h 0.276551v -13.7678h 0.553102v -13.7678h 0.276551v 4.58928h 0.276551v -18.3571h 0.276551v 18.3571h
 0.276551v 9.17856h 0.276551v 13.7678h 0.276551v -36.7142h 0.276551v -4.58928h 0.276551v 50.4821h 0.276551v -41.3035h 0.829652v 13.7678h 0.276551v -18.3571h 0.276551v 4.58928h 0.276551v 22.9464h 0.276551v -22.9464h 0.276551v 13.7678h 0.276551v
 -18.3571h 0.276551v 27.5357h 0.276551v -13.7678h 0.553102v 27.5357h 0.276551v -41.3035h 0.276551v 27.5357h 0.276551v 27.5357h 0.276551v -32.1249h 0.276551v -27.5357h 0.276551v 4.58928h 0.276551v 13.7678h 0.276551v 18.3571h 0.276551v -36.7142h
 0.276551v 22.9464h 0.276551v 13.7678h 0.276551v -22.9464h 0.276551v 18.3571h 0.276551v -27.5357h 0.276551v -45.8928h 0.276551v 45.8928h 0.276551v 4.58928h 0.276551v 45.8928h 0.276551v -41.3035h 0.553102v -13.7678h 0.276551v 27.5357h 0.276551v
 -13.7678h 0.276551v 4.58928h 0.276551v 4.58928h 0.276551v -18.3571h 0.276551v 41.3035h 0.276551v -22.9464h 0.553102v -41.3035h 0.276551v 22.9464h 0.276551v 27.5357h 0.276551v 9.17856h 0.276551v 9.17856h 0.276551v -64.2499h 0.276551v 64.2499h
 0.276551v -22.9464h 0.276551v -50.4821h 0.276551v 45.8928h 0.276551v 4.58928h 0.276551v 36.7142h 0.276551v -55.0713h 0.276551v 32.1249h 0.276551v -36.7142h 0.276551v 22.9464h 0.276551v -27.5357h 0.276551v 36.7142h 0.276551v 22.9464h 0.276551v
 -41.3035h 0.276551v 13.7678h 0.276551v 13.7678h 0.276551v -18.3571h 0.276551v -4.58928h 0.276551v 13.7678h 0.276551v 4.58928h 0.276551v -18.3571h 0.276551v 4.58928h 0.276551v -4.58928h 0.276551v 36.7142h 0.276551v -4.58928h 0.276551v -32.1249h
 1.1062v 59.6606h 0.276551v -13.7678h 0.276551v -27.5357h 0.276551v 13.7678h 0.276551v -13.7678h 0.276551v -9.17856h 0.276551v -36.7142h 0.276551v 27.5357h 0.276551v -22.9464h 0.276551v 45.8928h 0.276551v -13.7678h 0.553102v -18.3571h 0.276551v
 -9.17856h 0.276551v -32.1249h 0.276551v 82.607h 0.276551v -32.1249h 0.276551v 9.17856h 0.276551v 18.3571h 0.276551v -41.3035h 0.276551v 4.58928h 0.276551v 13.7678h 0.276551v -9.17856h 0.276551v 36.7142h 0.276551v -18.3571h 0.276551v -32.1249h
 0.276551v 41.3035h 0.276551v -32.1249h 0.276551v 18.3571h 0.276551v 4.58928h 0.276551v 13.7678h 0.276551v -9.17856h 0.276551v 18.3571h 0.276551v -27.5357h 0.276551v -13.7678h 0.276551v -9.17856h 0.276551v 36.7142h 0.276551v -50.4821h 0.276551v
 45.8928h 0.276551v 18.3571h 0.276551v -4.58928h 0.276551v 4.58928h 0.276551v -27.5357h 0.276551v 50.4821h 0.276551v -27.5357h 0.276551v 18.3571h 0.276551v -50.4821h 0.276551v 9.17856h 0.276551v 27.5357h 0.276551v -4.58928h 0.276551v 13.7678h
 0.276551v -18.3571h 0.276551v -4.58928h 0.276551v 9.17856h 0.276551v 9.17856h 0.276551v -4.58928h 0.276551v 13.7678h 0.276551v -32.1249h 0.276551v 22.9464h 0.276551v -13.7678h 0.276551v 18.3571h 0.276551v -22.9464h 0.276551v 18.3571h 0.276551v
 4.58928h 0.276551v -45.8928h 0.276551v 55.0713h 0.276551v -22.9464h 0.276551v 9.17856h 0.276551v -27.5357h 0.276551v 41.3035h 0.276551v -22.9464h 0.276551v 4.58928h 0.276551v -22.9464h 0.276551v 41.3035h 0.276551v -36.7142h 0.276551v 41.3035h
 0.276551v -27.5357h 0.276551v 18.3571h 0.276551v -27.5357h 0.553102v 45.8928h 0.276551v -59.6606h 0.276551v 32.1249h 0.553102v 4.58928h 0.276551v 9.17856h 0.553102v -27.5357h 0.276551v 32.1249h 0.276551v -32.1249h 0.276551v -9.17856h 0.276551v
 32.1249h 0.276551v 22.9464h 0.276551v -13.7678h 0.276551v -27.5357h 0.276551v -4.58928h 0.276551v 4.58928h 0.276551v 36.7142h 0.276551v -55.0713h 0.276551v 50.4821h 0.276551v -22.9464h 0.276551v 13.7678h 0.276551v -4.58928h 0.276551v -32.1249h
 0.276551v -9.17856h 0.276551v 50.4821h 0.276551v -32.1249h 0.276551v 32.1249h 0.276551v -4.58928h 0.276551v -13.7678h 0.276551v 13.7678h 0.276551v 41.3035h 0.276551v -36.7142h 0.276551v -41.3035h 0.276551v 4.58928h 0.553102v 55.0713h 0.276551v
 -36.7142h 0.276551v 22.9464h 0.553102v -9.17856h 0.276551v 9.17856h 0.276551v -4.58928h 0.276551v 13.7678h 0.276551v 4.58928h 0.276551v -27.5357h 0.276551v -36.7142h 0.276551v 27.5357h 0.276551v 22.9464h 0.276551v -4.58928h 0.553102v 22.9464h
 0.276551v -18.3571h 0.276551v -9.17856h 0.276551v 22.9464h 0.276551v -4.58928h 0.276551v 18.3571h 0.276551v -9.17856h 0.276551v -18.3571h 0.276551v 9.17856h 0.276551v -9.17856h 0.276551v -9.17856h 0.276551v 13.7678h 0.553102v 13.7678h 0.276551v
 -22.9464h 0.829652v -13.7678h 0.276551v 41.3035h 0.276551v -13.7678h 0.276551v -18.3571h 0.276551v 22.9464h 0.276551v 4.58928h 0.276551v 13.7678h 0.276551v -13.7678h 0.553102v -18.3571h 0.276551v 22.9464h 0.276551v -9.17856h 0.276551v 13.7678h
 0.276551v -18.3571h 0.276551v 4.58928h 0.276551v 9.17856h 0.276551v 4.58928h 0.276551v 9.17856h 0.276551v -9.17856h 0.276551v -13.7678h 0.276551v 4.58928h 0.553102v 4.58928h 0.553102v -32.1249h 0.276551v 36.7142h 0.553102v -9.17856h 0.276551v
 9.17856h 0.276551v -18.3571h 0.276551v 36.7142h 0.276551v -50.4821h 0.553102v 27.5357h 0.276551v 9.17856h 0.276551v 9.17856h 0.276551v -22.9464h 0.829652v -4.58928h 0.276551v 4.58928h 0.553102v -18.3571h 0.276551v 9.17856h 0.276551v 9.17856h
 0.276551v -4.58928h 0.276551v 18.3571h 0.276551v -4.58928h 0.553102v -27.5357h 0.276551v 18.3571h 0.276551v 18.3571h 0.276551v 4.58928h 0.276551v -22.9464h 0.276551v 18.3571h 0.276551v -13.7678h 0.276551v 4.58928h 0.276551v -4.58928h 0.276551v
 9.17856h 0.553102v 4.58928h 0.276551v -18.3571h 0.276551v 4.58928h 0.276551v 13.7678h 0.276551v -9.17856h 0.553102v 9.17856h 0.553102v 4.58928h 0.276551v -13.7678h 0.276551v 13.7678h 0.276551v 9.17856h 0.276551v -18.3571h 0.276551v -4.58928h
 0.276551v -18.3571h 0.276551v 13.7678h 0.276551v 22.9464h 0.276551v -13.7678h 0.276551v 4.58928h 0.276551v -4.58928h 0.276551v -13.7678h 0.276551v 13.7678h 0.553102v 4.58928h 0.276551v -4.58928h 0.276551v -13.7678h 0.553102v 32.1249h 0.276551v
 -36.7142h 0.276551v 32.1249h 0.276551v -13.7678h 0.276551v -4.58928h 0.276551v 22.9464h 0.276551v -22.9464h 0.276551v 13.7678h 0.276551v 4.58928h 0.276551v -18.3571h 0.553102v -4.58928h 0.553102v 18.3571h 0.276551v -4.58928h 0.276551v 13.7678h
 0.276551v -13.7678h 0.276551v -4.58928h 0.276551v 13.7678h 0.276551v -13.7678h 0.276551v 4.58928h 0.276551v -4.58928h 0.276551v 4.58928h 0.553102v -13.7678h 0.276551v 4.58928h 0.276551v 18.3571h 0.276551v -4.58928h 0.553102v -22.9464h 0.276551v
 27.5357h 0.276551v -13.7678h 0.276551v 22.9464h 0.276551v -13.7678h 0.276551v -4.58928h 0.276551v 4.58928h 0.276551v 4.58928h 0.276551v -4.58928h 0.276551v -9.17856h 0.276551v 9.17856h 0.276551v -9.17856h 0.276551v 18.3571h 0.276551v -13.7678h
 0.276551v 13.7678h 0.276551v -4.58928h 0.276551v -13.7678h 0.276551v 9.17856h 0.276551v 13.7678h 0.276551v -22.9464h 0.276551v 4.58928h 0.276551v 13.7678h 0.276551v -9.17856h 0.553102v 13.7678h 0.276551v -9.17856h 0.276551v -9.17856h 0.276551v
 18.3571h 0.276551v -18.3571h 0.276551v 13.7678h 0.829652v -9.17856h 0.276551v 4.58928h 0.276551v -9.17856h 0.276551v -4.58928h 0.276551v 18.3571h 0.276551v -9.17856h 0.276551v 4.58928h 0.276551v -9.17856h 0.276551v 18.3571h 0.276551v -4.58928h
 0.276551v 4.58928h 0.553102v -9.17856h 0.553102v 4.58928h 0.276551v -4.58928h 0.276551v -13.7678h 0.276551v 18.3571h 0.276551v -13.7678h 0.276551v 4.58928h 0.553102v 13.7678h 0.276551v -18.3571h 0.553102v 9.17856h 0.276551v -13.7678h 0.276551v
 18.3571h 0.276551v -4.58928h 0.276551v -9.17856h 0.276551v 13.7678h 0.553102v 4.58928h 0.276551v -9.17856h 0.276551v -4.58928h 0.276551v 4.58928h 0.553102v -9.17856h 0.276551v 18.3571h 0.276551v -13.7678h 0.276551v 9.17856h 0.553102v 4.58928h
 0.276551v -4.58928h 0.276551" fill="none" stroke="#ff0000" stroke-width="2"/>
<path d="M59.4606,257.5l 4.53543, 0.0227575l 4.53543, -0.0897133l 4.53543, -0.239399l 4.53543, -0.434863l 4.53543, -0.685174l 4.53543, -0.99933l 4.53543, -1.38546l 4.53543, -1.84982l 4.53543, -2.39557l 4.53543, -3.02147l 4.53543, -3.72059l 4.53543,
 -4.47915l 4.53543, -5.27572l 4.53543, -6.08095l 4.53543, -6.85801l 4.53543, -7.56378l 4.53543, -8.15102l 4.53543, -8.57123l 4.53543, -8.77828l 4.53543, -8.73235l 4.53543, -8.40384l 4.53543, -7.77698l 4.53543, -6.85249l 4.53543, -5.64906l 4.53543,
 -4.20336l 4.53543, -2.56839l 4.53543, -0.810345l 4.53543, 0.995807l 4.53543, 2.77164l 4.53543, 4.4409l 4.53543, 5.93495l 4.53543, 7.19744l 4.53543, 8.18777l 4.53543, 8.88304l 4.53543, 9.27847l 4.53543, 9.38619l 4.53543, 9.23278l 4.53543, 8.8559l
 4.53543, 8.30033l 4.53543, 7.61392l 4.53543, 6.84391l 4.53543, 6.03374l 4.53543, 5.22067l 4.53543, 4.43428l 4.53543, 3.69573l 4.53543, 3.01784l 4.53543, 2.40562l 4.53543, 1.85735l 4.53543, 1.36577" fill="none" stroke="#0000ff" stroke-width="2"/>
<path d="M281.697,267.901l 4.53543, 0.919423l 4.53543, 0.504024l 4.53543, 0.103714l 4.53543, -0.297723l 4.53543, -0.715728l 4.53543, -1.1639l 4.53543, -1.65295l 4.53543, -2.18976l 4.53543, -2.77637l 4.53543, -3.40925l 4.53543, -4.07866l 4.53543,
 -4.76828l 4.53543, -5.45536l 4.53543, -6.11119l 4.53543, -6.70232l 4.53543, -7.19218l 4.53543, -7.54336l 4.53543, -7.72024l 4.53543, -7.69188l 4.53543, -7.43487l 4.53543, -6.93594l 4.53543, -6.19398l 4.53543, -5.22119l 4.53543, -4.04333l 4.53543,
 -2.69873l 4.53543, -1.23637l 4.53543, 0.287104l 4.53543, 1.81102l 4.53543, 3.27468l 4.53543, 4.62134l 4.53543, 5.80192l 4.53543, 6.77789l 4.53543, 7.52336l 4.53543, 8.02591l 4.53543, 8.28654l 4.53543, 8.31841l 4.53543, 8.14489l 4.53543, 7.79699l
 4.53543, 7.31053l 4.53543, 6.72329l 4.53543, 6.07238l 4.53543, 5.39214l 4.53543, 4.71243l 4.53543, 4.05771l 4.53543, 3.44649l 4.53543, 2.89148l 4.53543, 2.40001l 4.53543, 1.97478l 4.53543, 1.61476" fill="none" stroke="#0000ff" stroke-width="2"/>
<path d="M503.933,283.46l 4.53543, 3.85728" fill="none" stroke="#0000ff" stroke-width="2"/>
<rect x="351.526" y="20.5783" width="204.153" height="110.678" fill="white"/>
<path d="M351.526,131.256h 204.153" fill="none" stroke="black" stroke-width="2"/>
<path d="M555.679,131.256v -110.678" fill="none" stroke="black" stroke-width="2"/>
<path d="M555.679,20.5783h -204.153" fill="none" stroke="black" stroke-width="2"/>
<path d="M351.526,20.5783v 110.678" fill="none" stroke="black" stroke-width="2"/>
<text x="370.852" y="29.8798" fill="black" font-size="10.8796" font-family="Helvetica">
 / ndf 
</text>
<text x="366.92" y="25.9482" fill="black" font-size="7.41972" font-family="Helvetica">
2
</text>
<text x="361.416" y="29.8798" fill="black" font-size="10.8796" font-family="Times">
&#0967;
</text>
<text x="488.798" y="29.8798" fill="black" font-size="10.8796" font-family="Helvetica">
  1779 / 1621
</text>
<text x="361.416" y="42.4607" fill="black" font-size="10.8796" font-family="Helvetica">
1-Centroid 
</text>
<text x="528.9" y="42.4607" fill="black" font-size="10.8796" font-family="Helvetica">
 0.3
</text>
<text x="523.396" y="42.4607" fill="black" font-size="10.8796" font-family="Times">
&#0177;
</text>
<text x="495.089" y="42.4607" fill="black" font-size="10.8796" font-family="Helvetica">
  5981 
</text>
<text x="361.416" y="55.828" fill="black" font-size="10.8796" font-family="Helvetica">
1-FWHM   
</text>
<text x="528.9" y="55.0417" fill="black" font-size="10.8796" font-family="Helvetica">
 0.6
</text>
<text x="523.396" y="55.0417" fill="black" font-size="10.8796" font-family="Times">
&#0177;
</text>
<text x="496.661" y="55.0417" fill="black" font-size="10.8796" font-family="Helvetica">
   319 
</text>
<text x="361.416" y="66.8363" fill="black" font-size="10.8796" font-family="Helvetica">
1-Counts 
</text>
<text x="523.396" y="66.8363" fill="black" font-size="10.8796" font-family="Helvetica">
 17.3
</text>
<text x="517.892" y="66.8363" fill="black" font-size="10.8796" font-family="Times">
&#0177;
</text>
<text x="488.012" y="66.8363" fill="black" font-size="10.8796" font-family="Helvetica">
  9207 
</text>
<text x="361.416" y="79.4173" fill="black" font-size="10.8796" font-family="Helvetica">
2-Centroid 
</text>
<text x="528.9" y="79.4173" fill="black" font-size="10.8796" font-family="Helvetica">
 0.3
</text>
<text x="523.396" y="79.4173" fill="black" font-size="10.8796" font-family="Times">
&#0177;
</text>
<text x="493.516" y="79.4173" fill="black" font-size="10.8796" font-family="Helvetica">
  6775 
</text>
<text x="361.416" y="92.7845" fill="black" font-size="10.8796" font-family="Helvetica">
2-FWHM   
</text>
<text x="528.9" y="91.9982" fill="black" font-size="10.8796" font-family="Helvetica">
 0.5
</text>
<text x="523.396" y="91.9982" fill="black" font-size="10.8796" font-family="Times">
&#0177;
</text>
<text x="493.516" y="91.9982" fill="black" font-size="10.8796" font-family="Helvetica">
 332.6 
</text>
<text x="361.416" y="103.793" fill="black" font-size="10.8796" font-family="Helvetica">
2-Counts 
</text>
<text x="523.396" y="103.793" fill="black" font-size="10.8796" font-family="Helvetica">
 15.7
</text>
<text x="517.892" y="103.793" fill="black" font-size="10.8796" font-family="Times">
&#0177;
</text>
<text x="488.012" y="103.793" fill="black" font-size="10.8796" font-family="Helvetica">
  8847 
</text>
<text x="361.416" y="115.587" fill="black" font-size="10.8796" font-family="Helvetica">
Intercept 
</text>
<text x="528.9" y="116.374" fill="black" font-size="10.8796" font-family="Helvetica">
 0.0
</text>
<text x="523.396" y="116.374" fill="black" font-size="10.8796" font-family="Times">
&#0177;
</text>
<text x="496.661" y="116.374" fill="black" font-size="10.8796" font-family="Helvetica">
  28.3 
</text>
<text x="361.416" y="128.168" fill="black" font-size="10.8796" font-family="Helvetica">
Slope    
</text>
<text x="500.593" y="128.955" fill="black" font-size="10.8796" font-family="Helvetica">
 0.000000
</text>
<text x="495.089" y="128.955" fill="black" font-size="10.8796" font-family="Times">
&#0177;
</text>
<text x="451.842" y="128.955" fill="black" font-size="10.8796" font-family="Helvetica">
0.003961 
</text>
<text x="445.551" y="128.955" fill="black" font-size="10.8796" font-family="Times">
&#8722;
</text>
<text x="443.192" y="128.955" fill="black" font-size="10.8796" font-family="Helvetica">
 
</text>
<path d="M57.1929,287.317h 453.543" fill="none" stroke="black" stroke-width="2"/>
<text x="468.354" y="309.02" fill="black" font-size="10.7509" font-family="Helvetica">
Channels
</text>
<path d="M187.725,279.656v 7.6618" fill="none" stroke="black" stroke-width="2"/>
<path d="M215.38,283.487v 3.8309" fill="none" stroke="black" stroke-width="2"/>
<path d="M243.035,283.487v 3.8309" fill="none" stroke="black" stroke-width="2"/>
<path d="M270.69,283.487v 3.8309" fill="none" stroke="black" stroke-width="2"/>
<path d="M298.345,283.487v 3.8309" fill="none" stroke="black" stroke-width="2"/>
<path d="M326,279.656v 7.6618" fill="none" stroke="black" stroke-width="2"/>
<path d="M353.655,283.487v 3.8309" fill="none" stroke="black" stroke-width="2"/>
<path d="M381.31,283.487v 3.8309" fill="none" stroke="black" stroke-width="2"/>
<path d="M408.966,283.487v 3.8309" fill="none" stroke="black" stroke-width="2"/>
<path d="M436.621,283.487v 3.8309" fill="none" stroke="black" stroke-width="2"/>
<path d="M464.276,279.656v 7.6618" fill="none" stroke="black" stroke-width="2"/>
<path d="M187.725,279.656v 7.6618" fill="none" stroke="black" stroke-width="2"/>
<path d="M160.07,283.487v 3.8309" fill="none" stroke="black" stroke-width="2"/>
<path d="M132.415,283.487v 3.8309" fill="none" stroke="black" stroke-width="2"/>
<path d="M104.76,283.487v 3.8309" fill="none" stroke="black" stroke-width="2"/>
<path d="M77.1046,283.487v 3.8309" fill="none" stroke="black" stroke-width="2"/>
<path d="M464.276,279.656v 7.6618" fill="none" stroke="black" stroke-width="2"/>
<path d="M491.931,283.487v 3.8309" fill="none" stroke="black" stroke-width="2"/>
<text x="175.847" y="297.225" fill="black" font-size="10.7509" font-family="Helvetica">
6000
</text>
<text x="313.451" y="297.225" fill="black" font-size="10.7509" font-family="Helvetica">
6500
</text>
<text x="451.842" y="297.225" fill="black" font-size="10.7509" font-family="Helvetica">
7000
</text>
<path d="M57.1929,287.317v -255.393" fill="none" stroke="black" stroke-width="2"/>
<path d="M70.7992,287.317h -13.6063" fill="none" stroke="black" stroke-width="2"/>
<path d="M63.9961,278.139h -6.80315" fill="none" stroke="black" stroke-width="2"/>
<path d="M63.9961,268.96h -6.80315" fill="none" stroke="black" stroke-width="2"/>
<path d="M63.9961,259.782h -6.80315" fill="none" stroke="black" stroke-width="2"/>
<path d="M63.9961,250.603h -6.80315" fill="none" stroke="black" stroke-width="2"/>
<path d="M70.7992,241.425h -13.6063" fill="none" stroke="black" stroke-width="2"/>
<path d="M63.9961,232.246h -6.80315" fill="none" stroke="black" stroke-width="2"/>
<path d="M63.9961,223.068h -6.80315" fill="none" stroke="black" stroke-width="2"/>
<path d="M63.9961,213.889h -6.80315" fill="none" stroke="black" stroke-width="2"/>
<path d="M63.9961,204.71h -6.80315" fill="none" stroke="black" stroke-width="2"/>
<path d="M70.7992,195.532h -13.6063" fill="none" stroke="black" stroke-width="2"/>
<path d="M63.9961,186.353h -6.80315" fill="none" stroke="black" stroke-width="2"/>
<path d="M63.9961,177.175h -6.80315" fill="none" stroke="black" stroke-width="2"/>
<path d="M63.9961,167.996h -6.80315" fill="none" stroke="black" stroke-width="2"/>
<path d="M63.9961,158.818h -6.80315" fill="none" stroke="black" stroke-width="2"/>
<path d="M70.7992,149.639h -13.6063" fill="none" stroke="black" stroke-width="2"/>
<path d="M63.9961,140.461h -6.80315" fill="none" stroke="black" stroke-width="2"/>
<path d="M63.9961,131.282h -6.80315" fill="none" stroke="black" stroke-width="2"/>
<path d="M63.9961,122.103h -6.80315" fill="none" stroke="black" stroke-width="2"/>
<path d="M63.9961,112.925h -6.80315" fill="none" stroke="black" stroke-width="2"/>
<path d="M70.7992,103.746h -13.6063" fill="none" stroke="black" stroke-width="2"/>
<path d="M63.9961,94.5678h -6.80315" fill="none" stroke="black" stroke-width="2"/>
<path d="M63.9961,85.3893h -6.80315" fill="none" stroke="black" stroke-width="2"/>
<path d="M63.9961,76.2107h -6.80315" fill="none" stroke="black" stroke-width="2"/>
<path d="M63.9961,67.0321h -6.80315" fill="none" stroke="black" stroke-width="2"/>
<path d="M70.7992,57.8536h -13.6063" fill="none" stroke="black" stroke-width="2"/>
<path d="M70.7992,57.8536h -13.6063" fill="none" stroke="black" stroke-width="2"/>
<path d="M63.9961,48.675h -6.80315" fill="none" stroke="black" stroke-width="2"/>
<path d="M63.9961,39.4965h -6.80315" fill="none" stroke="black" stroke-width="2"/>
<text x="48.4649" y="290.935" fill="black" font-size="10.7509" font-family="Helvetica">
0
</text>
<text x="42.9607" y="245.329" fill="black" font-size="10.7509" font-family="Helvetica">
10
</text>
<text x="42.9607" y="198.936" fill="black" font-size="10.7509" font-family="Helvetica">
20
</text>
<text x="42.9607" y="153.33" fill="black" font-size="10.7509" font-family="Helvetica">
30
</text>
<text x="42.9607" y="106.938" fill="black" font-size="10.7509" font-family="Helvetica">
40
</text>
<text x="42.9607" y="61.3321" fill="black" font-size="10.7509" font-family="Helvetica">
50
</text>
<rect x="351.526" y="20.5783" width="204.153" height="110.678" fill="white"/>
<path d="M351.526,131.256h 204.153" fill="none" stroke="black" stroke-width="2"/>
<path d="M555.679,131.256v -110.678" fill="none" stroke="black" stroke-width="2"/>
<path d="M555.679,20.5783h -204.153" fill="none" stroke="black" stroke-width="2"/>
<path d="M351.526,20.5783v 110.678" fill="none" stroke="black" stroke-width="2"/>
<text x="370.852" y="29.8798" fill="black" font-size="10.8796" font-family="Helvetica">
 / ndf 
</text>
<text x="366.92" y="25.9482" fill="black" font-size="7.41972" font-family="Helvetica">
2
</text>
<text x="361.416" y="29.8798" fill="black" font-size="10.8796" font-family="Times">
&#0967;
</text>
<text x="488.798" y="29.8798" fill="black" font-size="10.8796" font-family="Helvetica">
  1779 / 1621
</text>
<text x="361.416" y="42.4607" fill="black" font-size="10.8796" font-family="Helvetica">
1-Centroid 
</text>
<text x="528.9" y="42.4607" fill="black" font-size="10.8796" font-family="Helvetica">
 0.3
</text>
<text x="523.396" y="42.4607" fill="black" font-size="10.8796" font-family="Times">
&#0177;
</text>
<text x="495.089" y="42.4607" fill="black" font-size="10.8796" font-family="Helvetica">
  5981 
</text>
<text x="361.416" y="55.828" fill="black" font-size="10.8796" font-family="Helvetica">
1-FWHM   
</text>
<text x="528.9" y="55.0417" fill="black" font-size="10.8796" font-family="Helvetica">
 0.6
</text>
<text x="523.396" y="55.0417" fill="black" font-size="10.8796" font-family="Times">
&#0177;
</text>
<text x="496.661" y="55.0417" fill="black" font-size="10.8796" font-family="Helvetica">
   319 
</text>
<text x="361.416" y="66.8363" fill="black" font-size="10.8796" font-family="Helvetica">
1-Counts 
</text>
<text x="523.396" y="66.8363" fill="black" font-size="10.8796" font-family="Helvetica">
 17.3
</text>
<text x="517.892" y="66.8363" fill="black" font-size="10.8796" font-family="Times">
&#0177;
</text>
<text x="488.012" y="66.8363" fill="black" font-size="10.8796" font-family="Helvetica">
  9207 
</text>
<text x="361.416" y="79.4173" fill="black" font-size="10.8796" font-family="Helvetica">
2-Centroid 
</text>
<text x="528.9" y="79.4173" fill="black" font-size="10.8796" font-family="Helvetica">
 0.3
</text>
<text x="523.396" y="79.4173" fill="black" font-size="10.8796" font-family="Times">
&#0177;
</text>
<text x="493.516" y="79.4173" fill="black" font-size="10.8796" font-family="Helvetica">
  6775 
</text>
<text x="361.416" y="92.7845" fill="black" font-size="10.8796" font-family="Helvetica">
2-FWHM   
</text>
<text x="528.9" y="91.9982" fill="black" font-size="10.8796" font-family="Helvetica">
 0.5
</text>
<text x="523.396" y="91.9982" fill="black" font-size="10.8796" font-family="Times">
&#0177;
</text>
<text x="493.516" y="91.9982" fill="black" font-size="10.8796" font-family="Helvetica">
 332.6 
</text>
<text x="361.416" y="103.793" fill="black" font-size="10.8796" font-family="Helvetica">
2-Counts 
</text>
<text x="523.396" y="103.793" fill="black" font-size="10.8796" font-family="Helvetica">
 15.7
</text>
<text x="517.892" y="103.793" fill="black" font-size="10.8796" font-family="Times">
&#0177;
</text>
<text x="488.012" y="103.793" fill="black" font-size="10.8796" font-family="Helvetica">
  8847 
</text>
<text x="361.416" y="115.587" fill="black" font-size="10.8796" font-family="Helvetica">
Intercept 
</text>
<text x="528.9" y="116.374" fill="black" font-size="10.8796" font-family="Helvetica">
 0.0
</text>
<text x="523.396" y="116.374" fill="black" font-size="10.8796" font-family="Times">
&#0177;
</text>
<text x="496.661" y="116.374" fill="black" font-size="10.8796" font-family="Helvetica">
  28.3 
</text>
<text x="361.416" y="128.168" fill="black" font-size="10.8796" font-family="Helvetica">
Slope    
</text>
<text x="500.593" y="128.955" fill="black" font-size="10.8796" font-family="Helvetica">
 0.000000
</text>
<text x="495.089" y="128.955" fill="black" font-size="10.8796" font-family="Times">
&#0177;
</text>
<text x="451.842" y="128.955" fill="black" font-size="10.8796" font-family="Helvetica">
0.003961 
</text>
<text x="445.551" y="128.955" fill="black" font-size="10.8796" font-family="Times">
&#8722;
</text>
<text x="443.192" y="128.955" fill="black" font-size="10.8796" font-family="Helvetica">
 
</text>
<path d="M59.4606,286.738l 4.53543, -0.275337l 4.53543, -0.387808l 4.53543, -0.537493l 4.53543, -0.732958l 4.53543, -0.983268l 4.53543, -1.29742l 4.53543, -1.68356l 4.53543, -2.14792l 4.53543, -2.69367l 4.53543, -3.31957l 4.53543, -4.01869l 4.53543,
 -4.77724l 4.53543, -5.57381l 4.53543, -6.37905l 4.53543, -7.1561l 4.53543, -7.86188l 4.53543, -8.44911l 4.53543, -8.86932l 4.53543, -9.07638l 4.53543, -9.03044l 4.53543, -8.70193l 4.53543, -8.07507l 4.53543, -7.15058l 4.53543, -5.94716l 4.53543,
 -4.50145l 4.53543, -2.86648l 4.53543, -1.10843l 4.53543, 0.697727l 4.53543, 2.47357l 4.53543, 4.14285l 4.53543, 5.63694l 4.53543, 6.8995l 4.53543, 7.88995l 4.53543, 8.58542l 4.53543, 8.98118l 4.53543, 9.08943l 4.53543, 8.9369l 4.53543, 8.56143l
 4.53543, 8.00806l 4.53543, 7.32508l 4.53543, 6.5603l 4.53543, 5.758l 4.53543, 4.95659l 4.53543, 4.18719l 4.53543, 3.47303l 4.53543, 2.82958l 4.53543, 2.26524l 4.53543, 1.78245l 4.53543, 1.37893" fill="none" stroke="#00ff00" stroke-width="2"/>
<path d="M281.697,283.555l 4.53543, 1.04902l 4.53543, 0.784913l 4.53543, 0.577741l 4.53543, 0.418389l 4.53543, 0.29814l 4.53543, 0.209075l 4.53543, 0.144302l 4.53543, 0.0980321l 4.53543, 0.0655585l 4.53543, 0.0431604l 4.53543, 0.0279749l 4.53543,
 0.0178527l 4.53543, 0.0284208h 163.276" fill="none" stroke="#00ff00" stroke-width="2"/>
<path d="M503.933,287.317h 4.53543" fill="none" stroke="#00ff00" stroke-width="2"/>
<path d="M59.4606,287.317h 181.417l 4.53543, -0.0386306l 4.53543, -0.0223553l 4.53543, -0.034008l 4.53543, -0.0509988l 4.53543, -0.0753859l 4.53543, -0.109836l 4.53543, -0.157721l 4.53543, -0.2232l 4.53543, -0.311258" fill="none" stroke="#00ff00"
 stroke-width="2"/>
<path d="M281.697,286.294l 4.53543, -0.427688l 4.53543, -0.578984l 4.53543, -0.772122l 4.53543, -1.01421l 4.53543, -1.31196l 4.53543, -1.67107l 4.53543, -2.09535l 4.53543, -2.58588l 4.53543, -3.14002l 4.53543, -3.75051l 4.53543, -4.40473l 4.53543,
 -5.08423l 4.53543, -5.76467l 4.53543, -6.41623l 4.53543, -7.00464l 4.53543, -7.49281l 4.53543, -7.84296l 4.53543, -8.01921l 4.53543, -7.99047l 4.53543, -7.73325l 4.53543, -7.23419l 4.53543, -6.49216l 4.53543, -5.51933l 4.53543, -4.34145l 4.53543,
 -2.99684l 4.53543, -1.53448l 4.53543, -0.0109939l 4.53543, 1.51293l 4.53543, 2.97658l 4.53543, 4.32324l 4.53543, 5.50382l 4.53543, 6.4798l 4.53543, 7.22526l 4.53543, 7.72782l 4.53543, 7.98844l 4.53543, 8.02031l 4.53543, 7.84679l 4.53543, 7.49889l
 4.53543, 7.01244l 4.53543, 6.42519l 4.53543, 5.77429l 4.53543, 5.09404l 4.53543, 4.41434l 4.53543, 3.75961l 4.53543, 3.1484l 4.53543, 2.59339l 4.53543, 2.10192l 4.53543, 1.67668l 4.53543, 1.31666" fill="none" stroke="#00ff00" stroke-width="2"/>
<path d="M503.933,283.485l 4.53543, 1.01807" fill="none" stroke="#00ff00" stroke-width="2"/>
<text x="229.316" y="14.9399" fill="black" font-size="15.1024" font-family="Helvetica">
Co60_800V.Spe
</text></svg>
