<?xml version="1.0" standalone="no"?>
<svg width="567.429" height="354.975" viewBox="0 0 567.429 354.975" xmlns="http://www.w3.org/2000/svg">
<title>
/home/ADF/hyw543/Attenuation/Calib/c1.svg
</title>
<desc>
Creator: ROOT Version 6.06/08
CreationDate: Mon Jan  7 12:07:29 2019</desc>
<defs>
</defs>
<rect x="0.5" y="0" width="566.929" height="354.475" fill="white"/>
<rect x="57.1929" y="35.4475" width="453.543" height="283.58" fill="white"/>
<rect x="57.1929" y="35.4475" width="453.543" height="283.58" fill="none" stroke="black"/>
<rect x="57.1929" y="35.4475" width="453.543" height="283.58" fill="white"/>
<rect x="57.1929" y="35.4475" width="453.543" height="283.58" fill="none" stroke="black"/>
<path d="M57.1929,217.749h 0.440761v 101.279h 0.440761v -67.5191h 0.440761v 33.7595h 0.440761v 33.7595h 0.881522v -16.8798h 0.881522v -33.7595h 0.440761v 16.8798h 1.32228v 16.8798h 0.440761v -16.8798h 0.881522v 16.8798h 0.881522v 16.8798h 0.440761v
 -16.8798h 0.881522v -16.8798h 0.881522v 33.7595h 0.440761v -16.8798h 0.881522v -16.8798h 0.881522v 33.7595h 0.440761v -16.8798h 0.440761v 16.8798h 0.440761v -67.5191h 0.440761v 16.8798h 0.440761v 33.7595h 0.440761v 16.8798h 0.440761v -16.8798h
 0.440761v 16.8798h 0.440761v -16.8798h 0.440761v 16.8798h 0.440761v -16.8798h 0.440761v -16.8798h 0.881522v 16.8798h 0.440761v -16.8798h 0.440761v -16.8798h 0.440761v 50.6393h 0.440761v -33.7595h 0.440761v 16.8798h 1.32228v -16.8798h 0.440761v
 16.8798h 0.881522v 16.8798h 0.881522v -16.8798h 0.881522v 16.8798h 0.440761v -33.7595h 0.440761v 16.8798h 0.440761v -33.7595h 0.440761v 33.7595h 0.440761v 16.8798h 0.881522v -33.7595h 0.881522v -33.7595h 0.440761v 67.5191h 0.440761v -16.8798h
 0.440761v 16.8798h 0.440761v -16.8798h 0.440761v 16.8798h 0.440761v -16.8798h 0.881522v -16.8798h 0.881522v 16.8798h 0.440761v -50.6393h 0.440761v 67.5191h 0.440761v -16.8798h 1.32228v -33.7595h 0.440761v 16.8798h 0.440761v -16.8798h 0.440761v
 50.6393h 0.440761v -50.6393h 0.440761v 33.7595h 0.440761v -16.8798h 0.440761v 16.8798h 0.440761v -16.8798h 0.881522v 16.8798h 0.440761v 16.8798h 1.32228v -33.7595h 0.440761v 33.7595h 0.440761v -33.7595h 0.440761v 33.7595h 0.881522v -33.7595h
 0.440761v 16.8798h 0.881522v 16.8798h 0.440761v -50.6393h 0.440761v 50.6393h 0.881522v -50.6393h 0.440761v 33.7595h 0.440761v 16.8798h 0.881522v -16.8798h 0.440761v -33.7595h 0.440761v 50.6393h 0.881522v -16.8798h 0.440761v -50.6393h 0.440761v
 16.8798h 0.440761v -50.6393h 0.440761v 101.279h 0.440761v -16.8798h 0.440761v -50.6393h 0.440761v 50.6393h 0.881522v 16.8798h 0.440761v -84.3988h 0.440761v 84.3988h 0.440761v -33.7595h 0.440761v 33.7595h 0.440761v -16.8798h 0.440761v -50.6393h
 0.440761v 50.6393h 0.440761v -16.8798h 0.440761v -67.5191h 0.440761v 50.6393h 0.440761v 50.6393h 0.440761v -16.8798h 2.20381v 16.8798h 0.881522v -67.5191h 0.440761v 33.7595h 0.881522v 16.8798h 0.440761v -16.8798h 0.440761v 16.8798h 0.440761v
 -16.8798h 0.440761v 33.7595h 1.32228v -67.5191h 0.440761v 50.6393h 0.440761v -16.8798h 0.440761v -33.7595h 0.440761v 16.8798h 0.440761v 50.6393h 0.440761v -16.8798h 0.440761v -33.7595h 0.440761v 33.7595h 1.32228v -50.6393h 0.440761v 33.7595h
 0.440761v 33.7595h 0.881522v -16.8798h 0.440761v -16.8798h 0.440761v -16.8798h 0.440761v 16.8798h 0.881522v 16.8798h 1.32228v -16.8798h 0.440761v 16.8798h 0.440761v -33.7595h 0.440761v 33.7595h 0.440761v -16.8798h 0.881522v 33.7595h 0.440761v
 -16.8798h 0.881522v -50.6393h 0.881522v 16.8798h 0.440761v -33.7595h 0.440761v 67.5191h 0.440761v 16.8798h 0.440761v -33.7595h 0.440761v 16.8798h 0.440761v -16.8798h 0.440761v 33.7595h 1.32228v -16.8798h 0.440761v -16.8798h 0.881522v -16.8798h
 0.440761v -33.7595h 0.440761v 33.7595h 0.440761v 50.6393h 0.440761v -50.6393h 0.440761v -16.8798h 0.440761v 67.5191h 1.32228v -16.8798h 0.440761v -33.7595h 0.440761v 50.6393h 0.440761v -33.7595h 0.440761v 16.8798h 0.440761v -33.7595h 0.881522v
 33.7595h 0.440761v -33.7595h 0.440761v 33.7595h 0.881522v -67.5191h 0.440761v 50.6393h 0.881522v 16.8798h 0.440761v -84.3988h 0.440761v 101.279h 0.440761v -50.6393h 0.440761v 33.7595h 0.440761v -33.7595h 0.440761v 16.8798h 0.440761v 16.8798h
 0.881522v -50.6393h 0.440761v 16.8798h 0.440761v 16.8798h 0.440761v -50.6393h 0.440761v 50.6393h 0.881522v 33.7595h 0.440761v -67.5191h 0.440761v 50.6393h 0.440761v -50.6393h 0.881522v 16.8798h 0.440761v -16.8798h 0.440761v 50.6393h 0.440761v
 -16.8798h 0.440761v 16.8798h 0.440761v -101.279h 0.440761v 101.279h 0.881522v -33.7595h 0.440761v -33.7595h 0.440761v 50.6393h 0.440761v -67.5191h 0.440761v 67.5191h 1.32228v 33.7595h 0.440761v -84.3988h 0.440761v 84.3988h 0.440761v -33.7595h
 0.440761v -33.7595h 0.440761v 33.7595h 0.440761v 16.8798h 0.440761v -16.8798h 0.440761v -33.7595h 0.440761v 33.7595h 0.440761v -84.3988h 0.440761v 84.3988h 0.440761v -50.6393h 0.440761v 33.7595h 0.440761v 16.8798h 0.440761v -33.7595h 0.440761v
 33.7595h 0.440761v -33.7595h 0.440761v 16.8798h 0.440761v -50.6393h 0.440761v -16.8798h 0.440761v 33.7595h 0.881522v 50.6393h 0.440761v -67.5191h 0.440761v 16.8798h 0.440761v 16.8798h 0.440761v 33.7595h 0.881522v -67.5191h 0.440761v 50.6393h
 0.440761v -33.7595h 0.440761v -33.7595h 0.440761v 84.3988h 0.440761v -33.7595h 0.440761v -50.6393h 0.440761v 50.6393h 0.440761v 16.8798h 0.440761v -50.6393h 0.440761v 16.8798h 0.440761v -33.7595h 0.440761v 50.6393h 0.440761v -67.5191h 0.440761v
 33.7595h 0.440761v 16.8798h 0.440761v 33.7595h 0.440761v -67.5191h 0.440761v 16.8798h 0.440761v 33.7595h 0.440761v -50.6393h 0.440761v 16.8798h 0.881522v 84.3988h 0.440761v -67.5191h 0.440761v -50.6393h 0.440761v 67.5191h 0.440761v -16.8798h
 0.440761v 16.8798h 1.32228v -16.8798h 0.440761v -50.6393h 0.440761v 118.158h 0.440761v -50.6393h 0.440761v -16.8798h 0.440761v -50.6393h 0.440761v 67.5191h 0.440761v -33.7595h 1.32228v -16.8798h 0.440761v 33.7595h 0.440761v -33.7595h 0.881522v
 33.7595h 0.881522v 33.7595h 0.440761v -84.3988h 0.440761v 16.8798h 0.881522v 33.7595h 0.440761v 16.8798h 0.440761v -84.3988h 0.440761v 118.158h 0.440761v 16.8798h 0.440761v -118.158h 0.440761v 50.6393h 0.440761v 33.7595h 0.440761v -84.3988h
 0.440761v -50.6393h 0.440761v 84.3988h 0.440761v -16.8798h 0.440761v 16.8798h 0.440761v -101.279h 0.440761v 135.038h 0.440761v -101.279h 0.440761v 50.6393h 0.440761v -33.7595h 0.440761v 33.7595h 0.881522v 50.6393h 0.440761v 33.7595h 0.440761v
 -135.038h 0.440761v 101.279h 0.440761v -33.7595h 0.440761v -16.8798h 0.440761v 16.8798h 0.881522v 33.7595h 0.440761v -84.3988h 0.440761v 33.7595h 0.440761v 16.8798h 0.440761v -67.5191h 0.440761v 101.279h 0.881522v -135.038h 0.440761v 33.7595h
 0.440761v 50.6393h 0.440761v -33.7595h 0.440761v 67.5191h 0.440761v -50.6393h 0.440761v -33.7595h 0.440761v 101.279h 0.440761v -135.038h 0.440761v 67.5191h 0.440761v 16.8798h 0.440761v -16.8798h 0.440761v 84.3988h 0.440761v -101.279h 0.440761v
 67.5191h 0.440761v -67.5191h 0.440761v -50.6393h 0.440761v 84.3988h 0.440761v -33.7595h 0.440761v 16.8798h 0.440761v 67.5191h 0.440761v -168.798h 0.440761v 135.038h 0.440761v -33.7595h 0.440761v -67.5191h 0.440761v 33.7595h 0.440761v 33.7595h
 0.440761v -16.8798h 0.881522v 16.8798h 0.440761v 33.7595h 0.440761v -101.279h 0.440761v -33.7595h 0.440761v 67.5191h 0.440761v 67.5191h 0.440761v -33.7595h 0.440761v -84.3988h 0.440761v 118.158h 0.440761v -67.5191h 0.881522v -50.6393h 0.881522v
 84.3988h 0.440761v 33.7595h 0.440761v -168.798h 0.440761v 84.3988h 0.440761v 16.8798h 0.881522v -16.8798h 0.440761v 84.3988h 0.440761v -67.5191h 0.440761v 67.5191h 0.440761v -33.7595h 0.440761v -16.8798h 0.440761v -16.8798h 0.440761v 50.6393h
 0.440761v -101.279h 0.440761v 101.279h 0.440761v -84.3988h 0.440761v 118.158h 0.440761v -135.038h 0.440761v 33.7595h 0.440761v -50.6393h 0.440761v 118.158h 0.440761v -151.918h 0.440761v 50.6393h 0.440761v 101.279h 0.440761v -16.8798h 0.440761v
 -67.5191h 0.440761v 16.8798h 0.440761v -67.5191h 0.440761v 118.158h 0.440761v -84.3988h 0.440761v 50.6393h 0.440761v 84.3988h 0.440761v -101.279h 0.440761v -50.6393h 0.440761v 67.5191h 0.440761v -50.6393h 0.440761v -33.7595h 0.440761v 84.3988h
 0.440761v 84.3988h 0.440761v -50.6393h 0.440761v -118.158h 0.440761v 50.6393h 0.440761v 50.6393h 0.881522v -84.3988h 0.440761v 67.5191h 0.440761v 50.6393h 0.440761v -33.7595h 0.440761v -33.7595h 0.440761v -33.7595h 0.440761v 16.8798h 0.440761v
 -16.8798h 0.440761v -16.8798h 0.440761v 101.279h 0.440761v -135.038h 0.440761v 151.918h 0.440761v -33.7595h 0.440761v -33.7595h 0.440761v 16.8798h 0.440761v 16.8798h 0.440761v -33.7595h 0.440761v 67.5191h 0.440761v -16.8798h 0.440761v -50.6393h
 0.440761v 16.8798h 0.440761v -16.8798h 0.440761v 118.158h 0.440761v -151.918h 0.440761v 67.5191h 1.76304v 33.7595h 0.440761v -16.8798h 0.440761v -16.8798h 0.440761v 16.8798h 0.440761v 50.6393h 0.440761v 33.7595h 0.440761v -84.3988h 0.881522v
 -16.8798h 0.440761v 67.5191h 0.440761v -84.3988h 0.440761v -16.8798h 0.440761v -16.8798h 0.440761v 118.158h 0.440761v -50.6393h 0.440761v -67.5191h 0.440761v 50.6393h 0.440761v 16.8798h 0.440761v 50.6393h 0.881522v -84.3988h 0.440761v 50.6393h
 0.440761v -50.6393h 0.440761v 67.5191h 0.440761v -50.6393h 0.440761v 50.6393h 0.881522v -67.5191h 0.440761v 16.8798h 0.440761v -16.8798h 0.440761v 33.7595h 0.440761v -50.6393h 0.440761v 118.158h 0.440761v -16.8798h 0.881522v -33.7595h 0.440761v
 -16.8798h 0.440761v 16.8798h 0.440761v 16.8798h 0.440761v 16.8798h 0.881522v -50.6393h 0.440761v -16.8798h 0.440761v 16.8798h 0.881522v 16.8798h 0.440761v -101.279h 0.440761v 84.3988h 0.881522v 16.8798h 0.440761v -33.7595h 0.440761v -33.7595h
 0.440761v -16.8798h 0.440761v 50.6393h 0.440761v 16.8798h 0.881522v 33.7595h 0.440761v -67.5191h 0.440761v 67.5191h 0.440761v -16.8798h 0.440761v 16.8798h 0.440761v -84.3988h 0.440761v 67.5191h 0.440761v 16.8798h 0.440761v -67.5191h 0.440761v
 50.6393h 0.440761v 16.8798h 0.440761v -33.7595h 0.440761v 33.7595h 0.440761v -16.8798h 0.440761v -16.8798h 0.440761v 101.279h 0.440761v -16.8798h 0.440761v -135.038h 0.440761v 118.158h 0.440761v -16.8798h 0.881522v 16.8798h 0.440761v -50.6393h
 0.440761v 84.3988h 0.440761v -50.6393h 0.440761v 16.8798h 0.440761v -50.6393h 0.440761v 33.7595h 0.440761v 33.7595h 0.440761v -50.6393h 0.440761v 50.6393h 0.440761v 33.7595h 0.440761v -33.7595h 0.440761v -50.6393h 0.440761v -33.7595h 0.881522v
 16.8798h 0.440761v 84.3988h 0.440761v -67.5191h 0.440761v 67.5191h 0.440761v -33.7595h 0.440761v -67.5191h 0.440761v 84.3988h 0.881522v -50.6393h 0.440761v 16.8798h 0.440761v 33.7595h 0.440761v 33.7595h 0.440761v -33.7595h 0.440761v 16.8798h
 0.440761v -33.7595h 0.440761v 33.7595h 0.440761v -50.6393h 0.440761v 67.5191h 0.440761v -50.6393h 0.440761v 16.8798h 0.440761v -33.7595h 0.440761v 16.8798h 0.440761v 16.8798h 0.440761v 16.8798h 0.440761v 16.8798h 0.440761v -50.6393h 0.440761v
 50.6393h 0.440761v -50.6393h 0.881522v 16.8798h 0.440761v -50.6393h 0.440761v 67.5191h 1.76304v -33.7595h 0.440761v -50.6393h 0.440761v 84.3988h 0.881522v -33.7595h 0.440761v 50.6393h 0.440761v -50.6393h 0.440761v -16.8798h 0.440761v 16.8798h
 0.881522v 50.6393h 0.440761v -50.6393h 0.881522v 67.5191h 0.440761v -33.7595h 0.440761v -67.5191h 0.440761v 50.6393h 0.440761v 16.8798h 0.440761v -16.8798h 0.881522v 16.8798h 1.32228v 33.7595h 0.881522v -16.8798h 0.440761v -16.8798h 0.881522v
 -33.7595h 0.440761v 16.8798h 0.440761v 33.7595h 0.440761v -33.7595h 0.440761v 16.8798h 0.881522v -16.8798h 0.440761v 50.6393h 0.440761v -50.6393h 0.881522v -16.8798h 0.440761v 33.7595h 0.440761v -33.7595h 0.440761v 33.7595h 0.440761v 33.7595h
 0.440761v -16.8798h 0.440761v -33.7595h 0.440761v 16.8798h 0.440761v 33.7595h 0.440761v -16.8798h 0.440761v 16.8798h 1.32228v -16.8798h 0.440761v -16.8798h 0.440761v 16.8798h 1.32228v -16.8798h 0.440761v 16.8798h 0.440761v -84.3988h 0.440761v
 84.3988h 0.881522v -16.8798h 0.881522v -33.7595h 0.440761v 33.7595h 0.440761v 33.7595h 1.32228v -16.8798h 0.440761v -16.8798h 0.440761v 16.8798h 0.440761v -16.8798h 0.440761v 33.7595h 0.440761v -16.8798h 0.440761v -33.7595h 0.440761v 33.7595h
 1.32228v 16.8798h 0.881522v -16.8798h 0.881522v -33.7595h 0.440761v 50.6393h 0.440761v -33.7595h 1.32228v 16.8798h 0.440761v -16.8798h 0.881522v 33.7595h 0.440761v -16.8798h 0.440761v -33.7595h 0.440761v 50.6393h 0.440761v -33.7595h 0.440761v
 33.7595h 0.440761v -16.8798h 0.881522v 16.8798h 1.32228v -16.8798h 0.440761v -16.8798h 0.440761v 33.7595h 0.881522v -16.8798h 0.440761v 16.8798h 0.440761v -16.8798h 0.440761v 16.8798h 0.440761v -16.8798h 0.881522v 16.8798h 0.881522v -16.8798h
 0.440761v 16.8798h 0.440761v -16.8798h 0.440761v 16.8798h 0.440761v -16.8798h 0.440761v 16.8798h 0.440761v -16.8798h 0.440761v 16.8798h 0.440761v -50.6393h 0.440761v 33.7595h 0.440761v 16.8798h 0.440761v -16.8798h 1.32228v 16.8798h 0.881522v
 -16.8798h 0.440761v 16.8798h 0.881522v -33.7595h 0.440761v 16.8798h 0.440761v 16.8798h 0.440761v -16.8798h 0.881522v 16.8798h 0.881522v -16.8798h 0.440761v 16.8798h 0.440761v -33.7595h 0.440761v 33.7595h 0.440761v -16.8798h 0.440761v 16.8798h
 0.440761v -33.7595h 0.440761v 33.7595h 0.440761v -16.8798h 0.440761v 16.8798h 1.32228v -33.7595h 0.440761v 16.8798h 0.440761v 16.8798h 1.32228v -16.8798h 0.440761v 16.8798h 1.76304v -33.7595h 0.440761v 16.8798h 0.440761v -16.8798h 0.440761v 33.7595h
 0.881522v -16.8798h 0.440761v 16.8798h 0.440761v -16.8798h 0.881522v 16.8798h 0.881522v -16.8798h 0.440761v -33.7595h 0.440761v 50.6393h 1.32228v -33.7595h 0.440761v 16.8798h 0.440761v 16.8798h 0.440761v -16.8798h 0.440761v 16.8798h 0.881522v
 -16.8798h 0.440761v 16.8798h 0.440761v -33.7595h 0.440761v 16.8798h 0.440761v -16.8798h 0.440761v 33.7595h 0.440761v -16.8798h 0.881522v 16.8798h 0.881522v -16.8798h 0.440761v 16.8798h 0.440761v -16.8798h 0.881522v 16.8798h 0.440761v -16.8798h
 1.32228v 16.8798h 0.440761v -16.8798h 0.440761v 16.8798h 0.881522v -50.6393h 0.440761v 50.6393h 0.881522v -16.8798h 0.881522v 16.8798h 2.64457v -33.7595h 0.440761v 33.7595h 0.881522v -33.7595h 0.440761v 33.7595h 0.440761v -16.8798h 0.440761v
 16.8798h 2.20381v -16.8798h 0.881522v 16.8798h 1.76304v -16.8798h 0.881522v 16.8798h 0.440761v -16.8798h 0.440761v 16.8798h 0.881522v -33.7595h 0.440761v 33.7595h 1.32228v -50.6393h 0.440761v 33.7595h 0.440761v 16.8798h 0.440761v -16.8798h 0.881522v
 16.8798h 0.440761v -33.7595h 0.440761v 33.7595h 0.440761v -16.8798h 0.440761v 16.8798h 0.440761v -33.7595h 0.440761v 16.8798h 0.440761v 16.8798h 0.440761v -33.7595h 0.881522v 16.8798h 0.440761v 16.8798h 0.440761v -33.7595h 0.440761v 33.7595h
 2.20381v -16.8798h 0.440761v -16.8798h 0.440761v 16.8798h 0.440761v 16.8798h 0.881522v -33.7595h 0.440761v 33.7595h 0.881522v -16.8798h 0.440761v 16.8798h 2.20381v -16.8798h 0.440761v 16.8798h 4.84837v -16.8798h 0.440761v -16.8798h 0.440761v
 33.7595h 0.881522v -16.8798h 0.440761v 16.8798h 0.440761v -16.8798h 0.440761v 16.8798h 0.440761v -16.8798h 0.440761v 16.8798h 1.32228v -33.7595h 0.881522v 33.7595h 0.440761v -33.7595h 0.440761v 33.7595h 1.76304v -16.8798h 0.440761v 16.8798h
 0.440761v -16.8798h 0.881522v 16.8798h 1.32228v -16.8798h 0.440761v 16.8798h 1.76304v -16.8798h 0.440761v 16.8798h 0.440761v -16.8798h 0.881522v 16.8798h 0.440761v -33.7595h 0.440761v 16.8798h 0.440761v 16.8798h 3.08533v -33.7595h 0.440761v 16.8798h
 2.20381v 16.8798h 0.881522v -16.8798h 0.440761v 16.8798h 0.440761v -16.8798h 0.881522v 16.8798h 0.440761v -16.8798h 0.440761v 16.8798h 2.64457v -16.8798h 0.440761v 16.8798h 0.440761v -50.6393h 0.440761v 50.6393h 1.32228v -16.8798h 0.440761v 16.8798h
 0.881522v -16.8798h 0.881522v -16.8798h 0.440761v 33.7595h 0.881522v -16.8798h 0.440761v 16.8798h 0.440761v -16.8798h 1.32228v 16.8798h 0.440761v -33.7595h 0.440761v 16.8798h 0.440761v 16.8798h 0.881522v -16.8798h 0.881522v 16.8798h 1.32228v
 -16.8798h 0.440761v 16.8798h 2.20381v -16.8798h 0.440761v 16.8798h 0.881522v -16.8798h 0.881522v 16.8798h 1.32228v -33.7595h 0.440761v 33.7595h 0.440761v -16.8798h 0.881522v 16.8798h 0.440761v -16.8798h 0.440761v 16.8798h 1.32228v -16.8798h
 0.440761v 16.8798h 0.881522v -16.8798h 0.440761" fill="none" stroke="#ff0000" stroke-width="2"/>
<path d="M59.4606,293.047l 4.53543, 0.0775234l 4.53543, 0.0773337l 4.53543, 0.0770114l 4.53543, 0.0764721l 4.53543, 0.0755835l 4.53543, 0.0741416l 4.53543, 0.0718382l 4.53543, 0.0682158l 4.53543, 0.0626084l 4.53543, 0.0540653l 4.53543, 0.0412567l
 4.53543, 0.0223617l 4.53543, -0.00505924l 4.53543, -0.0441992l 4.53543, -0.0991362l 4.53543, -0.174943l 4.53543, -0.277751l 4.53543, -0.414737l 4.53543, -0.593998l 4.53543, -0.824281l 4.53543, -1.11453l 4.53543, -1.47323l 4.53543, -1.90753l 4.53543,
 -2.42222l 4.53543, -3.0185l 4.53543, -3.69275l 4.53543, -4.43536l 4.53543, -5.22976l 4.53543, -6.05185l 4.53543, -6.86998l 4.53543, -7.64565l 4.53543, -8.33492l 4.53543, -8.89071l 4.53543, -9.26573l 4.53543, -9.41599l 4.53543, -9.30457l 4.53543,
 -8.90528l 4.53543, -8.20584l 4.53543, -7.21023l 4.53543, -5.93979l 4.53543, -4.43302l 4.53543, -2.74377l 4.53543, -0.938129l 4.53543, 0.909824l 4.53543, 2.7231l 4.53543, 4.42712l 4.53543, 5.95476l 4.53543, 7.25079l 4.53543, 8.27508" fill="none"
 stroke="#0000ff" stroke-width="2"/>
<path d="M281.697,193.483l 4.53543, 9.00455l 4.53543, 9.43351l 4.53543, 9.5727l 4.53543, 9.44705l 4.53543, 9.09258l 4.53543, 8.55274l 4.53543, 7.87465l 4.53543, 7.10556l 4.53543, 6.28983l 4.53543, 5.4666l 4.53543, 4.66823l 4.53543, 3.91958l 4.53543,
 3.23796l 4.53543, 2.63365l 4.53543, 2.1108l 4.53543, 1.66863l 4.53543, 1.30268l 4.53543, 1.00596l 4.53543, 0.770095l 4.53543, 0.58614l 4.53543, 0.445311l 4.53543, 0.33943l 4.53543, 0.261221l 4.53543, 0.204445l 4.53543, 0.163927l 4.53543, 0.135493l
 4.53543, 0.115868l 4.53543, 0.102543l 4.53543, 0.0936409l 4.53543, 0.0877886l 4.53543, 0.0840021l 4.53543, 0.0815905l 4.53543, 0.0800785l 4.53543, 0.0791451l 4.53543, 0.0785779l 4.53543, 0.0782384l 4.53543, 0.0780383l 4.53543, 0.0779221l 4.53543,
 0.0778557l 4.53543, 0.0778183l 4.53543, 0.0777976l 4.53543, 0.0777863l 4.53543, 0.0777801l 4.53543, 0.0777769l 4.53543, 0.0777752l 4.53543, 0.0777744l 4.53543, 0.0777739l 4.53543, 0.0777737l 4.53543, 0.0777736" fill="none" stroke="#0000ff"
 stroke-width="2"/>
<path d="M503.933,300.669l 4.53543, 0.0777735" fill="none" stroke="#0000ff" stroke-width="2"/>
<rect x="314.563" y="25.4021" width="250.557" height="116.619" fill="white"/>
<path d="M314.563,142.021h 250.557" fill="none" stroke="black" stroke-width="2"/>
<path d="M565.12,142.021v -116.619" fill="none" stroke="black" stroke-width="2"/>
<path d="M565.12,25.4021h -250.557" fill="none" stroke="black" stroke-width="2"/>
<path d="M314.563,25.4021v 116.619" fill="none" stroke="black" stroke-width="2"/>
<text x="339.965" y="40.4125" fill="black" font-size="15.2389" font-family="Helvetica">
 / ndf 
</text>
<text x="334.191" y="34.6393" fill="black" font-size="10.326" font-family="Helvetica">
2
</text>
<text x="326.109" y="40.4125" fill="black" font-size="15.2389" font-family="Times">
&#0967;
</text>
<text x="477.367" y="40.4125" fill="black" font-size="15.2389" font-family="Helvetica">
 533.4 / 761
</text>
<text x="326.109" y="60.0414" fill="black" font-size="15.2389" font-family="Helvetica">
Centroid 
</text>
<text x="528.171" y="60.0414" fill="black" font-size="15.2389" font-family="Helvetica">
 2.9
</text>
<text x="520.089" y="60.0414" fill="black" font-size="15.2389" font-family="Times">
&#0177;
</text>
<text x="476.212" y="60.0414" fill="black" font-size="15.2389" font-family="Helvetica">
  3419 
</text>
<text x="326.109" y="80.8249" fill="black" font-size="15.2389" font-family="Helvetica">
FWHM     
</text>
<text x="528.171" y="79.6703" fill="black" font-size="15.2389" font-family="Helvetica">
 7.0
</text>
<text x="520.089" y="79.6703" fill="black" font-size="15.2389" font-family="Times">
&#0177;
</text>
<text x="476.212" y="79.6703" fill="black" font-size="15.2389" font-family="Helvetica">
 204.4 
</text>
<text x="326.109" y="98.1446" fill="black" font-size="15.2389" font-family="Helvetica">
Counts   
</text>
<text x="520.089" y="98.1446" fill="black" font-size="15.2389" font-family="Helvetica">
 58.9
</text>
<text x="512.006" y="98.1446" fill="black" font-size="15.2389" font-family="Times">
&#0177;
</text>
<text x="468.13" y="98.1446" fill="black" font-size="15.2389" font-family="Helvetica">
  1710 
</text>
<text x="326.109" y="116.619" fill="black" font-size="15.2389" font-family="Helvetica">
Intercept 
</text>
<text x="512.006" y="117.773" fill="black" font-size="15.2389" font-family="Helvetica">
 0.592
</text>
<text x="503.924" y="117.773" fill="black" font-size="15.2389" font-family="Times">
&#0177;
</text>
<text x="460.047" y="117.773" fill="black" font-size="15.2389" font-family="Helvetica">
 2.872 
</text>
<text x="326.109" y="136.248" fill="black" font-size="15.2389" font-family="Helvetica">
Slope    
</text>
<text x="478.522" y="137.402" fill="black" font-size="15.2389" font-family="Helvetica">
 0.0001684
</text>
<text x="470.439" y="137.402" fill="black" font-size="15.2389" font-family="Times">
&#0177;
</text>
<text x="396.542" y="137.402" fill="black" font-size="15.2389" font-family="Helvetica">
0.0004478 
</text>
<text x="388.46" y="137.402" fill="black" font-size="15.2389" font-family="Times">
&#8722;
</text>
<text x="384.996" y="137.402" fill="black" font-size="15.2389" font-family="Helvetica">
 
</text>
<path d="M57.1929,319.028h 453.543" fill="none" stroke="black" stroke-width="2"/>
<text x="462.357" y="342.929" fill="black" font-size="11.8822" font-family="Helvetica">
Channels
</text>
<path d="M69.975,310.52v 8.5074" fill="none" stroke="black" stroke-width="2"/>
<path d="M114.051,314.774v 4.2537" fill="none" stroke="black" stroke-width="2"/>
<path d="M158.127,314.774v 4.2537" fill="none" stroke="black" stroke-width="2"/>
<path d="M202.203,314.774v 4.2537" fill="none" stroke="black" stroke-width="2"/>
<path d="M246.279,314.774v 4.2537" fill="none" stroke="black" stroke-width="2"/>
<path d="M290.356,310.52v 8.5074" fill="none" stroke="black" stroke-width="2"/>
<path d="M334.432,314.774v 4.2537" fill="none" stroke="black" stroke-width="2"/>
<path d="M378.508,314.774v 4.2537" fill="none" stroke="black" stroke-width="2"/>
<path d="M422.584,314.774v 4.2537" fill="none" stroke="black" stroke-width="2"/>
<path d="M466.66,314.774v 4.2537" fill="none" stroke="black" stroke-width="2"/>
<path d="M510.736,310.52v 8.5074" fill="none" stroke="black" stroke-width="2"/>
<path d="M69.975,310.52v 8.5074" fill="none" stroke="black" stroke-width="2"/>
<text x="57.0774" y="330.228" fill="black" font-size="11.8822" font-family="Helvetica">
3000
</text>
<text x="277.614" y="330.228" fill="black" font-size="11.8822" font-family="Helvetica">
3500
</text>
<text x="496.996" y="330.228" fill="black" font-size="11.8822" font-family="Helvetica">
4000
</text>
<path d="M57.1929,319.028v -283.58" fill="none" stroke="black" stroke-width="2"/>
<path d="M70.7992,319.028h -13.6063" fill="none" stroke="black" stroke-width="2"/>
<path d="M63.9961,310.588h -6.80315" fill="none" stroke="black" stroke-width="2"/>
<path d="M63.9961,302.148h -6.80315" fill="none" stroke="black" stroke-width="2"/>
<path d="M63.9961,293.708h -6.80315" fill="none" stroke="black" stroke-width="2"/>
<path d="M70.7992,285.268h -13.6063" fill="none" stroke="black" stroke-width="2"/>
<path d="M63.9961,276.828h -6.80315" fill="none" stroke="black" stroke-width="2"/>
<path d="M63.9961,268.388h -6.80315" fill="none" stroke="black" stroke-width="2"/>
<path d="M63.9961,259.948h -6.80315" fill="none" stroke="black" stroke-width="2"/>
<path d="M70.7992,251.508h -13.6063" fill="none" stroke="black" stroke-width="2"/>
<path d="M63.9961,243.069h -6.80315" fill="none" stroke="black" stroke-width="2"/>
<path d="M63.9961,234.629h -6.80315" fill="none" stroke="black" stroke-width="2"/>
<path d="M63.9961,226.189h -6.80315" fill="none" stroke="black" stroke-width="2"/>
<path d="M70.7992,217.749h -13.6063" fill="none" stroke="black" stroke-width="2"/>
<path d="M63.9961,209.309h -6.80315" fill="none" stroke="black" stroke-width="2"/>
<path d="M63.9961,200.869h -6.80315" fill="none" stroke="black" stroke-width="2"/>
<path d="M63.9961,192.429h -6.80315" fill="none" stroke="black" stroke-width="2"/>
<path d="M70.7992,183.989h -13.6063" fill="none" stroke="black" stroke-width="2"/>
<path d="M63.9961,175.55h -6.80315" fill="none" stroke="black" stroke-width="2"/>
<path d="M63.9961,167.11h -6.80315" fill="none" stroke="black" stroke-width="2"/>
<path d="M63.9961,158.67h -6.80315" fill="none" stroke="black" stroke-width="2"/>
<path d="M70.7992,150.23h -13.6063" fill="none" stroke="black" stroke-width="2"/>
<path d="M63.9961,141.79h -6.80315" fill="none" stroke="black" stroke-width="2"/>
<path d="M63.9961,133.35h -6.80315" fill="none" stroke="black" stroke-width="2"/>
<path d="M63.9961,124.91h -6.80315" fill="none" stroke="black" stroke-width="2"/>
<path d="M70.7992,116.47h -13.6063" fill="none" stroke="black" stroke-width="2"/>
<path d="M63.9961,108.03h -6.80315" fill="none" stroke="black" stroke-width="2"/>
<path d="M63.9961,99.5906h -6.80315" fill="none" stroke="black" stroke-width="2"/>
<path d="M63.9961,91.1507h -6.80315" fill="none" stroke="black" stroke-width="2"/>
<path d="M70.7992,82.7108h -13.6063" fill="none" stroke="black" stroke-width="2"/>
<path d="M63.9961,74.271h -6.80315" fill="none" stroke="black" stroke-width="2"/>
<path d="M63.9961,65.8311h -6.80315" fill="none" stroke="black" stroke-width="2"/>
<path d="M63.9961,57.3912h -6.80315" fill="none" stroke="black" stroke-width="2"/>
<path d="M70.7992,48.9513h -13.6063" fill="none" stroke="black" stroke-width="2"/>
<path d="M70.7992,48.9513h -13.6063" fill="none" stroke="black" stroke-width="2"/>
<path d="M63.9961,40.5114h -6.80315" fill="none" stroke="black" stroke-width="2"/>
<text x="46.6857" y="323.3" fill="black" font-size="11.8822" font-family="Helvetica">
0
</text>
<text x="46.6857" y="290.97" fill="black" font-size="11.8822" font-family="Helvetica">
2
</text>
<text x="46.6857" y="256.33" fill="black" font-size="11.8822" font-family="Helvetica">
4
</text>
<text x="46.6857" y="221.691" fill="black" font-size="11.8822" font-family="Helvetica">
6
</text>
<text x="46.6857" y="188.207" fill="black" font-size="11.8822" font-family="Helvetica">
8
</text>
<text x="40.9125" y="154.722" fill="black" font-size="11.8822" font-family="Helvetica">
10
</text>
<text x="40.9125" y="121.237" fill="black" font-size="11.8822" font-family="Helvetica">
12
</text>
<text x="40.9125" y="87.7528" fill="black" font-size="11.8822" font-family="Helvetica">
14
</text>
<text x="40.9125" y="53.1135" fill="black" font-size="11.8822" font-family="Helvetica">
16
</text>
<rect x="314.563" y="25.4021" width="250.557" height="116.619" fill="white"/>
<path d="M314.563,142.021h 250.557" fill="none" stroke="black" stroke-width="2"/>
<path d="M565.12,142.021v -116.619" fill="none" stroke="black" stroke-width="2"/>
<path d="M565.12,25.4021h -250.557" fill="none" stroke="black" stroke-width="2"/>
<path d="M314.563,25.4021v 116.619" fill="none" stroke="black" stroke-width="2"/>
<text x="339.965" y="40.4125" fill="black" font-size="15.2389" font-family="Helvetica">
 / ndf 
</text>
<text x="334.191" y="34.6393" fill="black" font-size="10.326" font-family="Helvetica">
2
</text>
<text x="326.109" y="40.4125" fill="black" font-size="15.2389" font-family="Times">
&#0967;
</text>
<text x="477.367" y="40.4125" fill="black" font-size="15.2389" font-family="Helvetica">
 533.4 / 761
</text>
<text x="326.109" y="60.0414" fill="black" font-size="15.2389" font-family="Helvetica">
Centroid 
</text>
<text x="528.171" y="60.0414" fill="black" font-size="15.2389" font-family="Helvetica">
 2.9
</text>
<text x="520.089" y="60.0414" fill="black" font-size="15.2389" font-family="Times">
&#0177;
</text>
<text x="476.212" y="60.0414" fill="black" font-size="15.2389" font-family="Helvetica">
  3419 
</text>
<text x="326.109" y="80.8249" fill="black" font-size="15.2389" font-family="Helvetica">
FWHM     
</text>
<text x="528.171" y="79.6703" fill="black" font-size="15.2389" font-family="Helvetica">
 7.0
</text>
<text x="520.089" y="79.6703" fill="black" font-size="15.2389" font-family="Times">
&#0177;
</text>
<text x="476.212" y="79.6703" fill="black" font-size="15.2389" font-family="Helvetica">
 204.4 
</text>
<text x="326.109" y="98.1446" fill="black" font-size="15.2389" font-family="Helvetica">
Counts   
</text>
<text x="520.089" y="98.1446" fill="black" font-size="15.2389" font-family="Helvetica">
 58.9
</text>
<text x="512.006" y="98.1446" fill="black" font-size="15.2389" font-family="Times">
&#0177;
</text>
<text x="468.13" y="98.1446" fill="black" font-size="15.2389" font-family="Helvetica">
  1710 
</text>
<text x="326.109" y="116.619" fill="black" font-size="15.2389" font-family="Helvetica">
Intercept 
</text>
<text x="512.006" y="117.773" fill="black" font-size="15.2389" font-family="Helvetica">
 0.592
</text>
<text x="503.924" y="117.773" fill="black" font-size="15.2389" font-family="Times">
&#0177;
</text>
<text x="460.047" y="117.773" fill="black" font-size="15.2389" font-family="Helvetica">
 2.872 
</text>
<text x="326.109" y="136.248" fill="black" font-size="15.2389" font-family="Helvetica">
Slope    
</text>
<text x="478.522" y="137.402" fill="black" font-size="15.2389" font-family="Helvetica">
 0.0001684
</text>
<text x="470.439" y="137.402" fill="black" font-size="15.2389" font-family="Times">
&#0177;
</text>
<text x="396.542" y="137.402" fill="black" font-size="15.2389" font-family="Helvetica">
0.0004478 
</text>
<text x="388.46" y="137.402" fill="black" font-size="15.2389" font-family="Times">
&#8722;
</text>
<text x="384.996" y="137.402" fill="black" font-size="15.2389" font-family="Helvetica">
 
</text>
<path d="M59.4606,319.028h 36.2835l 4.53543, -0.0395404l 4.53543, -0.0237082l 4.53543, -0.0365167l 4.53543, -0.0554118l 4.53543, -0.0828327l 4.53543, -0.121973l 4.53543, -0.17691l 4.53543, -0.252717l 4.53543, -0.355525l 4.53543, -0.49251l 4.53543,
 -0.671771l 4.53543, -0.902054l 4.53543, -1.1923l 4.53543, -1.551l 4.53543, -1.9853l 4.53543, -2.49999l 4.53543, -3.09627l 4.53543, -3.77052l 4.53543, -4.51313l 4.53543, -5.30753l 4.53543, -6.12962l 4.53543, -6.94775l 4.53543, -7.72342l 4.53543,
 -8.41269l 4.53543, -8.96848l 4.53543, -9.3435l 4.53543, -9.49376l 4.53543, -9.38234l 4.53543, -8.98305l 4.53543, -8.28361l 4.53543, -7.288l 4.53543, -6.01757l 4.53543, -4.5108l 4.53543, -2.82154l 4.53543, -1.0159l 4.53543, 0.832051l 4.53543,
 2.64533l 4.53543, 4.34934l 4.53543, 5.87698l 4.53543, 7.17301l 4.53543, 8.19731" fill="none" stroke="#00ff00" stroke-width="2"/>
<path d="M281.697,215.652l 4.53543, 8.92677l 4.53543, 9.35573l 4.53543, 9.49492l 4.53543, 9.36928l 4.53543, 9.01481l 4.53543, 8.47497l 4.53543, 7.79688l 4.53543, 7.02779l 4.53543, 6.21206l 4.53543, 5.38882l 4.53543, 4.59045l 4.53543, 3.8418l 4.53543,
 3.16019l 4.53543, 2.55587l 4.53543, 2.03302l 4.53543, 1.59086l 4.53543, 1.22491l 4.53543, 0.928191l 4.53543, 0.692321l 4.53543, 0.508367l 4.53543, 0.367538l 4.53543, 0.261657l 4.53543, 0.183447l 4.53543, 0.126672l 4.53543, 0.0861538l 4.53543,
 0.05772l 4.53543, 0.0380947l 4.53543, 0.0247695l 4.53543, 0.041465h 90.7087" fill="none" stroke="#00ff00" stroke-width="2"/>
<path d="M503.933,319.028h 4.53543" fill="none" stroke="#00ff00" stroke-width="2"/>
<text x="219.882" y="16.165" fill="black" font-size="16.714" font-family="Helvetica">
Cs137_800V.Spe
</text></svg>
